<?xml version="1.0" encoding="utf-8"?>
<!-- Generator: Adobe Illustrator 27.5.0, SVG Export Plug-In . SVG Version: 6.00 Build 0)  -->
<svg version="1.1" xmlns="http://www.w3.org/2000/svg" xmlns:xlink="http://www.w3.org/1999/xlink" x="0px" y="0px"
	 viewBox="0 0 500 500" style="enable-background:new 0 0 500 500;" xml:space="preserve">
<g id="BACKGROUND">
	<rect y="0.002" style="fill:#A7ADFA;" width="500" height="500"/>
</g>
<g id="OBJECTS">
	<g>
		<path style="fill:#FFAA17;" d="M194.002,235.967v-5.741h-25.378l-10.188-2.726c0,0-7.196-11.098-7.203-11.098l-8.978-13.837
			c-3.964-6.097-10.431-6.097-14.391,0l-8.983,13.837l-7.196,11.098l-10.187,2.726h-25.42v5.741h0.037
			c-0.161,2.101,0.602,4.422,2.416,6.667l10.391,12.81l8.323,10.269l-1.567,29.676c-0.376,7.257,4.863,11.067,11.647,8.468
			l27.736-10.664l27.738,10.664c6.788,2.6,12.021-1.211,11.639-8.468l-1.56-29.676l8.313-10.269l10.391-12.81
			C193.398,240.389,194.161,238.067,194.002,235.967z"/>
		<path style="opacity:0.8;fill:#FFFFFF;" d="M187.135,223.257l-28.698-7.682c0,0-7.196-11.097-7.203-11.097l-8.978-13.834
			c-3.964-6.1-10.431-6.1-14.391,0l-8.983,13.834l-7.196,11.097l-28.703,7.682c-7.016,1.874-9.023,8.034-4.451,13.688l10.391,12.809
			l8.323,10.269l-1.567,29.68c-0.376,7.256,4.863,11.066,11.647,8.466l27.736-10.662l27.738,10.662
			c6.788,2.6,12.021-1.21,11.639-8.466l-1.56-29.68l8.313-10.269l10.391-12.809C196.158,231.291,194.158,225.131,187.135,223.257z"
			/>
		<path style="fill:#FFDA33;" d="M187.135,222.273l-28.698-7.683c0,0-7.196-11.096-7.203-11.096l-8.978-13.835
			c-3.964-6.099-10.431-6.099-14.391,0l-8.983,13.835l-7.196,11.096l-28.703,7.683c-7.016,1.875-9.023,8.035-4.451,13.688
			l10.391,12.81l8.323,10.269l-1.567,29.679c-0.376,7.256,4.863,11.066,11.647,8.468l27.736-10.663l27.738,10.663
			c6.788,2.599,12.021-1.212,11.639-8.468l-1.56-29.679l8.313-10.269l10.391-12.81C196.158,230.309,194.158,224.148,187.135,222.273
			z"/>
		<polygon style="fill:#FF8F17;" points="141.783,234.004 141.271,222.51 149.896,222.51 134.662,203.861 119.43,222.51 
			128.053,222.51 127.548,234.004 		"/>
	</g>
	<g>
		<g>
			<path style="fill:#FFAA17;" d="M170.746,73.128v-7.251h-15.365l-6.167-1.65c0,0-4.357-6.718-4.361-6.718l-5.435-8.377
				c-2.399-3.691-6.315-3.691-8.713,0l-5.438,8.377l-4.356,6.718l-6.17,1.65H99.352v7.251h0.021
				c-0.097,1.273,0.364,2.678,1.463,4.037l6.291,7.755l5.039,6.217l-0.948,17.968c-0.228,4.393,2.944,6.7,7.052,5.126l16.793-6.456
				l16.792,6.456c4.11,1.574,7.278-0.733,7.047-5.126l-0.944-17.968l5.032-6.217l6.292-7.755
				C170.381,75.806,170.842,74.401,170.746,73.128z"/>
			<path style="fill:#FFDA33;" d="M166.588,61.063l-17.374-4.65c0,0-4.357-6.718-4.361-6.718l-5.435-8.376
				c-2.399-3.692-6.315-3.692-8.713,0l-5.438,8.376l-4.356,6.718l-17.379,4.65c-4.248,1.137-5.462,4.865-2.695,8.287l6.291,7.756
				l5.039,6.217l-0.948,17.968c-0.228,4.394,2.944,6.7,7.052,5.126l16.793-6.456l16.792,6.456c4.11,1.574,7.278-0.732,7.047-5.126
				l-0.944-17.968l5.032-6.217l6.292-7.756C172.05,65.928,170.84,62.199,166.588,61.063z"/>
			<path style="opacity:0.2;fill:#FFFFFF;" d="M116.526,57.586l-12.995,3.477c-1.505,0.402-2.62,1.135-3.321,2.059l31.255,38.222
				l3.598-1.383l16.792,6.456c1.779,0.682,3.381,0.634,4.607,0.006L116.526,57.586z"/>
			<path style="opacity:0.2;fill:#FFFFFF;" d="M163.025,77.061l-30.691-37.53c-0.588,0.445-1.143,1.036-1.63,1.788l-5.261,8.102
				l32.843,40.163l-0.329-6.262l5.032-6.217L163.025,77.061z"/>
		</g>
		<g>
			<path style="fill:#FFAA17;" d="M99.988,80.999l-1.458-4.596l-9.739,3.091l-4.241,0.194c0,0-4.113-3.38-4.116-3.38l-5.13-4.216
				c-2.264-1.856-4.745-1.068-5.522,1.753l-1.761,6.403l-1.41,5.134l-3.577,2.287l-9.754,3.097l1.459,4.597l0.014-0.005
				c0.194,0.826,0.77,1.624,1.739,2.265l5.547,3.648l4.444,2.928l3.014,11.577c0.74,2.831,3.215,3.654,5.501,1.831l9.345-7.471
				l11.941,0.714c2.922,0.171,4.466-1.929,3.436-4.667l-4.214-11.198l1.939-4.952l2.427-6.182
				C100.295,82.77,100.306,81.786,99.988,80.999z"/>
			<path style="fill:#FFDA33;" d="M94.925,74.189l-11.947,0.547c0,0-4.112-3.381-4.115-3.38l-5.131-4.217
				c-2.264-1.856-4.745-1.067-5.521,1.753l-1.761,6.404l-1.41,5.134L54.96,86.875c-2.465,1.574-2.483,4.182-0.041,5.795l5.548,3.648
				l4.443,2.927l3.015,11.578c0.739,2.831,3.214,3.655,5.5,1.831l9.345-7.471l11.941,0.715c2.922,0.17,4.467-1.93,3.436-4.668
				l-4.214-11.197l1.939-4.953l2.428-6.181C99.365,76.173,97.848,74.054,94.925,74.189z"/>
			<path style="opacity:0.2;fill:#FFFFFF;" d="M62.496,82.057l-7.536,4.818c-0.873,0.557-1.433,1.246-1.691,1.972l27.5,17.937
				l2.001-1.6l11.941,0.715c1.265,0.072,2.271-0.28,2.922-0.924L62.496,82.057z"/>
			<path style="opacity:0.2;fill:#FFFFFF;" d="M95.886,85.045L68.884,67.433c-0.284,0.4-0.516,0.886-0.674,1.46l-1.704,6.194
				l28.896,18.849l-1.47-3.902l1.939-4.953L95.886,85.045z"/>
		</g>
		<g>
			<path style="fill:#FFAA17;" d="M170.87,80.88l1.459-4.597l9.739,3.092l4.24,0.193c0,0,4.113-3.38,4.116-3.379l5.13-4.217
				c2.264-1.856,4.746-1.068,5.522,1.754l1.761,6.402l1.41,5.135l3.578,2.287l9.754,3.096l-1.459,4.597l-0.015-0.005
				c-0.194,0.826-0.77,1.624-1.739,2.265l-5.547,3.648l-4.443,2.928l-3.015,11.577c-0.74,2.831-3.215,3.654-5.501,1.831
				l-9.344-7.471l-11.942,0.714c-2.922,0.171-4.466-1.929-3.435-4.667l4.213-11.198l-1.939-4.952l-2.427-6.181
				C170.563,82.65,170.553,81.667,170.87,80.88z"/>
			<path style="fill:#FFDA33;" d="M175.934,74.069l11.947,0.547c0,0,4.113-3.38,4.115-3.379l5.131-4.218
				c2.264-1.855,4.745-1.067,5.521,1.754l1.762,6.403l1.41,5.135l10.078,6.444c2.465,1.574,2.483,4.182,0.041,5.794l-5.547,3.649
				l-4.444,2.927l-3.015,11.577c-0.739,2.832-3.214,3.655-5.5,1.832l-9.345-7.471l-11.941,0.714
				c-2.922,0.171-4.466-1.929-3.436-4.667l4.214-11.198l-1.939-4.953l-2.428-6.181C171.493,76.053,173.011,73.934,175.934,74.069z"
				/>
			<path style="opacity:0.2;fill:#FFFFFF;" d="M208.362,81.937l7.536,4.819c0.873,0.556,1.434,1.245,1.692,1.971l-27.5,17.938
				l-2.002-1.6l-11.941,0.714c-1.265,0.072-2.27-0.279-2.922-0.923L208.362,81.937z"/>
			<path style="opacity:0.2;fill:#FFFFFF;" d="M174.973,84.925l27.003-17.612c0.284,0.4,0.515,0.887,0.673,1.461l1.704,6.194
				l-28.895,18.848l1.469-3.902l-1.939-4.953L174.973,84.925z"/>
		</g>
		<g>
			<path style="fill:#B52020;" d="M194.773,103.232c-1.308-0.545-2.824,0.08-3.369,1.389l-12.8,30.741
				c-0.542,1.308,0.081,2.825,1.39,3.369l24.73,10.294c3.303,1.378,5.551-0.389,4.996-3.923l-0.742-4.719l-0.742-4.712
				c0-0.002,0-0.002,0-0.004l-1.01-6.428l5.27-3.81c0,0,0.001-0.003,0.005-0.003l3.866-2.792l3.875-2.8
				c2.896-2.096,2.564-4.934-0.739-6.309L194.773,103.232z"/>
			<path style="fill:#B52020;" d="M75.345,103.232c1.308-0.545,2.825,0.08,3.369,1.389l12.799,30.741
				c0.544,1.308-0.079,2.825-1.389,3.369l-24.729,10.294c-3.302,1.378-5.55-0.389-4.996-3.923l0.742-4.719l0.741-4.712
				c0-0.002,0-0.002,0-0.004l1.012-6.428l-5.271-3.81c0,0-0.001-0.003-0.006-0.003l-3.864-2.792l-3.876-2.8
				c-2.897-2.096-2.563-4.934,0.74-6.309L75.345,103.232z"/>
			<path style="fill:#E63535;" d="M197.609,132.058c-1.503,3.249-5.497,4.64-8.934,3.281c-34.435-13.653-72.799-13.653-107.232,0
				c-3.439,1.358-7.432-0.029-8.934-3.281c-3.488-7.73-6.979-15.455-10.467-23.184c-1.5-3.247,0.816-7.538,5.228-9.284
				c43.537-17.261,92.041-17.261,135.576,0c4.411,1.746,6.731,6.037,5.23,9.284C204.587,116.603,201.098,124.327,197.609,132.058z"
				/>
		</g>
	</g>
	<g>
		<g>
			<polygon style="fill:#FFAA17;" points="378.788,119.505 378.788,85.23 392.651,85.23 392.651,75.685 368.164,46.509 
				343.677,75.685 343.677,85.23 357.54,85.23 357.54,119.505 			"/>
			<polygon style="fill:#FFD221;" points="378.788,111.772 378.788,75.685 392.651,75.685 368.164,38.777 343.677,75.685 
				357.54,75.685 357.54,111.772 			"/>
			<polygon style="opacity:0.2;fill:#FFFFFF;" points="361.912,48.198 358.883,52.766 384.421,75.685 392.538,75.685 			"/>
			<polygon style="opacity:0.2;fill:#FFFFFF;" points="378.788,94.321 378.788,82.218 354.063,60.029 349.031,67.615 			"/>
		</g>
		<g>
			<polygon style="fill:#FFAA17;" points="337.982,110.963 338.538,103.457 331.94,87.933 340.951,85.569 341.188,76.842 
				320.129,61.41 309.355,85.191 309.119,93.918 318.129,91.555 324.172,114.586 			"/>
			<polygon style="fill:#FFD221;" points="338.538,103.457 332.177,79.206 341.188,76.842 318.768,56.216 309.355,85.191 
				318.366,82.827 324.727,107.079 			"/>
			<polygon style="opacity:0.2;fill:#FFFFFF;" points="310.182,82.648 312.185,84.448 318.366,82.827 320.825,92.201 
				334.535,104.506 338.538,103.457 335.978,93.697 313.225,73.277 			"/>
			<polygon style="opacity:0.2;fill:#FFFFFF;" points="317.972,58.664 316.14,64.305 332.614,79.092 338.896,77.443 			"/>
		</g>
		<g>
			<polygon style="fill:#FFAA17;" points="398.346,110.963 397.79,103.457 404.39,87.933 395.378,85.569 395.141,76.842 
				416.199,61.41 426.973,85.191 427.209,93.918 418.199,91.555 412.158,114.586 			"/>
			<polygon style="fill:#FFD221;" points="397.79,103.457 404.151,79.206 395.141,76.842 417.563,56.216 426.973,85.191 
				417.962,82.827 411.601,107.079 			"/>
			<polygon style="opacity:0.2;fill:#FFFFFF;" points="403.263,69.371 396.602,75.497 399.324,77.939 404.151,79.206 
				403.501,81.688 415.448,92.411 417.962,82.827 418.377,82.937 			"/>
			<polygon style="opacity:0.2;fill:#FFFFFF;" points="413.647,59.817 409.639,63.505 424.163,76.541 420.824,66.26 			"/>
		</g>
		<g>
			<path style="fill:#B52020;" d="M427.879,103.004c-1.308-0.545-2.824,0.08-3.369,1.389l-12.8,30.741
				c-0.542,1.308,0.081,2.825,1.39,3.369l24.73,10.294c3.302,1.378,5.55-0.389,4.995-3.923l-0.741-4.719l-0.743-4.712
				c0-0.002,0-0.002,0-0.004l-1.01-6.428l5.271-3.81c0,0,0.001-0.003,0.005-0.003l3.866-2.792l3.875-2.8
				c2.896-2.096,2.563-4.934-0.739-6.309L427.879,103.004z"/>
			<path style="fill:#B52020;" d="M308.45,103.004c1.308-0.545,2.825,0.08,3.369,1.389l12.799,30.741
				c0.544,1.308-0.079,2.825-1.389,3.369L298.5,148.797c-3.302,1.378-5.55-0.389-4.996-3.923l0.742-4.719l0.741-4.712
				c0-0.002,0-0.002,0-0.004l1.012-6.428l-5.272-3.81c0,0-0.001-0.003-0.006-0.003l-3.864-2.792l-3.876-2.8
				c-2.897-2.096-2.563-4.934,0.74-6.309L308.45,103.004z"/>
			<path style="fill:#E63535;" d="M430.715,131.829c-1.503,3.249-5.497,4.64-8.934,3.281c-34.435-13.653-72.799-13.653-107.232,0
				c-3.439,1.358-7.432-0.029-8.934-3.281c-3.488-7.73-6.979-15.455-10.467-23.184c-1.5-3.247,0.816-7.538,5.228-9.284
				c43.537-17.261,92.042-17.261,135.576,0c4.411,1.746,6.732,6.037,5.23,9.284C437.692,116.374,434.203,124.099,430.715,131.829z"
				/>
		</g>
	</g>
	<g>
		<g>
			<path style="fill:#FFAA17;" d="M417.18,263.863c0,27.07-21.943,49.017-49.016,49.017c-27.07,0-49.015-21.946-49.015-49.017
				v-5.283h98.03V263.863z"/>
			<linearGradient id="SVGID_1_" gradientUnits="userSpaceOnUse" x1="368.1646" y1="298.0764" x2="368.1646" y2="268.4379">
				<stop  offset="0" style="stop-color:#FFE705"/>
				<stop  offset="0.591" style="stop-color:#FFC805"/>
				<stop  offset="1" style="stop-color:#FFB805"/>
			</linearGradient>
			<path style="fill:url(#SVGID_1_);" d="M319.149,259.576c0,27.068,21.944,49.015,49.015,49.015
				c27.072,0,49.016-21.946,49.016-49.015v-0.996h-98.03V259.576z"/>
			<g>
				<polygon style="fill:#E63535;" points="332.682,182.189 332.682,204.757 353.233,213.864 353.233,182.189 				"/>
				<polygon style="fill:#E63535;" points="403.648,182.189 383.097,182.189 383.097,213.864 403.648,204.757 				"/>
				<polygon style="fill:#FFFFFF;" points="353.233,182.189 353.233,213.864 368.164,220.482 383.097,213.864 383.097,182.189 				
					"/>
			</g>
			<rect x="328.799" y="176.879" style="fill:#FFDA33;" width="78.73" height="10.62"/>
			<rect x="328.799" y="182.189" style="fill:#FFAA17;" width="78.73" height="5.311"/>
			<path style="fill:#FFDA33;" d="M417.18,258.58c0,27.07-21.943,49.016-49.016,49.016c-27.07,0-49.015-21.945-49.015-49.016
				c0-27.069,21.944-49.016,49.015-49.016C395.236,209.564,417.18,231.511,417.18,258.58z"/>
			<g style="opacity:0.2;">
				<path style="fill:#FFFFFF;" d="M368.164,209.564c-3.867,0-7.621,0.462-11.229,1.309l51.525,75.604
					c5.493-7.919,8.72-17.528,8.72-27.896c0-2.988-0.282-5.908-0.794-8.749l-22.452-32.944
					C386.446,212.248,377.62,209.564,368.164,209.564z"/>
				<path style="fill:#FFFFFF;" d="M336.844,220.88c-10.003,8.318-16.631,20.544-17.566,34.333l34.162,50.128
					c4.647,1.464,9.593,2.255,14.725,2.255c8.573,0,16.629-2.208,23.64-6.074L336.844,220.88z"/>
			</g>
			<circle style="fill:#FF8800;" cx="368.164" cy="258.58" r="37.374"/>
			<path style="fill:#FFAA17;" d="M403.24,258.58c0,19.372-15.703,35.077-35.076,35.077c-19.373,0-35.076-15.705-35.076-35.077
				c0-19.373,15.703-35.076,35.076-35.076C387.537,223.504,403.24,239.207,403.24,258.58z"/>
		</g>
	</g>
	<g>
		<g>
			<g>
				<path style="fill:#FFAA17;" d="M98.471,390.531l6.319-16.705l-59.561-22.531c0,0-4.329,17.459,11.324,23.379
					C72.206,380.596,98.471,390.531,98.471,390.531z"/>
				<path style="fill:#FFAA17;" d="M103.569,413.533l6.318-16.703l-59.561-22.531c0,0-4.33,17.457,11.323,23.378
					C77.304,403.599,103.569,413.533,103.569,413.533z"/>
				<path style="fill:#FFAA17;" d="M55.425,397.302c0,0-4.33,17.458,11.322,23.378c15.653,5.922,41.919,15.857,41.919,15.857
					l6.318-16.705L55.425,397.302z"/>
			</g>
			<g>
				<path style="fill:#FFDA33;" d="M98.471,382.447l6.319-16.705l-59.561-22.53c0,0-4.329,17.458,11.324,23.378
					C72.206,372.511,98.471,382.447,98.471,382.447z"/>
				<path style="fill:#FFDA33;" d="M103.569,405.45l6.318-16.704l-59.561-22.531c0,0-4.33,17.457,11.323,23.379
					C77.304,395.514,103.569,405.45,103.569,405.45z"/>
				<path style="fill:#FFDA33;" d="M55.425,389.219c0,0-4.33,17.455,11.322,23.377c15.653,5.922,41.919,15.857,41.919,15.857
					l6.318-16.705L55.425,389.219z"/>
			</g>
			<g>
				<path style="fill:#FFAA17;" d="M85.056,413.131c0.596,2.609,1.43,5.043,2.449,7.317c11.263,4.26,21.161,8.005,21.161,8.005
					l6.318-16.705L83,399.648C83.342,403.958,83.992,408.477,85.056,413.131z"/>
				<path style="fill:#FFAA17;" d="M82.867,397.619c11.071,4.188,20.702,7.831,20.702,7.831l6.318-16.704l-26.322-9.957
					C82.844,384.264,82.462,390.647,82.867,397.619z"/>
				<path style="fill:#FFAA17;" d="M104.79,365.742l-16.58-6.273c-0.578,1.482-2.939,7.912-4.378,17.439
					c8.3,3.141,14.639,5.539,14.639,5.539L104.79,365.742z"/>
			</g>
			<g>
				<path style="fill:#FFAA17;" d="M171.646,390.531l-6.319-16.705l59.561-22.531c0,0,4.329,17.459-11.324,23.379
					C197.911,380.596,171.646,390.531,171.646,390.531z"/>
				<path style="fill:#FFAA17;" d="M166.549,413.533l-6.319-16.703l59.561-22.531c0,0,4.33,17.457-11.323,23.378
					C192.813,403.599,166.549,413.533,166.549,413.533z"/>
				<path style="fill:#FFAA17;" d="M214.692,397.302c0,0,4.33,17.458-11.322,23.378c-15.653,5.922-41.919,15.857-41.919,15.857
					l-6.318-16.705L214.692,397.302z"/>
			</g>
			<g>
				<path style="fill:#FFDA33;" d="M171.646,382.447l-6.319-16.705l59.561-22.53c0,0,4.329,17.458-11.324,23.378
					C197.911,372.511,171.646,382.447,171.646,382.447z"/>
				<path style="fill:#FFDA33;" d="M166.549,405.45l-6.319-16.704l59.561-22.531c0,0,4.33,17.457-11.323,23.379
					C192.813,395.514,166.549,405.45,166.549,405.45z"/>
				<path style="fill:#FFDA33;" d="M214.692,389.219c0,0,4.33,17.455-11.322,23.377c-15.653,5.922-41.919,15.857-41.919,15.857
					l-6.318-16.705L214.692,389.219z"/>
			</g>
			<g>
				<path style="fill:#FFAA17;" d="M185.061,413.131c-0.596,2.609-1.43,5.043-2.449,7.317c-11.263,4.26-21.161,8.005-21.161,8.005
					l-6.318-16.705l31.984-12.1C186.775,403.958,186.125,408.477,185.061,413.131z"/>
				<path style="fill:#FFAA17;" d="M187.251,397.619c-11.072,4.188-20.702,7.831-20.702,7.831l-6.319-16.704l26.322-9.957
					C187.273,384.264,187.655,390.647,187.251,397.619z"/>
				<path style="fill:#FFAA17;" d="M165.327,365.742l16.58-6.273c0.578,1.482,2.939,7.912,4.378,17.439
					c-8.3,3.141-14.639,5.539-14.639,5.539L165.327,365.742z"/>
			</g>
		</g>
		<path style="fill:#FFAA17;" d="M175.994,367.963l-19.72,2.113l-21.216-14.201v-0.001l0,0h-0.001v0.001l-21.216,14.201
			l-19.719-2.113c0,0-10.096,24.182-3.288,53.996c6.804,29.801,44.187,37.086,44.223,37.092l0,0h0.001l0,0l0,0
			c0.036-0.006,37.419-7.291,44.223-37.092C186.089,392.145,175.994,367.963,175.994,367.963z"/>
		<path style="opacity:0.8;fill:#FFFFFF;" d="M175.994,362.509l-19.72,2.112l-21.216-14.201v-0.002l0,0h-0.001v0.002l-21.216,14.201
			l-19.719-2.112c0,0-10.096,24.181-3.288,53.997c6.804,29.801,44.187,37.084,44.223,37.091l0,0h0.001l0,0l0,0
			c0.036-0.007,37.419-7.29,44.223-37.091C186.089,386.69,175.994,362.509,175.994,362.509z"/>
		<path style="fill:#FFDA33;" d="M175.994,361.688l-19.72,2.111l-21.216-14.201l0,0l0,0h-0.001l0,0l-21.216,14.201l-19.719-2.111
			c0,0-10.096,24.181-3.288,53.996c6.804,29.802,44.187,37.086,44.223,37.092l0,0h0.001l0,0l0,0
			c0.036-0.006,37.419-7.29,44.223-37.092C186.089,385.868,175.994,361.688,175.994,361.688z"/>
		<path style="opacity:0.2;fill:#FFFFFF;" d="M156.793,363.744l-0.519,0.055l-21.216-14.201l0,0h-0.001l0,0l-8.667,5.803
			l50.847,66.668c0.837-2.005,1.528-4.129,2.044-6.385c1.561-6.837,2.227-13.372,2.335-19.393L156.793,363.744z"/>
		<path style="opacity:0.2;fill:#FFFFFF;" d="M92.055,367.972c-2.383,8.536-5.533,24.948-1.963,44.087l25.46,33.381
			c10.176,5.517,19.487,7.332,19.506,7.336h0.001c0.017-0.002,7.882-1.537,17.05-6.065L92.055,367.972z"/>
		<path style="fill:#FFAA17;" d="M135.059,443.152c-6.781-1.793-30.505-9.439-35.099-29.552c-4.041-17.702-1.409-33.37,0.771-41.792
			l15.494,1.661l18.833-12.608l18.834,12.608l15.496-1.661c2.177,8.41,4.811,24.082,0.769,41.792
			C165.563,433.713,141.839,441.359,135.059,443.152z"/>
		<path style="fill:#FF8800;" d="M114.983,377.156l19.697-12.608l19.697,12.608l15.882-1.627c-0.288-1.357-0.584-2.605-0.872-3.721
			l-15.496,1.661l-18.834-12.608l-18.833,12.608l-15.494-1.661c-0.295,1.136-0.595,2.411-0.888,3.796L114.983,377.156z"/>
	</g>
	<g>
		<path style="fill:#FF8800;" d="M323.014,360.98c0,0-11.137,26.672-3.627,59.559c7.505,32.87,48.738,40.905,48.777,40.912l0,0
			h0.001l0,0l0,0c0.04-0.007,41.274-8.042,48.778-40.912c7.509-32.887-3.626-59.559-3.626-59.559l-45.152-12.43L323.014,360.98z"/>
		<path style="opacity:0.8;fill:#FFFFFF;" d="M323.014,354.197c0,0-11.137,26.672-3.627,59.559
			c7.505,32.871,48.738,40.905,48.777,40.913l0,0h0.001l0,0l0,0c0.04-0.008,41.274-8.042,48.778-40.913
			c7.509-32.887-3.626-59.559-3.626-59.559l-45.152-12.43L323.014,354.197z"/>
		<path style="fill:#FFDA33;" d="M323.014,353.241c0,0-11.137,26.672-3.627,59.558c7.505,32.871,48.738,40.906,48.777,40.913l0,0
			h0.001l0,0l0,0c0.04-0.007,41.274-8.042,48.778-40.913c7.509-32.886-3.626-59.558-3.626-59.558l-45.152-12.43L323.014,353.241z"/>
		<path style="fill:#FFAA17;" d="M368.165,442.894c-7.515-1.993-33.49-10.407-38.521-32.437c-4.898-21.452-0.892-40.19,1.551-48.555
			l36.97-10.178l36.972,10.178c2.438,8.345,6.449,27.092,1.549,48.555C401.656,432.486,375.68,440.9,368.165,442.894z"/>
		<path style="fill:#FF8800;" d="M329.585,368.81l38.58-10.178l38.582,10.178c0.113,0.371,0.229,0.77,0.349,1.181
			c-0.642-3.266-1.35-6.002-1.959-8.088l-36.972-10.178l-36.97,10.178c-0.611,2.091-1.319,4.83-1.962,8.097
			C329.353,369.585,329.471,369.184,329.585,368.81z"/>
		<g>
			<path style="fill:#B52020;" d="M412.068,426.796c-0.961-0.4-2.076,0.061-2.477,1.022l-9.412,22.602
				c-0.398,0.962,0.061,2.078,1.023,2.477l18.182,7.568c2.428,1.014,4.08-0.285,3.672-2.883l-0.545-3.471l-0.547-3.464
				c0,0,0-0.001,0-0.003l-0.742-4.726l3.875-2.801c0,0,0-0.003,0.004-0.003l2.842-2.053l2.85-2.058
				c2.129-1.54,1.885-3.628-0.545-4.638L412.068,426.796z"/>
			<path style="fill:#B52020;" d="M324.262,426.796c0.961-0.4,2.076,0.061,2.477,1.022l9.41,22.602
				c0.4,0.962-0.057,2.078-1.021,2.477l-18.18,7.568c-2.428,1.014-4.082-0.285-3.674-2.883l0.545-3.471l0.545-3.464
				c0,0,0-0.001,0-0.003l0.744-4.726l-3.875-2.801c0,0,0-0.003-0.006-0.003l-2.84-2.053l-2.85-2.058
				c-2.131-1.54-1.885-3.628,0.543-4.638L324.262,426.796z"/>
			<path style="fill:#E63535;" d="M414.154,447.989c-1.105,2.389-4.043,3.412-6.568,2.412c-25.318-10.039-53.523-10.039-78.84,0
				c-2.529,1-5.465-0.021-6.568-2.412c-2.564-5.684-5.131-11.363-7.695-17.045c-1.103-2.388,0.6-5.543,3.844-6.826
				c32.008-12.69,67.67-12.69,99.678,0c3.242,1.283,4.949,4.438,3.846,6.826C419.283,436.626,416.719,442.306,414.154,447.989z"/>
		</g>
	</g>
</g>
<g id="TEXTS">
	
		<text transform="matrix(1.0462 0 0 1 338.019 406.1611)" style="fill:#FFDA33; font-family:'Montserrat-Black'; font-size:48.47px; letter-spacing:1.912;">+1</text>
	<path id="SVGID_x5F_00000075843616660987815040000018150454111962305972_x5F_" style="fill:none;" d="M324.953,436.391
		c27.752-9.864,58.672-9.864,86.424,0"/>
	<text>	<textPath  xlink:href="#SVGID_x5F_00000075843616660987815040000018150454111962305972_x5F_" startOffset="0%">
<tspan  style="fill:#FFFFFF; font-family:'Montserrat-Black'; font-size:14.748px; letter-spacing:40;">LEVEL UP</tspan>	</textPath>
</text>
	
		<text transform="matrix(1.0462 0 0 1 110.3062 396.6133)" style="fill:#FFDA33; font-family:'Montserrat-Black'; font-size:15.4195px;">LVL UP</text>
	
		<text transform="matrix(1.0462 0 0 1 114.5806 424.9795)" style="fill:#FFDA33; font-family:'Montserrat-Black'; font-size:33.7577px; letter-spacing:0.956;">+1</text>
	<g>
		<g>
			<path style="fill:#FF8F17;" d="M111.123,240.558c0.548,0,1.096,0,1.644,0c-0.309,3.809-0.618,7.618-0.927,11.427
				c1.888,0,3.776,0,5.664,0c-0.028,0.463-0.057,0.925-0.085,1.388c-2.47,0-4.941,0-7.411,0
				C110.379,249.101,110.751,244.829,111.123,240.558z"/>
			<path style="fill:#FF8F17;" d="M127.198,247.364c-1.69,0-3.38,0-5.07,0c-0.071,1.54-0.142,3.08-0.213,4.62
				c1.914,0,3.829,0,5.743,0c-0.012,0.463-0.024,0.925-0.036,1.388c-2.497,0-4.994,0-7.491,0c0.223-4.271,0.445-8.543,0.668-12.814
				c2.292,0,4.584,0,6.875,0c-0.013,0.463-0.025,0.925-0.038,1.388c-1.753,0-3.505,0-5.258,0c-0.062,1.35-0.125,2.7-0.187,4.05
				c1.682,0,3.364,0,5.046,0C127.224,246.451,127.211,246.908,127.198,247.364z"/>
			<path style="fill:#FF8F17;" d="M133.574,253.372c-1.426-4.271-2.787-8.543-4.084-12.814c0.592,0,1.184,0,1.776,0
				c0.631,2.104,1.277,4.208,1.939,6.313c0.548,1.729,1.03,3.289,1.381,4.791c0.013,0,0.026,0,0.04,0
				c0.376-1.483,0.922-3.1,1.497-4.772c0.727-2.11,1.438-4.221,2.133-6.331c0.586,0,1.171,0,1.757,0
				c-1.443,4.271-2.957,8.543-4.541,12.814C134.838,253.372,134.206,253.372,133.574,253.372z"/>
			<path style="fill:#FF8F17;" d="M149.074,247.364c-1.69,0-3.38,0-5.07,0c0.048,1.54,0.096,3.08,0.143,4.62
				c1.914,0,3.829,0,5.743,0c0.024,0.463,0.047,0.925,0.071,1.388c-2.497,0-4.994,0-7.491,0c-0.107-4.271-0.215-8.543-0.322-12.814
				c2.292,0,4.584,0,6.875,0c0.023,0.463,0.046,0.925,0.069,1.388c-1.753,0-3.505,0-5.258,0c0.042,1.35,0.084,2.7,0.126,4.05
				c1.682,0,3.364,0,5.046,0C149.03,246.451,149.052,246.908,149.074,247.364z"/>
			<path style="fill:#FF8F17;" d="M152.201,240.558c0.548,0,1.096,0,1.644,0c0.257,3.809,0.514,7.618,0.77,11.427
				c1.888,0,3.776,0,5.664,0c0.04,0.463,0.081,0.925,0.121,1.388c-2.47,0-4.941,0-7.411,0
				C152.726,249.101,152.463,244.829,152.201,240.558z"/>
			<path style="fill:#FF8F17;" d="M125.727,256.645c-0.082,2.529-0.164,5.057-0.246,7.586c-0.097,2.871,1.257,4.088,3.13,4.088
				c2.082,0,3.426-1.255,3.451-4.088c0.026-2.529,0.053-5.057,0.079-7.586c0.586,0,1.173,0,1.759,0
				c-0.011,2.491-0.022,4.981-0.033,7.472c-0.008,3.936-2.294,5.552-5.349,5.552c-2.887,0-5.003-1.502-4.842-5.476
				c0.097-2.516,0.193-5.032,0.29-7.548C124.554,256.645,125.141,256.645,125.727,256.645z"/>
			<path style="fill:#FF8F17;" d="M137.725,256.797c0.839-0.133,1.936-0.247,3.335-0.247c1.718,0,2.987,0.38,3.811,1.064
				c0.762,0.608,1.24,1.54,1.282,2.681c0.043,1.16-0.288,2.072-0.96,2.738c-0.908,0.931-2.436,1.406-4.18,1.406
				c-0.534,0-1.026-0.019-1.438-0.114c0.025,1.711,0.05,3.423,0.075,5.134c-0.605,0-1.21,0-1.816,0
				C137.798,265.238,137.761,261.018,137.725,256.797z M139.555,262.976c0.389,0.095,0.88,0.133,1.472,0.133
				c2.148,0,3.425-0.969,3.368-2.737c-0.055-1.693-1.344-2.51-3.269-2.51c-0.763,0-1.344,0.057-1.643,0.133
				C139.507,259.655,139.531,261.315,139.555,262.976z"/>
		</g>
	</g>
	<text transform="matrix(1.0462 0 0 1 349.0532 258.5801)"><tspan x="0" y="0" style="fill:#FFDA33; font-family:'Montserrat-Black'; font-size:29.0177px; letter-spacing:0.956;">UP</tspan><tspan x="1.016" y="24.553" style="fill:#FFDA33; font-family:'Montserrat-Black'; font-size:29.0177px; letter-spacing:0.956;">+1</tspan></text>
	<path id="SVGID_x5F_00000001652135903816634040000004050550519277724605_x5F_" style="fill:none;" d="M74.355,117.197
		c38.986-13.857,82.422-13.857,121.406,0"/>
	<text>	<textPath  xlink:href="#SVGID_x5F_00000001652135903816634040000004050550519277724605_x5F_" startOffset="0%">
<tspan  style="fill:#FFFFFF; font-family:'Montserrat-Black'; font-size:20.7172px; letter-spacing:40;">LEVEL UP</tspan>	</textPath>
</text>
	<path id="SVGID_x5F_00000141417124515231116430000018167125595899949996_x5F_" style="fill:none;" d="M307.461,116.969
		c38.986-13.857,82.422-13.857,121.406,0"/>
	<text>	<textPath  xlink:href="#SVGID_x5F_00000141417124515231116430000018167125595899949996_x5F_" startOffset="0%">
<tspan  style="fill:#FFFFFF; font-family:'Montserrat-Black'; font-size:20.7172px; letter-spacing:40;">LEVEL UP</tspan>	</textPath>
</text>
</g>
</svg>
