<?xml version="1.0" encoding="utf-8"?>
<!-- Generator: Adobe Illustrator 27.5.0, SVG Export Plug-In . SVG Version: 6.00 Build 0)  -->
<svg version="1.1" xmlns="http://www.w3.org/2000/svg" xmlns:xlink="http://www.w3.org/1999/xlink" x="0px" y="0px"
	 viewBox="0 0 500 500" style="enable-background:new 0 0 500 500;" xml:space="preserve">
<g id="BACKGROUND">
	<rect x="0" y="-0.051" style="fill:#FFFFFF;" width="500.003" height="500.027"/>
</g>
<g id="OBJECTS">
	<g>
		<g>
			<g>
				<path d="M387.199,328.548c1.911,0.19,3.661,1.122,5.516,1.617c2.524,0.673,5.346,0.575,7.503,2.047
					c2.178,1.486,3.164,4.245,5.223,5.892c0.968,0.775,2.145,1.277,3.041,2.134c1.874,1.792,2.106,4.78,1.359,7.263
					c-0.889,2.956-3.358,5.69-6.443,5.81c-1.846,0.071-3.589-0.776-5.233-1.619c-6.602-3.388-13.061-7.054-19.355-10.985
					c-1.011-0.631-2.152-1.536-1.998-2.717c0.053-0.411,0.266-0.784,0.511-1.118c1.423-1.943,3.914-2.869,5.107-5.003
					C383.587,329.8,384.246,328.254,387.199,328.548z"/>
			</g>
			<g>
				<path d="M411.445,346.686c1.3-0.482,2.724-0.79,3.887-1.045c4.692-1.029,9.667-0.8,14.222,0.744
					c11.686,3.962,18.529,15.618,18.966,27.552c0.214,5.838-0.917,11.723-3.174,17.106c-0.936,2.231-2.101,4.427-3.876,6.07
					c-6.812,6.305-13.573-1.435-17.462-6.847c-3.866-5.38-6.256-11.663-9.11-17.636c-2.057-4.305-4.145-8.594-6.264-12.869
					c-0.915-1.846-2.614-4.124-2.978-6.145c-0.344-1.911,1.952-4.367,3.28-5.538C409.605,347.487,410.492,347.039,411.445,346.686z"
					/>
			</g>
		</g>
		<g>
			<g>
				<path d="M371.012,320.804c-1.436-0.363-2.823-0.516-4.043-0.413c-2.807,0.236-5.52,1.347-7.732,3.083
					c-1.09,0.855-2.275,1.936-2.973,3.15c-0.605,1.053-1.006,2.217-1.862,3.108c-0.787,0.82-1.859,1.203-2.655,2.017
					c-0.621,0.636-1.052,1.521-0.929,2.402c0.079,0.568,0.377,1.082,0.52,1.638c0.704,2.723-3.158,6.333-4.682,8.251
					c0.635,0.137,1.886-0.623,2.568-1.089c0.4-0.274,0.817-0.554,1.296-0.637c2.514-0.433,2.23,4.767,4.015,5.726
					c-0.037-0.763,2.342-5.042,3.806-5.001c2.358,0.066,3.378,1.551,5.878,0.363c4.257-2.023,9.239-1.98,13.361-4.307
					c3.816-2.154,6.799-6.517,4.426-10.654C379.76,324.526,375.301,321.888,371.012,320.804z"/>
			</g>
			<g>
				<g>
					<path d="M353.663,330.303c-1.109-1.415-2.196-2.909-3.248-4.355c-1.544-2.121-3.14-4.315-4.816-6.273
						c-0.771-0.902-2.037-2.05-3.684-2.393c-1.917-0.395-4.187,0.4-6.384,1.172c-0.833,0.293-1.618,0.569-2.383,0.78
						c-3.452,0.952-6.895,1.839-10.127,2.665l-0.445-1.739c3.224-0.824,6.659-1.709,10.094-2.656
						c0.705-0.195,1.462-0.461,2.264-0.743c2.316-0.814,4.943-1.739,7.347-1.235c2.143,0.446,3.729,1.868,4.682,2.983
						c1.722,2.011,3.339,4.234,4.903,6.383c1.043,1.432,2.121,2.914,3.21,4.305L353.663,330.303z"/>
				</g>
				<g>
					<path d="M324.13,337.445l-1.007-1.487c0.811-0.549,1.646-1.093,2.489-1.643c2.208-1.441,4.493-2.929,6.441-4.569
						c0.344-0.29,0.675-0.578,0.997-0.857c2.059-1.792,4.002-3.485,7.423-3.668c2.801-0.138,5.387,0.776,8.138,2.912
						c2.05,1.591,4.189,2.896,6.454,4.277c0.571,0.348,1.145,0.698,1.721,1.056l-0.945,1.525c-0.572-0.354-1.143-0.702-1.71-1.049
						c-2.309-1.408-4.491-2.737-6.621-4.391c-2.392-1.857-4.596-2.667-6.942-2.537c-2.804,0.149-4.364,1.508-6.34,3.228
						c-0.33,0.287-0.667,0.581-1.021,0.878c-2.031,1.709-4.362,3.228-6.616,4.698C325.76,336.363,324.932,336.902,324.13,337.445z"
						/>
				</g>
			</g>
		</g>
		<g>
			<polygon points="342.168,357.23 332.125,349.817 333.191,348.372 342.594,355.312 356.231,352.56 362.675,339.815 
				364.277,340.625 357.441,354.147 			"/>
		</g>
		<g>
			<g>
				<path d="M426.092,416.321c-5.871-9.8-7.563-21.755-4.642-32.799l1.736,0.459c-2.757,10.423-1.095,22.168,4.446,31.418
					L426.092,416.321z"/>
			</g>
			<g>
				<path d="M443.648,429.245c-8.012-11.24-12.853-25.021-13.63-38.804l1.792-0.102c0.759,13.45,5.483,26.897,13.301,37.864
					L443.648,429.245z"/>
			</g>
		</g>
		<g>
			<g>
				<polygon points="405.25,414.119 390.703,386.99 400.136,370.395 392.948,367.137 393.412,349.543 375.265,348.65 
					364.724,360.623 340.456,364.439 340.177,362.664 363.806,358.95 374.488,346.814 395.253,347.835 394.775,365.994 
					402.67,369.571 392.754,387.015 406.832,413.271 				"/>
			</g>
			<g>
				<polygon points="388.573,374.608 380.158,365.663 397.164,347.38 398.479,348.603 382.616,365.656 389.882,373.377 				"/>
			</g>
		</g>
	</g>
	<g>
		<g>
			<path d="M257.138,215.625c0-8.502-1.827-16.827-3.301-25.158c-1.131-6.396-2.173-12.809-3.264-19.212
				c-0.085-0.497-0.169-0.994-0.254-1.491h-15.046c-0.261,0-1.713,4.619-1.915,5.153c-0.714,1.877-1.438,3.751-2.149,5.629
				c-1.421,3.756-2.798,7.532-3.95,11.38c-2.311,7.72-3.344,15.646-3.344,23.699c0,21.973,7.437,39.785,16.611,39.785
				C249.701,255.41,257.138,237.598,257.138,215.625z"/>
		</g>
		<g>
			<path d="M274.577,273.996l-8.959-8.609c-0.905-0.87-1.897-1.726-2.857-2.554c-1.145-0.988-2.328-2.009-3.388-3.073
				c-1.929-1.936-1.679-4.746-1.478-7.003c0.031-0.348,0.062-0.69,0.083-1.02c0.302-4.537,0.555-8.973,0.754-13.185
				c0.021-0.449,0.084-0.965,0.152-1.509c0.193-1.559,0.434-3.5-0.481-4.055c-0.649-0.394-1.662-0.61-2.642-0.818
				c-0.517-0.11-1.018-0.217-1.459-0.346l0.502-1.724c0.402,0.117,0.859,0.213,1.33,0.313c1.127,0.24,2.292,0.487,3.201,1.04
				c1.906,1.158,1.587,3.738,1.33,5.81c-0.061,0.495-0.121,0.964-0.14,1.372c-0.199,4.224-0.453,8.672-0.756,13.22
				c-0.022,0.342-0.054,0.697-0.086,1.06c-0.185,2.081-0.377,4.233,0.962,5.577c1.012,1.016,2.169,2.015,3.289,2.98
				c0.978,0.844,1.988,1.717,2.928,2.62l8.96,8.609L274.577,273.996z"/>
		</g>
		<g>
			<path d="M207.015,274.781l-1.244-1.294l8.959-8.609c0.94-0.904,1.952-1.777,2.93-2.621c1.119-0.966,2.275-1.964,3.286-2.979
				c1.338-1.343,1.147-3.495,0.961-5.576c-0.033-0.363-0.064-0.718-0.087-1.06c-0.303-4.572-0.558-9.02-0.755-13.22
				c-0.019-0.408-0.078-0.877-0.139-1.372c-0.257-2.073-0.576-4.653,1.33-5.811c0.91-0.553,2.075-0.8,3.202-1.04
				c0.471-0.1,0.928-0.196,1.33-0.313l0.502,1.724c-0.441,0.129-0.942,0.236-1.459,0.346c-0.98,0.209-1.994,0.424-2.642,0.818
				c-0.914,0.555-0.674,2.496-0.481,4.056c0.067,0.544,0.13,1.06,0.151,1.508c0.197,4.189,0.451,8.625,0.753,13.185
				c0.022,0.33,0.053,0.672,0.084,1.02c0.201,2.258,0.451,5.066-1.478,7.003c-1.059,1.063-2.242,2.083-3.385,3.07
				c-0.96,0.829-1.954,1.687-2.859,2.556L207.015,274.781z"/>
		</g>
		<g>
			<path d="M279.35,224.888c-0.913-0.468-1.886-0.912-2.826-1.341c-1.304-0.594-2.652-1.21-3.909-1.917
				c-2.506-1.409-3.925-4.008-5.274-6.773l-6.059-12.409c-0.525-1.075-1.068-2.187-1.892-2.978c-0.947-0.909-2.54-1.057-4.081-1.2
				c-0.58-0.054-1.18-0.11-1.742-0.206l0.305-1.769c0.492,0.085,1.031,0.135,1.603,0.188c1.762,0.163,3.758,0.349,5.158,1.693
				c1.054,1.011,1.696,2.326,2.262,3.484l6.059,12.409c1.22,2.5,2.486,4.84,4.541,5.996c1.191,0.67,2.504,1.269,3.774,1.848
				c0.958,0.438,1.95,0.889,2.9,1.376L279.35,224.888z"/>
		</g>
		<g>
			<path d="M195.615,227.466l-1.411-1.112l3.673-4.66c6.562-8.325,13.348-16.932,19.979-25.432c0.663-0.849,1.413-1.81,2.498-2.421
				c1.798-1.012,4.165-0.843,6.253-0.695c0.695,0.049,1.351,0.096,1.936,0.096c0.001,0,0.001,0,0.002,0v1.796
				c-0.001,0-0.001,0-0.002,0c-0.649,0-1.336-0.049-2.064-0.101c-1.835-0.132-3.916-0.28-5.245,0.469
				c-0.771,0.434-1.376,1.21-1.963,1.96c-6.634,8.502-13.421,17.112-19.984,25.438L195.615,227.466z"/>
		</g>
		<g>
			<path d="M252.309,180.994l-0.485-1.729c0.333-0.093,0.695-0.181,1.071-0.271c1.253-0.3,2.674-0.641,3.406-1.371
				c0.477-0.476,0.759-1.198,1.032-1.896c2.457-6.298,5.002-12.68,7.464-18.852l1.108-2.778l1.668,0.664l-1.108,2.778
				c-2.46,6.169-5.004,12.548-7.459,18.84c-0.308,0.79-0.692,1.773-1.437,2.516c-1.09,1.086-2.771,1.489-4.255,1.845
				C252.962,180.825,252.622,180.906,252.309,180.994z"/>
		</g>
		<g>
			<path d="M232.612,180.994c-0.312-0.088-0.652-0.169-1.005-0.253c-1.484-0.356-3.165-0.759-4.255-1.845
				c-0.746-0.743-1.13-1.726-1.438-2.516c-2.445-6.269-4.98-12.624-7.431-18.77l-1.135-2.848l1.667-0.664l1.135,2.847
				c2.453,6.149,4.989,12.508,7.436,18.783c0.272,0.698,0.554,1.42,1.032,1.896c0.732,0.729,2.153,1.07,3.407,1.371
				c0.376,0.09,0.738,0.177,1.071,0.27L232.612,180.994z"/>
		</g>
		<g>
			<path d="M249.483,171.514l-1.609-0.652c3.814-9.406,7.758-19.133,14.349-27.215c6.083-7.459,14.128-13.087,21.227-18.054
				l0.996,1.423c-7.007,4.901-14.948,10.456-20.877,17.727C257.143,152.623,253.248,162.227,249.483,171.514z"/>
		</g>
		<g>
			<path d="M238.974,173.518c-3.072-10.613-6.882-19.332-11.647-26.655c-5.648-8.68-12.84-15.526-20.796-19.796l0.821-1.53
				c8.213,4.408,15.623,11.455,21.43,20.38c4.86,7.469,8.739,16.34,11.859,27.119L238.974,173.518z"/>
		</g>
	</g>
	<g>
		<g>
			<path d="M110.66,175.188c-1.494,0-3.383-0.355-5.505-0.802c-0.829-0.174-1.545-0.325-1.968-0.371l0.221-2.053
				c0.526,0.057,1.289,0.217,2.173,0.403c3.875,0.815,6.025,0.986,6.391,0.51c0.211-0.502-0.15-2.788-0.304-3.764
				c-0.091-0.575-0.167-1.067-0.192-1.379c-0.034-0.429-0.13-0.981-0.23-1.566c-0.303-1.75-0.646-3.732,0.07-5.161
				c0.414-0.829,1.117-1.386,1.682-1.833c4.441-3.52,8.86-7.063,13.273-10.618l1.296,1.608c-4.418,3.558-8.84,7.106-13.286,10.628
				c-0.446,0.354-0.908,0.72-1.118,1.139c-0.411,0.821-0.117,2.52,0.119,3.884c0.109,0.633,0.213,1.231,0.255,1.755
				c0.022,0.276,0.092,0.71,0.172,1.219c0.387,2.453,0.614,4.262-0.006,5.214C113.137,174.867,112.076,175.188,110.66,175.188z"/>
		</g>
		<g>
			<path d="M135.905,200.889c-8.368-8.199-19.883-13.098-31.593-13.443l0.061-2.064c12.223,0.359,24.242,5.474,32.977,14.031
				L135.905,200.889z"/>
		</g>
		<g>
			<path d="M128.281,211.082c-2.81-5.101-6.056-9.962-9.702-14.503c-1.724-2.147-3.519-4.257-5.387-6.279
				c-0.966-1.046-6.317-5.106-6.349-6.293l-0.261-9.719c-0.05-1.875-1.585-3.369-3.461-3.369h-5.177v-0.017h-5.548
				c-1.876,0-3.411,1.494-3.461,3.369l-0.261,9.719c-0.032,1.187-5.383,5.247-6.349,6.293c-1.867,2.022-3.663,4.133-5.386,6.279
				c-3.646,4.541-6.893,9.402-9.702,14.503c-8.065,14.643-13.764,32.308-10.945,49.135c0.475,2.84,2.442,6.41,5.179,5.513
				c0.95-0.311,1.635-1.122,2.269-1.896c4.721-5.772,9.443-11.545,14.164-17.317c4.463-5.456,9.736-11.351,16.768-11.839
				c-0.347,0.024-0.148,4.225-0.116,4.53l2.995-0.09c0,0.001,0,0.003,0,0.005l3.413,0.103c0.031-0.305,0.23-4.506-0.117-4.53
				c7.032,0.488,12.305,6.383,16.768,11.839c4.721,5.772,9.443,11.545,14.164,17.317c0.633,0.774,1.319,1.585,2.269,1.896
				c2.736,0.897,4.703-2.673,5.178-5.513C142.046,243.39,136.347,225.725,128.281,211.082z"/>
		</g>
		<g>
			<polygon points="98.126,169.322 97.969,169.322 92.877,169.322 92.877,170.919 97.969,170.919 98.126,170.919 103.218,170.919 
				103.218,169.322 			"/>
		</g>
		<g>
			<path d="M82.168,175.019l0.101-1.145c0.228-2.585,0.487-5.165,0.755-7.746c0.244-2.348,0.066-4.051-1.562-5.805
				c-1.092-1.176-2.456-2.068-3.901-3.013l-0.549-0.36c-2.065-1.362-3.983-2.996-5.838-4.577c-0.878-0.749-1.754-1.496-2.644-2.212
				l1.296-1.608c0.904,0.728,1.795,1.487,2.688,2.248c1.807,1.54,3.675,3.133,5.634,4.424l0.543,0.356
				c1.485,0.971,3.021,1.975,4.285,3.337c2.145,2.31,2.391,4.639,2.102,7.423c-0.227,2.182-0.446,4.362-0.646,6.546
				c1.75-0.099,3.538-0.332,5.276-0.56c0.997-0.13,1.992-0.26,2.98-0.366l0.221,2.053c-0.972,0.105-1.951,0.232-2.934,0.361
				c-2.178,0.284-4.431,0.579-6.658,0.621L82.168,175.019z"/>
		</g>
		<g>
			<path d="M60.19,200.889l-1.445-1.475c8.735-8.557,20.754-13.672,32.977-14.031l0.061,2.064
				C80.073,187.791,68.558,192.69,60.19,200.889z"/>
		</g>
	</g>
	<g>
		<g>
			<rect x="86.9" y="352.306" width="22.036" height="2.658"/>
		</g>
		<g>
			<g>
				<path d="M112.163,344.417c-1.262-1.096-2.726-1.95-3.929-3.111c-3.1-2.989-3.091-6.506-2.793-10.486
					c-0.435-0.021-4.516-0.331-5.068-0.145c0-0.186,0-1.846,0-1.847c0,0-0.064,0-0.107,0v0c-0.161,0-1.068,0-2.026,0
					c-0.128,0-0.253,0-0.381,0c-0.959,0-1.865,0-2.026,0v0c-0.043,0-0.107,0-0.107,0c0,0,0,1.66,0,1.847
					c-0.551-0.187-4.633,0.124-5.068,0.145c0.298,3.98,0.306,7.496-2.793,10.486c-1.203,1.16-2.667,2.015-3.929,3.111
					c-2.663,2.312-2.277,4.672-2.277,7.888h14.067h4.647h14.067C114.44,349.089,114.826,346.73,112.163,344.417z"/>
			</g>
			<g>
				<path d="M84.089,348.27l-13.568-13.568c-2.646-2.646-5.291-5.292-7.951-7.924c-0.332-0.328-0.746-0.736-0.998-1.296
					c-0.419-0.933-0.34-2.063-0.27-3.061c0.026-0.374,0.053-0.735,0.046-1.057c-0.016-0.711-0.011-1.424-0.006-2.137l0.005-1.048
					h1.796l-0.005,1.061c-0.005,0.695-0.01,1.39,0.005,2.083c0.008,0.373-0.019,0.791-0.049,1.224
					c-0.055,0.785-0.118,1.677,0.117,2.198c0.114,0.253,0.372,0.509,0.622,0.755c2.663,2.635,5.311,5.283,7.959,7.932l13.568,13.568
					L84.089,348.27z"/>
			</g>
			<g>
				<path d="M92.541,334.171l-4.477-4.477c-0.46-0.46-0.948-0.913-1.441-1.37c-1.341-1.245-2.728-2.532-3.739-4.1
					c-1.06-1.644-0.956-3.281-0.854-4.864c0.029-0.466,0.061-0.941,0.061-1.429v-3.551h1.795v3.551c0,0.527-0.032,1.041-0.064,1.544
					c-0.094,1.469-0.167,2.629,0.572,3.776c0.889,1.379,2.192,2.588,3.452,3.758c0.509,0.473,1.014,0.941,1.489,1.417l4.477,4.477
					L92.541,334.171z"/>
			</g>
			<g>
				<path d="M111.746,348.27l-1.269-1.27l0.54-0.54c6.457-6.456,13.133-13.133,19.732-19.671l0.212-0.21
					c0.726-0.713,1.412-1.386,1.632-2.229c0.196-0.756,0.163-1.603,0.112-2.405c-0.056-0.885-0.04-1.757-0.025-2.599
					c0.007-0.387,0.014-0.776,0.014-1.167h1.796c0,0.402-0.007,0.8-0.014,1.199c-0.015,0.843-0.029,1.64,0.022,2.454
					c0.06,0.947,0.097,1.957-0.167,2.969c-0.345,1.326-1.283,2.247-2.111,3.06l-0.206,0.203
					c-6.596,6.534-13.27,13.209-19.726,19.665L111.746,348.27z"/>
			</g>
			<g>
				<path d="M103.048,334.623l-1.27-1.27l1.331-1.332c1.609-1.609,3.218-3.218,4.831-4.824c0.301-0.299,0.669-0.622,1.062-0.967
					c1.223-1.071,2.744-2.405,2.748-3.642c0.005-1.392-0.009-2.784-0.023-4.178c-0.012-1.193-0.025-2.386-0.025-3.58h1.796
					c0,1.187,0.012,2.374,0.025,3.561c0.014,1.401,0.029,2.803,0.023,4.203c-0.008,2.046-1.867,3.676-3.36,4.985
					c-0.362,0.317-0.702,0.614-0.979,0.89c-1.612,1.604-3.22,3.213-4.828,4.821L103.048,334.623z"/>
			</g>
		</g>
		<g>
			<g>
				<path d="M75.494,354.964h44.183c0.363,0.121,0.285,5.43,0.309,6.035c0.088,2.193,0.154,4.387,0.207,6.582
					c0.102,4.149-0.022,8.355,0.32,12.487c1.06,12.824-6.474,27.478-19.578,30.828c-13.859,3.543-27.282-7.424-29.031-21.104
					c-0.116-0.907-0.18-1.821-0.19-2.735c-0.115-10.31,1.717-20.773,3.559-30.889C75.344,355.766,75.418,355.365,75.494,354.964z"/>
			</g>
			<g>
				<g>
					<path d="M50.009,391.284h-1.795c0-0.606,0.015-1.206,0.03-1.807c0.029-1.167,0.057-2.269-0.023-3.4
						c-0.11-1.565-0.173-2.976,0.169-4.4c0.419-1.748,1.378-2.656,2.488-3.709c0.654-0.621,1.305-1.304,1.934-1.964
						c0.47-0.494,0.94-0.987,1.418-1.463l5.667-5.647c2.048-2.039,4.25-4.311,6.735-6.945c0.687-0.729,1.466-1.553,2.455-2.118
						c1.455-0.83,3.278-0.703,4.889-0.59c0.509,0.036,1.003,0.071,1.46,0.071v1.795c-0.496,0-1.033-0.037-1.586-0.075
						c-1.421-0.098-2.891-0.202-3.875,0.359c-0.757,0.431-1.408,1.122-2.038,1.791c-2.498,2.648-4.713,4.932-6.774,6.985
						l-5.667,5.646c-0.467,0.466-0.926,0.948-1.386,1.43c-0.644,0.677-1.311,1.376-1.998,2.029
						c-1.013,0.961-1.682,1.596-1.978,2.826c-0.282,1.175-0.223,2.441-0.124,3.855c0.085,1.217,0.056,2.414,0.026,3.572
						C50.024,390.108,50.009,390.694,50.009,391.284z"/>
				</g>
				<g>
					<path d="M61.007,433.002c-4.068-11.474-1.47-23.927,1.285-34.7c1.648-6.446,3.897-13.644,9.739-17.487l0.986,1.501
						c-5.306,3.489-7.421,10.311-8.986,16.431c-2.689,10.516-5.232,22.657-1.332,33.655L61.007,433.002z"/>
				</g>
			</g>
			<g>
				<g>
					<path d="M143.324,391.293c-0.017-1.759-0.029-3.481,0.006-5.212c0.008-0.41,0.033-0.827,0.057-1.244
						c0.066-1.12,0.128-2.177-0.125-3.154c-0.29-1.119-1.665-2.324-2.77-3.293c-0.431-0.377-0.839-0.736-1.176-1.072l-5.136-5.128
						c-2.239-2.237-4.477-4.474-6.709-6.717c-0.398-0.4-0.797-0.852-1.207-1.317c-1.346-1.527-2.738-3.106-4.466-3.173
						c-0.694-0.024-1.39,0.014-2.126,0.057c-0.592,0.034-1.184,0.067-1.774,0.067v-1.795c0.557,0,1.114-0.032,1.671-0.065
						c0.747-0.043,1.521-0.088,2.299-0.058c2.498,0.096,4.223,2.052,5.745,3.779c0.385,0.438,0.76,0.864,1.134,1.239
						c2.23,2.242,4.467,4.477,6.704,6.713l5.136,5.127c0.313,0.312,0.692,0.643,1.091,0.993c1.357,1.19,2.896,2.538,3.325,4.192
						c0.324,1.251,0.251,2.501,0.18,3.71c-0.023,0.395-0.047,0.787-0.054,1.176c-0.035,1.705-0.022,3.413-0.006,5.158
						L143.324,391.293z"/>
				</g>
				<g>
					<path d="M131.433,433.002l-1.692-0.6c3.9-10.998,1.357-23.139-1.332-33.655c-1.565-6.12-3.68-12.942-8.986-16.431l0.986-1.501
						c5.842,3.843,8.091,11.041,9.739,17.487C132.903,409.075,135.501,421.529,131.433,433.002z"/>
				</g>
			</g>
		</g>
	</g>
	<g>
		<g>
			<path d="M386.466,206.193c5.58-6.233,12.999-10.641,20.875-13.461c7.876-2.82,16.222-4.118,24.561-4.787
				c9.129-0.732,19.094-0.481,26.335,5.127c0.608,0.471,1.25,1.135,1.096,1.889c-0.094,0.459-0.464,0.803-0.815,1.114
				c-4.617,4.093-9.264,8.208-14.525,11.432c-5.261,3.224-11.221,5.54-17.39,5.684c-2.471,0.057-4.984-0.229-7.39,0.339
				c2.147,1.674,4.328,3.39,6.475,5.064c0.457,0.357,0.926,0.726,1.218,1.227c0.318,0.547,0.396,1.202,0.383,1.835
				c-0.047,2.396-1.299,4.66-3.036,6.312c-1.737,1.652-3.927,2.752-6.166,3.606c-5.195,1.98-11.155,2.702-16.253,0.486
				c1.076,1.046,1.575,2.575,1.266,4.043c-3.375,1.059-7.132-0.131-9.969-2.243c-2.836-2.113-4.928-5.05-6.971-7.937
				L386.466,206.193z"/>
		</g>
		<g>
			<path d="M373.412,206.193c-5.58-6.233-12.999-10.641-20.875-13.461c-7.876-2.82-16.222-4.118-24.561-4.787
				c-9.129-0.732-19.094-0.481-26.335,5.127c-0.608,0.471-1.25,1.135-1.096,1.889c0.094,0.459,0.464,0.803,0.815,1.114
				c4.617,4.093,9.264,8.208,14.525,11.432c5.261,3.224,11.221,5.54,17.39,5.684c2.471,0.057,4.984-0.229,7.39,0.339
				c-2.147,1.674-4.328,3.39-6.476,5.064c-0.457,0.357-0.926,0.726-1.218,1.227c-0.318,0.547-0.396,1.202-0.383,1.835
				c0.047,2.396,1.299,4.66,3.036,6.312c1.737,1.652,3.926,2.752,6.166,3.606c5.195,1.98,11.155,2.702,16.253,0.486
				c-1.076,1.046-1.575,2.575-1.266,4.043c3.375,1.059,7.132-0.131,9.969-2.243c2.837-2.113,4.928-5.05,6.971-7.937L373.412,206.193
				z"/>
		</g>
		<g>
			<path d="M372.242,204.844c0.64-3.996,3.205-8.405,7.251-8.485c2.55-0.051,4.858,1.753,6.091,3.986
				c1.233,2.233,1.58,4.837,1.788,7.38c1.046,12.786-0.904,25.807-5.648,37.725c-0.531,1.335-1.105,3.678-1.832,4.917
				c-1.283-1.513-2.34-3.199-3.219-4.978c-0.807-1.633-1.237-3.423-1.627-5.203C372.489,228.509,370.352,216.648,372.242,204.844z"
				/>
		</g>
		<g>
			<path d="M385.874,203.895l-1.022-1.332c3.413-2.617,6.975-5.462,9.727-8.945c2.091-2.646,4.596-6.839,4.66-11.788l1.679,0.022
				c-0.07,5.421-2.769,9.956-5.021,12.807C393.025,198.294,389.371,201.215,385.874,203.895z"/>
		</g>
		<g>
			<path d="M373.205,202.895c-3.497-2.681-7.151-5.602-10.022-9.236c-2.252-2.85-4.952-7.386-5.021-12.807l1.679-0.021
				c0.063,4.949,2.569,9.142,4.66,11.787c2.751,3.483,6.314,6.328,9.726,8.945L373.205,202.895z"/>
		</g>
		<g>
			<path d="M365.856,252.833l-1.572-0.59c2.229-5.933,4.219-14.617,1.038-22.298l1.551-0.643
				C370.264,237.49,368.191,246.617,365.856,252.833z"/>
		</g>
		<g>
			<path d="M393.312,251.782c-2.336-6.215-4.408-15.343-1.017-23.531l1.551,0.643c-3.181,7.682-1.191,16.366,1.039,22.298
				L393.312,251.782z"/>
		</g>
	</g>
	<g>
		<g>
			<g>
				<path d="M277.436,377.287c0,16.779-13.891,31.538-30.67,31.538s-36.168-17.363-36.168-34.142s19.389-30.96,36.168-30.96
					S277.436,360.508,277.436,377.287z"/>
			</g>
			<g>
				<path d="M242.626,337.501c-1.243-0.159-2.502-0.022-3.747,0.114c-2.78,0.304-5.56,0.608-8.339,0.912
					c-2.802,0.306-5.704,0.664-8.14,2.043c-0.015-0.021-0.031-0.042-0.046-0.063c-2.629,1.494-4.399,4.104-6.073,6.622
					c-1.548,2.329-3.096,4.658-4.644,6.987c-0.694,1.043-1.394,2.099-1.824,3.275c-1.141,3.117-0.075,6.908,2.523,8.973
					c6.086-3.599,13.337-7.2,19.298-11.003c6.118-3.545,11.807-7.744,17.801-11.494C248.794,340.61,245.918,337.921,242.626,337.501
					z"/>
			</g>
		</g>
		<g>
			<path d="M280.207,386.348c1.544,0.927,2.812,2.237,4.112,3.484c2.282,2.188,4.744,4.24,7.573,5.652
				c2.829,1.412,6.069,2.154,9.186,1.625c0.755-0.128,1.685-0.935,1.116-1.448c-0.21-0.189-0.525-0.184-0.807-0.167
				c-1.911,0.11-3.889,0.205-5.678-0.475c-1.781-0.677-3.194-2.054-4.493-3.447c-1.25-1.339-2.448-2.725-3.59-4.157
				c-1.062-1.33-2.1-2.723-3.503-3.686c-2.825-1.94-6.537-1.791-9.957-1.567c-0.754,0.049,0.799,2.769,1.278,3.024
				C276.771,385.893,278.693,385.439,280.207,386.348z"/>
		</g>
		<g>
			<path d="M275.049,358.856c1.708,0.57,3.23,1.575,4.769,2.509c2.702,1.642,5.55,3.111,8.618,3.876
				c3.068,0.765,6.391,0.787,9.32-0.405c0.709-0.289,1.442-1.278,0.776-1.655c-0.246-0.139-0.552-0.066-0.824,0.011
				c-1.842,0.522-3.752,1.043-5.646,0.767c-1.885-0.275-3.563-1.313-5.134-2.391c-1.51-1.036-2.98-2.13-4.406-3.28
				c-1.325-1.068-2.641-2.203-4.219-2.839c-3.178-1.282-6.77-0.331-10.06,0.629c-0.725,0.212,1.38,2.53,1.903,2.675
				C271.596,359.157,273.374,358.297,275.049,358.856z"/>
		</g>
		<g>
			<path d="M234.733,410.251c0.147,1.795,0.761,3.512,1.302,5.229c0.951,3.016,1.701,6.131,1.714,9.293
				c0.013,3.162-0.756,6.395-2.611,8.956c-0.449,0.62-1.585,1.096-1.792,0.359c-0.077-0.272,0.068-0.552,0.207-0.797
				c0.945-1.665,1.906-3.396,2.089-5.301c0.182-1.896-0.428-3.773-1.1-5.555c-0.647-1.713-1.36-3.402-2.137-5.06
				c-0.722-1.541-1.511-3.089-1.753-4.774c-0.488-3.392,1.289-6.654,3.005-9.621c0.378-0.654,2.129,1.943,2.145,2.485
				C235.847,406.969,234.589,408.491,234.733,410.251z"/>
		</g>
		<g>
			<path d="M214.329,394.032c-0.245,1.784-0.019,3.594,0.138,5.388c0.275,3.15,0.331,6.354-0.341,9.443
				c-0.673,3.09-2.125,6.079-4.491,8.177c-0.573,0.508-1.785,0.727-1.828-0.038c-0.016-0.282,0.186-0.524,0.375-0.734
				c1.283-1.421,2.597-2.902,3.188-4.722c0.589-1.812,0.4-3.776,0.13-5.662c-0.26-1.813-0.59-3.615-0.99-5.403
				c-0.371-1.661-0.805-3.343-0.677-5.04c0.259-3.417,2.701-6.217,5.019-8.741c0.511-0.556,1.657,2.358,1.556,2.891
				C216.128,391.069,214.57,392.282,214.329,394.032z"/>
		</g>
		<g>
			<path d="M257.933,338.546c0.781-3.642-2.596-6.763-3.646-10.337c-1.034-3.52,0.247-7.432-0.905-10.915
				c-1.576-0.183-3.153-0.365-4.729-0.548c-0.166,0.355-0.332,0.71-0.499,1.065c2,0.167,3.09,2.392,3.586,4.337
				c0.466,1.828,0.76,3.699,0.877,5.582c0.122,1.965,0.054,3.953,0.438,5.883c0.531,2.669,1.906,5.46,0.84,7.963
				c-0.356,0.836-0.958,1.54-1.429,2.317c-0.471,0.777-0.82,1.706-0.59,2.588c0.337,1.281,1.558,1.557,2.183,0.721
				c-0.029,0.038-0.053-2.164,0.137-2.627C255.111,342.357,257.403,341.02,257.933,338.546z"/>
		</g>
		<g>
			<path d="M202.911,372.101c-3.717-0.247-5.793-4.35-8.942-6.339c-3.102-1.959-7.215-1.799-10.249-3.862
				c0.256-1.566,0.513-3.132,0.769-4.698c0.387-0.063,0.774-0.125,1.161-0.188c-0.387,1.969,1.454,3.628,3.188,4.637
				c1.63,0.949,3.349,1.745,5.128,2.373c1.856,0.656,3.786,1.135,5.538,2.033c2.421,1.242,4.729,3.329,7.428,2.99
				c0.901-0.113,1.743-0.499,2.62-0.739c0.876-0.241,1.866-0.321,2.651,0.142c1.14,0.675,1.071,1.925,0.095,2.297
				c0.045-0.017-2.067-0.645-2.564-0.588C207.349,370.431,205.435,372.269,202.911,372.101z"/>
		</g>
		<g>
			<g>
				<path d="M230.132,331.147c1.708-1.163,3.759-2.139,4.576-4.037c0.512-1.19,0.416-2.625-0.251-3.736s-1.888-1.871-3.179-1.978
					c-1.082-0.09-2.28,0.343-2.779,1.307c-0.441,0.85-0.253,1.871-0.303,2.828c-0.09,1.75-0.996,3.339-1.879,4.852
					c-1.016,1.742-2.032,3.484-3.047,5.227c-0.936,1.606-1.903,3.325-1.836,5.183c0.044,1.229,2.186-0.915,2.263-1.009
					c0.597-0.736,0.805-2.065,1.262-2.916C226.182,334.59,227.998,332.601,230.132,331.147z"/>
			</g>
			<g>
				<path d="M208.902,343.578c-1.852,0.917-3.709,2.225-5.764,2.005c-1.289-0.138-2.491-0.926-3.132-2.053s-0.703-2.563-0.163-3.741
					c0.453-0.987,1.418-1.818,2.503-1.78c0.957,0.033,1.755,0.698,2.612,1.124c1.569,0.78,3.398,0.771,5.15,0.745
					c2.017-0.03,4.033-0.059,6.05-0.089c1.859-0.027,3.831-0.025,5.417,0.945c1.049,0.642-1.871,1.455-1.99,1.476
					c-0.934,0.159-2.194-0.312-3.16-0.332C213.84,341.827,211.216,342.433,208.902,343.578z"/>
			</g>
		</g>
	</g>
	<g>
		
			<text transform="matrix(1.0048 0 0 1 123.5044 57.8877)" style="fill:#161616; font-family:'AbhayaLibre-ExtraBold'; font-size:25.6355px; letter-spacing:0.995;">INSECT SILHOUETTE</text>
		
			<text transform="matrix(1.0048 0 0 1 196.6152 78.124)" style="fill:#161616; font-family:'AbhayaLibre-ExtraBold'; font-size:17.5071px;">COLLECTION</text>
	</g>
</g>
<g id="DESIGNED_BY_FREEPIK">
	<g>
		<g id="XMLID_319_">
			<g id="XMLID_338_">
				<path id="XMLID_346_" style="fill:#1D262D;" d="M260.104,465.465c-0.432,0.443-0.803,0.931-1.108,1.453l-0.465-0.241
					c-0.067-0.298-0.349-0.503-0.659-0.466c-0.331,0.039-0.568,0.339-0.529,0.67s0.339,0.568,0.67,0.529
					c0.065-0.008,0.127-0.026,0.184-0.052l0.451,0.234c-0.251,0.554-0.433,1.139-0.539,1.744l0.746,0.132
					c0.23-1.306,0.85-2.507,1.792-3.473L260.104,465.465z"/>
				<path id="XMLID_345_" style="fill:#1D262D;" d="M265.592,463.163c-0.171,0-0.341,0.006-0.51,0.017l-0.074-0.626
					c0.188-0.149,0.296-0.389,0.266-0.645c-0.046-0.393-0.402-0.674-0.795-0.628s-0.674,0.402-0.628,0.795
					c0.03,0.254,0.189,0.461,0.405,0.564l0.073,0.624c-0.714,0.116-1.403,0.332-2.06,0.646l0.327,0.684
					c0.934-0.447,1.942-0.673,2.995-0.673c0.496,0,0.993,0.053,1.475,0.158l0.161-0.741
					C266.693,463.222,266.142,463.163,265.592,463.163z"/>
				<path id="XMLID_344_" style="fill:#1D262D;" d="M272.194,465.711c0.331-0.04,0.566-0.341,0.525-0.672
					c-0.04-0.331-0.341-0.566-0.672-0.526c-0.309,0.038-0.535,0.304-0.53,0.609l-0.416,0.363c-0.418-0.43-0.89-0.813-1.408-1.139
					l-0.404,0.641c1.134,0.715,2.021,1.726,2.563,2.925l0.691-0.313c-0.251-0.554-0.568-1.072-0.942-1.545l0.402-0.351
					C272.065,465.716,272.129,465.719,272.194,465.711z"/>
				<path id="XMLID_343_" style="fill:#1D262D;" d="M265.044,473.372c-0.386,0.023-0.775,0.035-1.157,0.035
					c-0.88,0-1.733-0.061-2.478-0.179c-0.39-0.062-0.846-0.155-1.27-0.292c1.046,1.861,3.069,3.125,5.388,3.125
					c2.855,0,5.262-1.916,5.95-4.504c-0.682,0.449-1.505,0.825-2.459,1.123C267.839,473.047,266.464,473.286,265.044,473.372z"/>
				<path id="XMLID_339_" style="fill:#1D262D;" d="M265.592,464.68c-3.352,0-6.08,2.666-6.08,5.943
					c0,0.426,0.046,0.849,0.137,1.261c0.674,0.483,2.706,0.89,5.348,0.731c2.879-0.173,5.297-0.957,6.672-2.159
					c-0.005-0.195-0.021-0.39-0.045-0.582C271.244,466.913,268.65,464.68,265.592,464.68z M263.432,471.194
					c-1.02,0-1.85-0.83-1.85-1.85c0-1.02,0.83-1.85,1.85-1.85c1.02,0,1.85,0.83,1.85,1.85
					C265.282,470.365,264.452,471.194,263.432,471.194z M268.17,470.286c-0.75,0-1.36-0.61-1.36-1.36s0.61-1.361,1.36-1.361
					c0.75,0,1.361,0.61,1.361,1.361S268.92,470.286,268.17,470.286z"/>
			</g>
			<path id="XMLID_336_" style="fill:#1D262D;" d="M281.595,466.547c-0.295-0.116-0.806-0.309-1.382-0.237
				c-0.551,0.069-0.844,0.341-0.844,1.007v0.866h2.228v1.717h-2.228v5.455h-1.932v-5.455h-1.34v-1.717h1.34v-0.888
				c0-1.68,0.896-2.783,2.568-2.783c0.642,0,1.157,0.122,1.59,0.308L281.595,466.547z"/>
			<path id="XMLID_334_" style="fill:#1D262D;" d="M286.298,469.879c-0.177-0.03-0.358-0.046-0.526-0.046
				c-0.896,0-1.51,0.548-1.51,1.614v3.908h-1.932v-7.172h1.873v0.785c0.451-0.673,1.14-0.977,2.021-0.977
				c0.414,0,0.848,0.128,1.094,0.337L286.298,469.879z"/>
			<path id="XMLID_331_" style="fill:#1D262D;" d="M293.965,471.757c0,0.222-0.015,0.489-0.037,0.651h-5.085
				c0.207,1.036,0.933,1.488,1.843,1.488c0.622,0,1.295-0.252,1.813-0.688l1.132,1.243c-0.814,0.748-1.85,1.088-3.057,1.088
				c-2.198,0-3.723-1.495-3.723-3.753c0-2.258,1.48-3.797,3.627-3.797C292.544,467.99,293.958,469.522,293.965,471.757z
				 M288.851,471.091h3.175c-0.177-0.918-0.733-1.436-1.562-1.436C289.554,469.655,289.021,470.203,288.851,471.091z"/>
			<path id="XMLID_328_" style="fill:#1D262D;" d="M301.618,471.757c0,0.222-0.015,0.489-0.037,0.651h-5.085
				c0.207,1.036,0.932,1.488,1.843,1.488c0.622,0,1.295-0.252,1.813-0.688l1.132,1.243c-0.814,0.748-1.85,1.088-3.057,1.088
				c-2.198,0-3.723-1.495-3.723-3.753c0-2.258,1.48-3.797,3.627-3.797C300.197,467.99,301.611,469.522,301.618,471.757z
				 M296.504,471.091h3.175c-0.178-0.918-0.733-1.436-1.562-1.436C297.207,469.655,296.674,470.203,296.504,471.091z"/>
			<path id="XMLID_325_" style="fill:#1D262D;" d="M309.964,471.764c0,2.154-1.495,3.775-3.471,3.775
				c-0.962,0-1.643-0.378-2.109-0.933v3.708h-1.924v-10.133h1.887v0.792c0.466-0.585,1.155-0.984,2.139-0.984
				C308.469,467.99,309.964,469.61,309.964,471.764z M304.287,471.764c0,1.132,0.747,1.976,1.843,1.976
				c1.14,0,1.85-0.881,1.85-1.976c0-1.095-0.71-1.976-1.85-1.976C305.035,469.788,304.287,470.632,304.287,471.764z"/>
			<path id="XMLID_322_" style="fill:#1D262D;" d="M313.068,465.836c0,0.696-0.54,1.229-1.236,1.229
				c-0.696,0-1.229-0.533-1.229-1.229c0-0.696,0.533-1.243,1.229-1.243C312.527,464.592,313.068,465.14,313.068,465.836z
				 M312.809,475.354h-1.932v-7.172h1.932V475.354z"/>
			<path id="XMLID_320_" style="fill:#1D262D;" d="M316.032,470.736l2.702-2.554h2.368l-3.479,3.375l3.501,3.797h-2.376
				l-2.716-2.901v2.901H314.1v-10.658h1.932V470.736z"/>
		</g>
		<g>
			<path style="fill:#1D262D;" d="M184.412,475.289v-1.055c-0.527,0.718-1.391,1.23-2.387,1.23c-1.846,0-3.149-1.406-3.149-3.706
				c0-2.256,1.289-3.721,3.149-3.721c0.952,0,1.816,0.469,2.387,1.245v-3.765h1.099v9.77H184.412z M184.412,473.37v-3.208
				c-0.395-0.615-1.245-1.143-2.124-1.143c-1.421,0-2.27,1.172-2.27,2.739c0,1.567,0.85,2.724,2.27,2.724
				C183.168,474.483,184.017,473.986,184.412,473.37z"/>
			<path style="fill:#1D262D;" d="M186.932,471.744c0-2.051,1.465-3.706,3.486-3.706c2.139,0,3.398,1.67,3.398,3.794v0.279h-5.727
				c0.088,1.333,1.025,2.446,2.549,2.446c0.805,0,1.626-0.322,2.182-0.894l0.527,0.718c-0.703,0.703-1.655,1.084-2.812,1.084
				C188.44,475.465,186.932,473.956,186.932,471.744z M190.403,468.947c-1.509,0-2.256,1.274-2.314,2.358h4.643
				C192.718,470.25,192.015,468.947,190.403,468.947z"/>
			<path style="fill:#1D262D;" d="M194.607,474.351l0.571-0.791c0.469,0.542,1.362,1.011,2.329,1.011c1.084,0,1.67-0.513,1.67-1.216
				c0-1.714-4.38-0.659-4.38-3.281c0-1.098,0.952-2.036,2.636-2.036c1.201,0,2.051,0.454,2.622,1.026l-0.513,0.762
				c-0.424-0.513-1.201-0.894-2.109-0.894c-0.967,0-1.567,0.483-1.567,1.113c0,1.552,4.38,0.527,4.38,3.281
				c0,1.187-0.952,2.138-2.783,2.138C196.306,475.465,195.325,475.113,194.607,474.351z"/>
			<path style="fill:#1D262D;" d="M201.477,466.471c0-0.41,0.337-0.747,0.732-0.747c0.41,0,0.747,0.337,0.747,0.747
				c0,0.41-0.337,0.732-0.747,0.732C201.814,467.203,201.477,466.881,201.477,466.471z M201.667,475.289v-7.075h1.099v7.075H201.667
				z"/>
			<path style="fill:#1D262D;" d="M204.582,477.105l0.556-0.82c0.586,0.703,1.289,0.967,2.3,0.967c1.172,0,2.27-0.571,2.27-2.124
				v-1.011c-0.513,0.718-1.377,1.26-2.373,1.26c-1.845,0-3.149-1.377-3.149-3.662c0-2.27,1.289-3.677,3.149-3.677
				c0.952,0,1.802,0.469,2.373,1.245v-1.069h1.098v6.87c0,2.344-1.641,3.076-3.369,3.076
				C206.237,478.16,205.417,477.926,204.582,477.105z M209.709,473.253v-3.091c-0.381-0.615-1.23-1.143-2.109-1.143
				c-1.421,0-2.27,1.128-2.27,2.695c0,1.553,0.849,2.695,2.27,2.695C208.478,474.41,209.328,473.868,209.709,473.253z"/>
			<path style="fill:#1D262D;" d="M217.413,475.289v-4.629c0-1.245-0.63-1.641-1.582-1.641c-0.865,0-1.685,0.527-2.095,1.099v5.17
				h-1.099v-7.075h1.099v1.025c0.498-0.586,1.464-1.201,2.519-1.201c1.48,0,2.256,0.747,2.256,2.285v4.966H217.413z"/>
			<path style="fill:#1D262D;" d="M219.932,471.744c0-2.051,1.465-3.706,3.486-3.706c2.139,0,3.398,1.67,3.398,3.794v0.279h-5.727
				c0.088,1.333,1.025,2.446,2.549,2.446c0.806,0,1.626-0.322,2.183-0.894l0.527,0.718c-0.703,0.703-1.655,1.084-2.812,1.084
				C221.441,475.465,219.932,473.956,219.932,471.744z M223.404,468.947c-1.509,0-2.256,1.274-2.314,2.358h4.643
				C225.718,470.25,225.015,468.947,223.404,468.947z"/>
			<path style="fill:#1D262D;" d="M233.35,475.289v-1.055c-0.527,0.718-1.392,1.23-2.388,1.23c-1.846,0-3.149-1.406-3.149-3.706
				c0-2.256,1.289-3.721,3.149-3.721c0.952,0,1.817,0.469,2.388,1.245v-3.765h1.098v9.77H233.35z M233.35,473.37v-3.208
				c-0.396-0.615-1.245-1.143-2.124-1.143c-1.421,0-2.27,1.172-2.27,2.739c0,1.567,0.849,2.724,2.27,2.724
				C232.105,474.483,232.954,473.986,233.35,473.37z"/>
			<path style="fill:#1D262D;" d="M239.692,475.289v-9.77h1.098v3.765c0.572-0.776,1.421-1.245,2.388-1.245
				c1.845,0,3.149,1.465,3.149,3.721c0,2.299-1.304,3.706-3.149,3.706c-0.996,0-1.86-0.513-2.388-1.23v1.055H239.692z
				 M242.9,474.483c1.436,0,2.285-1.157,2.285-2.724c0-1.568-0.85-2.739-2.285-2.739c-0.864,0-1.728,0.527-2.109,1.143v3.208
				C241.171,473.986,242.036,474.483,242.9,474.483z"/>
			<path style="fill:#1D262D;" d="M247.528,477.061c0.161,0.073,0.425,0.117,0.601,0.117c0.483,0,0.805-0.161,1.055-0.747
				l0.469-1.069l-2.959-7.148h1.187l2.358,5.8l2.344-5.8h1.201l-3.545,8.51c-0.425,1.025-1.143,1.421-2.08,1.435
				c-0.234,0-0.601-0.044-0.805-0.103L247.528,477.061z"/>
		</g>
	</g>
</g>
</svg>
