<?xml version="1.0" encoding="utf-8"?>
<!-- Generator: Adobe Illustrator 27.5.0, SVG Export Plug-In . SVG Version: 6.00 Build 0)  -->
<svg version="1.1" xmlns="http://www.w3.org/2000/svg" xmlns:xlink="http://www.w3.org/1999/xlink" x="0px" y="0px"
	 viewBox="0 0 500 500" style="enable-background:new 0 0 500 500;" xml:space="preserve">
<g id="BACKGROUND">
	<rect style="fill:#FFFFFF;" width="500" height="500"/>
</g>
<g id="OBJECTS">
	<g>
		<path style="fill:#333333;" d="M425.508,409.367c-0.822,0.205-4.519,1.027-4.519,1.027s-1.055-3.073-2.649-7.71
			c1.147-1.139,2.371-3.036,3.389-4.176c1.48-1.657,0.372-5.549,0.107-9.529c-0.265-3.98-5.089-5.079-7.907-5.686
			c-0.247-0.053-1.111-0.251-2.463-0.562c-3.924-11.361-7.672-22.152-8.143-23.281c-1.027-2.465-2.26-6.573-4.108-7.806
			c-1.849-1.232-5.135-3.492-5.135-3.492s-3.492-10.682-5.341-10.682c-1.849,0-28.293,28.725-28.293,28.725l-2.375,4.22
			c-16.495-3.774-30.536-6.931-31.778-7.024c-3.079-0.229-8.802,0.619-12.461,1.552c-3.66,0.933-4.208,4.797-4.208,4.797
			s-6.686-4.06-13.223-4.78c-6.537-0.72-7.661,8.665-9.027,8.056c-0.095-0.042-0.36-0.222-0.772-0.521
			c-5.479-3.981-36.906-29.079-38.827-31.861c-2.066-2.99-12.103-18.523-13.934-18.782c-1.83-0.26-0.229,3.08,11.144,17.972
			c11.373,14.892,42.157,34.82,42.157,34.82l-0.462,3.254c0,0-15.277,3.85-21.957,5.599c-6.68,1.75-28.396,15.889-29.122,16.616
			c-0.725,0.727-13.817,11.111-12.334,12.359c1.483,1.248,10.391-8.9,13.004-11.226c2.612-2.327,23.836-14.461,29.267-16.181
			c5.431-1.719,20.185-4.813,20.185-4.813s1.193,1.829,2.909,4.355c1.716,2.526,4.74,4.615,8.401,5.134
			c3.661,0.519,10.191-6.023,10.191-6.023s0.738,5.024,2.066,8.405c-3.418,0.466-11.044,1.604-11.76,2.557
			c-0.924,1.233-8.936,24.804-8.936,24.804s-7.857,4.468-7.857,5.084c0,0.616,8.474-3.543,9.244-3.852
			c0.77-0.308,8.936-23.264,9.706-24.034c0.643-0.643,7.486-2.16,10.642-2.539c1.971,2.709,6.439,2.968,7.396,3.305
			c0.29,0.102,1.585,0.311,3.374,0.586c4.335,3.547,14.59,11.66,19.261,12.977c0,0,3.235,0.308,3.235,0.924
			c0,0.616-1.849,8.165,0,17.101c1.849,8.936,0.77,8.474,0.77,8.936c0,0.462,9.09,5.084,9.86,4.776
			c0.77-0.308-4.008-5.245-6.779-5.7c0,0-0.77,1.233-0.924-0.924s0-22.956-0.308-24.65c-0.241-1.326-11.889-8.119-18.056-12.342
			c3.047,0.497,6.067,1.041,7.988,1.553c4.998,1.331,13.455,4.606,15.513,4.722c2.058,0.116,33.764,3.306,41.725,4.227
			c7.961,0.922,8.776,2.49,10.752,3.185c1.976,0.695,4.733-2.648,4.15-4.391c-0.583-1.742-7.151-5.164-7.151-5.164
			s9.539,0.38,13.811,0.405c1.979,5.742,3.585,10.012,3.987,10.012c1.233,0,10.066-2.26,10.066-3.492
			C429,408.956,426.329,409.161,425.508,409.367z M387.505,341.989c1.438,0.411,3.287,6.163,3.287,6.163l-22.391,16.434
			C368.401,364.585,386.067,341.578,387.505,341.989z M374.43,374.173c8.824-10.528,16.837-19.972,17.389-20.064
			c1.233-0.205,8.011,3.903,8.628,5.957c0.616,2.054,4.725,13.558,4.725,13.558s1.071,3.424,2.614,8.258
			C400.505,380.198,387.74,377.239,374.43,374.173z"/>
	</g>
	<g>
		<path style="fill:#333333;" d="M315.928,235.133c-0.785,1.577-2.358,8.75-2.358,8.75s-8.849,5.127-10.419,5.127
			c-1.569,0-5.039-0.315-5.039-0.315s-3.154-1.425-6.939-2.447c-3.785-1.022-10.408-2.365-10.408-2.365s-4.1-4.019-5.677-4.965
			c-0.902-0.541-2.628-1.185-3.941-1.637c0.205-2.193,0.277-4.406,0.195-6.591c2.22,1.121,5.639,2.761,6.27,2.551
			c0.946-0.315,0.946-0.315,0.946-0.315s4.1,2.523,6.308,3.154c2.208,0.631,5.993,1.262,6.939,0
			c0.946-1.262,0.946-1.262,0.946-1.262s5.662,1.28,10.4-1.568c4.738-2.848,8.509-5.686,6.466-6.948c0,0,5.218-7.254,3.953-7.727
			c-1.265-0.473-6.652,6.465-6.652,6.465s-7.86,4.258-8.806,4.652c-0.946,0.394-4.891,1.34-4.891,1.34s-5.517-2.208-8.986-2.523
			c-3.469-0.315-5.677,1.183-5.677,1.183s-3.991-3.921-7.758-5.012c-0.229-1.696-0.522-3.441-0.891-5.208
			c1.7,0.634,3.829,1.333,4.548,1.153c1.262-0.315,1.892,0.373,3.469,0.029s9.706,1.548,10.057,1.548
			c0.351,0,1.928-1.577,1.928-1.577s4.416,0.315,9.146-0.946s6.623-2.839,7.254-4.731c0.631-1.892,1.892-10.092,0.946-10.092
			c-0.946,0-3.469,9.146-3.469,9.146s-13.877,2.208-14.508,3.469s-0.631,1.262-0.631,1.262s-8.2-2.523-9.777-1.892
			c-1.577,0.631-1.577,0.631-1.577,0.631s-5.306-1.711-8.478-2.486c-0.76-2.718-1.704-5.389-2.837-7.89
			c2.881,0.839,7.611,2.176,8.477,2.176c1.262,0,2.523,0.315,4.1,0.315c1.577,0,7.885-2.839,10.408-4.1
			c2.523-1.262,5.993-3.785,5.993-3.785s3.785-11.354,4.1-12.616c0.315-1.262,0.946-6.939-0.315-5.677
			c-1.262,1.262-1.577,5.677-1.577,5.677l-5.362,9.777c0,0-12.3,5.362-13.877,6.308c-1.338,0.803-10.17-2.708-14.741-3.212
			c-1.069-1.626-2.245-3.106-3.552-4.358c0,0,2.839-1.262,0.946-3.469c-0.314-0.366-0.663-0.777-1.029-1.209
			c1.091-1.066,2.713-2.506,3.867-2.891c1.892-0.631,8.831-3.785,15.77-9.777c0,0,3.785,0,5.046-2.839
			c1.262-2.839,1.892-10.723,1.892-14.193c0-3.469-1.262-10.093-4.1-10.723s-5.992,0-6.623,0.631
			c-0.631,0.631-0.315-4.415-2.208-5.677c-1.892-1.262-11.039-5.362-16.085-4.731c-5.046,0.631-2.523,2.208-0.946,2.208
			c1.577,0,2.681,0,2.365,1.892s-1.577,2.681-3.154,2.523c-1.577-0.158-4.258-0.315-3.942,0.631
			c0.315,0.946,1.104,1.419,2.366,1.892c1.261,0.473,8.042,3.785,11.512,3.942s8.673,0.315,8.673,0.315s0.473,10.881,0.946,12.931
			c0.473,2.05,3.312,6.781,3.312,6.781s-1.419,1.262-2.839,1.419c-1.419,0.158-6.15,0.788-9.462,3.627
			c-3.312,2.839-5.204,6.308-6.15,7.57c-0.498,0.664-1.384,1.54-2.116,2.227c-1.272-1.536-2.419-2.958-2.772-3.489
			c-0.631-0.946-3.469,1.577-3.469,1.577s-0.394,0.828-1.34,0.71c-0.946-0.118-1.528-0.71-1.528-0.71s-2.839-2.523-3.469-1.577
			c-0.354,0.53-1.5,1.952-2.772,3.489c-0.732-0.687-1.618-1.563-2.116-2.227c-0.946-1.262-2.839-4.731-6.15-7.57
			c-3.312-2.839-8.042-3.469-9.462-3.627c-1.419-0.158-2.839-1.419-2.839-1.419s2.839-4.731,3.312-6.781s0.946-12.931,0.946-12.931
			s5.204-0.158,8.673-0.315s10.25-3.469,11.512-3.942c1.262-0.473,2.05-0.946,2.366-1.892c0.315-0.946-2.366-0.789-3.942-0.631
			c-1.577,0.158-2.839-0.631-3.154-2.523s0.788-1.892,2.365-1.892c1.577,0,4.1-1.577-0.946-2.208
			c-5.046-0.631-14.193,3.469-16.085,4.731c-1.892,1.262-1.577,6.308-2.208,5.677c-0.631-0.631-3.785-1.262-6.623-0.631
			c-2.839,0.631-4.1,7.254-4.1,10.723c0,3.469,0.631,11.354,1.892,14.193c1.262,2.839,5.046,2.839,5.046,2.839
			c6.939,5.992,13.877,9.146,15.77,9.777c1.155,0.385,2.777,1.825,3.868,2.891c-0.366,0.432-0.715,0.844-1.029,1.209
			c-1.892,2.208,0.946,3.469,0.946,3.469c-1.307,1.252-2.483,2.732-3.552,4.358c-4.571,0.503-13.403,4.015-14.741,3.212
			c-1.577-0.946-13.877-6.308-13.877-6.308l-5.362-9.777c0,0-0.315-4.416-1.577-5.677c-1.262-1.261-0.631,4.416-0.315,5.677
			c0.315,1.262,4.1,12.616,4.1,12.616s3.469,2.523,5.992,3.785c2.523,1.262,8.831,4.1,10.408,4.1c1.577,0,2.839-0.315,4.1-0.315
			c0.866,0,5.596-1.338,8.477-2.176c-1.133,2.502-2.078,5.172-2.837,7.89c-3.172,0.775-8.479,2.486-8.479,2.486s0,0-1.577-0.631
			c-1.577-0.631-9.777,1.892-9.777,1.892s0,0-0.631-1.262s-14.508-3.469-14.508-3.469s-2.523-9.146-3.469-9.146
			c-0.946,0,0.315,8.2,0.946,10.092c0.631,1.892,2.523,3.469,7.254,4.731s9.146,0.946,9.146,0.946s1.577,1.577,1.928,1.577
			s8.48-1.892,10.057-1.548c1.577,0.344,2.208-0.344,3.469-0.029c0.719,0.18,2.849-0.519,4.548-1.153
			c-0.369,1.767-0.662,3.512-0.891,5.208c-3.767,1.091-7.758,5.012-7.758,5.012s-2.208-1.498-5.677-1.183
			c-3.469,0.315-8.986,2.523-8.986,2.523s-3.945-0.946-4.891-1.34c-0.946-0.394-8.806-4.652-8.806-4.652s-5.386-6.939-6.651-6.465
			c-1.265,0.473,3.953,7.727,3.953,7.727c-2.043,1.262,1.728,4.1,6.466,6.948c4.738,2.848,10.4,1.568,10.4,1.568s0,0,0.946,1.262
			c0.946,1.262,4.731,0.631,6.939,0c2.208-0.631,6.308-3.154,6.308-3.154s0,0,0.946,0.315c0.63,0.21,4.05-1.43,6.27-2.551
			c-0.083,2.185-0.01,4.398,0.195,6.591c-1.314,0.452-3.039,1.096-3.941,1.637c-1.577,0.946-5.677,4.965-5.677,4.965
			s-6.623,1.342-10.408,2.365c-3.785,1.022-6.939,2.447-6.939,2.447s-3.469,0.315-5.039,0.315c-1.57,0-10.419-5.127-10.419-5.127
			s-1.574-7.173-2.358-8.75c-0.785-1.577-1.738,1.262-1.738,1.262s0.946,9.146,2.463,9.853c1.516,0.707,8.285,6.862,8.285,6.862
			s3.76,0,5.388,0c1.628,0,3.734-2.839,3.734-2.839s7.569,0.631,9.813,0c2.243-0.631,7.849-4.1,7.849-4.1s0,0,2.208,0.076
			c1.734,0.06,5.111-3.861,7.175-5.736c0.992,6.693,3.008,12.917,4.961,17.081c2.99,6.375,8.337,10.924,8.337,10.924h0.599
			c-1.081,2.463-0.613,7.313-0.031,8.793c0.71,1.806,2.389,3.314,2.389,3.314s-2.177,3.332-2.07,6.702
			c0.108,3.37,4.535,9.204,4.535,9.204s-1.536,2.985,0.232,7.277c1.768,4.292,10.248,4.255,10.248,4.255s1.688,1.781,4.957,2.003
			c3.269,0.222,11.239-5.578,14.394-8.941c3.155-3.363,6.805-11.635,6.805-11.635c1.303-0.042,3.671-7.62,3.77-10.885
			c0.099-3.265-1.419-7.458-1.419-7.458s0,0,0.957-0.683c0.957-0.683-1.837-6.465-7.092-7.563
			c-5.254-1.098-10.253,5.834-12.156,7.525c-1.903,1.692,0.419,2.922,3.73,4.448c3.311,1.525,8.778-0.933,8.778-0.933
			c-2.891,1.397-1.456,15.705-1.456,15.705c-10.335,3.266-21.64,17.001-20.833,15.018s-5.397-8.962-5.397-8.962
			s3.397-5.98,3.402-9.242c0.005-3.262-1.589-5.495-1.589-5.495s0,0,1.893-2.018c1.463-1.559,0.441-7.713-0.099-10.429h0.36
			c0,0,5.347-4.549,8.337-10.924c1.953-4.164,3.969-10.388,4.961-17.081c2.063,1.875,5.441,5.796,7.175,5.736
			c2.208-0.076,2.208-0.076,2.208-0.076s5.606,3.469,7.849,4.1c2.243,0.631,9.813,0,9.813,0s2.106,2.839,3.734,2.839
			c1.628,0,5.388,0,5.388,0s6.769-6.156,8.285-6.862c1.517-0.707,2.463-9.853,2.463-9.853S316.713,233.556,315.928,235.133z"/>
	</g>
	<g>
		<path style="fill:#333333;" d="M165.721,277.065c-0.573-0.191-11.27-25.024-13.563-29.617c-2.292-4.592-3.63-6.487-7.259-8.015
			c-3.629-1.528-8.596-1.719-18.72-2.483c-6.583-0.497-10.79-0.348-12.937-0.182c0.645-7.135,1.452-14.648,1.285-17.487
			c-0.055-0.941-0.552-2.312-1.313-3.908c5.365-3.391,13.923-16.513,15.21-18.442c1.433-2.149,7.163-8.739,8.023-9.313
			c0.86-0.573,0.286-2.292,0-3.009c-0.287-0.716-6.017-18.625-7.45-21.92c-1.132-2.602-6.305-12.192-8.236-16.549
			c0.285-0.709,0.461-1.138,0.5-1.217c0.43-0.86,5.014-2.722,7.45-3.295c2.436-0.573,4.728-2.292,6.017-2.006
			c1.289,0.286,27.651,25.358,28.224,26.075c0.573,0.716,1.433,3.009,1.719,5.301c0.287,2.292,1.863,6.304,2.436,7.163
			c0.573,0.86,1.433,0.143,1.289-0.716c-0.143-0.86-2.292-10.029-2.722-11.318s-28.495-29.8-29.362-29.8
			c-0.868,0-3.876,2.436-7.315,2.865c-3.438,0.43-6.59,1.003-7.593,2.006c-0.142,0.142-0.63,1.16-1.362,2.802v0
			c0.394-0.89,0.359-4.234,0.502-5.523c0.143-1.289-0.143-4.728-1.003-5.014c-0.86-0.286-0.86,0.716-1.003,1.289
			c-0.143,0.573-1.576,7.02-2.006,8.739c-0.084,0.336,0.558,2.131,1.642,4.799c-5.488,12.806-15.954,38.442-15.968,38.478
			c-0.228-0.512-0.442-1.089-1.433-1.023h-0.546c-0.991-0.066-1.206,0.511-1.433,1.023c-0.015-0.036-10.481-25.672-15.968-38.478
			c1.084-2.668,1.726-4.463,1.642-4.799c-0.43-1.719-1.863-8.166-2.006-8.739c-0.143-0.573-0.143-1.576-1.003-1.289
			c-0.86,0.286-1.146,3.725-1.003,5.014c0.143,1.289,0.108,4.633,0.502,5.523v0c-0.732-1.641-1.22-2.66-1.362-2.802
			c-1.003-1.003-4.155-1.576-7.593-2.006c-3.438-0.43-6.447-2.865-7.315-2.865c-0.868,0-28.932,28.51-29.362,29.8
			c-0.43,1.289-2.579,10.459-2.722,11.318c-0.143,0.86,0.716,1.576,1.289,0.716c0.573-0.86,2.149-4.871,2.436-7.163
			c0.286-2.292,1.146-4.585,1.719-5.301c0.573-0.716,26.935-25.788,28.224-26.075c1.289-0.287,3.582,1.433,6.017,2.006
			c2.436,0.573,7.02,2.436,7.45,3.295c0.039,0.079,0.215,0.508,0.5,1.217c-1.932,4.357-7.105,13.946-8.236,16.549
			c-1.433,3.295-7.163,21.204-7.45,21.92s-0.86,2.436,0,3.009c0.86,0.573,6.59,7.163,8.023,9.313
			c1.286,1.929,9.844,15.051,15.21,18.442c-0.76,1.596-1.257,2.967-1.313,3.908c-0.167,2.839,0.639,10.352,1.285,17.487
			c-2.147-0.165-6.354-0.314-12.937,0.182c-10.124,0.764-15.091,0.955-18.72,2.483c-3.63,1.528-4.967,3.423-7.259,8.015
			c-2.292,4.592-12.99,29.426-13.563,29.617s-4.807,0.764-2.69,1.337c2.117,0.573,4.409,1.146,4.792,0
			c0.382-1.146,14.327-34.384,15.091-34.958c0.764-0.573,8.978-2.483,10.315-3.247c1.15-0.657,19.859-0.467,25.245-0.279
			c0.324,3.913,0.542,7.465,0.447,9.735c-0.129,3.108-1.312,9.26-2.464,15.783c-4.366,6.813-16.218,25.249-17.307,26.338
			c-1.337,1.337-6.304,7.259-6.495,9.742C62.022,304,56.1,335.901,56.1,337.047c0,1.146,0.382,4.776,0,5.731
			c-0.382,0.955-2.483,6.113-4.394,6.877c-1.91,0.764-1.719,2.865,0,2.674c1.719-0.191,5.54-4.012,5.922-8.787
			c0,0,0.382-6.304,0.573-7.259c0.191-0.955,4.918-32.092,5.898-33.238c0.979-1.146,6.328-8.405,6.71-10.506
			c0.296-1.627,10.21-17.108,14.67-24.014c-1.178,6.94-2.132,13.828-1.585,17.519c1.146,7.736,8.596,20.631,10.602,21.777
			c2.006,1.146,3.725,1.051,5.731,1.337h0.546c2.006-0.287,3.725-0.191,5.731-1.337c2.006-1.146,9.456-14.04,10.602-21.777
			c0.547-3.691-0.407-10.579-1.585-17.519c4.46,6.906,14.374,22.387,14.67,24.014c0.382,2.101,5.731,9.36,6.71,10.506
			c0.979,1.146,5.706,32.283,5.898,33.238c0.191,0.955,0.573,7.259,0.573,7.259c0.382,4.776,4.203,8.596,5.922,8.787
			c1.719,0.191,1.91-1.91,0-2.674c-1.91-0.764-4.012-5.922-4.394-6.877c-0.382-0.955,0-4.585,0-5.731
			c0-1.146-5.922-33.047-6.113-35.531c-0.191-2.483-5.158-8.405-6.495-9.742c-1.089-1.089-12.941-19.525-17.307-26.338
			c-1.152-6.523-2.335-12.675-2.464-15.783c-0.095-2.27,0.124-5.822,0.447-9.735c5.386-0.188,24.096-0.378,25.245,0.279
			c1.337,0.764,9.551,2.674,10.315,3.247c0.764,0.573,14.709,33.811,15.091,34.958c0.382,1.146,2.674,0.573,4.792,0
			C170.529,277.829,166.295,277.256,165.721,277.065z M98.794,198.076c0,0-6.554,8.897-10.103,15.516
			c-4.024-4.886-22.291-27.102-22.283-27.853c0.006-0.638,10.565-23.464,15.535-35.316c4.128,10.43,12.746,32.411,14.52,36.936
			c-0.613-0.035-1.813-0.028-1.967,0.974c-0.191,1.242,2.292,1.433,2.865,1.528c0.573,0.095,1.146,1.051,1.146,1.051
			C99.081,192.632,98.794,198.076,98.794,198.076z M102.206,198.076c0,0-0.287-5.444,0.287-7.163c0,0,0.573-0.955,1.146-1.051
			c0.573-0.096,3.056-0.287,2.865-1.528c-0.154-1.002-1.354-1.008-1.967-0.974c1.774-4.525,10.392-26.507,14.52-36.936
			c4.97,11.851,15.529,34.678,15.535,35.316c0.007,0.751-18.259,22.968-22.283,27.853
			C108.76,206.973,102.206,198.076,102.206,198.076z"/>
	</g>
	<g>
		<path style="fill:#333333;" d="M191.25,399.333c-1.25-0.5-6.5-2.5-7.25-2.75c-0.498-0.166-4.632-0.001-7.354,0.128
			c-0.424-1.067-0.906-2.191-1.395-3.264c2.318-2.048,7.957-7.021,8.749-7.614c1-0.75,5.75-6.25,6.75-7.5s5.75-4,3.75-4.5
			s-3.75,0.5-4.25,3.5s-7.75,8.25-9.75,9.5c-1.27,0.794-4.349,2.794-6.432,4.15c-0.633-1.242-1.199-2.22-1.568-2.65
			c-1.5-1.75-4.5,0-4.5,0s-1.5-3.75-1.75-4.5s-7.5-7.25-12-8.5s-9.5,0.5-13.25,2s-5.5,6.25-5.5,6.25s-1.75-3-4.25-3s-5.75,3-5.75,3
			l-0.5-1.5c0,0-5.25,0.25-10.5,0.5s-11,4.25-15,8s-6.75,12.75-6.75,14s4,1.25,4,1.25s-1.75,0.75-3.75,3.5s-0.75,3.5,0.5,3.75
			s2,1.75,5,3c0,0-5.5,6.75-6.25,7.75s0.25,1,0.25,1s-0.25,6.75-0.25,8.25s0.75,4,3,2.75s-2.25-10-1.25-10.75
			c0.784-0.588,5.243-6.23,7.138-8.648c6.083,0.176,19.526-1.56,24.112-2.602c5.5-1.25,4-5.25,4-5.25s4,3.75,7.5,4.5
			c0.689,0.148,1.33,0.221,1.951,0.256c0.119,1.079,0.147,2.597-0.451,3.494c-1,1.5-15,7.5-16.25,8s-2.5,3.25-4.75,6.25
			s-3.75,5.25-4.5,8s0.25,2.5,2.25,2.25s0.25-3.5,1.25-5s6.75-10,7.75-11s4.5-1.25,8.25-2s9-5,10.25-6.25
			c0.775-0.775,0.013-2.701-0.678-4.054c1.25-0.337,2.441-0.908,3.678-1.696c2.457-1.564,3.927-1.331,6.706-1.086l3.544,4.586
			l-0.5,1.5c0,0-0.5,10-0.75,12.5s1.75,4,1.75,4s0,3.25-0.5,4.75s-3.5,3.5-2,3.75s2.5-0.25,4-1.5s-0.25-7-0.25-7l0.75-1.75
			l-1.75-14.25l0.75-2.25l-3.095-4.298c2.851-0.454,4.095-3.952,4.095-3.952s1.25,1,4.5,1.25c1.564,0.12,2.952-0.515,4.141-1.37
			l2.609,5.62c0,0,2.5,14.5,2.75,16s3.25,2.25,3.25,2.25s0,5.5,0,8.5s1.75,2.75,2.75,2.25s-1.75-11.25-1.75-11.25
			c2-0.75-4.75-15.75-5.25-17.75c-0.345-1.379-1.997-4.778-2.989-6.756c0.676-0.631,1.26-1.264,1.739-1.744
			c1.5-1.5,3.5-0.5,4.75-0.5s2.5,0,3.25-1c0.222-0.297-0.041-1.453-0.557-2.975c2.384-0.171,5.689-0.329,7.057-0.025
			c2.25,0.5,6.5,3,6.5,3c0,5.75,2.25,8,4,7.75S192.5,399.833,191.25,399.333z"/>
	</g>
	<g>
		<path style="fill:#333333;" d="M219.287,92.288c-2.301-4.373-5.753-11.046-7.825-14.038c-2.071-2.992-18.871-19.101-29.227-26.235
			c-10.356-7.134-14.498-7.134-14.498-7.134s2.531-2.531,1.611-5.063c-0.921-2.532-6.214-5.063-6.214-5.063
			c0.674-0.193,0.779-0.628,0.527-1.186c0.995,0.343,2.006,0.698,2.695,0.956c1.841,0.69,10.126,4.603,10.126,4.603
			c0.23,1.151,2.992,2.531,4.833,1.611c1.841-0.92-2.531-2.531-2.531-2.531s-8.745-4.142-13.118-5.753
			c-1.594-0.587-2.725-0.744-3.524-0.709c-0.333-0.302-0.697-0.606-1.078-0.902c-2.071-1.611-5.523-1.841-5.523-1.841h-0.584
			c0,0-3.452,0.23-5.523,1.841c-0.381,0.296-0.746,0.6-1.078,0.902c-0.799-0.035-1.93,0.122-3.524,0.709
			c-4.373,1.611-13.118,5.753-13.118,5.753s-4.373,1.611-2.532,2.531c1.841,0.921,4.603-0.46,4.833-1.611
			c0,0,8.285-3.912,10.126-4.603c0.689-0.258,1.699-0.613,2.695-0.956c-0.252,0.558-0.147,0.994,0.527,1.186
			c0,0-5.293,2.531-6.214,5.063c-0.921,2.531,1.611,5.063,1.611,5.063s-4.142,0-14.498,7.134
			c-10.356,7.134-27.156,23.244-29.227,26.235c-2.071,2.992-5.523,9.666-7.825,14.038c-2.301,4.372-7.364,12.657-2.992,14.498
			c4.372,1.841,24.854-10.126,24.854-10.126s-0.921,2.071,4.833,2.301c5.753,0.23,18.871-4.373,23.704-9.896
			c0,0,0.921,4.373,3.222,5.523c0,0-2.762,3.452-0.69,5.523c2.071,2.071,3.682,2.071,3.682,2.071S150.813,113,154.956,113h0.584
			c4.142,0,7.134-10.816,7.134-10.816s1.611,0,3.682-2.071c2.071-2.071-0.69-5.523-0.69-5.523c2.301-1.151,3.222-5.523,3.222-5.523
			c4.833,5.523,17.951,10.126,23.704,9.896c5.753-0.23,4.833-2.301,4.833-2.301s20.482,11.967,24.854,10.126
			C226.651,104.945,221.588,96.66,219.287,92.288z"/>
	</g>
	<g>
		<path style="fill:#333333;" d="M463.553,87.451c-1.553-1.553-18.375-12.94-31.315-15.528c-12.94-2.588-34.162,1.553-34.162,1.553
			s-0.806,0.484-1.294,0.776c1.294-0.777,5.176-8.282,6.47-9.576s1.035-3.882,1.035-3.882c4.4-1.553,8.799-8.023,9.835-9.058
			c1.035-1.035,3.364-1.035,6.729-2.329c3.365-1.294-0.776-2.07-3.106-1.035c-2.329,1.035-5.694,1.294-6.729,2.07
			c-1.035,0.776-6.988,6.47-8.54,7.247c-1.553,0.776-2.847,3.623-4.658,6.211c-1.48,2.115-8.316,8.203-10.767,10.359
			c-0.864-3.275-2.713-10.361-4.094-14.305l0,0c0,0,6.062-2.006,8.909-5.629c2.847-3.623,5.953-7.764,7.247-9.576
			s1.553-3.882,2.329-5.435c0.776-1.553,4.4-3.882,6.729-5.953c2.329-2.07,3.623-1.035,3.365-2.329
			c-0.259-1.294-0.777-1.294-3.106,0.259c-2.329,1.553-8.54,4.658-9.576,5.694c-1.035,1.035-2.588,5.952-3.882,8.023
			c-1.133,1.814-9.216,9.98-12.77,13.023c-0.059-0.125-0.116-0.241-0.171-0.341c-1.553-2.847-5.694-2.588-5.694-2.588
			s6.211-4.917,6.211-6.47c0-1.553-3.623-6.47-4.917-7.246c-1.294-0.777-6.729-2.329-6.729-2.329s-0.776-1.035-1.553-2.588
			c-0.776-1.553-3.623-1.812-3.623-1.812h-0.615c0,0-2.847,0.259-3.623,1.812s-1.553,2.588-1.553,2.588s-5.435,1.553-6.729,2.329
			c-1.294,0.776-4.917,5.694-4.917,7.246c0,1.553,6.211,6.47,6.211,6.47s-4.141-0.259-5.694,2.588
			c-0.055,0.1-0.112,0.216-0.171,0.341c-3.554-3.042-11.636-11.209-12.77-13.023c-1.294-2.07-2.847-6.988-3.882-8.023
			c-1.035-1.035-7.247-4.141-9.576-5.694c-2.329-1.553-2.847-1.553-3.106-0.259c-0.259,1.294,1.035,0.259,3.364,2.329
			s5.952,4.4,6.729,5.953c0.776,1.553,1.035,3.623,2.329,5.435s4.4,5.952,7.246,9.576c2.847,3.623,8.909,5.629,8.909,5.629h0
			c-1.381,3.944-3.231,11.03-4.094,14.305c-2.451-2.156-9.286-8.244-10.767-10.359c-1.812-2.588-3.106-5.435-4.659-6.211
			c-1.553-0.776-7.505-6.47-8.541-7.247c-1.035-0.776-4.4-1.035-6.729-2.07c-2.329-1.035-6.47-0.259-3.106,1.035
			c3.364,1.294,5.694,1.294,6.729,2.329c1.035,1.035,5.435,7.505,9.835,9.058c0,0-0.259,2.588,1.035,3.882s5.176,8.799,6.47,9.576
			c0.108,0.065,0.181,0.108,0.238,0.143c-0.38-0.228-1.533-0.92-1.533-0.92s-21.222-4.141-34.162-1.553
			c-12.94,2.588-29.762,13.975-31.315,15.528c-1.553,1.553-1.294,3.623,1.553,4.4c2.847,0.776,6.988,4.658,13.717,5.435
			c6.729,0.777,15.269,1.553,23.81,2.847c8.54,1.294,21.998-1.035,25.622-4.659c3.069-3.069,10.576-9.466,13.12-11.984
			c1.106,1.106,1.114,1.114,1.114,1.114s-1.812,2.588-1.553,5.176c0.259,2.588,1.553,7.505,1.553,7.505s-2.818,3.477-3.49,7.046
			c-1.473,1.677-3.772,4.378-6.344,7.706c-4.4,5.694-7.505,10.611-6.729,12.164c0.776,1.553,0.776,1.553,0.776,1.553
			s-1.553,1.294-0.259,3.882c1.294,2.588,6.211,9.058,8.541,10.352c2.329,1.294,6.988,3.365,6.988,3.365s-1.812,5.176-2.588,7.764
			c-0.776,2.588-1.294,6.729-3.106,7.764c-1.812,1.035-2.847,2.847-1.294,3.106c1.553,0.259,4.141-3.364,5.694-6.47
			c1.553-3.106,4.4-11.646,4.917-12.423c0.517-0.776,0.517-2.329-0.518-2.588c-1.035-0.259-11.387-10.352-13.199-12.164
			c-1.812-1.812-3.623-2.588-3.623-2.588s3.882-1.553,5.176-2.847c0.928-0.928,4.639-5.567,6.671-8.127
			c0.839,3.455,2.037,6.742,3.422,8.127c2.847,2.847,7.246,4.917,10.611,7.764c3.364,2.847,4.4,5.435,7.246,5.435h0.615
			c2.847,0,3.882-2.588,7.247-5.435c3.364-2.847,7.764-4.917,10.611-7.764c1.385-1.385,2.584-4.672,3.422-8.127
			c2.033,2.56,5.743,7.199,6.671,8.127c1.294,1.294,5.176,2.847,5.176,2.847s-1.812,0.776-3.623,2.588
			c-1.812,1.812-12.164,11.905-13.199,12.164c-1.035,0.259-1.035,1.812-0.517,2.588c0.517,0.776,3.364,9.317,4.917,12.423
			c1.553,3.106,4.141,6.729,5.694,6.47c1.553-0.259,0.518-2.07-1.294-3.106c-1.812-1.035-2.329-5.176-3.106-7.764
			c-0.777-2.588-2.588-7.764-2.588-7.764s4.659-2.07,6.988-3.365c2.329-1.294,7.246-7.764,8.541-10.352
			c1.294-2.588-0.259-3.882-0.259-3.882s0,0,0.776-1.553c0.776-1.553-2.329-6.47-6.729-12.164c-2.572-3.328-4.872-6.029-6.344-7.706
			c-0.672-3.569-3.49-7.046-3.49-7.046s1.294-4.917,1.553-7.505c0.259-2.588-1.553-5.176-1.553-5.176s0.008-0.008,1.114-1.114
			c2.544,2.518,10.051,8.915,13.12,11.984c3.623,3.623,17.081,5.952,25.621,4.659c8.541-1.294,17.081-2.07,23.81-2.847
			c6.729-0.776,10.87-4.658,13.717-5.435C464.847,91.075,465.106,89.004,463.553,87.451z M396.671,74.319
			c-0.034,0.021-0.065,0.039-0.093,0.056C396.602,74.36,396.639,74.338,396.671,74.319z"/>
	</g>
	<g>
		<path style="fill:#333333;" d="M468.744,318.118c-1.06-1.968-4.39-10.446-4.39-10.446l-0.303-1.817c0,0-1.968-1.665-6.813-7.418
			c-4.845-5.753-9.841-8.629-9.841-8.629s0-1.817-0.151-2.574c-0.151-0.757-3.936-1.514-7.418-1.968
			c-2.38-0.31-8.576-1.964-12.262-2.98c-0.366-4.126-1.224-8.224-2.075-11.87c1.088-0.349,2.728-0.848,4.648-1.349
			c3.482-0.908,6.207-0.303,9.235-0.454c3.028-0.151,5.45-1.817,5.45-1.817s2.725,1.06,3.785,1.362
			c1.06,0.303,8.781,4.996,9.689,5.753c0.908,0.757,2.422-0.151,2.422-0.151c1.514,4.996,8.175,12.414,9.689,11.506
			c1.514-0.908-8.478-12.868-8.478-12.868s0-2.12-0.757-2.725c-0.757-0.606-4.845-4.088-6.661-4.239
			c-1.817-0.151-4.239-1.211-6.813-2.574c-2.574-1.363-6.207-1.211-9.084-1.211c-2.876,0-3.028,0.454-7.721,2.12
			c-3.148,1.117-5.609,1.212-6.892,1.153c-4.259-12.433-13.243-16.293-13.243-16.293s3.033-2.396,3.779-6.072
			c1.475-0.041,4.467-0.191,6.667-0.741c3.028-0.757,7.721-4.542,9.386-5.904c1.665-1.363,4.996-3.331,5.602-3.936
			c0.606-0.606,0.454-3.936,0.454-3.936s7.57-12.566,8.024-13.777c0.454-1.211-0.303-4.239-0.303-4.239l1.665-2.119
			c0,0,7.267-5.753,9.235-6.813c1.968-1.06,0.303-1.665-1.514-1.817c-1.817-0.151-5.147,3.331-8.024,5.904
			c-2.876,2.574-5.904,6.207-6.661,7.721c-0.757,1.514-5.904,16.351-5.904,16.351c-3.236,1.035-15.094,9.036-18.469,11.338
			c-0.002-0.046,0.002-0.089-0.001-0.135c-0.102-1.627-0.719-3.18-1.49-4.533c5.861-2.411,9.522-9.561,9.968-10.304
			c0.454-0.757,0.151-11.657,0.151-11.657s0.454-1.363,1.06-2.574c0.606-1.211,1.514-7.57,2.12-10.598
			c0.606-3.028-0.151-4.39-0.151-4.39s1.211-3.331,2.271-4.996c1.06-1.665,2.574-3.936,2.877-4.693
			c0.303-0.757,3.028-5.45,3.936-6.813c0.908-1.363-0.454-1.665-1.665-0.908c-1.211,0.757-3.936,5.602-5.753,7.872
			c-1.817,2.271-2.876,9.386-2.876,9.386c-2.574,0.757-3.179,3.331-3.482,5.299c-0.303,1.968-0.757,10.143-0.757,10.143
			s-0.454,0.303-1.514,2.422c-1.06,2.12,0.605,8.781,0.605,8.781c-2.656,1.139-6.579,8.931-7.798,11.465
			c-1.313-1.812-2.648-2.987-2.648-2.987c1.574-0.525,1.328-2.414,0.053-4.484c0.931-0.84,2.319-2.225,2.218-2.934
			c-0.151-1.06-0.303-1.968-0.303-1.968s1.06-1.817,0.303-3.482c-0.757-1.665-0.908-2.12-0.908-2.12s1.211-0.151,0.151-1.211
			c-1.06-1.06-2.12-1.06-2.422-0.454c-0.303,0.606-1.06,2.271-0.454,2.271c0.605,0,1.06,0,1.06,0s0.151,3.633,0.605,4.39
			c0.454,0.757,0.454,0.757,0.454,0.757s0.151,1.363-0.151,1.968c-0.17,0.34-0.906,0.96-1.525,1.443
			c-2.055-2.292-6.953-4.471-6.953-4.471s-1.404-1.211-2.817-1.615c-1.413-0.404-2.523,1.615-2.523,1.615s-4.898,2.18-6.953,4.471
			c-0.618-0.484-1.355-1.104-1.525-1.443c-0.303-0.606-0.151-1.968-0.151-1.968s0,0,0.454-0.757c0.454-0.757,0.606-4.39,0.606-4.39
			s0.454,0,1.06,0c0.606,0-0.151-1.665-0.454-2.271c-0.303-0.606-1.362-0.606-2.422,0.454c-1.06,1.06,0.151,1.211,0.151,1.211
			s-0.151,0.454-0.908,2.12c-0.757,1.665,0.303,3.482,0.303,3.482s-0.151,0.908-0.303,1.968c-0.101,0.709,1.287,2.094,2.218,2.934
			c-1.275,2.071-1.521,3.959,0.053,4.484c0,0-1.336,1.175-2.648,2.987c-1.219-2.534-5.142-10.327-7.798-11.465
			c0,0,1.665-6.661,0.606-8.781c-1.06-2.119-1.514-2.422-1.514-2.422s-0.454-8.175-0.757-10.143
			c-0.303-1.968-0.908-4.542-3.482-5.299c0,0-1.06-7.115-2.876-9.386c-1.817-2.271-4.542-7.116-5.753-7.872
			c-1.211-0.757-2.574-0.454-1.665,0.908c0.908,1.363,3.633,6.056,3.936,6.813c0.303,0.757,1.817,3.028,2.877,4.693
			c1.06,1.665,2.271,4.996,2.271,4.996s-0.757,1.363-0.151,4.39c0.606,3.028,1.514,9.386,2.12,10.598
			c0.606,1.211,1.06,2.574,1.06,2.574s-0.303,10.9,0.151,11.657c0.446,0.743,4.106,7.892,9.968,10.304
			c-0.77,1.353-1.388,2.906-1.49,4.533c-0.003,0.046,0.001,0.089-0.001,0.135c-3.376-2.302-15.234-10.302-18.469-11.338
			c0,0-5.147-14.837-5.905-16.351c-0.757-1.514-3.785-5.147-6.661-7.721c-2.876-2.574-6.207-6.056-8.024-5.904
			c-1.817,0.151-3.482,0.757-1.514,1.817c1.968,1.06,9.235,6.813,9.235,6.813l1.665,2.119c0,0-0.757,3.028-0.303,4.239
			c0.454,1.211,8.024,13.777,8.024,13.777s-0.151,3.331,0.454,3.936c0.605,0.606,3.936,2.574,5.602,3.936
			c1.665,1.363,6.359,5.147,9.387,5.904c2.2,0.55,5.192,0.7,6.667,0.741c0.746,3.676,3.779,6.072,3.779,6.072
			s-8.984,3.859-13.243,16.293c-1.283,0.058-3.744-0.036-6.893-1.153c-4.693-1.665-4.845-2.12-7.721-2.12
			c-2.877,0-6.51-0.151-9.084,1.211c-2.574,1.362-4.996,2.422-6.813,2.574c-1.817,0.152-5.904,3.634-6.661,4.239
			c-0.757,0.605-0.757,2.725-0.757,2.725s-9.992,11.96-8.478,12.868c1.514,0.908,8.175-6.51,9.689-11.506
			c0,0,1.514,0.908,2.422,0.151c0.908-0.757,8.629-5.45,9.689-5.753c1.06-0.303,3.785-1.362,3.785-1.362s2.422,1.665,5.45,1.817
			c3.028,0.151,5.753-0.454,9.235,0.454c1.919,0.501,3.559,1,4.648,1.349c-0.851,3.647-1.709,7.744-2.075,11.87
			c-3.686,1.016-9.882,2.669-12.262,2.98c-3.482,0.454-7.267,1.211-7.418,1.968s-0.151,2.574-0.151,2.574s-4.996,2.876-9.841,8.629
			c-4.845,5.753-6.813,7.418-6.813,7.418l-0.303,1.817c0,0-3.331,8.478-4.39,10.446c-1.06,1.968-3.331,8.478-1.665,8.63
			c1.665,0.151,2.12-3.179,3.028-4.996c0.908-1.817,4.391-11.96,4.391-11.96l1.363-1.06c0,0,1.363,1.514,1.968,0.303
			c0.606-1.211,0.606-2.876,0.606-2.876s7.723-13.134,12.717-14.382c0.606-0.151,2.725-0.757,4.845-0.908
			c1.518-0.108,9.404-2.391,13.757-3.678c0.297,11.393,6.001,21.694,28.05,21.694h1.359c22.049,0,27.753-10.301,28.05-21.694
			c4.354,1.287,12.239,3.57,13.757,3.678c2.12,0.151,4.239,0.757,4.845,0.908c4.994,1.248,12.717,14.382,12.717,14.382
			s0,1.665,0.606,2.876c0.606,1.211,1.968-0.303,1.968-0.303l1.363,1.06c0,0,3.482,10.143,4.39,11.96
			c0.908,1.817,1.362,5.147,3.028,4.996C472.075,326.596,469.804,320.086,468.744,318.118z"/>
	</g>
</g>
<g id="DESIGNED_BY_FREEPIK">
	<g>
		<g id="XMLID_319_">
			<g id="XMLID_338_">
				<path id="XMLID_346_" style="fill:#222221;" d="M260.104,465.465c-0.433,0.443-0.804,0.932-1.108,1.453l-0.465-0.241
					c-0.067-0.297-0.35-0.502-0.659-0.466c-0.331,0.039-0.567,0.339-0.529,0.67c0.039,0.331,0.339,0.567,0.67,0.528
					c0.065-0.007,0.127-0.025,0.184-0.052l0.451,0.234c-0.251,0.554-0.433,1.139-0.539,1.743l0.747,0.132
					c0.229-1.306,0.85-2.507,1.792-3.473L260.104,465.465z"/>
				<path id="XMLID_345_" style="fill:#222221;" d="M265.592,463.163c-0.171,0-0.341,0.006-0.509,0.017l-0.074-0.626
					c0.188-0.149,0.296-0.389,0.266-0.645c-0.046-0.393-0.402-0.674-0.795-0.628c-0.393,0.046-0.675,0.402-0.628,0.796
					c0.03,0.254,0.19,0.461,0.404,0.563l0.073,0.624c-0.714,0.116-1.402,0.332-2.06,0.645l0.327,0.685
					c0.935-0.447,1.941-0.674,2.995-0.674c0.497,0,0.993,0.053,1.476,0.158l0.16-0.741
					C266.692,463.222,266.143,463.163,265.592,463.163z"/>
				<path id="XMLID_344_" style="fill:#222221;" d="M272.194,465.71c0.331-0.04,0.566-0.341,0.525-0.672
					c-0.04-0.331-0.341-0.566-0.672-0.525c-0.31,0.038-0.535,0.304-0.53,0.608l-0.416,0.363c-0.418-0.43-0.89-0.813-1.407-1.14
					l-0.404,0.642c1.135,0.715,2.021,1.727,2.564,2.925l0.69-0.313c-0.251-0.554-0.567-1.071-0.942-1.545l0.402-0.351
					C272.065,465.715,272.129,465.719,272.194,465.71z"/>
				<path id="XMLID_343_" style="fill:#222221;" d="M265.045,473.371c-0.386,0.023-0.775,0.035-1.157,0.035
					c-0.88,0-1.733-0.061-2.479-0.18c-0.391-0.061-0.846-0.154-1.27-0.292c1.047,1.861,3.069,3.125,5.389,3.125
					c2.855,0,5.263-1.916,5.949-4.503c-0.682,0.449-1.505,0.825-2.458,1.122C267.839,473.047,266.464,473.286,265.045,473.371z"/>
				<path id="XMLID_339_" style="fill:#222221;" d="M265.592,464.68c-3.352,0-6.079,2.666-6.079,5.943
					c0,0.425,0.046,0.849,0.137,1.261c0.674,0.483,2.706,0.891,5.348,0.731c2.88-0.174,5.297-0.958,6.672-2.159
					c-0.005-0.194-0.021-0.39-0.045-0.581C271.244,466.913,268.65,464.68,265.592,464.68z M263.433,471.194
					c-1.02,0-1.85-0.83-1.85-1.85c0-1.021,0.83-1.85,1.85-1.85c1.02,0,1.85,0.83,1.85,1.85
					C265.282,470.364,264.452,471.194,263.433,471.194z M268.17,470.286c-0.75,0-1.36-0.61-1.36-1.36s0.61-1.36,1.36-1.36
					s1.36,0.61,1.36,1.36S268.92,470.286,268.17,470.286z"/>
			</g>
			<path id="XMLID_336_" style="fill:#222221;" d="M281.596,466.547c-0.295-0.116-0.806-0.31-1.383-0.238
				c-0.551,0.069-0.844,0.341-0.844,1.007v0.866h2.228v1.717h-2.228v5.455h-1.932v-5.455h-1.339v-1.717h1.339v-0.889
				c0-1.68,0.896-2.782,2.568-2.782c0.643,0,1.157,0.121,1.59,0.308V466.547z"/>
			<path id="XMLID_334_" style="fill:#222221;" d="M286.298,469.878c-0.177-0.029-0.357-0.046-0.525-0.046
				c-0.895,0-1.51,0.548-1.51,1.613v3.908h-1.933v-7.172h1.873v0.784c0.451-0.673,1.14-0.977,2.021-0.977
				c0.414,0,0.848,0.128,1.095,0.337L286.298,469.878z"/>
			<path id="XMLID_331_" style="fill:#222221;" d="M293.966,471.757c0,0.222-0.016,0.488-0.037,0.651h-5.085
				c0.207,1.036,0.933,1.487,1.843,1.487c0.622,0,1.295-0.252,1.813-0.689l1.133,1.243c-0.815,0.748-1.851,1.089-3.057,1.089
				c-2.198,0-3.724-1.496-3.724-3.753c0-2.258,1.48-3.797,3.627-3.797C292.544,467.989,293.958,469.522,293.966,471.757z
				 M288.852,471.091h3.175c-0.178-0.918-0.732-1.436-1.561-1.436C289.555,469.654,289.021,470.202,288.852,471.091z"/>
			<path id="XMLID_328_" style="fill:#222221;" d="M301.619,471.757c0,0.222-0.016,0.488-0.037,0.651h-5.085
				c0.207,1.036,0.933,1.487,1.843,1.487c0.622,0,1.296-0.252,1.813-0.689l1.133,1.243c-0.815,0.748-1.851,1.089-3.058,1.089
				c-2.198,0-3.723-1.496-3.723-3.753c0-2.258,1.48-3.797,3.627-3.797C300.197,467.989,301.611,469.522,301.619,471.757z
				 M296.505,471.091h3.175c-0.178-0.918-0.733-1.436-1.561-1.436C297.208,469.654,296.675,470.202,296.505,471.091z"/>
			<path id="XMLID_325_" style="fill:#222221;" d="M309.965,471.764c0,2.154-1.495,3.775-3.472,3.775
				c-0.962,0-1.643-0.378-2.109-0.933v3.708h-1.925v-10.133h1.888v0.792c0.467-0.585,1.154-0.984,2.139-0.984
				C308.47,467.989,309.965,469.61,309.965,471.764z M304.287,471.764c0,1.133,0.748,1.977,1.844,1.977
				c1.14,0,1.85-0.881,1.85-1.977c0-1.095-0.71-1.976-1.85-1.976C305.035,469.788,304.287,470.632,304.287,471.764z"/>
			<path id="XMLID_322_" style="fill:#222221;" d="M313.068,465.835c0,0.696-0.541,1.23-1.236,1.23c-0.696,0-1.228-0.533-1.228-1.23
				c0-0.695,0.532-1.243,1.228-1.243C312.527,464.592,313.068,465.14,313.068,465.835z M312.809,475.353h-1.932v-7.172h1.932
				V475.353z"/>
			<path id="XMLID_320_" style="fill:#222221;" d="M316.032,470.735l2.702-2.554h2.368l-3.479,3.375l3.501,3.797h-2.376
				l-2.717-2.901v2.901h-1.932v-10.658h1.932V470.735z"/>
		</g>
		<g>
			<path style="fill:#222221;" d="M184.413,475.289v-1.055c-0.527,0.718-1.391,1.23-2.387,1.23c-1.846,0-3.149-1.406-3.149-3.706
				c0-2.256,1.289-3.721,3.149-3.721c0.952,0,1.816,0.469,2.387,1.245v-3.765h1.099v9.771H184.413z M184.413,473.37v-3.208
				c-0.395-0.615-1.245-1.143-2.124-1.143c-1.42,0-2.27,1.172-2.27,2.739c0,1.567,0.85,2.725,2.27,2.725
				C183.168,474.483,184.018,473.985,184.413,473.37z"/>
			<path style="fill:#222221;" d="M186.932,471.744c0-2.051,1.465-3.706,3.486-3.706c2.139,0,3.398,1.67,3.398,3.794v0.278h-5.727
				c0.088,1.333,1.025,2.446,2.549,2.446c0.806,0,1.626-0.322,2.182-0.894l0.527,0.718c-0.703,0.703-1.655,1.084-2.812,1.084
				C188.441,475.465,186.932,473.956,186.932,471.744z M190.404,468.946c-1.509,0-2.256,1.274-2.314,2.358h4.644
				C192.718,470.25,192.015,468.946,190.404,468.946z"/>
			<path style="fill:#222221;" d="M194.607,474.352l0.571-0.791c0.469,0.542,1.362,1.011,2.329,1.011c1.084,0,1.67-0.513,1.67-1.216
				c0-1.714-4.38-0.659-4.38-3.281c0-1.099,0.952-2.036,2.636-2.036c1.202,0,2.051,0.454,2.623,1.025l-0.513,0.762
				c-0.424-0.513-1.201-0.893-2.109-0.893c-0.966,0-1.567,0.483-1.567,1.113c0,1.553,4.379,0.527,4.379,3.281
				c0,1.186-0.952,2.139-2.783,2.139C196.307,475.465,195.325,475.113,194.607,474.352z"/>
			<path style="fill:#222221;" d="M201.478,466.471c0-0.41,0.337-0.747,0.732-0.747c0.41,0,0.747,0.337,0.747,0.747
				c0,0.41-0.337,0.732-0.747,0.732C201.814,467.203,201.478,466.881,201.478,466.471z M201.667,475.289v-7.075h1.099v7.075H201.667
				z"/>
			<path style="fill:#222221;" d="M204.583,477.105l0.556-0.82c0.586,0.703,1.289,0.967,2.3,0.967c1.172,0,2.271-0.571,2.271-2.124
				v-1.011c-0.513,0.718-1.377,1.26-2.373,1.26c-1.846,0-3.149-1.377-3.149-3.662c0-2.271,1.289-3.677,3.149-3.677
				c0.952,0,1.802,0.469,2.373,1.245v-1.069h1.099v6.87c0,2.344-1.641,3.076-3.369,3.076
				C206.237,478.16,205.417,477.925,204.583,477.105z M209.709,473.253v-3.091c-0.381-0.615-1.23-1.143-2.109-1.143
				c-1.421,0-2.27,1.128-2.27,2.695c0,1.553,0.849,2.695,2.27,2.695C208.479,474.41,209.328,473.868,209.709,473.253z"/>
			<path style="fill:#222221;" d="M217.414,475.289v-4.629c0-1.245-0.63-1.641-1.582-1.641c-0.864,0-1.685,0.527-2.094,1.099v5.171
				h-1.099v-7.075h1.099v1.025c0.497-0.586,1.464-1.201,2.519-1.201c1.48,0,2.256,0.747,2.256,2.285v4.966H217.414z"/>
			<path style="fill:#222221;" d="M219.933,471.744c0-2.051,1.465-3.706,3.486-3.706c2.139,0,3.398,1.67,3.398,3.794v0.278h-5.727
				c0.088,1.333,1.025,2.446,2.548,2.446c0.806,0,1.626-0.322,2.183-0.894l0.527,0.718c-0.703,0.703-1.655,1.084-2.813,1.084
				C221.442,475.465,219.933,473.956,219.933,471.744z M223.404,468.946c-1.509,0-2.256,1.274-2.314,2.358h4.643
				C225.719,470.25,225.016,468.946,223.404,468.946z"/>
			<path style="fill:#222221;" d="M233.351,475.289v-1.055c-0.527,0.718-1.392,1.23-2.388,1.23c-1.845,0-3.149-1.406-3.149-3.706
				c0-2.256,1.289-3.721,3.149-3.721c0.952,0,1.817,0.469,2.388,1.245v-3.765h1.098v9.771H233.351z M233.351,473.37v-3.208
				c-0.396-0.615-1.245-1.143-2.124-1.143c-1.421,0-2.27,1.172-2.27,2.739c0,1.567,0.85,2.725,2.27,2.725
				C232.105,474.483,232.955,473.985,233.351,473.37z"/>
			<path style="fill:#222221;" d="M239.692,475.289v-9.771h1.099v3.765c0.571-0.776,1.421-1.245,2.388-1.245
				c1.845,0,3.149,1.465,3.149,3.721c0,2.3-1.304,3.706-3.149,3.706c-0.996,0-1.86-0.513-2.388-1.23v1.055H239.692z M242.9,474.483
				c1.436,0,2.285-1.157,2.285-2.725c0-1.567-0.85-2.739-2.285-2.739c-0.864,0-1.729,0.527-2.109,1.143v3.208
				C241.172,473.985,242.036,474.483,242.9,474.483z"/>
			<path style="fill:#222221;" d="M247.529,477.061c0.161,0.073,0.425,0.117,0.6,0.117c0.483,0,0.806-0.161,1.055-0.747l0.469-1.069
				l-2.959-7.148h1.186l2.358,5.801l2.344-5.801h1.2l-3.544,8.511c-0.425,1.024-1.143,1.421-2.08,1.436
				c-0.234,0-0.6-0.044-0.806-0.103L247.529,477.061z"/>
		</g>
	</g>
</g>
</svg>
