<?xml version="1.0" encoding="utf-8"?>
<!-- Generator: Adobe Illustrator 27.5.0, SVG Export Plug-In . SVG Version: 6.00 Build 0)  -->
<svg version="1.1" id="Capa_1" xmlns="http://www.w3.org/2000/svg" xmlns:xlink="http://www.w3.org/1999/xlink" x="0px" y="0px"
	 viewBox="0 0 381.7 425.197" style="enable-background:new 0 0 381.7 425.197;" xml:space="preserve">
<rect y="0.001" style="fill:#ECECD8;" width="381.7" height="425.197"/>
<polygon style="fill:#A52C2C;" points="119.177,384.872 78.128,384.872 88.771,365.522 78.128,346.17 119.177,346.17 "/>
<polygon style="fill:#812123;" points="119.177,384.872 97.782,377.838 97.782,339.133 119.177,346.166 "/>
<g>
	<g>
		<g>
			<g>
				<linearGradient id="SVGID_1_" gradientUnits="userSpaceOnUse" x1="78.8683" y1="171.3382" x2="90.5964" y2="171.3382">
					<stop  offset="0" style="stop-color:#3C2415"/>
					<stop  offset="1" style="stop-color:#291200"/>
				</linearGradient>
				<path style="fill:url(#SVGID_1_);" d="M90.455,172.134c-1.023,7.373-7.577,12.56-7.577,12.56s-4.892-6.773-3.869-14.15
					c1.025-7.376,7.579-12.56,7.579-12.56S91.48,164.758,90.455,172.134z"/>
				
					<linearGradient id="SVGID_00000121972386373332579170000005607131192405553337_" gradientUnits="userSpaceOnUse" x1="81.8942" y1="190.6311" x2="100.1919" y2="190.6311">
					<stop  offset="0" style="stop-color:#3C2415"/>
					<stop  offset="1" style="stop-color:#291200"/>
				</linearGradient>
				<path style="fill:url(#SVGID_00000121972386373332579170000005607131192405553337_);" d="M95.287,194.553
					c-5.053,5.469-13.393,5.984-13.393,5.984s-0.146-8.356,4.903-13.828c5.053-5.468,13.394-5.983,13.394-5.983
					S100.341,189.081,95.287,194.553z"/>
				
					<linearGradient id="SVGID_00000126292769475913833260000010715366101877096072_" gradientUnits="userSpaceOnUse" x1="65.2343" y1="189.994" x2="81.7622" y2="189.994">
					<stop  offset="0" style="stop-color:#3C2415"/>
					<stop  offset="1" style="stop-color:#291200"/>
				</linearGradient>
				<path style="fill:url(#SVGID_00000126292769475913833260000010715366101877096072_);" d="M68.907,193.502
					c4.52,5.917,12.776,7.208,12.776,7.208s0.928-8.305-3.593-14.223c-4.521-5.918-12.778-7.208-12.778-7.208
					S64.387,187.583,68.907,193.502z"/>
				
					<linearGradient id="SVGID_00000049191873640840883980000013464080543769851540_" gradientUnits="userSpaceOnUse" x1="84.0658" y1="205.9331" x2="100.9403" y2="205.9331">
					<stop  offset="0" style="stop-color:#3C2415"/>
					<stop  offset="1" style="stop-color:#291200"/>
				</linearGradient>
				<path style="fill:url(#SVGID_00000049191873640840883980000013464080543769851540_);" d="M97.027,209.53
					c-4.635,5.828-12.914,6.957-12.914,6.957s-0.768-8.32,3.867-14.148c4.633-5.831,12.912-6.96,12.912-6.96
					S101.661,203.701,97.027,209.53z"/>
				
					<linearGradient id="SVGID_00000171706920976673432740000015853535761771731617_" gradientUnits="userSpaceOnUse" x1="66.0011" y1="206.5965" x2="83.919" y2="206.5965">
					<stop  offset="0" style="stop-color:#3C2415"/>
					<stop  offset="1" style="stop-color:#291200"/>
				</linearGradient>
				<path style="fill:url(#SVGID_00000171706920976673432740000015853535761771731617_);" d="M70.639,210.433
					c4.947,5.568,13.276,6.244,13.276,6.244s0.311-8.351-4.634-13.919c-4.946-5.568-13.276-6.242-13.276-6.242
					S65.695,204.865,70.639,210.433z"/>
				
					<linearGradient id="SVGID_00000141450539853706238700000003804451460643299478_" gradientUnits="userSpaceOnUse" x1="88.1147" y1="220.8755" x2="103.1049" y2="220.8755">
					<stop  offset="0" style="stop-color:#3C2415"/>
					<stop  offset="1" style="stop-color:#291200"/>
				</linearGradient>
				<path style="fill:url(#SVGID_00000141450539853706238700000003804451460643299478_);" d="M100.515,223.929
					c-3.932,6.321-12.027,8.394-12.027,8.394s-1.716-8.176,2.217-14.496c3.932-6.328,12.028-8.399,12.028-8.399
					S104.448,217.605,100.515,223.929z"/>
				
					<linearGradient id="SVGID_00000071527299389110521220000014077544471392910766_" gradientUnits="userSpaceOnUse" x1="68.2051" y1="223.5501" x2="88.3115" y2="223.5501">
					<stop  offset="0" style="stop-color:#3C2415"/>
					<stop  offset="1" style="stop-color:#291200"/>
				</linearGradient>
				<path style="fill:url(#SVGID_00000071527299389110521220000014077544471392910766_);" d="M74.408,227.86
					c5.551,4.961,13.903,4.674,13.903,4.674s-0.65-8.331-6.203-13.295c-5.553-4.961-13.903-4.673-13.903-4.673
					S68.855,222.898,74.408,227.86z"/>
				
					<linearGradient id="SVGID_00000163034561171606525740000006966247748702223524_" gradientUnits="userSpaceOnUse" x1="96.3268" y1="236.543" x2="108.9249" y2="236.543">
					<stop  offset="0" style="stop-color:#3C2415"/>
					<stop  offset="1" style="stop-color:#291200"/>
				</linearGradient>
				<path style="fill:url(#SVGID_00000163034561171606525740000006966247748702223524_);" d="M108.102,238.393
					c-2.387,7.053-9.794,10.925-9.794,10.925s-3.54-7.57-1.155-14.623c2.383-7.057,9.79-10.927,9.79-10.927
					S110.482,231.338,108.102,238.393z"/>
				
					<linearGradient id="SVGID_00000028305227481195929580000011780330369664894375_" gradientUnits="userSpaceOnUse" x1="74.5039" y1="243.1121" x2="98.1856" y2="243.1121">
					<stop  offset="0" style="stop-color:#3C2415"/>
					<stop  offset="1" style="stop-color:#291200"/>
				</linearGradient>
				<path style="fill:url(#SVGID_00000028305227481195929580000011780330369664894375_);" d="M83.582,248.188
					c6.541,3.562,14.604,1.372,14.604,1.372s-2.538-7.959-9.076-11.521c-6.541-3.564-14.605-1.375-14.605-1.375
					S77.042,244.626,83.582,248.188z"/>
				
					<linearGradient id="SVGID_00000147200563094220274610000004962393581183354245_" gradientUnits="userSpaceOnUse" x1="106.8991" y1="249.2942" x2="118.6424" y2="249.2942">
					<stop  offset="0" style="stop-color:#3C2415"/>
					<stop  offset="1" style="stop-color:#291200"/>
				</linearGradient>
				<path style="fill:url(#SVGID_00000147200563094220274610000004962393581183354245_);" d="M118.489,250.123
					c-1.066,7.369-7.652,12.516-7.652,12.516s-4.853-6.804-3.784-14.173c1.065-7.371,7.65-12.516,7.65-12.516
					S119.556,242.755,118.489,250.123z"/>
				
					<linearGradient id="SVGID_00000121272522218803699590000018073787339337749381_" gradientUnits="userSpaceOnUse" x1="85.1358" y1="258.7035" x2="110.7598" y2="258.7035">
					<stop  offset="0" style="stop-color:#3C2415"/>
					<stop  offset="1" style="stop-color:#291200"/>
				</linearGradient>
				<path style="fill:url(#SVGID_00000121272522218803699590000018073787339337749381_);" d="M96.148,264.194
					c7.078,2.32,14.611-1.292,14.611-1.292s-3.935-7.37-11.013-9.689c-7.076-2.319-14.611,1.292-14.611,1.292
					S89.074,261.876,96.148,264.194z"/>
				<g>
					
						<linearGradient id="SVGID_00000005250804010727822640000003332641469023199918_" gradientUnits="userSpaceOnUse" x1="81.1174" y1="224.8425" x2="119.6012" y2="224.8425">
						<stop  offset="0" style="stop-color:#3C2415"/>
						<stop  offset="1" style="stop-color:#291200"/>
					</linearGradient>
					<path style="fill:url(#SVGID_00000005250804010727822640000003332641469023199918_);" d="M118.57,268.805
						c-0.084-0.009-0.164-0.031-0.244-0.069c-6.857-3.048-17.872-12.088-26.343-27.527c-6.722-12.254-13.84-32.538-9.577-59.574
						c0.076-0.495,0.517-0.822,1.037-0.754c0.493,0.08,0.832,0.544,0.753,1.039c-7.252,46.004,19.13,78.165,34.866,85.16
						c0.457,0.205,0.665,0.74,0.459,1.198C119.354,268.654,118.961,268.858,118.57,268.805z"/>
				</g>
			</g>
			<g>
				
					<linearGradient id="SVGID_00000026884830031755235280000005755127498159724690_" gradientUnits="userSpaceOnUse" x1="228.6387" y1="274.2304" x2="256.8106" y2="274.2304">
					<stop  offset="0" style="stop-color:#3C2415"/>
					<stop  offset="1" style="stop-color:#291200"/>
				</linearGradient>
				<path style="fill:url(#SVGID_00000026884830031755235280000005755127498159724690_);" d="M239.794,268.193
					c-7.776,3.775-11.155,12.874-11.155,12.874s9.235,2.975,17.016-0.799c7.78-3.777,11.156-12.874,11.156-12.874
					S247.573,264.418,239.794,268.193z"/>
				
					<linearGradient id="SVGID_00000121273372117979134440000001505417533420179616_" gradientUnits="userSpaceOnUse" x1="210.8014" y1="274.1771" x2="227.5046" y2="274.1771">
					<stop  offset="0" style="stop-color:#3C2415"/>
					<stop  offset="1" style="stop-color:#291200"/>
				</linearGradient>
				<path style="fill:url(#SVGID_00000121273372117979134440000001505417533420179616_);" d="M213.299,270.895
					c-4.229,7.541-1.808,16.937-1.808,16.937s9.284-2.832,13.515-10.371c4.23-7.541,1.809-16.939,1.809-16.939
					S217.532,263.352,213.299,270.895z"/>
				
					<linearGradient id="SVGID_00000019643170845146903060000015712510683347308728_" gradientUnits="userSpaceOnUse" x1="211.375" y1="293.3265" x2="240.9151" y2="293.3265">
					<stop  offset="0" style="stop-color:#3C2415"/>
					<stop  offset="1" style="stop-color:#291200"/>
				</linearGradient>
				<path style="fill:url(#SVGID_00000019643170845146903060000015712510683347308728_);" d="M223.916,299.655
					c-8.154-2.872-12.541-11.528-12.541-11.528s8.842-4.001,16.999-1.13c8.156,2.872,12.541,11.53,12.541,11.53
					S232.076,302.527,223.916,299.655z"/>
				
					<linearGradient id="SVGID_00000148660909396847453570000005573273112033051776_" gradientUnits="userSpaceOnUse" x1="192.7758" y1="278.0493" x2="210.6785" y2="278.0493">
					<stop  offset="0" style="stop-color:#3C2415"/>
					<stop  offset="1" style="stop-color:#291200"/>
				</linearGradient>
				<path style="fill:url(#SVGID_00000148660909396847453570000005573273112033051776_);" d="M196.134,274.343
					c-4.776,7.206-3.057,16.756-3.057,16.756s9.465-2.136,14.241-9.344c4.779-7.207,3.059-16.756,3.059-16.756
					S200.911,267.133,196.134,274.343z"/>
				
					<linearGradient id="SVGID_00000078043269610610460630000010679877177132144784_" gradientUnits="userSpaceOnUse" x1="192.9385" y1="297.6633" x2="221.628" y2="297.6633">
					<stop  offset="0" style="stop-color:#3C2415"/>
					<stop  offset="1" style="stop-color:#291200"/>
				</linearGradient>
				<path style="fill:url(#SVGID_00000078043269610610460630000010679877177132144784_);" d="M204.594,303.813
					c-7.923-3.468-11.655-12.427-11.655-12.427s9.112-3.337,17.035,0.129c7.924,3.467,11.654,12.428,11.654,12.428
					S212.517,307.276,204.594,303.813z"/>
				
					<linearGradient id="SVGID_00000138575450541938002500000007262878122804647570_" gradientUnits="userSpaceOnUse" x1="173.9968" y1="279.9742" x2="194.2201" y2="279.9742">
					<stop  offset="0" style="stop-color:#3C2415"/>
					<stop  offset="1" style="stop-color:#291200"/>
				</linearGradient>
				<path style="fill:url(#SVGID_00000138575450541938002500000007262878122804647570_);" d="M178.979,275.65
					c-5.573,6.61-4.962,16.294-4.962,16.294s9.647-1.035,15.22-7.645c5.577-6.611,4.964-16.296,4.964-16.296
					S184.553,269.04,178.979,275.65z"/>
				
					<linearGradient id="SVGID_00000114774567611366236260000012011345479497071497_" gradientUnits="userSpaceOnUse" x1="173.8477" y1="300.0983" x2="200.9024" y2="300.0983">
					<stop  offset="0" style="stop-color:#3C2415"/>
					<stop  offset="1" style="stop-color:#291200"/>
				</linearGradient>
				<path style="fill:url(#SVGID_00000114774567611366236260000012011345479497071497_);" d="M183.995,305.896
					c-7.469-4.354-10.147-13.682-10.147-13.682s9.433-2.268,16.908,2.088c7.471,4.352,10.146,13.68,10.146,13.68
					S191.467,310.25,183.995,305.896z"/>
				
					<linearGradient id="SVGID_00000173124019036077291350000005585153195929033397_" gradientUnits="userSpaceOnUse" x1="151.7256" y1="277.8415" x2="176.8506" y2="277.8415">
					<stop  offset="0" style="stop-color:#3C2415"/>
					<stop  offset="1" style="stop-color:#291200"/>
				</linearGradient>
				<path style="fill:url(#SVGID_00000173124019036077291350000005585153195929033397_);" d="M160.283,272.457
					c-6.936,5.164-8.558,14.732-8.558,14.732s9.632,1.198,16.567-3.964c6.94-5.161,8.558-14.73,8.558-14.73
					S167.222,267.296,160.283,272.457z"/>
				
					<linearGradient id="SVGID_00000083767990702978030180000006522395427956552100_" gradientUnits="userSpaceOnUse" x1="151.503" y1="298.1812" x2="174.2364" y2="298.1812">
					<stop  offset="0" style="stop-color:#3C2415"/>
					<stop  offset="1" style="stop-color:#291200"/>
				</linearGradient>
				<path style="fill:url(#SVGID_00000083767990702978030180000006522395427956552100_);" d="M158.253,303.051
					c-6.278-5.948-6.75-15.637-6.75-15.637s9.701-0.053,15.979,5.893c6.28,5.949,6.754,15.642,6.754,15.642
					S164.531,308.995,158.253,303.051z"/>
				
					<linearGradient id="SVGID_00000053515994450023568200000014493504220696800673_" gradientUnits="userSpaceOnUse" x1="132.5205" y1="271.2076" x2="160.6143" y2="271.2076">
					<stop  offset="0" style="stop-color:#3C2415"/>
					<stop  offset="1" style="stop-color:#291200"/>
				</linearGradient>
				<path style="fill:url(#SVGID_00000053515994450023568200000014493504220696800673_);" d="M143.601,265.188
					c-7.758,3.818-11.08,12.94-11.08,12.94s9.255,2.919,17.012-0.903c7.758-3.818,11.082-12.936,11.082-12.936
					S151.36,261.368,143.601,265.188z"/>
				
					<linearGradient id="SVGID_00000163070914331240221750000013696685658547929533_" gradientUnits="userSpaceOnUse" x1="132.1127" y1="290.9504" x2="150.8639" y2="290.9504">
					<stop  offset="0" style="stop-color:#3C2415"/>
					<stop  offset="1" style="stop-color:#291200"/>
				</linearGradient>
				<path style="fill:url(#SVGID_00000163070914331240221750000013696685658547929533_);" d="M136.068,294.908
					c-5.099-6.985-3.811-16.604-3.811-16.604s9.553,1.707,14.65,8.693c5.099,6.984,3.811,16.6,3.811,16.6
					S141.165,301.893,136.068,294.908z"/>
				<g>
					
						<linearGradient id="SVGID_00000083067588490947620880000007950356185524038037_" gradientUnits="userSpaceOnUse" x1="122.8322" y1="281.6528" x2="232.7599" y2="281.6528">
						<stop  offset="0" style="stop-color:#3C2415"/>
						<stop  offset="1" style="stop-color:#291200"/>
					</linearGradient>
					<path style="fill:url(#SVGID_00000083067588490947620880000007950356185524038037_);" d="M122.938,271.794
						c0.041,0.09,0.095,0.171,0.164,0.246c5.826,6.481,19.757,15.407,39.849,19.226c15.944,3.035,40.9,3.625,69.233-10.776
						c0.523-0.261,0.724-0.864,0.462-1.416c-0.262-0.515-0.898-0.724-1.415-0.459c-48.214,24.501-93.194,6.893-106.563-7.982
						c-0.389-0.431-1.056-0.468-1.488-0.078C122.823,270.875,122.738,271.382,122.938,271.794z"/>
				</g>
			</g>
			<g>
				
					<linearGradient id="SVGID_00000147931376733316769190000010263412519164980114_" gradientUnits="userSpaceOnUse" x1="291.478" y1="172.2019" x2="303.1298" y2="172.2019">
					<stop  offset="0" style="stop-color:#3C2415"/>
					<stop  offset="1" style="stop-color:#291200"/>
				</linearGradient>
				<path style="fill:url(#SVGID_00000147931376733316769190000010263412519164980114_);" d="M291.557,172.8
					c0.767,7.404,7.14,12.813,7.14,12.813s5.121-6.6,4.355-14.007c-0.77-7.406-7.14-12.815-7.14-12.815
					S290.787,165.394,291.557,172.8z"/>
				
					<linearGradient id="SVGID_00000058577855659887729460000007376421247168208316_" gradientUnits="userSpaceOnUse" x1="281.5201" y1="191.2666" x2="299.141" y2="191.2666">
					<stop  offset="0" style="stop-color:#3C2415"/>
					<stop  offset="1" style="stop-color:#291200"/>
				</linearGradient>
				<path style="fill:url(#SVGID_00000058577855659887729460000007376421247168208316_);" d="M285.952,195.04
					c4.86,5.64,13.179,6.443,13.179,6.443s0.437-8.347-4.423-13.989c-4.859-5.641-13.178-6.444-13.178-6.444
					S281.092,189.395,285.952,195.04z"/>
				
					<linearGradient id="SVGID_00000048474369803151644900000013784873343629190535_" gradientUnits="userSpaceOnUse" x1="299.3069" y1="191.2361" x2="316.4656" y2="191.2361">
					<stop  offset="0" style="stop-color:#3C2415"/>
					<stop  offset="1" style="stop-color:#291200"/>
				</linearGradient>
				<path style="fill:url(#SVGID_00000048474369803151644900000013784873343629190535_);" d="M312.353,194.902
					c-4.722,5.755-13.017,6.76-13.017,6.76s-0.64-8.332,4.082-14.091c4.723-5.757,13.018-6.761,13.018-6.761
					S317.076,189.142,312.353,194.902z"/>
				
					<linearGradient id="SVGID_00000023983166972198478580000000657366307493630128_" gradientUnits="userSpaceOnUse" x1="280.2121" y1="206.5083" x2="296.4718" y2="206.5083">
					<stop  offset="0" style="stop-color:#3C2415"/>
					<stop  offset="1" style="stop-color:#291200"/>
				</linearGradient>
				<path style="fill:url(#SVGID_00000023983166972198478580000000657366307493630128_);" d="M283.695,209.947
					c4.43,5.984,12.667,7.4,12.667,7.4s1.054-8.289-3.377-14.274c-4.429-5.986-12.663-7.403-12.663-7.403
					S279.266,203.959,283.695,209.947z"/>
				
					<linearGradient id="SVGID_00000127013907560953416530000014994323721594802107_" gradientUnits="userSpaceOnUse" x1="296.5547" y1="207.7778" x2="315.1485" y2="207.7778">
					<stop  offset="0" style="stop-color:#3C2415"/>
					<stop  offset="1" style="stop-color:#291200"/>
				</linearGradient>
				<path style="fill:url(#SVGID_00000127013907560953416530000014994323721594802107_);" d="M310.037,211.762
					c-5.137,5.394-13.482,5.779-13.482,5.779s-0.022-8.354,5.11-13.749c5.137-5.395,13.483-5.779,13.483-5.779
					S315.17,206.368,310.037,211.762z"/>
				
					<linearGradient id="SVGID_00000135649810897274593520000001562660766140984243_" gradientUnits="userSpaceOnUse" x1="277.4607" y1="221.3355" x2="291.9794" y2="221.3355">
					<stop  offset="0" style="stop-color:#3C2415"/>
					<stop  offset="1" style="stop-color:#291200"/>
				</linearGradient>
				<path style="fill:url(#SVGID_00000135649810897274593520000001562660766140984243_);" d="M279.712,224.217
					c3.712,6.452,11.73,8.805,11.73,8.805s1.998-8.112-1.714-14.566c-3.712-6.457-11.73-8.807-11.73-8.807
					S275.999,217.761,279.712,224.217z"/>
				
					<linearGradient id="SVGID_00000027603192234489735350000001850718136704568708_" gradientUnits="userSpaceOnUse" x1="291.6114" y1="224.6076" x2="312.3272" y2="224.6076">
					<stop  offset="0" style="stop-color:#3C2415"/>
					<stop  offset="1" style="stop-color:#291200"/>
				</linearGradient>
				<path style="fill:url(#SVGID_00000027603192234489735350000001850718136704568708_);" d="M305.669,229.048
					c-5.722,4.765-14.058,4.19-14.058,4.19s0.938-8.303,6.659-13.071c5.721-4.767,14.057-4.191,14.057-4.191
					S311.389,224.28,305.669,229.048z"/>
				
					<linearGradient id="SVGID_00000124154544917137237880000016266696437258561414_" gradientUnits="userSpaceOnUse" x1="270.9795" y1="236.7498" x2="283.3544" y2="236.7498">
					<stop  offset="0" style="stop-color:#3C2415"/>
					<stop  offset="1" style="stop-color:#291200"/>
				</linearGradient>
				<path style="fill:url(#SVGID_00000124154544917137237880000016266696437258561414_);" d="M271.632,238.41
					c2.139,7.132,9.407,11.257,9.407,11.257s3.802-7.443,1.662-14.574c-2.138-7.136-9.407-11.26-9.407-11.26
					S269.494,231.276,271.632,238.41z"/>
				
					<linearGradient id="SVGID_00000046324271345287239870000015285643359026292624_" gradientUnits="userSpaceOnUse" x1="281.1543" y1="243.8787" x2="305.2676" y2="243.8787">
					<stop  offset="0" style="stop-color:#3C2415"/>
					<stop  offset="1" style="stop-color:#291200"/>
				</linearGradient>
				<path style="fill:url(#SVGID_00000046324271345287239870000015285643359026292624_);" d="M295.796,249.047
					c-6.659,3.334-14.642,0.865-14.642,0.865s2.813-7.868,9.469-11.201c6.66-3.335,14.645-0.868,14.645-0.868
					S302.455,245.712,295.796,249.047z"/>
				
					<linearGradient id="SVGID_00000041296612016395478930000007545586275954092426_" gradientUnits="userSpaceOnUse" x1="260.7551" y1="249.1431" x2="272.4182" y2="249.1431">
					<stop  offset="0" style="stop-color:#3C2415"/>
					<stop  offset="1" style="stop-color:#291200"/>
				</linearGradient>
				<path style="fill:url(#SVGID_00000041296612016395478930000007545586275954092426_);" d="M260.843,249.775
					c0.811,7.4,7.215,12.771,7.215,12.771s5.086-6.632,4.273-14.033c-0.812-7.402-7.212-12.773-7.212-12.773
					S260.031,242.373,260.843,249.775z"/>
				
					<linearGradient id="SVGID_00000173154663530981851680000011660932739629566626_" gradientUnits="userSpaceOnUse" x1="268.126" y1="259.0591" x2="294.0244" y2="259.0591">
					<stop  offset="0" style="stop-color:#3C2415"/>
					<stop  offset="1" style="stop-color:#291200"/>
				</linearGradient>
				<path style="fill:url(#SVGID_00000173154663530981851680000011660932739629566626_);" d="M282.684,264.608
					c-7.153,2.074-14.558-1.797-14.558-1.797s4.188-7.229,11.341-9.301c7.151-2.075,14.558,1.795,14.558,1.795
					S289.835,262.537,282.684,264.608z"/>
				<g>
					
						<linearGradient id="SVGID_00000160179052913758316260000013517973220898221454_" gradientUnits="userSpaceOnUse" x1="259.1161" y1="225.1133" x2="300.0623" y2="225.1133">
						<stop  offset="0" style="stop-color:#3C2415"/>
						<stop  offset="1" style="stop-color:#291200"/>
					</linearGradient>
					<path style="fill:url(#SVGID_00000160179052913758316260000013517973220898221454_);" d="M260.115,268.442
						c0.084-0.006,0.166-0.027,0.247-0.062c6.958-2.81,18.277-11.462,27.277-26.598c7.143-12.017,14.958-32.041,11.634-59.206
						c-0.06-0.499-0.488-0.84-1.011-0.792c-0.496,0.062-0.851,0.516-0.788,1.012c5.654,46.226-21.822,77.456-37.79,83.904
						c-0.465,0.189-0.691,0.716-0.501,1.18C259.338,268.265,259.725,268.482,260.115,268.442z"/>
				</g>
			</g>
		</g>
		<g>
			
				<linearGradient id="SVGID_00000047061137670444795550000014071965464428933248_" gradientUnits="userSpaceOnUse" x1="166.6973" y1="185.9754" x2="209.876" y2="185.9754">
				<stop  offset="0.1224" style="stop-color:#F7941D"/>
				<stop  offset="0.7789" style="stop-color:#FFCA3F"/>
			</linearGradient>
			<path style="fill:url(#SVGID_00000047061137670444795550000014071965464428933248_);" d="M209.876,185.973
				c0,3.391-2.749,6.139-6.14,6.139h-30.9c-3.391,0-6.14-2.749-6.14-6.139l0,0c0-3.388,2.749-6.135,6.14-6.135h30.9
				C207.127,179.838,209.876,182.585,209.876,185.973L209.876,185.973z"/>
			
				<linearGradient id="SVGID_00000158748208575354752730000013270863168848487864_" gradientUnits="userSpaceOnUse" x1="173.6826" y1="205.2339" x2="202.8926" y2="205.2339">
				<stop  offset="0.1224" style="stop-color:#F7941D"/>
				<stop  offset="0.7789" style="stop-color:#FFCA3F"/>
			</linearGradient>
			
				<rect x="173.683" y="173.274" style="fill:url(#SVGID_00000158748208575354752730000013270863168848487864_);" width="29.21" height="63.919"/>
			
				<linearGradient id="SVGID_00000139290065113254885600000017076976629327516091_" gradientUnits="userSpaceOnUse" x1="144.2617" y1="234.6521" x2="232.3125" y2="234.6521">
				<stop  offset="0.1224" style="stop-color:#F7941D"/>
				<stop  offset="0.7789" style="stop-color:#FFCA3F"/>
			</linearGradient>
			<polygon style="fill:url(#SVGID_00000139290065113254885600000017076976629327516091_);" points="173.683,221.953 
				202.893,221.953 232.313,247.352 144.262,247.352 			"/>
			
				<linearGradient id="SVGID_00000062898145400140729710000017176260920340634272_" gradientUnits="userSpaceOnUse" x1="144.2617" y1="250.9507" x2="232.3125" y2="250.9507">
				<stop  offset="0.1224" style="stop-color:#F7941D"/>
				<stop  offset="0.7789" style="stop-color:#FFCA3F"/>
			</linearGradient>
			
				<rect x="144.262" y="247.352" style="fill:url(#SVGID_00000062898145400140729710000017176260920340634272_);" width="88.051" height="7.198"/>
			<g>
				
					<linearGradient id="SVGID_00000143619314598154392710000016471572019324971700_" gradientUnits="userSpaceOnUse" x1="238.2752" y1="104.8824" x2="285.6112" y2="104.8824">
					<stop  offset="0.1224" style="stop-color:#F7941D"/>
					<stop  offset="0.7789" style="stop-color:#FFCA3F"/>
				</linearGradient>
				<path style="fill:url(#SVGID_00000143619314598154392710000016471572019324971700_);" d="M254.793,158.878
					c-1.143,0-2.313-0.139-3.492-0.426c-2.948-0.715-5.416-2.615-6.948-5.347c-1.845-3.295-2.107-7.461-0.733-11.739
					c3.925-12.211,10.738-22.115,20.164-35.815c1.746-2.54,3.586-5.21,5.512-8.052c7.709-11.369,10.575-22.997,7.482-30.348
					c-1.865-4.43-5.946-7.239-12.128-8.351c-9.553-1.706-14.383,4.296-16.406,8.031c-2.953,5.442-2.81,11.068-1.414,12.552
					c1.637,1.742,3.421,2.529,5.014,2.216c1.42-0.277,2.621-1.427,3.29-3.16c0.712-1.837,0.6-2.785,0.419-3.056
					c-0.307-0.462-1.513-0.74-1.874-0.748c-2.103-0.064-3.757-1.822-3.693-3.925c0.064-2.103,1.835-3.801,3.923-3.693
					c0.548,0.019,5.423,0.276,7.994,4.154c1.218,1.831,2.262,5.056,0.337,10.02c-1.608,4.159-4.952,7.11-8.936,7.887
					c-4.197,0.816-8.579-0.811-12.025-4.475c-4.1-4.359-3.988-13.56,0.267-21.403c5.039-9.296,14.175-13.756,24.452-11.901
					c11.065,1.99,15.789,8.112,17.803,12.895c4.147,9.848,1.083,23.896-8.196,37.579c-1.936,2.859-3.784,5.541-5.542,8.097
					c-9.06,13.166-15.606,22.682-19.187,33.824c-0.717,2.238-0.674,4.255,0.128,5.681c0.482,0.867,1.229,1.462,2.102,1.673
					c1.764,0.428,3.407,0.185,4.631-0.677c1.129-0.8,1.834-2.093,1.987-3.637c0.038-0.395,0.036-0.674,0.019-0.862
					c-0.347,0.008-0.755,0.058-0.915,0.109c-2.009,0.624-4.145-0.502-4.768-2.511c-0.62-2.01,0.504-4.141,2.511-4.767
					c0.809-0.251,4.996-1.371,8.145,1.206c1.412,1.151,3.009,3.406,2.592,7.585c-0.379,3.771-2.211,7.001-5.165,9.093
					C260.001,158.1,257.469,158.878,254.793,158.878z"/>
			</g>
			
				<linearGradient id="SVGID_00000106826629725101959490000013062832305163105684_" gradientUnits="userSpaceOnUse" x1="134.4463" y1="116.8608" x2="243.5283" y2="116.8608">
				<stop  offset="0.1224" style="stop-color:#F7941D"/>
				<stop  offset="0.7789" style="stop-color:#FFCA3F"/>
			</linearGradient>
			<path style="fill:url(#SVGID_00000106826629725101959490000013062832305163105684_);" d="M243.528,49.876h-54.432h-0.216h-54.435
				c0,0,7.239,28.575,5.545,48.259c-1.633,18.979-5.545,27.774-5.545,40.002c0,12.168,0.024,45.368,54.435,45.703v0.005
				c0.036,0,0.07-0.003,0.108-0.003c0.036,0,0.069,0.003,0.107,0.003v-0.005c54.41-0.335,54.432-33.535,54.432-45.703
				c0-12.228-3.911-21.023-5.545-40.002C236.292,78.452,243.528,49.876,243.528,49.876z"/>
			<g>
				
					<linearGradient id="SVGID_00000170994366919536788000000000061988701135085231_" gradientUnits="userSpaceOnUse" x1="92.364" y1="104.8824" x2="139.7003" y2="104.8824">
					<stop  offset="0.1224" style="stop-color:#F7941D"/>
					<stop  offset="0.7789" style="stop-color:#FFCA3F"/>
				</linearGradient>
				<path style="fill:url(#SVGID_00000170994366919536788000000000061988701135085231_);" d="M123.185,158.878
					c1.145,0,2.309-0.139,3.488-0.426c2.948-0.715,5.419-2.615,6.952-5.347c1.845-3.295,2.105-7.461,0.732-11.739
					c-3.923-12.211-10.734-22.115-20.166-35.815c-1.746-2.54-3.582-5.21-5.509-8.052c-7.708-11.369-10.575-22.997-7.48-30.348
					c1.866-4.43,5.943-7.239,12.124-8.351c9.557-1.706,14.385,4.296,16.411,8.031c2.95,5.442,2.807,11.068,1.413,12.552
					c-1.641,1.742-3.421,2.529-5.014,2.216c-1.424-0.277-2.621-1.427-3.29-3.16c-0.715-1.837-0.602-2.785-0.423-3.056
					c0.308-0.462,1.513-0.74,1.876-0.748c2.104-0.064,3.757-1.822,3.692-3.925c-0.062-2.103-1.832-3.801-3.923-3.693
					c-0.547,0.019-5.42,0.276-7.993,4.154c-1.212,1.831-2.258,5.056-0.337,10.02c1.61,4.159,4.952,7.11,8.938,7.887
					c4.197,0.816,8.576-0.811,12.023-4.475c4.1-4.359,3.987-13.56-0.265-21.403c-5.043-9.296-14.177-13.756-24.456-11.901
					c-11.063,1.99-15.787,8.112-17.801,12.895c-4.149,9.848-1.083,23.896,8.196,37.579c1.939,2.859,3.782,5.541,5.54,8.097
					c9.063,13.166,15.607,22.682,19.188,33.824c0.718,2.238,0.674,4.255-0.126,5.681c-0.485,0.867-1.233,1.462-2.103,1.673
					c-1.764,0.428-3.407,0.185-4.633-0.677c-1.127-0.8-1.83-2.093-1.987-3.637c-0.04-0.395-0.035-0.674-0.02-0.862
					c0.349,0.008,0.76,0.058,0.915,0.109c2.008,0.624,4.146-0.502,4.769-2.511c0.622-2.01-0.502-4.141-2.513-4.767
					c-0.805-0.251-4.995-1.371-8.143,1.206c-1.411,1.151-3.008,3.406-2.592,7.585c0.378,3.771,2.213,7.001,5.168,9.093
					C117.977,158.1,120.505,158.878,123.185,158.878z"/>
			</g>
		</g>
	</g>
	<polygon style="fill:#A52C2C;" points="262.523,375.322 303.573,375.322 292.929,355.971 303.573,336.62 262.523,336.62 	"/>
	<polygon style="fill:#812123;" points="262.523,375.322 283.92,368.288 283.92,329.583 262.523,336.616 	"/>
	<rect x="97.782" y="329.583" style="fill:#D13029;" width="186.337" height="38.705"/>
	<g>
		<path style="fill:#FFFFFF;" d="M134.829,352.968c-1.273,3.703-4.662,5.14-6.849,5.14c-3.557,0-5.263-1.824-5.263-6.798
			c0-5.001,2.091-14.369,8.387-14.369c2.259,0,4.014,1.022,4.014,3.703c0,1.465-0.456,2.543-1.682,2.543
			c-0.385,0-0.914-0.111-1.37-0.719c0.577-0.331,1.105-1.492,1.105-2.542c0-0.884-0.384-1.686-1.466-1.686
			c-2.644,0-4.999,7.268-4.999,12.905c0,2.542,0.577,4.31,2.884,4.31c1.874,0,3.58-1.05,4.686-2.763L134.829,352.968z"/>
		<path style="fill:#FFFFFF;" d="M140.238,346.253c-0.938,0-1.682,1.686-1.827,2.432l-1.658,8.981h-3.461l3.484-18.791l3.557-0.553
			l-1.298,6.964c1.009-1.326,2.067-1.547,2.812-1.547c1.538,0,2.667,0.912,2.667,3.123c0,2.238-1.154,5.582-1.154,7.129
			c0,0.691,0.241,1.161,0.962,1.161c1.058,0,1.49-0.995,2.018-2.432h1.01c-1.346,4.532-3.196,5.112-4.47,5.112
			c-2.091,0-2.836-1.548-2.836-3.123c0-1.879,1.082-5.278,1.082-7.046C141.127,346.75,140.838,346.253,140.238,346.253z"/>
		<path style="fill:#FFFFFF;" d="M157.879,343.849l-1.73,9.396c-0.072,0.359-0.096,0.636-0.096,0.884
			c0,0.774,0.313,1.188,0.985,1.188c0.938,0,1.586-1.216,1.947-2.598h1.009c-1.37,4.504-3.533,5.112-4.831,5.112
			c-1.346,0-2.211-0.884-2.355-2.543c-0.745,1.271-1.874,2.543-3.581,2.543c-1.634,0-3.196-1.161-3.196-4.449
			c0-3.73,1.995-9.672,6.176-9.672c1.37,0,1.947,0.608,1.947,1.409v0.194l0.265-1.465H157.879z M149.588,352.996
			c0,2.128,0.769,2.155,1.201,2.155c0.697,0,1.706-0.829,1.995-2.432l1.153-6.245c0-0.332-0.216-1.05-0.985-1.05
			C150.91,345.424,149.588,350.398,149.588,352.996z"/>
		<path style="fill:#FFFFFF;" d="M170.979,346.253c-0.865,0-1.514,1.161-1.874,2.542l-1.634,8.871h-3.46l1.754-9.534
			c0.048-0.221,0.072-0.442,0.072-0.691c0-0.608-0.192-1.216-0.721-1.216c-0.938,0-1.587,1.189-1.947,2.57l-1.634,8.871h-3.46
			l2.547-13.817h3.461l-0.264,1.437c1.009-1.326,2.091-1.575,2.932-1.575c1.273,0,2.211,0.663,2.475,2.376
			c1.154-2.045,2.451-2.349,3.341-2.349c1.538,0,2.667,0.912,2.667,3.123c0,2.238-1.154,5.582-1.154,7.129
			c0,0.691,0.241,1.161,0.962,1.161c1.058,0,1.49-0.995,2.019-2.432h1.009c-1.346,4.532-3.196,5.112-4.47,5.112
			c-2.091,0-2.836-1.548-2.836-3.123c0-1.879,1.082-5.278,1.082-7.046C171.844,346.75,171.556,346.253,170.979,346.253z"/>
		<path style="fill:#FFFFFF;" d="M182.349,342.826l-0.384,2.073c0.697-0.691,1.61-1.188,2.811-1.188
			c1.634,0,2.932,1.078,2.932,4.366c0,3.73-1.249,9.755-5.912,9.755c-1.202,0-1.778-0.47-2.042-0.995l-1.25,6.743l-3.629,0.995
			l4.014-21.748H182.349z M184.416,347.994c0-2.128-0.769-2.294-1.202-2.294c-0.529,0-1.202,0.47-1.658,1.354l-1.418,7.737
			c0.096,0.304,0.36,0.636,0.913,0.636C183.575,355.427,184.416,350.591,184.416,347.994z"/>
		<path style="fill:#FFFFFF;" d="M193.406,343.849l-1.73,9.396c-0.072,0.359-0.096,0.636-0.096,0.884
			c0,0.774,0.313,1.022,0.985,1.022c0.937,0,1.802-1.05,2.163-2.432h1.01c-1.37,4.504-3.75,5.112-5.047,5.112
			c-1.442,0-2.572-0.995-2.572-3.316c0-0.525,0.072-1.133,0.192-1.796l1.634-8.871H193.406z M192.325,337.963
			c1.057,0,1.922,0.995,1.922,2.211s-0.865,2.183-1.922,2.183c-1.058,0-1.899-0.967-1.899-2.183S191.267,337.963,192.325,337.963z"
			/>
		<path style="fill:#FFFFFF;" d="M204.053,348.022c0.096,0.055,0.192,0.055,0.264,0.055c1.105,0,2.668-0.829,3.701-1.658
			l0.216,0.746c-0.913,1.133-2.499,1.962-4.254,2.294c-0.384,5.112-2.788,8.317-5.744,8.317c-2.235,0-3.845-1.216-3.845-4.366
			c0-3.178,1.634-9.81,6.585-9.81C203.044,343.6,204.053,345.12,204.053,348.022z M201.986,349.541
			c-0.505-0.138-0.649-0.608-0.649-1.161c0-0.773,0.313-1.271,0.745-1.492c-0.048-1.16-0.288-1.603-0.913-1.603
			c-1.707,0-3.196,5.057-3.196,7.765c0,1.824,0.312,2.238,1.226,2.238C200.376,355.289,201.602,352.802,201.986,349.541z"/>
		<path style="fill:#FFFFFF;" d="M211.337,346.253c-0.865,0-1.514,1.161-1.875,2.542l-1.634,8.871h-3.46l2.547-13.817h3.46
			l-0.264,1.437c1.009-1.326,2.067-1.547,2.812-1.547c1.538,0,2.667,0.912,2.667,3.123c0,2.238-1.154,5.582-1.154,7.129
			c0,0.691,0.241,1.161,0.962,1.161c1.058,0,1.49-0.995,2.019-2.432h1.01c-1.346,4.532-3.196,5.112-4.47,5.112
			c-2.091,0-2.836-1.548-2.836-3.123c0-1.879,1.082-5.278,1.082-7.046C212.202,346.75,211.913,346.253,211.337,346.253z"/>
		<path style="fill:#FFFFFF;" d="M227.608,352.719c-1.25,1.658-2.572,2.708-3.677,3.454c-1.009,1.216-2.547,1.658-3.773,1.658
			c-2.451,0-3.509-1.852-3.509-3.537c0-1.271,0.625-2.211,1.274-2.57c1.346-2.735,2.211-5.471,2.956-8.179l3.557-0.553
			c0.288,7.157,0.529,8.235,0.529,10.059c0,0.387-0.024,0.718-0.096,1.05c0.649-0.442,1.273-0.939,1.73-1.381H227.608z
			 M218.572,354.073c-0.241,0-0.529-0.083-0.649-0.359c0,1.299,0.408,1.935,1.466,1.935c1.058,0,2.091-0.636,2.091-2.57
			c0-1.437-0.216-2.293-0.456-6.549c-0.481,1.796-1.154,3.454-1.947,5.223c0.313,0.165,0.553,0.497,0.553,0.967
			C219.629,353.382,219.197,354.073,218.572,354.073z"/>
		<path style="fill:#FFFFFF;" d="M232.632,346.253c-0.938,0-1.682,1.686-1.827,2.432l-1.658,8.981h-3.461l3.484-18.791l3.557-0.553
			l-1.298,6.964c1.009-1.326,2.067-1.547,2.812-1.547c1.538,0,2.667,0.912,2.667,3.123c0,2.238-1.154,5.582-1.154,7.129
			c0,0.691,0.241,1.161,0.961,1.161c1.058,0,1.49-0.995,2.019-2.432h1.01c-1.346,4.532-3.196,5.112-4.47,5.112
			c-2.091,0-2.836-1.548-2.836-3.123c0-1.879,1.081-5.278,1.081-7.046C233.521,346.75,233.233,346.253,232.632,346.253z"/>
		<path style="fill:#FFFFFF;" d="M243.833,343.849l-1.73,9.396c-0.072,0.359-0.096,0.636-0.096,0.884
			c0,0.774,0.313,1.022,0.985,1.022c0.937,0,1.802-1.05,2.163-2.432h1.01c-1.37,4.504-3.749,5.112-5.047,5.112
			c-1.442,0-2.572-0.995-2.572-3.316c0-0.525,0.072-1.133,0.192-1.796l1.634-8.871H243.833z M242.752,337.963
			c1.057,0,1.922,0.995,1.922,2.211s-0.865,2.183-1.922,2.183c-1.058,0-1.899-0.967-1.899-2.183S241.694,337.963,242.752,337.963z"
			/>
		<path style="fill:#FFFFFF;" d="M250.443,342.826l-0.384,2.073c0.697-0.691,1.61-1.188,2.812-1.188
			c1.634,0,2.932,1.078,2.932,4.366c0,3.73-1.25,9.755-5.912,9.755c-1.202,0-1.778-0.47-2.043-0.995l-1.249,6.743l-3.629,0.995
			l4.014-21.748H250.443z M252.51,347.994c0-2.128-0.769-2.294-1.202-2.294c-0.529,0-1.202,0.47-1.658,1.354l-1.418,7.737
			c0.096,0.304,0.36,0.636,0.913,0.636C251.669,355.427,252.51,350.591,252.51,347.994z"/>
	</g>
</g>
<polygon style="fill:#FFFFFF;" points="109.817,354.285 111.133,356.952 114.078,357.381 111.946,359.456 112.451,362.389 
	109.817,361.004 107.184,362.389 107.687,359.456 105.556,357.381 108.501,356.952 "/>
<polygon style="fill:#FFFFFF;" points="271.674,354.285 272.991,356.952 275.934,357.381 273.804,359.456 274.307,362.389 
	271.674,361.004 269.041,362.389 269.543,359.456 267.413,357.381 270.358,356.952 "/>
</svg>
