<?xml version="1.0" encoding="UTF-8" standalone="no"?>
<!-- Created with Inkscape (http://www.inkscape.org/) -->

<svg
   width="18.219999mm"
   height="21mm"
   viewBox="0 0 18.219999 21"
   version="1.1"
   id="svg1"
   inkscape:version="1.4.3 (0d15f75, 2025-12-25)"
   sodipodi:docname="ant.svg"
   xmlns:inkscape="http://www.inkscape.org/namespaces/inkscape"
   xmlns:sodipodi="http://sodipodi.sourceforge.net/DTD/sodipodi-0.dtd"
   xmlns="http://www.w3.org/2000/svg"
   xmlns:svg="http://www.w3.org/2000/svg">
  <sodipodi:namedview
     id="namedview1"
     pagecolor="#ffffff"
     bordercolor="#000000"
     borderopacity="0.25"
     inkscape:showpageshadow="2"
     inkscape:pageopacity="0.0"
     inkscape:pagecheckerboard="0"
     inkscape:deskcolor="#d1d1d1"
     inkscape:document-units="mm"
     inkscape:zoom="2.9041807"
     inkscape:cx="118.79426"
     inkscape:cy="97.273562"
     inkscape:window-width="1920"
     inkscape:window-height="1017"
     inkscape:window-x="-8"
     inkscape:window-y="-8"
     inkscape:window-maximized="1"
     inkscape:current-layer="layer1" />
  <defs
     id="defs1" />
  <g
     inkscape:label="Layer 1"
     inkscape:groupmode="layer"
     id="layer1">
    <g
       id="g123"
       transform="matrix(0.34897329,0,0,0.34897329,-89.310277,-11.750082)">
		<g
   id="g105">
			<g
   id="g89">
				<path
   style="fill:#542e18"
   d="m 280.19,48.98 c -0.091,0 -0.183,-0.024 -0.263,-0.077 l -5.757,-3.674 c -0.19,-0.122 -0.274,-0.358 -0.199,-0.573 l 3.674,-10.655 c 0.088,-0.255 0.367,-0.393 0.624,-0.303 0.255,0.088 0.391,0.367 0.303,0.623 l -3.548,10.291 5.43,3.467 c 0.228,0.145 0.295,0.447 0.15,0.676 -0.093,0.146 -0.252,0.225 -0.414,0.225 z"
   id="path89" />

			</g>

			<g
   id="g90">
				<path
   style="fill:#6d3c1f"
   d="m 273.523,55.059 c -0.32,0 -0.578,-0.258 -0.578,-0.578 v -5.707 l -5.78,-6.486 c -0.211,-0.238 -0.191,-0.603 0.048,-0.815 0.237,-0.213 0.603,-0.191 0.815,0.047 l 5.927,6.65 c 0.095,0.104 0.148,0.243 0.148,0.383 v 5.928 c 0,0.32 -0.259,0.578 -0.58,0.578 z"
   id="path90" />

			</g>

			<g
   id="g91">
				<path
   style="fill:#6d3c1f"
   d="m 256.5,72.189 c -0.274,0 -0.518,-0.196 -0.567,-0.476 -0.057,-0.315 0.154,-0.615 0.467,-0.671 l 7.9,-1.411 6.879,-7.675 c 0.212,-0.238 0.578,-0.258 0.815,-0.045 0.237,0.214 0.258,0.58 0.045,0.817 l -7.011,7.823 c -0.087,0.096 -0.202,0.161 -0.329,0.184 l -8.096,1.446 c -0.035,0.005 -0.069,0.008 -0.103,0.008 z"
   id="path91" />

			</g>

			<g
   id="g92">
				<path
   style="fill:#6d3c1f"
   d="m 264.634,93.464 c -0.095,0 -0.19,-0.023 -0.279,-0.071 -0.281,-0.155 -0.382,-0.507 -0.227,-0.787 l 6.044,-10.949 -1.77,-9.302 c -0.059,-0.314 0.146,-0.616 0.46,-0.676 0.315,-0.058 0.618,0.146 0.677,0.46 l 1.808,9.507 c 0.024,0.132 0.004,0.269 -0.063,0.387 l -6.144,11.131 c -0.106,0.191 -0.303,0.3 -0.506,0.3 z"
   id="path92" />

			</g>

			<g
   id="g93">
				<path
   style="fill:#5d2c10"
   d="m 276.817,73.05 h -7.848 c -0.479,0 -0.867,-0.389 -0.867,-0.868 0,-0.479 0.389,-0.867 0.867,-0.867 h 7.446 l 3.17,-3.727 c 0.311,-0.365 0.857,-0.41 1.222,-0.1 0.365,0.311 0.409,0.858 0.1,1.224 l -3.43,4.033 c -0.164,0.193 -0.407,0.305 -0.66,0.305 z"
   id="path93" />

			</g>

			<g
   id="g94">
				<path
   style="fill:#5d2c10"
   d="m 276.817,69.017 c -0.008,0 -0.017,0 -0.024,0 -0.239,-0.007 -0.466,-0.112 -0.625,-0.291 l -5.389,-6.072 c -0.319,-0.358 -0.285,-0.906 0.072,-1.225 0.358,-0.317 0.907,-0.285 1.225,0.073 l 4.773,5.38 2.779,-2.812 c 0.336,-0.341 0.887,-0.343 1.228,-0.007 0.339,0.337 0.344,0.886 0.007,1.227 l -3.432,3.469 c -0.16,0.164 -0.383,0.258 -0.614,0.258 z"
   id="path94" />

			</g>

			<g
   id="g95">
				<path
   style="fill:#5d2c10"
   d="m 279.439,61.764 h -2.458 c -0.331,0 -0.634,-0.188 -0.779,-0.487 l -3.181,-6.505 c -0.21,-0.429 -0.033,-0.949 0.398,-1.16 0.43,-0.209 0.95,-0.033 1.16,0.398 l 2.942,6.019 h 1.917 c 0.478,0 0.866,0.388 0.866,0.867 0.001,0.48 -0.387,0.868 -0.865,0.868 z"
   id="path95" />

			</g>

			<path
   style="fill:#5d2c10"
   d="m 281.851,46.64 h -0.064 c -1.76,0 -4.46,2.541 -4.46,4.3 v 1.514 c 0,1.759 1.427,3.186 3.185,3.186 h 1.339 z"
   id="path96" />

			<path
   style="fill:#5d2c10"
   d="m 281.851,55.441 c -0.013,0 -0.024,-0.005 -0.038,-0.005 -1.332,0 -2.411,1.08 -2.411,2.414 v 2.521 c 0,1.332 1.079,2.411 2.411,2.411 0.014,0 0.025,-0.003 0.038,-0.003 z"
   id="path97" />

			<path
   style="fill:#5d2c10"
   d="m 281.851,62.357 c -0.013,0 -0.024,-0.003 -0.038,-0.003 -1.044,0 -1.892,0.847 -1.892,1.891 v 6.851 c 0,1.045 0.848,1.892 1.892,1.892 0.014,0 0.025,-0.003 0.038,-0.003 z"
   id="path98" />

			<path
   style="fill:#6d3c1f"
   d="m 281.851,63.211 c -0.758,0.123 -1.339,0.777 -1.339,1.57 v 5.781 c 0,0.793 0.581,1.446 1.339,1.569 z"
   id="path99" />

			<path
   style="fill:#5d2c10"
   d="m 281.851,72.434 c -0.012,0 -0.024,-10e-4 -0.038,-10e-4 -2.485,0 -4.5,2.014 -4.5,4.499 v 4.196 c 0,2.485 2.015,4.5 4.5,4.5 0.014,0 0.026,-0.001 0.038,-0.001 z"
   id="path100" />

			<path
   style="fill:#6d3c1f"
   d="m 281.851,55.779 c -0.758,0.123 -1.339,0.776 -1.339,1.57 v 3.523 c 0,0.792 0.581,1.447 1.339,1.57 z"
   id="path101" />

			<path
   style="fill:#6d3c1f"
   d="m 281.851,76.422 h -2.703 c -0.256,0 -0.464,0.208 -0.464,0.464 0,0.255 0.208,0.463 0.464,0.463 h 2.703 z"
   id="path102" />

			<path
   style="fill:#6d3c1f"
   d="m 281.851,79.029 h -3.564 c -0.257,0 -0.464,0.209 -0.464,0.464 0,0.257 0.207,0.465 0.464,0.465 h 3.564 z"
   id="path103" />

			<path
   style="fill:#6d3c1f"
   d="m 281.851,81.639 h -2.703 c -0.256,0 -0.464,0.207 -0.464,0.464 0,0.256 0.208,0.463 0.464,0.463 h 2.703 z"
   id="path104" />

			<path
   style="fill:#2e1a0d"
   d="m 280.603,48.98 c 0,0.482 -0.39,0.873 -0.872,0.873 h -0.169 c -0.48,0 -0.872,-0.391 -0.872,-0.873 v 0 c 0,-0.482 0.392,-0.872 0.872,-0.872 h 0.169 c 0.483,0 0.872,0.391 0.872,0.872 z"
   id="path105" />

		</g>

		<g
   id="g122">
			<g
   id="g106">
				<path
   style="fill:#542e18"
   d="m 283.475,48.98 c 0.09,0 0.182,-0.024 0.263,-0.077 l 5.756,-3.674 c 0.191,-0.122 0.273,-0.358 0.2,-0.573 l -3.675,-10.655 c -0.088,-0.255 -0.366,-0.393 -0.623,-0.303 -0.254,0.088 -0.391,0.367 -0.303,0.623 l 3.549,10.291 -5.43,3.467 c -0.23,0.145 -0.296,0.447 -0.151,0.676 0.093,0.146 0.253,0.225 0.414,0.225 z"
   id="path106" />

			</g>

			<g
   id="g107">
				<path
   style="fill:#6d3c1f"
   d="m 290.142,55.059 c 0.319,0 0.577,-0.258 0.577,-0.578 v -5.707 l 5.781,-6.486 c 0.212,-0.238 0.19,-0.603 -0.047,-0.815 -0.238,-0.213 -0.603,-0.191 -0.816,0.047 l -5.927,6.65 c -0.096,0.104 -0.148,0.243 -0.148,0.383 v 5.928 c -0.001,0.32 0.259,0.578 0.58,0.578 z"
   id="path107" />

			</g>

			<g
   id="g108">
				<path
   style="fill:#6d3c1f"
   d="m 307.163,72.189 c 0.275,0 0.52,-0.196 0.57,-0.476 0.056,-0.315 -0.155,-0.615 -0.469,-0.671 l -7.899,-1.411 -6.879,-7.675 c -0.212,-0.238 -0.577,-0.258 -0.816,-0.045 -0.236,0.214 -0.257,0.58 -0.045,0.817 l 7.012,7.823 c 0.086,0.096 0.202,0.161 0.329,0.184 l 8.097,1.446 c 0.034,0.005 0.067,0.008 0.1,0.008 z"
   id="path108" />

			</g>

			<g
   id="g109">
				<path
   style="fill:#6d3c1f"
   d="m 299.031,93.464 c 0.095,0 0.19,-0.023 0.28,-0.071 0.279,-0.155 0.381,-0.507 0.226,-0.787 l -6.044,-10.949 1.77,-9.302 c 0.06,-0.314 -0.146,-0.616 -0.461,-0.676 -0.314,-0.058 -0.616,0.146 -0.675,0.46 l -1.808,9.507 c -0.024,0.132 -0.004,0.269 0.063,0.387 l 6.144,11.131 c 0.105,0.191 0.303,0.3 0.505,0.3 z"
   id="path109" />

			</g>

			<g
   id="g110">
				<path
   style="fill:#5d2c10"
   d="m 286.848,73.05 h 7.848 c 0.478,0 0.866,-0.389 0.866,-0.868 0,-0.479 -0.389,-0.867 -0.866,-0.867 h -7.446 l -3.17,-3.727 c -0.311,-0.365 -0.857,-0.41 -1.222,-0.1 -0.366,0.311 -0.409,0.858 -0.099,1.224 l 3.429,4.033 c 0.164,0.193 0.407,0.305 0.66,0.305 z"
   id="path110" />

			</g>

			<g
   id="g111">
				<path
   style="fill:#5d2c10"
   d="m 286.848,69.017 c 0.008,0 0.017,0 0.023,0 0.24,-0.007 0.466,-0.112 0.626,-0.291 l 5.389,-6.072 c 0.318,-0.358 0.284,-0.906 -0.074,-1.225 -0.357,-0.317 -0.905,-0.285 -1.224,0.073 l -4.774,5.38 -2.777,-2.812 c -0.337,-0.341 -0.888,-0.343 -1.228,-0.007 -0.34,0.337 -0.345,0.886 -0.008,1.227 l 3.431,3.469 c 0.163,0.164 0.385,0.258 0.616,0.258 z"
   id="path111" />

			</g>

			<g
   id="g112">
				<path
   style="fill:#5d2c10"
   d="m 284.227,61.764 h 2.458 c 0.331,0 0.633,-0.188 0.778,-0.487 l 3.182,-6.505 c 0.21,-0.429 0.032,-0.949 -0.398,-1.16 -0.431,-0.209 -0.95,-0.033 -1.159,0.398 l -2.943,6.019 h -1.917 c -0.479,0 -0.866,0.388 -0.866,0.867 -0.002,0.48 0.386,0.868 0.865,0.868 z"
   id="path112" />

			</g>

			<path
   style="fill:#5d2c10"
   d="m 281.814,46.64 h 0.065 c 1.76,0 4.459,2.541 4.459,4.3 v 1.514 c 0,1.759 -1.426,3.186 -3.185,3.186 h -1.34 v -9 z"
   id="path113" />

			<path
   style="fill:#5d2c10"
   d="m 281.814,55.441 c 0.015,0 0.024,-0.005 0.037,-0.005 1.334,0 2.413,1.08 2.413,2.414 v 2.521 c 0,1.332 -1.079,2.411 -2.413,2.411 -0.013,0 -0.022,-0.003 -0.037,-0.003 z"
   id="path114" />

			<path
   style="fill:#5d2c10"
   d="m 281.814,62.357 c 0.015,0 0.024,-0.003 0.037,-0.003 1.047,0 1.895,0.847 1.895,1.891 v 6.851 c 0,1.045 -0.848,1.892 -1.895,1.892 -0.013,0 -0.022,-0.003 -0.037,-0.003 z"
   id="path115" />

			<path
   style="fill:#6d3c1f"
   d="m 281.814,63.211 c 0.759,0.123 1.34,0.777 1.34,1.57 v 5.781 c 0,0.793 -0.581,1.446 -1.34,1.569 z"
   id="path116" />

			<path
   style="fill:#5d2c10"
   d="m 281.814,72.434 c 0.013,0 0.025,-10e-4 0.037,-10e-4 2.486,0 4.502,2.014 4.502,4.499 v 4.196 c 0,2.485 -2.016,4.5 -4.502,4.5 -0.012,0 -0.024,-0.001 -0.037,-0.001 z"
   id="path117" />

			<path
   style="fill:#6d3c1f"
   d="m 281.814,55.779 c 0.759,0.123 1.34,0.776 1.34,1.57 v 3.523 c 0,0.792 -0.581,1.447 -1.34,1.57 z"
   id="path118" />

			<path
   style="fill:#6d3c1f"
   d="m 281.814,76.422 h 2.702 c 0.258,0 0.465,0.208 0.465,0.464 0,0.255 -0.207,0.463 -0.465,0.463 h -2.702 z"
   id="path119" />

			<path
   style="fill:#6d3c1f"
   d="m 281.814,79.029 h 3.564 c 0.257,0 0.464,0.209 0.464,0.464 0,0.257 -0.207,0.465 -0.464,0.465 h -3.564 z"
   id="path120" />

			<path
   style="fill:#6d3c1f"
   d="m 281.814,81.639 h 2.702 c 0.258,0 0.465,0.207 0.465,0.464 0,0.256 -0.207,0.463 -0.465,0.463 h -2.702 z"
   id="path121" />

			<path
   style="fill:#2e1a0d"
   d="m 283.06,48.98 c 0,0.482 0.391,0.873 0.873,0.873 h 0.169 c 0.481,0 0.872,-0.391 0.872,-0.873 v 0 c 0,-0.482 -0.392,-0.872 -0.872,-0.872 h -0.169 c -0.482,0 -0.873,0.391 -0.873,0.872 z"
   id="path122" />

		</g>

		
	</g>
  </g>
</svg>
