<?xml version="1.0" encoding="UTF-8" standalone="no"?>
<!-- Created with Inkscape (http://www.inkscape.org/) -->

<svg
   width="18.219999mm"
   height="21mm"
   viewBox="0 0 18.219999 21"
   version="1.1"
   id="svg1"
   inkscape:version="1.4.3 (0d15f75, 2025-12-25)"
   sodipodi:docname="ant.svg"
   xmlns:inkscape="http://www.inkscape.org/namespaces/inkscape"
   xmlns:sodipodi="http://sodipodi.sourceforge.net/DTD/sodipodi-0.dtd"
   xmlns="http://www.w3.org/2000/svg"
   xmlns:svg="http://www.w3.org/2000/svg">
  <sodipodi:namedview
     id="namedview1"
     pagecolor="#ffffff"
     bordercolor="#000000"
     borderopacity="0.25"
     inkscape:showpageshadow="2"
     inkscape:pageopacity="0.0"
     inkscape:pagecheckerboard="0"
     inkscape:deskcolor="#d1d1d1"
     inkscape:document-units="mm"
     inkscape:zoom="22.627417"
     inkscape:cx="30.007844"
     inkscape:cy="15.711029"
     inkscape:window-width="1920"
     inkscape:window-height="1017"
     inkscape:window-x="-8"
     inkscape:window-y="-8"
     inkscape:window-maximized="1"
     inkscape:current-layer="g122"
     showgrid="false" />
  <defs
     id="defs1" />
  <g
     inkscape:label="Layer 1"
     inkscape:groupmode="layer"
     id="layer1">
    <g
       id="g123"
       transform="matrix(0.34897329,0,0,0.34897329,-89.310277,-11.750082)">
      <g
         id="g105">
        <g
           id="g89">
          <path
             style="fill:#542e18"
             d="m 280.19,48.98 c -0.091,0 -0.183,-0.024 -0.263,-0.077 l -5.757,-3.674 c -0.19,-0.122 -0.274,-0.358 -0.199,-0.573 l 3.674,-10.655 c 0.088,-0.255 0.367,-0.393 0.624,-0.303 0.255,0.088 0.391,0.367 0.303,0.623 l -3.548,10.291 5.43,3.467 c 0.228,0.145 0.295,0.447 0.15,0.676 -0.093,0.146 -0.252,0.225 -0.414,0.225 z"
             id="path89" />
        </g>
        <g
           id="g90">
          <path
             style="fill:#6d3c1f"
             d="m 273.523,55.059 c -0.32,0 -0.578,-0.258 -0.578,-0.578 v -5.707 l -5.78,-6.486 c -0.211,-0.238 -0.191,-0.603 0.048,-0.815 0.237,-0.213 0.603,-0.191 0.815,0.047 l 5.927,6.65 c 0.095,0.104 0.148,0.243 0.148,0.383 v 5.928 c 0,0.32 -0.259,0.578 -0.58,0.578 z"
             id="path90" />
        </g>
        <g
           id="g91">
          <path
             style="fill:#6d3c1f"
             d="m 256.5,72.189 c -0.274,0 -0.518,-0.196 -0.567,-0.476 -0.057,-0.315 0.154,-0.615 0.467,-0.671 l 7.9,-1.411 6.879,-7.675 c 0.212,-0.238 0.578,-0.258 0.815,-0.045 0.237,0.214 0.258,0.58 0.045,0.817 l -7.011,7.823 c -0.087,0.096 -0.202,0.161 -0.329,0.184 l -8.096,1.446 c -0.035,0.005 -0.069,0.008 -0.103,0.008 z"
             id="path91" />
        </g>
        <g
           id="g92">
          <path
             style="fill:#6d3c1f"
             d="m 264.634,93.464 c -0.095,0 -0.19,-0.023 -0.279,-0.071 -0.281,-0.155 -0.382,-0.507 -0.227,-0.787 l 6.044,-10.949 -1.77,-9.302 c -0.059,-0.314 0.146,-0.616 0.46,-0.676 0.315,-0.058 0.618,0.146 0.677,0.46 l 1.808,9.507 c 0.024,0.132 0.004,0.269 -0.063,0.387 l -6.144,11.131 c -0.106,0.191 -0.303,0.3 -0.506,0.3 z"
             id="path92" />
        </g>
        <g
           id="g93">
          <path
             style="fill:#5d2c10"
             d="m 276.817,73.05 h -7.848 c -0.479,0 -0.867,-0.389 -0.867,-0.868 0,-0.479 0.389,-0.867 0.867,-0.867 h 7.446 l 3.17,-3.727 c 0.311,-0.365 0.857,-0.41 1.222,-0.1 0.365,0.311 0.409,0.858 0.1,1.224 l -3.43,4.033 c -0.164,0.193 -0.407,0.305 -0.66,0.305 z"
             id="path93" />
        </g>
        <g
           id="g94">
          <path
             style="fill:#5d2c10"
             d="m 276.817,69.017 c -0.008,0 -0.017,0 -0.024,0 -0.239,-0.007 -0.466,-0.112 -0.625,-0.291 l -5.389,-6.072 c -0.319,-0.358 -0.285,-0.906 0.072,-1.225 0.358,-0.317 0.907,-0.285 1.225,0.073 l 4.773,5.38 2.779,-2.812 c 0.336,-0.341 0.887,-0.343 1.228,-0.007 0.339,0.337 0.344,0.886 0.007,1.227 l -3.432,3.469 c -0.16,0.164 -0.383,0.258 -0.614,0.258 z"
             id="path94" />
        </g>
        <g
           id="g95">
          <path
             style="fill:#5d2c10"
             d="m 279.439,61.764 h -2.458 c -0.331,0 -0.634,-0.188 -0.779,-0.487 l -3.181,-6.505 c -0.21,-0.429 -0.033,-0.949 0.398,-1.16 0.43,-0.209 0.95,-0.033 1.16,0.398 l 2.942,6.019 h 1.917 c 0.478,0 0.866,0.388 0.866,0.867 0.001,0.48 -0.387,0.868 -0.865,0.868 z"
             id="path95" />
        </g>
        <path
           id="path96"
           style="fill:#5d2c10"
           d="M 281.78685 46.639397 C 280.02685 46.639397 277.32664 49.180679 277.32664 50.939679 L 277.32664 52.454552 C 277.32664 54.213552 278.75387 55.639781 280.51187 55.639781 L 281.8135 55.639781 L 281.85052 55.639781 L 283.15364 55.639781 C 284.91264 55.639781 286.33739 54.213552 286.33739 52.454552 L 286.33739 50.939679 C 286.33739 49.180679 283.63866 46.639397 281.87866 46.639397 L 281.85052 46.639397 L 281.8135 46.639397 L 281.78685 46.639397 z " />
        <path
           id="path97"
           style="fill:#5d2c10"
           d="M 281.8135 55.435429 C 280.4815 55.435429 279.40274 56.516636 279.40274 57.850636 L 279.40274 60.37098 C 279.40274 61.70298 280.4815 62.781744 281.8135 62.781744 C 281.82067 62.781744 281.82648 62.781031 281.83275 62.780263 C 281.83866 62.781031 281.84386 62.781744 281.85052 62.781744 C 283.18452 62.781744 284.26425 61.70298 284.26425 60.37098 L 284.26425 57.850636 C 284.26425 56.516636 283.18452 55.435429 281.85052 55.435429 C 281.84386 55.435429 281.83866 55.437111 281.83275 55.438391 C 281.82648 55.437111 281.82067 55.435429 281.8135 55.435429 z " />
        <path
           id="path98"
           style="fill:#5d2c10"
           d="M 281.8135 62.353789 C 280.7695 62.353789 279.92102 63.200788 279.92102 64.244788 L 279.92102 71.096511 C 279.92102 72.141511 280.7695 72.98751 281.8135 72.98751 C 281.82067 72.98751 281.82648 72.986797 281.83275 72.986029 C 281.83866 72.986797 281.84386 72.98751 281.85052 72.98751 C 282.89752 72.98751 283.74596 72.141511 283.74596 71.096511 L 283.74596 64.244788 C 283.74596 63.200788 282.89752 62.353789 281.85052 62.353789 C 281.84386 62.353789 281.83866 62.354502 281.83275 62.35527 C 281.82648 62.354502 281.82067 62.353789 281.8135 62.353789 z " />
        <path
           id="path100"
           style="fill:#5d2c10"
           d="M 281.8135 72.433686 C 279.3285 72.433686 277.31331 74.447397 277.31331 76.932397 L 277.31331 81.127541 C 277.31331 83.612541 279.3285 85.627733 281.8135 85.627733 L 281.85052 85.627733 C 284.33652 85.627733 286.35367 83.612541 286.35367 81.127541 L 286.35367 76.932397 C 286.35367 74.447397 284.33652 72.433686 281.85052 72.433686 L 281.8135 72.433686 z " />
        <path
           style="fill:#2e1a0d;stroke-width:1.50917"
           d="m 281.16905,49.683148 c 0,0.870667 -0.49173,1.576956 -1.09948,1.576956 h -0.21308 c -0.60522,0 -1.09948,-0.706289 -1.09948,-1.576956 v 0 c 0,-0.870667 0.49426,-1.575148 1.09948,-1.575148 h 0.21308 c 0.60901,0 1.09948,0.706288 1.09948,1.575148 z"
           id="path105" />
      </g>
      <g
         id="g122">
        <g
           id="g106">
          <path
             style="fill:#542e18"
             d="m 283.475,48.98 c 0.09,0 0.182,-0.024 0.263,-0.077 l 5.756,-3.674 c 0.191,-0.122 0.273,-0.358 0.2,-0.573 l -3.675,-10.655 c -0.088,-0.255 -0.366,-0.393 -0.623,-0.303 -0.254,0.088 -0.391,0.367 -0.303,0.623 l 3.549,10.291 -5.43,3.467 c -0.23,0.145 -0.296,0.447 -0.151,0.676 0.093,0.146 0.253,0.225 0.414,0.225 z"
             id="path106" />
        </g>
        <g
           id="g107">
          <path
             style="fill:#6d3c1f"
             d="m 290.142,55.059 c 0.319,0 0.577,-0.258 0.577,-0.578 v -5.707 l 5.781,-6.486 c 0.212,-0.238 0.19,-0.603 -0.047,-0.815 -0.238,-0.213 -0.603,-0.191 -0.816,0.047 l -5.927,6.65 c -0.096,0.104 -0.148,0.243 -0.148,0.383 v 5.928 c -0.001,0.32 0.259,0.578 0.58,0.578 z"
             id="path107" />
        </g>
        <g
           id="g108">
          <path
             style="fill:#6d3c1f"
             d="m 307.163,72.189 c 0.275,0 0.52,-0.196 0.57,-0.476 0.056,-0.315 -0.155,-0.615 -0.469,-0.671 l -7.899,-1.411 -6.879,-7.675 c -0.212,-0.238 -0.577,-0.258 -0.816,-0.045 -0.236,0.214 -0.257,0.58 -0.045,0.817 l 7.012,7.823 c 0.086,0.096 0.202,0.161 0.329,0.184 l 8.097,1.446 c 0.034,0.005 0.067,0.008 0.1,0.008 z"
             id="path108" />
        </g>
        <g
           id="g109">
          <path
             style="fill:#6d3c1f"
             d="m 299.031,93.464 c 0.095,0 0.19,-0.023 0.28,-0.071 0.279,-0.155 0.381,-0.507 0.226,-0.787 l -6.044,-10.949 1.77,-9.302 c 0.06,-0.314 -0.146,-0.616 -0.461,-0.676 -0.314,-0.058 -0.616,0.146 -0.675,0.46 l -1.808,9.507 c -0.024,0.132 -0.004,0.269 0.063,0.387 l 6.144,11.131 c 0.105,0.191 0.303,0.3 0.505,0.3 z"
             id="path109" />
        </g>
        <g
           id="g110">
          <path
             style="fill:#5d2c10"
             d="m 286.848,73.05 h 7.848 c 0.478,0 0.866,-0.389 0.866,-0.868 0,-0.479 -0.389,-0.867 -0.866,-0.867 h -7.446 l -3.17,-3.727 c -0.311,-0.365 -0.857,-0.41 -1.222,-0.1 -0.366,0.311 -0.409,0.858 -0.099,1.224 l 3.429,4.033 c 0.164,0.193 0.407,0.305 0.66,0.305 z"
             id="path110" />
        </g>
        <g
           id="g111">
          <path
             style="fill:#5d2c10"
             d="m 286.848,69.017 c 0.008,0 0.017,0 0.023,0 0.24,-0.007 0.466,-0.112 0.626,-0.291 l 5.389,-6.072 c 0.318,-0.358 0.284,-0.906 -0.074,-1.225 -0.357,-0.317 -0.905,-0.285 -1.224,0.073 l -4.774,5.38 -2.777,-2.812 c -0.337,-0.341 -0.888,-0.343 -1.228,-0.007 -0.34,0.337 -0.345,0.886 -0.008,1.227 l 3.431,3.469 c 0.163,0.164 0.385,0.258 0.616,0.258 z"
             id="path111" />
        </g>
        <g
           id="g112">
          <path
             style="fill:#5d2c10"
             d="m 284.227,61.764 h 2.458 c 0.331,0 0.633,-0.188 0.778,-0.487 l 3.182,-6.505 c 0.21,-0.429 0.032,-0.949 -0.398,-1.16 -0.431,-0.209 -0.95,-0.033 -1.159,0.398 l -2.943,6.019 h -1.917 c -0.479,0 -0.866,0.388 -0.866,0.867 -0.002,0.48 0.386,0.868 0.865,0.868 z"
             id="path112" />
        </g>
        <path
           style="fill:#6d3c1f;stroke-width:1.41409"
           d="m 284.08704,76.422 c 0.46807,0.216957 0.92983,0.208 0.92983,0.464 0,0.255 -0.41392,0.463 -0.92983,0.463 z"
           id="path119"
           sodipodi:nodetypes="ssss" />
        <path
           style="fill:#2e1a0d;stroke-width:1.50901"
           d="m 282.62441,49.683148 c 0,0.870668 0.4929,1.576956 1.1005,1.576956 h 0.21305 c 0.60635,0 1.09924,-0.706288 1.09924,-1.576956 v 0 c 0,-0.870667 -0.49416,-1.575148 -1.09924,-1.575148 h -0.21305 c -0.6076,0 -1.1005,0.706288 -1.1005,1.575148 z"
           id="path122" />
        <path
           style="fill:#6d3c1f;stroke-width:1.41409"
           d="m 284.08704,76.422 c 0.51586,-0.0075 0.92983,0.208 0.92983,0.464 0,0.255 -0.41392,0.463 -0.92983,0.463 -1.82199,-0.103852 -3.66121,0.173106 -5.40303,-0.407241 1.61221,-0.878326 3.61417,-0.493667 5.40303,-0.519759 z"
           id="path1"
           sodipodi:nodetypes="ssscs" />
        <path
           style="fill:#6d3c1f;stroke-width:1.41409"
           d="m 284.08774,76.422 c 0.51586,-0.0075 0.92913,0.208 0.92913,0.464 0,0.255 -0.41441,0.492359 -0.92948,0.463 -0.91099,-0.05193 -3.56983,-0.0087 -4.47494,-0.02493 -0.54728,-0.0098 -0.95226,-0.246167 -0.92844,-0.482087 0.0238,-0.23592 0.47646,-0.47144 0.92844,-0.479686 0.92562,-0.01689 3.58086,0.07275 4.47529,0.05971 z"
           id="path2"
           sodipodi:nodetypes="sssssss" />
        <path
           style="fill:#6d3c1f;stroke-width:1.59105"
           d="m 284.66645,79.091036 c 0.65306,-0.0075 1.17623,0.208 1.17623,0.464 0,0.255 -0.52462,0.492359 -1.17667,0.463 -1.15326,-0.05193 -4.51922,-0.0087 -5.66504,-0.02493 -0.69283,-0.0098 -1.20551,-0.246167 -1.17535,-0.482087 0.0301,-0.23592 0.60317,-0.47144 1.17535,-0.479686 1.17179,-0.01689 4.53318,0.07275 5.66548,0.05971 z"
           id="path3"
           sodipodi:nodetypes="sssssss" />
        <path
           style="fill:#6d3c1f;stroke-width:1.41409"
           d="m 284.08874,81.701551 c 0.51586,-0.0075 0.92913,0.208 0.92913,0.464 0,0.255 -0.41441,0.492359 -0.92948,0.463 -0.91099,-0.05193 -3.56983,-0.0087 -4.47494,-0.02493 -0.54728,-0.0098 -0.95226,-0.246167 -0.92844,-0.482087 0.0238,-0.23592 0.47646,-0.47144 0.92844,-0.479686 0.92562,-0.01689 3.58086,0.07275 4.47529,0.05971 z"
           id="path4"
           sodipodi:nodetypes="sssssss" />
      </g>
    </g>
  </g>
</svg>
