<?xml version="1.0" encoding="UTF-8" standalone="no"?>
<!-- Created with Inkscape (http://www.inkscape.org/) -->

<svg
   width="44.310001mm"
   height="29mm"
   viewBox="0 0 44.310001 29"
   version="1.1"
   id="svg1"
   inkscape:version="1.4.3 (0d15f75, 2025-12-25)"
   sodipodi:docname="bee.svg"
   xmlns:inkscape="http://www.inkscape.org/namespaces/inkscape"
   xmlns:sodipodi="http://sodipodi.sourceforge.net/DTD/sodipodi-0.dtd"
   xmlns="http://www.w3.org/2000/svg"
   xmlns:svg="http://www.w3.org/2000/svg">
  <sodipodi:namedview
     id="namedview1"
     pagecolor="#ffffff"
     bordercolor="#000000"
     borderopacity="0.25"
     inkscape:showpageshadow="2"
     inkscape:pageopacity="0.0"
     inkscape:pagecheckerboard="0"
     inkscape:deskcolor="#d1d1d1"
     inkscape:document-units="mm"
     inkscape:zoom="5.8083615"
     inkscape:cx="58.880633"
     inkscape:cy="67.919326"
     inkscape:window-width="1920"
     inkscape:window-height="1017"
     inkscape:window-x="-8"
     inkscape:window-y="-8"
     inkscape:window-maximized="1"
     inkscape:current-layer="g212"
     showgrid="false" />
  <defs
     id="defs1" />
  <g
     inkscape:label="Layer 1"
     inkscape:groupmode="layer"
     id="layer1">
    <g
       id="g214"
       transform="matrix(0.5327959,0,0,0.5327959,-16.018271,-139.15726)">
      <g
         id="g213">
        <path
           style="fill:#404040"
           d="m 71.154,270.761 c 0,0.232 -0.096,0.465 -0.296,0.625 -0.169,0.136 -0.376,0.191 -0.577,0.168 -0.199,-0.017 -0.4,-0.113 -0.544,-0.289 l -0.433,-0.536 -4.244,-5.229 -3.684,-2.314 c -0.377,-0.24 -0.489,-0.729 -0.258,-1.105 0.242,-0.375 0.729,-0.488 1.106,-0.256 l 3.805,2.395 c 0.072,0.048 0.137,0.103 0.191,0.176 l 4.758,5.863 c 0.024,0.031 0.048,0.064 0.072,0.096 0.073,0.125 0.104,0.269 0.104,0.406 z"
           id="path182" />
        <g
           id="g183">
          <path
             style="fill:#404040"
             d="m 65.341,293.921 c -0.04,0.128 -0.097,0.256 -0.169,0.368 -0.4,0.688 -1.232,1.033 -2.033,0.793 l -1.025,-0.32 -1.498,-0.465 -1.241,3.308 -1.785,4.773 c -0.265,0.705 -0.939,1.146 -1.65,1.146 -0.048,0 -0.089,0 -0.136,-0.017 -0.16,0 -0.32,-0.04 -0.48,-0.097 -0.4,-0.144 -0.713,-0.424 -0.896,-0.769 -0.265,-0.44 -0.329,-0.984 -0.137,-1.497 l 1.594,-4.245 2.018,-5.389 c 0.329,-0.873 1.273,-1.338 2.171,-1.065 l 2.306,0.712 1.098,0.346 0.705,0.216 c 0.925,0.288 1.446,1.272 1.158,2.202 z"
             id="path183" />
        </g>
        <g
           id="g187">
          <g
             id="g184">
            <path
               style="fill:#404040"
               d="m 57.877,273.115 c -0.064,0.416 -0.297,0.801 -0.665,1.064 -0.28,0.2 -0.601,0.296 -0.921,0.296 -0.199,0 -0.4,-0.039 -0.584,-0.111 -0.289,-0.111 -0.545,-0.305 -0.729,-0.568 l -3.587,-5.069 c -0.265,-0.376 -0.346,-0.825 -0.257,-1.241 0.071,-0.385 0.296,-0.744 0.64,-0.993 0.217,-0.151 0.457,-0.248 0.697,-0.28 0.576,-0.08 1.178,0.16 1.529,0.665 l 3.597,5.069 c 0.248,0.351 0.337,0.768 0.28,1.168 z"
               id="path184" />
          </g>
          <g
             id="g185">
            <path
               style="fill:#404040"
               d="m 65.252,283.574 c -0.225,0.913 -1.041,1.529 -1.945,1.529 -0.152,0 -0.313,-0.024 -0.473,-0.063 l -2.019,-0.489 -3.187,-0.776 c -0.841,-0.2 -1.45,-0.922 -1.521,-1.787 l -0.537,-6.742 c 0,-0.032 0,-0.064 -0.008,-0.103 0,-0.273 0.048,-0.537 0.145,-0.777 0.264,-0.689 0.912,-1.209 1.705,-1.273 0.16,-0.008 0.313,0 0.465,0.024 0.896,0.144 1.609,0.873 1.689,1.817 l 0.04,0.522 0.376,4.772 0.521,0.128 3.275,0.801 c 1.081,0.254 1.739,1.344 1.474,2.417 z"
               id="path185" />
          </g>
          <g
             id="g186">
            <path
               style="fill:#505050"
               d="m 52.615,266.933 c 0.088,0.44 -0.201,0.857 -0.633,0.945 -0.048,0.008 -0.104,0.016 -0.152,0.016 -0.288,0 -0.561,-0.16 -0.696,-0.408 -0.04,-0.072 -0.072,-0.145 -0.089,-0.233 l -1.024,-5.094 c -0.081,-0.44 0.2,-0.857 0.633,-0.944 0.433,-0.089 0.856,0.192 0.944,0.624 l 0.873,4.373 z"
               id="path186" />
          </g>
        </g>
        <g
           id="g191">
          <g
             id="g188">
            <path
               style="fill:#404040"
               d="m 63.242,270.833 c -0.096,0.232 -0.256,0.439 -0.473,0.6 -0.271,0.201 -0.592,0.297 -0.896,0.297 -0.064,0 -0.129,0 -0.192,-0.008 -0.393,-0.057 -0.769,-0.256 -1.025,-0.601 l -2.466,-3.315 c -0.393,-0.528 -0.385,-1.234 -0.032,-1.746 0.088,-0.137 0.208,-0.256 0.345,-0.36 0.199,-0.143 0.424,-0.24 0.656,-0.28 0.537,-0.088 1.105,0.121 1.457,0.593 l 2.459,3.308 c 0.335,0.454 0.383,1.032 0.167,1.512 z"
               id="path187" />
          </g>
          <g
             id="g189">
            <path
               style="fill:#404040"
               d="m 65.854,278.144 c -0.209,0.104 -0.434,0.152 -0.648,0.152 -0.568,0 -1.105,-0.32 -1.362,-0.856 l -0.856,-1.786 -0.08,-0.168 -1.201,-2.507 c -0.201,-0.408 -0.193,-0.864 -0.024,-1.257 0.136,-0.32 0.393,-0.593 0.729,-0.753 0.271,-0.128 0.561,-0.169 0.832,-0.136 0.496,0.056 0.953,0.352 1.185,0.84 l 1.089,2.275 0.873,1.825 0.168,0.36 c 0.359,0.755 0.046,1.651 -0.705,2.011 z"
               id="path188" />
          </g>
          <g
             id="g190">
            <path
               style="fill:#505050"
               d="m 59.158,265.419 c -0.016,0.24 -0.152,0.457 -0.377,0.593 -0.111,0.065 -0.24,0.097 -0.368,0.097 -0.087,0 -0.176,-0.017 -0.256,-0.049 -0.168,-0.065 -0.313,-0.176 -0.4,-0.344 l -1.834,-3.26 c -0.2,-0.369 -0.073,-0.825 0.288,-1.033 0.36,-0.2 0.824,-0.072 1.025,0.289 l 1.834,3.267 c 0.08,0.143 0.112,0.295 0.088,0.44 z"
               id="path189" />
          </g>
        </g>
        <g
           id="g192">
          <path
             style="fill:#505050"
             d="m 56.428,314.31 c -0.121,0.328 -0.425,0.528 -0.754,0.528 -0.087,0 -0.184,-0.017 -0.271,-0.048 l -1.474,-0.537 c -0.257,-0.088 -0.448,-0.305 -0.505,-0.568 l -0.889,-3.731 c -0.032,-0.128 -0.032,-0.265 0,-0.393 l 1.777,-6.671 c 0.024,-0.089 0.064,-0.176 0.113,-0.249 0.184,-0.272 0.528,-0.416 0.865,-0.319 0.432,0.111 0.68,0.552 0.568,0.977 l -0.057,0.208 -1.666,6.271 0.744,3.124 1.065,0.384 c 0.419,0.152 0.635,0.609 0.484,1.024 z"
             id="path191" />
        </g>
        <g
           id="g193">
          <path
             style="fill:#404040"
             d="m 71.154,270.761 c 0,0.232 -0.096,0.465 -0.296,0.625 -0.169,0.136 -0.376,0.191 -0.577,0.168 -0.199,-0.017 -0.4,-0.113 -0.544,-0.289 l -0.433,-0.536 -4.244,-5.229 -3.684,-2.314 c -0.377,-0.24 -0.489,-0.729 -0.258,-1.105 0.242,-0.375 0.729,-0.488 1.106,-0.256 l 3.805,2.395 c 0.072,0.048 0.137,0.103 0.191,0.176 l 4.758,5.863 c 0.024,0.031 0.048,0.064 0.072,0.096 0.073,0.125 0.104,0.269 0.104,0.406 z"
             id="path192" />
        </g>
        <g
           id="g194">
          <path
             style="fill:#404040"
             d="m 87.294,303.506 c 0.206,0 0.415,-0.036 0.618,-0.112 0.91,-0.341 1.373,-1.356 1.031,-2.267 l -3.609,-9.63 c -0.327,-0.873 -1.275,-1.34 -2.168,-1.065 l -4.107,1.269 c -0.928,0.287 -1.449,1.273 -1.162,2.202 0.288,0.93 1.273,1.445 2.203,1.162 l 2.52,-0.779 3.026,8.076 c 0.264,0.707 0.936,1.144 1.648,1.144 z"
             id="path193" />
        </g>
        <g
           id="g198">
          <g
             id="g195">
            <path
               style="fill:#404040"
               d="m 86.945,274.459 c 0.502,0 0.996,-0.235 1.309,-0.677 l 3.59,-5.07 c 0.512,-0.723 0.342,-1.722 -0.381,-2.232 -0.721,-0.512 -1.722,-0.341 -2.232,0.382 l -3.59,5.071 c -0.512,0.721 -0.342,1.721 0.381,2.232 0.281,0.199 0.603,0.294 0.923,0.294 z"
               id="path194" />
          </g>
          <g
             id="g196">
            <path
               style="fill:#404040"
               d="m 79.925,285.087 c 0.157,0 0.315,-0.02 0.476,-0.059 l 5.205,-1.268 c 0.84,-0.204 1.454,-0.925 1.521,-1.787 l 0.534,-6.74 c 0.087,-1.103 -0.735,-2.066 -1.838,-2.154 -1.1,-0.078 -2.066,0.735 -2.153,1.838 l -0.42,5.297 -3.798,0.925 c -1.073,0.261 -1.733,1.345 -1.471,2.419 0.223,0.915 1.042,1.529 1.944,1.529 z"
               id="path195" />
          </g>
          <g
             id="g197">
            <path
               style="fill:#505050"
               d="m 91.408,267.878 c 0.373,0 0.708,-0.262 0.784,-0.642 l 1.019,-5.094 c 0.088,-0.434 -0.194,-0.855 -0.627,-0.942 -0.438,-0.091 -0.857,0.194 -0.943,0.628 l -1.019,5.094 c -0.087,0.434 0.194,0.855 0.628,0.941 0.053,0.011 0.105,0.015 0.158,0.015 z"
               id="path196" />
          </g>
        </g>
        <g
           id="g202">
          <g
             id="g199">
            <path
               style="fill:#404040"
               d="m 81.366,271.716 c 0.46,0 0.915,-0.21 1.212,-0.607 l 2.465,-3.316 c 0.496,-0.668 0.357,-1.613 -0.311,-2.11 -0.669,-0.495 -1.613,-0.357 -2.11,0.312 l -2.465,3.314 c -0.496,0.67 -0.357,1.613 0.31,2.111 0.271,0.198 0.588,0.296 0.899,0.296 z"
               id="path198" />
          </g>
          <g
             id="g200">
            <path
               style="fill:#404040"
               d="m 78.035,278.278 c 0.561,0 1.1,-0.315 1.36,-0.855 l 2.136,-4.461 c 0.359,-0.752 0.042,-1.652 -0.709,-2.012 -0.75,-0.36 -1.65,-0.042 -2.012,0.709 l -2.135,4.46 c -0.36,0.752 -0.043,1.651 0.708,2.012 0.211,0.1 0.432,0.147 0.652,0.147 z"
               id="path199" />
          </g>
          <g
             id="g201">
            <path
               style="fill:#505050"
               d="m 84.82,266.09 c 0.264,0 0.52,-0.138 0.658,-0.386 l 1.834,-3.266 c 0.203,-0.363 0.076,-0.822 -0.288,-1.027 -0.362,-0.203 -0.823,-0.074 -1.026,0.289 l -1.836,3.267 c -0.203,0.363 -0.074,0.823 0.289,1.026 0.117,0.066 0.244,0.097 0.369,0.097 z"
               id="path200" />
          </g>
        </g>
        <g
           id="g203">
          <path
             style="fill:#505050"
             d="m 87.561,314.823 c 0.091,0 0.184,-0.015 0.273,-0.048 l 1.475,-0.534 c 0.254,-0.092 0.444,-0.306 0.506,-0.568 l 0.887,-3.737 c 0.031,-0.129 0.029,-0.263 -0.004,-0.391 l -1.775,-6.673 c -0.113,-0.429 -0.553,-0.683 -0.979,-0.568 -0.428,0.114 -0.682,0.553 -0.568,0.98 l 1.723,6.477 -0.74,3.12 -1.068,0.388 c -0.415,0.15 -0.63,0.609 -0.48,1.025 0.115,0.327 0.422,0.529 0.75,0.529 z"
             id="path202" />
        </g>
        <g
           id="g204">
          <path
             style="fill:#404040"
             d="m 72.95,271.542 c 0.208,-0.018 0.407,-0.117 0.549,-0.292 l 4.673,-5.763 3.689,-2.32 c 0.375,-0.234 0.488,-0.728 0.252,-1.103 -0.234,-0.373 -0.728,-0.486 -1.103,-0.252 l -3.803,2.391 c -0.074,0.047 -0.141,0.105 -0.195,0.174 l -4.756,5.865 c -0.279,0.344 -0.227,0.848 0.117,1.127 0.169,0.136 0.376,0.192 0.577,0.173 z"
             id="path203" />
        </g>
        <path
           style="fill:#fece57"
           d="m 81.325,296.716 v 3.155 c 0,1.241 -0.239,2.419 -0.673,3.499 -0.472,1.21 -1.201,2.291 -2.105,3.196 -1.715,1.722 -4.085,2.778 -6.703,2.778 -0.04,0 -0.08,0 -0.129,-0.008 v 0.008 c -0.031,0 -0.063,0.009 -0.096,0.009 -0.072,0 -0.152,0.008 -0.232,0.008 -0.08,0 -0.152,0 -0.232,-0.008 -2.53,-0.057 -4.805,-1.098 -6.471,-2.77 -0.904,-0.906 -1.634,-1.987 -2.106,-3.196 -0.434,-1.081 -0.673,-2.259 -0.673,-3.499 v -3.156 c 0,-0.672 0.071,-1.33 0.208,-1.97 0.144,-0.713 0.376,-1.393 0.682,-2.034 0.191,-0.433 0.424,-0.841 0.68,-1.225 0.48,-0.728 1.065,-1.387 1.723,-1.947 0.736,-0.641 1.569,-1.161 2.482,-1.553 0.393,-0.168 0.801,-0.305 1.217,-0.425 0.721,-0.2 1.474,-0.304 2.258,-0.32 0.072,-0.008 0.152,-0.008 0.232,-0.008 0.04,0 0.088,0 0.129,0.008 v -0.008 c 0.039,0 0.071,0 0.104,-0.009 0.08,0 0.152,-0.008 0.225,-0.008 0.865,0 1.705,0.12 2.498,0.337 0.416,0.112 0.816,0.248 1.209,0.416 0.913,0.393 1.746,0.913 2.482,1.562 0.657,0.56 1.234,1.209 1.715,1.938 0.264,0.385 0.488,0.801 0.688,1.226 0,0.008 0,0.008 0,0.008 0.305,0.641 0.537,1.321 0.682,2.034 0.135,0.632 0.206,1.29 0.206,1.962 z"
           id="path204" />
        <path
           d="m 75.383,273.203 c 0,0.024 0,0.048 -0.008,0.071 -0.031,1.555 -1.297,2.803 -2.859,2.803 h -0.801 v 0.018 h -1 c -1.563,0 -2.828,-1.25 -2.859,-2.803 -0.008,-0.025 -0.008,-0.049 -0.008,-0.072 0,-1.073 0.584,-2.002 1.457,-2.491 0.416,-0.24 0.897,-0.376 1.41,-0.376 h 0.801 v -0.017 h 1 c 0.513,0 1.002,0.136 1.418,0.377 0.865,0.487 1.449,1.417 1.449,2.49 z"
           id="path205" />
        <path
           style="fill:#303030"
           d="m 82.863,281.811 c 0,0.953 -0.16,1.867 -0.44,2.724 -0.536,1.617 -1.554,3.027 -2.867,4.052 -0.473,0.377 -0.985,0.697 -1.522,0.961 -0.92,0.449 -1.921,0.737 -2.986,0.834 -0.264,0.023 -0.529,0.039 -0.793,0.039 h -2.539 v 0.017 h -2.73 c -0.264,0 -0.529,-0.009 -0.785,-0.04 -1.073,-0.088 -2.082,-0.385 -3.002,-0.842 -0.545,-0.256 -1.05,-0.576 -1.515,-0.952 -1.321,-1.025 -2.331,-2.435 -2.867,-4.053 -0.288,-0.857 -0.44,-1.771 -0.44,-2.722 0,-0.505 0.04,-0.994 0.129,-1.475 0.312,-1.834 1.209,-3.459 2.482,-4.701 0.056,-0.056 0.12,-0.111 0.176,-0.168 0.688,-0.633 1.482,-1.152 2.354,-1.537 0.729,-0.32 1.513,-0.545 2.339,-0.656 0.367,-0.049 0.745,-0.072 1.129,-0.072 h 2.531 v -0.017 h 2.738 c 0.376,0 0.753,0.024 1.121,0.071 0.824,0.113 1.609,0.337 2.339,0.665 0.864,0.377 1.657,0.897 2.347,1.53 0.063,0.057 0.128,0.111 0.184,0.176 1.281,1.233 2.179,2.867 2.49,4.693 0.087,0.481 0.127,0.97 0.127,1.473 z"
           id="path206" />
        <path
           style="fill:#404040"
           d="m 77.706,287.987 h -6.188 v 0.016 h -5.985 c -1.741,0 -3.153,1.412 -3.153,3.154 0,1.741 1.412,3.154 3.153,3.154 h 6.188 v -0.016 h 5.985 c 1.741,0 3.153,-1.413 3.153,-3.154 0,-1.742 -1.412,-3.154 -3.153,-3.154 z"
           id="path207" />
        <path
           style="fill:#404040"
           d="m 81.325,298.293 v 1.578 c 0,1.241 -0.239,2.419 -0.673,3.499 h -8.938 v 0.017 h -9.137 c -0.434,-1.081 -0.673,-2.259 -0.673,-3.499 v -1.578 h 9.61 v -0.017 z"
           id="path208" />
        <g
           id="g210">
          <g
             id="g209">
            <path
               style="fill:#c5d5d6;fill-opacity:0.80000001"
               d="m 74.015,278.738 c 1.373,-5.531 7.326,-1.696 17.692,-4.392 10.675,-2.779 20.478,-7.061 21.424,-3.431 0.943,3.632 -16.191,23.519 -26.867,26.297 -10.365,2.696 -12.033,-9.436 -12.07,-10.956 -0.036,-1.519 -0.345,-1.333 -0.179,-7.518 z"
               id="path209" />
          </g>
        </g>
        <g
           id="g212">
          <g
             id="g211">
            <path
               style="fill:#c5d5d6;fill-opacity:0.8"
               d="m 69.041,286.272 c -0.361655,3.7661 -1.722581,7.81955 -4.932348,10.09084 -3.294661,2.22096 -7.573942,1.14288 -10.821174,-0.6024 -6.395144,-3.48542 -11.714649,-8.6298 -16.535666,-14.02109 -2.444917,-2.9213 -5.022916,-5.88092 -6.477313,-9.44597 -0.992763,-1.98229 1.408374,-3.13784 3.066842,-2.73501 4.72449,0.5572 9.193917,2.30898 13.756084,3.57078 4.133496,1.27646 8.382489,2.31857 12.734963,2.33122 2.510573,0.15465 5.160869,-0.3294 7.541938,0.67231 1.639115,0.80511 2.015564,2.77305 1.882868,4.43052 0.06221,1.90889 -0.03915,3.80959 -0.216194,5.7088 z"
               id="path210" />
          </g>
        </g>
      </g>
    </g>
  </g>
</svg>
