<?xml version="1.0" encoding="UTF-8" standalone="no"?>
<!-- Created with Inkscape (http://www.inkscape.org/) -->

<svg
   width="44.310001mm"
   height="30.1mm"
   viewBox="0 0 44.310001 30.1"
   version="1.1"
   id="svg1"
   inkscape:version="1.4.3 (0d15f75, 2025-12-25)"
   sodipodi:docname="bee.svg"
   xmlns:inkscape="http://www.inkscape.org/namespaces/inkscape"
   xmlns:sodipodi="http://sodipodi.sourceforge.net/DTD/sodipodi-0.dtd"
   xmlns="http://www.w3.org/2000/svg"
   xmlns:svg="http://www.w3.org/2000/svg">
  <sodipodi:namedview
     id="namedview1"
     pagecolor="#ffffff"
     bordercolor="#000000"
     borderopacity="0.25"
     inkscape:showpageshadow="2"
     inkscape:pageopacity="0.0"
     inkscape:pagecheckerboard="0"
     inkscape:deskcolor="#d1d1d1"
     inkscape:document-units="mm"
     inkscape:zoom="0.72604517"
     inkscape:cx="396.66953"
     inkscape:cy="561.25984"
     inkscape:window-width="1920"
     inkscape:window-height="1017"
     inkscape:window-x="-8"
     inkscape:window-y="-8"
     inkscape:window-maximized="1"
     inkscape:current-layer="layer1" />
  <defs
     id="defs1" />
  <g
     inkscape:label="Layer 1"
     inkscape:groupmode="layer"
     id="layer1">
    <path
       style="fill:#1d262d;stroke-width:0.264583"
       d="m 39.33898,9.6559047 c -0.63262,0 -1.23587,0.068 -1.79202,0.188912 -0.74877,0.07064 -1.49622,0.1555753 -2.24287,0.2476503 -0.966,0.119327 -1.9312,0.245798 -2.89931,0.348721 -1.36551,0.145521 -2.74611,0.24421 -4.11797,0.213254 0.48815,-0.8498423 1.00991,-1.6803693 1.57162,-2.4833793 0.50112,-0.716492 0.37307,-1.516856 0.60616,-2.325688 0.0315,-0.109537 -0.003,-0.227277 -0.095,-0.294745 -0.15346,-0.112713 -0.37703,-0.03519 -0.41857,0.150547 -0.23998,1.071563 -0.94642,2.006071 -1.58486,2.918619 -0.44847,0.64135 -0.87286,1.299634 -1.27476,1.9714113 -0.20135,-0.01667 -0.4027,-0.03598 -0.60325,-0.05953 -0.20055,-1.5613063 -1.09114,-2.8821063 -2.32754,-3.5896023 0.59002,-0.100806 1.04749,-0.810948 1.04749,-1.673489 0,-0.931598 -0.5334,-1.686984 -1.19142,-1.686984 -0.0275,0 -0.0545,0.0032 -0.0818,0.0058 -0.11112,-0.168539 -0.25453,-0.313796 -0.41778,-0.434446 0.0667,-0.05953 0.1323,-0.119856 0.19685,-0.180181 0.22252,-0.207433 0.43286,-0.403225 0.67046,-0.532606 0.0389,-0.0209 0.0659,-0.05874 0.0736,-0.101865 0.12383,-0.696118 0.24818,-1.442243 0.31803,-2.179637 0.008,-0.0799 -0.0511,-0.150813 -0.13097,-0.15822099509 C 24.56467,-0.0056543 24.49426,0.0515157 24.48685,0.1316787 c -0.05,0.52758 -0.12859,1.061509 -0.21484,1.578505 -2.6e-4,0.0019 -7.9e-4,0.004 -0.001,0.0058 -0.0283,0.169598 -0.0574,0.337609 -0.0868,0.502973 l -1.19909,0.654315 c -0.26723,-0.09393 -0.55007,-0.133615 -0.83423,-0.138642 -0.28417,0.005 -0.56701,0.04471 -0.83424,0.138642 l -1.19909,-0.654315 c -0.0294,-0.165364 -0.0585,-0.33311 -0.0868,-0.502973 -2.7e-4,-0.0019 -7.9e-4,-0.004 -0.001,-0.0058 -0.0863,-0.516996 -0.16483,-1.050925 -0.21484,-1.578505 -0.008,-0.0799 -0.078,-0.137054 -0.15822,-0.13123299509 C 19.5768,0.0081457 19.51832,0.0790257 19.52573,0.1586667 c 0.0699,0.737658 0.1942,1.483519 0.31803,2.179637 0.008,0.04339 0.0347,0.08096 0.0736,0.101865 0.2376,0.129646 0.44794,0.325437 0.67046,0.532606 0.0646,0.06033 0.13044,0.12065 0.19685,0.180181 -0.16325,0.120386 -0.30665,0.265907 -0.41778,0.434446 -0.027,-0.0026 -0.0542,-0.0058 -0.0818,-0.0058 -0.65801,0 -1.19141,0.755386 -1.19141,1.686984 0,0.862541 0.45746,1.572683 1.04748,1.673489 -1.2364,0.707232 -2.12698,2.028296 -2.32754,3.5896023 -0.20055,0.02381 -0.4019,0.04286 -0.60325,0.05953 -0.4019,-0.6717773 -0.82603,-1.3300613 -1.27476,-1.9714113 -0.63818,-0.912548 -1.34461,-1.847056 -1.58486,-2.918619 -0.0415,-0.185737 -0.26511,-0.262995 -0.41857,-0.150547 -0.0918,0.06747 -0.12673,0.185208 -0.095,0.294745 0.2331,0.808832 0.10504,1.609196 0.60616,2.325688 0.56171,0.80301 1.08347,1.633537 1.57162,2.4833793 -1.37186,0.03096 -2.75246,-0.06773 -4.11797,-0.213254 C 10.92914,10.338 9.96368,10.211794 8.99768,10.092467 8.25129,10.000127 7.50385,9.9154607 6.75481,9.8448167 6.19866,9.7239017 5.59514,9.6559047 4.96279,9.6559047 2.22197,9.6559047 0,10.902621 0,12.440644 c 0,0.849313 0.67813,1.608931 1.74651,2.119842 0.0614,0.05027 0.12753,0.09948 0.19341,0.14896 0.37862,0.284163 0.7792,0.539221 1.19619,0.762794 0.84111,0.451114 1.75021,0.775494 2.68737,0.957527 0.36803,0.07144 0.74057,0.119856 1.11442,0.146579 0.6059,0.999331 1.79335,1.678517 3.15939,1.678517 0.0974,0 0.19288,-0.0061 0.2884,-0.01297 0.33628,0.05398 0.68342,0.0058 1.01785,-0.06535 1.82827,-0.388673 3.47319,-1.405996 4.8768,-2.640277 0.73819,-0.649023 1.42319,-1.369219 1.95104,-2.197365 0.21934,0.479161 0.50959,0.913078 0.85672,1.285082 -0.1352,0.380471 -0.25744,0.786606 -0.36592,1.213643 -0.20055,-0.115093 -0.4027,-0.227012 -0.60801,-0.33311 -0.2921,-0.150812 -0.65061,-0.291835 -0.93504,-0.126735 -0.15663,0.09075 -0.25241,0.256381 -0.33972,0.415131 -1.22873,2.234935 -2.1971,4.613013 -2.87999,7.070203 -0.29819,1.07315 -0.56965,2.21244 -1.24381,3.07948 -0.11695,0.15028 -0.0344,0.37201 0.15028,0.41857 0.1106,0.028 0.22331,-0.0201 0.28787,-0.11403 0.47598,-0.69453 0.99907,-1.56978 1.23322,-2.41221 0.68263,-2.45745 1.82695,-4.37012 3.05568,-6.605061 0.0873,-0.15875 0.18309,-0.324379 0.33972,-0.415131 0.21749,-0.126207 0.47784,-0.07329 0.71887,0.02593 -0.22039,1.164696 -0.34369,2.451892 -0.34369,3.806562 0,5.17102 1.78276,9.3689 3.99362,9.44192 2.21086,-0.0733 3.99362,-4.27117 3.99362,-9.44192 0,-1.35467 -0.12329,-2.641866 -0.34369,-3.806562 0.24103,-0.09922 0.50138,-0.151871 0.71887,-0.02593 0.15663,0.09102 0.25241,0.256381 0.33973,0.415131 1.22872,2.234941 2.37304,4.147611 3.05567,6.605061 0.23415,0.84243 0.75724,1.71794 1.23322,2.41221 0.0646,0.0939 0.17754,0.14208 0.28787,0.11403 0.18441,-0.0468 0.26696,-0.26855 0.15028,-0.41857 -0.67416,-0.86704 -0.94562,-2.00633 -1.24381,-3.07948 -0.68262,-2.45745 -1.65126,-4.835268 -2.87998,-7.070203 -0.0873,-0.15875 -0.1831,-0.324379 -0.33973,-0.415131 -0.28443,-0.1651 -0.64294,-0.02408 -0.93504,0.126735 -0.20531,0.106098 -0.40772,0.218017 -0.60801,0.33311 -0.10874,-0.427037 -0.23072,-0.833437 -0.36592,-1.213643 0.34713,-0.372269 0.63738,-0.806186 0.85672,-1.285082 0.52811,0.828146 1.21285,1.548342 1.95104,2.197365 1.40361,1.234281 3.04853,2.251604 4.8768,2.640277 0.33443,0.07117 0.68157,0.119327 1.01785,0.06535 0.0955,0.0069 0.19103,0.01297 0.2884,0.01297 1.36604,0 2.55349,-0.679186 3.15939,-1.678517 0.37385,-0.02646 0.74639,-0.07488 1.11442,-0.146579 0.93689,-0.182033 1.84626,-0.506413 2.68737,-0.957527 0.41725,-0.223838 0.81757,-0.478631 1.19619,-0.762794 0.0659,-0.04948 0.13176,-0.09869 0.19341,-0.14896 1.06812,-0.510911 1.74625,-1.270529 1.74625,-2.119842 -5.3e-4,-1.538023 -2.22224,-2.7847393 -4.96306,-2.7847393 z"
       id="path6-57" />
  </g>
</svg>
