<?xml version="1.0" encoding="UTF-8" standalone="no"?>
<!-- Created with Inkscape (http://www.inkscape.org/) -->

<svg
   width="25.700001mm"
   height="31.4mm"
   viewBox="0 0 25.700001 31.4"
   version="1.1"
   id="svg1"
   xmlns="http://www.w3.org/2000/svg"
   xmlns:svg="http://www.w3.org/2000/svg">
  <defs
     id="defs1" />
  <g
     id="layer1">
    <g
       id="g49"
       transform="matrix(0.26458333,0,0,0.26458333,-12.732241,-83.172409)">
		<g
   id="g34">
			<rect
   x="86.900002"
   y="352.306"
   width="22.035999"
   height="2.658"
   id="rect33" />

		</g>

		<g
   id="g40">
			<g
   id="g35">
				<path
   d="m 112.163,344.417 c -1.262,-1.096 -2.726,-1.95 -3.929,-3.111 -3.1,-2.989 -3.091,-6.506 -2.793,-10.486 -0.435,-0.021 -4.516,-0.331 -5.068,-0.145 0,-0.186 0,-1.846 0,-1.847 0,0 -0.064,0 -0.107,0 v 0 c -0.161,0 -1.068,0 -2.026,0 -0.128,0 -0.253,0 -0.381,0 -0.959,0 -1.865,0 -2.026,0 v 0 c -0.043,0 -0.107,0 -0.107,0 0,0 0,1.66 0,1.847 -0.551,-0.187 -4.633,0.124 -5.068,0.145 0.298,3.98 0.306,7.496 -2.793,10.486 -1.203,1.16 -2.667,2.015 -3.929,3.111 -2.663,2.312 -2.277,4.672 -2.277,7.888 h 14.067 4.647 14.067 c 0,-3.216 0.386,-5.575 -2.277,-7.888 z"
   id="path34" />

			</g>

			<g
   id="g36">
				<path
   d="M 84.089,348.27 70.521,334.702 c -2.646,-2.646 -5.291,-5.292 -7.951,-7.924 -0.332,-0.328 -0.746,-0.736 -0.998,-1.296 -0.419,-0.933 -0.34,-2.063 -0.27,-3.061 0.026,-0.374 0.053,-0.735 0.046,-1.057 -0.016,-0.711 -0.011,-1.424 -0.006,-2.137 l 0.005,-1.048 h 1.796 l -0.005,1.061 c -0.005,0.695 -0.01,1.39 0.005,2.083 0.008,0.373 -0.019,0.791 -0.049,1.224 -0.055,0.785 -0.118,1.677 0.117,2.198 0.114,0.253 0.372,0.509 0.622,0.755 2.663,2.635 5.311,5.283 7.959,7.932 L 85.36,347 Z"
   id="path35" />

			</g>

			<g
   id="g37">
				<path
   d="m 92.541,334.171 -4.477,-4.477 c -0.46,-0.46 -0.948,-0.913 -1.441,-1.37 -1.341,-1.245 -2.728,-2.532 -3.739,-4.1 -1.06,-1.644 -0.956,-3.281 -0.854,-4.864 0.029,-0.466 0.061,-0.941 0.061,-1.429 v -3.551 h 1.795 v 3.551 c 0,0.527 -0.032,1.041 -0.064,1.544 -0.094,1.469 -0.167,2.629 0.572,3.776 0.889,1.379 2.192,2.588 3.452,3.758 0.509,0.473 1.014,0.941 1.489,1.417 l 4.477,4.477 z"
   id="path36" />

			</g>

			<g
   id="g38">
				<path
   d="m 111.746,348.27 -1.269,-1.27 0.54,-0.54 c 6.457,-6.456 13.133,-13.133 19.732,-19.671 l 0.212,-0.21 c 0.726,-0.713 1.412,-1.386 1.632,-2.229 0.196,-0.756 0.163,-1.603 0.112,-2.405 -0.056,-0.885 -0.04,-1.757 -0.025,-2.599 0.007,-0.387 0.014,-0.776 0.014,-1.167 h 1.796 c 0,0.402 -0.007,0.8 -0.014,1.199 -0.015,0.843 -0.029,1.64 0.022,2.454 0.06,0.947 0.097,1.957 -0.167,2.969 -0.345,1.326 -1.283,2.247 -2.111,3.06 l -0.206,0.203 c -6.596,6.534 -13.27,13.209 -19.726,19.665 z"
   id="path37" />

			</g>

			<g
   id="g39">
				<path
   d="m 103.048,334.623 -1.27,-1.27 1.331,-1.332 c 1.609,-1.609 3.218,-3.218 4.831,-4.824 0.301,-0.299 0.669,-0.622 1.062,-0.967 1.223,-1.071 2.744,-2.405 2.748,-3.642 0.005,-1.392 -0.009,-2.784 -0.023,-4.178 -0.012,-1.193 -0.025,-2.386 -0.025,-3.58 h 1.796 c 0,1.187 0.012,2.374 0.025,3.561 0.014,1.401 0.029,2.803 0.023,4.203 -0.008,2.046 -1.867,3.676 -3.36,4.985 -0.362,0.317 -0.702,0.614 -0.979,0.89 -1.612,1.604 -3.22,3.213 -4.828,4.821 z"
   id="path38" />

			</g>

		</g>

		<g
   id="g48">
			<g
   id="g41">
				<path
   d="m 75.494,354.964 h 44.183 c 0.363,0.121 0.285,5.43 0.309,6.035 0.088,2.193 0.154,4.387 0.207,6.582 0.102,4.149 -0.022,8.355 0.32,12.487 1.06,12.824 -6.474,27.478 -19.578,30.828 -13.859,3.543 -27.282,-7.424 -29.031,-21.104 -0.116,-0.907 -0.18,-1.821 -0.19,-2.735 -0.115,-10.31 1.717,-20.773 3.559,-30.889 0.071,-0.402 0.145,-0.803 0.221,-1.204 z"
   id="path40" />

			</g>

			<g
   id="g44">
				<g
   id="g42">
					<path
   d="m 50.009,391.284 h -1.795 c 0,-0.606 0.015,-1.206 0.03,-1.807 0.029,-1.167 0.057,-2.269 -0.023,-3.4 -0.11,-1.565 -0.173,-2.976 0.169,-4.4 0.419,-1.748 1.378,-2.656 2.488,-3.709 0.654,-0.621 1.305,-1.304 1.934,-1.964 0.47,-0.494 0.94,-0.987 1.418,-1.463 l 5.667,-5.647 c 2.048,-2.039 4.25,-4.311 6.735,-6.945 0.687,-0.729 1.466,-1.553 2.455,-2.118 1.455,-0.83 3.278,-0.703 4.889,-0.59 0.509,0.036 1.003,0.071 1.46,0.071 v 1.795 c -0.496,0 -1.033,-0.037 -1.586,-0.075 -1.421,-0.098 -2.891,-0.202 -3.875,0.359 -0.757,0.431 -1.408,1.122 -2.038,1.791 -2.498,2.648 -4.713,4.932 -6.774,6.985 l -5.667,5.646 c -0.467,0.466 -0.926,0.948 -1.386,1.43 -0.644,0.677 -1.311,1.376 -1.998,2.029 -1.013,0.961 -1.682,1.596 -1.978,2.826 -0.282,1.175 -0.223,2.441 -0.124,3.855 0.085,1.217 0.056,2.414 0.026,3.572 -0.012,0.583 -0.027,1.169 -0.027,1.759 z"
   id="path41" />

				</g>

				<g
   id="g43">
					<path
   d="m 61.007,433.002 c -4.068,-11.474 -1.47,-23.927 1.285,-34.7 1.648,-6.446 3.897,-13.644 9.739,-17.487 l 0.986,1.501 c -5.306,3.489 -7.421,10.311 -8.986,16.431 -2.689,10.516 -5.232,22.657 -1.332,33.655 z"
   id="path42" />

				</g>

			</g>

			<g
   id="g47">
				<g
   id="g45">
					<path
   d="m 143.324,391.293 c -0.017,-1.759 -0.029,-3.481 0.006,-5.212 0.008,-0.41 0.033,-0.827 0.057,-1.244 0.066,-1.12 0.128,-2.177 -0.125,-3.154 -0.29,-1.119 -1.665,-2.324 -2.77,-3.293 -0.431,-0.377 -0.839,-0.736 -1.176,-1.072 l -5.136,-5.128 c -2.239,-2.237 -4.477,-4.474 -6.709,-6.717 -0.398,-0.4 -0.797,-0.852 -1.207,-1.317 -1.346,-1.527 -2.738,-3.106 -4.466,-3.173 -0.694,-0.024 -1.39,0.014 -2.126,0.057 -0.592,0.034 -1.184,0.067 -1.774,0.067 v -1.795 c 0.557,0 1.114,-0.032 1.671,-0.065 0.747,-0.043 1.521,-0.088 2.299,-0.058 2.498,0.096 4.223,2.052 5.745,3.779 0.385,0.438 0.76,0.864 1.134,1.239 2.23,2.242 4.467,4.477 6.704,6.713 l 5.136,5.127 c 0.313,0.312 0.692,0.643 1.091,0.993 1.357,1.19 2.896,2.538 3.325,4.192 0.324,1.251 0.251,2.501 0.18,3.71 -0.023,0.395 -0.047,0.787 -0.054,1.176 -0.035,1.705 -0.022,3.413 -0.006,5.158 z"
   id="path44" />

				</g>

				<g
   id="g46">
					<path
   d="m 131.433,433.002 -1.692,-0.6 c 3.9,-10.998 1.357,-23.139 -1.332,-33.655 -1.565,-6.12 -3.68,-12.942 -8.986,-16.431 l 0.986,-1.501 c 5.842,3.843 8.091,11.041 9.739,17.487 2.755,10.773 5.353,23.227 1.285,34.7 z"
   id="path45" />

				</g>

			</g>

		</g>

	</g>
  </g>
</svg>
