<?xml version="1.0" encoding="UTF-8" standalone="no"?>
<!-- Created with Inkscape (http://www.inkscape.org/) -->

<svg
   width="21.6mm"
   height="34.700001mm"
   viewBox="0 0 21.6 34.700001"
   version="1.1"
   id="svg1"
   sodipodi:docname="beetle.svg"
   inkscape:version="1.4.3 (0d15f75, 2025-12-25)"
   xmlns:inkscape="http://www.inkscape.org/namespaces/inkscape"
   xmlns:sodipodi="http://sodipodi.sourceforge.net/DTD/sodipodi-0.dtd"
   xmlns="http://www.w3.org/2000/svg"
   xmlns:svg="http://www.w3.org/2000/svg">
  <sodipodi:namedview
     id="namedview1"
     pagecolor="#ffffff"
     bordercolor="#000000"
     borderopacity="0.25"
     inkscape:showpageshadow="2"
     inkscape:pageopacity="0.0"
     inkscape:pagecheckerboard="0"
     inkscape:deskcolor="#d1d1d1"
     inkscape:document-units="mm"
     inkscape:zoom="4.8559639"
     inkscape:cx="50.453423"
     inkscape:cy="60.647073"
     inkscape:window-width="1920"
     inkscape:window-height="1017"
     inkscape:window-x="-8"
     inkscape:window-y="-8"
     inkscape:window-maximized="1"
     inkscape:current-layer="g306" />
  <defs
     id="defs1" />
  <g
     id="g306"
     inkscape:label="beetle"
     transform="matrix(0.26458893,0,0,0.26458893,-110.42707,-92.636537)">
    <path
       id="path230"
       d="m 3557.72,789.859 c 0,-25.91 -54.63,-46.89 -122.03,-46.89 -67.39,0 -122.03,20.98 -122.03,46.89 0,25.903 54.64,46.891 122.03,46.891 67.4,0 122.03,-20.988 122.03,-46.891"
       style="fill:#fbb040;fill-opacity:1;fill-rule:nonzero;stroke:none"
       transform="matrix(0.13333333,0,0,-0.13333333,0,481.08)" />
    <path
       id="path231"
       d="m 3362.45,769.242 c 9.9,0 20.66,3.75 32.06,7.707 13.2,4.551 26.84,9.313 41.05,9.313 14.22,0 27.86,-4.762 41.07,-9.313 11.39,-3.957 22.15,-7.707 32.06,-7.707 17.69,0 28.93,11.129 35.39,36.528 l -0.03,-0.231 c -7.73,-39.141 -22.95,-42.43 -36.59,-42.43 -8.65,0 -18.71,1.911 -29.38,3.961 -12.79,2.418 -27.28,5.211 -42.39,5.211 -15.1,0 -29.63,-2.793 -42.44,-5.242 -10.68,-2.019 -20.74,-3.969 -29.35,-3.969 -13.64,0 -28.88,3.289 -36.6,42.43 l -0.16,0.949 c 6.5,-25.48 17.7,-37.207 35.31,-37.207 z m -48.75,20.309 c 0.85,0.789 1.58,1.609 2.46,2.347 2.41,-8.816 5.57,-16.058 9.3,-22.078 10.27,-8.308 26.64,-15.25 46.92,-20 7.54,0.7 15.29,1.93 23.49,3.5 12.79,2.45 26.02,4.981 39.82,4.981 13.77,0 27,-2.531 39.79,-4.961 8.24,-1.59 16.02,-2.801 23.52,-3.52 20.26,4.75 36.59,11.66 46.83,19.961 3.78,6.008 6.92,13.25 9.36,22.141 0.89,-0.731 1.65,-1.582 2.5,-2.34 0,0.098 0.03,0.188 0.03,0.277 0,10.711 -9.43,20.571 -25.17,28.45 -5.46,-30.079 -14.87,-35.079 -23.86,-35.079 -7.57,0 -17.22,3.36 -27.47,6.918 -13.62,4.711 -29.07,10.094 -45.66,10.094 -16.58,0 -32,-5.383 -45.64,-10.094 -10.23,-3.558 -19.91,-6.918 -27.47,-6.918 -6.06,0 -17.42,0.02 -23.81,34.961 -15.61,-7.863 -24.98,-17.671 -24.98,-28.332 0,-0.089 0.04,-0.179 0.04,-0.308"
       style="fill:#000000;fill-opacity:1;fill-rule:nonzero;stroke:none"
       transform="matrix(0.13333333,0,0,-0.13333333,0,481.08)" />
    <path
       id="path232"
       d="m 3218.98,820.82 v -86.871 c 0,-22.769 18.46,-41.238 41.25,-41.238 V 862.07 c -22.79,0 -41.25,-18.488 -41.25,-41.25"
       style="fill:#000000;fill-opacity:1;fill-rule:nonzero;stroke:none"
       transform="matrix(0.13333333,0,0,-0.13333333,0,481.08)" />
    <path
       id="path233"
       d="m 3239.61,728.852 v -30.961 c 0,-22.77 18.46,-41.231 41.25,-41.231 v 72.192 h -41.25"
       style="fill:#000000;fill-opacity:1;fill-rule:nonzero;stroke:none"
       transform="matrix(0.13333333,0,0,-0.13333333,0,481.08)" />
    <path
       id="path234"
       d="m 3246.04,841.73 c -3.86,0 -6.99,3.129 -6.99,6.981 v 82.488 c 0,6.5 -5.29,11.77 -11.74,11.77 -6.49,0 -11.78,-5.27 -11.78,-11.77 0,-3.879 -3.13,-6.988 -7,-6.988 -3.86,0 -6.96,3.109 -6.96,6.988 0,14.199 11.52,25.742 25.74,25.742 14.18,0 25.73,-11.543 25.73,-25.742 v -82.488 c 0,-3.852 -3.13,-6.981 -7,-6.981"
       style="fill:#000000;fill-opacity:1;fill-rule:nonzero;stroke:none"
       transform="matrix(0.13333333,0,0,-0.13333333,0,481.08)" />
    <path
       id="path235"
       d="m 3246.04,841.73 c -3.86,0 -6.99,3.129 -6.99,6.981 v 82.488 c 0,14.199 11.55,25.742 25.74,25.742 14.21,0 25.73,-11.543 25.73,-25.742 0,-3.879 -3.1,-6.988 -6.96,-6.988 -3.87,0 -7,3.109 -7,6.988 0,6.5 -5.29,11.77 -11.77,11.77 -6.49,0 -11.75,-5.27 -11.75,-11.77 v -82.488 c 0,-3.852 -3.13,-6.981 -7,-6.981"
       style="fill:#000000;fill-opacity:1;fill-rule:nonzero;stroke:none"
       transform="matrix(0.13333333,0,0,-0.13333333,0,481.08)" />
    <path
       id="path236"
       d="m 3230.09,820.57 -28.52,28.539 h 28.52 z"
       style="fill:#000000;fill-opacity:1;fill-rule:nonzero;stroke:none"
       transform="matrix(0.13333333,0,0,-0.13333333,0,481.08)" />
    <path
       id="path237"
       d="m 3230.09,770.199 -28.52,28.539 h 28.52 z"
       style="fill:#000000;fill-opacity:1;fill-rule:nonzero;stroke:none"
       transform="matrix(0.13333333,0,0,-0.13333333,0,481.08)" />
    <path
       id="path238"
       d="m 3230.09,719.809 -28.52,28.562 h 28.52 z"
       style="fill:#000000;fill-opacity:1;fill-rule:nonzero;stroke:none"
       transform="matrix(0.13333333,0,0,-0.13333333,0,481.08)" />
    <path
       id="path239"
       d="m 3652.37,820.82 v -86.871 c 0,-22.769 -18.45,-41.238 -41.24,-41.238 V 862.07 c 22.79,0 41.24,-18.488 41.24,-41.25"
       style="fill:#000000;fill-opacity:1;fill-rule:nonzero;stroke:none"
       transform="matrix(0.13333333,0,0,-0.13333333,0,481.08)" />
    <path
       id="path240"
       d="m 3631.76,728.852 v -30.961 c 0,-22.77 -18.45,-41.231 -41.25,-41.231 v 72.192 h 41.25"
       style="fill:#000000;fill-opacity:1;fill-rule:nonzero;stroke:none"
       transform="matrix(0.13333333,0,0,-0.13333333,0,481.08)" />
    <path
       id="path241"
       d="m 3625.31,841.73 c 3.89,0 6.99,3.129 6.99,6.981 v 82.488 c 0,6.5 5.29,11.77 11.78,11.77 6.49,0 11.77,-5.27 11.77,-11.77 0,-3.879 3.14,-6.988 6.97,-6.988 3.86,0 6.99,3.109 6.99,6.988 0,14.199 -11.55,25.742 -25.73,25.742 -14.18,0 -25.73,-11.543 -25.73,-25.742 v -82.488 c 0,-3.852 3.13,-6.981 6.96,-6.981"
       style="fill:#000000;fill-opacity:1;fill-rule:nonzero;stroke:none"
       transform="matrix(0.13333333,0,0,-0.13333333,0,481.08)" />
    <path
       id="path242"
       d="m 3625.31,841.73 c 3.89,0 6.99,3.129 6.99,6.981 v 82.488 c 0,14.199 -11.52,25.742 -25.7,25.742 -14.21,0 -25.76,-11.543 -25.76,-25.742 0,-3.879 3.13,-6.988 6.99,-6.988 3.85,0 6.99,3.109 6.99,6.988 0,6.5 5.29,11.77 11.78,11.77 6.49,0 11.75,-5.27 11.75,-11.77 v -82.488 c 0,-3.852 3.13,-6.981 6.96,-6.981"
       style="fill:#000000;fill-opacity:1;fill-rule:nonzero;stroke:none"
       transform="matrix(0.13333333,0,0,-0.13333333,0,481.08)" />
    <path
       id="path243"
       d="m 3641.29,820.57 28.52,28.539 h -28.52 z"
       style="fill:#000000;fill-opacity:1;fill-rule:nonzero;stroke:none"
       transform="matrix(0.13333333,0,0,-0.13333333,0,481.08)" />
    <path
       id="path244"
       d="m 3641.29,770.199 28.52,28.539 h -28.52 z"
       style="fill:#000000;fill-opacity:1;fill-rule:nonzero;stroke:none"
       transform="matrix(0.13333333,0,0,-0.13333333,0,481.08)" />
    <path
       id="path245"
       d="m 3641.29,719.809 28.52,28.562 h -28.52 z"
       style="fill:#000000;fill-opacity:1;fill-rule:nonzero;stroke:none"
       transform="matrix(0.13333333,0,0,-0.13333333,0,481.08)" />
    <path
       id="path246"
       d="m 3174.63,483.301 c 3.86,0 7,-3.11 7,-6.992 V 351.91 c 0,-6.5 5.28,-11.769 11.74,-11.769 6.52,0 11.77,5.269 11.77,11.769 0,3.852 3.14,6.988 7,6.988 3.86,0 7,-3.136 7,-6.988 0,-14.211 -11.56,-25.75 -25.77,-25.75 -14.19,0 -25.7,11.539 -25.7,25.75 v 124.43 c 0,3.851 3.1,6.961 6.96,6.961"
       style="fill:#000000;fill-opacity:1;fill-rule:nonzero;stroke:none"
       transform="matrix(0.13333333,0,0,-0.13333333,0,481.08)" />
    <path
       id="path247"
       d="m 3174.63,483.301 c 3.86,0 7,-3.11 7,-6.992 V 351.91 c 0,-14.211 -11.56,-25.75 -25.74,-25.75 -14.18,0 -25.74,11.539 -25.74,25.75 0,3.852 3.14,6.988 7,6.988 3.86,0 7,-3.136 7,-6.988 0,-6.5 5.25,-11.769 11.74,-11.769 6.49,0 11.78,5.269 11.78,11.769 v 124.43 c 0,3.851 3.1,6.961 6.96,6.961"
       style="fill:#000000;fill-opacity:1;fill-rule:nonzero;stroke:none"
       transform="matrix(0.13333333,0,0,-0.13333333,0,481.08)" />
    <path
       id="path248"
       d="m 3182.42,467.109 c -6.08,-6.07 -15.89,-6.07 -21.97,0 v 0 c -6.08,6.063 -6.08,15.891 0,21.981 l 103.23,103.211 c 6.04,6.051 15.89,6.051 21.97,0 v 0 c 6.04,-6.063 6.04,-15.903 0,-21.981 L 3182.42,467.109"
       style="fill:#000000;fill-opacity:1;fill-rule:nonzero;stroke:none"
       transform="matrix(0.13333333,0,0,-0.13333333,0,481.08)" />
    <path
       id="path249"
       d="m 3276.12,567.539 c -8.58,0 -15.55,6.941 -15.55,15.52 v 0 c 0,8.601 6.97,15.523 15.55,15.543 l 145.96,-0.02 c 8.58,0 15.54,-6.922 15.54,-15.531 v 0 c 0,-8.571 -6.96,-15.531 -15.54,-15.531 l -145.96,0.019"
       style="fill:#000000;fill-opacity:1;fill-rule:nonzero;stroke:none"
       transform="matrix(0.13333333,0,0,-0.13333333,0,481.08)" />
    <path
       id="path250"
       d="m 3696.72,483.301 c -3.86,0 -7,-3.11 -7,-6.992 V 351.91 c 0,-6.5 -5.25,-11.769 -11.74,-11.769 -6.52,0 -11.77,5.269 -11.77,11.769 0,3.852 -3.14,6.988 -7,6.988 -3.86,0 -7,-3.136 -7,-6.988 0,-14.211 11.55,-25.75 25.77,-25.75 14.18,0 25.74,11.539 25.74,25.75 v 124.43 c 0,3.851 -3.14,6.961 -7,6.961"
       style="fill:#000000;fill-opacity:1;fill-rule:nonzero;stroke:none"
       transform="matrix(0.13333333,0,0,-0.13333333,0,481.08)" />
    <path
       id="path251"
       d="m 3696.72,483.301 c -3.86,0 -7,-3.11 -7,-6.992 V 351.91 c 0,-14.211 11.55,-25.75 25.77,-25.75 14.18,0 25.71,11.539 25.74,25.75 0,3.852 -3.14,6.988 -7,6.988 -3.86,0 -6.99,-3.136 -6.99,-6.988 0,-6.5 -5.29,-11.769 -11.75,-11.769 -6.52,0 -11.77,5.269 -11.77,11.769 v 124.43 c 0,3.851 -3.14,6.961 -7,6.961"
       style="fill:#000000;fill-opacity:1;fill-rule:nonzero;stroke:none"
       transform="matrix(0.13333333,0,0,-0.13333333,0,481.08)" />
    <path
       id="path252"
       d="m 3688.93,467.109 c 6.11,-6.07 15.93,-6.07 21.97,0 v 0 c 6.08,6.063 6.08,15.891 0,21.981 l -103.19,103.211 c -6.08,6.051 -15.93,6.051 -21.97,0 v 0 c -6.08,-6.063 -6.05,-15.903 0,-21.981 l 103.19,-103.211"
       style="fill:#000000;fill-opacity:1;fill-rule:nonzero;stroke:none"
       transform="matrix(0.13333333,0,0,-0.13333333,0,481.08)" />
    <path
       id="path253"
       d="m 3595.27,567.539 c 8.57,0 15.54,6.941 15.51,15.52 v 0 c 0.03,8.601 -6.94,15.523 -15.51,15.543 l -146,-0.02 c -8.54,0 -15.54,-6.922 -15.51,-15.531 v 0 c -0.03,-8.571 6.97,-15.531 15.51,-15.531 l 146,0.019"
       style="fill:#000000;fill-opacity:1;fill-rule:nonzero;stroke:none"
       transform="matrix(0.13333333,0,0,-0.13333333,0,481.08)" />
    <path
       id="path254"
       d="m 3211.48,131.91 c 2.72,2.719 7.12,2.738 9.87,0 l 87.97,-87.9608 c 4.59,-4.6094 12.06,-4.6094 16.62,-0.039 4.62,4.6093 4.62,12.0586 0.03,16.6718 -2.71,2.7188 -2.75,7.1289 0,9.8594 2.73,2.707 7.16,2.707 9.88,0 10.03,-10.0195 10.03,-26.3633 -0.03,-36.4101 -10,-10.0508 -26.34,-10.0508 -36.37,0 l -88,87.9997 c -2.72,2.731 -2.69,7.129 0.03,9.879"
       style="fill:#000000;fill-opacity:1;fill-rule:nonzero;stroke:none"
       transform="matrix(0.13333333,0,0,-0.13333333,0,481.08)" />
    <path
       id="path255"
       d="m 3211.48,131.91 c 2.72,2.719 7.12,2.738 9.87,0 l 87.97,-87.9608 c 10.04,-10.0703 10.04,-26.3789 0,-36.42967 -10.03,-10.03125 -26.37,-10.03125 -36.39,0 -2.73,2.72267 -2.73,7.16017 0,9.89067 2.71,2.75 7.14,2.7304 9.87,0 4.62,-4.6016 12.06,-4.6016 16.65,0 4.59,4.5781 4.59,12.0507 0,16.6211 l -88,87.9997 c -2.72,2.731 -2.69,7.129 0.03,9.879"
       style="fill:#000000;fill-opacity:1;fill-rule:nonzero;stroke:none"
       transform="matrix(0.13333333,0,0,-0.13333333,0,481.08)" />
    <path
       id="path256"
       d="m 3228.41,125.949 c 0,-8.59 -6.96,-15.527 -15.54,-15.527 v 0 c -8.55,-0.043 -15.51,6.91 -15.51,15.527 v 145.973 c 0,8.57 6.96,15.539 15.51,15.539 v 0 c 8.58,0 15.54,-6.969 15.54,-15.563 V 125.949"
       style="fill:#000000;fill-opacity:1;fill-rule:nonzero;stroke:none"
       transform="matrix(0.13333333,0,0,-0.13333333,0,481.08)" />
    <path
       id="path257"
       d="m 3223.67,263.211 c -6.09,-6.07 -15.89,-6.09 -21.98,0 v 0 c -6.07,6.07 -6.04,15.879 0,21.98 l 103.24,103.188 c 6.07,6.062 15.89,6.09 21.96,0 v 0 c 6.08,-6.047 6.08,-15.91 0,-21.949 L 3223.67,263.211"
       style="fill:#000000;fill-opacity:1;fill-rule:nonzero;stroke:none"
       transform="matrix(0.13333333,0,0,-0.13333333,0,481.08)" />
    <path
       id="path258"
       d="m 3659.91,131.91 c -2.73,2.738 -7.16,2.738 -9.91,0 l -87.94,-87.9608 c -4.59,-4.5898 -12.06,-4.5898 -16.65,-0.0195 -4.59,4.5898 -4.59,12.082 0,16.6523 2.72,2.7266 2.75,7.1485 0,9.8868 -2.72,2.7226 -7.15,2.6796 -9.88,0 -10.04,-10.0391 -10.04,-26.3907 0,-36.4375 10.04,-10.0196 26.37,-10.0196 36.41,0.0195 l 87.97,87.9802 c 2.72,2.75 2.72,7.141 0,9.879"
       style="fill:#000000;fill-opacity:1;fill-rule:nonzero;stroke:none"
       transform="matrix(0.13333333,0,0,-0.13333333,0,481.08)" />
    <path
       id="path259"
       d="m 3659.91,131.91 c -2.73,2.738 -7.16,2.738 -9.91,0 l -87.94,-87.9608 c -10.03,-10.039 -10.03,-26.3789 0,-36.41014 10.01,-10.01953 26.33,-10.01953 36.37,0 2.76,2.72264 2.76,7.14064 0,9.87114 -2.72,2.75 -7.16,2.75 -9.87,0 -4.59,-4.5704 -12.03,-4.5704 -16.62,0 -4.59,4.5898 -4.59,12.0586 0,16.6406 l 87.97,87.9802 c 2.72,2.75 2.72,7.141 0,9.879"
       style="fill:#000000;fill-opacity:1;fill-rule:nonzero;stroke:none"
       transform="matrix(0.13333333,0,0,-0.13333333,0,481.08)" />
    <path
       id="path260"
       d="m 3642.97,125.961 c 0,-8.582 6.97,-15.531 15.51,-15.531 v 0 c 8.58,-0.008 15.55,6.929 15.55,15.531 V 271.93 c 0,8.57 -6.97,15.55 -15.55,15.55 v 0 c -8.54,0 -15.51,-6.988 -15.51,-15.558 V 125.961"
       style="fill:#000000;fill-opacity:1;fill-rule:nonzero;stroke:none"
       transform="matrix(0.13333333,0,0,-0.13333333,0,481.08)" />
    <path
       id="path261"
       d="m 3647.72,263.211 c 6.07,-6.039 15.89,-6.07 21.97,0 v 0 c 6.05,6.09 6.05,15.898 0,21.988 l -103.26,103.199 c -6.04,6.063 -15.9,6.071 -21.94,0 v 0 c -6.08,-6.066 -6.08,-15.91 0,-21.949 l 103.23,-103.238"
       style="fill:#000000;fill-opacity:1;fill-rule:nonzero;stroke:none"
       transform="matrix(0.13333333,0,0,-0.13333333,0,481.08)" />
    <path
       id="path262"
       d="m 3354.27,980.832 c 0,0.469 0.07,0.918 0.07,1.406 -15.26,-10.988 -25.29,-28.789 -25.29,-49.027 0,-33.43 27.09,-60.551 60.53,-60.551 17.18,0 32.59,7.25 43.61,18.738 -44.47,5.551 -78.92,43.411 -78.92,89.434"
       style="fill:#000000;fill-opacity:1;fill-rule:nonzero;stroke:none"
       transform="matrix(0.13333333,0,0,-0.13333333,0,481.08)" />
    <path
       id="path263"
       d="m 3517.11,980.832 c 0,0.469 -0.06,0.918 -0.06,1.406 15.25,-10.988 25.29,-28.789 25.29,-49.027 0,-33.43 -27.1,-60.551 -60.53,-60.551 -17.19,0 -32.63,7.25 -43.62,18.738 44.48,5.551 78.92,43.411 78.92,89.434"
       style="fill:#000000;fill-opacity:1;fill-rule:nonzero;stroke:none"
       transform="matrix(0.13333333,0,0,-0.13333333,0,481.08)" />
    <path
       id="path264"
       d="m 3538.76,699.551 c -13.45,-76.34 -54.48,-38.91 -103.07,-38.91 -48.62,0 -89.65,-37.442 -103.1,38.859 -29.16,-23.441 -47.45,-59.309 -47.45,-107.609 0,-92.942 67.39,-140.332 150.55,-140.332 83.16,0 150.56,47.39 150.56,140.332 0,48.32 -18.31,84.218 -47.49,107.66"
       style="fill:#000000;fill-opacity:1;fill-rule:nonzero;stroke:none"
       transform="matrix(0.13333333,0,0,-0.13333333,0,481.08)" />
    <path
       id="path265"
       d="m 3632.05,362.828 c 0,-166.887 -87.94,-302.2069 -196.36,-302.2069 -108.45,0 -196.36,135.3199 -196.36,302.2069 0,316.012 87.91,176.442 196.36,176.442 108.46,0 196.36,139.57 196.36,-176.442"
       style="fill:#49374f;fill-opacity:1;fill-rule:nonzero;stroke:none"
       transform="matrix(0.13333333,0,0,-0.13333333,0,481.08)" />
    <path
       id="path266"
       d="m 3632.05,362.828 c 0,316.012 -87.9,176.442 -196.36,176.442 V 60.6211 c 108.42,0 196.36,135.3199 196.36,302.2069"
       style="fill:#3c2d42;fill-opacity:1;fill-rule:nonzero;stroke:none"
       transform="matrix(0.13333333,0,0,-0.13333333,0,481.08)" />
    <path
       id="path267"
       d="m 3340.83,890.93 c -11.4,-11.418 -13.56,-30.11 -12.77,-42.192 7.85,-119.187 53,-55.488 107.5,-55.488 55.37,0 101.09,-65.75 107.85,61.289 0.58,10.68 -3.51,26.75 -13.1,36.391 -38.43,38.429 -151.03,38.429 -189.48,0"
       style="fill:#514f64;fill-opacity:1;fill-rule:nonzero;stroke:none"
       transform="matrix(0.13333333,0,0,-0.13333333,0,481.08)" />
    <path
       id="path268"
       d="m 3275.43,689.738 c 0,-92.937 71.75,-140.328 160.26,-140.328 88.51,0 160.24,47.391 160.24,140.328 h -320.5"
       style="fill:#fbb040;fill-opacity:1;fill-rule:nonzero;stroke:none"
       transform="matrix(0.13333333,0,0,-0.13333333,0,481.08)" />
    <path
       id="path269"
       d="m 3550.88,804.172 c -15,-76.32 -60.89,-38.871 -115.19,-38.871 -54.32,0 -100.22,-37.481 -115.23,38.859 -32.59,-23.449 -53.04,-59.328 -53.04,-107.629 0,-92.941 75.33,-140.332 168.27,-140.332 92.94,0 168.28,47.391 168.28,140.332 0,48.321 -20.48,84.199 -53.09,107.641"
       style="fill:#514f64;fill-opacity:1;fill-rule:nonzero;stroke:none"
       transform="matrix(0.13333333,0,0,-0.13333333,0,481.08)" />
    <path
       id="path270"
       d="m 3435.69,476.309 c -18.96,0 -34.35,15.41 -34.35,34.351 v 39.781 l 8.26,-1.55 c 18.94,-3.551 33.25,-3.551 52.17,0 l 8.26,1.55 V 510.66 c 0,-18.941 -15.38,-34.351 -34.34,-34.351"
       style="fill:#000000;fill-opacity:1;fill-rule:nonzero;stroke:none"
       transform="matrix(0.13333333,0,0,-0.13333333,0,481.08)" />
    <path
       id="path271"
       d="M 3442.69,60.6211 H 3428.7 V 483.301 h 13.99 V 60.6211"
       style="fill:#000000;fill-opacity:1;fill-rule:nonzero;stroke:none"
       transform="matrix(0.13333333,0,0,-0.13333333,0,481.08)" />
    <path
       id="path272"
       d="M 3415.31,533.789 V 510.66 c 0,-11.238 9.15,-20.379 20.38,-20.379 11.24,0 20.39,9.141 20.39,20.379 v 23.129 c -14.31,-2.059 -26.47,-2.059 -40.77,0"
       style="fill:#514f64;fill-opacity:1;fill-rule:nonzero;stroke:none"
       transform="matrix(0.13333333,0,0,-0.13333333,0,481.08)" />
    <path
       id="path274"
       d="m 3532.97,864.75 c 0,-9.258 -3.2,-16.75 -7.15,-16.75 -3.93,0 -7.12,7.492 -7.12,16.75 0,9.23 3.19,16.742 7.12,16.742 3.95,0 7.15,-7.512 7.15,-16.742"
       style="fill:#000000;fill-opacity:1;fill-rule:nonzero;stroke:none"
       transform="matrix(0.13333333,0,0,-0.13333333,0,481.08)" />
    <path
       id="path275"
       d="m 3550.88,804.172 c -15,-76.32 -60.89,-38.871 -115.19,-38.871 v -209.102 0 c 92.94,0 168.28,47.391 168.28,140.332 0,48.321 -20.48,84.199 -53.09,107.641"
       style="fill:#3e3d51;fill-opacity:1;fill-rule:nonzero;stroke:none"
       transform="matrix(0.13333333,0,0,-0.13333333,0,481.08)" />
    <path
       id="path276"
       d="m 3435.69,919.75 v -126.5 c 55.3,-0.102 100.96,-65.648 107.72,61.289 0.58,10.68 -3.51,26.75 -13.1,36.391 -19.21,19.179 -56.92,28.789 -94.62,28.82"
       style="fill:#3e3d51;fill-opacity:1;fill-rule:nonzero;stroke:none"
       transform="matrix(0.13333333,0,0,-0.13333333,0,481.08)" />
  </g>
</svg>
