<?xml version="1.0" encoding="UTF-8" standalone="no"?>
<!-- Created with Inkscape (http://www.inkscape.org/) -->

<svg
   width="61mm"
   height="45.419998mm"
   viewBox="0 0 61 45.419998"
   version="1.1"
   id="svg1"
   inkscape:version="1.4.3 (0d15f75, 2025-12-25)"
   sodipodi:docname="butterfly.svg"
   xmlns:inkscape="http://www.inkscape.org/namespaces/inkscape"
   xmlns:sodipodi="http://sodipodi.sourceforge.net/DTD/sodipodi-0.dtd"
   xmlns="http://www.w3.org/2000/svg"
   xmlns:svg="http://www.w3.org/2000/svg">
  <sodipodi:namedview
     id="namedview1"
     pagecolor="#ffffff"
     bordercolor="#000000"
     borderopacity="0.25"
     inkscape:showpageshadow="2"
     inkscape:pageopacity="0.0"
     inkscape:pagecheckerboard="0"
     inkscape:deskcolor="#d1d1d1"
     inkscape:document-units="mm"
     inkscape:zoom="2.0535659"
     inkscape:cx="208.90492"
     inkscape:cy="146.33083"
     inkscape:window-width="1920"
     inkscape:window-height="1017"
     inkscape:window-x="-8"
     inkscape:window-y="-8"
     inkscape:window-maximized="1"
     inkscape:current-layer="layer1" />
  <defs
     id="defs1" />
  <g
     inkscape:label="Layer 1"
     inkscape:groupmode="layer"
     id="layer1">
    <g
       id="g327"
       transform="matrix(0.74904421,0,0,0.74904421,-23.265747,-269.93332)">
		<path
   d="m 73.527,395.067 -0.937,18.036 c 0,0.609 -0.421,1.13 -0.971,1.318 -0.565,-0.189 -0.971,-0.709 -0.971,-1.318 l -0.937,-18.036 c 0,-0.622 1.342,-1.13 1.907,-1.318 0.551,0.189 1.909,0.696 1.909,1.318 z"
   id="path291" />

		<g
   id="g292">
			<path
   style="fill:#303030"
   d="m 71.303,386.925 c -0.073,0.049 -0.155,0.073 -0.227,0.073 -0.13,0 -0.26,-0.064 -0.341,-0.179 -0.204,-0.309 -0.407,-0.608 -0.602,-0.909 -3.656,-5.656 -5.046,-10.368 -4.135,-14.024 0.747,-2.966 2.763,-4.056 2.843,-4.096 0.204,-0.105 0.447,-0.033 0.553,0.163 0.105,0.203 0.024,0.446 -0.171,0.552 -0.016,0.008 -1.796,0.991 -2.446,3.607 -0.593,2.414 -0.317,6.703 4.209,13.61 0.129,0.212 0.276,0.422 0.422,0.642 0.13,0.188 0.082,0.44 -0.105,0.561 z"
   id="path292" />

		</g>

		<g
   id="g293">
			<path
   style="fill:#303030"
   d="m 72.161,386.997 c 0.13,0 0.258,-0.063 0.336,-0.178 4.107,-6.059 5.701,-11.081 4.738,-14.931 -0.742,-2.966 -2.76,-4.058 -2.845,-4.103 -0.199,-0.103 -0.443,-0.028 -0.547,0.169 -0.105,0.198 -0.03,0.444 0.167,0.55 0.018,0.009 1.801,0.992 2.445,3.609 0.611,2.483 0.304,6.972 -4.63,14.249 -0.125,0.185 -0.077,0.438 0.108,0.564 0.069,0.049 0.149,0.071 0.228,0.071 z"
   id="path293" />

		</g>

		<path
   d="m 76.088,391.184 v 5.427 c 0,0.943 -0.406,1.796 -1.072,2.438 -0.357,0.349 -0.796,0.634 -1.292,0.828 -0.479,0.186 -1.008,0.292 -1.56,0.292 h -0.008 c -0.187,0 -0.366,-0.023 -0.536,-0.049 -0.179,0.025 -0.357,0.049 -0.544,0.049 -0.561,0 -1.089,-0.105 -1.568,-0.292 -0.487,-0.194 -0.926,-0.48 -1.283,-0.821 -0.667,-0.642 -1.073,-1.494 -1.073,-2.445 v -5.427 c 0,-0.228 0.024,-0.447 0.073,-0.659 0,-0.032 0.008,-0.057 0.017,-0.089 0,-0.017 0.008,-0.042 0.016,-0.057 0.009,-0.049 0.025,-0.09 0.042,-0.139 0.332,-1.121 1.275,-2.023 2.478,-2.405 0.114,-0.04 0.228,-0.072 0.349,-0.097 -0.292,-0.196 -0.479,-0.529 -0.479,-0.91 0,-0.196 0.048,-0.383 0.146,-0.545 0.082,-0.146 0.204,-0.276 0.341,-0.373 0.179,-0.113 0.39,-0.188 0.618,-0.188 h 1.731 c 0.228,0 0.438,0.064 0.618,0.188 0.138,0.089 0.26,0.218 0.341,0.365 0.097,0.163 0.154,0.349 0.154,0.553 0,0.381 -0.195,0.714 -0.488,0.91 0.122,0.024 0.236,0.057 0.35,0.097 1.203,0.382 2.145,1.284 2.487,2.405 0.015,0.049 0.032,0.09 0.04,0.139 0.008,0.015 0.017,0.04 0.017,0.057 0.008,0.032 0.016,0.057 0.024,0.089 0.037,0.211 0.061,0.43 0.061,0.659 z"
   id="path294" />

		<g
   id="g295">
			<path
   style="fill:#303030"
   d="m 69.507,399.877 c -0.869,4.786 -2.771,10.531 -6.89,15.048 -0.398,0.447 -0.837,0.886 -1.292,1.309 -10.108,9.4 -10.848,2.21 -16.072,-2.657 -5.233,-4.858 -12.968,-5.558 -2.86,-14.95 0.447,-0.415 0.91,-0.821 1.39,-1.186 1.462,-1.162 3.047,-2.129 4.688,-2.941 2.218,-1.098 4.533,-1.911 6.792,-2.504 4.444,-1.17 8.67,-1.518 11.473,-1.602 h 0.008 c 0.179,-0.007 0.35,-0.007 0.512,-0.015 h 0.334 c 0.463,-0.009 0.869,-0.009 1.211,0 0.861,0.008 1.349,0.04 1.349,0.04 0,0 0,0.041 0.008,0.114 -0.008,0 -0.008,0 0,0.008 0.04,0.723 0.219,4.55 -0.651,9.336 z"
   id="path295" />

		</g>

		<g
   id="g296">
			<path
   style="fill:#f3aa43"
   d="m 69.507,399.877 c -0.869,4.786 -2.771,10.531 -6.89,15.048 -8.288,6.736 -9.263,0.18 -14.13,-4.355 -4.875,-4.533 -11.912,-5.443 -4.705,-13.13 1.462,-1.162 3.047,-2.129 4.688,-2.941 2.218,-1.098 4.533,-1.911 6.792,-2.504 4.444,-1.17 8.67,-1.518 11.473,-1.602 h 0.008 c 0.179,-0.007 0.35,-0.007 0.512,-0.015 h 0.334 c 0.463,-0.009 0.869,-0.009 1.211,0 0.861,0.008 1.349,0.04 1.349,0.04 0,0 0,0.041 0.008,0.114 -0.008,0 -0.008,0 0,0.008 0.041,0.724 0.22,4.551 -0.65,9.337 z"
   id="path296" />

		</g>

		<g
   id="g297">
			<path
   style="fill:#e47e30"
   d="m 56.491,410.998 c -3.356,-1.489 -4.846,-12.486 -0.869,-16.727 5.654,-4.472 14.55,-3.876 14.55,-3.876 0,0 -3.614,25.071 -13.681,20.603 z"
   id="path297" />

		</g>

		<g
   id="g298">
			<path
   style="fill:#303030"
   d="m 70.198,387.625 c 0,1.193 -0.958,2.047 -2.608,2.754 -0.032,0.008 -0.073,0.024 -0.105,0.04 -0.082,0.032 -0.171,0.064 -0.26,0.105 -2.194,0.846 -5.444,1.471 -9.214,2.227 -1.844,0.365 -3.811,0.765 -5.834,1.235 -1.276,0.3 -2.511,0.463 -3.705,0.513 -3.25,0.129 -6.151,-0.587 -8.507,-1.708 -4.802,-2.258 -7.362,-6.149 -6.135,-7.857 4.737,-6.572 -8.125,-18.484 -0.016,-24.051 3.071,-2.104 9.522,2.527 18.566,9.165 5.891,4.315 12.334,10.036 15.324,13.643 0.455,0.545 0.829,1.039 1.105,1.478 0.422,0.357 0.756,0.724 0.983,1.113 0.268,0.433 0.406,0.879 0.406,1.343 z"
   id="path298" />

		</g>

		<g
   id="g299">
			<path
   style="fill:#f3aa43"
   d="m 70.198,387.625 c 0,1.193 -0.958,2.047 -2.608,2.754 -0.032,0.008 -0.073,0.024 -0.105,0.04 -0.082,0.032 -0.171,0.064 -0.26,0.105 -2.194,0.846 -5.444,1.471 -9.214,2.227 -1.844,0.365 -3.811,0.765 -5.834,1.235 -1.276,0.3 -2.511,0.463 -3.705,0.513 -3.25,0.129 -6.151,-0.587 -8.507,-1.708 -0.098,-0.576 -0.016,-1.072 0.268,-1.462 4.737,-6.565 -8.125,-18.478 -0.016,-24.043 3.071,-2.104 9.515,2.527 18.566,9.166 3.006,2.201 6.159,4.769 8.921,7.239 0.455,0.545 0.829,1.039 1.105,1.478 0.422,0.357 0.756,0.724 0.983,1.113 0.268,0.433 0.406,0.879 0.406,1.343 z"
   id="path299" />

		</g>

		<g
   id="g300">
			<path
   style="fill:#e47e30"
   d="m 69.867,388.31 c 0,1.981 -4.688,2.31 -10.143,3.582 -2.68,0.625 -5.063,0.186 -6.873,-0.673 -0.056,-0.325 -0.009,-0.604 0.15,-0.824 2.667,-3.694 -4.573,-10.398 -0.009,-13.532 1.729,-1.183 5.355,1.424 10.45,5.159 1.692,1.24 3.467,2.685 5.022,4.075 0.256,0.306 0.466,0.585 0.622,0.833 0.502,0.423 0.781,0.891 0.781,1.38 z"
   id="path300" />

		</g>

		<g
   id="g301">
			<path
   d="m 56.378,401.821 c 0.487,0.664 -0.643,2.321 -2.525,3.701 -1.881,1.38 -3.802,1.96 -4.289,1.297 -0.486,-0.663 0.645,-2.32 2.526,-3.701 1.881,-1.379 3.802,-1.961 4.288,-1.297 z"
   id="path301" />

		</g>

		<g
   id="g302">
			<path
   d="m 56.876,396.893 c 0.346,0.472 -0.457,1.647 -1.792,2.627 -1.335,0.978 -2.698,1.392 -3.043,0.919 -0.345,-0.47 0.457,-1.646 1.792,-2.624 1.336,-0.98 2.698,-1.392 3.043,-0.922 z"
   id="path302" />

		</g>

		<g
   id="g303">
			<path
   d="m 57.35,393.88 c 0.234,0.319 -0.31,1.117 -1.214,1.781 -0.905,0.662 -1.828,0.942 -2.062,0.623 -0.234,-0.319 0.309,-1.116 1.214,-1.779 0.905,-0.664 1.828,-0.942 2.062,-0.625 z"
   id="path303" />

		</g>

		<g
   id="g304">
			<path
   style="fill:#ffffff"
   d="m 36.07,366.949 c 1.469,0.277 2.559,1.039 2.434,1.701 -0.125,0.661 -1.418,0.971 -2.888,0.692 -1.47,-0.279 -2.56,-1.04 -2.434,-1.702 0.125,-0.661 1.418,-0.97 2.888,-0.691 z"
   id="path304" />

		</g>

		<g
   id="g305">
			<path
   style="fill:#ffffff"
   d="m 38.236,365.066 c 1.106,0.21 1.927,0.783 1.832,1.28 -0.094,0.498 -1.067,0.731 -2.173,0.521 -1.106,-0.209 -1.926,-0.783 -1.832,-1.28 0.095,-0.497 1.068,-0.731 2.173,-0.521 z"
   id="path305" />

		</g>

		<g
   id="g306">
			<path
   style="fill:#ffffff"
   d="m 41.928,364.306 c 0.918,0.174 1.6,0.65 1.521,1.063 -0.079,0.413 -0.886,0.607 -1.805,0.434 -0.918,-0.175 -1.6,-0.65 -1.521,-1.064 0.078,-0.413 0.886,-0.607 1.805,-0.433 z"
   id="path306" />

		</g>

		<g
   id="g307">
			<path
   style="fill:#ffffff"
   d="m 40.076,387.73 c 0,1.11 -0.9,2.011 -2.01,2.011 -1.11,0 -2.01,-0.9 -2.01,-2.011 0,-1.11 0.9,-2.01 2.01,-2.01 1.11,10e-4 2.01,0.9 2.01,2.01 z"
   id="path307" />

		</g>

		<g
   id="g308">
			<path
   style="fill:#ffffff"
   d="m 39.564,382.79 c 0,0.58 -0.471,1.051 -1.05,1.051 -0.581,0 -1.05,-0.471 -1.05,-1.051 0,-0.58 0.47,-1.051 1.05,-1.051 0.579,0 1.05,0.471 1.05,1.051 z"
   id="path308" />

		</g>

		<g
   id="g309">
			<path
   style="fill:#ffffff"
   d="m 38.167,379.841 c 0,0.389 -0.315,0.704 -0.704,0.704 -0.389,0 -0.704,-0.315 -0.704,-0.704 0,-0.389 0.315,-0.703 0.704,-0.703 0.39,0 0.704,0.314 0.704,0.703 z"
   id="path309" />

		</g>

		<g
   id="g310">
			<path
   style="fill:#303030"
   d="m 80.618,414.921 c 0.398,0.453 0.837,0.891 1.292,1.315 10.108,9.395 10.848,2.207 16.072,-2.66 5.233,-4.86 12.968,-5.557 2.86,-14.952 -0.447,-0.415 -0.91,-0.815 -1.39,-1.184 -10.246,-8.104 -26.367,-7.023 -26.367,-7.023 0,0 -1.162,14.973 7.533,24.504 z"
   id="path310" />

		</g>

		<g
   id="g311">
			<path
   style="fill:#f3aa43"
   d="m 80.618,414.921 c 8.288,6.741 9.263,0.182 14.13,-4.354 4.875,-4.526 11.912,-5.441 4.705,-13.127 -10.246,-8.104 -26.367,-7.023 -26.367,-7.023 0,0 -1.163,14.973 7.532,24.504 z"
   id="path311" />

		</g>

		<g
   id="g312">
			<path
   style="fill:#e47e30"
   d="m 86.743,410.998 c 3.356,-1.489 4.846,-12.486 0.869,-16.727 -5.654,-4.472 -14.55,-3.876 -14.55,-3.876 0,0 3.614,25.071 13.681,20.603 z"
   id="path312" />

		</g>

		<g
   id="g313">
			<path
   style="fill:#303030"
   d="m 73.037,387.625 c 0,3.518 8.329,4.103 18.022,6.361 4.762,1.112 8.995,0.333 12.212,-1.195 4.802,-2.258 7.362,-6.149 6.135,-7.857 -4.737,-6.572 8.125,-18.484 0.016,-24.051 -3.071,-2.104 -9.522,2.527 -18.566,9.165 -5.891,4.315 -12.334,10.036 -15.324,13.643 -0.455,0.545 -0.829,1.039 -1.105,1.478 -0.895,0.757 -1.39,1.586 -1.39,2.456 z"
   id="path313" />

		</g>

		<g
   id="g314">
			<path
   style="fill:#f3aa43"
   d="m 73.037,387.625 c 0,3.518 8.329,4.103 18.022,6.361 4.762,1.112 8.995,0.333 12.212,-1.195 0.098,-0.576 0.016,-1.072 -0.268,-1.462 -4.737,-6.565 8.125,-18.478 0.016,-24.043 -3.071,-2.104 -9.515,2.527 -18.566,9.166 -3.006,2.201 -6.159,4.769 -8.921,7.239 -0.455,0.545 -0.829,1.039 -1.105,1.478 -0.895,0.757 -1.39,1.586 -1.39,2.456 z"
   id="path314" />

		</g>

		<g
   id="g315">
			<path
   style="fill:#e47e30"
   d="m 73.367,388.31 c 0,1.981 4.688,2.31 10.143,3.582 2.68,0.625 5.063,0.186 6.873,-0.673 0.056,-0.325 0.009,-0.604 -0.15,-0.824 -2.666,-3.694 4.573,-10.398 0.009,-13.532 -1.729,-1.183 -5.355,1.424 -10.45,5.159 -1.692,1.24 -3.467,2.685 -5.021,4.075 -0.256,0.306 -0.466,0.585 -0.622,0.833 -0.503,0.423 -0.782,0.891 -0.782,1.38 z"
   id="path315" />

		</g>

		<path
   style="fill:#303030"
   d="m 73.033,405.653 v 7.581 c 0,0.773 -0.634,1.407 -1.405,1.407 -0.008,0 -0.008,0 -0.008,0 -0.008,0 -0.008,0 -0.008,0 -0.78,0 -1.414,-0.634 -1.414,-1.407 v -7.581 c 0,-0.584 0.366,-1.088 0.877,-1.299 0.171,-0.065 0.35,-0.105 0.537,-0.105 0,0 0,0 0.008,0 0,0 0,0 0.008,0 0.187,0 0.374,0.04 0.536,0.113 0.512,0.203 0.869,0.707 0.869,1.291 z"
   id="path316" />

		<g
   id="g317">
			<path
   d="m 86.856,401.821 c -0.487,0.664 0.644,2.321 2.525,3.701 1.881,1.38 3.802,1.96 4.289,1.297 0.486,-0.663 -0.645,-2.32 -2.526,-3.701 -1.881,-1.379 -3.801,-1.961 -4.288,-1.297 z"
   id="path317" />

		</g>

		<g
   id="g318">
			<path
   d="m 86.358,396.893 c -0.346,0.472 0.457,1.647 1.792,2.627 1.335,0.978 2.698,1.392 3.043,0.919 0.345,-0.47 -0.457,-1.646 -1.792,-2.624 -1.336,-0.98 -2.697,-1.392 -3.043,-0.922 z"
   id="path318" />

		</g>

		<g
   id="g319">
			<path
   d="m 85.885,393.88 c -0.234,0.319 0.309,1.117 1.214,1.781 0.905,0.662 1.828,0.942 2.062,0.623 0.234,-0.319 -0.309,-1.116 -1.214,-1.779 -0.906,-0.664 -1.828,-0.942 -2.062,-0.625 z"
   id="path319" />

		</g>

		<g
   id="g320">
			<path
   style="fill:#ffffff"
   d="m 107.165,366.949 c -1.469,0.277 -2.559,1.039 -2.434,1.701 0.125,0.661 1.418,0.971 2.888,0.692 1.47,-0.278 2.56,-1.04 2.434,-1.702 -0.125,-0.661 -1.419,-0.97 -2.888,-0.691 z"
   id="path320" />

		</g>

		<g
   id="g321">
			<path
   style="fill:#ffffff"
   d="m 104.998,365.066 c -1.106,0.21 -1.927,0.783 -1.832,1.28 0.094,0.498 1.067,0.731 2.173,0.521 1.106,-0.209 1.926,-0.783 1.831,-1.28 -0.093,-0.497 -1.066,-0.731 -2.172,-0.521 z"
   id="path321" />

		</g>

		<g
   id="g322">
			<path
   style="fill:#ffffff"
   d="m 101.306,364.306 c -0.918,0.174 -1.6,0.65 -1.521,1.063 0.079,0.413 0.886,0.607 1.805,0.434 0.919,-0.175 1.6,-0.65 1.521,-1.064 -0.078,-0.413 -0.886,-0.607 -1.805,-0.433 z"
   id="path322" />

		</g>

		<g
   id="g323">
			<path
   style="fill:#ffffff"
   d="m 103.158,387.73 c 0,1.11 0.9,2.011 2.01,2.011 1.11,0 2.01,-0.9 2.01,-2.011 0,-1.11 -0.9,-2.01 -2.01,-2.01 -1.11,10e-4 -2.01,0.9 -2.01,2.01 z"
   id="path323" />

		</g>

		<g
   id="g324">
			<path
   style="fill:#ffffff"
   d="m 103.67,382.79 c 0,0.58 0.471,1.051 1.05,1.051 0.581,0 1.05,-0.471 1.05,-1.051 0,-0.58 -0.47,-1.051 -1.05,-1.051 -0.579,0 -1.05,0.471 -1.05,1.051 z"
   id="path324" />

		</g>

		<g
   id="g325">
			<path
   style="fill:#ffffff"
   d="m 105.067,379.841 c 0,0.389 0.315,0.704 0.704,0.704 0.389,0 0.704,-0.315 0.704,-0.704 0,-0.389 -0.315,-0.703 -0.704,-0.703 -0.389,0 -0.704,0.314 -0.704,0.703 z"
   id="path325" />

		</g>

		<path
   style="fill:#303030"
   d="m 71.617,387.9 c -0.313,0.71 -0.54,2.728 -0.54,5.11 0,2.382 0.226,4.399 0.54,5.109 0.313,-0.71 0.539,-2.727 0.539,-5.109 10e-4,-2.382 -0.225,-4.4 -0.539,-5.11 z"
   id="path326" />

		
	</g>
  </g>
</svg>
