<?xml version="1.0" encoding="UTF-8" standalone="no"?>
<!-- Created with Inkscape (http://www.inkscape.org/) -->

<svg
   width="23.5mm"
   height="60mm"
   viewBox="0 0 23.500001 60"
   version="1.1"
   id="svg1"
   inkscape:version="1.4.3 (0d15f75, 2025-12-25)"
   sodipodi:docname="caterpillar.svg"
   xmlns:inkscape="http://www.inkscape.org/namespaces/inkscape"
   xmlns:sodipodi="http://sodipodi.sourceforge.net/DTD/sodipodi-0.dtd"
   xmlns="http://www.w3.org/2000/svg"
   xmlns:svg="http://www.w3.org/2000/svg">
  <sodipodi:namedview
     id="namedview1"
     pagecolor="#ffffff"
     bordercolor="#000000"
     borderopacity="0.25"
     inkscape:showpageshadow="2"
     inkscape:pageopacity="0.0"
     inkscape:pagecheckerboard="0"
     inkscape:deskcolor="#d1d1d1"
     inkscape:document-units="mm"
     inkscape:zoom="1.0267829"
     inkscape:cx="165.56567"
     inkscape:cy="208.90492"
     inkscape:window-width="1920"
     inkscape:window-height="1017"
     inkscape:window-x="-8"
     inkscape:window-y="-8"
     inkscape:window-maximized="1"
     inkscape:current-layer="g637" />
  <defs
     id="defs1" />
  <g
     inkscape:label="Layer 1"
     inkscape:groupmode="layer"
     id="layer1">
    <g
       id="g637"
       transform="matrix(0.52350235,0,0,0.52350235,-198.36656,-7.1772172)">
	<polygon
   style="fill:#352826"
   points="410.923,25.37 410.395,26.06 408.379,26.578 408.467,24.247 410.395,24.247 "
   id="polygon558" />

	<path
   style="fill:#352826"
   d="m 410.044,24.851 c 0,0 2.985,-3.023 3.161,-3.281 0.176,-0.26 4.299,-2.332 4.563,-2.505 0.264,-0.173 2.019,-0.432 2.019,-0.432 v 0.691 l -3.247,1.208 -3.773,2.332 z"
   id="path559" />

	<path
   style="fill:#352826"
   d="m 409.956,25.628 2.721,1.382 c 0,0 2.634,0.346 3.073,0.432 0.438,0.086 4.388,0.691 4.388,0.691 l 0.525,-0.691 -2.105,-0.432 -5.704,-0.691 z"
   id="path560" />

	<path
   style="fill:#352826"
   d="m 410.395,25.283 3.949,-0.087 c 0,0 4.038,0 4.389,-0.085 0.352,-0.086 1.754,-0.605 1.754,-0.605 l -0.175,-1.036 c 0,0 -1.316,0.432 -1.755,0.519 -0.439,0.085 -4.738,0.432 -4.738,0.432 l -2.721,0.431 z"
   id="path561" />

	<polygon
   style="fill:#352826"
   points="411.186,38.842 411.449,37.979 409.782,37.115 409.695,39.188 "
   id="polygon561" />

	<path
   style="fill:#352826"
   d="m 410.483,38.151 c 0,0 3.774,-2.331 4.037,-2.418 0.263,-0.087 5.792,-0.604 5.792,-0.604 l 0.089,1.123 -2.634,-0.173 z"
   id="path562" />

	<path
   style="fill:#352826"
   d="m 410.835,38.497 6.494,1.036 4.126,0.346 0.35,-0.518 c 0,0 -1.931,-0.087 -2.194,-0.173 -0.264,-0.086 -4.564,-0.777 -4.564,-0.777 l -2.721,-0.345 z"
   id="path563" />

	<path
   style="fill:#352826"
   d="m 410.221,38.41 1.316,2.073 c 0,0 3.246,2.591 3.51,2.677 0.264,0.087 3.161,1.554 3.161,1.554 l 0.612,-0.432 -1.843,-0.95 -4.124,-2.677 z"
   id="path564" />

	<polygon
   style="fill:#352826"
   points="412.766,50.501 411.36,50.846 410.483,49.811 411.011,48.256 413.116,49.119 "
   id="polygon564" />

	<polygon
   style="fill:#352826"
   points="414.871,47.565 412.063,49.292 415.047,45.664 419.786,45.146 420.663,45.837 418.383,46.183 "
   id="polygon565" />

	<path
   style="fill:#352826"
   d="m 412.326,50.069 3.95,0.95 3.247,0.519 2.019,0.173 c 0.351,0.172 0.439,-0.604 0.439,-0.604 l -0.966,-0.173 -5.177,-1.036 -3.161,-0.346 z"
   id="path565" />

	<path
   style="fill:#352826"
   d="m 411.8,49.982 2.37,1.295 c 0,0 2.983,1.123 3.247,1.209 0.264,0.086 2.282,0.864 2.282,0.864 l 0.702,0.604 -2.282,-0.519 -4.037,-1.468 z"
   id="path566" />

	<polygon
   style="fill:#352826"
   points="412.59,61.901 411.36,62.246 410.309,61.901 410.572,60.346 412.503,60.951 "
   id="polygon566" />

	<path
   style="fill:#352826"
   d="m 411.713,61.21 3.511,-2.332 c 0,0 4.826,-1.641 5.089,-1.727 0.264,-0.086 2.37,0 2.37,0 l 0.089,0.605 -2.985,0.517 -4.036,1.037 -2.107,1.123 z"
   id="path567" />

	<path
   style="fill:#352826"
   d="m 411.537,61.814 2.018,1.555 c 0,0 2.02,1.296 2.458,1.554 0.439,0.26 3.334,1.123 3.598,1.209 0.264,0.087 2.018,0.432 2.018,0.432 l 0.177,-0.432 -3.159,-0.95 -4.037,-2.159 z"
   id="path568" />

	<path
   style="fill:#352826"
   d="m 411.977,61.469 c 0,0 2.983,-0.863 3.334,-0.863 0.352,0 4.124,0.087 4.124,0.087 l 2.897,0.172 v 0.691 h -2.107 l -5.353,-0.259 z"
   id="path569" />

	<path
   style="fill:#352826"
   d="m 410.483,72.783 1.843,0.604 0.351,0.777 c 0,0 -0.174,0.519 -0.525,0.777 -0.352,0.259 -1.053,0.519 -1.053,0.519 l -1.755,-0.259 z"
   id="path570" />

	<polygon
   style="fill:#352826"
   points="411.977,74.251 411.713,73.733 415.924,70.71 420.663,70.019 423.472,69.761 423.56,70.365 420.05,70.883 415.75,71.832 413.555,73.214 "
   id="polygon570" />

	<polygon
   style="fill:#352826"
   points="411.977,74.251 411.449,74.769 414.17,76.669 417.329,77.965 422.243,79.26 423.209,78.828 421.893,77.965 417.064,76.842 412.59,75.028 "
   id="polygon571" />

	<polygon
   style="fill:#352826"
   points="421.717,74.251 418.645,74.251 414.696,74.251 411.273,74.51 411.449,73.992 415.838,73.819 421.102,73.387 "
   id="polygon572" />

	<polygon
   style="fill:#352826"
   points="413.643,84.01 413.205,84.873 410.483,85.047 410.923,82.283 413.292,82.714 "
   id="polygon573" />

	<path
   style="fill:#352826"
   d="m 412.677,83.146 3.247,-1.641 5.531,-0.778 1.578,0.346 c -0.176,0.432 -2.37,0.345 -2.37,0.345 l -3.773,0.518 -2.106,0.777 -1.754,0.863 z"
   id="path573" />

	<polygon
   style="fill:#352826"
   points="412.677,84.097 412.414,84.528 417.943,87.724 421.015,88.415 422.944,88.501 422.944,87.896 420.487,87.551 417.417,86.601 414.783,84.873 "
   id="polygon574" />

	<path
   style="fill:#352826"
   d="m 420.928,83.923 -2.896,-0.259 -2.984,-0.431 -2.633,0.173 c -0.088,0.345 3.686,0.777 3.686,0.777 l 4.739,0.95 z"
   id="path574" />

	<polygon
   style="fill:#352826"
   points="413.264,95.093 412.737,95.956 410.191,96.129 410.279,93.797 412.475,93.97 "
   id="polygon575" />

	<polygon
   style="fill:#352826"
   points="422.127,92.243 419.845,92.761 415.019,93.539 412.122,94.834 411.684,94.23 417.301,92.156 421.952,91.552 "
   id="polygon576" />

	<polygon
   style="fill:#352826"
   points="416.423,99.498 422.039,102.174 423.618,102.347 423.707,101.829 421.337,100.793 416.511,98.288 412.122,95.438 411.332,95.611 "
   id="polygon577" />

	<path
   style="fill:#352826"
   d="m 411.332,94.661 4.564,0.345 c 0,0 4.124,0.173 4.388,0.259 0.263,0.086 3.247,0.604 3.247,0.604 l 0.087,0.777 -2.193,-0.087 -5.879,-1.123 -4.388,-0.259 z"
   id="path577" />

	<polygon
   style="fill:#352826"
   points="412.357,108.969 410.953,109.573 409.373,109.141 409.548,106.81 412.181,107.586 "
   id="polygon578" />

	<polygon
   style="fill:#352826"
   points="415.821,106.551 419.216,105.772 421.189,105.946 421.033,106.551 419.453,106.637 415.427,107.329 411.557,108.451 411.399,107.932 "
   id="polygon579" />

	<polygon
   style="fill:#352826"
   points="411.164,108.796 410.768,109.141 413.926,111.992 417.084,113.546 419.927,115.1 420.953,114.841 419.532,114.064 414.479,111.646 412.663,110.351 "
   id="polygon580" />

	<polygon
   style="fill:#352826"
   points="419.611,109.832 417.084,109.832 413.374,109.488 410.689,108.796 410.925,108.278 415.664,108.969 419.216,109.055 "
   id="polygon581" />

	<polygon
   style="fill:#352826"
   points="390.914,26.492 392.318,26.837 393.195,25.801 392.67,24.247 390.563,25.111 "
   id="polygon582" />

	<polygon
   style="fill:#352826"
   points="388.808,23.556 391.616,25.283 388.633,21.656 383.895,21.138 383.017,21.829 385.298,22.174 "
   id="polygon583" />

	<path
   style="fill:#352826"
   d="m 391.353,26.06 -3.95,0.95 -3.247,0.518 -2.017,0.173 c -0.352,0.173 -0.438,-0.604 -0.438,-0.604 l 0.964,-0.173 5.178,-1.037 3.158,-0.344 z"
   id="path583" />

	<path
   style="fill:#352826"
   d="m 391.879,25.974 -2.367,1.296 c 0,0 -2.985,1.123 -3.247,1.208 -0.265,0.086 -2.282,0.864 -2.282,0.864 l -0.703,0.604 2.282,-0.518 4.036,-1.469 z"
   id="path584" />

	<polygon
   style="fill:#352826"
   points="390.651,41.347 391.879,41.692 392.933,41.347 392.67,39.792 390.739,40.396 "
   id="polygon584" />

	<path
   style="fill:#352826"
   d="m 391.529,40.656 -3.51,-2.332 c 0,0 -4.828,-1.64 -5.091,-1.727 -0.264,-0.087 -2.369,0 -2.369,0 l -0.089,0.604 2.985,0.519 4.035,1.036 2.107,1.123 z"
   id="path585" />

	<path
   style="fill:#352826"
   d="m 391.705,41.26 -2.02,1.554 c 0,0 -2.017,1.296 -2.455,1.555 -0.439,0.259 -3.335,1.123 -3.6,1.209 -0.262,0.085 -2.017,0.432 -2.017,0.432 l -0.177,-0.432 3.159,-0.95 4.037,-2.159 z"
   id="path586" />

	<path
   style="fill:#352826"
   d="m 391.267,40.915 c 0,0 -2.985,-0.864 -3.336,-0.864 -0.351,0 -4.124,0.087 -4.124,0.087 l -2.896,0.173 v 0.69 h 2.106 l 5.352,-0.259 z"
   id="path587" />

	<polygon
   style="fill:#352826"
   points="390.404,52.085 391.1,52.612 393.185,52.581 392.467,50.356 390.607,50.865 "
   id="polygon587" />

	<path
   style="fill:#352826"
   d="m 391.11,51.354 c 0,0 -3.698,-2.127 -3.937,-2.331 -0.239,-0.203 -4.777,-1.114 -5.079,-1.211 -0.3,-0.098 -2.061,0.115 -2.061,0.115 l 0.188,0.666 3.456,0.311 4.27,1.253 z"
   id="path588" />

	<path
   style="fill:#352826"
   d="m 391.405,52.081 -2.246,2.048 c 0,0 -2.443,1.025 -2.841,1.224 -0.4,0.199 -4.041,1.821 -4.041,1.821 l -0.695,-0.526 1.912,-0.971 5.309,-2.167 z"
   id="path589" />

	<path
   style="fill:#352826"
   d="m 390.889,51.864 -3.829,0.956 c 0,0 -3.889,1.063 -4.251,1.073 -0.361,0.008 -1.854,-0.121 -1.854,-0.121 l -0.113,-1.045 c 0,0 1.386,0.07 1.831,0.037 0.445,-0.032 4.685,-0.832 4.685,-0.832 l 2.736,-0.3 z"
   id="path590" />

	<polygon
   style="fill:#352826"
   points="391.178,63.714 390.914,62.851 392.583,61.987 392.67,64.06 "
   id="polygon590" />

	<path
   style="fill:#352826"
   d="m 391.879,63.024 c 0,0 -3.771,-2.331 -4.036,-2.418 -0.263,-0.086 -5.791,-0.604 -5.791,-0.604 l -0.089,1.123 2.633,-0.173 z"
   id="path591" />

	<path
   style="fill:#352826"
   d="m 391.529,63.369 -6.495,1.036 -4.124,0.346 -0.351,-0.518 c 0,0 1.931,-0.086 2.193,-0.173 0.264,-0.086 4.563,-0.777 4.563,-0.777 l 2.721,-0.345 z"
   id="path592" />

	<path
   style="fill:#352826"
   d="m 392.144,63.283 -1.316,2.073 c 0,0 -3.247,2.591 -3.511,2.678 -0.264,0.086 -3.16,1.554 -3.16,1.554 l -0.612,-0.432 1.843,-0.95 4.125,-2.677 z"
   id="path593" />

	<polygon
   style="fill:#352826"
   points="389.861,74.251 390.39,75.115 392.933,75.287 392.845,72.956 390.651,73.128 "
   id="polygon593" />

	<polygon
   style="fill:#352826"
   points="380.998,71.401 383.279,71.919 388.107,72.696 391.001,73.992 391.441,73.387 385.826,71.314 381.175,70.71 "
   id="polygon594" />

	<polygon
   style="fill:#352826"
   points="386.703,78.656 381.086,81.332 379.507,81.505 379.419,80.987 381.788,79.951 386.614,77.446 391.001,74.597 391.791,74.769 "
   id="polygon595" />

	<path
   style="fill:#352826"
   d="m 391.791,73.819 -4.561,0.345 c 0,0 -4.125,0.172 -4.39,0.259 -0.262,0.087 -3.246,0.605 -3.246,0.605 l -0.087,0.777 2.194,-0.086 5.879,-1.122 4.388,-0.26 z"
   id="path595" />

	<polygon
   style="fill:#352826"
   points="390.124,85.823 391.529,86.428 393.107,85.996 392.933,83.664 390.301,84.442 "
   id="polygon596" />

	<polygon
   style="fill:#352826"
   points="386.088,83.406 382.314,82.628 380.12,82.801 380.297,83.406 382.052,83.492 386.526,84.183 390.827,85.305 391.001,84.787 "
   id="polygon597" />

	<polygon
   style="fill:#352826"
   points="391.267,85.651 391.705,85.996 388.195,88.846 384.684,90.401 381.524,91.956 380.385,91.696 381.963,90.919 387.58,88.501 389.598,87.205 "
   id="polygon598" />

	<polygon
   style="fill:#352826"
   points="381.875,86.687 384.684,86.687 388.808,86.342 391.791,85.651 391.529,85.133 386.265,85.823 382.314,85.91 "
   id="polygon599" />

	<path
   style="fill:#352826"
   d="m 391.997,95.813 -1.842,0.604 -0.353,0.778 c 0,0 0.176,0.518 0.527,0.777 0.351,0.258 1.053,0.518 1.053,0.518 l 1.754,-0.26 z"
   id="path599" />

	<polygon
   style="fill:#352826"
   points="390.506,97.281 390.768,96.763 386.556,93.74 381.818,93.05 379.011,92.79 378.922,93.394 382.431,93.913 386.732,94.863 388.926,96.245 "
   id="polygon600" />

	<polygon
   style="fill:#352826"
   points="390.506,97.281 391.032,97.799 388.311,99.699 385.151,100.995 380.237,102.29 379.272,101.858 380.589,100.995 385.416,99.872 389.891,98.058 "
   id="polygon601" />

	<polygon
   style="fill:#352826"
   points="380.765,97.281 383.836,97.281 387.785,97.281 391.207,97.54 391.032,97.021 386.645,96.849 381.377,96.417 "
   id="polygon602" />

	<polygon
   style="fill:#352826"
   points="390.855,110.035 391.296,110.897 394.016,111.07 393.576,108.307 391.207,108.739 "
   id="polygon603" />

	<path
   style="fill:#352826"
   d="m 391.821,109.17 -3.247,-1.641 -5.528,-0.777 -1.58,0.346 c 0.176,0.431 2.37,0.344 2.37,0.344 l 3.773,0.519 2.106,0.777 1.756,0.864 z"
   id="path603" />

	<polygon
   style="fill:#352826"
   points="391.821,110.121 392.085,110.553 386.556,113.748 383.485,114.439 381.554,114.524 381.554,113.92 384.012,113.575 387.083,112.625 389.716,110.897 "
   id="polygon604" />

	<path
   style="fill:#352826"
   d="m 383.574,109.948 2.895,-0.259 2.983,-0.432 2.633,0.173 c 0.088,0.345 -3.687,0.776 -3.687,0.776 l -4.738,0.95 z"
   id="path604" />

	<polygon
   style="fill:#352826"
   points="406.36,18.374 405.657,20.101 402.499,20.792 395.477,21.138 394.601,18.892 394.951,16.128 397.058,14.919 400.392,13.71 403.727,14.574 405.657,16.474 "
   id="polygon605" />

	<path
   style="fill:#050303"
   d="m 394.951,16.128 -0.051,0.402 1.807,0.635 c 0,0 1.403,-0.173 1.756,-0.864 0.35,-0.691 0.701,-1.555 0.701,-1.555 l -0.345,-0.465 -1.762,0.639 z"
   id="path605" />

	<path
   style="fill:#050303"
   d="m 403.727,14.574 -2.514,-0.65 c -0.016,0.411 0.033,0.801 0.231,0.996 0.528,0.518 1.405,1.382 1.405,1.382 l 1.404,0.345 c 0,0 0.7,-0.172 1.402,-0.172 z"
   id="path606" />

	<path
   style="fill:#352826"
   d="m 405.132,18.547 -4.388,-1.382 -3.149,1.599 -2.293,1.163 -3.334,3.628 0.351,3.8 1.581,2.591 v 4.146 l -0.528,3.455 -1.403,1.9 0.176,2.937 1.579,2.245 -0.352,1.9 -1.403,2.073 -0.177,2.764 0.703,2.418 1.578,1.208 v 1.727 l -1.578,3.455 -0.35,3.109 0.878,2.073 1.579,1.9 v 1.554 l -2.107,3.628 v 2.936 l 0.701,1.9 1.23,1.036 -0.353,1.382 -1.578,2.591 -0.526,2.764 0.877,2.418 1.228,1.555 -0.173,1.899 -2.283,2.937 v 2.591 l 0.878,2.418 1.578,1.9 -0.173,1.554 -0.704,1.728 -1.404,4.146 1.404,3.972 2.107,2.591 v 1.9 l -0.351,3.799 c 0,0 1.58,1.729 2.106,1.9 0.526,0.173 1.755,1.727 1.755,1.727 0,0 0.527,2.072 0.877,2.59 0.352,0.52 2.456,1.383 2.456,1.383 l 2.459,-0.518 2.633,-3.282 0.176,-2.937 1.579,-1.209 1.229,-3.627 -0.877,-2.591 1.579,-3.109 -0.351,-3.108 -1.755,-3.973 1.755,-2.59 0.526,-3.283 V 93.51 l -1.58,-2.245 -0.352,-2.074 c 0,0 1.756,-2.246 1.932,-2.763 0.175,-0.519 0.701,-3.455 0.701,-3.455 l -1.228,-3.282 -1.229,-1.382 v -1.036 l 1.404,-2.418 0.525,-3.973 -1.755,-3.282 0.177,-1.382 1.403,-2.591 v -3.455 l -1.932,-3.282 -0.7,-1.728 1.052,-1.381 c 0,0 1.58,-3.282 1.58,-3.801 0,-0.518 -0.703,-4.318 -0.703,-4.318 l -1.403,-1.381 -0.351,-1.727 1.579,-4.146 c 0,0 -0.177,-2.764 -0.525,-3.281 -0.352,-0.518 -1.756,-2.937 -1.756,-2.937 l -0.177,-1.9 c 0,0 0.879,-1.555 0.879,-2.073 0,-0.518 0.525,-2.591 0.525,-3.281 0,-0.691 -0.877,-3.8 -0.877,-3.8 l -1.93,-1.382 z"
   id="path607" />

	<path
   style="fill:#050303"
   d="m 402.145,30.81 4.215,-0.518 1.75,-0.656 c 0.246,-0.489 0.531,-1.121 0.531,-1.417 0,-0.27 0.143,-0.96 0.278,-1.658 l -2.735,1.14 -5.267,0.173 -5.616,-0.691 -3.284,-3.093 0.301,3.265 1.581,2.591 v 0.127 l 2.982,0.392 z"
   id="path608" />

	<polygon
   style="fill:#050303"
   points="409.483,40.345 405.132,41.865 400.744,42.21 394.776,42.038 392.021,40.344 392.144,42.383 393.274,43.989 395.653,44.628 400.041,45.493 404.255,44.801 407.939,43.765 408.783,43.25 408.642,42.556 "
   id="polygon608" />

	<path
   style="fill:#050303"
   d="m 406.009,55.51 2.478,-0.293 -0.02,-0.053 1.052,-1.381 c 0,0 1.094,-2.273 1.46,-3.333 l -4.269,1.606 -5.614,0.172 -5.617,-0.172 -3.647,-1.282 -0.039,0.591 0.703,2.418 1.546,1.183 4.247,0.717 z"
   id="path609" />

	<polygon
   style="fill:#050303"
   points="401.974,63.974 395.828,63.456 392.311,61.789 392.144,63.283 393.021,65.355 393.764,66.25 400.041,67.255 406.36,66.91 409.81,66.005 411.099,63.628 411.099,61.356 406.709,63.11 "
   id="polygon609" />

	<polygon
   style="fill:#050303"
   points="392.494,74.441 392.494,75.373 393.195,77.273 394.204,78.123 396.531,78.828 400.568,79.52 406.886,78.828 409.344,77.81 409.344,77.273 410.748,74.855 410.895,73.731 406.36,75.892 399.864,77.273 394.951,75.892 "
   id="polygon610" />

	<path
   style="fill:#050303"
   d="m 400.568,85.737 -5.968,-0.172 -2.436,-1.558 -0.197,1.04 0.877,2.418 0.583,0.735 1.874,0.646 3.334,0.173 h 4.39 l 4.737,-0.346 2.589,-1.061 c 0.358,-0.5 0.676,-0.978 0.747,-1.184 0.175,-0.519 0.701,-3.455 0.701,-3.455 l -0.104,-0.278 -5.161,2.177 z"
   id="path610" />

	<polygon
   style="fill:#050303"
   points="400.568,98.691 394.601,97.482 391.616,95.603 391.616,96.446 392.494,98.864 393.619,100.219 395.653,100.764 399.515,101.628 404.078,102.146 408.992,101.801 410.612,100.859 411.099,97.828 411.099,96.467 410.044,97.137 406.185,98.001 "
   id="polygon611" />

	<polygon
   style="fill:#050303"
   points="393.195,112.165 394.554,113.832 397.41,114.582 401.621,114.755 406.709,114.237 409.537,113.511 410.923,110.782 410.723,109.006 406.36,110.438 400.217,110.955 395.302,110.264 391.811,108.132 391.791,108.192 "
   id="polygon612" />

	<path
   style="fill:#050303"
   d="m 403.903,120.282 c -0.527,0 -4.739,0.69 -4.739,0.69 l -4.131,-1.396 -0.082,0.878 c 0,0 1.58,1.729 2.106,1.9 0.364,0.12 1.058,0.893 1.455,1.363 l 1.879,0.191 5.266,-0.863 1.696,-0.725 0.06,-1.002 1.579,-1.209 0.174,-0.515 c -1.774,0.254 -4.889,0.688 -5.263,0.688 z"
   id="path612" />

	<path
   style="fill:#dcaf22;fill-opacity:1"
   d="m 405.307,34.438 -1.391,-16.273 -3.172,-0.999 -3.149,1.599 -0.361,0.184 v 4.089 c 0,0 0.525,7.601 0.702,8.119 0.175,0.517 0.527,7.254 0.527,7.254 0,0 0.877,14.509 0.877,15.373 0,0.864 0.175,9.672 0.175,9.672 l -0.702,16.236 -0.177,10.018 0.879,15.2 0.175,12.954 1.229,5.873 0.46,3.978 c 0.43,0.199 0.768,0.34 0.768,0.34 l 2.459,-0.518 0.773,-0.963 -0.597,-3.356 c 0,0 0.701,-12.781 0.701,-13.299 0,-0.518 0,-19.172 0,-19.172 l 1.581,-18.137 -0.177,-17.618 z"
   id="path613" />

	<polygon
   style="fill:#ff8122;fill-opacity:1"
   points="395.828,40.656 394.248,39.447 394.951,37.72 396.707,37.72 397.233,39.619 "
   id="polygon613" />

	<polygon
   style="fill:#ff8122;fill-opacity:1"
   points="407.763,39.792 408.817,38.755 408.817,37.374 407.413,37.201 406.535,38.929 "
   id="polygon614" />

	<polygon
   style="fill:#ff8122;fill-opacity:1"
   points="396.354,25.456 395.828,24.247 395.477,25.283 "
   id="polygon615" />

	<path
   style="fill:#ff8122;fill-opacity:1"
   d="m 406.009,23.901 -0.527,1.9 h 1.054 c 0,0 0.878,0.173 0.878,-0.345 -10e-4,-0.518 -1.405,-1.555 -1.405,-1.555 z"
   id="path615" />

	<polygon
   style="fill:#ff8122;fill-opacity:1"
   points="396.531,50.329 397.759,49.982 397.584,47.565 396.181,48.083 395.126,49.464 "
   id="polygon616" />

	<path
   style="fill:#ff8122;fill-opacity:1"
   d="m 407.588,46.874 -0.175,2.59 1.054,0.691 c 0,0 0.877,-0.345 0.877,-0.863 0,-0.518 -0.352,-2.591 -0.352,-2.591 z"
   id="path616" />

	<path
   style="fill:#ff8122;fill-opacity:1"
   d="m 396.531,57.928 -1.755,2.073 0.877,1.382 c 0,0 0.878,0.691 1.404,0.519 0.526,-0.173 1.053,-2.764 1.053,-2.764 z"
   id="path617" />

	<path
   style="fill:#ff8122;fill-opacity:1"
   d="m 408.114,58.965 v 1.728 l 0.878,0.172 c 0.703,-0.864 -0.878,-1.9 -0.878,-1.9 z"
   id="path618" />

	<polygon
   style="fill:#ff8122;fill-opacity:1"
   points="397.935,71.401 396.707,71.055 395.302,72.609 395.828,73.992 397.058,74.165 397.935,73.128 "
   id="polygon618" />

	<polygon
   style="fill:#ff8122;fill-opacity:1"
   points="408.467,72.956 409.344,72.438 409.519,70.537 408.114,70.365 407.763,72.438 "
   id="polygon619" />

	<polygon
   style="fill:#ff8122;fill-opacity:1"
   points="397.233,80.728 396.005,80.555 394.776,82.456 395.477,83.492 396.882,83.492 397.584,82.628 "
   id="polygon620" />

	<polygon
   style="fill:#ff8122;fill-opacity:1"
   points="407.939,82.974 408.817,82.628 409.344,80.555 407.588,80.555 407.237,82.456 "
   id="polygon621" />

	<path
   style="fill:#ff8122;fill-opacity:1"
   d="m 396.181,92.646 -1.404,1.9 0.525,1.382 1.229,0.172 c 0,0 1.053,-1.036 1.053,-1.554 0,-0.519 -0.174,-1.728 -0.174,-1.728 z"
   id="path621" />

	<path
   style="fill:#ff8122;fill-opacity:1"
   d="m 406.886,93.51 -0.177,1.9 1.054,0.346 c 0,0 0.879,0 1.055,-0.519 0.175,-0.518 -0.527,-2.245 -0.527,-2.245 z"
   id="path622" />

	<polygon
   style="fill:#ff8122;fill-opacity:1"
   points="397.584,104.392 396.531,104.564 395.302,106.637 396.005,107.846 397.233,107.846 398.11,106.637 "
   id="polygon622" />

	<polygon
   style="fill:#ff8122;fill-opacity:1"
   points="407.588,108.537 408.467,107.846 408.29,105.772 406.886,106.119 406.535,108.018 "
   id="polygon623" />

	<path
   style="fill:#ff8122;fill-opacity:1"
   d="m 397.41,116.31 -0.703,1.554 c 0.703,0.864 1.228,0.691 1.228,0.691 l 0.352,-1.9 z"
   id="path623" />

	<path
   style="fill:#ff8122;fill-opacity:1"
   d="m 406.185,116.482 0.176,1.554 1.053,0.173 c 0.701,-1.209 0.35,-2.764 0.35,-2.764 z"
   id="path624" />

	<path
   style="fill:#c99000;fill-opacity:1"
   d="m 404.968,30.464 -0.232,-2.715 -3.817,0.125 -3.357,-0.414 c 0.098,1.208 0.197,2.372 0.277,3.067 l 4.307,0.282 z"
   id="path625" />

	<path
   style="fill:#c99000;fill-opacity:1"
   d="m 404.255,44.801 1.81,-0.508 -0.207,-2.681 -0.726,0.253 -4.388,0.345 -2.059,-0.059 c 0.058,0.955 0.121,2.019 0.185,3.111 l 1.171,0.231 z"
   id="path626" />

	<path
   style="fill:#c99000;fill-opacity:1"
   d="m 406.891,55.406 -0.005,-0.415 -0.225,-2.935 -5.565,0.171 -1.83,-0.056 c 0.046,0.863 0.075,1.457 0.075,1.611 0,0.215 0.011,0.928 0.027,1.876 l 6.642,-0.149 z"
   id="path627" />

	<polygon
   style="fill:#c99000;fill-opacity:1"
   points="406.36,66.91 407.004,66.742 406.964,63.008 406.709,63.11 401.974,63.974 399.5,63.765 399.354,67.146 400.041,67.255 "
   id="polygon627" />

	<polygon
   style="fill:#c99000;fill-opacity:1"
   points="406.36,75.892 399.864,77.273 398.93,77.01 398.833,79.222 400.568,79.52 406.517,78.868 406.794,75.686 "
   id="polygon628" />

	<polygon
   style="fill:#c99000;fill-opacity:1"
   points="403.025,89.02 405.647,88.828 405.987,84.954 400.568,85.737 398.709,85.683 398.649,89.02 "
   id="polygon629" />

	<path
   style="fill:#c99000;fill-opacity:1"
   d="m 399.515,101.628 4.564,0.519 1.403,-0.099 c 0,-1.312 0,-2.664 0,-3.961 l -4.913,0.604 -1.43,-0.288 0.183,3.182 z"
   id="path629" />

	<path
   style="fill:#c99000;fill-opacity:1"
   d="m 400.217,110.955 -0.62,-0.086 0.051,3.806 1.974,0.081 3.639,-0.371 c 0.087,-1.65 0.16,-3.095 0.197,-3.872 z"
   id="path630" />

	<path
   style="fill:#c99000;fill-opacity:1"
   d="m 403.903,120.282 c -0.351,0 -2.313,0.303 -3.602,0.508 l 0.616,2.947 0.01,0.085 3.854,-0.632 c 0.01,-0.181 0.077,-1.39 0.165,-3.018 -0.534,0.067 -0.926,0.11 -1.043,0.11 z"
   id="path631" />

	
	
	
	
	
	
	
	
	
</g>
  </g>
</svg>
