<?xml version="1.0" encoding="UTF-8" standalone="no"?>
<!-- Created with Inkscape (http://www.inkscape.org/) -->

<svg
   width="13.4mm"
   height="60.200001mm"
   viewBox="0 0 13.4 60.200001"
   version="1.1"
   id="svg1"
   inkscape:version="1.4.3 (0d15f75, 2025-12-25)"
   sodipodi:docname="caterpillar.svg"
   xmlns:inkscape="http://www.inkscape.org/namespaces/inkscape"
   xmlns:sodipodi="http://sodipodi.sourceforge.net/DTD/sodipodi-0.dtd"
   xmlns="http://www.w3.org/2000/svg"
   xmlns:svg="http://www.w3.org/2000/svg">
  <sodipodi:namedview
     id="namedview1"
     pagecolor="#ffffff"
     bordercolor="#000000"
     borderopacity="0.25"
     inkscape:showpageshadow="2"
     inkscape:pageopacity="0.0"
     inkscape:pagecheckerboard="0"
     inkscape:deskcolor="#d1d1d1"
     inkscape:document-units="mm"
     inkscape:zoom="0.72604517"
     inkscape:cx="396.66953"
     inkscape:cy="561.25984"
     inkscape:window-width="1920"
     inkscape:window-height="1017"
     inkscape:window-x="-8"
     inkscape:window-y="-8"
     inkscape:window-maximized="1"
     inkscape:current-layer="layer1" />
  <defs
     id="defs1" />
  <g
     inkscape:label="Layer 1"
     inkscape:groupmode="layer"
     id="layer1">
    <g
       id="g129"
       transform="matrix(0,0.26458333,-0.26458333,0,116.19071,-60.877714)">
		<ellipse
   cx="394.15701"
   cy="413.89401"
   rx="4.0599999"
   ry="9.3199997"
   id="ellipse107" />

		<path
   d="m 385.658,413.894 c 0,7.889 -2.195,15.206 -6.013,20.202 3.483,3.206 7.426,5.05 10.879,5.05 3.467,0 6.76,-1.827 9.525,-5.285 3.858,-4.825 6.071,-12.103 6.071,-19.966 0,-7.863 -2.213,-15.141 -6.071,-19.966 -2.764,-3.457 -6.057,-5.285 -9.525,-5.285 -3.453,0 -7.396,1.843 -10.879,5.05 3.818,4.994 6.013,12.311 6.013,20.2 z m 13.556,0 c 0,5.785 -2.221,10.316 -5.056,10.316 -2.835,0 -5.056,-4.531 -5.056,-10.316 0,-5.785 2.221,-10.316 5.056,-10.316 2.835,0 5.056,4.531 5.056,10.316 z"
   id="path108" />

		<path
   d="m 370.057,413.894 c 0,5.052 1.859,9.32 4.06,9.32 2.201,0 4.06,-4.268 4.06,-9.32 0,-5.052 -1.859,-9.32 -4.06,-9.32 -2.2,0 -4.06,4.268 -4.06,9.32 z"
   id="path109" />

		<path
   d="m 350.017,413.894 c 0,5.052 1.86,9.32 4.06,9.32 2.201,0 4.061,-4.268 4.061,-9.32 0,-5.052 -1.859,-9.32 -4.061,-9.32 -2.2,0 -4.06,4.268 -4.06,9.32 z"
   id="path110" />

		<path
   d="m 364.2,413.894 c 0,7.889 -2.195,15.206 -6.013,20.201 3.483,3.207 7.426,5.05 10.879,5.05 3.467,0 6.76,-1.827 9.525,-5.285 3.858,-4.825 6.071,-12.103 6.071,-19.966 0,-7.863 -2.212,-15.141 -6.071,-19.966 -2.764,-3.458 -6.057,-5.285 -9.525,-5.285 -3.453,0 -7.396,1.843 -10.879,5.05 3.818,4.995 6.013,12.312 6.013,20.201 z m 14.974,0 c 0,5.785 -2.221,10.316 -5.057,10.316 -2.835,0 -5.056,-4.531 -5.056,-10.316 0,-5.785 2.221,-10.316 5.056,-10.316 2.836,0 5.057,4.531 5.057,10.316 z"
   id="path111" />

		<path
   d="m 407.116,413.894 c 0,7.889 -2.195,15.206 -6.013,20.202 3.483,3.206 7.426,5.05 10.879,5.05 3.467,0 6.761,-1.827 9.524,-5.285 3.858,-4.825 6.071,-12.103 6.071,-19.966 0,-7.863 -2.213,-15.141 -6.071,-19.966 -2.764,-3.457 -6.057,-5.285 -9.524,-5.285 -3.453,0 -7.396,1.843 -10.879,5.05 3.818,4.994 6.013,12.311 6.013,20.2 z m 14.285,0 c 0,5.785 -2.221,10.316 -5.056,10.316 -2.835,0 -5.057,-4.531 -5.057,-10.316 0,-5.785 2.221,-10.316 5.057,-10.316 2.835,0 5.056,4.532 5.056,10.316 z"
   id="path112" />

		<path
   d="m 428.573,413.894 c 0,7.889 -2.195,15.206 -6.013,20.202 3.483,3.206 7.426,5.05 10.879,5.05 4.057,0 7.9,-2.528 10.824,-7.119 3.077,-4.798 4.771,-11.237 4.771,-18.132 0,-6.895 -1.694,-13.335 -4.771,-18.131 -2.924,-4.592 -6.768,-7.12 -10.825,-7.12 -3.453,0 -7.396,1.843 -10.879,5.05 3.82,4.994 6.014,12.312 6.014,20.2 z m 14.298,0 c 0,5.785 -2.221,10.316 -5.056,10.316 -2.836,0 -5.057,-4.531 -5.057,-10.316 0,-5.785 2.221,-10.316 5.057,-10.316 2.835,0 5.056,4.532 5.056,10.316 z"
   id="path113" />

		<path
   d="m 433.755,413.894 c 0,5.052 1.859,9.32 4.06,9.32 2.201,0 4.06,-4.268 4.06,-9.32 0,-5.052 -1.859,-9.32 -4.06,-9.32 -2.201,0 -4.06,4.268 -4.06,9.32 z"
   id="path114" />

		<path
   d="m 234.457,409.066 c 0,-0.272 -0.051,-0.536 -0.145,-0.782 -0.183,0.1 -0.366,0.199 -0.539,0.306 -0.103,0.064 -0.211,0.123 -0.311,0.189 -0.346,0.229 -0.675,0.47 -0.976,0.725 -0.029,0.025 -0.052,0.052 -0.081,0.077 -0.266,0.231 -0.511,0.472 -0.735,0.72 -0.082,0.09 -0.152,0.183 -0.227,0.275 -0.1,0.121 -0.187,0.245 -0.276,0.37 0.333,0.196 0.713,0.304 1.105,0.304 1.205,0 2.185,-0.979 2.185,-2.184 z"
   id="path115" />

		<path
   d="m 254.842,413.894 c 0,-8.599 -3.627,-15.595 -8.085,-15.595 -0.035,0.008 -0.091,0.009 -0.127,0.01 -3.177,0.082 -6.854,3.636 -8.744,8.45 l -0.001,10e-4 v 0 c -0.89,2.241 -1.359,4.707 -1.359,7.134 0,2.426 0.47,4.892 1.359,7.133 v 0.001 l 0.001,10e-4 c 1.89,4.814 5.567,8.368 8.744,8.45 l 0.003,0.009 c 0.042,10e-4 0.083,0.007 0.124,0.019 v -0.018 c 4.458,0 8.085,-6.996 8.085,-15.595 z"
   id="path116" />

		<path
   d="m 445.804,431.356 c 7.118,-2.844 11.814,-9.696 11.814,-17.462 0,-7.766 -4.696,-14.618 -11.814,-17.462 2.723,4.802 4.227,10.93 4.227,17.462 0,6.532 -1.504,12.66 -4.227,17.462 z"
   id="path117" />

		<path
   d="m 412.284,413.894 c 0,5.052 1.859,9.32 4.06,9.32 2.201,0 4.06,-4.268 4.06,-9.32 0,-5.052 -1.859,-9.32 -4.06,-9.32 -2.201,0 -4.06,4.268 -4.06,9.32 z"
   id="path118" />

		<path
   d="m 342.742,413.894 c 0,7.889 -2.194,15.206 -6.013,20.201 3.483,3.207 7.426,5.05 10.879,5.05 3.467,0 6.761,-1.827 9.525,-5.285 3.858,-4.825 6.071,-12.103 6.071,-19.966 0,-7.863 -2.212,-15.141 -6.071,-19.966 -2.764,-3.458 -6.057,-5.285 -9.525,-5.285 -3.453,0 -7.396,1.843 -10.879,5.05 3.819,4.995 6.013,12.312 6.013,20.201 z m 16.392,0 c 0,5.785 -2.221,10.316 -5.057,10.316 -2.835,0 -5.056,-4.531 -5.056,-10.316 0,-5.785 2.221,-10.316 5.056,-10.316 2.836,0 5.057,4.531 5.057,10.316 z"
   id="path119" />

		<path
   d="m 232.273,416.538 c -0.392,0 -0.772,0.108 -1.105,0.304 0.09,0.125 0.177,0.251 0.278,0.373 0.073,0.09 0.142,0.18 0.222,0.268 0.225,0.249 0.471,0.491 0.739,0.724 0.028,0.025 0.051,0.051 0.08,0.076 0.301,0.255 0.629,0.495 0.974,0.724 0.101,0.067 0.211,0.128 0.316,0.192 0.173,0.107 0.355,0.206 0.536,0.305 0.094,-0.246 0.145,-0.51 0.145,-0.782 -0.001,-1.204 -0.981,-2.184 -2.185,-2.184 z"
   id="path120" />

		<path
   d="m 284.53,413.894 c 0,5.052 1.859,9.32 4.06,9.32 2.201,0 4.06,-4.268 4.06,-9.32 0,-5.052 -1.859,-9.32 -4.06,-9.32 -2.201,0 -4.06,4.268 -4.06,9.32 z"
   id="path121" />

		<path
   d="m 278.369,413.894 c 0,7.889 -2.195,15.206 -6.013,20.201 3.483,3.207 7.426,5.05 10.879,5.05 3.467,0 6.761,-1.827 9.525,-5.285 3.858,-4.825 6.071,-12.103 6.071,-19.966 0,-7.863 -2.212,-15.141 -6.071,-19.966 -2.764,-3.458 -6.058,-5.285 -9.525,-5.285 -3.453,0 -7.396,1.843 -10.879,5.05 3.818,4.995 6.013,12.312 6.013,20.201 z m 15.277,0 c 0,5.785 -2.221,10.316 -5.056,10.316 -2.835,0 -5.056,-4.531 -5.056,-10.316 0,-5.785 2.221,-10.316 5.056,-10.316 2.836,0 5.056,4.531 5.056,10.316 z"
   id="path122" />

		<path
   d="m 261.27,413.894 c 0,5.052 1.859,9.32 4.06,9.32 2.201,0 4.061,-4.268 4.061,-9.32 0,-5.052 -1.86,-9.32 -4.061,-9.32 -2.201,0 -4.06,4.268 -4.06,9.32 z"
   id="path123" />

		<path
   d="m 299.827,413.894 c 0,7.889 -2.195,15.206 -6.013,20.201 3.483,3.207 7.426,5.05 10.879,5.05 3.467,0 6.761,-1.827 9.525,-5.285 3.858,-4.825 6.071,-12.103 6.071,-19.966 0,-7.863 -2.212,-15.141 -6.071,-19.966 -2.764,-3.458 -6.058,-5.285 -9.525,-5.285 -3.453,0 -7.396,1.843 -10.879,5.05 3.818,4.995 6.013,12.312 6.013,20.201 z m 14.933,0 c 0,5.785 -2.221,10.316 -5.056,10.316 -2.836,0 -5.057,-4.531 -5.057,-10.316 0,-5.785 2.221,-10.316 5.057,-10.316 2.835,0 5.056,4.531 5.056,10.316 z"
   id="path124" />

		<path
   d="m 247.557,397.377 c 4.633,0.744 8.281,7.863 8.281,16.517 0,8.655 -3.648,15.773 -8.281,16.517 4.005,5.328 9.507,8.734 14.22,8.734 3.467,0 6.76,-1.827 9.525,-5.285 3.858,-4.825 6.071,-12.103 6.071,-19.966 0,-7.863 -2.212,-15.141 -6.071,-19.966 -2.764,-3.458 -6.057,-5.285 -9.525,-5.285 -4.713,0 -10.215,3.405 -14.22,8.734 z m 22.83,16.517 c 0,5.785 -2.221,10.316 -5.057,10.316 -2.835,0 -5.056,-4.531 -5.056,-10.316 0,-5.785 2.221,-10.316 5.056,-10.316 2.835,0 5.057,4.531 5.057,10.316 z"
   id="path125" />

		<path
   d="m 236.627,407.292 c -0.489,0.146 -0.965,0.335 -1.428,0.543 0.163,0.386 0.254,0.802 0.254,1.232 0,1.753 -1.426,3.18 -3.18,3.18 -0.584,0 -1.148,-0.162 -1.641,-0.459 -0.355,0.694 -0.543,1.399 -0.543,2.107 0,0.709 0.189,1.415 0.543,2.107 0.492,-0.297 1.057,-0.459 1.641,-0.459 1.754,0 3.18,1.427 3.18,3.18 0,0.43 -0.091,0.846 -0.254,1.232 0.464,0.208 0.94,0.397 1.428,0.542 -0.729,-2.121 -1.098,-4.337 -1.098,-6.602 0,-2.265 0.369,-4.482 1.098,-6.603 z"
   id="path126" />

		<path
   d="m 321.284,413.894 c 0,7.889 -2.194,15.206 -6.013,20.201 3.483,3.207 7.426,5.05 10.879,5.05 3.467,0 6.761,-1.827 9.525,-5.285 3.858,-4.825 6.071,-12.103 6.071,-19.966 0,-7.863 -2.212,-15.141 -6.071,-19.966 -2.764,-3.458 -6.057,-5.285 -9.525,-5.285 -3.453,0 -7.396,1.843 -10.879,5.05 3.819,4.995 6.013,12.312 6.013,20.201 z m 15.663,0 c 0,5.785 -2.221,10.316 -5.056,10.316 -2.836,0 -5.057,-4.531 -5.057,-10.316 0,-5.785 2.221,-10.316 5.057,-10.316 2.835,0 5.056,4.531 5.056,10.316 z"
   id="path127" />

		<path
   d="m 327.83,413.894 c 0,5.052 1.86,9.32 4.06,9.32 2.2,0 4.06,-4.268 4.06,-9.32 0,-5.052 -1.859,-9.32 -4.06,-9.32 -2.201,0 -4.06,4.268 -4.06,9.32 z"
   id="path128" />

		<path
   d="m 305.643,413.894 c 0,5.052 1.86,9.32 4.061,9.32 2.201,0 4.06,-4.268 4.06,-9.32 0,-5.052 -1.859,-9.32 -4.06,-9.32 -2.201,0 -4.061,4.268 -4.061,9.32 z"
   id="path129" />

	</g>
  </g>
</svg>
