<?xml version="1.0" encoding="UTF-8" standalone="no"?>
<!-- Created with Inkscape (http://www.inkscape.org/) -->

<svg
   width="20.5mm"
   height="96.5mm"
   viewBox="0 0 20.500001 96.5"
   version="1.1"
   id="svg1"
   inkscape:version="1.4.3 (0d15f75, 2025-12-25)"
   sodipodi:docname="centipede.svg"
   xml:space="preserve"
   xmlns:inkscape="http://www.inkscape.org/namespaces/inkscape"
   xmlns:sodipodi="http://sodipodi.sourceforge.net/DTD/sodipodi-0.dtd"
   xmlns="http://www.w3.org/2000/svg"
   xmlns:svg="http://www.w3.org/2000/svg"><sodipodi:namedview
     id="namedview1"
     pagecolor="#ffffff"
     bordercolor="#000000"
     borderopacity="0.25"
     inkscape:showpageshadow="2"
     inkscape:pageopacity="0.0"
     inkscape:pagecheckerboard="0"
     inkscape:deskcolor="#d1d1d1"
     inkscape:document-units="mm"
     inkscape:zoom="1.4520903"
     inkscape:cx="-18.593884"
     inkscape:cy="4.4763055"
     inkscape:window-width="1920"
     inkscape:window-height="1017"
     inkscape:window-x="-8"
     inkscape:window-y="-8"
     inkscape:window-maximized="1"
     inkscape:current-layer="layer1"
     showgrid="false" /><defs
     id="defs1"><inkscape:path-effect
       effect="fill_between_many"
       method="originald"
       linkedpaths="#path14,0,1"
       id="path-effect35"
       is_visible="true"
       lpeversion="0"
       join="true"
       close="true"
       autoreverse="true" /><inkscape:path-effect
       effect="fill_between_many"
       method="originald"
       linkedpaths="#path14,0,1"
       id="path-effect36"
       is_visible="true"
       lpeversion="0"
       join="true"
       close="true"
       autoreverse="true" /><inkscape:path-effect
       effect="fill_between_many"
       method="originald"
       linkedpaths="#path14,0,1"
       id="path-effect37"
       is_visible="true"
       lpeversion="0"
       join="true"
       close="true"
       autoreverse="true" /><inkscape:path-effect
       effect="fill_between_many"
       method="originald"
       linkedpaths="#path14,0,1"
       id="path-effect38"
       is_visible="true"
       lpeversion="0"
       join="true"
       close="true"
       autoreverse="true" /><clipPath
       clipPathUnits="userSpaceOnUse"
       id="clipPath2806"><path
         d="M 0,800 H 800 V 0 H 0 Z"
         id="path2804" /></clipPath></defs><g
     inkscape:groupmode="layer"
     id="layer1"
     inkscape:label="Layer 1"><g
       id="g55"
       inkscape:label="tail"
       transform="matrix(0.10610278,0,0,-0.10610225,-54.52188,107.25251)"><path
         d="m 599.158,176.047 c -3.551,-10.693 -7.098,-21.385 -10.647,-32.076 -3.847,-11.584 -2.506,-23.1 3.897,-33.492 1.852,-3.004 3.703,-6.01 5.556,-9.016 -1.236,3.535 -2.473,7.07 -3.706,10.605 -3.263,9.332 -3.108,18.393 0.472,27.608 4.084,10.51 8.168,21.019 12.249,31.529 -2.607,1.613 -5.212,3.229 -7.821,4.842"
         style="fill:#402727;fill-opacity:1;fill-rule:evenodd;stroke:none"
         id="path2808" /><path
         d="m 616.678,177.375 c 3.926,-10.557 7.852,-21.117 11.779,-31.678 4.253,-11.439 3.322,-22.996 -2.708,-33.607 -1.745,-3.069 -3.487,-6.137 -5.232,-9.205 1.11,3.574 2.219,7.148 3.327,10.726 2.93,9.444 2.453,18.491 -1.451,27.573 -4.453,10.359 -8.908,20.716 -13.36,31.074 2.547,1.707 5.097,3.414 7.645,5.117"
         style="fill:#402727;fill-opacity:1;fill-rule:evenodd;stroke:none"
         id="path2810" /></g><g
       id="g54"
       inkscape:label="head"
       transform="matrix(0.10584432,0.00740132,0.00740136,-0.10584379,-16.972734,79.15239)"><path
         d="m 222.104,665.088 c 17.253,21.923 24.741,52.614 14.961,98.803 12.904,-36.654 10.256,-70.404 -9.994,-100.861 -1.655,0.685 -3.311,1.373 -4.967,2.058 m -36.504,-3.34 c -18.727,20.679 -28.319,50.775 -21.753,97.532 -10.34,-37.459 -5.368,-70.944 16.939,-99.931 1.605,0.801 3.209,1.6 4.814,2.399"
         style="fill:#331d1d;fill-opacity:1;fill-rule:evenodd;stroke:none"
         id="path2812" /><path
         d="m 176.517,631.219 c -20.251,-6.628 -36.234,13.847 -50.183,47.232 5.832,-42.303 24.581,-60.987 49.457,-68.471 0.242,7.08 0.483,14.16 0.726,21.239"
         style="fill:#331d1d;fill-opacity:1;fill-rule:evenodd;stroke:none"
         id="path2814" /><path
         d="m 243.663,640.801 c 20.44,-6.015 35.799,14.932 48.737,48.72 -4.555,-42.459 -22.734,-61.697 -47.373,-69.927 -0.454,7.069 -0.909,14.138 -1.364,21.207"
         style="fill:#331d1d;fill-opacity:1;fill-rule:evenodd;stroke:none"
         id="path2816" /><path
         d="m 233.36,667.286 c 23.193,-14.728 30.055,-45.47 15.326,-68.662 -14.728,-23.193 -45.47,-30.056 -68.662,-15.327 -23.194,14.729 -30.056,45.471 -15.327,68.663 14.728,23.193 45.471,30.055 68.663,15.326"
         style="fill:#402727;fill-opacity:1;fill-rule:evenodd;stroke:none"
         id="path2818" /></g><g
       id="g53"
       transform="matrix(0.10569896,0.00924728,0.0092476,-0.10569855,-55.875064,100.73834)"><path
         d="m 610.077,180.816 c -28.061,-12.714 -27.657,6.608 -49.095,2.582 27.452,-4.142 19.95,-24.052 52.952,-10.271 -1.285,2.564 -2.57,5.125 -3.857,7.689"
         style="fill:#664848;fill-opacity:1;fill-rule:evenodd;stroke:none"
         id="path2820" /><path
         d="m 608.945,183.963 c 29.473,-8.977 26.572,10.131 48.349,8.912 -26.683,-7.662 -16.668,-26.434 -51.177,-17.037 0.943,2.707 1.886,5.416 2.828,8.125"
         style="fill:#664848;fill-opacity:1;fill-rule:evenodd;stroke:none"
         id="path2822" /><path
         d="m 605.314,197.979 c 9.928,0.646 18.501,-6.881 19.148,-16.811 0.642,-9.93 -6.883,-18.502 -16.814,-19.147 -9.927,-0.648 -18.5,6.881 -19.147,16.811 -0.645,9.93 6.884,18.502 16.813,19.147"
         style="fill:#80300f;fill-opacity:1;fill-rule:evenodd;stroke:none"
         id="path2824" /></g><g
       id="g52"
       transform="matrix(0.10415333,0.02024517,0.02024545,-0.10415289,-57.537526,93.772211)"><path
         d="m 610.162,212.582 c -28.725,-16.219 -30.122,4.432 -52.604,-1.894 29.669,-1.819 23.551,-23.764 57.444,-5.94 -1.613,2.611 -3.228,5.221 -4.84,7.834"
         style="fill:#664848;fill-opacity:1;fill-rule:evenodd;stroke:none"
         id="path2826" /><path
         d="m 607.828,215.508 c 32.282,-6.783 27.376,13.32 50.719,14.084 -27.734,-10.697 -15.274,-29.768 -52.966,-23.016 0.749,2.977 1.498,5.953 2.247,8.932"
         style="fill:#664848;fill-opacity:1;fill-rule:evenodd;stroke:none"
         id="path2828" /><path
         d="m 603.09,230.336 c 10.528,1.627 20.381,-5.586 22.01,-16.115 1.629,-10.53 -5.587,-20.383 -16.116,-22.012 -10.528,-1.629 -20.383,5.586 -22.012,16.115 -1.626,10.53 5.587,20.387 16.118,22.012"
         style="fill:#80300f;fill-opacity:1;fill-rule:evenodd;stroke:none"
         id="path2830" /></g><g
       id="g51"
       transform="matrix(0.10338337,0.02386779,0.02386796,-0.10338287,-58.209542,90.990811)"><path
         d="m 607.11,245.535 c -28.764,-20.232 -32.42,1.528 -55.604,-7.553 31.666,1.198 27.489,-22.728 61.564,-0.248 -1.987,2.6 -3.971,5.202 -5.96,7.801"
         style="fill:#664848;fill-opacity:1;fill-rule:evenodd;stroke:none"
         id="path2832" /><path
         d="m 603.662,248.066 c 34.96,-3.796 27.638,17.02 52.318,20.284 -28.292,-14.268 -13.066,-33.188 -53.763,-29.993 0.482,3.237 0.963,6.473 1.445,9.709"
         style="fill:#664848;fill-opacity:1;fill-rule:evenodd;stroke:none"
         id="path2834" /><path
         d="m 597.44,263.516 c 10.997,2.838 22.211,-3.778 25.047,-14.776 2.838,-11 -3.779,-22.215 -14.775,-25.049 -10.999,-2.839 -22.214,3.778 -25.05,14.778 -2.835,10.996 3.779,22.211 14.778,25.047"
         style="fill:#80300f;fill-opacity:1;fill-rule:evenodd;stroke:none"
         id="path2836" /></g><g
       id="g50"
       transform="matrix(0.099704,0.03628911,0.03628929,-0.0997035,-59.491858,82.180882)"><path
         d="m 599.806,279.27 c -28.011,-24.704 -34.401,-2.159 -57.819,-14.436 33.288,4.943 31.661,-20.799 65.02,6.893 -2.4,2.515 -4.799,5.029 -7.201,7.543"
         style="fill:#664848;fill-opacity:1;fill-rule:evenodd;stroke:none"
         id="path2838" /><path
         d="m 595.36,281.232 c 37.348,0.059 27.198,21.174 52.872,27.495 -28.21,-18.352 -9.935,-36.555 -53.266,-37.916 0.131,3.474 0.262,6.945 0.394,10.421"
         style="fill:#664848;fill-opacity:1;fill-rule:evenodd;stroke:none"
         id="path2840" /><path
         d="m 587.275,297.018 c 11.28,4.273 23.888,-1.405 28.162,-12.686 4.272,-11.279 -1.407,-23.885 -12.687,-28.16 -11.279,-4.274 -23.888,1.408 -28.161,12.685 -4.273,11.28 1.406,23.889 12.686,28.161"
         style="fill:#80300f;fill-opacity:1;fill-rule:evenodd;stroke:none"
         id="path2842" /></g><g
       id="g49"
       transform="matrix(0.08998026,0.05622563,0.05622591,-0.08997981,-59.912479,67.294888)"><path
         d="m 586.895,313.287 c -22.568,-32.453 -34.82,-10.891 -55.797,-29.418 32.969,13.477 37.788,-13.396 65.098,23.483 -3.101,1.976 -6.202,3.957 -9.301,5.935"
         style="fill:#664848;fill-opacity:1;fill-rule:evenodd;stroke:none"
         id="path2844" /><path
         d="m 581.497,313.863 c 38.377,9.475 22.618,28.625 47.418,41.594 -24.371,-25.977 -0.996,-40.08 -45.198,-52.406 -0.741,3.607 -1.481,7.209 -2.22,10.812"
         style="fill:#664848;fill-opacity:1;fill-rule:evenodd;stroke:none"
         id="path2846" /><path
         d="m 569.381,328.254 c 10.518,7.236 24.911,4.574 32.148,-5.943 7.235,-10.518 4.575,-24.911 -5.943,-32.147 -10.517,-7.234 -24.911,-4.576 -32.147,5.941 -7.237,10.518 -4.575,24.913 5.942,32.149"
         style="fill:#80300f;fill-opacity:1;fill-rule:evenodd;stroke:none"
         id="path2848" /></g><g
       id="g48"
       transform="matrix(0.07236192,0.07759827,0.07759866,-0.07236156,-57.171908,48.798647)"><path
         d="m 565.655,345.018 c -14.513,-39.11 -32.711,-20.303 -49.267,-44.76 30.141,22.455 42.141,-3.735 60.337,41.14 -3.692,1.207 -7.381,2.413 -11.07,3.62"
         style="fill:#664848;fill-opacity:1;fill-rule:evenodd;stroke:none"
         id="path2850" /><path
         d="m 559.812,343.916 c 36.719,19.789 15.575,35.207 37.5,54.992 -18.062,-32.963 9.54,-41.22 -32.384,-65.455 -1.703,3.488 -3.41,6.975 -5.116,10.463"
         style="fill:#664848;fill-opacity:1;fill-rule:evenodd;stroke:none"
         id="path2852" /><path
         d="m 543.732,355.592 c 8.842,10.164 24.25,11.238 34.415,2.396 10.163,-8.843 11.237,-24.25 2.395,-34.416 -8.842,-10.164 -24.25,-11.236 -34.415,-2.394 -10.165,8.842 -11.236,24.248 -2.395,34.414"
         style="fill:#80300f;fill-opacity:1;fill-rule:evenodd;stroke:none"
         id="path2854" /></g><g
       id="g47"
       transform="matrix(0.04981224,0.09368273,0.09368319,-0.04981199,-50.965074,31.424367)"><path
         d="m 535.664,371.455 c -5.739,-43.521 -28.811,-28.484 -40.077,-57.449 25.673,30.092 44.115,6.027 52.28,56.326 -4.066,0.375 -8.134,0.75 -12.203,1.123"
         style="fill:#664848;fill-opacity:1;fill-rule:evenodd;stroke:none"
         id="path2856" /><path
         d="m 529.856,368.793 c 33.045,28.898 7.742,39.768 25.612,65.198 -10.822,-38.046 19.431,-40.059 -17.913,-74.735 -2.565,3.18 -5.132,6.359 -7.699,9.537"
         style="fill:#664848;fill-opacity:1;fill-rule:evenodd;stroke:none"
         id="path2858" /><path
         d="m 510.658,377.107 c 6.695,12.5 22.252,17.206 34.752,10.512 12.496,-6.693 17.203,-22.252 10.509,-34.75 -6.694,-12.498 -22.252,-17.203 -34.749,-10.512 -12.499,6.696 -17.204,22.252 -10.512,34.75"
         style="fill:#80300f;fill-opacity:1;fill-rule:evenodd;stroke:none"
         id="path2860" /></g><g
       id="g46"
       transform="matrix(0.02746142,0.1024869,0.10248742,-0.02746128,-43.335273,18.173654)"><path
         d="m 498.813,391.986 c 4.603,-45.853 -22.591,-36.037 -27.133,-68.345 18.995,36.925 43.63,16.771 39.875,70.134 -4.246,-0.595 -8.495,-1.193 -12.742,-1.789"
         style="fill:#664848;fill-opacity:1;fill-rule:evenodd;stroke:none"
         id="path2862" /><path
         d="m 493.5,387.842 c 26.816,37.478 -1.655,42.5 10.485,72.783 -1.902,-41.481 29.495,-36.261 -0.324,-80.678 -3.387,2.631 -6.774,5.262 -10.161,7.895"
         style="fill:#664848;fill-opacity:1;fill-rule:evenodd;stroke:none"
         id="path2864" /><path
         d="m 471.893,391.738 c 3.835,14.382 18.599,22.932 32.98,19.099 14.382,-3.833 22.933,-18.601 19.099,-32.982 -3.832,-14.38 -18.6,-22.933 -32.98,-19.097 -14.383,3.832 -22.933,18.599 -19.099,32.98"
         style="fill:#80300f;fill-opacity:1;fill-rule:evenodd;stroke:none"
         id="path2866" /></g><g
       id="g45"
       transform="matrix(0.02206001,0.10378366,0.10378418,-0.0220599,-41.647954,15.232328)"><path
         d="m 457.161,406.078 c 8.845,-47.455 -20.403,-39.605 -22.298,-73.728 16.574,40.214 44.059,21.349 35.44,76.718 -4.382,-0.996 -8.762,-1.992 -13.142,-2.99"
         style="fill:#664848;fill-opacity:1;fill-rule:evenodd;stroke:none"
         id="path2868" /><path
         d="m 451.965,401.408 c 24.685,41.48 -5.476,44.214 4.53,76.891 1.667,-43.462 33.979,-35.25 6.77,-84.235 -3.767,2.45 -7.534,4.895 -11.3,7.344"
         style="fill:#664848;fill-opacity:1;fill-rule:evenodd;stroke:none"
         id="path2870" /><path
         d="m 429.082,403.5 c 2.734,15.347 17.393,25.574 32.742,22.84 15.348,-2.733 25.573,-17.392 22.839,-32.74 -2.733,-15.348 -17.392,-25.575 -32.739,-22.842 -15.348,2.736 -25.573,17.392 -22.842,32.742"
         style="fill:#80300f;fill-opacity:1;fill-rule:evenodd;stroke:none"
         id="path2872" /></g><g
       id="g44"
       transform="matrix(0.01659813,0.10479595,0.10479648,-0.01659805,-40.03104,12.229839)"><path
         d="m 412.254,417.437 c 10.873,-49.273 -19.954,-42.08 -20.759,-77.794 15.931,42.584 45.297,23.822 34.383,81.37 -4.542,-1.192 -9.084,-2.385 -13.624,-3.576"
         style="fill:#664848;fill-opacity:1;fill-rule:evenodd;stroke:none"
         id="path2874" /><path
         d="m 406.958,412.669 c 24.364,44.188 -7.239,46.003 2.087,80.489 3.238,-45.352 36.713,-35.657 9.972,-87.771 -4.019,2.428 -8.04,4.855 -12.059,7.282"
         style="fill:#664848;fill-opacity:1;fill-rule:evenodd;stroke:none"
         id="path2876" /><path
         d="m 383.01,413.902 c 2.326,16.129 17.291,27.316 33.421,24.989 16.127,-2.328 27.315,-17.29 24.988,-33.42 -2.329,-16.129 -17.291,-27.319 -33.421,-24.989 -16.127,2.327 -27.317,17.289 -24.988,33.42"
         style="fill:#80300f;fill-opacity:1;fill-rule:evenodd;stroke:none"
         id="path2878" /></g><g
       id="g43"
       transform="matrix(0.02566859,0.10295056,0.10295107,-0.02566846,-42.927852,16.546233)"><path
         d="m 364.761,429 c 9.031,-51.865 -22.764,-42.926 -25.271,-80.115 18.594,43.642 48.325,22.713 39.642,83.205 -4.792,-1.029 -9.581,-2.059 -14.371,-3.09"
         style="fill:#664848;fill-opacity:1;fill-rule:evenodd;stroke:none"
         id="path2880" /><path
         d="m 359.014,424.751 c 27.459,44.918 -5.397,48.289 5.935,83.798 1.257,-47.422 36.6,-38.882 6.293,-91.952 -4.077,2.718 -8.153,5.438 -12.228,8.154"
         style="fill:#664848;fill-opacity:1;fill-rule:evenodd;stroke:none"
         id="path2882" /><path
         d="m 334.134,426.883 c 3.18,16.702 19.299,27.665 36.003,24.485 16.702,-3.18 27.665,-19.299 24.484,-36.002 -3.18,-16.702 -19.3,-27.665 -36.002,-24.485 -16.703,3.182 -27.664,19.299 -24.485,36.002"
         style="fill:#80300f;fill-opacity:1;fill-rule:evenodd;stroke:none"
         id="path2884" /></g><g
       id="g42"
       transform="matrix(0.04145766,0.09766764,0.09766812,-0.04145745,-46.016978,25.173998)"><path
         d="m 315.778,445.291 c 0.188,-54.836 -30.891,-40.086 -39.983,-77.83 26.738,41.551 53.598,14.853 55.28,78.487 -5.099,-0.219 -10.198,-0.438 -15.297,-0.657"
         style="fill:#664848;fill-opacity:1;fill-rule:evenodd;stroke:none"
         id="path2886" /><path
         d="m 309.247,442.598 c 36.063,41.308 2.918,50.524 20.774,84.995 -7.016,-48.907 30.766,-46.332 -9.648,-95.51 -3.708,3.504 -7.418,7.01 -11.126,10.515"
         style="fill:#664848;fill-opacity:1;fill-rule:evenodd;stroke:none"
         id="path2888" /><path
         d="m 284.041,448.757 c 6.191,16.593 24.662,25.025 41.253,18.834 16.592,-6.192 25.024,-24.663 18.833,-41.255 -6.191,-16.59 -24.662,-25.023 -41.253,-18.832 -16.592,6.192 -25.026,24.662 -18.833,41.253"
         style="fill:#80300f;fill-opacity:1;fill-rule:evenodd;stroke:none"
         id="path2890" /></g><g
       id="g41"
       transform="matrix(0.06532339,0.08360971,0.08361013,-0.06532307,-46.755132,40.403923)"><path
         d="m 269.278,473.979 c -17.154,-54.383 -43.281,-29.944 -64.222,-64.461 39.627,32.709 57.794,-2.233 79.582,60.274 -5.121,1.396 -10.241,2.791 -15.36,4.187"
         style="fill:#664848;fill-opacity:1;fill-rule:evenodd;stroke:none"
         id="path2892" /><path
         d="m 262.375,474.165 c 48.789,29.518 18.869,49.13 47.46,77.634 -22.419,-46.234 15.826,-55.63 -39.762,-91.57 -2.566,4.646 -5.133,9.292 -7.698,13.936"
         style="fill:#664848;fill-opacity:1;fill-rule:evenodd;stroke:none"
         id="path2894" /><path
         d="m 239.147,487.766 c 11.38,14.48 32.344,16.992 46.824,5.611 14.48,-11.38 16.992,-32.343 5.612,-46.824 -11.381,-14.48 -32.346,-16.991 -46.825,-5.611 -14.479,11.38 -16.991,32.344 -5.611,46.824"
         style="fill:#80300f;fill-opacity:1;fill-rule:evenodd;stroke:none"
         id="path2896" /></g><g
       id="g40"
       transform="matrix(0.09766812,0.04145745,0.04145766,-0.09766764,-34.031563,66.978533)"><path
         d="m 234.077,520.556 c -42.994,-40.717 -54.387,-5.359 -90.801,-26.132 52.464,9.71 51.337,-31.169 102.633,14.586 -3.944,3.85 -7.889,7.698 -11.832,11.546"
         style="fill:#664848;fill-opacity:1;fill-rule:evenodd;stroke:none"
         id="path2898" /><path
         d="m 228.872,524.822 c 59.173,2.194 41.901,35.084 82.228,46.542 -43.663,-30.665 -13.683,-58.479 -82.267,-63.074 0.012,5.511 0.026,11.021 0.039,16.532"
         style="fill:#664848;fill-opacity:1;fill-rule:evenodd;stroke:none"
         id="path2900" /><path
         d="m 214.116,548.481 c 17.632,7.406 37.929,-0.885 45.334,-18.518 7.405,-17.63 -0.885,-37.927 -18.516,-45.333 -17.632,-7.404 -37.93,0.886 -45.334,18.518 -7.407,17.631 0.883,37.928 18.516,45.333"
         style="fill:#80300f;fill-opacity:1;fill-rule:evenodd;stroke:none"
         id="path2902" /></g><g
       id="g39"
       transform="matrix(0.10415337,0.02024526,0.02024536,-0.10415285,-24.297895,75.35169)"><path
         d="m 219.308,583.18 c -52.211,-32.318 -56.355,5.981 -97.695,-7.467 55.316,-1.159 45.586,-42.433 107.285,-6.743 -3.196,4.737 -6.394,9.474 -9.59,14.21"
         style="fill:#664848;fill-opacity:1;fill-rule:evenodd;stroke:none"
         id="path2904" /><path
         d="m 216.266,589.108 c 60.551,-10.199 49.919,26.827 93.277,29.993 -50.779,-21.971 -26.177,-56.512 -96.788,-46.772 1.171,5.592 2.342,11.185 3.511,16.779"
         style="fill:#664848;fill-opacity:1;fill-rule:evenodd;stroke:none"
         id="path2906" /><path
         d="m 205.497,615.88 c 19.461,3.818 38.331,-8.863 42.148,-28.323 3.817,-19.461 -8.864,-38.331 -28.324,-42.148 -19.46,-3.818 -38.33,8.864 -42.148,28.324 -3.817,19.46 8.865,38.33 28.324,42.147"
         style="fill:#80300f;fill-opacity:1;fill-rule:evenodd;stroke:none"
         id="path2908" /></g><g
       id="g56"
       inkscape:label="eyes"
       transform="matrix(0.10584432,0.00740136,0.00740133,-0.1058438,-16.738398,79.480752)"><path
         d="m 181.987,663.465 c 1.649,-1.048 0.534,-5.757 -2.492,-10.519 -3.023,-4.763 -6.813,-7.776 -8.461,-6.729 -1.649,1.047 -0.533,5.758 2.492,10.52 3.023,4.762 6.813,7.775 8.461,6.728"
         style="fill:#916e6e;fill-opacity:1;fill-rule:evenodd;stroke:none"
         id="path2912" /><path
         d="m 218.023,666.196 c 1.047,1.648 5.756,0.532 10.519,-2.491 4.763,-3.026 7.775,-6.815 6.729,-8.463 -1.047,-1.648 -5.757,-0.533 -10.52,2.492 -4.762,3.024 -7.775,6.813 -6.728,8.462"
         style="fill:#916e6e;fill-opacity:1;fill-rule:evenodd;stroke:none"
         id="path2914" /></g><path
       style="opacity:0.2;fill:#43251a;fill-opacity:1;stroke:#ff0000;stroke-width:0.264583;stroke-opacity:0.266667"
       d="m 8.9282208,15.442177 1.0021477,73.726149 0.4555255,-73.7717"
       id="path56"
       inkscape:label="spine"
       sodipodi:nodetypes="ccc" /></g></svg>
