<?xml version="1.0" encoding="UTF-8" standalone="no"?>
<!-- Created with Inkscape (http://www.inkscape.org/) -->

<svg
   width="7.999177mm"
   height="29.283085mm"
   viewBox="0 0 7.999177 29.283085"
   version="1.1"
   id="svg1"
   inkscape:version="1.4.3 (0d15f75, 2025-12-25)"
   sodipodi:docname="centipede.svg"
   xmlns:inkscape="http://www.inkscape.org/namespaces/inkscape"
   xmlns:sodipodi="http://sodipodi.sourceforge.net/DTD/sodipodi-0.dtd"
   xmlns="http://www.w3.org/2000/svg"
   xmlns:svg="http://www.w3.org/2000/svg">
  <sodipodi:namedview
     id="namedview1"
     pagecolor="#ffffff"
     bordercolor="#000000"
     borderopacity="0.25"
     inkscape:showpageshadow="2"
     inkscape:pageopacity="0.0"
     inkscape:pagecheckerboard="0"
     inkscape:deskcolor="#d1d1d1"
     inkscape:document-units="mm"
     inkscape:zoom="16.428527"
     inkscape:cx="-1.6434827"
     inkscape:cy="81.474133"
     inkscape:window-width="1920"
     inkscape:window-height="1017"
     inkscape:window-x="-8"
     inkscape:window-y="-8"
     inkscape:window-maximized="1"
     inkscape:current-layer="g78"
     showgrid="false" />
  <defs
     id="defs1" />
  <g
     inkscape:label="Layer 1"
     inkscape:groupmode="layer"
     id="layer1">
    <g
       id="g78"
       transform="matrix(0.26459582,0,0,0.26459582,-67.640482,-87.393089)">
      <g
         id="g34"
         transform="translate(0.42393259,8.5593303)">
        <path
           style="fill:#fbcc02;fill-opacity:0.9"
           d="m 275.357,358.319 c 0,0 0.875,-1.872 3.68,-2.48 2.805,-0.608 6.319,-0.715 6.319,-0.715 0,0 -0.213,0.958 -2.342,1.597 -2.129,0.639 -4.153,0.763 -5.536,1.597 -1.383,0.834 -2.12,1.538 -2.12,1.538 v -1.537 z"
           id="path33" />
      </g>
      <g
         id="g35">
        <path
           style="fill:#fbcc02;fill-opacity:0.9"
           d="m 265.636,366.878 c 0,0 -0.875,-1.872 -3.68,-2.48 -2.805,-0.608 -6.319,-0.715 -6.319,-0.715 0,0 0.213,0.958 2.342,1.597 2.129,0.639 4.153,0.763 5.536,1.597 1.383,0.834 2.12,1.538 2.12,1.538 v -1.537 z"
           id="path34" />
      </g>
      <g
         id="g35-6"
         transform="translate(1.3706188e-6,8.6127316)">
        <path
           style="fill:#fbcc02;fill-opacity:0.9"
           d="m 265.636,366.878 c 0,0 -0.875,-1.872 -3.68,-2.48 -2.805,-0.608 -6.319,-0.715 -6.319,-0.715 0,0 0.213,0.958 2.342,1.597 2.129,0.639 4.153,0.763 5.536,1.597 1.383,0.834 2.12,1.538 2.12,1.538 v -1.537 z"
           id="path34-1" />
      </g>
      <g
         id="g37"
         transform="translate(-0.05406741,7.342621)">
        <path
           style="fill:#fbcc02;fill-opacity:0.9"
           d="m 275.835,375.734 c 0,0 0.875,-1.872 3.68,-2.48 2.805,-0.608 6.319,-0.715 6.319,-0.715 0,0 -0.213,0.958 -2.342,1.597 -2.129,0.639 -4.153,0.763 -5.536,1.597 -1.383,0.834 -2.12,1.538 -2.12,1.538 v -1.537 z"
           id="path36" />
      </g>
      <g
         id="g39"
         transform="translate(0,-0.60866858)">
        <path
           style="fill:#fbcc02;fill-opacity:0.9"
           d="m 265.636,383.685 c 0,0 -0.875,-1.872 -3.68,-2.48 -2.805,-0.608 -6.319,-0.715 -6.319,-0.715 0,0 0.213,0.958 2.342,1.597 2.129,0.639 4.153,0.763 5.536,1.597 1.383,0.834 2.12,1.538 2.12,1.538 v -1.537 z"
           id="path38" />
      </g>
      <g
         id="g41"
         transform="translate(-0.05406741,7.4019527)">
        <path
           style="fill:#fbcc02;fill-opacity:0.9"
           d="m 275.835,391.17 c 0,0 0.875,-1.872 3.68,-2.48 2.805,-0.608 6.319,-0.715 6.319,-0.715 0,0 -0.213,0.958 -2.342,1.597 -2.129,0.639 -4.153,0.763 -5.536,1.597 -1.383,0.834 -2.12,1.538 -2.12,1.538 v -1.537 z"
           id="path40" />
      </g>
      <g
         id="g43"
         transform="translate(1.3706188e-6,-0.91300286)">
        <path
           style="fill:#fbcc02;fill-opacity:0.9"
           d="m 265.636,399.484 c 0,0 -0.875,-1.872 -3.68,-2.48 -2.805,-0.608 -6.319,-0.715 -6.319,-0.715 0,0 0.213,0.958 2.342,1.597 2.129,0.639 4.153,0.763 5.536,1.597 1.383,0.834 2.12,1.538 2.12,1.538 v -1.537 z"
           id="path42" />
      </g>
      <g
         id="g45"
         transform="translate(-0.05406741,7.1312985)">
        <path
           style="fill:#fbcc02;fill-opacity:0.9"
           d="m 275.835,406.97 c 0,0 0.875,-1.872 3.68,-2.48 2.805,-0.608 6.319,-0.715 6.319,-0.715 0,0 -0.213,0.958 -2.342,1.597 -2.129,0.639 -4.153,0.763 -5.536,1.597 -1.383,0.834 -2.12,1.538 -2.12,1.538 v -1.537 z"
           id="path44" />
      </g>
      <g
         id="g47"
         transform="translate(1.3706188e-6,0.85213601)">
        <path
           style="fill:#fbcc02;fill-opacity:0.9"
           d="m 265.636,413.248 c 0,0 -0.875,-1.872 -3.68,-2.48 -2.805,-0.608 -6.319,-0.714 -6.319,-0.714 0,0 0.213,0.958 2.342,1.597 2.129,0.639 4.153,0.763 5.536,1.597 1.383,0.834 2.12,1.538 2.12,1.538 v -1.538 z"
           id="path46" />
      </g>
      <g
         id="g35-2"
         transform="translate(1.3706188e-6,23.612005)">
        <path
           style="fill:#fbcc02;fill-opacity:0.9"
           d="m 265.636,366.878 c 0,0 -0.875,-1.872 -3.68,-2.48 -2.805,-0.608 -6.319,-0.715 -6.319,-0.715 0,0 0.213,0.958 2.342,1.597 2.129,0.639 4.153,0.763 5.536,1.597 1.383,0.834 2.12,1.538 2.12,1.538 v -1.537 z"
           id="path34-16" />
      </g>
      <g
         id="g35-5"
         transform="translate(1.3706188e-6,39.393865)">
        <path
           style="fill:#fbcc02;fill-opacity:0.9"
           d="m 265.636,366.878 c 0,0 -0.875,-1.872 -3.68,-2.48 -2.805,-0.608 -6.319,-0.715 -6.319,-0.715 0,0 0.213,0.958 2.342,1.597 2.129,0.639 4.153,0.763 5.536,1.597 1.383,0.834 2.12,1.538 2.12,1.538 v -1.537 z"
           id="path34-4" />
      </g>
      <g
         id="g35-3"
         transform="translate(1.3706188e-6,55.184408)">
        <path
           style="fill:#fbcc02;fill-opacity:0.9"
           d="m 265.636,366.878 c 0,0 -0.875,-1.872 -3.68,-2.48 -2.805,-0.608 -6.319,-0.715 -6.319,-0.715 0,0 0.213,0.958 2.342,1.597 2.129,0.639 4.153,0.763 5.536,1.597 1.383,0.834 2.12,1.538 2.12,1.538 v -1.537 z"
           id="path34-41" />
      </g>
      <g
         id="g34-8"
         transform="translate(0.42393259,63.741608)">
        <path
           style="fill:#fbcc02;fill-opacity:0.9"
           d="m 275.357,358.319 c 0,0 0.875,-1.872 3.68,-2.48 2.805,-0.608 6.319,-0.715 6.319,-0.715 0,0 -0.213,0.958 -2.342,1.597 -2.129,0.639 -4.153,0.763 -5.536,1.597 -1.383,0.834 -2.12,1.538 -2.12,1.538 v -1.537 z"
           id="path33-6" />
      </g>
      <g
         id="g34-2"
         transform="translate(0.42393259,47.951487)">
        <path
           style="fill:#fbcc02;fill-opacity:0.9"
           d="m 275.357,358.319 c 0,0 0.875,-1.872 3.68,-2.48 2.805,-0.608 6.319,-0.715 6.319,-0.715 0,0 -0.213,0.958 -2.342,1.597 -2.129,0.639 -4.153,0.763 -5.536,1.597 -1.383,0.834 -2.12,1.538 -2.12,1.538 v -1.537 z"
           id="path33-8" />
      </g>
      <g
         id="g34-1"
         transform="translate(0.42393259,32.172704)">
        <path
           style="fill:#fbcc02;fill-opacity:0.9"
           d="m 275.357,358.319 c 0,0 0.875,-1.872 3.68,-2.48 2.805,-0.608 6.319,-0.715 6.319,-0.715 0,0 -0.213,0.958 -2.342,1.597 -2.129,0.639 -4.153,0.763 -5.536,1.597 -1.383,0.834 -2.12,1.538 -2.12,1.538 v -1.537 z"
           id="path33-9" />
      </g>
      <g
         id="g34-4"
         transform="translate(0.42393259,17.172467)">
        <path
           style="fill:#fbcc02;fill-opacity:0.9"
           d="m 275.357,358.319 c 0,0 0.875,-1.872 3.68,-2.48 2.805,-0.608 6.319,-0.715 6.319,-0.715 0,0 -0.213,0.958 -2.342,1.597 -2.129,0.639 -4.153,0.763 -5.536,1.597 -1.383,0.834 -2.12,1.538 -2.12,1.538 v -1.537 z"
           id="path33-2" />
      </g>
      <g
         id="g77">
        <g
           id="g51">
          <path
             style="fill:#424242"
             d="m 267.615,429.745 c 0,0 -1.945,1.58 -4.497,4.741 -2.553,3.16 -2.917,6.474 -2.917,6.474 0,0 3.631,-4.991 6.272,-6.839 2.641,-1.848 2.845,-3.871 2.845,-3.871 z"
             id="path50" />
        </g>
        <g
           id="g52">
          <path
             style="fill:#424242"
             d="m 273.081,429.745 c 0,0 1.945,1.58 4.498,4.741 2.553,3.16 2.917,6.474 2.917,6.474 0,0 -3.631,-4.991 -6.272,-6.839 -2.641,-1.848 -2.844,-3.871 -2.844,-3.871 z"
             id="path51" />
        </g>
        <g
           id="g53">
          <path
             style="fill:#c83812;fill-opacity:0.9"
             d="m 268.696,350.273 c 0,0 -2.927,-2.577 -5.468,-6.831 -1.074,-1.798 -1.134,-4.426 -1.22,-6.861 -0.117,-3.326 0,-6.292 0,-6.292 0,0 0.844,1.475 1.22,4.214 0.376,2.739 -0.261,5.414 1.46,8.878 1.379,2.777 4.629,5.771 4.629,5.771 z"
             id="path52" />
        </g>
        <g
           id="g54">
          <path
             style="fill:#c83812;fill-opacity:0.9"
             d="m 272.297,350.273 c 0,0 2.927,-2.577 5.468,-6.831 1.074,-1.798 1.135,-4.426 1.22,-6.861 0.117,-3.326 0,-6.292 0,-6.292 0,0 -0.844,1.475 -1.22,4.214 -0.376,2.739 0.261,5.414 -1.46,8.878 -1.379,2.777 -4.629,5.771 -4.629,5.771 z"
             id="path53" />
        </g>
        <g
           id="g55">
          <path
             style="fill:#80300f"
             d="m 273.368,425.503 -2.949,0.357 -2.791,-0.357 c 0,0 -1.238,1.501 -1.152,3.787 0.07,1.879 1.735,3.149 3.943,3.149 2.208,0 4.032,-1.269 4.102,-3.149 0.085,-2.287 -1.153,-3.787 -1.153,-3.787 z"
             id="path54" />
        </g>
        <g
           id="g56">
          <path
             style="fill:#80300f"
             d="m 274.84,417.064 -4.342,0.526 -4.109,-0.526 c 0,0 -1.822,2.209 -1.696,5.575 0.103,2.767 2.554,4.635 5.805,4.635 3.251,0 5.935,-1.869 6.039,-4.635 0.125,-3.366 -1.697,-5.575 -1.697,-5.575 z"
             id="path55" />
        </g>
        <g
           id="g57">
          <path
             style="fill:#c83812;fill-opacity:0.9"
             d="m 267.724,418.882 c 0,0 -1.9,3.653 0.1,5.442 1.863,1.666 4.39,1.348 5.698,0 1.999,-2.06 -0.2,-5.442 -0.2,-5.442 z"
             id="path56" />
        </g>
        <g
           id="g58">
          <path
             style="fill:#80300f"
             d="m 274.84,409.412 -4.342,0.526 -4.109,-0.526 c 0,0 -1.822,2.209 -1.696,5.575 0.103,2.767 2.554,4.635 5.805,4.635 3.251,0 5.935,-1.869 6.039,-4.635 0.125,-3.366 -1.697,-5.575 -1.697,-5.575 z"
             id="path57" />
        </g>
        <g
           id="g59">
          <path
             style="fill:#c83812;fill-opacity:0.9"
             d="m 267.724,411.23 c 0,0 -1.9,3.654 0.1,5.442 1.863,1.666 4.39,1.348 5.698,0 1.999,-2.06 -0.2,-5.442 -0.2,-5.442 z"
             id="path58" />
        </g>
        <g
           id="g60">
          <path
             style="fill:#80300f"
             d="m 274.84,401.985 -4.342,0.526 -4.109,-0.526 c 0,0 -1.822,2.209 -1.696,5.575 0.103,2.767 2.554,4.636 5.805,4.636 3.251,0 5.935,-1.869 6.039,-4.636 0.125,-3.366 -1.697,-5.575 -1.697,-5.575 z"
             id="path59" />
        </g>
        <g
           id="g61">
          <path
             style="fill:#c83812;fill-opacity:0.9"
             d="m 267.724,403.479 c 0,0 -1.9,3.653 0.1,5.442 1.863,1.666 4.39,1.348 5.698,0 1.999,-2.06 -0.2,-5.442 -0.2,-5.442 z"
             id="path60" />
        </g>
        <g
           id="g62">
          <path
             style="fill:#80300f"
             d="m 274.84,393.616 -4.342,0.526 -4.109,-0.526 c 0,0 -1.822,2.209 -1.696,5.575 0.103,2.767 2.554,4.635 5.805,4.635 3.251,0 5.935,-1.869 6.039,-4.635 0.125,-3.366 -1.697,-5.575 -1.697,-5.575 z"
             id="path61" />
        </g>
        <g
           id="g63">
          <path
             style="fill:#c83812;fill-opacity:0.9"
             d="m 267.724,395.434 c 0,0 -1.9,3.654 0.1,5.442 1.863,1.666 4.39,1.348 5.698,0 1.999,-2.06 -0.2,-5.442 -0.2,-5.442 z"
             id="path62" />
        </g>
        <g
           id="g64">
          <path
             style="fill:#80300f"
             d="m 274.84,385.964 -4.342,0.526 -4.109,-0.526 c 0,0 -1.822,2.209 -1.696,5.575 0.103,2.767 2.554,4.635 5.805,4.635 3.251,0 5.935,-1.869 6.039,-4.635 0.125,-3.366 -1.697,-5.575 -1.697,-5.575 z"
             id="path63" />
        </g>
        <g
           id="g65">
          <path
             style="fill:#c83812;fill-opacity:0.9"
             d="m 267.724,387.782 c 0,0 -1.9,3.654 0.1,5.442 1.863,1.666 4.39,1.348 5.698,0 1.999,-2.06 -0.2,-5.442 -0.2,-5.442 z"
             id="path64" />
        </g>
        <g
           id="g66">
          <path
             style="fill:#80300f"
             d="m 274.84,378.537 -4.342,0.526 -4.109,-0.526 c 0,0 -1.822,2.209 -1.696,5.575 0.103,2.767 2.554,4.635 5.805,4.635 3.251,0 5.935,-1.869 6.039,-4.635 0.125,-3.366 -1.697,-5.575 -1.697,-5.575 z"
             id="path65" />
        </g>
        <g
           id="g67">
          <path
             style="fill:#c83812;fill-opacity:0.9"
             d="m 267.724,380.31 c 0,0 -1.9,3.654 0.1,5.442 1.863,1.666 4.39,1.348 5.698,0 1.999,-2.06 -0.2,-5.442 -0.2,-5.442 z"
             id="path66" />
        </g>
        <g
           id="g68">
          <path
             style="fill:#80300f"
             d="m 274.84,370.918 -4.342,0.526 -4.109,-0.526 c 0,0 -1.822,2.209 -1.696,5.575 0.103,2.767 2.554,4.635 5.805,4.635 3.251,0 5.935,-1.869 6.039,-4.635 0.125,-3.365 -1.697,-5.575 -1.697,-5.575 z"
             id="path67" />
        </g>
        <g
           id="g69">
          <path
             style="fill:#c83812;fill-opacity:0.9"
             d="m 267.724,372.736 c 0,0 -1.9,3.654 0.1,5.442 1.863,1.666 4.39,1.348 5.698,0 1.999,-2.06 -0.2,-5.442 -0.2,-5.442 z"
             id="path68" />
        </g>
        <g
           id="g70">
          <path
             style="fill:#80300f"
             d="m 274.84,363.267 -4.342,0.526 -4.109,-0.526 c 0,0 -1.822,2.209 -1.696,5.575 0.103,2.767 2.554,4.635 5.805,4.635 3.251,0 5.935,-1.869 6.039,-4.635 0.125,-3.366 -1.697,-5.575 -1.697,-5.575 z"
             id="path69" />
        </g>
        <g
           id="g71">
          <path
             style="fill:#c83812;fill-opacity:0.9"
             d="m 267.724,365.015 c 0,0 -1.9,3.653 0.1,5.442 1.863,1.666 4.39,1.348 5.698,0 1.999,-2.06 -0.2,-5.442 -0.2,-5.442 z"
             id="path70" />
        </g>
        <g
           id="g72">
          <path
             style="fill:#80300f"
             d="m 274.84,355.84 -4.342,0.526 -4.109,-0.526 c 0,0 -1.822,2.209 -1.696,5.575 0.103,2.767 2.554,4.635 5.805,4.635 3.251,0 5.935,-1.869 6.039,-4.635 0.125,-3.366 -1.697,-5.575 -1.697,-5.575 z"
             id="path71" />
        </g>
        <g
           id="g73">
          <path
             style="fill:#c83812;fill-opacity:1"
             d="m 267.455,355.84 c 0,0 -2.236,4.027 0,6.845 1.655,2.085 5.694,1.125 6.814,-0.532 1.597,-2.365 -0.852,-6.313 -0.852,-6.313 z"
             id="path72" />
        </g>
        <g
           id="g76">
          <g
             id="g74">
            <path
               style="fill:#80300f"
               d="m 275.137,354.017 c -0.845,-1.788 -2.441,-5.339 -4.004,-5.903 0.52,1.418 1.435,3.163 1.878,4.805 0.713,2.647 -0.461,3.316 -3.694,3.295 -2.071,-0.013 -2.996,-1.36 -3.396,-2.327 -0.02,0.042 -0.042,0.089 -0.061,0.129 -0.919,1.945 1.168,4.741 3.953,4.984 0.277,0.024 1.093,0.024 1.37,0 2.785,-0.243 4.873,-3.039 3.954,-4.983 z"
               id="path73" />
          </g>
          <g
             id="g75">
            <path
               style="fill:#c83812;fill-opacity:0.9"
               d="m 269.316,356.215 c 3.233,0.021 4.407,-0.648 3.694,-3.295 -0.443,-1.643 -1.357,-3.387 -1.878,-4.805 -0.138,-0.049 -0.275,-0.084 -0.411,-0.084 h -0.446 c -1.653,0 -3.419,3.87 -4.355,5.858 0.4,0.966 1.325,2.312 3.396,2.326 z"
               id="path74" />
          </g>
        </g>
      </g>
    </g>
  </g>
</svg>
