<?xml version="1.0" encoding="UTF-8" standalone="no"?>
<!-- Created with Inkscape (http://www.inkscape.org/) -->

<svg
   width="24mm"
   height="35mm"
   viewBox="0 0 24 35"
   version="1.1"
   id="svg1"
   sodipodi:docname="cockroach.svg"
   inkscape:version="1.4.3 (0d15f75, 2025-12-25)"
   xmlns:inkscape="http://www.inkscape.org/namespaces/inkscape"
   xmlns:sodipodi="http://sodipodi.sourceforge.net/DTD/sodipodi-0.dtd"
   xmlns="http://www.w3.org/2000/svg"
   xmlns:svg="http://www.w3.org/2000/svg">
  <sodipodi:namedview
     id="namedview1"
     pagecolor="#ffffff"
     bordercolor="#000000"
     borderopacity="0.25"
     inkscape:showpageshadow="2"
     inkscape:pageopacity="0.0"
     inkscape:pagecheckerboard="0"
     inkscape:deskcolor="#d1d1d1"
     inkscape:document-units="mm"
     inkscape:zoom="5.3908854"
     inkscape:cx="45.261582"
     inkscape:cy="75.590551"
     inkscape:window-width="1920"
     inkscape:window-height="1017"
     inkscape:window-x="-8"
     inkscape:window-y="-8"
     inkscape:window-maximized="1"
     inkscape:current-layer="svg1" />
  <defs
     id="defs1" />
  <g
     id="g305"
     inkscape:label="cockroach"
     transform="matrix(0.28128928,0,0,0.28128928,-2.3606321,-0.42643793)">
    <path
       id="path277"
       d="m 621.301,3098.97 c -2.746,-2.76 -7.188,-2.76 -9.934,0 l -91.953,91.92 c -2.734,2.76 -2.734,7.19 0,9.95 v 0 c 2.754,2.75 7.203,2.75 9.953,0 l 91.946,-91.93 c 2.73,-2.75 2.73,-7.21 -0.012,-9.94 v 0"
       style="fill:#8b5e3c;fill-opacity:1;fill-rule:nonzero;stroke:none"
       transform="matrix(0.13333333,0,0,-0.13333333,0,481.08)" />
    <path
       id="path278"
       d="m 143.574,3098.97 c 2.746,-2.76 7.184,-2.76 9.934,0 l 91.941,91.92 c 2.735,2.76 2.735,7.19 0,9.95 v 0 c -2.738,2.75 -7.195,2.75 -9.941,0 l -91.949,-91.93 c -2.739,-2.75 -2.739,-7.21 0.015,-9.94 v 0"
       style="fill:#8b5e3c;fill-opacity:1;fill-rule:nonzero;stroke:none"
       transform="matrix(0.13333333,0,0,-0.13333333,0,481.08)" />
    <path
       id="path279"
       d="m 535.07,3205.89 c 5.414,-5.41 5.414,-14.18 0,-19.62 l -28.972,-28.96 c -5.422,-5.42 -14.207,-5.42 -19.633,0 v 0 c -5.414,5.41 -5.414,14.21 0,19.62 l 28.984,28.96 c 5.414,5.42 14.211,5.42 19.621,0 v 0"
       style="fill:#a97c50;fill-opacity:1;fill-rule:nonzero;stroke:none"
       transform="matrix(0.13333333,0,0,-0.13333333,0,481.08)" />
    <path
       id="path280"
       d="m 229.781,3205.89 c -5.414,-5.41 -5.414,-14.18 0,-19.62 l 28.981,-28.96 c 5.41,-5.42 14.191,-5.42 19.617,0 v 0 c 5.41,5.41 5.41,14.21 0,19.62 l -28.973,28.96 c -5.418,5.42 -14.215,5.42 -19.625,0 v 0"
       style="fill:#a97c50;fill-opacity:1;fill-rule:nonzero;stroke:none"
       transform="matrix(0.13333333,0,0,-0.13333333,0,481.08)" />
    <path
       id="path281"
       d="m 565.449,2824.64 c -4.531,0 -8.222,3.68 -8.222,8.17 v 174.07 c 0,4.53 3.691,8.23 8.222,8.23 v 0 c 4.547,0 8.223,-3.7 8.223,-8.23 v -174.07 c 0,-4.49 -3.676,-8.17 -8.223,-8.17 v 0"
       style="fill:#8b5e3c;fill-opacity:1;fill-rule:nonzero;stroke:none"
       transform="matrix(0.13333333,0,0,-0.13333333,0,481.08)" />
    <path
       id="path282"
       d="m 199.398,2824.64 c -4.531,0 -8.207,3.68 -8.207,8.17 v 174.07 c 0,4.53 3.676,8.23 8.207,8.23 v 0 c 4.547,0 8.239,-3.7 8.239,-8.23 v -174.07 c 0,-4.49 -3.692,-8.17 -8.239,-8.17 v 0"
       style="fill:#8b5e3c;fill-opacity:1;fill-rule:nonzero;stroke:none"
       transform="matrix(0.13333333,0,0,-0.13333333,0,481.08)" />
    <path
       id="path283"
       d="m 573.672,3006.88 c 0,-9.08 -7.359,-16.43 -16.426,-16.43 h -48.543 c -9.09,0 -16.445,7.35 -16.445,16.43 v 0 c 0,9.08 7.355,16.42 16.445,16.42 h 48.543 c 9.067,0 16.426,-7.34 16.426,-16.42 v 0"
       style="fill:#a97c50;fill-opacity:1;fill-rule:nonzero;stroke:none"
       transform="matrix(0.13333333,0,0,-0.13333333,0,481.08)" />
    <path
       id="path284"
       d="m 272.609,3006.88 c 0,-9.08 -7.359,-16.43 -16.445,-16.43 h -48.535 c -9.078,0 -16.438,7.35 -16.438,16.43 v 0 c 0,9.08 7.36,16.42 16.438,16.42 h 48.535 c 9.086,0 16.445,-7.34 16.445,-16.42 v 0"
       style="fill:#a97c50;fill-opacity:1;fill-rule:nonzero;stroke:none"
       transform="matrix(0.13333333,0,0,-0.13333333,0,481.08)" />
    <path
       id="path285"
       d="m 103.695,2737.68 c 2.743,-2.75 7.184,-2.75 9.938,0 l 91.945,91.94 c 2.738,2.75 2.738,7.21 0,9.93 v 0 c -2.754,2.76 -7.207,2.76 -9.945,0.04 l -91.945,-91.97 c -2.739,-2.75 -2.739,-7.21 0.007,-9.94 v 0"
       style="fill:#8b5e3c;fill-opacity:1;fill-rule:nonzero;stroke:none"
       transform="matrix(0.13333333,0,0,-0.13333333,0,481.08)" />
    <path
       id="path286"
       d="m 661.168,2737.65 c -2.738,-2.72 -7.184,-2.72 -9.938,0 l -91.941,91.97 c -2.738,2.72 -2.738,7.18 0,9.93 v 0 c 2.742,2.72 7.207,2.72 9.945,0 l 91.946,-91.96 c 2.742,-2.75 2.742,-7.18 -0.012,-9.94 v 0"
       style="fill:#8b5e3c;fill-opacity:1;fill-rule:nonzero;stroke:none"
       transform="matrix(0.13333333,0,0,-0.13333333,0,481.08)" />
    <path
       id="path287"
       d="m 701.926,3103.25 c 0,-2.35 -1.903,-4.22 -4.235,-4.22 h -78.449 c -2.344,0 -4.242,1.87 -4.242,4.22 v 0 c 0,2.37 1.898,4.23 4.242,4.23 h 78.449 c 2.348,0 4.235,-1.86 4.235,-4.23 v 0"
       style="fill:#8b5e3c;fill-opacity:1;fill-rule:nonzero;stroke:none"
       transform="matrix(0.13333333,0,0,-0.13333333,0,481.08)" />
    <path
       id="path288"
       d="m 149.863,3103.25 c 0,-2.35 -1.898,-4.22 -4.238,-4.22 H 67.1758 c -2.336,0 -4.2344,1.87 -4.2344,4.22 v 0 c 0,2.37 1.8984,4.23 4.2344,4.23 h 78.4492 c 2.348,0 4.238,-1.86 4.238,-4.23 v 0"
       style="fill:#8b5e3c;fill-opacity:1;fill-rule:nonzero;stroke:none"
       transform="matrix(0.13333333,0,0,-0.13333333,0,481.08)" />
    <path
       id="path289"
       d="m 135.902,3391.84 c 0,2.32 1.911,4.21 4.246,4.21 h 78.446 c 2.344,0 4.246,-1.89 4.246,-4.21 v 0 c 0,-2.37 -1.902,-4.28 -4.246,-4.28 l -78.446,0.04 c -2.343,-0.04 -4.246,1.87 -4.246,4.24 v 0"
       style="fill:#8b5e3c;fill-opacity:1;fill-rule:nonzero;stroke:none"
       transform="matrix(0.13333333,0,0,-0.13333333,0,481.08)" />
    <path
       id="path290"
       d="m 542.027,3391.84 c 0,2.32 1.899,4.21 4.243,4.21 h 78.449 c 2.332,0 4.242,-1.89 4.242,-4.21 v 0 c 0,-2.37 -1.91,-4.28 -4.242,-4.28 l -78.449,0.04 c -2.352,-0.04 -4.243,1.87 -4.243,4.24 v 0"
       style="fill:#8b5e3c;fill-opacity:1;fill-rule:nonzero;stroke:none"
       transform="matrix(0.13333333,0,0,-0.13333333,0,481.08)" />
    <path
       id="path291"
       d="m 216.539,3393.99 c 2.75,2.75 7.191,2.75 9.941,0 l 91.946,-91.92 c 2.742,-2.76 2.742,-7.19 0,-9.94 v 0 c -2.75,-2.76 -7.203,-2.76 -9.953,0 l -91.946,91.93 c -2.73,2.75 -2.73,7.21 0.012,9.93 v 0"
       style="fill:#a97c50;fill-opacity:1;fill-rule:nonzero;stroke:none"
       transform="matrix(0.13333333,0,0,-0.13333333,0,481.08)" />
    <path
       id="path292"
       d="m 548.324,3393.99 c -2.738,2.75 -7.183,2.75 -9.929,0 l -91.946,-91.92 c -2.742,-2.76 -2.742,-7.19 0,-9.94 v 0 c 2.742,-2.76 7.203,-2.76 9.942,0 l 91.949,91.93 c 2.738,2.75 2.738,7.21 -0.016,9.93 v 0"
       style="fill:#a97c50;fill-opacity:1;fill-rule:nonzero;stroke:none"
       transform="matrix(0.13333333,0,0,-0.13333333,0,481.08)" />
    <path
       id="path293"
       d="m 345.527,3325.55 c -3.668,0 -6.625,2.98 -6.625,6.62 0,138.58 -112.73,251.3 -251.2887,251.3 -3.6641,0 -6.6328,2.96 -6.6328,6.63 0,3.67 2.9687,6.63 6.6328,6.63 145.8787,0 264.5467,-118.67 264.5467,-264.56 0,-3.64 -2.961,-6.62 -6.633,-6.62"
       style="fill:#8b5e3c;fill-opacity:1;fill-rule:nonzero;stroke:none"
       transform="matrix(0.13333333,0,0,-0.13333333,0,481.08)" />
    <path
       id="path294"
       d="m 419.336,3325.55 c -3.672,0 -6.629,2.98 -6.629,6.62 0,145.89 118.664,264.56 264.547,264.56 3.66,0 6.633,-2.96 6.633,-6.63 0,-3.67 -2.973,-6.63 -6.633,-6.63 -138.559,0 -251.281,-112.72 -251.281,-251.3 0,-3.64 -2.969,-6.62 -6.637,-6.62"
       style="fill:#8b5e3c;fill-opacity:1;fill-rule:nonzero;stroke:none"
       transform="matrix(0.13333333,0,0,-0.13333333,0,481.08)" />
    <path
       id="path295"
       d="m 462.563,2715.02 c 22.074,68.35 48.902,174.11 48.902,276.03 0,87.81 -10.067,168.69 -26.988,233.15 -23.598,89.9 -60.532,121.23 -102.039,121.23 -42.379,0 -79.997,-33.77 -103.508,-126.9 -16.039,-63.47 -25.528,-142.23 -25.528,-227.48 0,-101.92 26.821,-207.68 48.895,-276.03 11.258,-34.85 41.933,-47.89 78.562,-47.89 h 3.145 c 36.633,0 67.305,13.04 78.559,47.89"
       style="fill:#a97c50;fill-opacity:1;fill-rule:nonzero;stroke:none"
       transform="matrix(0.13333333,0,0,-0.13333333,0,481.08)" />
    <path
       id="path296"
       d="m 456.602,2761.95 c 20.425,63.25 45.257,161.14 45.257,255.48 0,81.28 -9.312,156.14 -24.976,215.79 -21.844,83.21 -56.028,112.21 -94.445,112.21 -39.223,0 -74.043,-31.26 -95.801,-117.45 -14.848,-58.75 -23.629,-131.64 -23.629,-210.55 0,-94.34 24.82,-192.23 45.254,-255.48 10.422,-32.26 38.808,-44.34 72.715,-44.34 h 2.91 c 33.906,0 62.297,12.08 72.715,44.34"
       style="fill:#c67f3e;fill-opacity:1;fill-rule:nonzero;stroke:none"
       transform="matrix(0.13333333,0,0,-0.13333333,0,481.08)" />
    <path
       id="path297"
       d="m 382.438,3345.43 h -0.008 v -678.3 h 1.574 c 36.633,0 67.305,13.04 78.559,47.89 22.074,68.35 48.902,174.11 48.902,276.03 0,87.81 -10.067,168.69 -26.988,233.15 -23.598,89.9 -60.532,121.23 -102.039,121.23"
       style="fill:#8b5e3c;fill-opacity:1;fill-rule:nonzero;stroke:none"
       transform="matrix(0.13333333,0,0,-0.13333333,0,481.08)" />
    <path
       id="path298"
       d="m 382.43,2717.61 h 1.457 c 33.906,0 62.297,12.08 72.715,44.34 20.425,63.25 45.257,161.14 45.257,255.48 0,81.28 -9.312,156.14 -24.976,215.79 -20.477,78.01 -51.805,108.38 -87.293,111.87 -2.367,0.21 -4.75,0.34 -7.152,0.34 -0.004,0 -0.004,0 -0.004,0 l -0.004,-627.82"
       style="fill:#b26a2f;fill-opacity:1;fill-rule:nonzero;stroke:none"
       transform="matrix(0.13333333,0,0,-0.13333333,0,481.08)" />
    <path
       id="path299"
       d="m 278.93,3218.53 c -1.59,-6.29 -3.067,-12.85 -4.524,-19.44 32.137,-17.48 68.856,-27.63 108.032,-27.63 39.195,0 75.937,10.17 108.085,27.67 -1.898,8.6 -3.918,16.96 -6.046,25.07 -23.598,89.9 -60.532,121.23 -102.039,121.23 -2.649,0 -5.278,-0.14 -7.891,-0.39 -39.137,-4.06 -73.574,-39.2 -95.617,-126.51"
       style="fill:#513118;fill-opacity:1;fill-rule:nonzero;stroke:none"
       transform="matrix(0.13333333,0,0,-0.13333333,0,481.08)" />
    <path
       id="path300"
       d="m 382.438,3181.62 c 38.425,0 74.398,10.29 105.546,28.04 -1.156,4.88 -2.269,9.85 -3.507,14.54 -23.598,89.9 -60.532,121.23 -102.039,121.23 -42.379,0 -79.997,-33.77 -103.508,-126.9 -0.727,-2.88 -1.367,-5.92 -2.055,-8.87 31.148,-17.75 67.125,-28.04 105.563,-28.04"
       style="fill:#8b5e3c;fill-opacity:1;fill-rule:nonzero;stroke:none"
       transform="matrix(0.13333333,0,0,-0.13333333,0,481.08)" />
    <path
       id="path301"
       d="m 382.438,3345.43 h -0.008 v -163.81 h 0.008 c 38.425,0 74.398,10.29 105.546,28.04 -1.156,4.88 -2.269,9.85 -3.507,14.54 -23.598,89.9 -60.532,121.23 -102.039,121.23"
       style="fill:#754c29;fill-opacity:1;fill-rule:nonzero;stroke:none"
       transform="matrix(0.13333333,0,0,-0.13333333,0,481.08)" />
    <path
       id="path302"
       d="m 301.473,2717.61 c 0.265,-0.85 0.543,-1.77 0.824,-2.59 11.258,-34.85 41.933,-47.89 78.562,-47.89 h 3.145 c 36.633,0 67.305,13.04 78.559,47.89 0.281,0.82 0.546,1.74 0.828,2.59 H 301.473"
       style="fill:#8b5e3c;fill-opacity:1;fill-rule:nonzero;stroke:none"
       transform="matrix(0.13333333,0,0,-0.13333333,0,481.08)" />
    <path
       id="path303"
       d="m 382.43,2717.61 v -50.48 h 1.574 c 36.633,0 67.305,13.04 78.559,47.89 0.281,0.82 0.546,1.74 0.828,2.59 H 382.43"
       style="fill:#754c29;fill-opacity:1;fill-rule:nonzero;stroke:none"
       transform="matrix(0.13333333,0,0,-0.13333333,0,481.08)" />
    <path
       id="path304"
       d="m 354.063,3208 c 0,-7.75 -6.278,-14.02 -14.024,-14.02 v 0 c -7.742,0 -14.023,6.27 -14.023,14.02 v 95.43 c 0,7.74 6.281,14.02 14.023,14.02 v 0 c 7.746,0 14.024,-6.28 14.024,-14.02 V 3208"
       style="fill:#754c29;fill-opacity:1;fill-rule:nonzero;stroke:none"
       transform="matrix(0.13333333,0,0,-0.13333333,0,481.08)" />
    <path
       id="path305"
       d="m 438.836,3208 c 0,-7.75 -6.281,-14.02 -14.027,-14.02 v 0 c -7.743,0 -14.024,6.27 -14.024,14.02 v 95.43 c 0,7.74 6.281,14.02 14.024,14.02 v 0 c 7.746,0 14.027,-6.28 14.027,-14.02 V 3208"
       style="fill:#513118;fill-opacity:1;fill-rule:nonzero;stroke:none"
       transform="matrix(0.13333333,0,0,-0.13333333,0,481.08)" />
  </g>
</svg>
