<?xml version="1.0" encoding="UTF-8" standalone="no"?>
<!-- Created with Inkscape (http://www.inkscape.org/) -->

<svg
   width="24.299999mm"
   height="34.150002mm"
   viewBox="0 0 24.299999 34.150002"
   version="1.1"
   id="svg1"
   inkscape:version="1.4.3 (0d15f75, 2025-12-25)"
   sodipodi:docname="cricket.svg"
   xmlns:inkscape="http://www.inkscape.org/namespaces/inkscape"
   xmlns:sodipodi="http://sodipodi.sourceforge.net/DTD/sodipodi-0.dtd"
   xmlns="http://www.w3.org/2000/svg"
   xmlns:svg="http://www.w3.org/2000/svg">
  <sodipodi:namedview
     id="namedview1"
     pagecolor="#ffffff"
     bordercolor="#000000"
     borderopacity="0.25"
     inkscape:showpageshadow="2"
     inkscape:pageopacity="0.0"
     inkscape:pagecheckerboard="0"
     inkscape:deskcolor="#d1d1d1"
     inkscape:document-units="mm"
     inkscape:zoom="4.1071317"
     inkscape:cx="112.0003"
     inkscape:cy="46.626214"
     inkscape:window-width="1920"
     inkscape:window-height="1017"
     inkscape:window-x="-8"
     inkscape:window-y="-8"
     inkscape:window-maximized="1"
     inkscape:current-layer="layer1" />
  <defs
     id="defs1" />
  <g
     inkscape:label="Layer 1"
     inkscape:groupmode="layer"
     id="layer1">
    <g
       id="g291"
       transform="matrix(0.48461236,0,0,0.48461236,-73.511899,-169.76603)">
		<g
   id="g275">
			<g
   id="g263">
				<path
   style="fill:#64a74a"
   d="m 174.04,377.415 c -0.273,0 -0.548,-0.092 -0.775,-0.28 l -7.705,-6.397 c -0.516,-0.429 -0.587,-1.195 -0.158,-1.712 0.429,-0.517 1.196,-0.587 1.711,-0.158 l 7.704,6.397 c 0.517,0.428 0.587,1.195 0.159,1.712 -0.24,0.289 -0.587,0.438 -0.936,0.438 z"
   id="path262" />

			</g>

			<g
   id="g264">
				<path
   style="fill:#64a74a"
   d="m 165.686,369.684 c -0.197,0 -0.389,-0.095 -0.506,-0.269 l -5.441,-8.104 h -3.576 c -0.335,0 -0.606,-0.272 -0.606,-0.607 0,-0.336 0.271,-0.607 0.606,-0.607 h 3.9 c 0.202,0 0.392,0.101 0.504,0.268 l 5.622,8.372 c 0.187,0.278 0.112,0.655 -0.166,0.843 -0.103,0.07 -0.221,0.104 -0.337,0.104 z"
   id="path263" />

			</g>

			<g
   id="g265">
				<path
   style="fill:#5f9653"
   d="m 164.138,394.334 c -0.231,0 -0.466,-0.053 -0.688,-0.165 -0.751,-0.38 -1.052,-1.298 -0.671,-2.05 l 5.405,-10.678 c 0.258,-0.514 0.785,-0.835 1.36,-0.835 h 3.216 c 0.842,0 1.526,0.682 1.526,1.524 0,0.843 -0.684,1.525 -1.526,1.525 h -2.278 l -4.982,9.842 c -0.267,0.53 -0.804,0.837 -1.362,0.837 z"
   id="path264" />

			</g>

			<g
   id="g266">
				<path
   style="fill:#64a74a"
   d="m 157.983,403.952 c -0.016,0 -0.033,0 -0.049,-10e-4 l -5.53,-0.361 c -0.42,-0.028 -0.739,-0.392 -0.71,-0.813 0.027,-0.421 0.391,-0.74 0.81,-0.711 l 5.071,0.333 5.098,-8.316 c 0.22,-0.359 0.689,-0.472 1.049,-0.252 0.358,0.22 0.472,0.69 0.251,1.049 l -5.339,8.709 c -0.14,0.227 -0.386,0.363 -0.651,0.363 z"
   id="path265" />

			</g>

			<g
   id="g267">
				<path
   style="fill:#64a74a"
   d="m 172.777,413.108 c 0,1.179 -0.956,2.135 -2.135,2.135 v 0 c -1.178,0 -2.134,-0.956 -2.134,-2.135 v -18.751 c 0,-1.179 0.956,-2.135 2.134,-2.135 v 0 c 1.18,0 2.135,0.956 2.135,2.135 z"
   id="path266" />

			</g>

			<g
   id="g268">
				<path
   style="fill:#528248"
   d="m 175.015,365.44 c -0.31,0 -0.574,-0.235 -0.604,-0.551 l -0.482,-5.13 -8.981,-8.394 c -0.246,-0.229 -0.258,-0.614 -0.03,-0.858 0.228,-0.246 0.615,-0.258 0.858,-0.029 l 9.151,8.552 c 0.108,0.101 0.175,0.238 0.19,0.387 l 0.504,5.358 c 0.031,0.335 -0.214,0.631 -0.549,0.662 -0.019,0.003 -0.038,0.003 -0.057,0.003 z"
   id="path267" />

			</g>

			<path
   style="fill:#528248"
   d="m 176.725,378.198 c -2.505,0.091 -4.51,2.145 -4.51,4.672 l -1.572,5.787 c 0,2.528 3.51,30.927 6.083,32.161 v -42.62 z"
   id="path268" />

			<path
   style="fill:#8dc375"
   d="m 176.725,362.545 h -0.362 c -0.844,0 -1.527,0.684 -1.527,1.527 0,0.844 0.684,1.528 1.527,1.528 h 0.362 z"
   id="path269" />

			<path
   style="fill:#64a74a"
   d="m 176.725,364.072 h -1.548 c -1.922,0 -3.48,1.559 -3.48,3.48 0,1.923 1.559,3.48 3.48,3.48 h 1.548 z"
   id="path270" />

			<path
   style="fill:#455556"
   d="m 175.338,363.784 c 0.641,0.747 0.554,1.87 -0.193,2.511 l -1.564,1.34 c -0.747,0.641 -1.871,0.554 -2.51,-0.192 v 0 c -0.639,-0.747 -0.553,-1.87 0.193,-2.512 l 1.564,-1.34 c 0.747,-0.64 1.871,-0.554 2.51,0.193 z"
   id="path271" />

			<path
   style="fill:#64a74a"
   d="m 176.725,382.98 c -1.924,0.09 -3.459,1.673 -3.459,3.62 v 11.244 c 0,1.946 1.534,17.297 3.459,18.17 z"
   id="path272" />

			<path
   style="fill:#5f9653"
   d="m 176.725,383.034 c -1.011,0.311 -1.778,1.788 -1.778,3.566 v 11.244 c 0,1.778 0.767,14.732 1.778,17.63 z"
   id="path273" />

			<path
   style="fill:#64b044"
   d="m 176.725,369.084 c -1.924,0.09 -3.459,1.674 -3.459,3.62 v 11.245 c 0,1.946 1.535,3.53 3.459,3.62 z"
   id="path274" />

			<path
   style="fill:#64a74a"
   d="m 176.725,375.232 c -2.122,0.09 -3.815,1.834 -3.815,3.978 v 4.38 c 0,2.145 1.694,3.889 3.815,3.979 z"
   id="path275" />

		</g>

		
		<g
   id="g290">
			<g
   id="g277">
				<path
   style="fill:#64a74a"
   d="m 179.409,377.415 c 0.274,0 0.549,-0.092 0.775,-0.28 l 7.705,-6.397 c 0.516,-0.429 0.586,-1.195 0.158,-1.712 -0.429,-0.517 -1.196,-0.587 -1.712,-0.158 l -7.704,6.397 c -0.517,0.428 -0.588,1.195 -0.159,1.712 0.241,0.289 0.588,0.438 0.937,0.438 z"
   id="path277" />

			</g>

			<g
   id="g278">
				<path
   style="fill:#64a74a"
   d="m 187.763,369.684 c 0.197,0 0.388,-0.095 0.506,-0.269 l 5.441,-8.104 h 3.575 c 0.336,0 0.607,-0.272 0.607,-0.607 0,-0.336 -0.271,-0.607 -0.607,-0.607 h -3.899 c -0.202,0 -0.392,0.101 -0.504,0.268 l -5.622,8.372 c -0.187,0.278 -0.112,0.655 0.166,0.843 0.103,0.07 0.221,0.104 0.337,0.104 z"
   id="path278" />

			</g>

			<g
   id="g279">
				<path
   style="fill:#5f9653"
   d="m 189.311,394.334 c 0.23,0 0.466,-0.053 0.688,-0.165 0.751,-0.38 1.052,-1.298 0.671,-2.05 l -5.405,-10.678 c -0.258,-0.514 -0.785,-0.835 -1.36,-0.835 h -3.216 c -0.842,0 -1.526,0.682 -1.526,1.524 0,0.843 0.684,1.525 1.526,1.525 h 2.278 l 4.982,9.842 c 0.267,0.53 0.804,0.837 1.362,0.837 z"
   id="path279" />

			</g>

			<g
   id="g280">
				<path
   style="fill:#64a74a"
   d="m 195.466,403.952 c 0.017,0 0.033,0 0.05,-10e-4 l 5.53,-0.361 c 0.42,-0.028 0.739,-0.392 0.71,-0.813 -0.027,-0.421 -0.391,-0.74 -0.809,-0.711 l -5.072,0.333 -5.098,-8.316 c -0.22,-0.359 -0.689,-0.472 -1.049,-0.252 -0.358,0.22 -0.472,0.69 -0.251,1.049 l 5.339,8.709 c 0.139,0.227 0.386,0.363 0.65,0.363 z"
   id="path280" />

			</g>

			<g
   id="g281">
				<path
   style="fill:#64a74a"
   d="m 180.672,413.108 c 0,1.179 0.956,2.135 2.135,2.135 v 0 c 1.178,0 2.134,-0.956 2.134,-2.135 v -18.751 c 0,-1.179 -0.956,-2.135 -2.134,-2.135 v 0 c -1.18,0 -2.135,0.956 -2.135,2.135 z"
   id="path281" />

			</g>

			<g
   id="g282">
				<path
   style="fill:#528248"
   d="m 178.435,365.44 c 0.309,0 0.574,-0.235 0.604,-0.551 l 0.482,-5.13 8.981,-8.394 c 0.246,-0.229 0.258,-0.614 0.03,-0.858 -0.228,-0.246 -0.615,-0.258 -0.858,-0.029 l -9.151,8.552 c -0.108,0.101 -0.175,0.238 -0.19,0.387 l -0.504,5.358 c -0.031,0.335 0.214,0.631 0.549,0.662 0.018,0.003 0.037,0.003 0.057,0.003 z"
   id="path282" />

			</g>

			<path
   style="fill:#528248"
   d="m 176.725,378.198 c 2.505,0.091 4.51,2.145 4.51,4.672 l 1.572,5.787 c 0,2.528 -3.51,30.927 -6.083,32.161 v -42.62 z"
   id="path283" />

			<path
   style="fill:#8dc375"
   d="m 176.725,362.545 h 0.362 c 0.844,0 1.527,0.684 1.527,1.527 0,0.844 -0.684,1.528 -1.527,1.528 h -0.362 z"
   id="path284" />

			<path
   style="fill:#64a74a"
   d="m 176.725,364.072 h 1.547 c 1.923,0 3.481,1.559 3.481,3.48 0,1.923 -1.559,3.48 -3.481,3.48 h -1.547 z"
   id="path285" />

			<path
   style="fill:#455556"
   d="m 178.111,363.784 c -0.641,0.747 -0.554,1.87 0.193,2.511 l 1.564,1.34 c 0.747,0.641 1.871,0.554 2.51,-0.192 v 0 c 0.639,-0.747 0.553,-1.87 -0.193,-2.512 l -1.565,-1.34 c -0.746,-0.64 -1.87,-0.554 -2.509,0.193 z"
   id="path286" />

			<path
   style="fill:#64a74a"
   d="m 176.725,382.98 c 1.924,0.09 3.459,1.673 3.459,3.62 v 11.244 c 0,1.946 -1.534,17.297 -3.459,18.17 z"
   id="path287" />

			<path
   style="fill:#5f9653"
   d="m 176.725,383.034 c 1.011,0.311 1.778,1.788 1.778,3.566 v 11.244 c 0,1.778 -0.767,14.732 -1.778,17.63 z"
   id="path288" />

			<path
   style="fill:#64b044"
   d="m 176.725,369.084 c 1.924,0.09 3.459,1.674 3.459,3.62 v 11.245 c 0,1.946 -1.535,3.53 -3.459,3.62 z"
   id="path289" />

			<path
   style="fill:#64a74a"
   d="m 176.725,375.232 c 2.122,0.09 3.815,1.834 3.815,3.978 v 4.38 c 0,2.145 -1.694,3.889 -3.815,3.979 z"
   id="path290" />

		</g>

	</g>
  </g>
</svg>
