<?xml version="1.0" encoding="UTF-8" standalone="no"?>
<!-- Created with Inkscape (http://www.inkscape.org/) -->

<svg
   width="26.51mm"
   height="34.150002mm"
   viewBox="0 0 26.51 34.150002"
   version="1.1"
   id="svg1"
   inkscape:version="1.4.3 (0d15f75, 2025-12-25)"
   sodipodi:docname="cricket.svg"
   xmlns:inkscape="http://www.inkscape.org/namespaces/inkscape"
   xmlns:sodipodi="http://sodipodi.sourceforge.net/DTD/sodipodi-0.dtd"
   xmlns="http://www.w3.org/2000/svg"
   xmlns:svg="http://www.w3.org/2000/svg">
  <sodipodi:namedview
     id="namedview1"
     pagecolor="#ffffff"
     bordercolor="#000000"
     borderopacity="0.25"
     inkscape:showpageshadow="2"
     inkscape:pageopacity="0.0"
     inkscape:pagecheckerboard="0"
     inkscape:deskcolor="#d1d1d1"
     inkscape:document-units="mm"
     inkscape:zoom="0.72604517"
     inkscape:cx="396.66953"
     inkscape:cy="561.25984"
     inkscape:window-width="1920"
     inkscape:window-height="1017"
     inkscape:window-x="-8"
     inkscape:window-y="-8"
     inkscape:window-maximized="1"
     inkscape:current-layer="layer1" />
  <defs
     id="defs1" />
  <g
     inkscape:label="Layer 1"
     inkscape:groupmode="layer"
     id="layer1">
    <g
       id="g14"
       transform="matrix(0,0.26458333,-0.26458333,0,31.506694,-87.426655)">
		<path
   d="m 389.733,83.119 c -0.355,0.228 -0.709,0.413 -1.058,0.55 0.568,2.889 2.398,4.757 3.85,5.483 0.875,0.438 2.633,1.989 4.495,3.632 1.089,0.961 2.475,2.184 3.294,2.793 -0.269,0.61 -0.494,1.238 -0.676,1.874 -0.332,1.149 -0.55,2.323 -0.7,3.499 -0.152,1.177 -0.23,2.359 -0.264,3.543 -0.016,0.592 -0.019,1.184 -0.008,1.777 0.012,0.599 0.03,1.175 0.078,1.803 l 0.008,0.099 0.125,0.302 v 0 c 0.536,1.139 0.547,2.606 0.31,4.045 -0.117,0.723 -0.302,1.45 -0.527,2.166 -0.113,0.358 -0.237,0.714 -0.371,1.063 l -0.208,0.519 c -0.07,0.166 -0.15,0.348 -0.216,0.481 -0.025,0.05 -0.048,0.104 -0.068,0.158 -0.309,0.837 0.119,1.765 0.956,2.074 0.837,0.309 1.766,-0.119 2.074,-0.956 l 0.011,-0.031 c 0.089,-0.241 0.152,-0.44 0.22,-0.655 l 0.184,-0.633 c 0.116,-0.422 0.218,-0.845 0.309,-1.273 0.177,-0.855 0.311,-1.724 0.367,-2.614 0.058,-0.888 0.043,-1.8 -0.104,-2.723 -0.134,-0.854 -0.405,-1.725 -0.853,-2.534 -0.078,-0.461 -0.147,-0.951 -0.206,-1.431 -0.067,-0.558 -0.122,-1.119 -0.165,-1.682 -0.083,-1.124 -0.124,-2.253 -0.093,-3.376 0.056,-1.829 0.255,-3.687 0.854,-5.39 0.236,-0.206 0.544,-0.564 0.865,-1.206 0.423,-0.848 -1.492,-2.048 -3.52,-3.32 -1.008,-0.632 -2.15,-1.348 -3.197,-2.134 -0.421,-0.315 -0.816,-0.605 -1.187,-0.877 -2.289,-1.678 -3.726,-2.754 -4.579,-5.026 z m 11.129,24.255 z"
   id="path1" />

		<path
   d="m 366.774,78.855 c 3.017,0.754 11.094,-1.307 12.425,-1.657 0.329,-0.743 1.587,-3.861 1.587,-8.192 0,-0.006 0.003,-0.01 0.003,-0.016 0,-0.006 -0.003,-0.01 -0.003,-0.016 0,-4.344 -1.257,-7.451 -1.587,-8.192 -1.329,-0.35 -9.408,-2.411 -12.423,-1.658 -0.699,0.172 -1.297,0.83 -1.784,1.947 2.272,1.521 3.819,4.492 3.819,7.903 0,0.006 -0.003,0.01 -0.003,0.016 0,0.006 0.003,0.01 0.003,0.016 0,3.41 -1.547,6.382 -3.819,7.903 0.487,1.116 1.084,1.775 1.782,1.946 z"
   id="path2" />

		<path
   d="m 385.733,79.328 0.288,-0.336 c 0.05,-0.059 5.029,-5.918 5.029,-9.986 0,-0.006 0.003,-0.01 0.003,-0.016 0,-0.006 -0.003,-0.01 -0.003,-0.016 0,-4.068 -4.979,-9.928 -5.029,-9.987 l -0.288,-0.336 0.346,-0.277 c 0.002,-0.002 0.014,-0.011 0.018,-0.014 -0.582,0.056 -1.233,0.144 -1.912,0.287 -1.802,0.381 -3.201,1.01 -4.165,1.871 0.413,0.942 1.622,4.072 1.622,8.454 0,0.006 -0.003,0.01 -0.003,0.016 0,0.006 0.003,0.01 0.003,0.016 0,4.382 -1.208,7.512 -1.622,8.454 0.964,0.861 2.364,1.49 4.165,1.871 0.68,0.144 1.331,0.232 1.913,0.287 -0.004,-0.003 -0.016,-0.012 -0.018,-0.014 z"
   id="path3" />

		<path
   d="m 373.377,79.354 c -0.835,2.342 -2.152,5.376 -3.837,7.062 -1.788,1.788 -4.437,4.444 -4.56,6.612 -0.609,0.145 -1.27,0.239 -1.91,0.281 -0.43,0.022 -0.862,0.03 -1.292,0.007 -0.217,10e-4 -0.429,-0.035 -0.644,-0.053 -0.216,-0.016 -0.429,-0.047 -0.64,-0.091 -0.21,-0.045 -0.429,-0.063 -0.634,-0.128 l -0.626,-0.169 c -0.205,-0.066 -0.404,-0.149 -0.608,-0.223 -0.207,-0.068 -0.403,-0.16 -0.595,-0.26 -0.398,-0.177 -0.769,-0.404 -1.133,-0.646 -0.377,-0.225 -0.691,-0.536 -1.045,-0.802 l -0.065,-0.049 c -0.178,-0.135 -0.431,-0.1 -0.566,0.078 v 0 c -1.017,0.999 -2.12,1.948 -3.256,2.767 -0.287,0.201 -0.573,0.399 -0.866,0.575 -0.144,0.095 -0.29,0.179 -0.437,0.257 -0.147,0.076 -0.291,0.171 -0.438,0.23 -0.293,0.147 -0.579,0.25 -0.853,0.335 l -0.377,0.071 c -0.11,0.004 -0.194,-0.015 -0.286,-0.006 l -0.292,0.03 c -0.015,0.002 -0.03,0.004 -0.046,0.006 -0.639,0.093 -1.083,0.687 -0.99,1.327 0.094,0.64 0.688,1.083 1.327,0.99 0.268,-0.039 0.549,-0.078 0.794,-0.146 0.224,-0.083 0.454,-0.164 0.663,-0.257 0.396,-0.201 0.761,-0.42 1.086,-0.659 0.175,-0.112 0.317,-0.244 0.475,-0.366 0.157,-0.122 0.307,-0.248 0.448,-0.379 0.294,-0.255 0.566,-0.523 0.835,-0.791 0.95,-0.972 1.79,-1.995 2.583,-3.067 0.225,0.228 0.452,0.456 0.709,0.649 0.376,0.308 0.764,0.601 1.189,0.844 0.205,0.134 0.416,0.258 0.639,0.359 0.22,0.106 0.438,0.221 0.662,0.319 l 0.688,0.262 c 0.228,0.095 0.468,0.143 0.703,0.217 0.235,0.073 0.474,0.132 0.715,0.175 0.241,0.045 0.481,0.108 0.725,0.133 0.486,0.075 0.975,0.115 1.466,0.138 0.861,0.025 1.699,-0.017 2.58,-0.164 0.121,0.123 0.251,0.243 0.404,0.358 0.405,0.303 0.844,0.329 1.381,0.08 2.94,-1.361 6.688,-9.796 7.258,-16.154 -0.434,0.086 -0.881,0.169 -1.334,0.248 z"
   id="path4" />

		<path
   d="m 354.352,64.015 c 1.025,0.388 2.625,0.743 4.517,0.266 1.704,-0.429 3.195,-2.049 4.088,-3.228 -0.457,-0.131 -0.929,-0.206 -1.417,-0.206 -2.139,0 -5.079,1.267 -7.188,3.168 z"
   id="path5" />

		<path
   d="m 358.868,73.697 c -1.892,-0.476 -3.491,-0.121 -4.516,0.267 2.11,1.9 5.05,3.168 7.188,3.168 0.488,0 0.961,-0.075 1.417,-0.206 -0.894,-1.18 -2.385,-2.799 -4.089,-3.229 z"
   id="path6" />

		<path
   d="m 388.047,82.985 c 0.528,-0.159 1.076,-0.45 1.635,-0.867 l 0.125,-0.085 c 0.199,-0.147 0.394,-0.306 0.583,-0.471 -1.111,-0.342 -1.987,-0.691 -2.646,-1.002 -0.652,-0.004 -1.761,-0.05 -3.021,-0.259 0.45,1.268 1.249,2.818 2.477,2.818 0.28,0 0.565,-0.045 0.847,-0.134 z"
   id="path7" />

		<path
   d="m 387.744,57.418 c 0.659,-0.31 1.535,-0.66 2.646,-1.002 -0.189,-0.165 -0.385,-0.324 -0.583,-0.471 h -0.002 l -0.122,-0.085 c -0.559,-0.417 -1.107,-0.708 -1.63,-0.866 -0.287,-0.091 -0.572,-0.136 -0.852,-0.136 -1.227,0 -2.027,1.55 -2.477,2.818 1.259,-0.208 2.368,-0.254 3.02,-0.258 z"
   id="path8" />

		<path
   d="m 437.669,78.842 c -3.415,0 -6.56,-0.555 -8.633,-1.032 -10.275,2.776 -20.84,5.309 -26.438,5.309 -1.871,0 -3.535,-0.089 -5.047,-0.228 2.481,2.451 7.504,3.65 15.312,3.65 8.003,0 23.981,-4.328 30.804,-6.176 1.115,-0.302 1.96,-0.531 2.452,-0.654 1.15,-0.287 2.458,-0.385 3.724,-0.48 2.804,-0.21 4.506,-0.427 4.506,-1.671 0,-0.835 -0.217,-1.398 -0.663,-1.724 -1.364,-0.994 -4.848,0.126 -8.217,1.21 -2.746,0.883 -5.586,1.796 -7.8,1.796 z"
   id="path9" />

		<path
   d="m 402.598,54.859 c 5.599,0 16.164,2.533 26.439,5.309 2.073,-0.477 5.218,-1.032 8.632,-1.032 2.214,0 5.053,0.914 7.8,1.797 3.369,1.084 6.853,2.204 8.217,1.21 0.447,-0.325 0.663,-0.889 0.663,-1.724 0,-1.243 -1.702,-1.461 -4.506,-1.671 -1.266,-0.095 -2.574,-0.193 -3.724,-0.48 -0.492,-0.123 -1.337,-0.352 -2.452,-0.654 -6.823,-1.848 -22.801,-6.177 -30.804,-6.177 -7.807,0 -12.83,1.199 -15.311,3.65 1.511,-0.139 3.175,-0.228 5.046,-0.228 z"
   id="path10" />

		<path
   d="m 388.041,58.228 c -0.008,0.004 -0.016,0.009 -0.025,0.012 -0.467,0.222 -0.811,0.417 -1.041,0.558 1.129,1.392 4.93,6.36 4.93,10.175 0,0.006 -0.003,0.01 -0.003,0.016 0,0.006 0.003,0.01 0.003,0.016 0,3.813 -3.797,8.779 -4.928,10.173 1.255,0.767 5.858,3.086 15.621,3.086 7.745,0 26.064,-5.183 38.186,-8.612 6.901,-1.952 11.887,-3.363 13.138,-3.363 5.105,0 5.547,-1.264 5.561,-1.313 0,-0.001 0,-0.002 0,-0.003 0,0.021 -0.38,-1.283 -5.56,-1.283 -1.251,0 -6.237,-1.41 -13.138,-3.363 -12.122,-3.43 -30.441,-8.612 -38.186,-8.612 -7.964,-0.001 -12.477,1.528 -14.558,2.513 z"
   id="path11" />

		<path
   d="m 332.572,103.84 c 0,0 0.078,-0.131 0.226,-0.378 0.151,-0.255 0.37,-0.628 0.628,-1.1 0.27,-0.469 0.564,-1.056 0.914,-1.723 0.321,-0.684 0.713,-1.436 1.061,-2.306 0.377,-0.851 0.718,-1.816 1.04,-2.855 0.13,-0.512 0.264,-1.038 0.401,-1.576 0.066,-0.292 0.147,-0.47 0.219,-0.67 0.093,-0.219 0.2,-0.465 0.315,-0.701 0.963,-1.923 2.317,-3.926 3.693,-5.877 2.777,-3.907 5.796,-7.668 8.118,-10.425 1.164,-1.376 2.159,-2.504 2.875,-3.258 0.313,-0.331 0.56,-0.572 0.749,-0.746 0.258,0.375 0.549,0.738 0.873,1.084 1.102,-0.477 3.047,-1.032 5.393,-0.442 1.971,0.497 3.614,2.249 4.706,3.741 2.432,-1.156 4.171,-4.124 4.171,-7.603 0,-0.006 0.003,-0.01 0.003,-0.016 0,-0.006 -0.003,-0.01 -0.003,-0.016 0,-3.48 -1.739,-6.447 -4.171,-7.603 -1.092,1.492 -2.735,3.244 -4.706,3.741 -2.346,0.591 -4.291,0.035 -5.393,-0.441 -0.324,0.346 -0.615,0.709 -0.873,1.084 -0.19,-0.174 -0.437,-0.416 -0.749,-0.746 -0.717,-0.754 -1.711,-1.882 -2.875,-3.258 -2.322,-2.757 -5.341,-6.519 -8.118,-10.425 -1.375,-1.951 -2.73,-3.954 -3.693,-5.877 -0.115,-0.236 -0.222,-0.482 -0.315,-0.701 -0.072,-0.201 -0.153,-0.378 -0.219,-0.67 -0.137,-0.538 -0.271,-1.064 -0.401,-1.576 -0.322,-1.039 -0.663,-2.004 -1.04,-2.855 -0.348,-0.87 -0.74,-1.622 -1.061,-2.306 -0.35,-0.666 -0.644,-1.254 -0.914,-1.722 -0.258,-0.472 -0.477,-0.845 -0.628,-1.1 -0.148,-0.246 -0.226,-0.378 -0.226,-0.378 -0.007,-0.011 -0.016,-0.026 -0.023,-0.037 -0.348,-0.533 -1.061,-0.683 -1.594,-0.336 -0.533,0.347 -0.683,1.061 -0.336,1.594 l 0.01,0.016 c 0,0 0.081,0.124 0.233,0.358 0.146,0.227 0.36,0.561 0.625,1.006 0.274,0.437 0.574,0.985 0.932,1.608 0.327,0.635 0.73,1.342 1.084,2.141 0.387,0.789 0.731,1.666 1.059,2.593 0.144,0.488 0.291,0.989 0.442,1.501 0.061,0.239 0.193,0.569 0.326,0.885 0.133,0.287 0.262,0.552 0.405,0.819 1.147,2.084 2.589,4.035 4.064,5.973 2.964,3.854 6.133,7.511 8.576,10.201 1.225,1.342 2.269,2.44 3.035,3.189 0.382,0.375 0.698,0.662 0.935,0.857 0.004,0.003 0.006,0.005 0.01,0.008 -0.409,0.783 -0.654,1.608 -0.654,2.458 0,0.006 -0.003,0.01 -0.003,0.016 0,0.006 0.003,0.01 0.003,0.016 0,0.849 0.244,1.675 0.654,2.458 -0.004,0.003 -0.006,0.005 -0.01,0.007 -0.237,0.195 -0.553,0.482 -0.935,0.857 -0.766,0.748 -1.81,1.846 -3.035,3.189 -2.443,2.69 -5.612,6.348 -8.576,10.201 -1.475,1.939 -2.917,3.89 -4.064,5.973 -0.142,0.267 -0.271,0.531 -0.405,0.819 -0.132,0.316 -0.264,0.647 -0.326,0.885 -0.151,0.512 -0.298,1.014 -0.442,1.501 -0.328,0.927 -0.672,1.804 -1.059,2.593 -0.354,0.799 -0.757,1.506 -1.084,2.141 -0.358,0.623 -0.658,1.172 -0.932,1.608 -0.266,0.445 -0.48,0.779 -0.625,1.006 -0.152,0.233 -0.233,0.357 -0.233,0.357 l -0.013,0.02 c -0.007,0.011 -0.013,0.021 -0.02,0.033 -0.328,0.546 -0.15,1.253 0.395,1.58 0.546,0.329 1.253,0.152 1.581,-0.394 z"
   id="path12" />

		<path
   d="m 352.175,42.231 c -0.141,-0.132 -0.292,-0.257 -0.448,-0.379 -0.158,-0.121 -0.301,-0.253 -0.475,-0.365 -0.325,-0.24 -0.69,-0.458 -1.086,-0.659 -0.209,-0.094 -0.439,-0.175 -0.663,-0.257 -0.245,-0.068 -0.526,-0.107 -0.794,-0.146 -0.015,-0.002 -0.035,-0.005 -0.05,-0.006 -0.643,-0.066 -1.218,0.403 -1.284,1.046 -0.066,0.643 0.403,1.218 1.046,1.283 l 0.288,0.029 c 0.092,0.009 0.176,-0.01 0.286,-0.006 l 0.377,0.071 c 0.274,0.085 0.56,0.189 0.853,0.336 0.147,0.059 0.291,0.154 0.438,0.23 0.147,0.078 0.294,0.162 0.437,0.257 0.293,0.176 0.579,0.375 0.866,0.575 1.137,0.819 2.239,1.768 3.256,2.767 v 0 c 0.134,0.178 0.386,0.213 0.564,0.079 l 0.067,-0.05 c 0.354,-0.266 0.668,-0.577 1.045,-0.802 0.364,-0.243 0.735,-0.469 1.133,-0.646 0.192,-0.101 0.388,-0.192 0.595,-0.26 0.204,-0.074 0.403,-0.156 0.608,-0.223 l 0.626,-0.169 c 0.205,-0.065 0.424,-0.084 0.634,-0.128 0.211,-0.044 0.424,-0.075 0.64,-0.091 0.216,-0.018 0.427,-0.054 0.644,-0.053 0.431,-0.023 0.862,-0.015 1.292,0.007 0.639,0.042 1.301,0.136 1.91,0.281 0.127,2.156 2.772,4.824 4.559,6.611 1.686,1.686 3.003,4.72 3.837,7.062 0.452,0.078 0.9,0.161 1.335,0.247 -0.57,-6.358 -4.319,-14.793 -7.258,-16.154 -0.538,-0.249 -0.977,-0.223 -1.382,0.08 -0.153,0.115 -0.284,0.235 -0.404,0.358 -0.882,-0.147 -1.72,-0.189 -2.58,-0.164 -0.491,0.023 -0.981,0.063 -1.466,0.138 -0.243,0.025 -0.484,0.087 -0.725,0.133 -0.241,0.043 -0.479,0.102 -0.715,0.175 -0.235,0.074 -0.475,0.121 -0.703,0.217 l -0.688,0.262 c -0.224,0.098 -0.442,0.213 -0.662,0.319 -0.223,0.101 -0.434,0.225 -0.639,0.359 -0.424,0.243 -0.813,0.536 -1.189,0.845 -0.257,0.193 -0.484,0.421 -0.709,0.649 -0.793,-1.071 -1.633,-2.095 -2.583,-3.067 -0.267,-0.268 -0.54,-0.536 -0.833,-0.791 z"
   id="path13" />

		<path
   d="m 398.592,19.067 c -0.799,0.396 -1.126,1.365 -0.73,2.164 0.066,0.133 0.145,0.315 0.216,0.481 l 0.208,0.519 c 0.135,0.35 0.259,0.705 0.371,1.063 0.224,0.716 0.41,1.442 0.527,2.166 0.238,1.438 0.226,2.905 -0.31,4.045 v 0 l -0.125,0.302 -0.008,0.099 c -0.048,0.628 -0.066,1.204 -0.078,1.803 -0.01,0.593 -0.008,1.185 0.008,1.777 0.034,1.183 0.112,2.365 0.264,3.542 0.15,1.176 0.368,2.349 0.7,3.499 0.18,0.631 0.403,1.255 0.669,1.861 -0.793,0.604 -2.192,1.838 -3.288,2.806 -1.862,1.643 -3.62,3.195 -4.495,3.632 -1.452,0.726 -3.283,2.594 -3.85,5.483 0.348,0.137 0.702,0.321 1.059,0.549 0.852,-2.271 2.291,-3.348 4.578,-5.025 0.371,-0.272 0.766,-0.562 1.187,-0.877 1.047,-0.785 2.189,-1.502 3.197,-2.134 2.028,-1.272 3.946,-2.473 3.52,-3.32 -0.317,-0.635 -0.621,-0.99 -0.862,-1.196 -0.602,-1.705 -0.802,-3.567 -0.858,-5.4 -0.03,-1.124 0.01,-2.253 0.093,-3.377 0.043,-0.562 0.097,-1.123 0.165,-1.682 0.059,-0.48 0.128,-0.97 0.206,-1.431 0.448,-0.808 0.718,-1.679 0.853,-2.533 0.146,-0.923 0.161,-1.834 0.104,-2.723 -0.056,-0.891 -0.19,-1.759 -0.367,-2.614 -0.09,-0.427 -0.193,-0.851 -0.309,-1.273 l -0.184,-0.633 c -0.068,-0.215 -0.131,-0.414 -0.22,-0.656 l -0.012,-0.033 c -0.02,-0.053 -0.042,-0.105 -0.068,-0.156 -0.392,-0.797 -1.361,-1.123 -2.161,-0.728 z m 2.27,11.538 z"
   id="path14" />

	</g>
  </g>
</svg>
