<?xml version="1.0" encoding="UTF-8" standalone="no"?>
<!-- Created with Inkscape (http://www.inkscape.org/) -->

<svg
   width="37.390652mm"
   height="49.636093mm"
   viewBox="0 0 37.390652 49.636093"
   version="1.1"
   id="svg1"
   inkscape:version="1.4.3 (0d15f75, 2025-12-25)"
   sodipodi:docname="cupcake.svg"
   xmlns:inkscape="http://www.inkscape.org/namespaces/inkscape"
   xmlns:sodipodi="http://sodipodi.sourceforge.net/DTD/sodipodi-0.dtd"
   xmlns="http://www.w3.org/2000/svg"
   xmlns:svg="http://www.w3.org/2000/svg">
  <sodipodi:namedview
     id="namedview1"
     pagecolor="#ffffff"
     bordercolor="#000000"
     borderopacity="0.25"
     inkscape:showpageshadow="2"
     inkscape:pageopacity="0.0"
     inkscape:pagecheckerboard="0"
     inkscape:deskcolor="#d1d1d1"
     inkscape:document-units="mm"
     inkscape:zoom="0.72604517"
     inkscape:cx="396.66953"
     inkscape:cy="561.25984"
     inkscape:window-width="1920"
     inkscape:window-height="1017"
     inkscape:window-x="-8"
     inkscape:window-y="-8"
     inkscape:window-maximized="1"
     inkscape:current-layer="layer1" />
  <defs
     id="defs1" />
  <g
     inkscape:label="Layer 1"
     inkscape:groupmode="layer"
     id="layer1">
    <g
       id="g67"
       transform="matrix(0.26458333,0,0,0.26458333,-0.9839854,-1.3059864)">
	<g
   id="g53">
		<g
   id="g52">
			<g
   id="g1">
				<ellipse
   style="fill:#f79344"
   cx="74.287003"
   cy="94.440002"
   rx="69.477997"
   ry="18.114"
   id="ellipse1" />

				<path
   d="m 74.287,113.031 c -39.227,0 -69.955,-8.166 -69.955,-18.591 0,-10.425 30.728,-18.591 69.955,-18.591 39.227,0 69.955,8.166 69.955,18.591 0,10.425 -30.728,18.591 -69.955,18.591 z m 0,-36.228 c -38.047,0 -69.001,7.912 -69.001,17.637 0,9.725 30.954,17.637 69.001,17.637 38.047,0 69.001,-7.912 69.001,-17.637 0,-9.725 -30.954,-17.637 -69.001,-17.637 z"
   id="path1" />

			</g>

			<g
   id="g34">
				<g
   id="g3">
					<path
   style="fill:#facacc"
   d="m 74.352,106.757 -8.659,0.307 1.743,84.904 c 2.277,0.058 4.591,0.092 6.944,0.092 v -85.301 z"
   id="path2" />

					<path
   style="fill:#231f20"
   d="m 74.38,192.537 c -2.262,0 -4.538,-0.03 -6.957,-0.092 -0.255,-0.007 -0.46,-0.212 -0.465,-0.467 l -1.743,-84.903 c -0.005,-0.26 0.199,-0.477 0.46,-0.486 l 8.659,-0.307 c 0.011,-10e-4 0.022,-10e-4 0.033,0 l 0.028,0.001 c 0.257,0.008 0.461,0.219 0.461,0.476 v 85.302 c 0.001,0.262 -0.212,0.476 -0.476,0.476 z m -6.477,-1.035 c 2.073,0.05 4.045,0.076 6,0.08 V 107.25 l -7.724,0.274 z"
   id="path3" />

				</g>

				<g
   id="g5">
					<path
   style="fill:#facacc"
   d="m 65.683,107.065 -8.72,-1.031 3.517,85.666 c 2.266,0.119 4.59,0.207 6.955,0.268 l -1.743,-84.904 z"
   id="path4" />

					<path
   style="fill:#231f20"
   d="m 67.435,192.445 c -0.004,0 -0.008,0 -0.012,0 -2.398,-0.061 -4.742,-0.152 -6.968,-0.268 -0.246,-0.013 -0.441,-0.211 -0.451,-0.457 l -3.517,-85.666 c -0.006,-0.14 0.05,-0.275 0.152,-0.369 0.103,-0.095 0.244,-0.14 0.38,-0.124 l 8.698,1.028 c 0.249,0.012 0.448,0.215 0.453,0.467 l 1.743,84.903 c 0.003,0.13 -0.048,0.256 -0.141,0.348 -0.09,0.088 -0.211,0.138 -0.337,0.138 z m -6.496,-1.199 c 1.931,0.098 3.949,0.175 6.009,0.231 l -1.724,-83.987 -7.762,-0.918 z"
   id="path5" />

				</g>

				<g
   id="g7">
					<path
   style="fill:#facacc"
   d="m 56.931,106.03 -8.672,0.084 5.241,85.113 c 2.26,0.187 4.586,0.347 6.979,0.473 l -3.517,-85.666 z"
   id="path6" />

					<path
   style="fill:#231f20"
   d="m 60.48,192.177 c -0.008,0 -0.017,0 -0.025,0 -2.304,-0.121 -4.656,-0.281 -6.993,-0.474 -0.236,-0.02 -0.422,-0.21 -0.437,-0.446 l -5.241,-85.113 c -0.008,-0.131 0.038,-0.258 0.127,-0.354 0.089,-0.095 0.213,-0.15 0.344,-0.152 l 8.671,-0.084 c 0.023,-0.001 0.04,0 0.061,0.003 l 0.032,0.004 c 0.232,0.027 0.411,0.22 0.421,0.454 l 3.517,85.666 c 0.006,0.134 -0.046,0.265 -0.141,0.359 -0.09,0.088 -0.211,0.137 -0.336,0.137 z m -6.528,-1.392 c 2.015,0.163 4.039,0.301 6.03,0.41 l -3.477,-84.684 -7.738,0.075 z"
   id="path7" />

				</g>

				<g
   id="g9">
					<path
   style="fill:#facacc"
   d="m 48.235,106.114 -8.812,-1.59 7.061,86 c 2.248,0.266 4.59,0.501 7.017,0.703 L 48.26,106.114 Z"
   id="path8" />

					<path
   style="fill:#231f20"
   d="m 53.501,191.704 c -0.013,0 -0.026,-0.001 -0.04,-0.001 -2.408,-0.2 -4.774,-0.437 -7.034,-0.705 -0.225,-0.027 -0.401,-0.209 -0.419,-0.435 l -7.062,-85.999 c -0.012,-0.148 0.045,-0.293 0.155,-0.392 0.11,-0.099 0.259,-0.142 0.405,-0.117 l 8.773,1.582 c 0.243,0.01 0.441,0.203 0.456,0.447 l 5.241,85.113 c 0.008,0.138 -0.043,0.273 -0.142,0.37 -0.089,0.088 -0.209,0.137 -0.333,0.137 z m -6.574,-1.608 c 1.958,0.228 3.993,0.432 6.063,0.609 l -5.184,-84.184 -7.858,-1.418 z"
   id="path9" />

				</g>

				<g
   id="g11">
					<path
   style="fill:#facacc"
   d="m 39.399,104.52 -8.762,-0.446 8.771,85.457 c 2.229,0.367 4.593,0.699 7.076,0.993 l -7.061,-86 z"
   id="path10" />

					<path
   style="fill:#231f20"
   d="m 46.484,191.001 c -0.019,0 -0.037,-0.001 -0.056,-0.003 -2.472,-0.293 -4.86,-0.628 -7.097,-0.996 -0.212,-0.035 -0.375,-0.208 -0.397,-0.422 l -8.771,-85.458 c -0.014,-0.139 0.033,-0.277 0.129,-0.377 0.095,-0.101 0.226,-0.158 0.37,-0.148 l 8.762,0.447 c 0.02,0.001 0.039,0.003 0.059,0.007 l 0.024,0.004 c 0.213,0.037 0.375,0.214 0.393,0.43 l 7.062,85.999 c 0.012,0.143 -0.041,0.283 -0.144,0.382 -0.092,0.087 -0.211,0.135 -0.334,0.135 z m -6.639,-1.882 c 1.943,0.314 3.996,0.603 6.115,0.861 l -6.98,-85.004 -7.813,-0.399 z"
   id="path11" />

				</g>

				<g
   id="g13">
					<path
   style="fill:#facacc"
   d="m 21.475,100.745 -8.956,-0.995 12.389,86.222 c 2.052,0.776 4.522,1.497 7.333,2.153 L 21.479,100.746 Z"
   id="path12" />

					<path
   style="fill:#231f20"
   d="m 32.24,188.603 c -0.036,0 -0.073,-0.004 -0.109,-0.013 -2.862,-0.668 -5.349,-1.399 -7.392,-2.171 -0.163,-0.062 -0.279,-0.206 -0.304,-0.378 L 12.046,99.818 c -0.021,-0.146 0.027,-0.294 0.13,-0.4 0.103,-0.107 0.251,-0.157 0.396,-0.142 l 8.956,0.995 c 0.039,0.005 0.078,0.014 0.115,0.028 l 0.004,10e-4 c 0.166,0.062 0.284,0.212 0.306,0.389 l 10.762,87.379 c 0.019,0.155 -0.039,0.309 -0.155,0.413 -0.09,0.079 -0.203,0.122 -0.32,0.122 z m -6.9,-2.978 c 1.792,0.662 3.921,1.292 6.343,1.878 l -10.632,-86.325 -7.972,-0.886 z"
   id="path13" />

				</g>

				<g
   id="g15">
					<path
   style="fill:#facacc"
   d="m 12.415,99.738 -8.21,-5.676 c -0.003,0.053 -0.01,0.105 -0.01,0.158 0,0.421 0.091,0.838 0.259,1.25 l 13.489,84.93 h 0.018 c 0.058,2.019 2.57,3.917 6.947,5.572 L 12.518,99.75 Z"
   id="path14" />

					<path
   style="fill:#231f20"
   d="m 24.908,186.45 c -0.057,0 -0.114,-0.01 -0.169,-0.031 -4.652,-1.759 -7.089,-3.733 -7.248,-5.869 -0.008,-0.024 -0.014,-0.049 -0.019,-0.075 L 3.992,95.598 C 3.811,95.137 3.719,94.674 3.719,94.221 c 0,-0.047 0.003,-0.093 0.007,-0.138 0.013,-0.171 0.118,-0.349 0.273,-0.422 0.155,-0.073 0.338,-0.087 0.478,0.01 l 8.112,5.608 c 0.208,0.031 0.372,0.195 0.403,0.404 l 12.389,86.223 c 0.024,0.167 -0.042,0.334 -0.174,0.44 -0.087,0.068 -0.192,0.104 -0.299,0.104 z m -6.512,-6.24 c 0.025,0.054 0.04,0.113 0.042,0.176 0.047,1.634 2.075,3.301 5.881,4.844 L 12.085,100.09 4.812,95.062 c 0.024,0.076 0.052,0.152 0.083,0.228 0.014,0.034 0.024,0.069 0.029,0.105 z"
   id="path15" />

				</g>

				<g
   id="g17">
					<path
   style="fill:#facacc"
   d="m 30.619,104.073 -9.14,-3.326 10.762,87.379 c 2.187,0.511 4.586,0.981 7.168,1.405 l -8.771,-85.457 z"
   id="path16" />

					<path
   style="fill:#231f20"
   d="m 39.408,190.008 c -0.026,0 -0.052,-0.002 -0.077,-0.007 -2.589,-0.426 -5.011,-0.901 -7.199,-1.411 -0.195,-0.045 -0.34,-0.208 -0.365,-0.406 L 21.005,100.805 c -0.02,-0.165 0.047,-0.328 0.176,-0.431 0.13,-0.104 0.305,-0.133 0.46,-0.075 l 9.089,3.307 c 0.202,0.041 0.359,0.209 0.381,0.419 l 8.771,85.458 c 0.015,0.148 -0.04,0.294 -0.148,0.396 -0.089,0.083 -0.205,0.129 -0.326,0.129 z m -6.735,-2.272 c 1.906,0.437 3.986,0.847 6.197,1.221 l -8.676,-84.532 -8.146,-2.965 z"
   id="path17" />

				</g>

				<g
   id="g19">
					<path
   style="fill:#facacc"
   d="m 100.497,106.086 -8.696,0.168 -0.013,10e-4 -3.508,85.445 c 2.393,-0.126 4.719,-0.286 6.979,-0.474 l 5.243,-85.142 z"
   id="path18" />

					<path
   style="fill:#231f20"
   d="m 88.28,192.177 c -0.125,0 -0.246,-0.049 -0.336,-0.138 -0.095,-0.094 -0.147,-0.225 -0.141,-0.359 l 3.508,-85.446 c 0.01,-0.236 0.19,-0.429 0.426,-0.455 l 8.737,-0.171 c 0.141,-0.006 0.263,0.04 0.359,0.132 0.101,0.097 0.154,0.233 0.145,0.373 l -5.243,85.141 c -0.014,0.237 -0.2,0.426 -0.436,0.446 -2.332,0.193 -4.685,0.353 -6.993,0.475 -0.01,0.002 -0.018,0.002 -0.026,0.002 z m 3.965,-85.455 -3.468,84.474 c 1.995,-0.11 4.019,-0.248 6.03,-0.411 l 5.186,-84.213 z"
   id="path19" />

				</g>

				<g
   id="g21">
					<path
   style="fill:#f9b0a6"
   d="m 127.179,101.576 -10.66,86.548 c 2.812,-0.657 5.281,-1.378 7.333,-2.155 l 12.43,-86.509 z"
   id="path20" />

					<path
   style="fill:#231f20"
   d="m 116.519,188.601 c -0.116,0 -0.23,-0.043 -0.319,-0.122 -0.116,-0.104 -0.174,-0.259 -0.155,-0.413 l 10.66,-86.548 c 0.024,-0.199 0.171,-0.361 0.365,-0.406 l 9.104,-2.116 c 0.155,-0.035 0.314,0.006 0.43,0.113 0.116,0.106 0.172,0.263 0.15,0.419 l -12.43,86.509 c -0.025,0.172 -0.141,0.317 -0.304,0.378 -2.041,0.773 -4.529,1.504 -7.393,2.173 -0.035,0.009 -0.072,0.013 -0.108,0.013 z m 11.093,-86.636 -10.535,85.536 c 2.424,-0.586 4.554,-1.218 6.344,-1.879 l 12.29,-85.539 z"
   id="path21" />

				</g>

				<g
   id="g23">
					<path
   style="fill:#f9b0a6"
   d="m 127.145,101.584 -9.013,2.4 -8.78,85.547 c 2.582,-0.425 4.98,-0.896 7.168,-1.407 l 10.66,-86.548 z"
   id="path22" />

					<path
   style="fill:#231f20"
   d="m 109.352,190.008 c -0.121,0 -0.237,-0.046 -0.327,-0.13 -0.108,-0.102 -0.163,-0.248 -0.148,-0.396 l 8.78,-85.547 c 0.02,-0.197 0.16,-0.361 0.352,-0.412 l 9.013,-2.4 c 0.005,-0.001 0.009,-0.002 0.014,-0.003 l 0.034,-0.008 c 0.152,-0.036 0.311,0.006 0.427,0.109 0.116,0.104 0.173,0.259 0.154,0.413 l -10.66,86.548 c -0.024,0.199 -0.17,0.361 -0.365,0.406 -2.196,0.513 -4.618,0.989 -7.199,1.413 -0.023,0.005 -0.049,0.007 -0.075,0.007 z m 9.221,-85.648 -8.682,84.597 c 2.204,-0.373 4.284,-0.784 6.196,-1.223 l 10.533,-85.517 z"
   id="path23" />

				</g>

				<g
   id="g25">
					<path
   style="fill:#f9b0a6"
   d="m 144.553,94.052 c -0.002,-0.04 -0.01,-0.08 -0.014,-0.12 l -0.03,-0.01 -8.221,5.536 -0.006,0.001 -12.43,86.509 c 4.314,-1.633 6.817,-3.502 6.937,-5.491 h 0.001 l 10.355,-63.784 c 3.314,-21.569 3.419,-22.018 3.419,-22.473 0,-0.056 -0.007,-0.112 -0.011,-0.168 z"
   id="path24" />

					<path
   style="fill:#231f20"
   d="m 123.852,186.446 c -0.107,0 -0.213,-0.036 -0.299,-0.105 -0.131,-0.106 -0.198,-0.273 -0.174,-0.44 l 12.43,-86.509 c 0.022,-0.152 0.115,-0.281 0.245,-0.352 l 8.187,-5.514 c 0.123,-0.083 0.277,-0.104 0.417,-0.057 0.181,0.06 0.34,0.233 0.355,0.423 l 0.014,0.131 v 0 l -0.435,0.025 0.003,0.004 0.435,0.019 c 0.004,0.049 0.008,0.099 0.008,0.148 0,0.338 -0.02,0.465 -1.045,7.101 -0.507,3.28 -1.26,8.157 -2.379,15.444 l -10.355,63.788 c -0.125,2.103 -2.562,4.091 -7.24,5.862 -0.053,0.022 -0.11,0.032 -0.167,0.032 z m 12.872,-86.705 -12.283,85.486 c 3.75,-1.521 5.775,-3.166 5.872,-4.777 l 10.361,-63.832 c 1.119,-7.284 1.872,-12.16 2.379,-15.441 0.62,-4.012 0.871,-5.635 0.97,-6.352 z"
   id="path25" />

				</g>

				<g
   id="g27">
					<path
   style="fill:#f9b0a6"
   d="m 118.113,103.989 -8.78,0.811 -0.019,0.003 -7.038,85.721 c 2.483,-0.294 4.848,-0.626 7.076,-0.993 l 8.78,-85.547 z"
   id="path26" />

					<path
   style="fill:#231f20"
   d="m 102.276,191.001 c -0.123,0 -0.242,-0.048 -0.331,-0.134 -0.103,-0.099 -0.156,-0.24 -0.145,-0.382 l 7.038,-85.721 c 0.018,-0.221 0.186,-0.4 0.405,-0.433 l 8.793,-0.814 c 0.146,-0.03 0.297,0.01 0.409,0.108 0.117,0.102 0.177,0.254 0.161,0.409 l -8.78,85.547 c -0.022,0.214 -0.185,0.387 -0.397,0.422 -2.234,0.368 -4.621,0.703 -7.097,0.996 -0.019,0.001 -0.037,0.002 -0.056,0.002 z m 7.481,-85.762 -6.958,84.741 c 2.123,-0.259 4.176,-0.548 6.115,-0.862 l 8.684,-84.604 z"
   id="path27" />

				</g>

				<g
   id="g29">
					<path
   style="fill:#facacc"
   d="m 83.066,107.119 -1.742,84.849 c 2.366,-0.06 4.69,-0.148 6.956,-0.268 l 3.508,-85.445 z"
   id="path28" />

					<path
   style="fill:#231f20"
   d="m 81.324,192.445 c -0.126,0 -0.247,-0.05 -0.336,-0.139 -0.093,-0.092 -0.144,-0.217 -0.141,-0.348 l 1.742,-84.849 c 0.005,-0.241 0.189,-0.441 0.43,-0.465 l 8.721,-0.864 c 0.135,-0.013 0.273,0.033 0.375,0.128 0.1,0.095 0.155,0.229 0.149,0.367 l -3.508,85.445 c -0.01,0.246 -0.205,0.444 -0.451,0.457 -2.214,0.116 -4.558,0.206 -6.969,0.268 -0.004,0 -0.008,0 -0.012,0 z m 2.21,-84.893 -1.723,83.926 c 2.07,-0.056 4.087,-0.134 6.009,-0.231 l 3.468,-84.463 z"
   id="path29" />

				</g>

				<g
   id="g31">
					<path
   style="fill:#facacc"
   d="m 83.048,107.12 -8.668,-0.362 v 85.301 0 c 2.353,0 4.667,-0.033 6.944,-0.092 l 1.742,-84.849 z"
   id="path30" />

					<path
   style="fill:#231f20"
   d="m 74.38,192.537 c -0.264,0 -0.477,-0.213 -0.477,-0.477 v -85.302 c 0,-0.13 0.053,-0.254 0.147,-0.344 0.094,-0.09 0.209,-0.144 0.35,-0.132 l 8.641,0.361 c 0.132,-0.007 0.258,0.04 0.353,0.129 0.098,0.093 0.152,0.222 0.149,0.357 l -1.742,84.849 c -0.005,0.255 -0.21,0.461 -0.465,0.467 -2.418,0.061 -4.694,0.092 -6.956,0.092 z m 0.477,-85.282 v 84.327 c 1.955,-0.004 3.926,-0.03 5.999,-0.08 l 1.723,-83.924 z"
   id="path31" />

				</g>

				<g
   id="g33">
					<path
   style="fill:#f9b0a6"
   d="m 100.502,106.085 -5.243,85.142 c 2.427,-0.201 4.77,-0.437 7.017,-0.703 l 7.038,-85.721 z"
   id="path32" />

					<path
   style="fill:#231f20"
   d="m 95.259,191.704 c -0.124,0 -0.244,-0.048 -0.334,-0.136 -0.099,-0.097 -0.151,-0.232 -0.143,-0.37 l 5.243,-85.141 c 0.014,-0.226 0.184,-0.41 0.407,-0.442 l 8.813,-1.283 c 0.148,-0.019 0.29,0.025 0.396,0.124 0.106,0.099 0.161,0.242 0.149,0.387 l -7.038,85.721 c -0.019,0.226 -0.194,0.408 -0.419,0.435 -2.262,0.268 -4.629,0.505 -7.034,0.705 -0.014,-0.001 -0.027,0 -0.04,0 z m 5.695,-85.203 -5.185,84.204 c 2.069,-0.177 4.104,-0.381 6.064,-0.609 l 6.957,-84.735 z"
   id="path33" />

				</g>

			</g>

			<g
   id="g35">
				<path
   style="fill:#ffe7b3"
   d="m 140.347,73.908 c -2.16,-6.074 -7.099,-10.251 -12.726,-13.061 -0.305,-0.152 -0.613,-0.298 -0.923,-0.441 0.094,-0.165 0.194,-0.327 0.282,-0.496 1.272,-2.444 1.72,-5.204 1.018,-7.893 -0.748,-2.861 -2.607,-5.266 -4.801,-7.19 -0.739,-0.649 -1.548,-1.276 -2.409,-1.832 0.21,-0.88 0.33,-1.787 0.342,-2.711 0.051,-3.811 -1.584,-7.419 -4.067,-10.249 -2.392,-2.725 -5.394,-4.807 -8.275,-6.971 -0.12,-0.09 -0.235,-0.185 -0.354,-0.276 -1.196,-0.701 -2.385,-1.414 -3.537,-2.186 -2.499,-1.674 -4.995,-3.609 -6.316,-6.389 -1.135,-2.388 -1.259,-5.1 -0.413,-7.6 0.139,-0.41 0.306,-0.808 0.487,-1.199 -3.38,2.444 -7.428,3.756 -11.55,4.429 -5.04,0.822 -10.167,0.802 -15.257,0.979 -4.735,0.164 -9.475,0.571 -14.083,1.725 -4.448,1.114 -8.948,2.957 -12.15,6.353 -1.674,1.775 -3.064,4.064 -3.519,6.483 -0.325,1.731 0.015,3.377 0.615,4.962 -4.974,1.191 -9.85,3.016 -14.077,5.918 -5.176,3.554 -9.305,8.933 -10.521,15.178 -0.701,3.601 -0.227,7.238 1.076,10.644 0.077,0.202 0.157,0.406 0.236,0.61 -0.809,0.227 -1.605,0.502 -2.374,0.818 -2.964,1.213 -5.743,2.988 -8.1,5.155 -2.322,2.135 -4.077,4.844 -4.54,8.007 -0.451,3.076 0.436,6.206 2.234,8.717 1.908,2.666 4.761,4.698 7.567,6.327 2.934,1.703 6.089,3.012 9.306,4.076 6.85,2.265 14.024,3.488 21.134,4.607 8.35,1.314 16.764,2.271 25.211,2.641 8.269,0.363 16.489,-0.066 24.74,-0.605 7.901,-0.516 15.821,-1.211 23.592,-2.786 3.848,-0.78 7.653,-1.782 11.355,-3.093 2.921,-1.035 6.126,-2.082 8.573,-4.049 5.514,-4.433 4.324,-12.698 2.224,-18.602 z"
   id="path34" />

				<path
   d="m 76.213,103.654 c -2.119,0 -4.249,-0.04 -6.37,-0.133 C 61.96,103.175 53.695,102.31 44.579,100.875 37.315,99.731 30.227,98.517 23.37,96.249 19.765,95.057 16.692,93.71 13.974,92.132 10.366,90.037 7.914,87.984 6.258,85.67 4.335,82.984 3.491,79.68 3.941,76.606 c 0.44,-3.007 2.061,-5.873 4.689,-8.29 2.4,-2.207 5.251,-4.021 8.242,-5.245 0.635,-0.26 1.279,-0.491 1.923,-0.688 l -0.049,-0.128 c -1.417,-3.705 -1.787,-7.374 -1.099,-10.906 1.16,-5.958 5.067,-11.6 10.719,-15.48 3.766,-2.585 8.258,-4.506 13.719,-5.863 -0.588,-1.732 -0.732,-3.242 -0.456,-4.712 0.433,-2.304 1.726,-4.691 3.641,-6.722 2.815,-2.985 6.865,-5.107 12.381,-6.488 3.998,-1.002 8.372,-1.538 14.182,-1.739 0.965,-0.033 1.93,-0.06 2.897,-0.086 4.054,-0.111 8.246,-0.225 12.3,-0.887 4.64,-0.757 8.351,-2.178 11.347,-4.345 0.175,-0.128 0.414,-0.12 0.583,0.018 0.167,0.138 0.221,0.371 0.13,0.568 -0.2,0.433 -0.349,0.799 -0.468,1.151 -0.818,2.417 -0.679,4.99 0.392,7.242 1.273,2.679 3.708,4.562 6.15,6.198 1.164,0.78 2.376,1.504 3.513,2.171 l 1.57,1.179 c 2.494,1.854 5.074,3.77 7.177,6.165 2.748,3.132 4.235,6.886 4.186,10.57 -0.011,0.824 -0.106,1.659 -0.282,2.487 0.736,0.495 1.47,1.062 2.186,1.69 2.588,2.27 4.253,4.77 4.949,7.429 0.706,2.702 0.34,5.55 -1.057,8.234 -0.011,0.021 -0.022,0.042 -0.034,0.063 0.156,0.075 0.311,0.15 0.465,0.227 6.634,3.312 10.995,7.796 12.962,13.327 v 0 c 1.432,4.027 4.068,13.953 -2.374,19.135 -2.343,1.883 -5.275,2.916 -8.11,3.914 l -0.603,0.212 c -3.537,1.253 -7.273,2.27 -11.42,3.111 -7.989,1.619 -16.09,2.299 -23.655,2.794 -5.646,0.372 -11.981,0.742 -18.424,0.742 z M 97.651,6.66 c -2.875,1.777 -6.317,2.977 -10.469,3.655 -4.117,0.672 -8.342,0.787 -12.427,0.898 -0.964,0.027 -1.927,0.053 -2.89,0.086 -5.74,0.199 -10.053,0.727 -13.983,1.712 -5.334,1.335 -9.233,3.369 -11.919,6.218 -1.791,1.899 -2.997,4.117 -3.397,6.243 -0.269,1.433 -0.081,2.928 0.593,4.705 0.049,0.128 0.04,0.271 -0.025,0.392 -0.064,0.121 -0.177,0.209 -0.311,0.241 -5.58,1.336 -10.132,3.248 -13.918,5.848 -5.448,3.74 -9.21,9.162 -10.323,14.876 -0.654,3.354 -0.299,6.847 1.053,10.383 l 0.235,0.607 c 0.049,0.125 0.042,0.265 -0.018,0.386 -0.06,0.12 -0.169,0.21 -0.298,0.246 -0.774,0.217 -1.556,0.486 -2.322,0.8 -2.888,1.181 -5.64,2.933 -7.958,5.065 -2.464,2.266 -3.983,4.937 -4.391,7.725 -0.415,2.832 0.369,5.883 2.15,8.371 1.574,2.2 3.931,4.167 7.419,6.192 2.661,1.545 5.676,2.865 9.217,4.036 6.789,2.245 13.835,3.451 21.058,4.588 9.081,1.43 17.31,2.292 25.158,2.636 8.526,0.374 17.214,-0.116 24.687,-0.605 7.532,-0.492 15.595,-1.17 23.528,-2.777 4.103,-0.832 7.796,-1.837 11.291,-3.075 l 0.605,-0.213 c 2.76,-0.972 5.613,-1.977 7.828,-3.758 5.966,-4.798 3.438,-14.236 2.073,-18.071 v 0 c -1.881,-5.291 -6.084,-9.595 -12.49,-12.794 -0.301,-0.151 -0.605,-0.294 -0.91,-0.435 -0.121,-0.056 -0.213,-0.16 -0.254,-0.287 -0.041,-0.127 -0.026,-0.265 0.04,-0.382 l 0.091,-0.157 c 0.062,-0.106 0.124,-0.212 0.181,-0.322 1.286,-2.471 1.624,-5.082 0.979,-7.552 -0.646,-2.471 -2.212,-4.81 -4.654,-6.953 -0.772,-0.677 -1.563,-1.279 -2.353,-1.79 -0.17,-0.11 -0.252,-0.315 -0.205,-0.512 0.207,-0.866 0.318,-1.744 0.329,-2.606 0.047,-3.448 -1.356,-6.974 -3.949,-9.928 -2.035,-2.319 -4.574,-4.205 -7.029,-6.028 l -1.531,-1.154 c -1.102,-0.642 -2.329,-1.376 -3.514,-2.169 -2.556,-1.712 -5.11,-3.694 -6.481,-6.581 -1.145,-2.418 -1.321,-5.165 -0.496,-7.76 z"
   id="path35" />

			</g>

			<path
   style="opacity:0.46;fill:#ffdd99"
   d="m 95.485,48.59 c -8.4,0 -18.059,-1.019 -27.754,-3.631 C 42.87,38.261 42.29,30.078 42.277,29.733 c -0.007,-0.186 0.139,-0.342 0.325,-0.35 0.219,-0.009 0.342,0.138 0.35,0.323 0.007,0.111 0.745,8.079 24.954,14.602 24.83,6.691 49.313,2.969 52.61,-1.512 0.111,-0.151 0.322,-0.182 0.471,-0.072 0.15,0.11 0.182,0.321 0.072,0.471 -2.08,2.828 -12.239,5.395 -25.574,5.395 z"
   id="path36" />

			<path
   style="opacity:0.46;fill:#ffdd99"
   d="m 71.128,79.119 c -5.484,0 -11.159,-0.413 -16.934,-1.344 C 19.114,72.127 18.847,62.487 18.853,62.08 c 0.003,-0.185 0.153,-0.333 0.337,-0.333 10e-4,0 0.003,0 0.005,0 0.186,0.003 0.334,0.154 0.333,0.34 0.003,0.137 0.529,9.509 34.773,15.023 35.375,5.694 66.97,-8.01 72.388,-17.369 0.094,-0.163 0.302,-0.216 0.46,-0.123 0.161,0.093 0.217,0.3 0.123,0.46 -4.609,7.964 -27.776,19.041 -56.144,19.041 z"
   id="path37" />

			<g
   style="opacity:0.46"
   id="g51">
				<path
   style="fill:#ffdd99"
   d="m 115.764,38.632 c -0.232,-1.317 -0.743,-2.57 -1.425,-3.717 -1.435,-2.412 -3.66,-4.303 -5.853,-6.002 -2.232,-1.729 -4.603,-3.291 -6.731,-5.151 -2.498,-2.183 -4.791,-5.023 -5.576,-8.308 -0.386,-1.618 -0.304,-3.289 0.03,-4.909 0.216,-1.046 0.51,-2.222 1.092,-3.176 0.012,-0.007 0.025,-0.013 0.037,-0.019 0.078,-0.043 0.108,-0.122 0.092,-0.177 0.188,-0.278 0.4,-0.538 0.65,-0.761 0.14,-0.124 -0.034,-0.251 -0.167,-0.164 -0.329,0.216 -0.609,0.489 -0.856,0.792 -0.119,0.105 -0.24,0.209 -0.361,0.313 -1.063,0.403 -2.122,0.816 -3.181,1.23 0.021,-0.082 -0.026,-0.163 -0.15,-0.114 -3.85,1.52 -7.979,2.344 -12.073,2.871 -4.104,0.528 -8.249,0.646 -12.348,1.214 -4.009,0.556 -7.861,1.618 -11.449,3.52 -3.059,1.622 -5.99,3.815 -7.674,6.913 -0.885,1.627 -1.368,3.444 -1.536,5.283 -0.168,1.83 -0.003,3.778 0.81,5.448 0.055,0.114 0.293,-0.03 0.249,-0.14 -0.635,-1.574 -0.679,-3.306 -0.509,-4.974 0.168,-1.657 0.584,-3.349 1.338,-4.84 1.552,-3.069 4.298,-5.25 7.276,-6.854 3.441,-1.854 7.137,-2.929 10.99,-3.519 4,-0.613 8.048,-0.825 12.057,-1.366 3.131,-0.422 6.228,-1.027 9.229,-1.969 -1.532,0.59 -3.068,1.171 -4.62,1.714 -3.851,1.347 -7.761,2.524 -11.605,3.89 -3.472,1.233 -6.912,2.771 -9.698,5.234 -2.489,2.2 -3.98,5.153 -4.045,8.494 -0.07,3.596 1.262,7.17 3.17,10.173 0.099,0.156 0.4,-0.057 0.311,-0.218 -1.546,-2.763 -2.724,-5.842 -2.813,-9.04 -0.09,-3.243 1.069,-6.319 3.427,-8.572 2.601,-2.484 5.955,-4.012 9.294,-5.235 3.675,-1.345 7.436,-2.453 11.13,-3.744 1.237,-0.432 2.48,-0.872 3.72,-1.327 -0.317,0.161 -0.632,0.325 -0.939,0.506 -2.874,1.695 -5.646,3.609 -8.069,5.913 -2.389,2.272 -4.472,5.009 -5.489,8.18 -1.157,3.608 -0.007,7.237 1.99,10.31 1.03,1.586 2.343,2.947 3.427,4.492 1.085,1.546 1.966,3.334 1.248,5.222 -0.066,0.175 0.209,0.158 0.269,0.039 1.492,-2.943 -1.188,-6.002 -2.899,-8.165 -2.266,-2.863 -4.142,-6.404 -3.655,-10.169 0.433,-3.344 2.578,-6.403 4.866,-8.768 2.313,-2.39 5.046,-4.348 7.86,-6.104 1.664,-1.038 3.425,-1.796 5.224,-2.563 1.106,-0.472 2.219,-0.957 3.256,-1.565 -0.464,0.403 -0.927,0.806 -1.374,1.23 -1.176,1.116 -2.282,2.3 -3.265,3.59 -1.903,2.497 -3.094,5.481 -3.482,8.595 -0.372,2.981 0.084,5.98 1.482,8.651 1.35,2.579 3.415,4.658 5.396,6.751 1.064,1.124 2.114,2.28 2.857,3.649 0.797,1.47 1.012,3.096 0.585,4.716 -0.05,0.188 0.228,0.142 0.272,0.005 0.42,-1.306 0.476,-2.673 0.083,-3.993 -0.371,-1.248 -1.079,-2.359 -1.875,-3.377 -1.765,-2.257 -3.924,-4.168 -5.538,-6.551 -1.686,-2.487 -2.62,-5.293 -2.558,-8.313 0.063,-3.08 0.97,-6.214 2.639,-8.809 0.986,-1.532 2.186,-2.907 3.459,-4.205 0.63,-0.642 1.284,-1.259 1.933,-1.881 0.22,-0.211 0.432,-0.428 0.646,-0.645 -0.209,0.427 -0.38,0.872 -0.525,1.306 -0.425,1.275 -0.676,2.652 -0.695,3.998 -0.049,3.573 1.974,6.826 4.352,9.338 3.952,4.176 9.447,6.588 13.134,11.046 0.984,1.191 1.815,2.518 2.32,3.984 0.304,0.883 0.53,1.815 0.551,2.752 0.024,1.045 -0.228,2.028 -0.6,2.997 -0.047,0.121 0.145,0.109 0.187,0.027 0.823,-1.587 1.005,-3.228 0.695,-4.982 z"
   id="path38" />

				<path
   style="fill:#ffdd99"
   d="m 38.117,33.424 c 1.401,-1.066 2.92,-1.869 4.532,-2.565 0.144,-0.062 0.191,-0.331 -0.024,-0.279 -3.058,0.74 -5.78,2.837 -7.867,5.121 -2.252,2.465 -3.963,5.41 -5.103,8.542 -1.095,3.008 -1.687,6.256 -1.478,9.461 0.241,3.699 1.413,7.534 3.461,10.635 1.27,1.922 2.955,3.444 4.754,4.86 1.929,1.519 3.998,2.931 6.162,4.093 0.071,0.038 0.202,-0.077 0.122,-0.128 -3.5,-2.187 -7.037,-4.52 -9.458,-7.946 -2.187,-3.096 -3.546,-6.741 -4.064,-10.491 -0.854,-6.177 1.443,-12.809 5.263,-17.635 1.079,-1.362 2.315,-2.613 3.7,-3.668 z"
   id="path39" />

				<path
   style="fill:#ffdd99"
   d="m 74.869,78.084 c -2.008,-0.609 -4.042,-1.131 -6.016,-1.849 -1.944,-0.707 -3.719,-1.748 -5.482,-2.817 -1.589,-0.963 -3.206,-1.843 -4.68,-2.983 -1.37,-1.059 -2.637,-2.247 -3.799,-3.53 -2.378,-2.626 -4.486,-5.618 -6.168,-8.735 -1.835,-3.401 -3.079,-7.104 -3.781,-10.901 -0.404,-2.184 -0.667,-4.429 -0.598,-6.653 0.037,-1.197 0.192,-2.387 0.467,-3.553 0.225,-0.955 0.748,-1.908 0.746,-2.901 0,-0.189 -0.279,-0.078 -0.295,0.062 -0.11,0.984 -0.725,1.881 -0.999,2.829 -0.288,0.999 -0.464,2.033 -0.557,3.068 -0.18,1.999 -0.011,4.02 0.26,6.004 0.527,3.864 1.651,7.635 3.343,11.15 1.6,3.324 3.746,6.466 6.173,9.243 1.127,1.289 2.345,2.509 3.671,3.593 1.437,1.176 2.995,2.134 4.62,3.025 1.971,1.08 3.942,2.149 6.051,2.938 2.278,0.853 4.635,1.442 6.961,2.143 0.073,0.024 0.175,-0.105 0.083,-0.133 z"
   id="path40" />

				<path
   style="fill:#ffdd99"
   d="m 103.059,71.196 c -8.122,0.707 -16.403,-0.276 -23.873,-3.663 -3.441,-1.56 -6.668,-3.57 -9.609,-5.939 -2.857,-2.301 -5.476,-5.001 -7.361,-8.166 -1.066,-1.79 -1.873,-3.715 -2.347,-5.746 -0.412,-1.769 -0.623,-3.826 0.197,-5.513 0.073,-0.15 -0.116,-0.206 -0.206,-0.095 -1.068,1.304 -1.097,3.156 -0.907,4.752 0.212,1.783 0.791,3.52 1.54,5.145 1.595,3.461 4.14,6.405 6.963,8.928 2.917,2.607 6.239,4.756 9.759,6.455 3.474,1.676 7.15,2.953 10.951,3.634 4.856,0.87 9.943,1.195 14.839,0.47 0.128,-0.019 0.237,-0.278 0.054,-0.262 z"
   id="path41" />

				<path
   style="fill:#ffdd99"
   d="m 118.062,64.439 c -1.632,0.004 -3.234,0.309 -4.849,0.504 -1.653,0.2 -3.325,0.159 -4.983,0.043 -3.281,-0.229 -6.529,-0.977 -9.687,-1.875 -3.069,-0.873 -6.009,-2.068 -8.705,-3.785 -2.611,-1.662 -5.069,-3.591 -7.241,-5.799 -0.963,-0.979 -1.9,-2.009 -2.765,-3.076 -0.726,-0.895 -1.702,-2.086 -1.577,-3.321 0.023,-0.228 -0.31,-0.091 -0.359,0.036 -0.398,1.025 0.223,2.142 0.765,2.994 0.627,0.984 1.42,1.867 2.197,2.734 2.108,2.351 4.511,4.424 7.114,6.207 2.678,1.834 5.539,3.246 8.63,4.241 3.139,1.011 6.444,1.794 9.723,2.159 1.921,0.213 3.901,0.328 5.828,0.138 1.942,-0.191 3.841,-0.686 5.787,-0.842 0.187,-0.016 0.398,-0.359 0.122,-0.358 z"
   id="path42" />

				<path
   style="fill:#ffdd99"
   d="m 124.946,55.061 c -2.085,0.346 -4.137,0.879 -6.235,1.146 -2.207,0.281 -4.449,0.22 -6.656,-0.032 -4.372,-0.498 -8.649,-1.831 -12.412,-4.132 -0.959,-0.586 -1.882,-1.194 -2.656,-2.016 -0.654,-0.695 -1.278,-1.478 -2.183,-1.848 -0.083,-0.034 -0.259,0.103 -0.18,0.188 0.617,0.666 1.143,1.412 1.738,2.098 0.646,0.745 1.386,1.312 2.211,1.848 1.818,1.18 3.781,2.163 5.827,2.88 2.099,0.736 4.292,1.204 6.496,1.486 2.242,0.286 4.541,0.396 6.794,0.181 2.46,-0.234 4.857,-0.832 7.236,-1.476 0.187,-0.051 0.286,-0.367 0.02,-0.323 z"
   id="path43" />

				<path
   style="fill:#ffdd99"
   d="m 123.752,48.264 c -1.204,0.099 -2.396,0.306 -3.602,0.399 -1.259,0.097 -2.523,0.125 -3.785,0.081 -2.53,-0.088 -5.121,-0.319 -7.592,-0.883 -0.096,-0.022 -0.239,0.138 -0.113,0.18 2.419,0.814 4.861,1.278 7.418,1.309 1.301,0.016 2.601,-0.045 3.895,-0.174 1.245,-0.124 2.523,-0.278 3.723,-0.646 0.107,-0.032 0.258,-0.282 0.056,-0.266 z"
   id="path44" />

				<path
   style="fill:#ffdd99"
   d="M 35.685,96.404 C 30.37,94.964 25.679,91.42 22.182,87.24 20.449,85.169 19.019,82.885 18.007,80.378 16.903,77.644 16.151,74.649 16.41,71.682 c 0.122,-1.395 0.51,-2.741 1.083,-4.016 0.491,-1.09 1.201,-2.471 2.362,-2.966 0.33,-0.141 0.275,-0.606 -0.118,-0.464 -1.082,0.392 -1.842,1.394 -2.4,2.354 -0.604,1.039 -1.092,2.186 -1.386,3.353 -0.758,3.006 -0.307,6.195 0.641,9.104 1.817,5.573 5.548,10.281 10.282,13.693 2.567,1.85 5.511,3.371 8.65,3.92 0.136,0.023 0.344,-0.206 0.161,-0.256 z"
   id="path45" />

				<path
   style="fill:#ffdd99"
   d="M 60.912,100.191 C 58.114,99.357 55.268,98.707 52.524,97.696 49.77,96.681 47.196,95.301 44.757,93.673 42.403,92.102 40.188,90.295 38.41,88.08 c -1.702,-2.121 -3.146,-4.481 -4.192,-6.995 -1.147,-2.758 -1.787,-5.798 -1.482,-8.79 0.022,-0.22 -0.331,-0.116 -0.368,0.037 -0.651,2.675 -0.242,5.414 0.658,7.984 0.92,2.629 2.324,5.088 4.019,7.292 1.73,2.249 3.817,4.124 6.156,5.723 2.433,1.663 5.046,3.136 7.786,4.229 3.152,1.257 6.484,2.108 9.791,2.845 0.116,0.025 0.285,-0.17 0.134,-0.214 z"
   id="path46" />

				<path
   style="fill:#ffdd99"
   d="M 94.343,100.81 C 87.07,100.663 79.818,100.17 72.795,98.145 65.831,96.137 58.968,92.542 54.117,87.055 52.74,85.498 51.527,83.802 50.438,82.033 49.923,81.196 49.425,80.348 48.92,79.505 c -0.539,-0.9 -1.056,-1.883 -1.141,-2.947 -0.014,-0.176 -0.242,-0.063 -0.266,0.056 -0.351,1.762 0.951,3.469 1.78,4.914 0.953,1.66 2.035,3.257 3.233,4.75 2.366,2.948 5.279,5.377 8.475,7.381 6.229,3.905 13.362,5.94 20.614,6.832 4.185,0.515 8.403,0.714 12.618,0.637 0.177,-0.003 0.352,-0.313 0.11,-0.318 z"
   id="path47" />

				<path
   style="fill:#ffdd99"
   d="m 97.735,97.021 c -4.886,-1.473 -9.75,-3.004 -14.312,-5.329 -1.987,-1.013 -3.906,-2.172 -5.785,-3.372 -1.804,-1.151 -3.556,-2.392 -5.166,-3.804 -1.79,-1.57 -3.289,-3.37 -4.438,-5.456 -0.074,-0.134 -0.339,0.035 -0.295,0.166 0.67,1.966 2.034,3.659 3.495,5.1 1.544,1.523 3.284,2.827 5.084,4.03 3.991,2.666 8.201,4.923 12.72,6.562 2.771,1.005 5.623,1.83 8.517,2.393 0.152,0.029 0.385,-0.228 0.18,-0.29 z"
   id="path48" />

				<path
   style="fill:#ffdd99"
   d="m 130.761,90.646 c -6.381,1.248 -12.873,0.774 -19.258,-0.193 -3.226,-0.489 -6.432,-1.115 -9.561,-2.05 -3.12,-0.933 -6.098,-2.236 -8.899,-3.897 -1.526,-0.905 -2.987,-1.912 -4.383,-3.007 -1.311,-1.027 -2.198,-2.482 -3.528,-3.482 -0.119,-0.09 -0.396,0.118 -0.28,0.24 0.987,1.042 1.739,2.281 2.777,3.278 1.162,1.117 2.575,2.04 3.927,2.908 2.75,1.766 5.712,3.181 8.815,4.206 3.157,1.043 6.432,1.703 9.715,2.199 3.222,0.487 6.466,0.849 9.725,0.949 3.643,0.112 7.373,-0.015 10.931,-0.865 0.173,-0.039 0.252,-0.331 0.019,-0.286 z"
   id="path49" />

				<path
   style="fill:#ffdd99"
   d="m 132.102,78.252 c -8.331,1.835 -17.236,0.881 -25.326,-1.623 -1.028,-0.318 -2.114,-0.656 -3.059,-1.18 -0.496,-0.275 -1.056,-0.623 -1.485,-0.995 0,0.003 0,0.006 0,0.009 -0.04,-0.037 -0.111,-0.044 -0.183,0.009 -0.001,0 -0.001,0.001 -0.002,0.001 -0.062,0.045 -0.108,0.123 -0.068,0.198 0.239,0.436 0.71,0.873 1.104,1.165 0.683,0.507 1.589,0.811 2.379,1.1 1.922,0.702 3.925,1.215 5.924,1.647 4.36,0.94 8.872,1.311 13.324,1.048 2.486,-0.147 4.962,-0.522 7.377,-1.132 0.145,-0.038 0.212,-0.29 0.015,-0.247 z"
   id="path50" />

				<path
   style="fill:#ffdd99"
   d="m 130.988,67.004 c -2.506,0.673 -4.996,1.326 -7.599,1.475 -1.187,0.068 -2.354,-0.049 -3.538,-0.059 -0.492,-0.004 -0.983,0.01 -1.474,-0.025 -0.54,-0.039 -1.023,-0.169 -1.543,-0.297 -0.083,-0.021 -0.228,0.08 -0.166,0.173 0.526,0.786 1.932,0.706 2.747,0.731 1.232,0.038 2.451,0.155 3.686,0.099 2.693,-0.123 5.433,-0.69 7.919,-1.74 0.184,-0.08 0.239,-0.43 -0.032,-0.357 z"
   id="path51" />

			</g>

			<path
   style="opacity:0.46;fill:#ffe7b3"
   d="m 140.347,73.908 c -2.16,-6.074 -7.099,-10.251 -12.726,-13.061 -0.305,-0.152 -0.613,-0.298 -0.923,-0.441 0.094,-0.165 0.194,-0.327 0.282,-0.496 1.272,-2.444 1.72,-5.204 1.018,-7.893 -0.748,-2.861 -2.607,-5.266 -4.801,-7.19 -0.739,-0.649 -1.548,-1.276 -2.409,-1.832 0.21,-0.88 0.33,-1.787 0.342,-2.711 0.051,-3.811 -1.584,-7.419 -4.067,-10.249 -2.392,-2.725 -5.394,-4.807 -8.275,-6.971 -0.12,-0.09 -0.235,-0.185 -0.354,-0.276 -1.196,-0.701 -2.385,-1.414 -3.537,-2.186 -2.499,-1.674 -4.995,-3.609 -6.316,-6.389 -1.1,-2.315 -1.242,-4.933 -0.479,-7.368 -0.019,0.017 -0.04,0.03 -0.06,0.047 -2.532,2.248 -2.981,5.986 -2.655,9.172 0.165,1.611 0.537,3.244 1.166,4.739 0.633,1.505 1.776,2.823 2.815,4.06 1.25,1.487 2.558,2.924 3.77,4.442 1.112,1.392 2.19,2.859 2.888,4.51 0.588,1.39 0.804,2.842 0.372,4.307 -0.368,1.248 -1.004,2.4 -1.866,3.374 -1.813,2.049 -4.462,3.17 -7.065,3.818 -3.087,0.768 -6.309,0.96 -9.48,0.934 -6.016,-0.051 -12.061,-0.876 -17.968,-1.98 -5.314,-0.993 -10.754,-2.352 -15.7,-4.651 2.621,1.831 5.323,3.544 8.141,5.059 4.989,2.681 10.361,4.795 15.922,5.921 3.215,0.651 6.461,1.133 9.685,1.732 2.774,0.515 5.518,1.162 8.237,1.917 2.241,0.621 4.525,1.4 6.196,3.09 1.083,1.095 1.799,2.529 1.61,4.097 -0.182,1.51 -1.059,2.836 -2.055,3.944 -1.214,1.352 -2.688,2.471 -4.203,3.463 -2.966,1.941 -6.18,3.384 -9.567,4.411 -5.895,1.788 -12.067,2.504 -18.21,2.641 -6.161,0.137 -12.317,-0.3 -18.45,-0.846 -5.402,-0.481 -10.844,-1.16 -16.123,-2.425 -2.616,-0.627 -5.215,-1.422 -7.704,-2.465 4.305,2.683 8.832,4.985 13.674,6.56 6.57,2.137 13.487,3.135 20.341,3.822 3.48,0.349 6.969,0.609 10.457,0.866 3.448,0.255 6.892,0.568 10.343,0.766 3.566,0.205 7.14,0.412 10.667,1.001 2.325,0.388 4.898,0.557 7.023,1.655 1.669,0.863 2.662,2.467 2.718,4.339 0.039,1.314 -0.487,2.538 -1.296,3.552 -2.044,2.562 -5.454,3.946 -8.454,5.004 -3.331,1.175 -6.788,1.984 -10.255,2.638 -4.217,0.796 -8.476,1.421 -12.747,1.826 -2.339,0.222 -4.685,0.369 -7.033,0.449 2.207,0.173 4.417,0.313 6.63,0.41 8.269,0.363 16.489,-0.066 24.74,-0.605 7.901,-0.516 15.821,-1.211 23.592,-2.786 3.848,-0.78 7.653,-1.782 11.355,-3.093 2.921,-1.035 6.126,-2.082 8.573,-4.049 5.511,-4.434 4.321,-12.699 2.221,-18.603 z"
   id="path52" />

		</g>

	</g>

	<g
   id="g66">
		<path
   style="fill:#d8499a"
   d="m 94.473,64.408 v 0 c -0.441,-0.79 -0.155,-1.797 0.635,-2.237 l 5.937,-3.311 c 0.79,-0.44 1.797,-0.155 2.237,0.635 v 0 c 0.441,0.79 0.155,1.797 -0.635,2.237 l -5.937,3.311 c -0.789,0.441 -1.796,0.155 -2.237,-0.635 z"
   id="path53" />

		<path
   style="fill:#a0dae1"
   d="m 117.147,59.336 v 0 c -0.904,0 -1.645,-0.74 -1.645,-1.645 v -6.798 c 0,-0.904 0.74,-1.645 1.645,-1.645 v 0 c 0.905,0 1.645,0.74 1.645,1.645 v 6.798 c 0,0.905 -0.74,1.645 -1.645,1.645 z"
   id="path54" />

		<path
   style="fill:#5b5ba8"
   d="m 97.274,25.113 v 0 c 0.68,-0.597 1.724,-0.53 2.321,0.15 l 4.486,5.107 c 0.597,0.68 0.529,1.724 -0.15,2.321 v 0 c -0.679,0.597 -1.724,0.529 -2.321,-0.15 l -4.487,-5.107 c -0.596,-0.68 -0.528,-1.724 0.151,-2.321 z"
   id="path55" />

		<path
   style="fill:#f15b29"
   d="m 132.143,80.206 v 0 c 0.86,0.281 1.333,1.214 1.053,2.074 l -2.111,6.462 c -0.281,0.86 -1.214,1.334 -2.074,1.053 v 0 c -0.86,-0.281 -1.334,-1.214 -1.053,-2.074 l 2.111,-6.462 c 0.281,-0.86 1.214,-1.334 2.074,-1.053 z"
   id="path56" />

		<path
   style="fill:#fee046"
   d="m 97.746,76.791 v 0 c 0.813,-0.396 1.803,-0.056 2.199,0.757 l 2.979,6.11 c 0.396,0.813 0.056,1.803 -0.757,2.199 v 0 c -0.813,0.396 -1.803,0.056 -2.199,-0.757 l -2.979,-6.11 c -0.397,-0.813 -0.056,-1.802 0.757,-2.199 z"
   id="path57" />

		<path
   style="fill:#a0dae1"
   d="m 15.324,69.693 v 0 c 0.903,0.058 1.594,0.844 1.536,1.746 l -0.434,6.784 c -0.058,0.903 -0.844,1.594 -1.746,1.536 v 0 c -0.903,-0.058 -1.594,-0.844 -1.536,-1.746 l 0.434,-6.784 c 0.058,-0.902 0.843,-1.593 1.746,-1.536 z"
   id="path58" />

		<path
   style="fill:#a0dae1"
   d="m 15.324,69.693 v 0 c 0.903,0.058 1.594,0.844 1.536,1.746 l -0.434,6.784 c -0.058,0.903 -0.844,1.594 -1.746,1.536 v 0 c -0.903,-0.058 -1.594,-0.844 -1.536,-1.746 l 0.434,-6.784 c 0.058,-0.902 0.843,-1.593 1.746,-1.536 z"
   id="path59" />

		<path
   style="fill:#f9ed3a"
   d="m 50.322,86.839 v 0 c 0.111,0.898 -0.533,1.723 -1.431,1.834 l -6.747,0.832 c -0.898,0.111 -1.723,-0.533 -1.833,-1.431 v 0 c -0.111,-0.898 0.533,-1.723 1.431,-1.833 l 6.746,-0.832 c 0.898,-0.111 1.723,0.533 1.834,1.43 z"
   id="path60" />

		<path
   style="fill:#d8499a"
   d="m 73.379,100.389 v 0 c -0.904,-0.04 -1.61,-0.812 -1.57,-1.716 l 0.302,-6.791 c 0.04,-0.904 0.812,-1.61 1.716,-1.57 v 0 c 0.904,0.04 1.61,0.812 1.57,1.716 l -0.302,6.791 c -0.04,0.904 -0.813,1.61 -1.716,1.57 z"
   id="path61" />

		<path
   style="fill:#5b5ba8"
   d="m 25.473,51.545 v 0 c 0.175,0.888 -0.408,1.757 -1.295,1.932 l -6.669,1.317 c -0.887,0.175 -1.757,-0.408 -1.932,-1.295 v 0 c -0.175,-0.888 0.408,-1.757 1.295,-1.932 l 6.669,-1.317 c 0.887,-0.175 1.757,0.407 1.932,1.295 z"
   id="path62" />

		<path
   style="fill:#f15b29"
   d="m 42.75,30.482 v 0 c -0.84,-0.335 -1.253,-1.297 -0.918,-2.137 l 2.519,-6.313 c 0.335,-0.84 1.297,-1.253 2.137,-0.918 v 0 c 0.84,0.335 1.253,1.297 0.918,2.137 l -2.519,6.313 c -0.336,0.84 -1.297,1.253 -2.137,0.918 z"
   id="path63" />

		<path
   style="fill:#fee046"
   d="m 65.165,55.885 v 0 c -0.837,0.344 -1.802,-0.06 -2.146,-0.896 l -2.583,-6.288 c -0.344,-0.837 0.06,-1.803 0.896,-2.146 v 0 c 0.837,-0.344 1.802,0.06 2.146,0.896 l 2.583,6.288 c 0.344,0.837 -0.059,1.802 -0.896,2.146 z"
   id="path64" />

		<path
   style="fill:#89c769"
   d="m 48.705,71.361 v 0 c -0.154,-0.891 0.45,-1.746 1.341,-1.9 l 6.699,-1.154 c 0.891,-0.154 1.746,0.45 1.9,1.341 v 0 c 0.154,0.891 -0.45,1.746 -1.341,1.9 l -6.699,1.154 c -0.891,0.154 -1.746,-0.45 -1.9,-1.341 z"
   id="path65" />

		<path
   style="fill:#a0dae1"
   d="m 78.284,19.388 v 0 c 0.783,0.452 1.054,1.463 0.602,2.247 l -3.399,5.887 c -0.452,0.783 -1.463,1.054 -2.246,0.602 v 0 c -0.783,-0.452 -1.054,-1.463 -0.602,-2.247 l 3.399,-5.887 c 0.451,-0.784 1.462,-1.055 2.246,-0.602 z"
   id="path66" />

	</g>

</g>
  </g>
</svg>
