<?xml version="1.0" encoding="UTF-8" standalone="no"?>
<!-- Created with Inkscape (http://www.inkscape.org/) -->

<svg
   width="66mm"
   height="44mm"
   viewBox="0 0 66 44"
   version="1.1"
   id="svg1"
   inkscape:version="1.4.3 (0d15f75, 2025-12-25)"
   sodipodi:docname="dragonfly.svg"
   xmlns:inkscape="http://www.inkscape.org/namespaces/inkscape"
   xmlns:sodipodi="http://sodipodi.sourceforge.net/DTD/sodipodi-0.dtd"
   xmlns="http://www.w3.org/2000/svg"
   xmlns:svg="http://www.w3.org/2000/svg">
  <sodipodi:namedview
     id="namedview1"
     pagecolor="#ffffff"
     bordercolor="#000000"
     borderopacity="0.25"
     inkscape:showpageshadow="2"
     inkscape:pageopacity="0.0"
     inkscape:pagecheckerboard="0"
     inkscape:deskcolor="#d1d1d1"
     inkscape:document-units="mm"
     inkscape:zoom="2.9041807"
     inkscape:cx="110.18598"
     inkscape:cy="127.23038"
     inkscape:window-width="1920"
     inkscape:window-height="1017"
     inkscape:window-x="-8"
     inkscape:window-y="-8"
     inkscape:window-maximized="1"
     inkscape:current-layer="g308" />
  <defs
     id="defs1" />
  <g
     inkscape:label="Layer 1"
     inkscape:groupmode="layer"
     id="layer1">
    <g
       id="g308"
       inkscape:label="dragonfly"
       transform="matrix(0.26458333,0,0,0.26458333,-33.942062,-43.585343)">
      <path
         id="path111"
         d="m 1696.25,1744.94 c -1.48,1.46 -1.48,3.87 0,5.37 l 40.23,40.23 c 1.49,1.47 3.89,1.47 5.38,0 v 0 c 1.49,-1.48 1.49,-3.92 0,-5.37 l -40.22,-40.26 c -1.49,-1.48 -3.9,-1.48 -5.39,0.03 v 0"
         style="fill:#2f3133;fill-opacity:1;fill-rule:nonzero;stroke:none"
         transform="matrix(0.13333333,0,0,-0.13333333,0,481.08)" />
      <path
         id="path112"
         d="m 1762.04,1902.15 c 1.54,4.49 6.47,6.88 10.96,5.33 v 0 c 4.5,-1.56 6.89,-6.46 5.33,-10.97 l -33.78,-107.42 c -1.53,-4.52 -6.47,-6.91 -10.97,-5.35 v 0 c -4.49,1.54 -6.9,6.47 -5.34,10.95 l 33.8,107.46"
         style="fill:#2f3133;fill-opacity:1;fill-rule:nonzero;stroke:none"
         transform="matrix(0.13333333,0,0,-0.13333333,0,481.08)" />
      <path
         id="path113"
         d="m 1767.33,1892.31 c 4.81,-4.32 12.23,-3.89 16.52,0.91 l 59.57,66.65 c 4.32,4.81 3.88,12.25 -0.93,16.55 v 0 c -4.83,4.31 -12.25,3.91 -16.57,-0.91 l -59.54,-66.66 c -4.31,-4.81 -3.91,-12.22 0.95,-16.54 v 0"
         style="fill:#2f3133;fill-opacity:1;fill-rule:nonzero;stroke:none"
         transform="matrix(0.13333333,0,0,-0.13333333,0,481.08)" />
      <path
         id="path114"
         d="m 2099.15,1744.94 c 1.49,1.46 1.5,3.87 0,5.37 l -40.23,40.23 c -1.47,1.47 -3.9,1.47 -5.39,0 v 0 c -1.49,-1.48 -1.49,-3.92 0,-5.37 l 40.23,-40.26 c 1.52,-1.48 3.92,-1.48 5.39,0.03 v 0"
         style="fill:#2f3133;fill-opacity:1;fill-rule:nonzero;stroke:none"
         transform="matrix(0.13333333,0,0,-0.13333333,0,481.08)" />
      <path
         id="path115"
         d="m 2033.37,1902.15 c -1.56,4.49 -6.47,6.88 -10.95,5.33 v 0 c -4.55,-1.56 -6.91,-6.46 -5.36,-10.97 l 33.79,-107.42 c 1.55,-4.52 6.47,-6.91 10.97,-5.35 v 0 c 4.5,1.54 6.86,6.47 5.33,10.95 l -33.78,107.46"
         style="fill:#2f3133;fill-opacity:1;fill-rule:nonzero;stroke:none"
         transform="matrix(0.13333333,0,0,-0.13333333,0,481.08)" />
      <path
         id="path116"
         d="m 2028.08,1892.31 c -4.82,-4.32 -12.22,-3.89 -16.56,0.91 l -59.55,66.65 c -4.31,4.81 -3.91,12.25 0.95,16.55 v 0 c 4.81,4.31 12.23,3.91 16.55,-0.91 l 59.56,-66.66 c 4.28,-4.81 3.87,-12.22 -0.95,-16.54 v 0"
         style="fill:#2f3133;fill-opacity:1;fill-rule:nonzero;stroke:none"
         transform="matrix(0.13333333,0,0,-0.13333333,0,481.08)" />
      <path
         id="path117"
         d="m 1928.75,1161.53 c 0,-17.16 -13.91,-31.04 -31.07,-31.04 v 0 c -17.14,0 -31.04,13.88 -31.04,31.04 v 232.99 c 0,17.16 13.9,31.04 31.04,31.04 v 0 c 17.16,0 31.07,-13.88 31.07,-31.04 v -232.99"
         style="fill:#1c75bc;fill-opacity:1;fill-rule:nonzero;stroke:none"
         transform="matrix(0.13333333,0,0,-0.13333333,0,481.08)" />
      <path
         id="path118"
         d="m 1897.68,1425.56 v 0 -295.07 c 17.16,0 31.07,13.88 31.07,31.04 v 232.99 c 0,17.16 -13.91,31.04 -31.07,31.04"
         style="fill:#0c69a8;fill-opacity:1;fill-rule:nonzero;stroke:none"
         transform="matrix(0.13333333,0,0,-0.13333333,0,481.08)" />
      <path
         id="path119"
         d="m 1928.75,1373.49 c 0,-17.14 -13.91,-31.07 -31.07,-31.07 v 0 c -17.14,0 -31.04,13.93 -31.04,31.07 v 232.99 c 0,17.16 13.9,31.07 31.04,31.07 v 0 c 17.16,0 31.07,-13.91 31.07,-31.07 v -232.99"
         style="fill:#2087c8;fill-opacity:1;fill-rule:nonzero;stroke:none"
         transform="matrix(0.13333333,0,0,-0.13333333,0,481.08)" />
      <path
         id="path120"
         d="m 1897.68,1637.55 v 0 -295.13 c 17.16,0 31.07,13.93 31.07,31.07 v 232.99 c 0,17.16 -13.91,31.07 -31.07,31.07"
         style="fill:#1c75bc;fill-opacity:1;fill-rule:nonzero;stroke:none"
         transform="matrix(0.13333333,0,0,-0.13333333,0,481.08)" />
      <path
         id="path121"
         d="m 1928.75,1585.42 c 0,-17.14 -13.91,-31.02 -31.07,-31.02 v 0 c -17.14,0 -31.04,13.88 -31.04,31.02 v 233 c 0,17.16 13.9,31.09 31.04,31.09 v 0 c 17.16,0 31.07,-13.93 31.07,-31.09 v -233"
         style="fill:#2398d5;fill-opacity:1;fill-rule:nonzero;stroke:none"
         transform="matrix(0.13333333,0,0,-0.13333333,0,481.08)" />
      <path
         id="path122"
         d="m 1897.68,1849.51 v 0 -295.11 c 17.16,0 31.07,13.88 31.07,31.02 v 233 c 0,17.16 -13.91,31.09 -31.07,31.09"
         style="fill:#2087c8;fill-opacity:1;fill-rule:nonzero;stroke:none"
         transform="matrix(0.13333333,0,0,-0.13333333,0,481.08)" />
      <path
         id="path123"
         d="m 1928.75,1797.39 c 0,-17.15 -13.91,-31.07 -31.07,-31.07 v 0 c -17.14,0 -31.04,13.92 -31.04,31.07 v 232.99 c 0,17.16 13.9,31.06 31.04,31.06 v 0 c 17.16,0 31.07,-13.9 31.07,-31.06 v -232.99"
         style="fill:#27aae1;fill-opacity:1;fill-rule:nonzero;stroke:none"
         transform="matrix(0.13333333,0,0,-0.13333333,0,481.08)" />
      <path
         id="path124"
         d="m 1897.68,2061.44 v 0 -295.12 c 17.16,0 31.07,13.92 31.07,31.07 v 232.99 c 0,17.16 -13.91,31.06 -31.07,31.06"
         style="fill:#2398d5;fill-opacity:1;fill-rule:nonzero;stroke:none"
         transform="matrix(0.13333333,0,0,-0.13333333,0,481.08)" />
      <path
         id="path125"
         d="m 1967.24,1927.78 c 0,-38.4 -31.13,-69.54 -69.56,-69.54 v 0 c -38.38,0 -69.54,31.14 -69.54,69.54 v 267.3 c 0,38.4 31.16,69.56 69.54,69.56 v 0 c 38.43,0 69.56,-31.16 69.56,-69.56 v -267.3"
         style="fill:#1db295;fill-opacity:1;fill-rule:nonzero;stroke:none"
         transform="matrix(0.13333333,0,0,-0.13333333,0,481.08)" />
      <path
         id="path126"
         d="m 1897.68,2264.64 v 0 -406.4 c 38.43,0 69.56,31.14 69.56,69.54 v 267.3 c 0,38.4 -31.13,69.56 -69.56,69.56"
         style="fill:#129e83;fill-opacity:1;fill-rule:nonzero;stroke:none"
         transform="matrix(0.13333333,0,0,-0.13333333,0,481.08)" />
      <path
         id="path127"
         d="m 1897.68,2264.64 c -27.76,0 -50.32,22.57 -50.32,50.33 0,22.02 14.2,41.26 35.4,47.88 2.32,0.74 4.82,-0.57 5.57,-2.92 0.71,-2.36 -0.59,-4.83 -2.92,-5.56 -17.47,-5.43 -29.21,-21.28 -29.21,-39.4 0,-22.85 18.63,-41.45 41.48,-41.45 22.9,0 41.5,18.6 41.5,41.45 0,18.12 -11.73,33.97 -29.2,39.4 -2.33,0.73 -3.64,3.23 -2.9,5.56 0.7,2.35 3.23,3.66 5.57,2.92 21.17,-6.62 35.41,-25.86 35.41,-47.88 0,-27.76 -22.62,-50.33 -50.38,-50.33"
         style="fill:#2f3133;fill-opacity:1;fill-rule:nonzero;stroke:none"
         transform="matrix(0.13333333,0,0,-0.13333333,0,481.08)" />
      <path
         id="path128"
         d="m 1990.21,2280.41 c 0,-23.99 -19.42,-43.43 -43.38,-43.43 h -98.25 c -23.98,0 -43.43,19.44 -43.43,43.43 v 0 c 0,23.96 19.45,43.4 43.43,43.4 h 98.25 c 23.96,0 43.38,-19.44 43.38,-43.4 v 0"
         style="fill:#ceeadb;fill-opacity:1;fill-rule:nonzero;stroke:none"
         transform="matrix(0.13333333,0,0,-0.13333333,0,481.08)" />
      <path
         id="path129"
         d="m 1946.83,2323.81 h -49.15 v -86.83 h 49.15 c 23.96,0 43.38,19.44 43.38,43.43 0,23.96 -19.42,43.4 -43.38,43.4"
         style="fill:#ced3bc;fill-opacity:1;fill-rule:nonzero;stroke:none"
         transform="matrix(0.13333333,0,0,-0.13333333,0,481.08)" />
      <path
         id="path130"
         d="m 1805.15,2280.41 c 0,-14.41 7.03,-27.1 17.8,-34.99 33.38,3.59 59.34,31.83 59.34,66.13 0,4.19 -0.44,8.29 -1.18,12.26 h -32.53 c -23.98,0 -43.43,-19.44 -43.43,-43.4"
         style="fill:#2f3133;fill-opacity:1;fill-rule:nonzero;stroke:none"
         transform="matrix(0.13333333,0,0,-0.13333333,0,481.08)" />
      <path
         id="path131"
         d="m 1946.83,2323.81 h -32.53 c -0.75,-3.97 -1.18,-8.07 -1.18,-12.26 0,-34.3 25.96,-62.54 59.3,-66.13 10.79,7.89 17.79,20.58 17.79,34.99 0,23.96 -19.42,43.4 -43.38,43.4"
         style="fill:#2f3133;fill-opacity:1;fill-rule:nonzero;stroke:none"
         transform="matrix(0.13333333,0,0,-0.13333333,0,481.08)" />
      <path
         id="path132"
         d="m 2089.16,2371.5 c 1.48,-1.49 1.48,-3.89 0,-5.38 l -40.27,-40.23 c -1.45,-1.48 -3.88,-1.48 -5.37,0 v 0 c -1.47,1.49 -1.47,3.89 0,5.39 l 40.22,40.22 c 1.49,1.48 3.93,1.48 5.42,0 v 0"
         style="fill:#2f3133;fill-opacity:1;fill-rule:nonzero;stroke:none"
         transform="matrix(0.13333333,0,0,-0.13333333,0,481.08)" />
      <path
         id="path133"
         d="m 2056.39,2243.06 c 0,-4.77 -3.85,-8.63 -8.63,-8.63 v 0 c -4.77,0 -8.62,3.86 -8.62,8.63 v 79.41 c 0,4.76 3.85,8.64 8.62,8.64 v 0 c 4.78,0 8.63,-3.88 8.63,-8.64 v -79.41"
         style="fill:#2f3133;fill-opacity:1;fill-rule:nonzero;stroke:none"
         transform="matrix(0.13333333,0,0,-0.13333333,0,481.08)" />
      <path
         id="path134"
         d="m 2055.95,2240.89 c 1.78,-6.23 -1.85,-12.72 -8.09,-14.49 l -85.97,-24.41 c -6.21,-1.75 -12.7,1.84 -14.47,8.07 v 0 c -1.77,6.24 1.87,12.75 8.09,14.49 l 85.96,24.41 c 6.2,1.8 12.7,-1.83 14.48,-8.07 v 0"
         style="fill:#2f3133;fill-opacity:1;fill-rule:nonzero;stroke:none"
         transform="matrix(0.13333333,0,0,-0.13333333,0,481.08)" />
      <path
         id="path135"
         d="m 1706.24,2371.5 c -1.46,-1.49 -1.46,-3.89 0,-5.38 l 40.23,-40.23 c 1.5,-1.48 3.91,-1.48 5.4,0 v 0 c 1.49,1.49 1.49,3.89 0,5.39 l -40.23,40.22 c -1.48,1.48 -3.89,1.48 -5.4,0 v 0"
         style="fill:#2f3133;fill-opacity:1;fill-rule:nonzero;stroke:none"
         transform="matrix(0.13333333,0,0,-0.13333333,0,481.08)" />
      <path
         id="path136"
         d="m 1739,2243.06 c 0,-4.77 3.88,-8.63 8.63,-8.63 v 0 c 4.76,0 8.61,3.86 8.61,8.63 v 79.41 c 0,4.76 -3.85,8.64 -8.61,8.64 v 0 c -4.75,0 -8.63,-3.88 -8.63,-8.64 v -79.41"
         style="fill:#2f3133;fill-opacity:1;fill-rule:nonzero;stroke:none"
         transform="matrix(0.13333333,0,0,-0.13333333,0,481.08)" />
      <path
         id="path137"
         d="m 1739.45,2240.89 c -1.77,-6.23 1.85,-12.72 8.08,-14.49 l 85.95,-24.41 c 6.23,-1.75 12.74,1.84 14.49,8.07 v 0 c 1.77,6.24 -1.85,12.75 -8.07,14.49 l -85.98,24.41 c -6.23,1.8 -12.7,-1.83 -14.47,-8.07 v 0"
         style="fill:#2f3133;fill-opacity:1;fill-rule:nonzero;stroke:none"
         transform="matrix(0.13333333,0,0,-0.13333333,0,481.08)" />
      <path
         id="path142"
         d="m 1912.18,2130.61 c 0,-8.01 -6.49,-14.51 -14.5,-14.51 v 0 c -7.98,0 -14.44,6.5 -14.44,14.51 v 21.19 c 0,7.99 6.46,14.48 14.44,14.48 v 0 c 8.01,0 14.5,-6.49 14.5,-14.48 v -21.19"
         style="fill:#8dc63f;fill-opacity:1;fill-rule:nonzero;stroke:none"
         transform="matrix(0.13333333,0,0,-0.13333333,0,481.08)" />
      <path
         id="path143"
         d="m 1924.21,2094.45 c 0,-6.15 -4.96,-11.1 -11.09,-11.1 h -30.85 c -6.12,0 -11.09,4.95 -11.09,11.1 v 0 c 0,6.1 4.97,11.08 11.09,11.08 h 30.85 c 6.13,0 11.09,-4.98 11.09,-11.08 v 0"
         style="fill:#8dc63f;fill-opacity:1;fill-rule:nonzero;stroke:none"
         transform="matrix(0.13333333,0,0,-0.13333333,0,481.08)" />
      <path
         id="path144"
         d="m 1895.27,2188.81 c 0,-7.73 -6.23,-13.97 -13.97,-13.97 h -15.44 c -7.7,0 -13.97,6.24 -13.97,13.97 v 0 c 0,7.72 6.27,13.98 13.97,13.98 h 15.44 c 7.74,0 13.97,-6.26 13.97,-13.98 v 0"
         style="fill:#8dc63f;fill-opacity:1;fill-rule:nonzero;stroke:none"
         transform="matrix(0.13333333,0,0,-0.13333333,0,481.08)" />
      <path
         id="path145"
         d="m 1874.69,2117.28 c 0,-6.27 -5.1,-11.38 -11.4,-11.38 v 0 c -6.31,0 -11.4,5.11 -11.4,11.38 v 5.18 c 0,6.3 5.09,11.4 11.4,11.4 v 0 c 6.3,0 11.4,-5.1 11.4,-11.4 v -5.18"
         style="fill:#8dc63f;fill-opacity:1;fill-rule:nonzero;stroke:none"
         transform="matrix(0.13333333,0,0,-0.13333333,0,481.08)" />
      <path
         id="path146"
         d="m 1874.69,2152.46 c 0,-6.28 -5.1,-11.38 -11.4,-11.38 v 0 c -6.31,0 -11.4,5.1 -11.4,11.38 v 5.2 c 0,6.28 5.09,11.37 11.4,11.37 v 0 c 6.3,0 11.4,-5.09 11.4,-11.37 v -5.2"
         style="fill:#8dc63f;fill-opacity:1;fill-rule:nonzero;stroke:none"
         transform="matrix(0.13333333,0,0,-0.13333333,0,481.08)" />
      <path
         id="path147"
         d="m 1900.09,2188.81 c 0,-7.73 6.28,-13.97 14,-13.97 h 15.43 c 7.72,0 13.98,6.24 13.98,13.97 v 0 c 0,7.72 -6.26,13.98 -13.98,13.98 h -15.43 c -7.72,0 -14,-6.26 -14,-13.98 v 0"
         style="fill:#8dc63f;fill-opacity:1;fill-rule:nonzero;stroke:none"
         transform="matrix(0.13333333,0,0,-0.13333333,0,481.08)" />
      <path
         id="path148"
         d="m 1920.72,2117.28 c 0,-6.27 5.1,-11.38 11.38,-11.38 v 0 c 6.3,0 11.4,5.11 11.4,11.38 v 5.18 c 0,6.3 -5.1,11.4 -11.4,11.4 v 0 c -6.28,0 -11.38,-5.1 -11.38,-11.4 v -5.18"
         style="fill:#8dc63f;fill-opacity:1;fill-rule:nonzero;stroke:none"
         transform="matrix(0.13333333,0,0,-0.13333333,0,481.08)" />
      <path
         id="path149"
         d="m 1920.72,2152.46 c 0,-6.28 5.1,-11.38 11.38,-11.38 v 0 c 6.3,0 11.4,5.1 11.4,11.38 v 5.2 c 0,6.28 -5.1,11.37 -11.4,11.37 v 0 c -6.28,0 -11.38,-5.09 -11.38,-11.37 v -5.2"
         style="fill:#8dc63f;fill-opacity:1;fill-rule:nonzero;stroke:none"
         transform="matrix(0.13333333,0,0,-0.13333333,0,481.08)" />
      <path
         id="path150"
         d="m 1912.18,1930 c 0,-8 -6.49,-14.43 -14.5,-14.43 v 0 c -7.98,0 -14.44,6.43 -14.44,14.43 v 51.05 c 0,7.96 6.46,14.43 14.44,14.43 v 0 c 8.01,0 14.5,-6.47 14.5,-14.43 V 1930"
         style="fill:#8dc63f;fill-opacity:1;fill-rule:nonzero;stroke:none"
         transform="matrix(0.13333333,0,0,-0.13333333,0,481.08)" />
      <path
         id="path151"
         d="m 1924.21,1893.83 c 0,-6.13 -4.96,-11.08 -11.09,-11.08 h -30.85 c -6.12,0 -11.09,4.95 -11.09,11.08 v 0 c 0,6.15 4.97,11.1 11.09,11.1 h 30.85 c 6.13,0 11.09,-4.95 11.09,-11.1 v 0"
         style="fill:#8dc63f;fill-opacity:1;fill-rule:nonzero;stroke:none"
         transform="matrix(0.13333333,0,0,-0.13333333,0,481.08)" />
      <path
         id="path152"
         d="m 1895.27,2055.66 c 0,-7.72 -6.23,-13.99 -13.97,-13.99 h -15.44 c -7.7,0 -13.97,6.27 -13.97,13.99 v 0 c 0,7.72 6.27,14 13.97,14 h 15.44 c 7.74,0 13.97,-6.28 13.97,-14 v 0"
         style="fill:#8dc63f;fill-opacity:1;fill-rule:nonzero;stroke:none"
         transform="matrix(0.13333333,0,0,-0.13333333,0,481.08)" />
      <path
         id="path153"
         d="m 1895.27,2018.01 c 0,-7.72 -6.23,-13.98 -13.97,-13.98 h -15.44 c -7.7,0 -13.97,6.26 -13.97,13.98 v 0 c 0,7.74 6.27,14 13.97,14 h 15.44 c 7.74,0 13.97,-6.26 13.97,-14 v 0"
         style="fill:#8dc63f;fill-opacity:1;fill-rule:nonzero;stroke:none"
         transform="matrix(0.13333333,0,0,-0.13333333,0,481.08)" />
      <path
         id="path154"
         d="m 1943.5,2055.66 c 0,-7.72 -6.26,-13.99 -13.98,-13.99 h -15.43 c -7.72,0 -14,6.27 -14,13.99 v 0 c 0,7.72 6.28,14 14,14 h 15.43 c 7.72,0 13.98,-6.28 13.98,-14 v 0"
         style="fill:#8dc63f;fill-opacity:1;fill-rule:nonzero;stroke:none"
         transform="matrix(0.13333333,0,0,-0.13333333,0,481.08)" />
      <path
         id="path155"
         d="m 1874.69,1916.69 c 0,-6.3 -5.1,-11.39 -11.4,-11.39 v 0 c -6.31,0 -11.4,5.09 -11.4,11.39 v 5.17 c 0,6.3 5.09,11.4 11.4,11.4 v 0 c 6.3,0 11.4,-5.1 11.4,-11.4 v -5.17"
         style="fill:#8dc63f;fill-opacity:1;fill-rule:nonzero;stroke:none"
         transform="matrix(0.13333333,0,0,-0.13333333,0,481.08)" />
      <path
         id="path156"
         d="m 1874.69,1951.86 c 0,-6.28 -5.1,-11.37 -11.4,-11.37 v 0 c -6.31,0 -11.4,5.09 -11.4,11.37 v 34.98 c 0,6.34 5.09,11.38 11.4,11.38 v 0 c 6.3,0 11.4,-5.04 11.4,-11.38 v -34.98"
         style="fill:#8dc63f;fill-opacity:1;fill-rule:nonzero;stroke:none"
         transform="matrix(0.13333333,0,0,-0.13333333,0,481.08)" />
      <path
         id="path157"
         d="m 1900.09,2018.01 c 0,-7.72 6.28,-13.98 14,-13.98 h 15.43 c 7.72,0 13.98,6.26 13.98,13.98 v 0 c 0,7.74 -6.26,14 -13.98,14 h -15.43 c -7.72,0 -14,-6.26 -14,-14 v 0"
         style="fill:#8dc63f;fill-opacity:1;fill-rule:nonzero;stroke:none"
         transform="matrix(0.13333333,0,0,-0.13333333,0,481.08)" />
      <path
         id="path158"
         d="m 1920.72,1916.69 c 0,-6.3 5.1,-11.39 11.38,-11.39 v 0 c 6.3,0 11.4,5.09 11.4,11.39 v 5.17 c 0,6.3 -5.1,11.4 -11.4,11.4 v 0 c -6.28,0 -11.38,-5.1 -11.38,-11.4 v -5.17"
         style="fill:#8dc63f;fill-opacity:1;fill-rule:nonzero;stroke:none"
         transform="matrix(0.13333333,0,0,-0.13333333,0,481.08)" />
      <path
         id="path159"
         d="m 1920.72,1951.86 c 0,-6.28 5.1,-11.37 11.38,-11.37 v 0 c 6.3,0 11.4,5.09 11.4,11.37 v 34.98 c 0,6.34 -5.1,11.38 -11.4,11.38 v 0 c -6.28,0 -11.38,-5.04 -11.38,-11.38 v -34.98"
         style="fill:#8dc63f;fill-opacity:1;fill-rule:nonzero;stroke:none"
         transform="matrix(0.13333333,0,0,-0.13333333,0,481.08)" />
      <path
         id="path160"
         d="m 2033.37,1902.15 c -1.56,4.49 -6.47,6.88 -10.95,5.33 -4.55,-1.56 -6.91,-6.46 -5.36,-10.97 l 12.39,-39.35 c 8.17,-8.93 16.94,-17.71 26.35,-26.32 l -22.43,71.31"
         style="fill:#b2afa1;fill-opacity:1;fill-rule:nonzero;stroke:none"
         transform="matrix(0.13333333,0,0,-0.13333333,0,481.08)" />
      <path
         id="path140"
         d="m 2827.28,2113.47 c -55.85,-99.19 -225.62,-171.38 -426.38,-171.38 -246.23,0 -445.85,108.59 -445.85,242.48 h 817.18 c 41.14,0 75.25,-35.23 55.05,-71.1"
         style="fill:#ceeadb;fill-opacity:0.80000001;fill-rule:nonzero;stroke:none"
         transform="matrix(0.13333333,0,0,-0.13333333,0,481.08)" />
      <path
         id="path141"
         d="m 2771.05,1720.07 c -83.61,-77.34 -267.31,-93.96 -458.41,-32.36 -234.38,75.49 -391.07,240.03 -350.02,367.5 l 777.81,-250.64 c 39.17,-12.61 60.81,-56.57 30.62,-84.5"
         style="fill:#ceeadb;fill-opacity:0.80000001;fill-rule:nonzero;stroke:none"
         transform="matrix(0.13333333,0,0,-0.13333333,0,481.08)" />
      <path
         id="path138"
         d="m 968.125,2113.47 c 55.855,-99.19 225.625,-171.38 426.365,-171.38 246.27,0 445.87,108.59 445.87,242.48 h -817.21 c -41.146,0 -75.228,-35.23 -55.025,-71.1"
         style="fill:#ceeadb;fill-opacity:0.80000001;fill-rule:nonzero;stroke:none"
         transform="matrix(0.13333333,0,0,-0.13333333,0,481.08)" />
      <path
         id="path139"
         d="m 1024.36,1720.07 c 83.61,-77.34 267.3,-93.96 458.39,-32.36 234.4,75.49 391.09,240.03 350.02,367.5 l -777.82,-250.64 c -39.18,-12.61 -60.813,-56.57 -30.59,-84.5"
         style="fill:#ceeadb;fill-opacity:0.80000001;fill-rule:nonzero;stroke:none"
         transform="matrix(0.13333333,0,0,-0.13333333,0,481.08)" />
    </g>
  </g>
</svg>
