<?xml version="1.0" encoding="UTF-8" standalone="no"?>
<!-- Created with Inkscape (http://www.inkscape.org/) -->

<svg
   width="10mm"
   height="42.400002mm"
   viewBox="0 0 9.9999999 42.400001"
   version="1.1"
   id="svg1"
   inkscape:version="1.4.3 (0d15f75, 2025-12-25)"
   sodipodi:docname="earthworm.svg"
   xmlns:inkscape="http://www.inkscape.org/namespaces/inkscape"
   xmlns:sodipodi="http://sodipodi.sourceforge.net/DTD/sodipodi-0.dtd"
   xmlns="http://www.w3.org/2000/svg"
   xmlns:svg="http://www.w3.org/2000/svg">
  <sodipodi:namedview
     id="namedview1"
     pagecolor="#ffffff"
     bordercolor="#000000"
     borderopacity="0.25"
     inkscape:showpageshadow="2"
     inkscape:pageopacity="0.0"
     inkscape:pagecheckerboard="0"
     inkscape:deskcolor="#d1d1d1"
     inkscape:document-units="mm"
     inkscape:zoom="4.1071317"
     inkscape:cx="56.48711"
     inkscape:cy="93.861125"
     inkscape:window-width="1920"
     inkscape:window-height="1017"
     inkscape:window-x="-8"
     inkscape:window-y="-8"
     inkscape:window-maximized="1"
     inkscape:current-layer="svg1"
     showgrid="false" />
  <defs
     id="defs1" />
  <path
     style="fill:#1d262d;stroke-width:0.264583"
     d="m 4.6605991,41.051442 c 2.084355,-2.501562 2.514661,-5.955217 3.3488911,-8.992226 0.822253,-2.993608 2.0950148,-5.983098 1.804845,-9.073987 -0.139761,-1.488296 -0.63723,-2.898757 -1.288479,-4.251589 0.0072,-0.0044 0.01372,-0.0095 0.02094,-0.01387 0.102178,-0.07107 0.163639,-0.167882 0.204854,-0.278959 0.03932,-0.104369 0.02301,-0.222446 -0.03162,-0.319732 -0.711871,-1.267895 -1.367807,-2.519521 -2.0744391,-3.786297 -0.111129,-0.199064 -0.378105,-0.256128 -0.564073,-0.105331 -0.04578,0.03729 -0.106992,0.02808 -0.136761,-0.02302 -0.935067,-1.598479 -1.786506,-3.242052 -2.197733,-5.0377336 -0.565194,-2.4693826 -0.123852,-5.3443742 1.784453,-7.0102117 0.38089,-0.3326654 0.826,-0.6288017 1.022655,-1.0993049 0.232928,-0.55733445 -0.241526,-1.13468785 -0.839654,-1.05106475 -1.96125,0.2744607 -3.647293,1.79810965 -4.407433,3.64299365 -0.80522997,1.9539531 -0.68997897,4.1919114 -0.08606,6.2173277 0.566321,1.8995156 1.535067,3.6484216 2.539168,5.3600916 0.02042,0.03502 0.0048,0.07181 -0.03128,0.08996 -0.192162,0.0967 -0.26229,0.336394 -0.151543,0.527214 0.01428,0.02432 0.02809,0.04941 0.04171,0.07426 0.664726,1.207283 1.408781,2.744594 2.088658,4.0138 0.116185,0.216834 0.389142,0.294857 0.607478,0.170439 0.03724,-0.02112 0.08478,-0.005 0.101555,0.03421 0.151538,0.350974 0.295413,0.705511 0.422815,1.066775 1.0471391,2.971533 0.4297471,6.1932 -0.430864,9.224034 -0.780349,2.748142 -1.078005,5.554288 -2.016256,8.255286 -0.121978,0.350981 -0.261175,0.701957 -0.484186,0.999426 -0.729646,0.972862 -1.794925,0.808228 -2.120832,-0.333761 -0.84582897,-2.963299 0.458177,-7.038839 2.27593,-9.527494 0.38409,-0.525908 0.847326,-1.141426 0.570063,-1.768171 -0.210294,-0.475586 -0.75734,-0.703826 -1.264352,-0.588961 -0.934691,0.211787 -1.3809,1.05911 -1.721023,1.866588 -1.22823797,2.915776 -1.78613797,6.111623 -1.61906497,9.270993 0.08063,1.523835 0.668091,3.966838 2.69856897,3.714833 0.753218,-0.09354 1.38221,-0.618889 1.874253,-1.196619 0.02048,-0.02331 0.03968,-0.04675 0.0587,-0.07002 z"
     id="path2" />
  <g
     inkscape:label="Layer 1"
     inkscape:groupmode="layer"
     id="layer1">
    <g
       id="g1" />
  </g>
</svg>
