<?xml version="1.0" encoding="UTF-8" standalone="no"?>
<!-- Created with Inkscape (http://www.inkscape.org/) -->

<svg
   width="17.700001mm"
   height="120mm"
   viewBox="0 0 17.700001 120"
   version="1.1"
   id="svg1"
   inkscape:version="1.4.3 (0d15f75, 2025-12-25)"
   sodipodi:docname="earthworm.svg"
   xmlns:inkscape="http://www.inkscape.org/namespaces/inkscape"
   xmlns:sodipodi="http://sodipodi.sourceforge.net/DTD/sodipodi-0.dtd"
   xmlns="http://www.w3.org/2000/svg"
   xmlns:svg="http://www.w3.org/2000/svg">
  <sodipodi:namedview
     id="namedview1"
     pagecolor="#ffffff"
     bordercolor="#000000"
     borderopacity="0.25"
     inkscape:showpageshadow="2"
     inkscape:pageopacity="0.0"
     inkscape:pagecheckerboard="0"
     inkscape:deskcolor="#d1d1d1"
     inkscape:document-units="mm"
     inkscape:zoom="1.0267829"
     inkscape:cx="-159.72218"
     inkscape:cy="209.87884"
     inkscape:window-width="1920"
     inkscape:window-height="1017"
     inkscape:window-x="-8"
     inkscape:window-y="-8"
     inkscape:window-maximized="1"
     inkscape:current-layer="svg1"
     showgrid="false" />
  <defs
     id="defs1" />
  <g
     id="g710"
     transform="matrix(-2.9668383,1.5774959,1.5774959,2.9668383,65.360669,-99.645412)">
		<g
   id="g705">
			<g
   id="g603">
				<path
   style="fill:#e86b52"
   d="m 37.576,32.063 c 0.03,-0.017 0.06,-0.033 0.09,-0.05 -0.069,-0.062 -0.141,-0.124 -0.211,-0.186 -0.037,0.019 -0.073,0.037 -0.109,0.056 -0.807,0.42 -1.496,0.912 -2.188,1.454 0.084,0.08 0.169,0.161 0.255,0.241 0.678,-0.559 1.355,-1.07 2.163,-1.515 z"
   id="path502" />

				<path
   style="fill:#e86b52"
   d="m 33.979,28.593 c 0.08,-0.044 0.162,-0.09 0.244,-0.132 -0.054,-0.075 -0.106,-0.15 -0.157,-0.224 -0.057,0.029 -0.114,0.058 -0.17,0.087 -0.267,0.139 -0.529,0.284 -0.789,0.441 -0.407,0.246 -0.793,0.534 -1.168,0.817 0.064,0.09 0.129,0.181 0.195,0.27 0.583,-0.458 1.166,-0.881 1.845,-1.259 z"
   id="path503" />

				<path
   style="fill:#e86b52"
   d="m 33.979,28.593 c 0.08,-0.044 0.162,-0.09 0.244,-0.132 -0.054,-0.075 -0.106,-0.15 -0.157,-0.224 -0.057,0.029 -0.114,0.058 -0.17,0.087 -0.267,0.139 -0.529,0.284 -0.789,0.441 -0.407,0.246 -0.793,0.534 -1.168,0.817 0.064,0.09 0.129,0.181 0.195,0.27 0.583,-0.458 1.166,-0.881 1.845,-1.259 z"
   id="path504" />

				<path
   style="fill:#e86b52"
   d="m 32.886,28.507 c 0.251,-0.153 0.508,-0.308 0.771,-0.435 0.076,-0.037 0.152,-0.071 0.228,-0.103 -0.057,-0.087 -0.112,-0.174 -0.167,-0.261 -0.068,0.027 -0.136,0.056 -0.208,0.092 -0.28,0.137 -0.562,0.301 -0.828,0.467 -0.373,0.232 -0.777,0.496 -1.106,0.774 0.056,0.088 0.113,0.175 0.172,0.262 0.126,-0.1 0.263,-0.198 0.39,-0.294 0.235,-0.177 0.491,-0.345 0.748,-0.502 z"
   id="path505" />

				<path
   style="fill:#e86b52"
   d="m 34.203,28.866 c 0.075,-0.04 0.153,-0.081 0.23,-0.12 -0.071,-0.095 -0.142,-0.19 -0.21,-0.285 -0.083,0.042 -0.164,0.088 -0.244,0.132 -0.679,0.378 -1.262,0.801 -1.845,1.26 0.061,0.084 0.123,0.167 0.185,0.25 0.6,-0.454 1.195,-0.87 1.884,-1.237 z"
   id="path506" />

				<path
   style="fill:#e86b52"
   d="m 33.51,27.801 c 0.072,-0.036 0.14,-0.065 0.208,-0.092 -0.043,-0.069 -0.085,-0.137 -0.126,-0.205 -0.096,0.035 -0.192,0.072 -0.289,0.117 -0.262,0.119 -0.516,0.265 -0.769,0.411 -0.386,0.224 -0.775,0.477 -1.124,0.747 0.054,0.088 0.109,0.176 0.165,0.264 0.33,-0.277 0.734,-0.542 1.106,-0.774 0.267,-0.167 0.549,-0.33 0.829,-0.468 z"
   id="path507" />

				<path
   style="fill:#e86b52"
   d="m 34.582,29.347 c 0.075,-0.039 0.153,-0.08 0.231,-0.118 -0.063,-0.076 -0.125,-0.153 -0.185,-0.23 -0.085,0.041 -0.171,0.085 -0.254,0.128 -0.684,0.355 -1.28,0.761 -1.88,1.204 0.061,0.079 0.123,0.157 0.186,0.236 0.607,-0.449 1.21,-0.861 1.902,-1.22 z"
   id="path508" />

				<path
   style="fill:#e86b52"
   d="m 34.374,29.127 c 0.083,-0.043 0.169,-0.087 0.254,-0.128 -0.066,-0.085 -0.131,-0.169 -0.195,-0.253 -0.077,0.039 -0.154,0.08 -0.23,0.12 -0.689,0.367 -1.285,0.784 -1.884,1.237 0.058,0.076 0.117,0.153 0.175,0.228 0.601,-0.443 1.196,-0.849 1.88,-1.204 z"
   id="path509" />

				<path
   style="fill:#e86b52"
   d="m 32.935,26.214 c -0.041,-0.094 -0.082,-0.188 -0.123,-0.28 -0.436,0.187 -0.886,0.439 -1.284,0.7 -0.326,0.213 -0.615,0.439 -0.902,0.674 0.056,0.116 0.113,0.231 0.172,0.349 0.408,-0.364 0.868,-0.695 1.359,-1.009 0.252,-0.16 0.511,-0.31 0.778,-0.434 z"
   id="path510" />

				<path
   style="fill:#e86b52"
   d="m 33.083,26.558 c 0.001,-0.001 0.003,-0.002 0.005,-0.003 -0.022,-0.047 -0.043,-0.095 -0.064,-0.142 -0.03,-0.068 -0.058,-0.133 -0.088,-0.199 -0.267,0.124 -0.526,0.274 -0.778,0.435 -0.491,0.313 -0.951,0.644 -1.359,1.009 0.042,0.085 0.085,0.17 0.129,0.257 0.008,0.017 0.017,0.033 0.026,0.049 0.38,-0.321 0.789,-0.63 1.224,-0.908 0.293,-0.186 0.594,-0.351 0.905,-0.498 z"
   id="path511" />

				<path
   style="fill:#e86b52"
   d="m 32.534,28.031 c 0.253,-0.146 0.507,-0.292 0.769,-0.411 0.097,-0.045 0.194,-0.081 0.289,-0.117 -0.061,-0.102 -0.12,-0.204 -0.176,-0.305 -0.768,0.272 -1.516,0.791 -2.175,1.296 0.055,0.095 0.111,0.19 0.169,0.284 0.348,-0.27 0.737,-0.523 1.124,-0.747 z"
   id="path512" />

				<path
   style="fill:#e86b52"
   d="m 33.416,27.198 c -0.059,-0.105 -0.115,-0.211 -0.168,-0.313 -0.765,0.341 -1.513,0.823 -2.152,1.349 0.047,0.088 0.096,0.174 0.146,0.26 0.657,-0.504 1.406,-1.024 2.174,-1.296 z"
   id="path513" />

				<path
   style="fill:#e86b52"
   d="m 33.248,26.885 c -0.057,-0.111 -0.11,-0.22 -0.16,-0.329 -0.002,10e-4 -0.003,0.002 -0.005,0.003 -0.311,0.146 -0.611,0.311 -0.905,0.498 -0.434,0.278 -0.844,0.587 -1.224,0.908 0.046,0.09 0.093,0.18 0.142,0.27 0.639,-0.527 1.386,-1.009 2.152,-1.35 z"
   id="path514" />

				<path
   style="fill:#e86b52"
   d="m 37.347,31.884 c 0.035,-0.019 0.072,-0.037 0.109,-0.056 -0.09,-0.079 -0.181,-0.159 -0.274,-0.238 -0.045,0.025 -0.09,0.051 -0.134,0.076 -0.781,0.44 -1.435,0.938 -2.084,1.482 0.065,0.064 0.13,0.126 0.196,0.19 0.69,-0.542 1.379,-1.035 2.187,-1.454 z"
   id="path515" />

				<path
   style="fill:#e86b52"
   d="m 36.419,31.335 c 0.092,-0.051 0.189,-0.104 0.284,-0.152 -0.081,-0.071 -0.162,-0.142 -0.243,-0.215 -0.09,0.046 -0.18,0.096 -0.267,0.143 -0.711,0.394 -1.317,0.837 -1.929,1.319 0.071,0.077 0.144,0.154 0.217,0.23 0.615,-0.484 1.223,-0.929 1.938,-1.325 z"
   id="path516" />

				<path
   style="fill:#e86b52"
   d="m 36.193,31.111 c 0.087,-0.048 0.177,-0.098 0.267,-0.143 -0.073,-0.066 -0.146,-0.134 -0.219,-0.202 -0.089,0.048 -0.179,0.099 -0.265,0.149 -0.697,0.403 -1.286,0.849 -1.877,1.333 0.054,0.061 0.11,0.122 0.165,0.183 0.612,-0.483 1.218,-0.926 1.929,-1.32 z"
   id="path517" />

				<path
   style="fill:#e86b52"
   d="m 36.66,31.562 c 0.096,-0.056 0.195,-0.112 0.295,-0.164 -0.028,-0.023 -0.055,-0.046 -0.083,-0.07 -0.057,-0.047 -0.113,-0.095 -0.169,-0.144 -0.095,0.048 -0.191,0.101 -0.284,0.152 -0.715,0.396 -1.323,0.841 -1.938,1.326 0.085,0.089 0.17,0.177 0.258,0.266 0.607,-0.498 1.207,-0.955 1.921,-1.366 z"
   id="path518" />

				<path
   style="fill:#e86b52"
   d="m 32.813,25.934 c -0.039,-0.09 -0.078,-0.179 -0.117,-0.267 -0.438,0.151 -0.876,0.391 -1.296,0.659 -0.292,0.187 -0.578,0.385 -0.849,0.591 -0.026,0.02 -0.054,0.041 -0.082,0.062 0.051,0.108 0.104,0.218 0.157,0.328 0.287,-0.235 0.576,-0.461 0.902,-0.674 0.399,-0.26 0.848,-0.512 1.285,-0.699 z"
   id="path519" />

				<path
   style="fill:#e86b52"
   d="m 34.731,29.602 c 0.089,-0.048 0.181,-0.097 0.273,-0.142 -0.065,-0.077 -0.128,-0.153 -0.191,-0.231 -0.078,0.038 -0.156,0.078 -0.231,0.118 -0.692,0.36 -1.295,0.771 -1.902,1.221 0.066,0.084 0.135,0.168 0.202,0.251 0.588,-0.446 1.174,-0.855 1.849,-1.217 z"
   id="path520" />

				<path
   style="fill:#e86b52"
   d="m 36.241,30.766 c -0.066,-0.063 -0.131,-0.125 -0.196,-0.189 -0.092,0.046 -0.184,0.096 -0.274,0.144 -0.696,0.378 -1.294,0.806 -1.897,1.27 0.038,0.044 0.076,0.087 0.114,0.131 0.036,0.042 0.073,0.083 0.11,0.124 0.591,-0.484 1.18,-0.93 1.877,-1.333 0.087,-0.048 0.177,-0.099 0.266,-0.147 z"
   id="path521" />

				<path
   style="fill:#e86b52"
   d="m 37.047,31.665 c 0.044,-0.025 0.089,-0.051 0.134,-0.076 -0.075,-0.064 -0.15,-0.128 -0.226,-0.192 -0.1,0.052 -0.199,0.109 -0.295,0.164 -0.714,0.411 -1.314,0.868 -1.921,1.365 0.074,0.074 0.149,0.148 0.224,0.221 0.649,-0.544 1.303,-1.042 2.084,-1.482 z"
   id="path522" />

				<path
   style="fill:#e86b52"
   d="m 35.192,30.033 c 0.071,-0.038 0.144,-0.076 0.216,-0.114 -0.072,-0.078 -0.141,-0.156 -0.211,-0.236 -0.075,0.039 -0.15,0.079 -0.224,0.118 -0.694,0.372 -1.294,0.794 -1.897,1.253 0.067,0.081 0.135,0.162 0.203,0.243 0.609,-0.464 1.213,-0.889 1.913,-1.264 z"
   id="path523" />

				<path
   style="fill:#e86b52"
   d="m 34.973,29.801 c 0.074,-0.039 0.149,-0.079 0.224,-0.118 -0.064,-0.074 -0.129,-0.149 -0.193,-0.223 -0.092,0.045 -0.184,0.094 -0.273,0.142 -0.676,0.362 -1.262,0.771 -1.85,1.216 0.064,0.079 0.129,0.157 0.194,0.236 0.604,-0.459 1.203,-0.881 1.898,-1.253 z"
   id="path524" />

				<path
   style="fill:#e86b52"
   d="m 35.771,30.722 c 0.09,-0.049 0.182,-0.099 0.274,-0.144 -0.079,-0.077 -0.158,-0.155 -0.236,-0.235 -0.068,0.036 -0.136,0.075 -0.202,0.111 -0.708,0.398 -1.31,0.843 -1.917,1.325 0.062,0.072 0.123,0.143 0.184,0.213 0.603,-0.464 1.202,-0.892 1.897,-1.27 z"
   id="path525" />

				<path
   style="fill:#e86b52"
   d="m 35.607,30.453 c 0.066,-0.036 0.134,-0.075 0.202,-0.111 -0.067,-0.068 -0.133,-0.136 -0.199,-0.206 -0.093,0.047 -0.186,0.1 -0.276,0.15 -0.679,0.38 -1.26,0.804 -1.841,1.264 0.066,0.076 0.131,0.153 0.196,0.228 0.609,-0.482 1.21,-0.927 1.918,-1.325 z"
   id="path526" />

				<path
   style="fill:#e86b52"
   d="m 35.335,30.286 c 0.09,-0.05 0.183,-0.103 0.276,-0.15 -0.068,-0.072 -0.136,-0.144 -0.203,-0.217 -0.073,0.037 -0.146,0.076 -0.216,0.114 -0.7,0.375 -1.304,0.8 -1.913,1.265 0.071,0.085 0.143,0.169 0.215,0.253 0.582,-0.46 1.162,-0.885 1.841,-1.265 z"
   id="path527" />

				<path
   style="fill:#e86b52"
   d="m 33.895,28.324 c 0.056,-0.029 0.113,-0.058 0.17,-0.087 -0.062,-0.089 -0.122,-0.178 -0.181,-0.267 -0.076,0.032 -0.152,0.066 -0.228,0.103 -0.263,0.126 -0.52,0.281 -0.771,0.435 -0.257,0.156 -0.513,0.324 -0.749,0.502 -0.126,0.096 -0.263,0.194 -0.39,0.294 0.063,0.094 0.127,0.186 0.192,0.279 0.375,-0.283 0.761,-0.571 1.168,-0.817 0.26,-0.157 0.522,-0.303 0.789,-0.442 z"
   id="path528" />

				<path
   style="fill:#e86b52"
   d="m 29.366,20.264 c 0.267,-0.137 0.531,-0.252 0.793,-0.355 C 30.104,19.792 30.051,19.682 30,19.58 c -0.237,0.093 -0.475,0.2 -0.71,0.323 -0.333,0.173 -0.654,0.368 -0.969,0.573 0.012,0.111 0.028,0.226 0.046,0.346 0.327,-0.205 0.674,-0.392 0.999,-0.558 z"
   id="path529" />

				<path
   style="fill:#e86b52"
   d="m 29.439,21.342 c 0.385,-0.193 0.774,-0.351 1.158,-0.479 -0.054,-0.119 -0.106,-0.234 -0.156,-0.344 -0.005,0.002 -0.01,0.003 -0.015,0.005 -0.349,0.135 -0.703,0.299 -1.045,0.487 -0.289,0.159 -0.596,0.327 -0.885,0.512 0.022,0.101 0.045,0.203 0.069,0.308 0.284,-0.178 0.581,-0.342 0.874,-0.489 z"
   id="path530" />

				<path
   style="fill:#e86b52"
   d="m 29.309,20.63 c 0.324,-0.177 0.644,-0.329 0.971,-0.465 -0.042,-0.089 -0.081,-0.174 -0.12,-0.255 -0.263,0.103 -0.526,0.218 -0.793,0.355 -0.325,0.165 -0.672,0.353 -0.998,0.558 0.017,0.113 0.037,0.23 0.059,0.35 0.032,-0.021 0.063,-0.042 0.091,-0.06 0.252,-0.172 0.521,-0.335 0.79,-0.483 z"
   id="path531" />

				<path
   style="fill:#e86b52"
   d="m 29.382,21.011 c 0.342,-0.187 0.696,-0.352 1.045,-0.487 0.005,-0.002 0.01,-0.004 0.015,-0.005 -0.056,-0.124 -0.11,-0.242 -0.162,-0.354 -0.327,0.137 -0.647,0.288 -0.971,0.465 -0.268,0.148 -0.538,0.311 -0.791,0.482 -0.028,0.019 -0.059,0.04 -0.091,0.06 0.02,0.114 0.044,0.231 0.069,0.351 0.29,-0.185 0.597,-0.354 0.886,-0.512 z"
   id="path532" />

				<path
   style="fill:#e86b52"
   d="m 30.593,21.684 c 0.109,-0.038 0.216,-0.07 0.323,-0.1 -0.061,-0.138 -0.119,-0.269 -0.175,-0.396 -0.068,0.022 -0.137,0.046 -0.209,0.073 -0.3,0.116 -0.616,0.271 -0.913,0.426 -0.323,0.169 -0.645,0.354 -0.951,0.556 0.029,0.109 0.059,0.219 0.091,0.333 0.306,-0.179 0.618,-0.347 0.933,-0.5 0.299,-0.145 0.602,-0.288 0.901,-0.392 z"
   id="path533" />

				<path
   style="fill:#e86b52"
   d="m 29.619,21.687 c 0.297,-0.155 0.612,-0.309 0.913,-0.426 0.073,-0.027 0.141,-0.051 0.209,-0.073 -0.05,-0.112 -0.098,-0.22 -0.144,-0.325 -0.384,0.128 -0.773,0.286 -1.158,0.479 -0.294,0.147 -0.59,0.312 -0.873,0.49 0.031,0.133 0.066,0.271 0.103,0.411 0.306,-0.202 0.628,-0.387 0.95,-0.556 z"
   id="path534" />

				<path
   style="fill:#e86b52"
   d="m 29.339,18.717 c 0.049,-0.02 0.097,-0.039 0.145,-0.055 -0.06,-0.085 -0.116,-0.154 -0.17,-0.209 -0.171,0.062 -0.345,0.137 -0.528,0.226 -0.139,0.067 -0.288,0.144 -0.435,0.227 -0.025,0.101 -0.044,0.215 -0.057,0.34 0.339,-0.215 0.735,-0.4 1.045,-0.529 z"
   id="path535" />

				<path
   style="fill:#e86b52"
   d="m 29.939,22.406 c 0.389,-0.191 0.761,-0.335 1.137,-0.456 -0.055,-0.126 -0.108,-0.248 -0.16,-0.365 -0.107,0.03 -0.213,0.062 -0.323,0.1 -0.299,0.104 -0.603,0.247 -0.901,0.391 -0.315,0.153 -0.627,0.321 -0.933,0.5 0.039,0.136 0.08,0.276 0.124,0.418 0.023,-0.014 0.046,-0.029 0.069,-0.042 0.322,-0.202 0.65,-0.381 0.987,-0.546 z"
   id="path536" />

				<path
   style="fill:#e86b52"
   d="m 29.29,19.903 c 0.235,-0.123 0.473,-0.229 0.71,-0.323 -0.07,-0.143 -0.136,-0.271 -0.198,-0.387 -0.247,0.09 -0.495,0.196 -0.741,0.322 -0.245,0.125 -0.521,0.273 -0.784,0.435 0.008,0.163 0.022,0.338 0.043,0.526 0.317,-0.205 0.637,-0.4 0.97,-0.573 z"
   id="path537" />

				<path
   style="fill:#e86b52"
   d="m 29.101,18.295 c -0.126,-0.055 -0.249,-0.038 -0.386,0.024 -0.095,0.044 -0.179,0.132 -0.248,0.263 0.169,-0.089 0.335,-0.166 0.472,-0.224 0.054,-0.023 0.108,-0.044 0.162,-0.063 z"
   id="path538" />

				<path
   style="fill:#e86b52"
   d="m 29.062,19.515 c 0.246,-0.126 0.494,-0.232 0.741,-0.322 -0.045,-0.083 -0.087,-0.159 -0.127,-0.229 -0.225,0.078 -0.455,0.173 -0.651,0.262 -0.26,0.116 -0.506,0.247 -0.752,0.391 -0.001,0.105 0.001,0.216 0.006,0.334 0.261,-0.163 0.538,-0.311 0.783,-0.436 z"
   id="path539" />

				<path
   style="fill:#e86b52"
   d="m 29.024,19.226 c 0.196,-0.088 0.425,-0.183 0.651,-0.262 -0.068,-0.117 -0.132,-0.218 -0.191,-0.302 -0.048,0.016 -0.096,0.036 -0.145,0.055 -0.31,0.128 -0.706,0.314 -1.045,0.528 -0.012,0.114 -0.019,0.237 -0.021,0.371 0.245,-0.144 0.492,-0.274 0.751,-0.39 z"
   id="path540" />

				<path
   style="fill:#e86b52"
   d="m 30.026,22.766 c 0.403,-0.215 0.79,-0.386 1.18,-0.518 -0.044,-0.102 -0.088,-0.201 -0.131,-0.299 -0.376,0.122 -0.748,0.265 -1.137,0.456 -0.337,0.165 -0.665,0.344 -0.987,0.545 -0.023,0.014 -0.046,0.028 -0.069,0.042 0.038,0.123 0.078,0.249 0.12,0.376 0.018,-0.012 0.036,-0.023 0.054,-0.034 0.316,-0.202 0.641,-0.392 0.97,-0.568 z"
   id="path541" />

				<path
   style="fill:#e86b52"
   d="m 31.476,25.177 c 0.286,-0.133 0.574,-0.259 0.856,-0.344 -0.041,-0.095 -0.082,-0.188 -0.122,-0.28 -0.259,0.069 -0.529,0.161 -0.798,0.281 -0.448,0.199 -0.898,0.461 -1.316,0.731 -0.068,0.044 -0.137,0.089 -0.205,0.135 0.046,0.108 0.093,0.217 0.142,0.327 0.459,-0.324 0.916,-0.605 1.443,-0.85 z"
   id="path542" />

				<path
   style="fill:#e86b52"
   d="m 30.661,24.825 c 0.436,-0.243 0.937,-0.482 1.396,-0.624 -0.05,-0.116 -0.1,-0.23 -0.148,-0.342 -0.008,0.003 -0.014,0.004 -0.022,0.006 -0.326,0.115 -0.652,0.263 -0.972,0.44 -0.384,0.212 -0.752,0.456 -1.107,0.705 -0.053,0.037 -0.106,0.074 -0.158,0.112 0.038,0.092 0.076,0.186 0.116,0.28 0.006,-0.004 0.013,-0.009 0.016,-0.012 0.273,-0.21 0.572,-0.394 0.879,-0.565 z"
   id="path543" />

				<path
   style="fill:#e86b52"
   d="m 31.412,24.834 c 0.269,-0.12 0.539,-0.212 0.798,-0.281 -0.052,-0.119 -0.103,-0.237 -0.153,-0.352 -0.459,0.142 -0.959,0.381 -1.396,0.624 -0.307,0.171 -0.605,0.355 -0.88,0.566 -0.004,0.003 -0.01,0.008 -0.016,0.012 0.041,0.098 0.083,0.197 0.126,0.297 0.068,-0.045 0.137,-0.091 0.205,-0.135 0.417,-0.27 0.868,-0.532 1.316,-0.731 z"
   id="path544" />

				<path
   style="fill:#e86b52"
   d="m 31.535,25.834 c 0.336,-0.182 0.689,-0.344 1.031,-0.463 -0.039,-0.09 -0.079,-0.181 -0.117,-0.269 -0.209,0.077 -0.418,0.157 -0.629,0.258 -0.588,0.278 -1.131,0.63 -1.63,1.02 0.039,0.088 0.08,0.176 0.121,0.265 0.365,-0.302 0.813,-0.588 1.224,-0.811 z"
   id="path545" />

				<path
   style="fill:#e86b52"
   d="m 31.82,25.359 c 0.211,-0.1 0.42,-0.181 0.629,-0.258 -0.04,-0.09 -0.078,-0.18 -0.117,-0.268 -0.282,0.085 -0.57,0.211 -0.856,0.344 -0.527,0.245 -0.984,0.525 -1.443,0.85 0.051,0.115 0.103,0.233 0.158,0.351 0.498,-0.39 1.041,-0.741 1.629,-1.019 z"
   id="path546" />

				<path
   style="fill:#e86b52"
   d="m 30.277,23.899 c 0.45,-0.253 0.91,-0.467 1.369,-0.641 -0.048,-0.111 -0.096,-0.222 -0.143,-0.329 -0.053,0.021 -0.106,0.04 -0.158,0.062 -0.274,0.115 -0.555,0.241 -0.827,0.379 -0.248,0.127 -0.491,0.264 -0.732,0.407 -0.169,0.101 -0.356,0.204 -0.535,0.314 0.044,0.121 0.09,0.244 0.137,0.37 0.042,-0.028 0.082,-0.054 0.119,-0.08 0.247,-0.172 0.506,-0.334 0.77,-0.482 z"
   id="path547" />

				<path
   style="fill:#e86b52"
   d="m 29.787,23.777 c 0.241,-0.144 0.484,-0.28 0.732,-0.407 0.272,-0.139 0.552,-0.264 0.827,-0.379 0.052,-0.022 0.105,-0.042 0.158,-0.062 -0.053,-0.121 -0.104,-0.24 -0.155,-0.356 -0.106,0.036 -0.213,0.073 -0.322,0.121 -0.28,0.121 -0.564,0.252 -0.839,0.397 -0.278,0.146 -0.548,0.308 -0.809,0.481 -0.081,0.054 -0.167,0.11 -0.251,0.167 0.04,0.116 0.082,0.233 0.125,0.353 0.178,-0.11 0.364,-0.214 0.534,-0.315 z"
   id="path548" />

				<path
   style="fill:#e86b52"
   d="m 30.914,24.306 c 0.32,-0.177 0.645,-0.325 0.972,-0.44 0.008,-0.003 0.015,-0.004 0.022,-0.006 -0.048,-0.111 -0.095,-0.219 -0.141,-0.325 -0.343,0.146 -0.682,0.306 -1.017,0.503 -0.321,0.19 -0.638,0.387 -0.941,0.599 -0.086,0.061 -0.183,0.125 -0.278,0.191 0.039,0.097 0.078,0.196 0.118,0.295 0.052,-0.038 0.105,-0.076 0.158,-0.112 0.355,-0.249 0.724,-0.493 1.107,-0.705 z"
   id="path549" />

				<path
   style="fill:#e86b52"
   d="m 30.187,23.09 c 0.276,-0.145 0.559,-0.276 0.839,-0.397 0.11,-0.048 0.216,-0.085 0.322,-0.121 -0.048,-0.111 -0.096,-0.219 -0.142,-0.325 -0.39,0.132 -0.777,0.303 -1.18,0.518 -0.329,0.176 -0.655,0.367 -0.969,0.569 -0.018,0.012 -0.036,0.023 -0.054,0.034 0.039,0.121 0.08,0.243 0.124,0.369 0.084,-0.057 0.17,-0.113 0.251,-0.167 0.261,-0.172 0.531,-0.334 0.809,-0.48 z"
   id="path550" />

				<path
   style="fill:#e86b52"
   d="m 30.75,24.038 c 0.335,-0.198 0.674,-0.358 1.017,-0.503 -0.041,-0.094 -0.081,-0.186 -0.12,-0.276 -0.459,0.174 -0.919,0.388 -1.369,0.641 -0.265,0.148 -0.523,0.309 -0.77,0.482 -0.037,0.026 -0.077,0.052 -0.119,0.08 0.046,0.121 0.093,0.243 0.142,0.367 0.095,-0.067 0.192,-0.131 0.278,-0.191 0.302,-0.213 0.619,-0.411 0.941,-0.6 z"
   id="path551" />

				<path
   style="fill:#e86b52"
   d="m 31.4,26.327 c 0.42,-0.268 0.857,-0.508 1.296,-0.659 -0.044,-0.101 -0.087,-0.199 -0.13,-0.297 -0.342,0.119 -0.696,0.281 -1.031,0.463 -0.411,0.223 -0.859,0.509 -1.224,0.809 0.052,0.112 0.104,0.223 0.159,0.337 0.028,-0.022 0.056,-0.042 0.082,-0.062 0.271,-0.206 0.556,-0.404 0.848,-0.591 z"
   id="path552" />

				<path
   style="fill:#e86b52"
   d="m 29.314,18.453 c -0.075,-0.076 -0.144,-0.128 -0.213,-0.158 -0.053,0.019 -0.107,0.041 -0.162,0.063 -0.137,0.058 -0.303,0.135 -0.472,0.224 -0.046,0.088 -0.085,0.196 -0.115,0.323 0.148,-0.083 0.297,-0.159 0.435,-0.227 0.182,-0.088 0.356,-0.163 0.527,-0.225 z"
   id="path553" />

				<path
   style="fill:#e86b52"
   d="m 41.82,42.679 c 0.389,-0.211 0.83,-0.424 1.251,-0.585 -0.012,-0.193 -0.026,-0.395 -0.043,-0.61 -0.35,0.137 -0.709,0.317 -1.045,0.494 -0.297,0.156 -0.611,0.341 -0.903,0.538 0.036,0.176 0.072,0.352 0.109,0.527 0.212,-0.131 0.428,-0.254 0.631,-0.364 z"
   id="path554" />

				<path
   style="fill:#e86b52"
   d="m 41.984,41.977 c 0.336,-0.176 0.695,-0.357 1.045,-0.494 -0.014,-0.18 -0.031,-0.368 -0.052,-0.568 -0.369,0.139 -0.75,0.331 -1.104,0.517 -0.297,0.156 -0.61,0.341 -0.903,0.537 0.037,0.182 0.073,0.364 0.11,0.545 0.293,-0.195 0.607,-0.381 0.904,-0.537 z"
   id="path555" />

				<path
   style="fill:#e86b52"
   d="m 41.916,40.883 c 0.319,-0.164 0.664,-0.338 0.998,-0.472 -0.028,-0.157 -0.07,-0.338 -0.123,-0.533 -0.006,0.002 -0.012,0.004 -0.018,0.006 -0.359,0.148 -0.73,0.342 -1.077,0.54 -0.31,0.176 -0.629,0.369 -0.932,0.576 0.038,0.169 0.075,0.338 0.111,0.508 0.333,-0.234 0.699,-0.448 1.041,-0.625 z"
   id="path556" />

				<path
   style="fill:#e86b52"
   d="m 41.873,41.433 c 0.355,-0.186 0.735,-0.378 1.104,-0.517 -0.012,-0.113 -0.025,-0.229 -0.039,-0.348 -0.006,-0.049 -0.014,-0.102 -0.023,-0.157 -0.335,0.134 -0.679,0.308 -0.998,0.472 -0.343,0.176 -0.708,0.391 -1.041,0.624 0.033,0.154 0.064,0.308 0.095,0.463 0.292,-0.196 0.604,-0.381 0.902,-0.537 z"
   id="path557" />

				<path
   style="fill:#e86b52"
   d="m 42.128,43.142 c 0.32,-0.162 0.656,-0.303 0.983,-0.41 -0.014,-0.202 -0.026,-0.414 -0.04,-0.638 -0.422,0.161 -0.862,0.375 -1.251,0.585 -0.203,0.11 -0.419,0.233 -0.631,0.363 0.04,0.185 0.08,0.369 0.123,0.551 0.263,-0.165 0.543,-0.313 0.816,-0.451 z"
   id="path558" />

				<path
   style="fill:#e86b52"
   d="m 41.15,38.351 c 0.313,-0.168 0.634,-0.316 0.954,-0.448 -0.039,-0.096 -0.077,-0.188 -0.115,-0.276 -0.698,0.303 -1.332,0.675 -1.967,1.089 0.037,0.077 0.072,0.157 0.106,0.236 0.03,-0.018 0.059,-0.036 0.086,-0.053 0.306,-0.193 0.618,-0.377 0.936,-0.548 z"
   id="path559" />

				<path
   style="fill:#e86b52"
   d="m 42.475,44.316 c 0.281,-0.148 0.534,-0.252 0.789,-0.341 -0.041,-0.193 -0.07,-0.385 -0.094,-0.583 -0.205,0.065 -0.415,0.142 -0.634,0.24 -0.36,0.161 -0.725,0.351 -1.071,0.559 0.005,0.017 0.009,0.034 0.014,0.051 0.053,0.187 0.11,0.368 0.173,0.547 0.271,-0.174 0.558,-0.334 0.823,-0.473 z"
   id="path560" />

				<path
   style="fill:#e86b52"
   d="m 41.282,38.921 c 0.336,-0.187 0.682,-0.351 1.027,-0.499 -0.038,-0.101 -0.077,-0.201 -0.116,-0.299 -0.322,0.14 -0.645,0.294 -0.959,0.469 -0.315,0.176 -0.624,0.365 -0.926,0.562 -0.024,0.015 -0.049,0.031 -0.075,0.048 0.038,0.096 0.075,0.192 0.108,0.289 0.005,-0.003 0.01,-0.006 0.015,-0.009 0.302,-0.196 0.61,-0.385 0.926,-0.561 z"
   id="path561" />

				<path
   style="fill:#e86b52"
   d="m 41.234,38.593 c 0.314,-0.175 0.637,-0.329 0.959,-0.469 -0.03,-0.075 -0.059,-0.149 -0.089,-0.221 -0.32,0.132 -0.641,0.28 -0.954,0.448 -0.318,0.171 -0.63,0.355 -0.935,0.548 -0.027,0.017 -0.056,0.035 -0.086,0.053 0.036,0.083 0.071,0.166 0.104,0.251 0.026,-0.016 0.052,-0.032 0.075,-0.048 0.301,-0.197 0.61,-0.386 0.926,-0.562 z"
   id="path562" />

				<path
   style="fill:#e86b52"
   d="m 41.98,39.604 c 0.207,-0.107 0.422,-0.212 0.638,-0.303 -0.048,-0.149 -0.1,-0.301 -0.154,-0.453 -0.327,0.12 -0.667,0.276 -0.985,0.442 -0.331,0.174 -0.676,0.381 -1.006,0.607 0.055,0.18 0.107,0.363 0.155,0.548 0.424,-0.308 0.871,-0.592 1.352,-0.841 z"
   id="path563" />

				<path
   style="fill:#e86b52"
   d="m 41.696,40.424 c 0.347,-0.198 0.718,-0.393 1.077,-0.54 0.006,-0.002 0.012,-0.004 0.018,-0.006 -0.05,-0.182 -0.109,-0.377 -0.174,-0.577 -0.216,0.091 -0.431,0.196 -0.638,0.303 -0.482,0.249 -0.929,0.533 -1.352,0.84 0.047,0.184 0.092,0.369 0.135,0.556 0.306,-0.207 0.625,-0.4 0.934,-0.576 z"
   id="path564" />

				<path
   style="fill:#e86b52"
   d="m 41.479,39.29 c 0.319,-0.166 0.658,-0.322 0.985,-0.442 -0.05,-0.142 -0.102,-0.285 -0.155,-0.425 -0.345,0.147 -0.691,0.311 -1.027,0.499 -0.315,0.176 -0.624,0.365 -0.926,0.562 -0.005,0.003 -0.01,0.006 -0.015,0.009 0.047,0.133 0.091,0.268 0.133,0.404 0.329,-0.227 0.674,-0.434 1.005,-0.607 z"
   id="path565" />

				<path
   style="fill:#e86b52"
   d="m 43.171,43.392 c -0.025,-0.212 -0.043,-0.431 -0.059,-0.661 -0.327,0.107 -0.664,0.249 -0.983,0.41 -0.274,0.138 -0.554,0.286 -0.815,0.451 0.048,0.202 0.098,0.402 0.152,0.598 0.346,-0.208 0.711,-0.398 1.071,-0.559 0.219,-0.097 0.429,-0.174 0.634,-0.239 z"
   id="path566" />

				<path
   style="fill:#e86b52"
   d="m 46.045,48.411 c -0.132,-0.122 -0.256,-0.24 -0.373,-0.357 -0.248,0.195 -0.523,0.378 -0.792,0.563 0.156,0.116 0.31,0.222 0.459,0.315 0.047,-0.031 0.09,-0.06 0.126,-0.084 0.212,-0.139 0.4,-0.286 0.58,-0.437 z"
   id="path567" />

				<path
   style="fill:#e86b52"
   d="m 42.356,45.079 c 0.362,-0.203 0.717,-0.368 1.072,-0.505 -0.069,-0.203 -0.123,-0.402 -0.164,-0.599 -0.255,0.089 -0.508,0.193 -0.789,0.341 -0.265,0.139 -0.552,0.299 -0.824,0.473 0.07,0.197 0.147,0.389 0.234,0.576 0.155,-0.1 0.312,-0.197 0.471,-0.286 z"
   id="path568" />

				<path
   style="fill:#e86b52"
   d="m 45.316,47.681 c -0.122,-0.135 -0.236,-0.269 -0.344,-0.405 -0.324,0.195 -0.653,0.401 -0.957,0.617 0.148,0.136 0.298,0.269 0.45,0.396 0.109,-0.079 0.217,-0.156 0.321,-0.232 0.176,-0.129 0.352,-0.254 0.53,-0.376 z"
   id="path569" />

				<path
   style="fill:#e86b52"
   d="m 45.316,47.681 c -0.178,0.122 -0.354,0.247 -0.53,0.375 -0.104,0.076 -0.212,0.154 -0.321,0.232 0.138,0.116 0.277,0.226 0.415,0.329 0.27,-0.184 0.544,-0.367 0.792,-0.563 -0.126,-0.126 -0.244,-0.25 -0.356,-0.373 z"
   id="path570" />

				<path
   style="fill:#e86b52"
   d="m 46.691,49.208 c 0.153,-0.106 0.002,-0.239 -0.263,-0.462 -0.173,0.149 -0.383,0.307 -0.592,0.444 0.343,0.14 0.642,0.166 0.855,0.018 z"
   id="path571" />

				<path
   style="fill:#e86b52"
   d="m 46.152,48.508 c -0.037,-0.033 -0.072,-0.065 -0.107,-0.097 -0.18,0.151 -0.368,0.299 -0.58,0.437 -0.036,0.023 -0.079,0.052 -0.126,0.084 0.173,0.106 0.34,0.194 0.497,0.258 0.209,-0.137 0.419,-0.295 0.592,-0.444 -0.083,-0.07 -0.177,-0.148 -0.276,-0.238 z"
   id="path572" />

				<path
   style="fill:#e86b52"
   d="m 44.644,46.835 c -0.36,0.192 -0.706,0.426 -1.037,0.67 0.132,0.129 0.269,0.259 0.408,0.387 0.304,-0.217 0.633,-0.422 0.957,-0.617 -0.115,-0.144 -0.223,-0.289 -0.328,-0.44 z"
   id="path573" />

				<path
   style="fill:#e86b52"
   d="m 43.088,45.33 c 0.179,-0.093 0.358,-0.181 0.537,-0.259 -0.077,-0.171 -0.142,-0.336 -0.196,-0.498 -0.356,0.137 -0.71,0.302 -1.072,0.505 -0.16,0.089 -0.317,0.186 -0.471,0.286 0.083,0.178 0.175,0.352 0.279,0.521 10e-4,0.002 0.002,0.004 0.004,0.006 0.296,-0.203 0.597,-0.394 0.919,-0.561 z"
   id="path574" />

				<path
   style="fill:#e86b52"
   d="m 43.224,45.827 c 0.204,-0.112 0.412,-0.22 0.62,-0.316 -0.082,-0.152 -0.155,-0.298 -0.219,-0.44 -0.179,0.078 -0.358,0.166 -0.537,0.259 -0.321,0.167 -0.623,0.358 -0.921,0.56 0.048,0.076 0.151,0.212 0.297,0.386 0.256,-0.165 0.526,-0.319 0.76,-0.449 z"
   id="path575" />

				<path
   style="fill:#e86b52"
   d="m 44.354,46.395 c -0.092,-0.148 -0.183,-0.301 -0.276,-0.463 -0.162,0.08 -0.324,0.168 -0.487,0.264 -0.262,0.154 -0.52,0.32 -0.765,0.497 0.112,0.125 0.235,0.257 0.366,0.394 0.135,-0.093 0.274,-0.184 0.415,-0.271 0.233,-0.144 0.489,-0.29 0.747,-0.421 z"
   id="path576" />

				<path
   style="fill:#e86b52"
   d="m 44.078,45.932 c -0.076,-0.133 -0.152,-0.271 -0.231,-0.415 -0.001,-0.002 -0.002,-0.003 -0.003,-0.005 -0.208,0.096 -0.416,0.203 -0.62,0.316 -0.234,0.13 -0.503,0.284 -0.76,0.449 0.102,0.122 0.224,0.263 0.362,0.416 0.244,-0.176 0.503,-0.343 0.765,-0.497 0.163,-0.096 0.325,-0.184 0.487,-0.264 z"
   id="path577" />

				<path
   style="fill:#e86b52"
   d="m 37.85,32.231 c 0.011,-0.006 0.023,-0.013 0.035,-0.019 -0.072,-0.066 -0.144,-0.132 -0.219,-0.198 -0.03,0.017 -0.061,0.033 -0.09,0.05 -0.808,0.445 -1.485,0.956 -2.162,1.514 0.074,0.07 0.15,0.14 0.225,0.208 0.693,-0.574 1.384,-1.099 2.211,-1.555 z"
   id="path578" />

				<path
   style="fill:#e86b52"
   d="m 44.644,46.835 c -0.098,-0.142 -0.194,-0.288 -0.29,-0.44 -0.258,0.13 -0.514,0.276 -0.747,0.42 -0.141,0.088 -0.279,0.178 -0.415,0.271 0.131,0.137 0.27,0.278 0.414,0.419 0.331,-0.244 0.678,-0.478 1.038,-0.67 z"
   id="path579" />

				<path
   style="fill:#e86b52"
   d="m 39.82,34.204 c -0.064,-0.077 -0.129,-0.153 -0.195,-0.229 -0.002,10e-4 -0.005,0.003 -0.007,0.004 -0.802,0.432 -1.479,0.933 -2.156,1.481 0.051,0.048 0.101,0.097 0.152,0.146 0.705,-0.526 1.403,-1.004 2.206,-1.402 z"
   id="path580" />

				<path
   style="fill:#e86b52"
   d="m 39.618,33.979 c 0.002,-10e-4 0.005,-0.003 0.007,-0.004 -0.057,-0.065 -0.115,-0.131 -0.172,-0.195 -0.014,0.006 -0.027,0.013 -0.039,0.02 -0.806,0.413 -1.497,0.9 -2.19,1.435 0.08,0.075 0.159,0.149 0.239,0.225 0.676,-0.548 1.353,-1.049 2.155,-1.481 z"
   id="path581" />

				<path
   style="fill:#e86b52"
   d="m 39.413,33.799 c 0.013,-0.007 0.026,-0.013 0.039,-0.02 -0.069,-0.077 -0.14,-0.153 -0.21,-0.229 -0.015,0.009 -0.031,0.016 -0.045,0.025 -0.804,0.433 -1.482,0.936 -2.162,1.485 0.064,0.058 0.126,0.117 0.188,0.175 0.693,-0.536 1.384,-1.023 2.19,-1.436 z"
   id="path582" />

				<path
   style="fill:#e86b52"
   d="m 40.163,34.624 c -0.06,-0.076 -0.12,-0.153 -0.182,-0.229 -0.785,0.419 -1.458,0.907 -2.134,1.441 0.063,0.062 0.125,0.125 0.186,0.188 0.677,-0.52 1.351,-0.995 2.13,-1.4 z"
   id="path583" />

				<path
   style="fill:#e86b52"
   d="m 41.989,37.626 c -0.039,-0.09 -0.077,-0.176 -0.113,-0.258 -0.702,0.327 -1.329,0.718 -1.953,1.15 0.034,0.065 0.068,0.13 0.099,0.197 0.635,-0.413 1.269,-0.785 1.967,-1.089 z"
   id="path584" />

				<path
   style="fill:#e86b52"
   d="m 39.196,33.575 c 0.015,-0.008 0.031,-0.016 0.045,-0.025 -0.065,-0.071 -0.131,-0.141 -0.198,-0.212 -0.025,0.014 -0.049,0.027 -0.073,0.04 -0.801,0.432 -1.479,0.932 -2.155,1.479 0.073,0.068 0.146,0.135 0.219,0.202 0.68,-0.548 1.359,-1.051 2.162,-1.484 z"
   id="path585" />

				<path
   style="fill:#e86b52"
   d="m 39.981,34.395 c -0.053,-0.064 -0.108,-0.128 -0.161,-0.192 -0.803,0.399 -1.501,0.876 -2.206,1.402 0.078,0.076 0.156,0.153 0.234,0.23 0.676,-0.533 1.348,-1.02 2.133,-1.44 z"
   id="path586" />

				<path
   style="fill:#e86b52"
   d="m 38.231,32.725 c 0.042,-0.023 0.086,-0.047 0.129,-0.071 -0.076,-0.073 -0.154,-0.146 -0.232,-0.219 -0.018,0.009 -0.035,0.02 -0.053,0.028 -0.821,0.453 -1.508,0.973 -2.196,1.543 0.075,0.068 0.15,0.137 0.224,0.204 0.666,-0.546 1.333,-1.048 2.128,-1.485 z"
   id="path587" />

				<path
   style="fill:#e86b52"
   d="m 38.075,32.463 c 0.017,-0.009 0.035,-0.019 0.053,-0.028 -0.079,-0.074 -0.16,-0.149 -0.242,-0.223 -0.012,0.006 -0.024,0.013 -0.035,0.019 -0.827,0.456 -1.518,0.981 -2.212,1.556 0.08,0.074 0.16,0.147 0.24,0.22 0.688,-0.57 1.374,-1.091 2.196,-1.544 z"
   id="path588" />

				<path
   style="fill:#e86b52"
   d="m 38.971,33.379 c 0.024,-0.013 0.049,-0.027 0.073,-0.04 -0.064,-0.067 -0.13,-0.135 -0.196,-0.201 -0.018,0.009 -0.036,0.019 -0.054,0.028 -0.822,0.418 -1.525,0.914 -2.235,1.459 0.085,0.078 0.172,0.156 0.257,0.234 0.676,-0.548 1.353,-1.048 2.155,-1.48 z"
   id="path589" />

				<path
   style="fill:#e86b52"
   d="m 38.794,33.164 c 0.019,-0.009 0.036,-0.018 0.054,-0.028 -0.08,-0.082 -0.163,-0.164 -0.246,-0.246 -0.038,0.021 -0.077,0.042 -0.115,0.063 -0.795,0.438 -1.462,0.94 -2.129,1.488 0.067,0.061 0.134,0.121 0.2,0.182 0.71,-0.545 1.414,-1.04 2.236,-1.459 z"
   id="path590" />

				<path
   style="fill:#e86b52"
   d="m 38.487,32.954 c 0.038,-0.021 0.076,-0.042 0.115,-0.063 -0.08,-0.08 -0.16,-0.158 -0.243,-0.237 -0.043,0.024 -0.086,0.047 -0.129,0.071 -0.795,0.437 -1.462,0.939 -2.128,1.486 0.085,0.077 0.17,0.154 0.255,0.231 0.668,-0.548 1.335,-1.05 2.13,-1.488 z"
   id="path591" />

				<path
   style="fill:#e86b52"
   d="m 40.363,34.884 c -0.066,-0.087 -0.132,-0.174 -0.2,-0.26 -0.779,0.405 -1.453,0.88 -2.129,1.4 0.06,0.063 0.121,0.125 0.18,0.187 0.691,-0.499 1.375,-0.951 2.149,-1.327 z"
   id="path592" />

				<path
   style="fill:#e86b52"
   d="m 41.55,36.719 c -0.045,-0.083 -0.091,-0.165 -0.137,-0.246 -0.718,0.333 -1.365,0.735 -2.013,1.179 0.044,0.066 0.089,0.131 0.132,0.198 0.654,-0.43 1.303,-0.816 2.018,-1.131 z"
   id="path593" />

				<path
   style="fill:#e86b52"
   d="m 41.657,36.917 c -0.035,-0.066 -0.071,-0.132 -0.107,-0.198 -0.715,0.315 -1.364,0.701 -2.018,1.131 0.047,0.072 0.093,0.145 0.138,0.218 0.641,-0.434 1.28,-0.826 1.987,-1.151 z"
   id="path594" />

				<path
   style="fill:#e86b52"
   d="m 41.876,37.368 c -0.032,-0.071 -0.063,-0.138 -0.093,-0.201 -0.704,0.319 -1.34,0.705 -1.977,1.134 0.024,0.042 0.048,0.084 0.071,0.127 0.016,0.029 0.03,0.06 0.046,0.09 0.623,-0.431 1.251,-0.822 1.953,-1.15 z"
   id="path595" />

				<path
   style="fill:#e86b52"
   d="m 41.783,37.168 c -0.037,-0.076 -0.071,-0.147 -0.103,-0.208 -0.007,-0.015 -0.016,-0.029 -0.023,-0.043 -0.707,0.325 -1.346,0.717 -1.987,1.152 0.047,0.077 0.092,0.155 0.137,0.233 0.636,-0.429 1.272,-0.815 1.976,-1.134 z"
   id="path596" />

				<path
   style="fill:#e86b52"
   d="m 41.413,36.473 c -0.051,-0.089 -0.102,-0.179 -0.155,-0.267 -0.728,0.337 -1.382,0.744 -2.038,1.195 0.061,0.083 0.121,0.167 0.18,0.251 0.648,-0.444 1.294,-0.846 2.013,-1.179 z"
   id="path597" />

				<path
   style="fill:#e86b52"
   d="m 40.973,35.751 c -0.048,-0.075 -0.098,-0.148 -0.147,-0.222 -0.753,0.361 -1.417,0.793 -2.083,1.27 0.06,0.071 0.119,0.142 0.178,0.215 0.657,-0.473 1.314,-0.902 2.052,-1.263 z"
   id="path598" />

				<path
   style="fill:#e86b52"
   d="m 40.662,35.292 c -0.046,-0.065 -0.091,-0.131 -0.138,-0.195 -0.764,0.383 -1.434,0.834 -2.106,1.333 0.062,0.067 0.122,0.135 0.182,0.204 0.653,-0.499 1.308,-0.953 2.062,-1.342 z"
   id="path599" />

				<path
   style="fill:#e86b52"
   d="m 40.826,35.529 c -0.054,-0.08 -0.109,-0.159 -0.164,-0.237 -0.754,0.389 -1.409,0.843 -2.062,1.342 0.048,0.054 0.096,0.11 0.143,0.165 0.666,-0.477 1.33,-0.909 2.083,-1.27 z"
   id="path600" />

				<path
   style="fill:#e86b52"
   d="m 41.109,35.965 c -0.045,-0.071 -0.09,-0.143 -0.136,-0.214 -0.739,0.361 -1.395,0.789 -2.053,1.263 0.044,0.053 0.086,0.108 0.129,0.162 0.664,-0.457 1.324,-0.87 2.06,-1.211 z"
   id="path601" />

				<path
   style="fill:#e86b52"
   d="m 41.258,36.206 c -0.048,-0.081 -0.099,-0.161 -0.149,-0.241 -0.736,0.341 -1.396,0.754 -2.06,1.211 0.058,0.075 0.115,0.15 0.17,0.225 0.657,-0.451 1.311,-0.858 2.039,-1.195 z"
   id="path602" />

				<path
   style="fill:#e86b52"
   d="m 40.523,35.097 c -0.053,-0.072 -0.107,-0.142 -0.16,-0.213 -0.774,0.376 -1.458,0.829 -2.15,1.327 0.069,0.072 0.137,0.145 0.204,0.219 0.673,-0.499 1.342,-0.951 2.106,-1.333 z"
   id="path603" />

			</g>

			
		</g>

		<path
   style="opacity:0.3;fill:#390003"
   d="m 46.722,49.181 c 0.003,-0.002 0.004,-0.005 0.006,-0.007 0.007,-0.009 0.014,-0.018 0.018,-0.028 0.004,-0.01 0.005,-0.02 0.005,-0.031 0,-0.002 0,-0.005 0,-0.007 C 46.32,48.936 45.944,48.717 45.593,48.48 45.07,48.127 44.596,47.735 44.172,47.31 43.026,46.159 42.25,44.765 42.037,43.081 41.927,42.207 41.976,41.264 41.883,40.383 41.79,39.498 41.392,38.776 41.163,37.96 40.323,36.316 39.107,34.884 37.71,33.595 36.428,32.411 35.077,31.289 33.912,30.021 33.468,29.537 33.052,29.034 32.702,28.49 32.365,27.967 32.085,27.41 31.781,26.868 31.37,26.136 30.962,25.4 30.663,24.604 c -0.3,-0.799 -0.493,-1.656 -0.76,-2.474 -0.252,-0.771 -0.44,-1.582 -0.772,-2.309 -0.207,-0.454 -0.464,-0.907 -0.489,-1.457 -0.053,0.04 -0.101,0.094 -0.146,0.167 -0.01,0.016 -0.02,0.034 -0.03,0.052 -0.046,0.088 -0.085,0.196 -0.115,0.323 -0.025,0.101 -0.044,0.215 -0.057,0.34 -0.012,0.114 -0.019,0.237 -0.021,0.371 -0.001,0.105 0.001,0.216 0.006,0.334 0.008,0.163 0.022,0.338 0.043,0.526 0.01,0.087 0.022,0.178 0.036,0.271 0.003,0.025 0.007,0.049 0.011,0.075 0.013,0.081 0.026,0.164 0.041,0.248 0.006,0.034 0.012,0.068 0.018,0.102 0.02,0.114 0.044,0.231 0.069,0.351 0.017,0.079 0.035,0.159 0.054,0.24 0.005,0.022 0.01,0.045 0.016,0.068 0.023,0.097 0.048,0.197 0.074,0.298 0.009,0.038 0.019,0.075 0.029,0.113 0.029,0.109 0.059,0.219 0.091,0.333 0.031,0.111 0.065,0.225 0.101,0.341 0.008,0.026 0.015,0.051 0.023,0.077 0.028,0.091 0.058,0.184 0.088,0.278 0.011,0.033 0.021,0.065 0.032,0.098 0.039,0.121 0.08,0.243 0.124,0.369 0.04,0.116 0.082,0.233 0.125,0.353 0.035,0.096 0.071,0.194 0.108,0.293 0.01,0.026 0.019,0.051 0.029,0.077 0.046,0.121 0.093,0.243 0.142,0.367 0.028,0.071 0.058,0.144 0.087,0.217 0.011,0.026 0.021,0.052 0.031,0.079 0.033,0.079 0.066,0.16 0.099,0.241 0.006,0.012 0.011,0.026 0.017,0.039 0.035,0.082 0.07,0.166 0.106,0.25 0.007,0.016 0.013,0.031 0.02,0.047 0.046,0.108 0.093,0.217 0.142,0.327 0.037,0.083 0.074,0.167 0.112,0.251 0.015,0.033 0.03,0.067 0.046,0.1 0.03,0.067 0.061,0.135 0.092,0.202 0.01,0.021 0.019,0.041 0.029,0.063 0.052,0.112 0.104,0.223 0.159,0.337 0.039,0.082 0.079,0.164 0.118,0.247 0.013,0.027 0.026,0.054 0.039,0.081 0.056,0.116 0.113,0.231 0.172,0.349 0.036,0.072 0.073,0.146 0.11,0.219 0.007,0.013 0.013,0.025 0.019,0.038 0.008,0.017 0.017,0.033 0.026,0.049 0.046,0.09 0.093,0.18 0.142,0.27 0.031,0.057 0.063,0.113 0.095,0.169 0.017,0.031 0.034,0.061 0.051,0.091 0.055,0.095 0.111,0.19 0.169,0.284 0.041,0.067 0.083,0.134 0.126,0.201 0.013,0.021 0.026,0.042 0.04,0.063 0.042,0.066 0.085,0.131 0.128,0.195 0.015,0.022 0.029,0.044 0.043,0.066 0.05,0.074 0.102,0.149 0.153,0.223 0.013,0.019 0.026,0.038 0.039,0.057 0.064,0.09 0.129,0.181 0.195,0.27 0.061,0.084 0.123,0.167 0.185,0.25 0.058,0.076 0.117,0.153 0.175,0.228 0.046,0.059 0.092,0.118 0.139,0.176 0.016,0.02 0.031,0.04 0.047,0.06 0.057,0.073 0.116,0.144 0.174,0.216 0.009,0.012 0.018,0.023 0.028,0.035 0.064,0.079 0.129,0.157 0.194,0.236 0.056,0.068 0.113,0.136 0.17,0.203 0.011,0.013 0.022,0.027 0.033,0.04 0.071,0.085 0.143,0.169 0.215,0.253 0.066,0.076 0.131,0.153 0.196,0.228 0.048,0.056 0.096,0.111 0.144,0.166 0.013,0.016 0.027,0.032 0.04,0.047 0.038,0.044 0.076,0.087 0.114,0.131 0.027,0.031 0.054,0.061 0.081,0.091 0.01,0.011 0.02,0.022 0.029,0.033 0.054,0.061 0.11,0.122 0.165,0.183 0.052,0.056 0.105,0.112 0.157,0.167 0.02,0.021 0.04,0.042 0.06,0.063 0.067,0.071 0.135,0.14 0.203,0.209 0.019,0.019 0.036,0.037 0.055,0.056 0.074,0.074 0.149,0.148 0.224,0.221 0.049,0.048 0.099,0.097 0.149,0.144 0.015,0.015 0.031,0.03 0.047,0.046 0.058,0.055 0.116,0.109 0.174,0.164 0.027,0.026 0.054,0.051 0.08,0.076 0.074,0.07 0.15,0.14 0.225,0.208 0.055,0.051 0.11,0.102 0.165,0.152 0.026,0.023 0.05,0.046 0.075,0.069 0.06,0.055 0.12,0.11 0.181,0.165 0.015,0.013 0.029,0.026 0.043,0.039 l 0.208,0.189 c 0.016,0.014 0.032,0.028 0.047,0.042 0.067,0.061 0.134,0.121 0.2,0.182 0.085,0.078 0.172,0.156 0.257,0.234 0.073,0.068 0.146,0.135 0.219,0.202 0.053,0.049 0.105,0.097 0.157,0.146 0.011,0.009 0.021,0.019 0.031,0.029 0.08,0.075 0.159,0.149 0.239,0.225 0.051,0.048 0.101,0.097 0.152,0.146 0.062,0.06 0.122,0.12 0.182,0.18 0.017,0.017 0.035,0.033 0.052,0.05 0.053,0.052 0.105,0.106 0.157,0.159 0.01,0.01 0.019,0.02 0.029,0.029 0.06,0.063 0.121,0.125 0.18,0.187 0.069,0.072 0.137,0.145 0.204,0.219 0.062,0.067 0.122,0.135 0.182,0.204 0.048,0.054 0.096,0.11 0.143,0.165 0.06,0.071 0.119,0.142 0.178,0.215 0.044,0.053 0.086,0.108 0.129,0.162 0.043,0.056 0.085,0.112 0.127,0.169 0.015,0.019 0.029,0.037 0.043,0.057 0.041,0.056 0.081,0.112 0.121,0.169 0.02,0.027 0.039,0.054 0.059,0.082 0.044,0.066 0.089,0.131 0.132,0.198 0.047,0.072 0.093,0.145 0.138,0.218 0.047,0.077 0.092,0.155 0.137,0.233 0.024,0.042 0.048,0.084 0.071,0.127 0.005,0.009 0.01,0.018 0.015,0.028 0.01,0.021 0.02,0.042 0.031,0.062 0.026,0.05 0.051,0.1 0.076,0.151 0.008,0.016 0.016,0.03 0.023,0.046 0.025,0.052 0.048,0.105 0.071,0.158 0.012,0.027 0.024,0.052 0.035,0.079 0.036,0.083 0.071,0.166 0.104,0.251 0.038,0.096 0.075,0.192 0.108,0.289 0.047,0.133 0.091,0.268 0.133,0.404 0.055,0.18 0.107,0.363 0.155,0.548 0.041,0.16 0.08,0.322 0.117,0.484 0.006,0.025 0.012,0.048 0.018,0.072 0.03,0.133 0.059,0.267 0.087,0.4 0.007,0.036 0.016,0.072 0.024,0.107 0.033,0.154 0.064,0.308 0.095,0.463 0.037,0.182 0.073,0.364 0.11,0.545 0.036,0.176 0.072,0.352 0.109,0.527 0.04,0.185 0.08,0.369 0.123,0.551 0.048,0.202 0.098,0.402 0.152,0.598 0.005,0.017 0.009,0.034 0.014,0.051 0.044,0.155 0.092,0.307 0.142,0.456 0.01,0.03 0.02,0.061 0.03,0.091 0.07,0.197 0.147,0.389 0.234,0.576 0.072,0.154 0.152,0.304 0.24,0.452 0.013,0.022 0.025,0.046 0.039,0.069 10e-4,0.002 0.002,0.004 0.004,0.006 0.048,0.076 0.151,0.212 0.297,0.386 0.102,0.122 0.224,0.263 0.362,0.416 0.091,0.1 0.188,0.205 0.29,0.314 0.025,0.027 0.051,0.053 0.076,0.08 0.104,0.109 0.215,0.221 0.328,0.333 0.029,0.029 0.057,0.057 0.086,0.086 0.132,0.129 0.269,0.259 0.408,0.387 0.148,0.136 0.298,0.269 0.45,0.396 0.138,0.116 0.277,0.226 0.415,0.329 0.117,0.088 0.234,0.17 0.349,0.245 0.036,0.024 0.074,0.047 0.11,0.07 0.173,0.106 0.34,0.194 0.497,0.258 0.075,0.031 0.147,0.055 0.217,0.075 0.062,0.017 0.122,0.029 0.18,0.035 0.002,0 0.003,10e-4 0.005,10e-4 0.028,0.003 0.056,0.005 0.085,0.006 0.026,0 0.052,0 0.076,-0.002 0.002,0 0.005,0 0.007,0 0.025,-0.002 0.049,-0.005 0.072,-0.009 0.004,-10e-4 0.007,-0.002 0.01,-0.003 0.021,-0.005 0.042,-0.01 0.063,-0.016 0.002,-10e-4 0.005,-10e-4 0.007,-0.002 0.021,-0.007 0.042,-0.016 0.062,-0.026 0.004,-0.002 0.009,-0.005 0.013,-0.007 0.02,-0.01 0.04,-0.021 0.058,-0.035 0.013,-0.009 0.023,-0.018 0.031,-0.027 z"
   id="path705" />

		<path
   style="opacity:0.4;fill:#94533f"
   d="m 46.691,49.208 c 0.013,-0.009 0.023,-0.018 0.031,-0.027 0.003,-0.002 0.004,-0.005 0.006,-0.007 0.007,-0.009 0.014,-0.018 0.017,-0.028 0,0 0,0 0.001,-10e-4 0.004,-0.01 0.005,-0.02 0.005,-0.031 0,-0.002 0,-0.005 0,-0.007 -10e-4,-0.01 -0.002,-0.021 -0.006,-0.032 0,0 0,-0.001 0,-0.001 -0.004,-0.011 -0.01,-0.023 -0.017,-0.035 -0.001,-0.002 -0.003,-0.005 -0.005,-0.008 -0.007,-0.011 -0.016,-0.023 -0.025,-0.036 0,0 -10e-4,-10e-4 -0.002,-0.002 -0.011,-0.013 -0.024,-0.027 -0.037,-0.042 -0.003,-0.002 -0.005,-0.005 -0.008,-0.008 -0.014,-0.013 -0.028,-0.027 -0.043,-0.042 0,0 -10e-4,-0.001 -0.002,-0.001 -0.049,-0.047 -0.11,-0.098 -0.178,-0.156 C 46.4,48.72 46.369,48.695 46.338,48.669 46.28,48.619 46.218,48.566 46.152,48.507 46.115,48.474 46.08,48.442 46.045,48.41 46.021,48.388 45.998,48.366 45.974,48.344 45.869,48.245 45.767,48.149 45.672,48.054 45.647,48.029 45.623,48.004 45.599,47.978 45.5,47.878 45.405,47.778 45.316,47.68 45.194,47.545 45.08,47.411 44.972,47.275 44.95,47.248 44.928,47.218 44.907,47.19 44.817,47.074 44.729,46.956 44.644,46.835 44.617,46.797 44.591,46.757 44.565,46.717 44.494,46.612 44.424,46.506 44.355,46.394 44.333,46.357 44.31,46.32 44.287,46.282 44.218,46.169 44.148,46.053 44.079,45.93 44.059,45.894 44.038,45.858 44.017,45.821 43.961,45.722 43.905,45.621 43.848,45.515 43.847,45.513 43.846,45.512 43.845,45.51 43.763,45.358 43.69,45.212 43.626,45.07 43.549,44.899 43.484,44.734 43.43,44.572 43.361,44.369 43.307,44.17 43.266,43.973 43.258,43.935 43.252,43.897 43.245,43.86 43.216,43.705 43.191,43.55 43.172,43.391 43.168,43.359 43.165,43.326 43.161,43.293 43.142,43.111 43.126,42.925 43.113,42.73 43.11,42.691 43.108,42.651 43.105,42.611 43.095,42.445 43.084,42.273 43.073,42.092 43.061,41.899 43.047,41.697 43.03,41.482 43.016,41.302 42.999,41.114 42.978,40.914 42.976,40.888 42.972,40.861 42.97,40.834 42.961,40.746 42.95,40.657 42.939,40.566 42.933,40.517 42.925,40.464 42.916,40.409 42.91,40.375 42.903,40.339 42.895,40.303 42.868,40.172 42.834,40.029 42.793,39.876 42.743,39.694 42.684,39.499 42.619,39.299 42.571,39.15 42.519,38.998 42.465,38.846 42.415,38.704 42.363,38.561 42.31,38.421 42.272,38.32 42.233,38.22 42.194,38.122 42.187,38.104 42.18,38.087 42.173,38.069 42.15,38.012 42.127,37.955 42.105,37.901 42.066,37.805 42.028,37.713 41.99,37.625 41.983,37.608 41.975,37.59 41.968,37.573 41.937,37.502 41.906,37.432 41.877,37.367 41.845,37.296 41.814,37.229 41.784,37.166 41.747,37.09 41.713,37.019 41.681,36.958 41.674,36.943 41.665,36.929 41.658,36.915 41.649,36.897 41.639,36.879 41.629,36.861 41.603,36.813 41.578,36.765 41.552,36.717 41.541,36.697 41.53,36.678 41.519,36.659 41.485,36.596 41.45,36.533 41.414,36.471 41.363,36.382 41.312,36.292 41.259,36.204 41.211,36.123 41.16,36.043 41.11,35.963 c -0.012,-0.019 -0.024,-0.037 -0.036,-0.056 -0.033,-0.053 -0.066,-0.105 -0.1,-0.158 -0.048,-0.075 -0.098,-0.148 -0.147,-0.222 -0.054,-0.08 -0.109,-0.159 -0.164,-0.237 -0.013,-0.019 -0.027,-0.037 -0.04,-0.056 -0.033,-0.047 -0.065,-0.094 -0.099,-0.14 -0.053,-0.072 -0.107,-0.142 -0.16,-0.213 -0.066,-0.087 -0.132,-0.174 -0.2,-0.26 -0.013,-0.016 -0.026,-0.032 -0.038,-0.048 -0.048,-0.06 -0.095,-0.121 -0.144,-0.181 -0.011,-0.013 -0.021,-0.026 -0.033,-0.039 -0.042,-0.052 -0.086,-0.103 -0.129,-0.153 -0.014,-0.016 -0.027,-0.032 -0.04,-0.048 -0.051,-0.06 -0.103,-0.121 -0.155,-0.181 -0.011,-0.013 -0.023,-0.025 -0.034,-0.039 -0.046,-0.052 -0.092,-0.105 -0.139,-0.157 -0.069,-0.077 -0.14,-0.153 -0.21,-0.229 -0.065,-0.071 -0.131,-0.141 -0.198,-0.212 -0.011,-0.011 -0.023,-0.023 -0.034,-0.035 -0.054,-0.055 -0.108,-0.111 -0.162,-0.167 -0.014,-0.014 -0.029,-0.028 -0.044,-0.044 -0.067,-0.067 -0.133,-0.135 -0.202,-0.202 -0.08,-0.08 -0.16,-0.158 -0.243,-0.237 -0.012,-0.011 -0.024,-0.023 -0.037,-0.034 -0.064,-0.061 -0.129,-0.123 -0.195,-0.184 -0.016,-0.015 -0.033,-0.031 -0.049,-0.045 -0.064,-0.059 -0.128,-0.119 -0.193,-0.178 -0.072,-0.066 -0.144,-0.132 -0.219,-0.198 -0.069,-0.062 -0.141,-0.124 -0.211,-0.186 -0.09,-0.079 -0.181,-0.159 -0.274,-0.238 -0.016,-0.014 -0.033,-0.028 -0.05,-0.042 -0.059,-0.05 -0.117,-0.1 -0.176,-0.15 C 36.927,31.371 36.9,31.348 36.872,31.324 36.815,31.277 36.759,31.229 36.703,31.18 36.686,31.166 36.669,31.15 36.652,31.135 36.588,31.079 36.524,31.022 36.46,30.965 36.447,30.954 36.435,30.941 36.422,30.93 36.361,30.875 36.301,30.82 36.241,30.763 36.23,30.752 36.218,30.741 36.207,30.729 36.153,30.678 36.099,30.627 36.046,30.574 36.035,30.564 36.025,30.553 36.014,30.542 v 0 C 35.946,30.475 35.878,30.408 35.811,30.339 35.799,30.328 35.788,30.315 35.777,30.304 35.722,30.248 35.666,30.19 35.612,30.133 35.601,30.121 35.589,30.109 35.578,30.096 35.521,30.036 35.466,29.977 35.41,29.915 35.338,29.837 35.269,29.759 35.199,29.679 35.135,29.605 35.07,29.53 35.006,29.456 c -0.01,-0.012 -0.02,-0.023 -0.029,-0.035 -0.054,-0.064 -0.109,-0.13 -0.163,-0.195 -0.008,-0.009 -0.015,-0.018 -0.023,-0.029 -0.055,-0.067 -0.109,-0.134 -0.162,-0.201 -0.007,-0.009 -0.014,-0.019 -0.021,-0.027 -0.059,-0.075 -0.117,-0.15 -0.174,-0.226 -0.071,-0.095 -0.142,-0.19 -0.21,-0.285 -0.054,-0.075 -0.106,-0.15 -0.157,-0.224 -0.012,-0.017 -0.023,-0.034 -0.035,-0.052 -0.049,-0.071 -0.098,-0.143 -0.146,-0.215 -0.057,-0.087 -0.112,-0.174 -0.167,-0.261 -0.043,-0.069 -0.085,-0.137 -0.126,-0.205 -0.061,-0.102 -0.12,-0.204 -0.176,-0.305 -0.059,-0.105 -0.115,-0.211 -0.168,-0.313 -0.057,-0.111 -0.11,-0.22 -0.16,-0.329 -0.022,-0.047 -0.043,-0.095 -0.064,-0.142 -0.03,-0.068 -0.058,-0.133 -0.088,-0.199 -0.041,-0.094 -0.082,-0.188 -0.123,-0.28 -0.039,-0.09 -0.078,-0.179 -0.117,-0.267 -0.009,-0.02 -0.017,-0.038 -0.025,-0.058 -0.035,-0.08 -0.071,-0.16 -0.105,-0.239 -0.008,-0.018 -0.015,-0.035 -0.023,-0.053 -0.031,-0.072 -0.063,-0.144 -0.094,-0.216 -0.007,-0.016 -0.014,-0.03 -0.021,-0.046 -0.032,-0.075 -0.064,-0.148 -0.097,-0.221 -0.01,-0.024 -0.021,-0.048 -0.031,-0.072 -0.03,-0.07 -0.061,-0.14 -0.09,-0.208 -0.052,-0.119 -0.103,-0.237 -0.153,-0.352 -0.011,-0.025 -0.021,-0.048 -0.031,-0.073 -0.04,-0.091 -0.079,-0.181 -0.117,-0.269 -0.048,-0.111 -0.095,-0.219 -0.141,-0.325 -0.041,-0.094 -0.081,-0.186 -0.12,-0.276 -0.048,-0.111 -0.096,-0.222 -0.143,-0.329 -0.009,-0.02 -0.017,-0.04 -0.026,-0.059 -0.044,-0.1 -0.087,-0.2 -0.129,-0.296 -0.011,-0.025 -0.022,-0.05 -0.033,-0.076 -0.037,-0.085 -0.073,-0.168 -0.109,-0.249 -0.044,-0.102 -0.088,-0.201 -0.131,-0.299 -0.055,-0.126 -0.108,-0.248 -0.16,-0.365 -0.061,-0.138 -0.119,-0.269 -0.175,-0.396 -0.011,-0.024 -0.021,-0.048 -0.032,-0.073 -0.038,-0.086 -0.076,-0.17 -0.112,-0.252 -0.012,-0.025 -0.023,-0.05 -0.034,-0.074 -0.042,-0.093 -0.083,-0.183 -0.122,-0.269 -0.01,-0.024 -0.02,-0.045 -0.03,-0.067 -0.045,-0.099 -0.09,-0.195 -0.132,-0.287 -0.042,-0.089 -0.081,-0.174 -0.12,-0.255 -0.055,-0.117 -0.108,-0.227 -0.159,-0.329 -0.019,-0.038 -0.037,-0.075 -0.055,-0.111 -10e-4,-0.002 -10e-4,-0.004 -0.002,-0.005 -0.049,-0.097 -0.096,-0.187 -0.14,-0.271 -0.045,-0.083 -0.087,-0.159 -0.127,-0.229 -0.012,-0.021 -0.025,-0.042 -0.037,-0.063 -0.054,-0.09 -0.105,-0.171 -0.154,-0.239 -0.014,-0.02 -0.028,-0.038 -0.041,-0.056 -0.044,-0.059 -0.087,-0.11 -0.128,-0.153 -0.014,-0.015 -0.028,-0.028 -0.042,-0.04 -0.059,-0.054 -0.116,-0.093 -0.171,-0.117 -0.017,-0.007 -0.035,-0.014 -0.053,-0.018 -0.001,0 -0.001,0 -0.002,0 -0.107,-0.03 -0.214,-0.01 -0.332,0.043 -0.081,0.037 -0.154,0.107 -0.217,0.209 -0.001,0 0,10e-4 -0.001,0.003 -0.01,0.016 -0.02,0.034 -0.03,0.052 -0.046,0.088 -0.085,0.196 -0.115,0.323 -0.025,0.101 -0.044,0.215 -0.057,0.34 -0.012,0.114 -0.019,0.237 -0.021,0.371 -0.001,0.105 10e-4,0.216 0.006,0.334 0.008,0.163 0.022,0.338 0.043,0.526 0.01,0.087 0.022,0.178 0.036,0.271 0.003,0.025 0.007,0.049 0.011,0.075 0.013,0.081 0.026,0.164 0.041,0.248 0.006,0.034 0.012,0.068 0.018,0.102 0.02,0.114 0.044,0.231 0.069,0.351 0.017,0.079 0.035,0.159 0.054,0.24 0.005,0.022 0.01,0.045 0.016,0.068 0.023,0.097 0.048,0.197 0.074,0.298 0.009,0.038 0.019,0.075 0.029,0.113 0.029,0.109 0.059,0.219 0.091,0.333 0.031,0.111 0.065,0.225 0.101,0.341 0.008,0.026 0.015,0.051 0.023,0.077 0.028,0.091 0.058,0.184 0.088,0.278 0.011,0.033 0.021,0.065 0.032,0.098 0.039,0.121 0.08,0.243 0.124,0.369 0.04,0.116 0.082,0.233 0.125,0.353 0.035,0.096 0.071,0.194 0.108,0.293 0.01,0.026 0.019,0.051 0.029,0.077 0.046,0.121 0.093,0.243 0.142,0.367 0.028,0.071 0.058,0.144 0.087,0.217 0.011,0.026 0.021,0.052 0.031,0.079 0.033,0.079 0.066,0.16 0.099,0.241 0.006,0.012 0.011,0.026 0.017,0.039 0.035,0.082 0.07,0.166 0.106,0.25 0.007,0.016 0.013,0.031 0.02,0.047 0.046,0.108 0.093,0.217 0.142,0.327 0.037,0.083 0.074,0.167 0.112,0.251 0.015,0.033 0.03,0.067 0.046,0.1 0.03,0.067 0.061,0.135 0.092,0.202 0.01,0.021 0.019,0.041 0.029,0.063 0.052,0.112 0.104,0.223 0.159,0.337 0.039,0.082 0.079,0.164 0.118,0.247 0.013,0.027 0.026,0.054 0.039,0.081 0.056,0.116 0.113,0.231 0.172,0.349 0.036,0.072 0.073,0.146 0.11,0.219 0.007,0.013 0.013,0.025 0.019,0.038 0.008,0.017 0.017,0.033 0.026,0.049 0.046,0.09 0.093,0.18 0.142,0.27 0.031,0.057 0.063,0.113 0.095,0.169 0.017,0.031 0.034,0.061 0.051,0.091 0.055,0.095 0.111,0.19 0.169,0.284 0.041,0.067 0.083,0.134 0.126,0.201 0.013,0.021 0.026,0.042 0.04,0.063 0.042,0.066 0.085,0.131 0.128,0.195 0.015,0.022 0.029,0.044 0.043,0.066 0.05,0.074 0.102,0.149 0.153,0.223 0.013,0.019 0.026,0.038 0.039,0.057 0.064,0.09 0.129,0.181 0.195,0.27 0.061,0.084 0.123,0.167 0.185,0.25 0.058,0.076 0.117,0.153 0.175,0.228 0.046,0.059 0.092,0.118 0.139,0.176 0.016,0.02 0.031,0.04 0.047,0.06 0.057,0.073 0.116,0.144 0.174,0.216 0.009,0.012 0.018,0.023 0.028,0.035 0.064,0.079 0.129,0.157 0.194,0.236 0.056,0.068 0.113,0.136 0.17,0.203 0.011,0.013 0.022,0.027 0.033,0.04 0.071,0.085 0.143,0.169 0.215,0.253 0.066,0.076 0.131,0.153 0.196,0.228 0.048,0.056 0.096,0.111 0.144,0.166 0.013,0.016 0.027,0.032 0.04,0.047 0.038,0.044 0.076,0.087 0.114,0.131 0.027,0.031 0.054,0.061 0.081,0.091 0.01,0.011 0.02,0.022 0.029,0.033 0.054,0.061 0.11,0.122 0.165,0.183 0.052,0.056 0.105,0.112 0.157,0.167 0.02,0.021 0.04,0.042 0.06,0.063 0.067,0.071 0.135,0.14 0.203,0.209 0.019,0.019 0.036,0.037 0.055,0.056 0.074,0.074 0.149,0.148 0.224,0.221 0.049,0.048 0.099,0.097 0.149,0.144 0.015,0.015 0.031,0.03 0.047,0.046 0.058,0.055 0.116,0.109 0.174,0.164 0.027,0.026 0.054,0.051 0.08,0.076 0.074,0.07 0.15,0.14 0.225,0.208 0.055,0.051 0.11,0.102 0.165,0.152 0.026,0.023 0.05,0.046 0.075,0.069 0.06,0.055 0.12,0.11 0.181,0.165 0.015,0.013 0.029,0.026 0.043,0.039 0.07,0.063 0.139,0.126 0.208,0.189 0.016,0.014 0.032,0.028 0.047,0.042 0.067,0.061 0.134,0.121 0.2,0.182 0.085,0.078 0.172,0.156 0.257,0.234 0.073,0.068 0.146,0.135 0.219,0.202 0.053,0.049 0.105,0.097 0.157,0.146 0.011,0.009 0.021,0.019 0.031,0.029 0.08,0.075 0.159,0.149 0.239,0.225 0.051,0.048 0.101,0.097 0.152,0.146 0.062,0.06 0.122,0.12 0.182,0.18 0.017,0.017 0.035,0.033 0.052,0.05 0.053,0.052 0.105,0.106 0.157,0.159 0.01,0.01 0.019,0.02 0.029,0.029 0.06,0.063 0.121,0.125 0.18,0.187 0.069,0.072 0.137,0.145 0.204,0.219 0.062,0.067 0.122,0.135 0.182,0.204 0.048,0.054 0.096,0.11 0.143,0.165 0.06,0.071 0.119,0.142 0.178,0.215 0.044,0.053 0.086,0.108 0.129,0.162 0.043,0.056 0.085,0.112 0.127,0.169 0.015,0.019 0.029,0.037 0.043,0.057 0.041,0.056 0.081,0.112 0.121,0.169 0.02,0.027 0.039,0.054 0.059,0.082 0.044,0.066 0.089,0.131 0.132,0.198 0.047,0.072 0.093,0.145 0.138,0.218 0.047,0.077 0.092,0.155 0.137,0.233 0.024,0.042 0.048,0.084 0.071,0.127 0.005,0.009 0.01,0.018 0.015,0.028 0.01,0.021 0.02,0.042 0.031,0.062 0.026,0.05 0.051,0.1 0.076,0.151 v 0 c 0.008,0.016 0.016,0.03 0.023,0.046 0.025,0.052 0.048,0.105 0.071,0.158 0.012,0.027 0.024,0.052 0.035,0.079 0.036,0.083 0.071,0.166 0.104,0.251 0.038,0.096 0.075,0.192 0.108,0.289 0.047,0.133 0.091,0.268 0.133,0.404 0.055,0.18 0.107,0.363 0.155,0.548 0.041,0.16 0.08,0.322 0.117,0.484 0.006,0.025 0.012,0.048 0.018,0.072 0.03,0.133 0.059,0.267 0.087,0.4 0.007,0.036 0.016,0.072 0.024,0.107 0.033,0.154 0.064,0.308 0.095,0.463 0.037,0.182 0.073,0.364 0.11,0.545 0.036,0.176 0.072,0.352 0.109,0.527 0.04,0.185 0.08,0.369 0.123,0.551 0.048,0.202 0.098,0.402 0.152,0.598 0.005,0.017 0.009,0.034 0.014,0.051 0.044,0.155 0.092,0.307 0.142,0.456 0.01,0.03 0.02,0.061 0.03,0.091 0.07,0.197 0.147,0.389 0.234,0.576 0.072,0.154 0.152,0.304 0.24,0.452 0.013,0.022 0.025,0.046 0.039,0.069 10e-4,0.002 0.002,0.004 0.004,0.006 0.048,0.076 0.151,0.212 0.297,0.386 0.102,0.122 0.224,0.263 0.362,0.416 0.091,0.1 0.188,0.205 0.29,0.314 0.025,0.027 0.051,0.053 0.076,0.08 0.104,0.109 0.215,0.221 0.328,0.333 0.029,0.029 0.057,0.057 0.086,0.086 0.132,0.129 0.269,0.259 0.408,0.387 0.148,0.136 0.298,0.269 0.45,0.396 0.138,0.116 0.277,0.226 0.415,0.329 0.117,0.088 0.234,0.17 0.349,0.245 0.036,0.024 0.074,0.047 0.11,0.07 0.173,0.106 0.34,0.194 0.497,0.258 0.075,0.031 0.147,0.055 0.217,0.075 v 0 c 0.062,0.017 0.122,0.029 0.18,0.035 0.002,0 0.003,0.001 0.005,0.001 0.028,0.003 0.056,0.005 0.084,0.006 0,0 10e-4,0 10e-4,0 0.026,0 0.052,0 0.076,-0.002 0.002,0 0.005,0 0.007,0 0.025,-0.002 0.049,-0.005 0.072,-0.009 0.004,-10e-4 0.007,-0.002 0.01,-0.003 0.021,-0.005 0.042,-0.01 0.063,-0.016 0.002,-0.001 0.005,-0.001 0.007,-0.002 0.021,-0.007 0.042,-0.016 0.062,-0.026 0.004,-0.002 0.009,-0.005 0.013,-0.007 0.016,-0.016 0.036,-0.027 0.054,-0.04 z M 42.75,46.072 c -1.062,-1.395 -1.486,-3.76 -1.62,-5.202 -0.135,-1.443 -0.892,-2.799 -1.609,-3.766 -0.717,-0.967 -3.48,-3.473 -4.713,-4.708 -1.233,-1.235 -2.624,-3.077 -3.516,-4.708 -0.892,-1.63 -1.662,-3.5 -2.217,-5.46 -0.555,-1.96 -0.62,-3.453 -0.295,-3.697 0.324,-0.244 0.619,0.325 0.619,0.325 0,0 1.194,2.827 1.742,4.126 0.548,1.3 0.954,2.776 2.476,5.11 1.522,2.332 3.501,4.135 4.792,5.163 1.292,1.028 3.261,3.87 3.831,5.563 0.57,1.692 0.428,3.116 0.621,4.401 0.193,1.286 0.967,2.976 1.378,3.562 0.412,0.586 0.871,1.12 0.66,1.247 -0.211,0.129 -1.087,-0.562 -2.149,-1.956 z"
   id="path706" />

		
		
		
		
	</g>
</svg>
