<?xml version="1.0" encoding="UTF-8" standalone="no"?>
<!-- Created with Inkscape (http://www.inkscape.org/) -->

<svg
   width="20mm"
   height="115.71414mm"
   viewBox="0 0 20.000001 115.71414"
   version="1.1"
   id="svg1"
   xml:space="preserve"
   inkscape:version="1.4.3 (0d15f75, 2025-12-25)"
   sodipodi:docname="earthworm.svg"
   xmlns:inkscape="http://www.inkscape.org/namespaces/inkscape"
   xmlns:sodipodi="http://sodipodi.sourceforge.net/DTD/sodipodi-0.dtd"
   xmlns:xlink="http://www.w3.org/1999/xlink"
   xmlns="http://www.w3.org/2000/svg"
   xmlns:svg="http://www.w3.org/2000/svg"><sodipodi:namedview
     id="namedview1"
     pagecolor="#ffffff"
     bordercolor="#000000"
     borderopacity="0.25"
     inkscape:showpageshadow="2"
     inkscape:pageopacity="0.0"
     inkscape:pagecheckerboard="true"
     inkscape:deskcolor="#d1d1d1"
     inkscape:document-units="mm"
     inkscape:zoom="8.2142634"
     inkscape:cx="22.217452"
     inkscape:cy="94.77417"
     inkscape:window-width="1920"
     inkscape:window-height="1017"
     inkscape:window-x="-8"
     inkscape:window-y="-8"
     inkscape:window-maximized="1"
     inkscape:current-layer="layer1"
     showgrid="false" /><defs
     id="defs1"><linearGradient
       inkscape:collect="always"
       xlink:href="#linearGradient2"
       id="linearGradient3"
       x1="118.16184"
       y1="78.41272"
       x2="124.89391"
       y2="78.41272"
       gradientUnits="userSpaceOnUse"
       gradientTransform="translate(-0.06612251,0.18282112)" /><linearGradient
       id="linearGradient2"
       inkscape:collect="always"><stop
         style="stop-color:#ffa8ac;stop-opacity:1;"
         offset="0"
         id="stop2" /><stop
         style="stop-color:#d98f93;stop-opacity:1;"
         offset="1"
         id="stop3" /></linearGradient><filter
       inkscape:collect="always"
       style="color-interpolation-filters:sRGB"
       id="filter3"
       x="-0.035132895"
       y="-0.002020157"
       width="1.0702661"
       height="1.0040403"><feGaussianBlur
         inkscape:collect="always"
         stdDeviation="0.076175365"
         id="feGaussianBlur3" /></filter></defs><g
     inkscape:label="Layer 1"
     inkscape:groupmode="layer"
     id="layer1"
     transform="translate(-111.46435,-20.738467)"><path
       id="path1-5"
       style="fill:url(#linearGradient3);fill-opacity:1;stroke:#70181c;stroke-width:0.1;stroke-dasharray:none;stroke-opacity:1;filter:url(#filter3)"
       d="M 119.57207,131.18021 C 119.19697,129.51637 119.04175,126.09099 119.04175,126.09099 L 118.67572,120.81014 118.56021,115.61715 118.49971,110.50286 118.42931,105.30713 118.36071,100.25053 118.28811,94.898523 118.21921,89.818843 118.15091,84.778613 118.15491,79.547273 118.15891,74.468233 118.16291,69.320823 118.16691,64.196223 118.17091,59.458783 118.17391,54.949093 118.17791,49.462858 C 118.14681,45.524316 118.12821,41.587194 118.20621,37.649518 L 118.50554,32.506933 119.17622,26.426288 C 119.61069,23.691826 120.08452,21.026652 121.35257,20.971553 122.23994,20.943893 122.99027,23.075163 123.57425,26.445462 L 124.17682,32.468776 124.47614,37.748017 C 124.59066,41.624683 124.68063,45.502019 124.77778,49.379148 L 124.75688,54.971853 124.74008,59.458763 124.72198,64.287303 124.70308,69.343523 124.68358,74.559253 124.66468,79.615473 124.64518,84.808783 124.61258,89.842083 124.57838,95.126053 124.54518,100.25046 124.51138,105.4664 124.47858,110.53303 124.37252,115.78397 124.16591,120.79476 123.82265,126.07561 C 123.82265,126.07561 123.62309,129.504 123.224,131.16483 122.80421,132.91183 123.1494,136.23316 121.35269,136.21976 119.57112,136.20646 119.96389,132.91822 119.57207,131.18021 Z"
       inkscape:label="body"
       sodipodi:nodetypes="acccccccccccccccccccccccccccccccccccccccaaa" /><g
       id="g1"
       inkscape:label="segments"
       transform="translate(0,0.10013095)"><path
         style="opacity:1;fill:none;fill-opacity:0.98374;stroke:#000000;stroke-width:0.25;stroke-dasharray:none;stroke-opacity:0.175377"
         d="M 119.69272,130.99066 C 120.86349,131.04706 122.17503,130.99018 123.27744,130.99366"
         id="path1-12-4"
         inkscape:label="s20"
         sodipodi:nodetypes="cc" /><path
         style="opacity:1;fill:none;fill-opacity:0.98374;stroke:#000000;stroke-width:0.25;stroke-dasharray:none;stroke-opacity:0.175377"
         d="M 119.13175,125.88906 C 120.68224,125.94436 122.41915,125.88859 123.8791,125.89206"
         id="path1-12"
         inkscape:label="s19"
         sodipodi:nodetypes="cc" /><path
         style="opacity:1;fill:none;fill-opacity:0.98374;stroke:#000000;stroke-width:0.25;stroke-dasharray:none;stroke-opacity:0.175377"
         d="M 118.75612,120.59521 C 120.536,120.65001 122.52988,120.59474 124.20582,120.59821"
         id="path1-8"
         inkscape:label="s18"
         sodipodi:nodetypes="cc" /><path
         style="opacity:1;fill:none;fill-opacity:0.98374;stroke:#000000;stroke-width:0.25;stroke-dasharray:none;stroke-opacity:0.175377"
         d="M 118.6532,115.59968 C 120.54118,115.65428 122.65615,115.59922 124.43388,115.60268"
         id="path1-3"
         inkscape:label="s17"
         sodipodi:nodetypes="cc" /><path
         style="opacity:1;fill:none;fill-opacity:0.98374;stroke:#000000;stroke-width:0.25;stroke-dasharray:none;stroke-opacity:0.175377"
         d="M 118.58724,110.33082 C 120.53059,110.38532 122.70759,110.33035 124.53744,110.33382"
         id="path1-60"
         inkscape:label="s16"
         sodipodi:nodetypes="cc" /><path
         style="opacity:1;fill:none;fill-opacity:0.98374;stroke:#000000;stroke-width:0.25;stroke-dasharray:none;stroke-opacity:0.175377"
         d="M 118.52317,105.20281 C 120.49553,105.25731 122.70503,105.20233 124.5622,105.20581"
         id="path1-54"
         inkscape:label="s15"
         sodipodi:nodetypes="cc" /><path
         style="opacity:1;fill:none;fill-opacity:0.98374;stroke:#000000;stroke-width:0.25;stroke-dasharray:none;stroke-opacity:0.175377"
         d="M 118.45728,100.05765 C 120.46654,100.11205 122.71738,100.05718 124.60931,100.06065"
         id="path1-72"
         inkscape:label="s14"
         sodipodi:nodetypes="cc" /><path
         style="opacity:1;fill:none;fill-opacity:0.98374;stroke:#000000;stroke-width:0.25;stroke-dasharray:none;stroke-opacity:0.175377"
         d="M 118.37971,94.778535 C 120.42061,94.832825 122.70689,94.778067 124.6286,94.781435"
         id="path1-15"
         inkscape:label="s13"
         sodipodi:nodetypes="cc" /><path
         style="opacity:1;fill:none;fill-opacity:0.98374;stroke:#000000;stroke-width:0.25;stroke-dasharray:none;stroke-opacity:0.175377"
         d="M 118.27987,89.763913 C 120.36587,89.817973 122.70268,89.763448 124.66686,89.766713"
         id="path1-98"
         inkscape:label="s12"
         sodipodi:nodetypes="cc" /><path
         style="opacity:1;fill:none;fill-opacity:0.98374;stroke:#000000;stroke-width:0.25;stroke-dasharray:none;stroke-opacity:0.175377"
         d="M 118.22254,84.654562 C 120.33988,84.708712 122.71182,84.654095 124.70552,84.657462"
         id="path1-78"
         inkscape:label="s11"
         sodipodi:nodetypes="cc" /><path
         style="opacity:1;fill:none;fill-opacity:0.98374;stroke:#000000;stroke-width:0.25;stroke-dasharray:none;stroke-opacity:0.175377"
         d="M 118.24331,79.353767 C 120.35539,79.407917 122.72141,79.353302 124.71014,79.356667"
         id="path1-66"
         inkscape:label="s10"
         sodipodi:nodetypes="cc" /><path
         style="opacity:1;fill:none;fill-opacity:0.98374;stroke:#000000;stroke-width:0.25;stroke-dasharray:none;stroke-opacity:0.175377"
         d="M 118.24124,74.299388 C 120.36387,74.353528 122.74171,74.298922 124.74037,74.302288"
         id="path1-9"
         inkscape:label="s9"
         sodipodi:nodetypes="cc" /><path
         style="opacity:1;fill:none;fill-opacity:0.98374;stroke:#000000;stroke-width:0.25;stroke-dasharray:none;stroke-opacity:0.175377"
         d="M 118.24671,69.150807 C 120.37197,69.204947 122.75276,69.150341 124.7539,69.153707"
         id="path1-09"
         inkscape:label="s8"
         sodipodi:nodetypes="cc" /><path
         style="opacity:1;fill:none;fill-opacity:0.98374;stroke:#000000;stroke-width:0.25;stroke-dasharray:none;stroke-opacity:0.175377"
         d="M 118.27113,64.031112 C 120.43722,64.084882 122.60394,64.031725 124.77027,64.033912"
         id="path1-0"
         inkscape:label="s7" /><path
         style="opacity:1;fill:none;fill-opacity:0.98374;stroke:#000000;stroke-width:0.25;stroke-dasharray:none;stroke-opacity:0.175377"
         d="M 118.27452,59.307342 C 120.40768,59.361472 122.79733,59.306876 124.80593,59.310242"
         id="path1-6"
         inkscape:label="s6"
         sodipodi:nodetypes="cc" /><path
         style="opacity:1;fill:none;fill-opacity:0.98374;stroke:#000000;stroke-width:0.25;stroke-dasharray:none;stroke-opacity:0.175377"
         d="M 118.2432,54.826494 C 120.39482,54.880584 122.80514,54.826029 124.83111,54.829394"
         id="path1-7"
         inkscape:label="s5"
         sodipodi:nodetypes="cc" /><path
         style="opacity:1;fill:none;fill-opacity:0.98374;stroke:#000000;stroke-width:0.25;stroke-dasharray:none;stroke-opacity:0.175377"
         d="M 118.24131,49.146846 C 120.39559,49.200926 122.8089,49.146382 124.83738,49.149646"
         id="path1-13"
         inkscape:label="s4"
         sodipodi:nodetypes="cc" /><path
         style="opacity:1;fill:none;fill-opacity:0.98374;stroke:#000000;stroke-width:0.25;stroke-dasharray:none;stroke-opacity:0.175377"
         d="M 118.30723,37.425846 C 120.3323,37.480156 122.60088,37.425378 124.50771,37.428746"
         id="path1-1"
         inkscape:label="s3"
         sodipodi:nodetypes="cc" /><path
         style="opacity:1;fill:none;fill-opacity:0.98374;stroke:#000000;stroke-width:0.25;stroke-dasharray:none;stroke-opacity:0.175377"
         d="M 118.5703,32.313596 C 120.38069,32.368326 122.52951,32.297016 124.23416,32.300396"
         id="path1-2"
         inkscape:label="s2"
         sodipodi:nodetypes="cc" /><path
         style="opacity:1;fill:none;fill-opacity:0.98374;stroke:#000000;stroke-width:0.25;stroke-dasharray:none;stroke-opacity:0.175377"
         d="M 119.26342,26.252606 C 120.68734,26.308256 122.28246,26.252128 123.62323,26.255506"
         id="path1"
         inkscape:label="s1"
         sodipodi:nodetypes="cc" /></g><path
       id="rect1"
       style="display:inline;fill:#d78781;fill-opacity:1;stroke:none;stroke-width:0.120592;stroke-opacity:1"
       d="M 118.4752,40.012052 H 124.4535 C 125.29051,40.012052 125.96435,40.737548 125.96435,41.638723 V 45.282231 C 125.96435,46.183406 125.29051,46.908902 124.4535,46.908902 H 118.4752 C 117.63819,46.908902 116.96435,46.183406 116.96435,45.282231 V 41.638723 C 116.96435,40.737548 117.63819,40.012052 118.4752,40.012052 Z"
       inkscape:label="ring" /></g></svg>
