<?xml version="1.0" encoding="UTF-8" standalone="no"?>
<!-- Created with Inkscape (http://www.inkscape.org/) -->

<svg
   width="34mm"
   height="33mm"
   viewBox="0 0 34 33"
   version="1.1"
   id="svg1"
   inkscape:version="1.4.3 (0d15f75, 2025-12-25)"
   sodipodi:docname="flower.svg"
   xmlns:inkscape="http://www.inkscape.org/namespaces/inkscape"
   xmlns:sodipodi="http://sodipodi.sourceforge.net/DTD/sodipodi-0.dtd"
   xmlns="http://www.w3.org/2000/svg"
   xmlns:svg="http://www.w3.org/2000/svg">
  <sodipodi:namedview
     id="namedview1"
     pagecolor="#ffffff"
     bordercolor="#000000"
     borderopacity="0.25"
     inkscape:showpageshadow="2"
     inkscape:pageopacity="0.0"
     inkscape:pagecheckerboard="0"
     inkscape:deskcolor="#d1d1d1"
     inkscape:document-units="mm"
     inkscape:zoom="0.72604517"
     inkscape:cx="396.66953"
     inkscape:cy="561.25984"
     inkscape:window-width="1920"
     inkscape:window-height="1017"
     inkscape:window-x="-8"
     inkscape:window-y="-8"
     inkscape:window-maximized="1"
     inkscape:current-layer="layer1" />
  <defs
     id="defs1" />
  <g
     inkscape:label="Layer 1"
     inkscape:groupmode="layer"
     id="layer1">
    <g
       id="OBJECTS"
       transform="matrix(0.26458333,0,0,0.26458333,-87.913939,-11.776235)">
      <g
         id="g173">
		<path
   style="fill:#e10047"
   d="m 408.754,102.945 -6.044,-6.208 c 0.67,-1.188 1.342,-2.335 2.007,-3.435 16.316,-27.067 30.374,-27.701 37.027,-25.896 2.816,0.763 5.349,2.454 7.037,4.835 5.984,8.437 -2.727,18.588 -2.727,18.588 0,0 13.01,3.089 13.128,13.43 0.032,2.918 -1.019,5.777 -2.85,8.05 -4.49,5.593 -17.032,13.755 -48.816,-0.785 z"
   id="path136" />

		<path
   style="fill:#ff566e"
   d="m 404.742,93.394 c 0,0 -0.007,-0.029 -0.025,-0.092 16.316,-27.067 30.374,-27.701 37.027,-25.896 2.816,0.763 5.349,2.454 7.037,4.835 5.984,8.437 -2.727,18.588 -2.727,18.588 0,0 2.423,-14.414 -7.073,-16.906 0,0 -14.324,-4.133 -30.774,22.358 z"
   id="path137" />

		<path
   style="fill:#3c2415"
   d="m 421.808,70.998 c 8.659,-6.292 15.816,-6.167 20.305,-4.947 3.193,0.868 5.967,2.779 7.813,5.379 2.735,3.856 3.095,8.624 1.039,13.787 -0.801,2.011 -1.816,3.703 -2.603,4.86 1.317,0.474 3.133,1.246 4.964,2.402 4.698,2.969 7.209,7.037 7.263,11.765 0.036,3.189 -1.086,6.365 -3.158,8.944 v 0 c -4.986,6.203 -18.176,14.401 -50.497,-0.387 -0.566,-0.259 -0.894,-0.861 -0.805,-1.477 l 1.142,-7.895 -5.565,-5.715 c -0.434,-0.446 -0.522,-1.125 -0.217,-1.668 7.251,-12.864 14.164,-20.577 20.319,-25.048 z m 33.433,40.431 c 1.667,-2.073 2.568,-4.614 2.54,-7.154 -0.103,-9.14 -11.934,-12.055 -12.053,-12.083 -0.476,-0.113 -0.859,-0.466 -1.01,-0.932 -0.151,-0.466 -0.049,-0.976 0.27,-1.348 0.078,-0.092 7.919,-9.431 2.649,-16.86 -1.47,-2.071 -3.693,-3.597 -6.26,-4.295 -6.82,-1.853 -20.628,-0.664 -36.927,27.753 l 5.311,5.455 c 0.304,0.312 0.446,0.748 0.383,1.18 l -1.091,7.535 c 29.889,13.412 41.76,6.26 46.188,0.749 z"
   id="path138" />

		<path
   style="fill:#e10047"
   d="m 404.048,117.432 4.037,-7.666 c 1.337,0.27 2.635,0.555 3.887,0.847 30.784,7.154 35.731,20.328 36.07,27.213 0.144,2.914 -0.681,5.845 -2.424,8.186 -6.175,8.298 -18.521,3.15 -18.521,3.15 0,0 1.082,13.328 -8.715,16.636 -2.765,0.932 -5.809,0.816 -8.537,-0.223 -6.707,-2.542 -18.345,-11.948 -14.338,-46.669 z"
   id="path139" />

		<path
   style="fill:#ff566e"
   d="m 411.892,110.665 c 0,0 0.026,-0.016 0.08,-0.053 30.784,7.154 35.731,20.328 36.07,27.213 0.144,2.914 -0.681,5.845 -2.424,8.186 -6.175,8.298 -18.521,3.15 -18.521,3.15 0,0 14.457,-2.149 13.893,-11.952 0,0 -0.496,-14.9 -30.774,-22.358 z"
   id="path140" />

		<path
   style="fill:#3c2415"
   d="m 438.465,119.975 c 8.659,6.291 10.753,13.136 10.98,17.782 0.161,3.305 -0.798,6.534 -2.701,9.092 -2.822,3.793 -7.245,5.608 -12.792,5.248 -2.16,-0.14 -4.083,-0.583 -5.427,-0.974 -0.043,1.399 -0.217,3.365 -0.75,5.463 -1.372,5.386 -4.465,9.031 -8.944,10.543 -3.021,1.02 -6.389,0.934 -9.482,-0.24 v 0 c -7.44,-2.825 -19.313,-12.837 -15.236,-48.146 0.072,-0.619 0.542,-1.116 1.156,-1.222 l 7.861,-1.353 3.716,-7.059 c 0.29,-0.551 0.909,-0.844 1.519,-0.721 14.474,2.924 23.946,7.115 30.1,11.587 z m -28.121,44.291 c 2.487,0.944 5.182,1.017 7.589,0.205 8.661,-2.923 7.777,-15.075 7.767,-15.197 -0.039,-0.488 0.178,-0.961 0.574,-1.248 0.396,-0.288 0.913,-0.348 1.365,-0.16 0.112,0.046 11.416,4.618 16.854,-2.691 1.516,-2.038 2.279,-4.624 2.15,-7.281 -0.345,-7.059 -5.743,-19.824 -37.806,-26.543 l -3.547,6.737 c -0.203,0.386 -0.574,0.655 -1.004,0.729 l -7.503,1.291 c -3.519,32.57 6.952,41.649 13.561,44.158 z"
   id="path141" />

		<path
   style="fill:#e10047"
   d="m 388.816,117.433 8.539,1.47 c 0.156,1.355 0.286,2.678 0.396,3.958 2.709,31.488 -8.291,40.264 -14.734,42.714 -2.727,1.038 -5.77,1.158 -8.535,0.225 -9.8,-3.308 -8.719,-16.641 -8.719,-16.641 0,0 -12.341,5.148 -18.515,-3.148 -1.741,-2.342 -2.571,-5.273 -2.426,-8.188 0.345,-7.164 5.694,-21.139 39.954,-28.058 z"
   id="path142" />

		<path
   style="fill:#ff566e"
   d="m 397.675,122.802 c 0,0 0.023,0.019 0.075,0.06 2.709,31.488 -8.291,40.264 -14.734,42.714 -2.727,1.038 -5.77,1.158 -8.535,0.225 -9.8,-3.308 -8.719,-16.641 -8.719,-16.641 0,0 6.511,13.085 15.66,9.52 0,0 14.017,-5.076 11.754,-36.176 z"
   id="path143" />

		<path
   style="fill:#3c2415"
   d="m 397.033,150.952 c -3.307,10.18 -9.17,14.286 -13.519,15.937 -3.094,1.175 -6.461,1.26 -9.482,0.241 -4.479,-1.512 -7.572,-5.158 -8.944,-10.544 -0.534,-2.098 -0.707,-4.064 -0.751,-5.462 -1.344,0.391 -3.267,0.834 -5.427,0.974 -5.546,0.359 -9.969,-1.456 -12.791,-5.249 -1.904,-2.558 -2.863,-5.788 -2.702,-9.092 v 0 c 0.388,-7.948 6.24,-22.334 41.081,-29.368 0.611,-0.123 1.229,0.171 1.519,0.722 l 3.716,7.058 7.861,1.353 c 0.614,0.106 1.084,0.604 1.156,1.222 1.693,14.669 0.633,24.973 -1.717,32.208 z M 346.22,137.893 c -0.13,2.657 0.634,5.243 2.15,7.281 5.456,7.334 16.74,2.738 16.854,2.69 0.452,-0.188 0.969,-0.128 1.365,0.16 0.396,0.288 0.613,0.761 0.573,1.249 -0.009,0.121 -0.864,12.284 7.767,15.197 2.407,0.812 5.102,0.739 7.589,-0.205 6.607,-2.509 17.079,-11.588 13.561,-44.158 l -7.504,-1.291 c -0.43,-0.074 -0.8,-0.344 -1.003,-0.729 l -3.547,-6.737 c -32.062,6.719 -37.462,19.483 -37.805,26.543 z"
   id="path144" />

		<path
   style="fill:#e10047"
   d="m 384.107,102.947 1.24,8.575 c -1.24,0.567 -2.458,1.1 -3.642,1.599 -29.109,12.307 -40.855,4.557 -45.177,-0.814 -1.83,-2.273 -2.885,-5.129 -2.851,-8.048 0.118,-10.343 13.132,-13.435 13.132,-13.435 0,0 -8.71,-10.147 -2.727,-18.581 1.689,-2.38 4.22,-4.074 7.037,-4.838 6.92,-1.886 21.864,-1.117 39.032,29.328 z"
   id="path145" />

		<path
   style="fill:#ff566e"
   d="m 381.739,113.032 c 0,0 -0.011,0.028 -0.034,0.09 -29.109,12.307 -40.855,4.557 -45.177,-0.814 -1.83,-2.273 -2.885,-5.129 -2.851,-8.048 0.118,-10.343 13.132,-13.435 13.132,-13.435 0,0 -10.433,10.236 -4.215,17.835 0,0 9.159,11.763 38.038,0 z"
   id="path146" />

		<path
   style="fill:#3c2415"
   d="m 354.768,121.12 c -10.703,0 -16.42,-4.307 -19.335,-7.932 -2.073,-2.579 -3.195,-5.755 -3.159,-8.944 0.054,-4.727 2.565,-8.796 7.264,-11.765 1.83,-1.156 3.646,-1.928 4.963,-2.402 -0.787,-1.157 -1.803,-2.85 -2.604,-4.861 -2.056,-5.163 -1.696,-9.931 1.039,-13.787 1.845,-2.601 4.619,-4.511 7.812,-5.379 v 0 c 7.679,-2.088 23.169,-0.967 40.626,29.995 0.306,0.543 0.218,1.222 -0.217,1.668 l -5.564,5.715 1.143,7.895 c 0.089,0.616 -0.239,1.217 -0.805,1.477 -13.428,6.143 -23.555,8.32 -31.163,8.32 z m -3.282,-52.362 c -2.567,0.698 -4.79,2.223 -6.26,4.295 -5.289,7.455 2.569,16.767 2.649,16.86 0.318,0.371 0.421,0.882 0.27,1.347 -0.151,0.465 -0.534,0.819 -1.011,0.931 -0.118,0.028 -11.95,2.975 -12.053,12.083 -0.029,2.54 0.874,5.08 2.54,7.154 4.428,5.508 16.298,12.662 46.187,-0.748 l -1.091,-7.535 c -0.063,-0.431 0.079,-0.867 0.384,-1.18 l 5.311,-5.455 C 372.115,68.094 358.307,66.903 351.486,68.758 Z"
   id="path147" />

		<path
   style="fill:#3c2415"
   d="m 384.106,104.349 c -0.144,0 -0.29,-0.022 -0.434,-0.069 L 362.63,97.443 c -0.737,-0.239 -1.141,-1.031 -0.901,-1.768 0.24,-0.738 1.032,-1.14 1.768,-0.901 l 21.042,6.837 c 0.737,0.239 1.141,1.031 0.901,1.768 -0.192,0.593 -0.742,0.97 -1.334,0.97 z"
   id="path148" />

		<path
   style="fill:#3c2415"
   d="m 367.593,108.659 c -0.456,0 -0.831,-0.365 -0.841,-0.824 -0.01,-0.465 0.358,-0.85 0.823,-0.86 l 15.036,-0.328 c 0.478,-0.003 0.85,0.358 0.86,0.823 0.01,0.465 -0.358,0.85 -0.824,0.86 l -15.036,0.328 c -0.005,0.001 -0.011,0.001 -0.018,0.001 z"
   id="path149" />

		<path
   style="fill:#3c2415"
   d="m 385.582,99.243 c -0.178,0 -0.357,-0.056 -0.509,-0.172 l -11.971,-9.103 c -0.37,-0.281 -0.442,-0.81 -0.161,-1.179 0.282,-0.37 0.809,-0.443 1.18,-0.161 l 11.971,9.103 c 0.37,0.281 0.442,0.809 0.161,1.179 -0.166,0.218 -0.417,0.333 -0.671,0.333 z"
   id="path150" />

		<path
   style="fill:#3c2415"
   d="m 390.148,117.867 c -0.044,0.137 -0.111,0.269 -0.2,0.391 l -13.005,17.9 c -0.455,0.627 -1.333,0.766 -1.96,0.311 -0.628,-0.456 -0.766,-1.334 -0.31,-1.96 l 13.005,-17.9 c 0.455,-0.627 1.333,-0.766 1.96,-0.311 0.505,0.367 0.693,1.007 0.51,1.569 z"
   id="path151" />

		<path
   style="fill:#3c2415"
   d="m 389.145,134.904 c -0.141,0.434 -0.604,0.677 -1.043,0.546 -0.445,-0.134 -0.697,-0.604 -0.563,-1.049 L 391.873,120 c 0.145,-0.455 0.603,-0.698 1.049,-0.564 0.445,0.134 0.697,0.603 0.563,1.049 l -4.334,14.401 c -0.002,0.006 -0.004,0.012 -0.006,0.018 z"
   id="path152" />

		<path
   style="fill:#3c2415"
   d="m 385.749,114.886 c -0.055,0.169 -0.163,0.322 -0.321,0.431 l -12.357,8.572 c -0.382,0.265 -0.906,0.17 -1.171,-0.212 -0.265,-0.383 -0.171,-0.907 0.212,-1.172 l 12.357,-8.572 c 0.382,-0.265 0.906,-0.17 1.171,0.212 0.156,0.226 0.187,0.5 0.109,0.741 z"
   id="path153" />

		<path
   style="fill:#3c2415"
   d="m 404.872,116.299 c 0.117,0.085 0.222,0.188 0.311,0.311 l 13.005,17.9 c 0.456,0.627 0.317,1.504 -0.31,1.96 -0.628,0.456 -1.505,0.316 -1.96,-0.311 l -13.005,-17.9 c -0.456,-0.627 -0.317,-1.504 0.31,-1.96 0.505,-0.366 1.171,-0.348 1.649,0 z"
   id="path154" />

		<path
   style="fill:#3c2415"
   d="m 420.766,122.517 c 0.369,0.268 0.458,0.784 0.197,1.161 -0.265,0.382 -0.789,0.477 -1.171,0.212 l -12.357,-8.572 c -0.389,-0.278 -0.477,-0.789 -0.212,-1.172 0.265,-0.382 0.789,-0.477 1.172,-0.211 l 12.357,8.572 c 0.003,0.003 0.008,0.006 0.014,0.01 z"
   id="path155" />

		<path
   style="fill:#3c2415"
   d="m 400.678,119.562 c 0.144,0.104 0.256,0.255 0.311,0.438 l 4.334,14.401 c 0.134,0.445 -0.118,0.915 -0.563,1.048 -0.446,0.134 -0.915,-0.118 -1.049,-0.564 l -4.334,-14.401 c -0.134,-0.445 0.118,-0.915 0.563,-1.049 0.262,-0.077 0.533,-0.022 0.738,0.127 z"
   id="path156" />

		<path
   style="fill:#3c2415"
   d="m 407.93,101.81 c 0.117,-0.085 0.248,-0.153 0.392,-0.199 l 21.042,-6.837 c 0.737,-0.24 1.529,0.164 1.768,0.901 0.24,0.738 -0.164,1.529 -0.901,1.768 l -21.042,6.837 c -0.737,0.24 -1.529,-0.164 -1.768,-0.901 -0.192,-0.593 0.031,-1.221 0.509,-1.569 z"
   id="path157" />

		<path
   style="fill:#3c2415"
   d="m 418.756,88.617 c 0.369,-0.268 0.887,-0.193 1.165,0.172 0.281,0.37 0.21,0.898 -0.16,1.18 l -11.971,9.103 c -0.385,0.284 -0.898,0.21 -1.18,-0.16 -0.281,-0.37 -0.21,-0.898 0.161,-1.18 l 11.971,-9.103 c 0.004,-0.005 0.009,-0.008 0.014,-0.012 z"
   id="path158" />

		<path
   style="fill:#3c2415"
   d="m 409.738,106.808 c 0.144,-0.104 0.322,-0.164 0.513,-0.16 l 15.035,0.328 c 0.465,0.01 0.833,0.395 0.823,0.86 -0.011,0.466 -0.395,0.834 -0.86,0.823 l -15.035,-0.328 c -0.465,-0.01 -0.833,-0.395 -0.823,-0.86 0.006,-0.274 0.142,-0.514 0.347,-0.663 z"
   id="path159" />

		<path
   style="fill:#e10047"
   d="m 372.831,51.634 c 1.598,-2.441 3.99,-4.327 6.775,-5.197 9.872,-3.085 16.833,8.339 16.833,8.339 0,0 6.961,-11.424 16.833,-8.339 2.785,0.87 5.177,2.756 6.775,5.197 2.455,3.751 4.896,10.803 0.607,21.847 -0.095,0.244 -0.901,0.895 -1.041,1.09 -0.268,0.373 -0.323,0.331 -0.751,0.671 -0.807,0.64 -1.5,1.301 -2.835,2.787 -5.161,5.742 -9.851,11.269 -13.309,19.793 l -6.278,-3.831 -7.775,3.831 C 365.012,72.088 368.903,57.636 372.831,51.634 Z"
   id="path160" />

		<path
   style="fill:#3c2415"
   d="m 396.431,95.394 c -0.775,0 -1.403,-0.628 -1.403,-1.403 V 71.866 c 0,-0.775 0.628,-1.403 1.403,-1.403 0.775,0 1.403,0.628 1.403,1.403 v 22.125 c 0,0.775 -0.628,1.403 -1.403,1.403 z"
   id="path161" />

		<path
   style="fill:#3c2415"
   d="m 391.653,94.833 c -0.348,0 -0.673,-0.217 -0.795,-0.564 L 385.9,80.07 c -0.154,-0.439 0.078,-0.919 0.517,-1.072 0.437,-0.152 0.919,0.078 1.072,0.517 l 4.958,14.198 c 0.154,0.439 -0.078,0.919 -0.517,1.072 -0.091,0.032 -0.185,0.048 -0.277,0.048 z"
   id="path162" />

		<path
   style="fill:#3c2415"
   d="m 401.209,94.833 c -0.092,0 -0.186,-0.015 -0.277,-0.047 -0.439,-0.153 -0.671,-0.633 -0.517,-1.072 l 4.958,-14.198 c 0.154,-0.439 0.636,-0.669 1.072,-0.517 0.439,0.153 0.671,0.633 0.517,1.072 l -4.958,14.198 c -0.122,0.346 -0.447,0.564 -0.795,0.564 z"
   id="path163" />

		<path
   style="fill:#ff566e"
   d="m 386.106,94.856 c 0,0 -0.03,-0.002 -0.096,-0.004 -20.7,-23.882 -16.959,-37.448 -13.186,-43.217 1.596,-2.442 3.987,-4.328 6.773,-5.198 9.873,-3.084 16.836,8.338 16.836,8.338 0,0 -12.959,-6.759 -18.264,1.503 0,0 -8.357,12.346 11.755,36.177 z"
   id="path164" />

		<path
   style="fill:#3c2415"
   d="M 387.63,98.772 C 363.579,72.603 367.299,57.525 371.657,50.866 v 0 c 1.812,-2.768 4.486,-4.817 7.53,-5.768 4.513,-1.41 9.158,-0.279 13.434,3.273 1.665,1.383 2.96,2.872 3.818,3.978 0.858,-1.106 2.153,-2.595 3.818,-3.978 4.276,-3.551 8.922,-4.682 13.433,-3.272 3.043,0.951 5.718,2.999 7.53,5.768 2.783,4.252 5.171,11.716 0.74,23.125 -0.165,0.425 -0.489,0.74 -1.003,1.219 -0.094,0.088 -0.182,0.168 -0.241,0.229 -0.282,0.381 -0.485,0.54 -0.738,0.72 -0.063,0.044 -0.14,0.099 -0.247,0.184 -0.685,0.543 -1.312,1.122 -2.663,2.624 -5.175,5.759 -9.73,11.192 -13.052,19.383 -0.154,0.381 -0.469,0.676 -0.86,0.805 -0.39,0.129 -0.818,0.08 -1.171,-0.135 l -5.62,-3.429 -7.082,3.49 c -0.198,0.097 -0.41,0.144 -0.62,0.144 -0.383,-0.001 -0.761,-0.158 -1.033,-0.454 z m 9.539,-5.979 4.889,2.983 c 3.42,-7.77 7.89,-13.084 12.924,-18.686 1.32,-1.469 2.079,-2.213 3.008,-2.948 0.156,-0.124 0.271,-0.206 0.364,-0.272 0.032,-0.022 0.055,-0.038 0.056,-0.035 0.019,-0.021 0.039,-0.049 0.064,-0.083 0.129,-0.181 0.293,-0.336 0.572,-0.596 0.099,-0.093 0.266,-0.249 0.365,-0.35 3.912,-10.201 1.873,-16.723 -0.537,-20.405 -1.457,-2.226 -3.595,-3.869 -6.019,-4.626 -8.693,-2.715 -15.154,7.627 -15.217,7.73 -0.255,0.418 -0.709,0.673 -1.198,0.673 -0.489,0 -0.943,-0.255 -1.198,-0.673 -0.064,-0.105 -6.491,-10.456 -15.217,-7.73 -2.425,0.758 -4.562,2.401 -6.019,4.626 v 0 c -3.87,5.913 -7.006,19.414 14.984,43.695 l 6.829,-3.365 c 0.196,-0.097 0.408,-0.145 0.62,-0.145 0.253,0.002 0.506,0.071 0.73,0.207 z m 23.57,-17.386 c 0.004,-0.006 0.008,-0.011 0.011,-0.016 -0.004,0.006 -0.007,0.011 -0.011,0.016 z"
   id="path165" />

		<circle
   style="fill:#ff7b56"
   cx="396.431"
   cy="106.95"
   r="15.889"
   id="circle165" />

		<path
   style="fill:#af0c3b"
   d="m 345.061,74.93 c 0,0 7.382,-13.911 25.679,0.057 0,0 4.848,11.174 13.01,19.718 0,0 -8.419,-5.399 -13.293,-13.881 -1.715,-2.986 -4.165,-5.515 -7.248,-7.049 -4.436,-2.209 -10.899,-4.121 -18.148,1.155 z"
   id="path166" />

		<path
   style="fill:#af0c3b"
   d="m 350.104,145.91 c 0,0 -10.949,-11.32 7.99,-24.404 0,0 12.125,-1.158 22.773,-6.28 0,0 -7.736,6.339 -17.31,8.353 -3.37,0.709 -6.532,2.257 -8.944,4.715 -3.471,3.537 -7.287,9.092 -4.509,17.616 z"
   id="path167" />

		<path
   style="fill:#af0c3b"
   d="m 419.168,163.049 c 0,0 -14.149,6.915 -20.741,-15.14 0,0 2.646,-11.89 1.065,-23.599 0,0 3.638,9.316 2.595,19.043 -0.367,3.424 0.128,6.91 1.72,9.963 2.292,4.395 6.396,9.741 15.361,9.733 z"
   id="path168" />

		<path
   style="fill:#af0c3b"
   d="m 456.81,102.661 c 0,0 2.205,15.594 -20.808,15.047 0,0 -10.49,-6.19 -22.115,-8.305 0,0 9.985,-0.581 18.913,3.417 3.143,1.407 6.611,2.013 10.007,1.443 4.888,-0.822 11.241,-3.074 14.003,-11.602 z"
   id="path169" />

		<path
   style="fill:#af0c3b"
   d="m 411.01,48.2 c 0,0 15.511,2.722 7.881,24.439 0,0 -9.129,8.064 -14.732,18.466 0,0 2.533,-9.676 9.094,-16.932 2.31,-2.554 3.958,-5.666 4.464,-9.072 0.728,-4.9 0.55,-11.638 -6.707,-16.901 z"
   id="path170" />

		<path
   style="fill:#ffffff"
   d="m 395.521,94.493 c 2.297,-0.2 4.715,0.258 6.8,1.401 0.538,0.257 1.022,0.605 1.519,0.935 0.236,0.181 0.465,0.372 0.698,0.558 0.239,0.18 0.454,0.387 0.667,0.597 0.874,0.816 1.597,1.786 2.214,2.809 0.145,0.262 0.293,0.522 0.431,0.788 l 0.361,0.822 c 0.131,0.27 0.214,0.558 0.311,0.841 0.085,0.286 0.21,0.561 0.26,0.858 l 0.19,0.876 c 0.065,0.291 0.08,0.591 0.122,0.886 0.099,0.589 0.071,1.189 0.084,1.781 -0.054,2.372 -0.801,4.717 -2.14,6.605 0.936,-2.112 1.386,-4.372 1.286,-6.6 -0.118,-2.223 -0.715,-4.408 -1.851,-6.304 -0.551,-0.953 -1.212,-1.849 -1.998,-2.628 -0.188,-0.203 -0.378,-0.404 -0.592,-0.58 -0.208,-0.182 -0.413,-0.37 -0.625,-0.548 -0.452,-0.32 -0.879,-0.68 -1.363,-0.957 -0.461,-0.317 -0.971,-0.544 -1.466,-0.808 -0.251,-0.123 -0.516,-0.217 -0.774,-0.328 l -0.391,-0.161 -0.403,-0.126 c -1.064,-0.399 -2.194,-0.548 -3.34,-0.717 z"
   id="path171" />

		<path
   style="fill:#e65a4f"
   d="m 409.382,115.017 c -2.65,4.672 -7.668,7.821 -13.42,7.821 -8.515,0 -15.42,-6.905 -15.42,-15.42 0,-8.515 6.905,-15.42 15.42,-15.42 0.548,0 1.088,0.029 1.621,0.084 0.036,0.131 0.055,0.204 0.055,0.204 0,0 -8.35,1.81 -10.96,10.61 -2.126,7.168 1.548,15.043 9.285,16.201 0,0 8.555,1.387 13.398,-4.325 z"
   id="path172" />

		<path
   style="fill:#3c2415"
   d="m 396.431,124.242 c -9.535,0 -17.292,-7.757 -17.292,-17.292 0,-9.535 7.757,-17.292 17.292,-17.292 9.534,0 17.292,7.757 17.292,17.292 0,9.535 -7.758,17.292 -17.292,17.292 z m 0,-31.778 c -7.988,0 -14.486,6.498 -14.486,14.486 0,7.988 6.498,14.486 14.486,14.486 7.987,0 14.486,-6.498 14.486,-14.486 0,-7.988 -6.499,-14.486 -14.486,-14.486 z"
   id="path173" />

	</g>
    </g>
  </g>
</svg>
