<?xml version="1.0" encoding="UTF-8" standalone="no"?>
<!-- Created with Inkscape (http://www.inkscape.org/) -->

<svg
   width="19.299999mm"
   height="25.34mm"
   viewBox="0 0 19.299999 25.34"
   version="1.1"
   id="svg1"
   inkscape:version="1.4.3 (0d15f75, 2025-12-25)"
   sodipodi:docname="fly.svg"
   xmlns:inkscape="http://www.inkscape.org/namespaces/inkscape"
   xmlns:sodipodi="http://sodipodi.sourceforge.net/DTD/sodipodi-0.dtd"
   xmlns="http://www.w3.org/2000/svg"
   xmlns:svg="http://www.w3.org/2000/svg">
  <sodipodi:namedview
     id="namedview1"
     pagecolor="#ffffff"
     bordercolor="#000000"
     borderopacity="0.25"
     inkscape:showpageshadow="2"
     inkscape:pageopacity="0.0"
     inkscape:pagecheckerboard="0"
     inkscape:deskcolor="#d1d1d1"
     inkscape:document-units="mm"
     inkscape:zoom="0.72604517"
     inkscape:cx="396.66953"
     inkscape:cy="561.25984"
     inkscape:window-width="1920"
     inkscape:window-height="1017"
     inkscape:window-x="-8"
     inkscape:window-y="-8"
     inkscape:window-maximized="1"
     inkscape:current-layer="layer1" />
  <defs
     id="defs1" />
  <g
     inkscape:label="Layer 1"
     inkscape:groupmode="layer"
     id="layer1">
    <path
       d="m 19.269041,18.668797 c -7.94e-4,-0.0079 -0.0019,-0.01561 -0.0029,-0.02302 -5.3e-4,-0.0042 -0.0011,-0.0082 -0.0019,-0.01217 -0.0011,-0.0061 -0.0019,-0.01191 -0.0029,-0.01773 -7.94e-4,-0.0045 -0.0016,-0.0087 -0.0024,-0.0127 -7.94e-4,-0.0048 -0.0019,-0.0093 -0.0026,-0.01349 -7.94e-4,-0.0042 -0.0019,-0.0085 -0.0026,-0.01244 -7.94e-4,-0.0037 -0.0016,-0.0069 -0.0024,-0.01032 -7.94e-4,-0.004 -0.0019,-0.0077 -0.0045,-0.01826 0.0042,-0.0037 0.0082,-0.0074 0.01138,-0.01111 0.03149,-0.04524 -0.01746,-0.433652 -0.112712,-0.662516 -0.0016,-0.004 -0.0034,-0.0071 -0.0053,-0.01111 -0.0058,-0.01349 -0.01191,-0.02619 -0.01826,-0.03863 -0.0029,-0.0058 -0.0058,-0.01164 -0.009,-0.0172 -0.0048,-0.0085 -0.0095,-0.01587 -0.01429,-0.02355 0.0011,-0.0061 0.0024,-0.01191 0.0029,-0.01826 2.64e-4,-0.0037 -2.65e-4,-0.0074 -2.65e-4,-0.01111 -2.64e-4,-0.01535 -0.0026,-0.03122 -0.0098,-0.05424 -0.01005,-0.02778 -0.02752,-0.05741 -0.05583,-0.08837 -0.139965,-0.152929 -0.270405,-0.281252 -0.373592,-0.351367 -0.01058,-0.0074 -0.0209,-0.01349 -0.03096,-0.01958 -0.0069,-0.004 -0.01349,-0.0077 -0.02011,-0.01111 -0.01111,-0.0058 -0.0217,-0.01085 -0.03201,-0.01455 -0.01455,-0.06588 -0.06535,-0.104511 -0.150019,-0.142346 -0.01323,-0.0058 -0.04075,-0.01852 -0.07911,-0.03625 -0.0095,-0.0045 -0.01932,-0.009 -0.03043,-0.01402 -0.305593,-0.142875 -1.128712,-0.540015 -1.618191,-0.859367 -0.02037,-0.01323 -0.03995,-0.02619 -0.05927,-0.03916 -0.0079,-0.0056 -0.01561,-0.01085 -0.02355,-0.01614 l -0.005,-0.01164 c -5.29e-4,2.64e-4 -0.0034,0.0016 -0.0071,0.0032 -0.0164,-0.01138 -0.03201,-0.02275 -0.04709,-0.03387 -0.0127,-0.0093 -0.02514,-0.01852 -0.03704,-0.02752 -0.01614,-0.01217 -0.03149,-0.02434 -0.04577,-0.03625 -0.0071,-0.0058 -0.01429,-0.01164 -0.02619,-0.02223 0.0024,-0.0019 0.004,-0.0045 0.0063,-0.0066 0.0042,-0.004 0.0082,-0.0082 0.01191,-0.0127 0.0063,-0.0079 0.01164,-0.0164 0.0164,-0.02593 0.0024,-0.0053 0.0053,-0.01005 0.0071,-0.01561 0.0042,-0.01244 0.0071,-0.02619 0.009,-0.04075 5.29e-4,-0.004 0.0016,-0.0071 0.0021,-0.01111 0.0016,-0.01905 0.0011,-0.04022 -7.94e-4,-0.06244 -5.29e-4,-0.0064 -0.0019,-0.01349 -0.0029,-0.02037 -0.0021,-0.01693 -0.005,-0.0344 -0.009,-0.05292 -0.0019,-0.009 -0.0042,-0.01826 -0.0063,-0.02752 -0.0045,-0.01799 -0.0095,-0.03678 -0.01535,-0.05609 -0.0029,-0.0095 -0.0056,-0.01905 -0.009,-0.0291 -0.0071,-0.02223 -0.01535,-0.04524 -0.02408,-0.06853 -0.0021,-0.0058 -0.0037,-0.01138 -0.0063,-0.0172 -0.06482,-0.170921 -0.166158,-0.375179 -0.279664,-0.593196 -0.232569,-0.445293 -0.658548,-1.057539 -1.148027,-1.540933 -0.03228,-0.03598 -0.06826,-0.06985 -0.104511,-0.101071 -0.01243,-0.01138 -0.02487,-0.02275 -0.03731,-0.03387 -0.0164,-0.01508 -0.03281,-0.0299 -0.04948,-0.04445 -0.02223,-0.01958 -0.04445,-0.03863 -0.06668,-0.05742 -0.01455,-0.01243 -0.0291,-0.02513 -0.04392,-0.03704 -0.03202,-0.02646 -0.06429,-0.05186 -0.09657,-0.07673 -0.0127,-0.02487 -0.0291,-0.04762 -0.0508,-0.06667 -0.04577,-0.0299 -0.09022,-0.05847 -0.13335,-0.08599 -0.369623,-0.234157 -0.646377,-0.37174 -0.831056,-0.45138 -0.0077,-0.0032 -0.01402,-0.0058 -0.02143,-0.009 -0.01085,-0.0045 -0.02117,-0.009 -0.03122,-0.01296 -0.01058,-0.0042 -0.02037,-0.0082 -0.03016,-0.01217 -0.01058,-0.0042 -0.02117,-0.0085 -0.03096,-0.01217 -0.0077,-0.0029 -0.01482,-0.0056 -0.02196,-0.0082 -0.01005,-0.0037 -0.01984,-0.0074 -0.02884,-0.01058 -0.0056,-0.0019 -0.01032,-0.0037 -0.01561,-0.0053 -0.009,-0.0032 -0.01773,-0.0061 -0.0254,-0.0087 -0.004,-0.0013 -0.0074,-0.0024 -0.0172,-0.0056 -0.182034,-0.282311 -0.388409,-0.502709 -0.583936,-0.665957 0,0 0,-0.01296 -0.004,-0.0127 -0.08784,-0.337608 -0.503766,-0.566737 -0.524139,-0.57785 0.0034,-0.0074 0.0071,-0.01508 0.01058,-0.02328 0.735542,-0.03334 1.569773,-2.262716 1.67349,-2.922587 0.03201,-0.204259 0.05212,-0.361421 0.06244,-0.48604 0.0016,-0.02064 0.0029,-0.03995 0.0042,-0.05847 2.64e-4,-0.0037 5.29e-4,-0.0079 7.94e-4,-0.01138 7.93e-4,-0.01588 0.0013,-0.03069 0.0019,-0.04498 2.64e-4,-0.0056 5.29e-4,-0.01138 5.29e-4,-0.01667 2.64e-4,-0.01191 2.64e-4,-0.02275 2.64e-4,-0.03387 0,-0.0066 0,-0.01376 0,-0.02011 -2.64e-4,-0.0087 -5.29e-4,-0.01667 -7.93e-4,-0.02487 -2.65e-4,-0.0071 -5.3e-4,-0.01455 -0.0011,-0.02117 -5.29e-4,-0.0063 -0.0011,-0.01217 -0.0016,-0.01799 -7.94e-4,-0.0071 -0.0013,-0.01455 -0.0024,-0.02249 0.0013,-0.0048 0.0026,-0.009 0.004,-0.01429 0.0011,-0.005 0.0019,-0.01111 0.0026,-0.01667 0.0019,-0.01032 0.0034,-0.0209 0.0048,-0.03281 7.93e-4,-0.0082 7.93e-4,-0.01746 0.0013,-0.02646 5.29e-4,-0.01111 7.93e-4,-0.02196 5.29e-4,-0.0344 -2.65e-4,-0.01058 -0.0011,-0.02222 -0.0019,-0.03387 -7.94e-4,-0.01296 -0.0021,-0.02646 -0.004,-0.04075 -7.94e-4,-0.0061 -7.94e-4,-0.01138 -0.0026,-0.01799 -0.01349,-0.09287 -0.04418,-0.209815 -0.105833,-0.358775 -0.100542,-0.260615 -0.237067,-0.559859 -0.383646,-0.856192 2.64e-4,-0.150813 -0.06588,-0.273844 -0.06588,-0.273844 0.0254,0.106892 0.04339,0.194998 0.05398,0.250296 -0.04048,-0.08176 -0.08176,-0.163248 -0.123296,-0.243417 -0.02196,-0.09022 -0.02937,-0.195791 -0.02937,-0.195791 0,0 -0.02249,0.0463 -0.0048,0.129645 -0.0254,-0.04895 -0.05107,-0.09737 -0.07647,-0.144991 -0.01773,-0.08467 -2.65e-4,-0.175154 -2.65e-4,-0.175154 0,0 -0.03572,0.05424 -0.01931,0.138641 -0.02196,-0.04101 -0.04366,-0.08123 -0.06535,-0.120914 -0.01296,-0.07805 -0.004,-0.178065 -0.004,-0.178065 0,0 -0.03281,0.05636 -0.01508,0.143404 -0.01561,-0.02858 -0.03122,-0.05636 -0.04657,-0.08414 -0.01667,-0.10795 -0.01826,-0.283634 -0.01826,-0.283634 0,0 -0.02858,0.119857 0.0048,0.259557 -0.0079,-0.01402 -0.01587,-0.02857 -0.02355,-0.04207 0.01641,-0.140758 -0.02619,-0.248444 -0.02619,-0.248444 0,0 0.01323,0.145521 0.01852,0.234686 -0.04974,-0.08837 -0.09737,-0.170657 -0.141816,-0.245798 -0.0056,-0.217752 -0.09922,-0.301361 -0.09922,-0.301361 0,0 0.07408,0.170921 0.09525,0.295011 -0.03598,-0.06059 -0.07011,-0.116946 -0.101071,-0.166423 0.0037,-0.115094 -0.04471,-0.179917 -0.04471,-0.179917 0,0 0.02804,0.09393 0.03784,0.169333 -0.03572,-0.05689 -0.07091,-0.109008 -0.105569,-0.156897 -0.01243,-0.189707 -0.07594,-0.233098 -0.07594,-0.233098 0,0 0.04736,0.135731 0.06932,0.224366 -0.03149,-0.04339 -0.06218,-0.08334 -0.09181,-0.119856 -5.29e-4,-0.102394 -0.03836,-0.116681 -0.03836,-0.116681 0,0 0.02196,0.059 0.03228,0.109537 -0.0762,-0.09234 -0.146844,-0.162718 -0.208756,-0.212989 0.0019,-0.02117 -0.0024,-0.06456 -0.05662,-0.10795 0.09155,-0.145786 0.417777,-0.7112 0.427566,-1.397265 -0.0074,-0.138641 -0.04498,-0.206375 -0.10795,-0.225425 0.02778,-0.103981 0.09419,-0.383381 0.07752,-0.616479 -0.005,-0.05398 -0.03387,-0.08917 -0.07488,-0.110067 0.03889,-0.03863 0.103452,-0.150018 0.04789,-0.446352 -0.02514,-0.13626 -0.07858,-0.205052 -0.193146,-0.188912 0.01376,-0.05001 0.03175,-0.142875 0.02011,-0.268023 -0.01376,-0.146844 -0.07382,-0.191029 -0.160073,-0.183886 -0.01455,-0.117739 -0.06032,-0.422539 -0.139964,-0.433916 -0.01138,-0.0016 -0.02328,-2.65e-4 -0.03519,0.0026 -0.004,0.0011 -0.0079,0.0029 -0.01191,0.0045 -0.0074,0.0026 -0.01455,0.0056 -0.02196,0.0098 C 12.191849,0.12118 12.220159,0 12.220159,0 c 0,0 -0.04366,0.137848 -0.04948,0.239184 -0.0042,0.0024 -0.0082,0.0056 -0.01217,0.0085 -0.0077,0.0056 -0.01482,0.01164 -0.02646,0.02249 0.0074,-0.0971 0.04471,-0.22516 0.04471,-0.22516 0,0 -0.05398,0.08229 -0.04789,0.227806 -0.0019,0.0019 -0.0032,0.0042 -0.005,0.0061 -0.0074,0.0082 -0.01429,0.01773 -0.02117,0.02725 -0.0032,0.0045 -0.0063,0.0082 -0.0093,0.01297 -0.0016,0.0024 -0.0029,0.0053 -0.0042,0.0079 -0.0098,-0.07858 -0.02381,-0.218545 -0.02381,-0.218545 -0.0077,0.01508 -0.01402,0.123031 0.0217,0.222779 -0.0061,0.01111 -0.01191,0.02223 -0.01852,0.03757 -0.04577,-0.05715 -0.113506,-0.182827 -0.113506,-0.182827 0,0 0.03016,0.110595 0.113242,0.184679 -0.0016,0.004 -0.0021,0.0085 -0.0034,0.01244 -0.0013,0.004 -0.0026,0.0079 -0.01138,0.01217 0,7.94e-4 2.65e-4,0.0063 0.0021,0.0172 -5.29e-4,0.0026 -5.29e-4,0.0053 -0.0011,0.0079 -0.0016,0.0074 -0.0021,0.01482 -0.0032,0.02222 -7.93e-4,0.0069 -0.0026,0.01376 -0.0013,0.02328 -0.0016,0.03096 0,0.06297 0.0093,0.09578 0.01693,0.06059 0.03678,0.109802 0.05556,0.150019 0.0019,0.004 0.0037,0.0066 0.0053,0.01032 0.0048,0.0098 0.0095,0.01826 0.01402,0.02699 0.005,0.009 0.0095,0.01773 0.01402,0.02513 -0.0026,0.0034 -0.005,0.0071 -0.0077,0.01085 -0.0042,0.0058 -0.0087,0.01164 -0.0127,0.01826 -0.0069,0.01111 -0.01296,0.02302 -0.01826,0.03572 -0.0032,0.0074 -0.0053,0.01535 -0.0077,0.02302 -0.0021,0.0071 -0.005,0.01402 -0.0048,0.01905 -0.01138,0.04868 -0.01217,0.10504 0.0056,0.172508 0.01138,0.04366 0.02302,0.07937 0.03387,0.110596 0.0016,0.0048 0.0034,0.0087 0.005,0.01323 0.0029,0.0079 0.0058,0.01561 0.0087,0.02275 0.0042,0.01032 0.0082,0.01958 0.01217,0.02831 0.0021,0.0048 0.0045,0.01032 0.0066,0.01482 0.0063,0.01296 0.01243,0.02434 0.01984,0.03625 0.0058,0.0093 0.01138,0.0172 0.0209,0.02911 0.0032,0.004 0.0066,0.0077 0.0098,0.01085 -7.93e-4,0.0029 -0.0013,0.0061 -0.0021,0.01085 -0.01191,0.06694 0.01005,0.137584 0.01746,0.208228 0.0056,0.05398 0.01932,0.115358 0.03334,0.169862 0.0037,0.01323 0.0071,0.02593 0.01243,0.04419 0.0032,0.01111 0.0064,0.02143 0.0093,0.03122 0.0011,0.0037 0.0024,0.0077 5.29e-4,0.01402 -0.0029,0.0029 -0.0056,0.0066 -0.0082,0.01005 -0.0032,0.004 -0.0066,0.0079 -0.0098,0.01244 -0.0032,0.0048 -0.0058,0.01005 -0.0085,0.01535 -0.0021,0.004 -0.0042,0.0077 -0.0061,0.01191 -0.0026,0.0058 -0.0048,0.01217 -0.0071,0.01852 -0.0011,0.0032 -0.0024,0.0056 -0.0026,0.0082 -0.03995,0.129116 -0.0098,0.359304 0.0762,0.633148 0.0021,0.0071 0.0045,0.01402 0.0066,0.02117 0.0063,0.01984 0.01323,0.04022 0.02011,0.06059 -0.01878,0.03148 -0.02461,0.07276 -0.03148,0.141023 -0.0021,0.02196 -0.0053,0.05106 -0.009,0.08467 -0.0011,0.009 -0.0019,0.01693 -0.0029,0.02646 -0.02328,0.201348 -0.07038,0.550598 -0.135202,0.816239 -0.02276,0.09366 -0.03731,0.169863 -0.04683,0.231775 -5.29e-4,0.0032 -0.0011,0.0061 -0.0013,0.0093 -0.0032,0.02064 -0.0056,0.03942 -0.0074,0.05688 -5.29e-4,0.0045 -0.0011,0.009 -0.0016,0.01323 -0.0016,0.01535 -0.0029,0.02911 -0.0037,0.04154 -2.64e-4,0.0042 -5.29e-4,0.0082 -7.93e-4,0.01217 -5.3e-4,0.01111 -0.0011,0.02117 -0.0013,0.0299 0,0.0034 -2.65e-4,0.0063 -2.65e-4,0.0095 0,0.0079 0,0.01482 2.65e-4,0.02593 2.64e-4,0.005 5.29e-4,0.0093 0.005,0.01826 -0.0032,0.01614 -0.005,0.03387 -0.0042,0.0553 -0.0032,0.03942 0.005,0.100277 0.02037,0.198438 0.05662,0.359833 0.398198,1.068122 0.780786,1.71397 0.383116,0.646642 0.638969,1.131623 0.680773,1.294607 0.02196,0.08705 0.06853,0.130439 0.106891,0.154252 -0.152135,0.406929 -0.337343,0.754856 -0.5207,1.040341 0.02037,-0.06165 0.0024,-0.08678 0.0024,-0.08678 0,0 -0.01217,0.06853 -0.0344,0.136525 -0.04419,0.06694 -0.08758,0.129117 -0.130704,0.188648 0.07885,-0.163777 0.0799,-0.268023 0.0799,-0.268023 0,0 -0.05133,0.170392 -0.08996,0.282046 -0.02196,0.0299 -0.04339,0.059 -0.06509,0.08678 0.06085,-0.114829 0.01905,-0.175683 0.01905,-0.175683 0,0 5.29e-4,0.112448 -0.03995,0.202935 -0.0291,0.03731 -0.05741,0.07303 -0.0852,0.106627 0.05292,-0.09895 0.03122,-0.132291 0.03122,-0.132291 0,0 -0.02752,0.09207 -0.06588,0.173566 -0.04101,0.04816 -0.08043,0.09261 -0.117475,0.132292 0.04842,-0.0926 0.04789,-0.172508 0.04789,-0.172508 0,0 -0.03731,0.119327 -0.0807,0.206639 -0.05424,0.05636 -0.103452,0.103188 -0.144727,0.138907 0.08096,-0.09842 0.0799,-0.173038 0.0799,-0.173038 0,0 -0.05662,0.125413 -0.112712,0.202142 -0.04604,0.04048 -0.08864,0.07937 -0.132292,0.120914 -0.01217,0.01164 -0.02355,0.02275 -0.03493,0.03387 -0.01217,0.01191 -0.02381,0.02355 -0.03519,0.03466 -0.0082,0.0082 -0.01614,0.01614 -0.02381,0.02408 -0.01508,0.01508 -0.02884,0.02937 -0.0418,0.04313 -0.0032,0.0034 -0.0069,0.0071 -0.01005,0.01032 -0.01667,0.01773 -0.03149,0.0336 -0.04921,0.05318 -0.0037,0.004 -0.0069,0.0077 -0.01032,0.01138 -0.0024,-0.004 -0.005,-0.0079 -0.0074,-0.01217 -0.0093,-0.01455 -0.01905,-0.02884 -0.02884,-0.04313 -0.0074,-0.01058 -0.01429,-0.02143 -0.02196,-0.03202 -0.01005,-0.01376 -0.0209,-0.02725 -0.03149,-0.04048 -0.0087,-0.01085 -0.01693,-0.0217 -0.02593,-0.03228 -0.01085,-0.01297 -0.02276,-0.0254 -0.0344,-0.0381 -0.0098,-0.01058 -0.01958,-0.02143 -0.02963,-0.03202 -0.01191,-0.01217 -0.02487,-0.02408 -0.03757,-0.03598 -0.01111,-0.01032 -0.02196,-0.0209 -0.0336,-0.03122 -0.01296,-0.01138 -0.02699,-0.02249 -0.04075,-0.0336 -0.01244,-0.01005 -0.02461,-0.02037 -0.03784,-0.03016 -0.01429,-0.01058 -0.0291,-0.0209 -0.04392,-0.03122 -0.01376,-0.0095 -0.02752,-0.01932 -0.04207,-0.02858 -0.01535,-0.0098 -0.03149,-0.01932 -0.04762,-0.02884 -0.01535,-0.009 -0.03043,-0.01826 -0.0463,-0.02672 -0.01667,-0.009 -0.03413,-0.01773 -0.05133,-0.02619 -0.0164,-0.0082 -0.03281,-0.01667 -0.05001,-0.02434 0.08176,0.0079 0.128852,0.0071 0.128852,0.0071 -0.05239,-0.0061 -0.11086,-0.01482 -0.170921,-0.0254 -0.0048,-0.0019 -0.0095,-0.0037 -0.01429,-0.0058 C 11.44948,9.18477 11.43149,9.17709 11.4127,9.16995 11.39312,9.16255 11.37275,9.15566 11.35237,9.14878 11.33306,9.14218 11.31374,9.13555 11.29363,9.1292 11.28252,9.1258 11.27167,9.1226 11.26029,9.11915 c 0.0344,-0.0042 0.06773,-0.009 0.09975,-0.01429 0.317236,0.0725 0.438944,0.0418 0.438944,0.0418 -0.09763,0.0098 -0.271727,-0.01746 -0.414338,-0.04551 0.05847,-0.01058 0.112448,-0.02381 0.163777,-0.0381 0.18468,0.0344 0.307975,0.02619 0.307975,0.02619 -0.04313,0 -0.149489,-0.01826 -0.262202,-0.03995 0.04366,-0.01349 0.08493,-0.02805 0.123561,-0.04392 0.195262,0.01111 0.323585,-0.01191 0.323585,-0.01191 -0.06059,0.0085 -0.165629,0.0034 -0.278871,-0.0066 0.07937,-0.03598 0.147373,-0.07673 0.206905,-0.120121 0.150283,-0.0069 0.24421,-0.02646 0.24421,-0.02646 -0.05927,0.009 -0.138113,0.01164 -0.223573,0.01111 0.0291,-0.02222 0.05636,-0.04498 0.08123,-0.06853 0.179123,-0.01693 0.360098,-0.05265 0.494242,-0.121708 -0.03678,0.01588 -0.164306,0.06165 -0.464609,0.09234 0.02275,-0.02328 0.04366,-0.04683 0.06271,-0.07064 0.238125,-0.04762 0.486039,-0.148961 0.64135,-0.338667 -0.08731,0.08917 -0.267759,0.223044 -0.61595,0.306652 0.03757,-0.05053 0.0672,-0.100277 0.09208,-0.147902 0.259291,-0.109802 0.377825,-0.275167 0.367771,-0.473869 -0.0011,-0.01984 -0.0037,-0.04075 -0.0077,-0.06165 -0.0016,-0.009 -0.0037,-0.01799 -0.0058,-0.02699 -0.0026,-0.01217 -0.0056,-0.02434 -0.0093,-0.03651 -0.0032,-0.01138 -0.0069,-0.02302 -0.01058,-0.03466 -0.0034,-0.01058 -0.0077,-0.02143 -0.01164,-0.03202 -0.0048,-0.01217 -0.009,-0.02434 -0.01614,-0.04048 -0.145786,-0.334433 -0.545306,-0.736865 -1.116806,-0.966787 -0.09472,-0.0381 -0.18415,-0.06853 -0.267759,-0.09287 -0.01614,-0.0048 -0.03122,-0.0082 -0.0471,-0.01244 -0.03519,-0.0095 -0.06959,-0.01773 -0.102923,-0.02487 -0.01693,-0.0037 -0.03413,-0.0077 -0.05053,-0.01058 -0.01693,-0.0032 -0.03334,-0.0056 -0.04974,-0.0082 -0.01588,-0.0024 -0.03149,-0.005 -0.04683,-0.0071 -0.01587,-0.0021 -0.03122,-0.0037 -0.04683,-0.005 -0.01482,-0.0013 -0.02937,-0.0029 -0.04366,-0.0037 -0.01482,-0.0011 -0.02911,-0.0019 -0.04339,-0.0021 -0.01402,-5.29e-4 -0.02752,-7.93e-4 -0.04101,-7.93e-4 -0.01349,0 -0.02672,0 -0.03969,5.29e-4 -0.01323,5.29e-4 -0.02619,0.0013 -0.03889,0.0024 -0.0045,2.65e-4 -0.0095,5.29e-4 -0.01402,7.94e-4 -0.0063,-0.005 -0.01085,-0.0087 -0.01085,-0.0087 0,0 -0.0024,-0.0019 -0.0066,-0.0053 -0.0026,-0.0021 -0.0069,-0.0056 -0.01191,-0.0093 -0.0029,-0.0021 -0.005,-0.004 -0.0087,-0.0066 -0.0063,-0.005 -0.01429,-0.01085 -0.02302,-0.01746 -0.0032,-0.0024 -0.0058,-0.0045 -0.0093,-0.0071 -0.0098,-0.0074 -0.02064,-0.01535 -0.03281,-0.02408 -0.0037,-0.0026 -0.0077,-0.0056 -0.01164,-0.0085 -0.01296,-0.0093 -0.02646,-0.01905 -0.04154,-0.02963 -0.0045,-0.0032 -0.0093,-0.0063 -0.01376,-0.0095 -0.01561,-0.01085 -0.03149,-0.02196 -0.04921,-0.03387 -0.005,-0.0034 -0.01085,-0.0071 -0.01614,-0.01058 -0.02408,-0.01614 -0.04974,-0.03281 -0.07699,-0.05001 -0.01773,-0.01138 -0.03545,-0.02249 -0.0545,-0.03413 -0.08519,-0.05186 -0.181768,-0.105569 -0.2849561,-0.155839 0.0053,-0.0079 0.01058,-0.01587 0.01614,-0.02355 -0.0058,0.0082 -0.01217,0.01693 -0.0164,0.02355 -0.01455,-0.0069 -0.02857,-0.01429 -0.04313,-0.0209 0.01693,-0.07117 0.05662,-0.291835 -0.08176,-0.346075 0.3436941,-0.357981 0.4283611,-0.294216 0.4283611,-0.294216 0,0 -0.09657,-0.103981 -0.4307421,0.293423 -0.0032,-0.0013 -0.0058,-0.0029 -0.0095,-0.004 -0.0037,-0.0011 -0.0074,-0.0013 -0.01111,-0.0021 0.09287,-0.371475 0.1746251,-0.361685 0.1746251,-0.361685 0,0 -0.1058331,-0.03149 -0.1772701,0.361156 -0.0082,-0.0019 -0.01667,-0.0034 -0.03201,-0.004 -0.01085,-2.64e-4 -0.0217,2.65e-4 -0.0381,0.0029 -0.01164,0.0021 -0.02302,0.005 -0.03651,0.0095 -0.10848,0.0381 -0.198438,0.150812 -0.227542,0.1905 -0.01058,-0.0021 -0.02117,-0.0032 -0.03175,-0.005 -0.0053,-0.0011 -0.01032,-0.0016 -0.01561,-0.0024 -0.02302,-0.0034 -0.04577,-0.0071 -0.06879,-0.0095 -0.0545,-0.0066 -0.108744,-0.01111 -0.161925,-0.0098 -0.104246,0.0026 -0.206111,0.01746 -0.306652,0.03784 -0.02249,-0.02858 -0.12409,-0.150018 -0.246857,-0.186266 -0.01058,-0.0029 -0.02143,-0.005 -0.03942,-0.0071 -0.01032,-0.0011 -0.02064,-7.94e-4 -0.03096,0 -0.0026,2.64e-4 -0.005,0 -0.0077,2.64e-4 -0.0048,5.3e-4 -0.0093,0.0016 -0.01402,0.0026 -0.07117,-0.413808 -0.18071,-0.381 -0.18071,-0.381 0,0 0.08467,-0.01005 0.179123,0.381265 -0.004,7.94e-4 -0.0077,0.0019 -0.01164,0.0029 -0.344752,-0.417248 -0.444235,-0.309562 -0.444235,-0.309562 0,0 0.08678,-0.06615 0.443177,0.310091 -0.0032,7.94e-4 -0.0063,0.0013 -0.0098,0.0024 -0.146314,0.05212 -0.09869,0.270668 -0.0762,0.349514 -0.01402,0.0071 -0.02831,0.01429 -0.04207,0.02196 -0.0048,-0.0056 -0.01852,-0.02117 -0.04075,-0.04498 0.01349,0.01482 0.02699,0.02937 0.04048,0.04498 -0.100012,0.05371 -0.19341,0.113771 -0.279135,0.175948 -0.0032,0.0021 -0.0056,0.0045 -0.0087,0.0066 -0.03281,0.02408 -0.06429,0.04842 -0.09446,0.07303 -0.0061,0.005 -0.01244,0.01005 -0.01852,0.01508 -0.03228,0.02672 -0.0635,0.05345 -0.0926,0.0799 -0.0053,0.0048 -0.01005,0.0095 -0.01535,0.01429 -0.02302,0.02143 -0.04524,0.0426 -0.06588,0.0635 -0.0079,0.0079 -0.01588,0.01588 -0.02408,0.02408 -0.0071,-2.64e-4 -0.01508,0 -0.02223,0 -0.01349,-2.64e-4 -0.02672,-5.29e-4 -0.04075,-2.64e-4 -0.01243,2.64e-4 -0.0254,7.93e-4 -0.03836,0.0016 -0.01376,7.94e-4 -0.02778,0.0016 -0.04207,0.0029 -0.01376,0.0013 -0.02778,0.0026 -0.04233,0.0045 -0.01455,0.0019 -0.02937,0.004 -0.04445,0.0061 -0.01508,0.0024 -0.03016,0.0045 -0.04577,0.0074 -0.01535,0.0026 -0.03122,0.0061 -0.04683,0.0095 -0.01614,0.0034 -0.03228,0.0066 -0.04921,0.01058 -0.01587,0.0037 -0.03228,0.0085 -0.04868,0.01296 -0.03493,0.0093 -0.07064,0.02011 -0.107685,0.03202 -0.01376,0.0045 -0.02725,0.0085 -0.04048,0.01323 -0.08334,0.02884 -0.171186,0.06376 -0.264054,0.106892 -0.5588,0.259027 -0.936625,0.681566 -1.066271,1.026583 -0.0045,0.01217 -0.0082,0.02408 -0.01217,0.03598 -0.004,0.01217 -0.0077,0.02408 -0.01085,0.03598 -0.0029,0.01085 -0.0056,0.02143 -0.0082,0.03201 -0.0032,0.01376 -0.0056,0.02725 -0.0079,0.04048 -0.0013,0.0082 -0.0029,0.01667 -0.004,0.02487 -0.0026,0.02143 -0.0042,0.0426 -0.0042,0.06271 0,0.184415 0.109538,0.334169 0.335757,0.432065 0.03307,0.05794 0.09208,0.139965 0.191823,0.225425 -0.27649,-0.03731 -0.577586,-0.13626 -0.727869,-0.376767 0,0 0.06667,0.338932 0.750094,0.395552 0.02831,0.02302 0.05953,0.04604 0.09393,0.06879 -0.160073,-0.0013 -0.329936,-0.01244 -0.478102,-0.04286 0,0 0.176212,0.07091 0.518847,0.06879 0.02037,0.01244 0.0418,0.02461 0.06429,0.03651 -0.0844,0.0074 -0.165364,0.0127 -0.234685,0.01349 0,0 0.1016,0.0127 0.270669,0.005 0.06244,0.03122 0.132291,0.06112 0.210872,0.08811 -0.105304,0.0172 -0.211931,0.03016 -0.294481,0.03016 0,0 0.127265,0.03069 0.354542,-0.01085 0.02778,0.0085 0.05636,0.01667 0.08599,0.02461 -0.06165,0.01667 -0.1143,0.03387 -0.155045,0.04868 0.04895,-0.01508 0.109802,-0.03016 0.17092,-0.04418 0.06932,0.01773 0.144728,0.03281 0.225161,0.04577 -0.119856,0.03519 -0.289454,0.08123 -0.395023,0.09393 0.08387,-0.0077 0.263525,-0.0299 0.425715,-0.08916 0.01402,0.0021 0.02805,0.0042 0.04233,0.0061 -0.01005,0.004 -0.02037,0.0082 -0.03069,0.0127 -0.0042,0.0019 -0.0082,0.0034 -0.01243,0.005 -0.0034,0.0013 -0.0069,0.0029 -0.01455,0.0064 -0.0087,0.0037 -0.01746,0.0077 -0.02619,0.01164 -0.0042,0.0019 -0.0085,0.0037 -0.01296,0.0058 -0.009,0.0042 -0.01826,0.0087 -0.02752,0.01323 -0.005,0.0024 -0.0098,0.0048 -0.01482,0.0071 -0.0042,0.0021 -0.0082,0.004 -0.01244,0.0061 -0.01429,0.0071 -0.02857,0.01482 -0.04313,0.02275 -0.0042,0.0024 -0.0087,0.0045 -0.01296,0.0069 -0.0024,0.0013 -0.0048,0.0024 -0.0066,0.0037 -0.0026,0.0016 -0.0053,0.0032 -0.0079,0.0048 -0.02011,0.01138 -0.04022,0.02328 -0.06059,0.03598 -0.0069,0.0042 -0.01376,0.0085 -0.02064,0.01296 -0.02434,0.01561 -0.04842,0.03175 -0.0762,0.05186 -0.02302,0.01667 -0.04577,0.0344 -0.06826,0.05292 -0.0066,0.0056 -0.01349,0.01111 -0.02011,0.01667 -0.02037,0.0172 -0.04048,0.03519 -0.06059,0.05371 -0.0037,0.0034 -0.0074,0.0066 -0.01111,0.01032 -0.02275,0.02196 -0.04524,0.04524 -0.0672,0.06932 -0.0058,0.0063 -0.01138,0.0127 -0.01693,0.01931 -0.01799,0.02037 -0.03572,0.0418 -0.05292,0.06376 -0.0045,0.0058 -0.0093,0.01138 -0.01376,0.01746 -0.02064,0.02725 -0.04075,0.05583 -0.05979,0.08573 -0.004,0.0063 -0.0079,0.01296 -0.01191,0.01931 -0.01349,0.0217 -0.02672,0.04419 -0.03942,0.0672 C 6.4767459,9.833582 6.3539809,9.722455 6.1907329,9.59863 6.1293529,9.5264 6.0639979,9.404955 6.0639979,9.404955 c 0,0 0.0045,0.07488 0.09287,0.167745 -0.04366,-0.03254 -0.09604,-0.0762 -0.154516,-0.128587 -0.04974,-0.08387 -0.09551,-0.20029 -0.09551,-0.20029 0,0 0.0053,0.0799 0.06059,0.168804 -0.03969,-0.03678 -0.08229,-0.07858 -0.126736,-0.123825 -0.04418,-0.07858 -0.07858,-0.168539 -0.07858,-0.168539 0,0 -0.01905,0.03466 0.04075,0.129646 -0.03016,-0.03175 -0.06138,-0.06535 -0.09287,-0.100542 -0.04683,-0.08731 -0.05398,-0.198967 -0.05398,-0.198967 0,0 -0.03731,0.0635 0.03122,0.173567 -0.02328,-0.02646 -0.04683,-0.05371 -0.07091,-0.08202 -0.04657,-0.108479 -0.109009,-0.274637 -0.109009,-0.274637 0,0 0.0082,0.103981 0.09816,0.261673 -0.04736,-0.05636 -0.09551,-0.115623 -0.144198,-0.179388 -0.02672,-0.06615 -0.04366,-0.133085 -0.04366,-0.133085 0,0 -0.01614,0.02593 0.0085,0.08572 -0.2032,-0.271727 -0.412485,-0.605367 -0.593989,-1.001977 0.03731,-0.02487 0.0807,-0.07144 0.09684,-0.159809 0.02963,-0.166158 0.250561,-0.667279 0.586581,-1.339585 0.336021,-0.672306 0.626534,-1.402027 0.656961,-1.764771 0.0087,-0.103452 0.01296,-0.166158 0.0058,-0.204787 -7.94e-4,-0.01879 -0.0037,-0.03519 -0.0034,-0.06191 0,-0.0032 0,-0.0061 -2.65e-4,-0.01085 -2.64e-4,-0.0037 -5.29e-4,-0.0093 -0.0011,-0.01402 -2.64e-4,-0.0048 -5.29e-4,-0.009 -0.0011,-0.01508 -5.29e-4,-0.0066 -0.0019,-0.01455 -0.0026,-0.02249 -7.94e-4,-0.0066 -0.0013,-0.01244 -0.0026,-0.01984 -0.0013,-0.0093 -0.0032,-0.02011 -0.005,-0.03096 -0.0013,-0.0082 -0.0026,-0.01587 -0.0045,-0.02487 -0.0024,-0.01244 -0.0053,-0.02646 -0.0082,-0.04048 -0.0021,-0.0095 -0.004,-0.01905 -0.0066,-0.02963 -0.0037,-0.01588 -0.0079,-0.03334 -0.0127,-0.05133 -0.0029,-0.01085 -0.0056,-0.0217 -0.0087,-0.0336 -0.0053,-0.02011 -0.01164,-0.04127 -0.01799,-0.0635 -0.0019,-0.0066 -0.0034,-0.01217 -0.005,-0.0172 -0.0058,-0.01905 -0.01058,-0.03678 -0.0172,-0.05742 -0.08334,-0.260085 -0.155311,-0.605366 -0.192617,-0.804068 -0.0032,-0.0164 -0.0058,-0.03069 -0.0085,-0.04498 -0.0045,-0.02513 -0.0085,-0.04736 -0.01138,-0.06482 -0.01164,-0.068 -0.02037,-0.108743 -0.04154,-0.138906 0.0053,-0.02011 0.01058,-0.03995 0.01534,-0.05953 0.0024,-0.01032 0.0048,-0.02011 0.0071,-0.03043 0.005,-0.02143 0.0098,-0.0426 0.01429,-0.0635 0.0016,-0.0071 0.0034,-0.01482 0.0045,-0.0217 0.04842,-0.23839 0.0545,-0.433917 0.01164,-0.545042 -0.0016,-0.0042 -0.0037,-0.0077 -0.0053,-0.01164 -0.0021,-0.0048 -0.0042,-0.0095 -0.0063,-0.01402 -0.0026,-0.0053 -0.0058,-0.0098 -0.0087,-0.01455 -0.0026,-0.0042 -0.0053,-0.0087 -0.0082,-0.01244 -0.0034,-0.0048 -0.0074,-0.0085 -0.01138,-0.0127 -0.0026,-0.0029 -0.0053,-0.0061 -0.01111,-0.01111 0.004,-0.01667 0.0082,-0.03598 0.01243,-0.05689 0.0021,-0.01032 0.0042,-0.02064 0.0061,-0.03148 0.01032,-0.05556 0.01958,-0.117475 0.02143,-0.171979 0.0021,-0.07117 0.01905,-0.143404 0.0029,-0.208492 -7.94e-4,-0.0029 -0.0019,-0.0056 -0.0034,-0.01085 0.0021,-0.0024 0.0042,-0.0053 0.0063,-0.0079 0.0026,-0.0034 0.0053,-0.0066 0.0079,-0.01058 0.0026,-0.004 0.0053,-0.009 0.0082,-0.01376 0.0037,-0.0066 0.0077,-0.01402 0.01164,-0.02196 0.0037,-0.0074 0.0071,-0.01508 0.01085,-0.02381 0.0024,-0.0058 0.0048,-0.0127 0.0071,-0.01931 0.0029,-0.0079 0.0058,-0.0164 0.0087,-0.0254 0.0026,-0.0079 0.005,-0.01614 0.0077,-0.02487 0.0013,-0.0045 0.0026,-0.0082 0.0034,-0.01217 0.0093,-0.03281 0.01799,-0.06932 0.02646,-0.113771 0.01296,-0.06853 0.0079,-0.125148 -0.0045,-0.169598 -0.0026,-0.009 -0.0063,-0.0172 -0.0098,-0.02566 -0.0019,-0.0042 -0.0032,-0.009 -0.005,-0.01323 -0.0069,-0.01455 -0.01535,-0.02805 -0.02434,-0.04048 -0.0034,-0.0048 -0.0071,-0.0093 -0.01111,-0.01376 -0.0034,-0.004 -0.0063,-0.0085 -0.01005,-0.01217 0.02355,-0.04657 0.05318,-0.118798 0.07329,-0.218017 0.0069,-0.03334 0.0061,-0.06509 0.0037,-0.09869 -0.0011,-0.0074 -0.0032,-0.01402 -0.0045,-0.02117 -0.0013,-0.0071 -0.0026,-0.01402 -0.0045,-0.0209 -7.94e-4,-0.0029 -0.0011,-0.0058 -0.0019,-0.0087 0.0011,-0.01085 7.94e-4,-0.0164 -0.0066,-0.01693 -0.0016,-0.0045 -0.0034,-0.009 -0.0053,-0.01349 -0.0013,-0.0034 -0.0021,-0.0074 -0.0037,-0.01058 0.07779,-0.0799 0.100013,-0.192087 0.100013,-0.192087 0,0 -0.05874,0.130175 -0.101865,0.188383 -0.0058,-0.01217 -0.0127,-0.02302 -0.01958,-0.03387 0.02884,-0.101864 0.01455,-0.20902 0.0061,-0.223572 0,0 -0.0042,0.140493 -0.0085,0.219604 -0.0019,-0.0026 -0.0032,-0.0053 -0.005,-0.0077 -0.0029,-0.004 -0.0061,-0.0071 -0.009,-0.01085 -0.0077,-0.0098 -0.01587,-0.01905 -0.02937,-0.03254 -0.0042,-0.145521 -0.06403,-0.224102 -0.06403,-0.224102 0,0 0.04657,0.125413 0.05636,0.218546 -0.0079,-0.0066 -0.01587,-0.01244 -0.02408,-0.01746 -0.0042,-0.0026 -0.0082,-0.005 -0.01244,-0.0071 -0.01296,-0.101071 -0.06641,-0.23495 -0.06641,-0.23495 0,0 0.03678,0.118798 0.06244,0.233098 -0.0079,-0.0037 -0.01561,-0.0063 -0.02328,-0.0085 -0.0037,-0.0011 -0.0074,-0.0026 -0.01138,-0.0032 -0.01243,-0.0021 -0.02434,-0.0026 -0.03572,-2.65e-4 -0.07885,0.01746 -0.102394,0.324379 -0.10848,0.442913 -0.08625,-0.0011 -0.143139,0.04736 -0.146579,0.195262 -0.0026,0.125148 0.0217,0.216694 0.03889,0.265642 -0.115358,-0.0079 -0.163513,0.06456 -0.179123,0.201612 -0.03413,0.299509 0.03784,0.4064 0.07937,0.442384 -0.03916,0.02381 -0.06535,0.06085 -0.06667,0.114829 0,0.233892 0.08625,0.507735 0.121444,0.6096 -0.06138,0.02328 -0.09419,0.09366 -0.09155,0.232569 0.05847,0.683154 0.423598,1.223962 0.525462,1.363398 -0.05106,0.04736 -0.05239,0.09075 -0.04868,0.111918 -0.05821,0.0545 -0.12356,0.129646 -0.193146,0.227277 0.0066,-0.05106 0.02487,-0.111654 0.02487,-0.111654 0,0 -0.03678,0.0172 -0.03016,0.119327 -0.02725,0.03863 -0.0553,0.08096 -0.08361,0.126736 0.01588,-0.08996 0.05371,-0.229129 0.05371,-0.229129 0,0 -0.06059,0.04815 -0.05953,0.238389 -0.03069,0.05001 -0.06191,0.104511 -0.09366,0.163513 0.0045,-0.07594 0.02593,-0.171715 0.02593,-0.171715 0,0 -0.04392,0.068 -0.03201,0.182827 -0.02752,0.05159 -0.05768,0.110596 -0.08943,0.173831 0.01217,-0.124883 0.07435,-0.301625 0.07435,-0.301625 0,0 -0.08784,0.08996 -0.07779,0.307975 -0.03889,0.07779 -0.08043,0.162984 -0.123825,0.25453 -0.0011,-0.08969 0.0016,-0.23548 0.0016,-0.23548 0,0 -0.03492,0.110861 -0.0085,0.250032 -0.0066,0.01429 -0.01376,0.02937 -0.02037,0.04366 0.02355,-0.142346 -0.01376,-0.259556 -0.01376,-0.259556 0,0 0.01111,0.175154 0.0021,0.284162 -0.01349,0.02884 -0.02699,0.05794 -0.04075,0.08784 0.01164,-0.08837 -0.02513,-0.142611 -0.02513,-0.142611 0,0 0.0164,0.09896 0.009,0.1778 -0.01879,0.04127 -0.03784,0.08308 -0.05689,0.125677 0.01085,-0.08572 -0.02884,-0.137583 -0.02884,-0.137583 0,0 0.02381,0.08943 0.01191,0.175419 -0.02196,0.04921 -0.04392,0.09922 -0.06588,0.149754 0.01164,-0.08493 -0.01402,-0.129381 -0.01402,-0.129381 0,0 -2.65e-4,0.105833 -0.01535,0.197379 -0.03572,0.08281 -0.07091,0.166952 -0.105569,0.251354 0.0066,-0.05583 0.01826,-0.144992 0.03572,-0.252942 0,0 -0.05715,0.12753 -0.04604,0.277813 -0.125148,0.305858 -0.239977,0.614362 -0.321733,0.881327 -0.05107,0.152929 -0.07329,0.271727 -0.08096,0.365919 -2.65e-4,0.0048 0,0.0085 -2.65e-4,0.01323 -0.0011,0.01878 -0.0016,0.03625 -0.0013,0.05265 0,0.0079 0,0.01588 2.65e-4,0.02302 7.93e-4,0.01587 0.0021,0.03016 0.0037,0.04392 7.94e-4,0.0063 0.0013,0.01296 0.0021,0.01879 0.0021,0.01323 0.0048,0.02487 0.0077,0.03625 0.0011,0.0045 0.0021,0.0095 0.0032,0.01376 0.0016,0.0053 0.0034,0.0095 0.005,0.01746 -2.64e-4,0.004 -2.64e-4,0.0085 -5.29e-4,0.0127 -2.64e-4,0.0082 -5.29e-4,0.01667 -5.29e-4,0.02566 0,0.0048 2.65e-4,0.01032 2.65e-4,0.01535 2.64e-4,0.0098 5.29e-4,0.01931 0.0011,0.03016 2.65e-4,0.0056 7.94e-4,0.01191 0.0013,0.01799 7.94e-4,0.01111 0.0016,0.02223 0.0026,0.03466 5.29e-4,0.0069 0.0016,0.01455 0.0024,0.02143 0.0013,0.0127 0.0026,0.02514 0.0045,0.03889 0.0011,0.0082 0.0024,0.01773 0.0037,0.02646 0.0019,0.01349 0.0037,0.02699 0.0058,0.04154 0.0019,0.01138 0.004,0.02381 0.0058,0.03572 0.0021,0.01376 0.0042,0.02672 0.0069,0.04127 0.0026,0.01455 0.0056,0.03069 0.0085,0.04604 0.0024,0.01349 0.0048,0.02619 0.0074,0.04022 0.0037,0.01905 0.0079,0.03995 0.01217,0.06032 0.0024,0.01191 0.0045,0.02302 0.0071,0.03545 0.0053,0.0254 0.01111,0.05265 0.0172,0.0799 0.0019,0.009 0.0037,0.01746 0.0058,0.02672 0.0082,0.03731 0.01693,0.07673 0.02646,0.117739 0.14896,0.646642 1.129506,2.790296 1.863989,2.796646 0.0024,0.0037 0.0048,0.0079 0.0071,0.01111 -0.07276,0.04974 -0.398463,0.287337 -0.461963,0.598487 l 5.3e-4,0.01323 c -0.201877,0.196586 -0.412486,0.465667 -0.583407,0.812271 0.01323,-0.02937 0.02699,-0.05874 0.04127,-0.08811 0,0 -0.09102,0.02752 -0.268816,0.119856 -0.158221,0.08149 -0.385234,0.214048 -0.678392,0.422275 -0.02222,0.01587 -0.04577,0.03334 -0.06906,0.05001 -0.01455,0.01058 -0.02858,0.02064 -0.04313,0.03149 -0.04339,0.03175 -0.08758,0.06509 -0.133615,0.100012 -0.02037,0.02037 -0.03519,0.04445 -0.04604,0.06985 -0.03043,0.02725 -0.06085,0.05503 -0.09102,0.08361 -0.01402,0.01349 -0.02805,0.02725 -0.04207,0.04101 -0.02037,0.01984 -0.04075,0.03995 -0.06085,0.06059 -0.0164,0.01667 -0.03254,0.0336 -0.04868,0.05053 -0.01111,0.01164 -0.02223,0.02302 -0.03334,0.03493 -0.03387,0.03334 -0.06694,0.06959 -0.09657,0.107421 -0.454025,0.516996 -0.835554,1.158081 -1.036373,1.618985 -0.0979,0.225425 -0.18415,0.436298 -0.237066,0.611188 -0.0016,0.0056 -0.0026,0.01058 -0.0045,0.01614 -0.0071,0.02461 -0.01376,0.04842 -0.01958,0.07144 -0.0026,0.01032 -0.0048,0.02037 -0.0069,0.03043 -0.0042,0.01931 -0.0082,0.0381 -0.01111,0.05609 -0.0016,0.0095 -0.0032,0.01905 -0.0045,0.02831 -0.0026,0.01905 -0.0042,0.03704 -0.0053,0.05424 -2.64e-4,0.0064 -0.0011,0.01296 -0.0013,0.01905 -5.3e-4,0.02275 5.29e-4,0.04418 0.0053,0.07038 0.0029,0.01614 0.0074,0.03096 0.01323,0.04418 0.0021,0.0048 0.0048,0.0087 0.0071,0.01296 0.0056,0.01005 0.01217,0.01905 0.01958,0.02699 0.0037,0.0037 0.0074,0.0074 0.01138,0.01058 0.0026,0.0021 0.0045,0.005 0.0074,0.0069 -0.0019,0.0019 -0.0034,0.0037 -0.0056,0.0056 -0.0058,0.0058 -0.01191,0.01164 -0.01799,0.01746 -0.01376,0.01296 -0.02831,0.02619 -0.04366,0.03969 -0.01323,0.01164 -0.02725,0.02381 -0.0418,0.03598 -0.01111,0.0093 -0.02223,0.01852 -0.03836,0.03149 -0.0037,-0.0013 -0.0066,-0.0024 -0.0071,-0.0026 l -0.0037,0.01138 c -0.0098,0.0079 -0.01958,0.01587 -0.0299,0.02381 -0.0058,0.0045 -0.01217,0.0093 -0.01826,0.01402 -0.541338,0.418836 -1.58300204,0.996686 -1.68962904,1.053571 -0.08176,0.04366 -0.129646,0.08572 -0.139436,0.152665 -0.01005,0.0048 -0.02037,0.01032 -0.03122,0.0172 -0.0048,0.0029 -0.0098,0.0058 -0.01482,0.0093 -0.01085,0.0074 -0.02196,0.01535 -0.03334,0.02487 -0.09816,0.07726 -0.219339,0.214577 -0.347662,0.377031 -0.02619,0.03307 -0.04154,0.06403 -0.05001,0.09155 -0.0069,0.02434 -0.0079,0.0471 -0.0048,0.068 5.29e-4,0.004 0.0019,0.0077 0.0037,0.0164 -0.0045,0.0082 -0.0087,0.0164 -0.01297,0.0254 -0.0021,0.0048 -0.0042,0.0098 -0.0063,0.01482 -0.0056,0.01323 -0.01111,0.02725 -0.0164,0.04207 -0.0013,0.004 -0.0032,0.0074 -0.004,0.01138 -0.07064,0.210079 -0.09499,0.543718 -0.07461,0.642673 5.29e-4,0.0032 0.0011,0.0066 0.0019,0.0093 0.0021,0.0074 0.0042,0.01296 0.0071,0.0164 0.0034,0.0034 0.0074,0.0066 0.01164,0.0098 -0.01297,0.06932 -0.03413,0.243681 0.02963,0.442912 0.02487,0.07752 0.07038,0.122767 0.121444,0.146579 0.0069,0.0032 0.01376,0.0053 0.02064,0.0077 0.0058,0.03969 0.01588,0.111125 0.02619,0.191294 0.0127,0.100806 0.02513,0.215371 0.02858,0.301096 2.64e-4,0.0048 2.64e-4,0.0095 7.94e-4,0.01376 0.0013,0.0074 0.0071,0.01376 0.01534,0.01931 -0.0053,0.04339 -0.01799,0.111654 -0.04736,0.143404 0.05027,-0.03202 0.05741,-0.09578 0.05583,-0.138642 0.0098,0.005 0.0217,0.0093 0.03572,0.01217 -0.0019,0.03651 -0.0077,0.08784 -0.02487,0.116681 0,0 0.03836,-0.02884 0.03201,-0.115358 0.01138,0.0021 0.02328,0.004 0.03625,0.0048 0.0381,0.120914 0.14552,0.16801 0.14552,0.16801 -0.0635,-0.0381 -0.111125,-0.118004 -0.13626,-0.167481 0.02222,7.94e-4 0.04524,-2.65e-4 0.068,-0.0034 0.01244,0.04286 0.04392,0.107421 0.125677,0.158221 -0.04233,-0.02963 -0.08731,-0.109802 -0.112713,-0.160073 0.06403,-0.01164 0.118798,-0.04128 0.116153,-0.09472 -0.0058,-0.111654 -0.101071,-0.388673 -0.187061,-0.491331 0.0016,-0.0024 0.0032,-0.0048 0.0061,-0.01296 0.0021,-0.0063 0.0032,-0.0127 0.0024,-0.02699 -0.0013,-0.009 -0.004,-0.01799 -0.0098,-0.02725 -0.08652,-0.120915 -0.126735,-0.351896 -0.140758,-0.450586 0.05027,-0.01667 0.08546,-0.05874 0.07382,-0.14261 -0.03757,-0.245798 -0.0336,-0.455612 -0.03043,-0.534194 0.0058,0.0011 0.01164,0.0016 0.0172,0.0019 0.0026,2.65e-4 0.005,0 0.0077,0 0.0056,0 0.01058,-2.64e-4 0.02276,-0.0024 0.0048,-0.0011 0.009,-0.0026 0.01878,-0.0071 0.004,-0.0024 0.0069,-0.0053 0.01376,-0.01217 0.0034,-0.0048 0.0063,-0.01032 0.0077,-0.01693 0.04233,-0.152664 0.246592,-0.4064 0.316971,-0.491066 0.188913,0.113241 0.56382704,-0.26379 1.25015604,-0.738982 0.623888,-0.432064 0.88265,-0.733425 0.959909,-0.834496 0.140493,-0.02699 0.167216,-0.13917 0.279664,-0.554037 0.437092,-1.390385 1.080823,-2.126456 1.142206,-2.194454 0.02117,0.02461 0.04524,0.03942 0.07012,0.03784 0.0058,-2.64e-4 0.01191,-0.0016 0.01852,-0.0029 0.0016,0.01535 0.0045,0.03201 0.01005,0.05106 -0.0016,-0.01534 -5.29e-4,-0.0344 0.0019,-0.05424 0.0077,-0.0021 0.01561,-0.0048 0.02408,-0.0082 -0.0026,0.01482 -0.0045,0.03096 -0.0034,0.04948 0,-0.01614 0.0066,-0.03519 0.01588,-0.0545 0.02064,-0.0087 0.04392,-0.01984 0.07011,-0.03307 -0.0127,0.02011 -0.02566,0.04233 -0.03836,0.06826 0.01534,-0.0209 0.04154,-0.05212 0.06906,-0.08387 0.03678,-0.01878 0.07858,-0.03995 0.125941,-0.06218 -0.02302,0.02567 -0.04657,0.05742 -0.0672,0.09816 l 0.109009,-0.117211 c 0.01826,-0.0082 0.03731,-0.0164 0.05741,-0.02487 -0.02858,0.03281 -0.0598,0.07805 -0.07699,0.135996 l 0.106892,-0.148166 c 0.01931,-0.0077 0.03916,-0.01508 0.0598,-0.02276 -0.01455,0.02064 -0.03413,0.05239 -0.04577,0.08784 0,0 0.03069,-0.03625 0.05477,-0.09128 0.03598,-0.01296 0.07461,-0.0254 0.115094,-0.03731 -0.04498,0.04709 -0.102923,0.1143 -0.121709,0.166687 0,0 0.07329,-0.08916 0.138377,-0.171714 0.059,-0.01693 0.122238,-0.03228 0.191029,-0.04524 -0.314589,0.263789 -0.731572,1.259152 -1.012295,1.956329 -0.0079,0.01984 -0.01561,0.03995 -0.02355,0.0598 l -0.01455,-2.65e-4 c 0,0.0013 0,0.01323 0.0026,0.03016 -0.257704,0.658283 -0.449262,1.33932 -0.448997,1.596231 -0.0026,0.0016 -0.0045,0.0032 -0.0071,0.005 0,0 0.0069,0.01058 0.0069,0.01085 0,0 -0.248444,0.393171 -0.491067,1.043781 -0.07038,0.214842 -0.86942,1.124479 -1.014677,2.639219 -0.04842,0.508529 -0.01799,0.980017 0.06853,1.390121 0.02064,0.09737 0.04419,0.190764 0.07091,0.280723 0.0024,0.0079 0.0048,0.01588 0.0071,0.02355 0.01111,0.03651 0.02249,0.07223 0.03466,0.107156 0.0026,0.0077 0.0053,0.01561 0.0079,0.02302 0.01455,0.04127 0.02937,0.08176 0.04763,0.127 0.01429,0.03572 0.02937,0.07064 0.04471,0.104775 0.0048,0.01058 0.0095,0.0209 0.01455,0.03122 0.01244,0.02646 0.02487,0.05212 0.03784,0.07752 0.005,0.01005 0.01006,0.02011 0.01508,0.02963 0.01746,0.03307 0.03519,0.06509 0.05345,0.09604 0.0026,0.0045 0.0053,0.0085 0.0079,0.01297 0.01588,0.02646 0.03228,0.05212 0.04868,0.07699 0.0066,0.0098 0.01323,0.01931 0.01984,0.02884 0.01349,0.01958 0.02752,0.03889 0.04154,0.05742 0.0066,0.0087 0.01323,0.01773 0.02011,0.02646 0.02011,0.0254 0.04022,0.05001 0.06085,0.07329 0.0029,0.0034 0.0061,0.0063 0.009,0.0095 0.01826,0.02011 0.03678,0.03942 0.05556,0.05768 0.0074,0.0071 0.01482,0.01402 0.02222,0.02117 0.01534,0.01429 0.03096,0.02805 0.04657,0.04127 0.0074,0.0061 0.01455,0.01243 0.02196,0.01826 0.02222,0.01773 0.04471,0.03466 0.07303,0.05318 0.02143,0.01402 0.04313,0.02699 0.06482,0.03863 0.0074,0.004 0.01482,0.0077 0.02222,0.01138 0.0172,0.0087 0.03466,0.01667 0.05212,0.02408 0.0074,0.0032 0.01455,0.0061 0.02196,0.009 0.02408,0.0093 0.04842,0.01746 0.07276,0.02381 0.569913,0.152929 1.777471,-0.850636 2.704571,-1.556544 0.05609,-0.0426 0.110331,-0.08467 0.163777,-0.126471 0.01296,-0.01032 0.0254,-0.02037 0.03836,-0.03043 0.0336,-0.02646 0.06747,-0.05318 0.100012,-0.07937 -0.0032,0.01111 -0.0056,0.02117 -0.0087,0.03228 -0.06509,0.230982 -0.164571,0.523875 -0.233627,0.622565 -0.03836,0.05477 -0.04604,0.108744 -0.03651,0.152929 -0.03784,0.09604 -0.131233,0.326231 -0.20611,0.440531 -0.02222,0.03413 -0.04127,0.0672 -0.05794,0.101865 -0.0032,0.0066 -0.0056,0.01323 -0.0085,0.01984 -0.0037,0.0087 -0.0071,0.0172 -0.01006,0.02593 -0.0026,0.0074 -0.0048,0.01455 -0.0069,0.0217 -0.0024,0.0085 -0.0042,0.01667 -0.0058,0.02487 -0.0013,0.0064 -0.0029,0.01297 -0.0037,0.01932 -0.0019,0.01376 -0.0024,0.02725 -0.0019,0.04075 2.65e-4,0.0042 0.0013,0.0085 0.0019,0.0127 0.0011,0.01005 0.0029,0.01984 0.0056,0.02937 0.0013,0.005 0.0032,0.0098 0.005,0.01482 0.0034,0.0093 0.0077,0.01826 0.01244,0.02805 -0.0034,0.0034 -0.0061,0.0074 -0.0093,0.01111 -0.01005,0.01111 -0.02011,0.02249 -0.02937,0.03493 -0.0071,0.0095 -0.01323,0.02037 -0.01984,0.03069 -0.0045,0.0071 -0.0095,0.01376 -0.01376,0.02143 -0.0095,0.01693 -0.01826,0.03493 -0.02857,0.05689 -0.03837,0.08599 -0.06482,0.188383 -0.0844,0.302948 -0.0011,0.0066 -7.94e-4,0.01244 -0.0024,0.01852 -2.64e-4,0.004 5.3e-4,0.0077 2.65e-4,0.01164 0,0.0061 0,0.01217 5.29e-4,0.01799 5.29e-4,0.0066 0.0016,0.01296 0.0029,0.01905 0.0013,0.0058 0.0026,0.01138 0.0042,0.01693 0.0019,0.0058 0.0042,0.01138 0.0066,0.01693 0.0024,0.0053 0.0048,0.01032 0.0074,0.01534 0.0029,0.0053 0.0063,0.01006 0.0098,0.01508 0.0032,0.0048 0.0066,0.0093 0.01032,0.01376 0.004,0.0045 0.0079,0.0087 0.01217,0.01296 0.004,0.004 0.0082,0.0079 0.01667,0.01588 -0.0077,0.03122 -0.0172,0.07408 -0.02593,0.123825 -5.3e-4,0.0026 -7.94e-4,0.0053 -0.0013,0.0077 -0.0016,0.0098 -0.0034,0.01931 -0.005,0.02963 -0.0013,0.0079 -0.0024,0.01614 -0.0037,0.02434 -7.93e-4,0.0056 -0.0019,0.01111 -0.0024,0.0164 -0.0082,0.06218 -0.01376,0.129116 -0.01191,0.192087 0.0026,0.0844 0.02752,0.132556 0.0598,0.156634 -7.94e-4,0.0064 -0.0016,0.01296 -0.0026,0.02011 -7.94e-4,0.0056 -0.0013,0.01111 -0.0021,0.01693 -0.0013,0.01138 -0.0024,0.02355 -0.0034,0.03625 -5.3e-4,0.0058 -7.94e-4,0.01164 -0.0013,0.01746 -7.94e-4,0.01005 -0.0013,0.02037 -0.0019,0.03096 -2.65e-4,0.0066 -5.3e-4,0.01323 -7.94e-4,0.02011 -2.65e-4,0.01191 -5.29e-4,0.02381 -5.29e-4,0.03625 0,0.0048 -2.65e-4,0.0095 0,0.01455 2.64e-4,0.01667 7.93e-4,0.03334 0.0024,0.05715 0.0032,0.04789 0.01058,0.09604 0.02434,0.14314 0.0045,0.01508 0.0098,0.0299 0.01561,0.04392 0.01667,0.03836 0.0418,0.0635 0.07064,0.07858 7.94e-4,0.04127 -0.0013,0.123031 -0.0291,0.16166 0.05159,-0.04286 0.04418,-0.118268 0.03545,-0.159014 0.01243,0.0058 0.02566,0.01005 0.03889,0.01243 0.0032,0.03651 0.0056,0.09525 -0.0095,0.128588 0,0 0.03651,-0.03598 0.01535,-0.127265 0.01164,0.0016 0.02381,0.0016 0.03545,0.0011 0.0508,0.121709 0.168275,0.157163 0.168275,0.157163 -0.07197,-0.03202 -0.131763,-0.112713 -0.161132,-0.157956 0.01958,-0.0019 0.03863,-0.0066 0.05662,-0.01402 l 0.0071,0.005 c 2.64e-4,-5.29e-4 0.0016,-0.0032 0.0034,-0.0071 0.01455,0.04022 0.05212,0.109273 0.149225,0.153988 -0.0508,-0.02699 -0.112977,-0.115623 -0.141816,-0.160073 0.05927,-0.03122 0.0971,-0.08943 0.06694,-0.150284 -0.06826,-0.136789 -0.10795,-0.295804 -0.127,-0.386291 0.01879,-0.01535 0.03254,-0.04392 0.02487,-0.09869 -0.01323,-0.143404 -0.03307,-0.296333 -0.04075,-0.375179 0.0029,-7.94e-4 0.0058,-0.0013 0.0087,-0.0024 0.0063,-0.0021 0.01191,-0.0053 0.01746,-0.0085 0.0021,-0.0013 0.0048,-0.0021 0.0069,-0.0034 0.0056,-0.0037 0.01032,-0.0082 0.01958,-0.01746 0.0045,-0.0056 0.0079,-0.01191 0.01349,-0.02328 0.0034,-0.0087 0.0056,-0.01826 0.0063,-0.02911 0.0095,-0.179387 0.04339,-0.389995 0.06032,-0.487362 0.05953,-0.01693 0.112184,-0.07435 0.137584,-0.182298 0.03863,-0.164835 0.09207,-0.483923 0.115622,-0.627856 0.07646,-0.02381 0.155046,-0.08123 0.19685,-0.218281 0.07885,-0.314855 0.1778,-0.760413 0.218811,-0.948267 0.0053,-0.02355 0.08043,-0.07064 0.09948,-0.08784 0.03942,-0.03545 0.07858,-0.0717 0.117211,-0.10795 0.07435,-0.06959 0.147373,-0.140758 0.219868,-0.212196 0.141552,-0.139964 0.281252,-0.281781 0.422011,-0.422539 0.02275,0.03889 0.04524,0.07779 0.068,0.116681 -0.02805,-0.04815 -0.03863,-0.100012 -0.02223,-0.154517 0.0058,-0.01958 0.02143,-0.06429 0.0418,-0.07355 0.03413,-0.01561 0.0463,0.02249 0.06932,0.05133 -0.01058,0.04366 -0.04127,0.2159 0.08387,0.388938 -0.09128,-0.156898 -0.08546,-0.338138 -0.08202,-0.386821 0.05371,0.06641 0.110331,0.132556 0.169862,0.198173 -0.01164,0.05874 -0.02831,0.216958 0.08652,0.375444 -0.08308,-0.14314 -0.08546,-0.306917 -0.08255,-0.371211 0.04445,0.04895 0.08996,0.0979 0.137848,0.146315 0,0 0.04128,0.05583 0.112183,0.143933 -0.0053,0.08043 -0.0085,0.309827 0.109009,0.472017 -0.08546,-0.146844 -0.10213,-0.381529 -0.105569,-0.467783 0.0463,0.05715 0.105039,0.127793 0.173567,0.206375 0.0016,0.07197 0.01588,0.340783 0.140493,0.512762 -0.09102,-0.156104 -0.129116,-0.432858 -0.138112,-0.510117 0.04868,0.05556 0.102394,0.11483 0.159808,0.175948 0.01429,0.09234 0.06191,0.343694 0.1778,0.504296 -0.0844,-0.145521 -0.150283,-0.401637 -0.173567,-0.499798 0.068,0.07197 0.141288,0.146315 0.218811,0.219604 0.03122,0.114036 0.09948,0.329936 0.201612,0.471752 -0.07408,-0.127529 -0.1524,-0.343958 -0.192881,-0.463285 0.08334,0.07858 0.171186,0.15531 0.261408,0.227013 0.04392,0.105833 0.110596,0.248972 0.19103,0.359568 -0.05768,-0.09895 -0.125148,-0.239183 -0.17489,-0.346868 0.09446,0.07408 0.191558,0.141552 0.28919,0.198437 0.02884,0.06059 0.08176,0.140758 0.178858,0.220927 -0.05556,-0.05371 -0.109273,-0.135467 -0.148696,-0.2032 0.183621,0.102658 0.3683,0.1651 0.540015,0.156369 0.116416,-0.0058 0.232304,-0.03651 0.3455461,-0.0844 -0.03942,0.0725 -0.09869,0.170656 -0.1616611,0.232304 0.1071561,-0.09102 0.1587501,-0.179917 0.1841501,-0.242358 0.08996,-0.03995 0.178329,-0.09049 0.264054,-0.149225 -0.04657,0.102658 -0.104775,0.225689 -0.155575,0.315383 0.07038,-0.09975 0.129911,-0.225425 0.172244,-0.327025 0.08731,-0.06085 0.171715,-0.12991 0.252148,-0.202935 -0.0418,0.123031 -0.10504,0.29501 -0.166423,0.403489 0.0852,-0.121179 0.145256,-0.295539 0.179652,-0.41566 0.07594,-0.06959 0.148696,-0.142875 0.216958,-0.216959 -0.02937,0.120121 -0.08414,0.316707 -0.1524,0.437886 0.09551,-0.135467 0.142082,-0.33364 0.162455,-0.449263 0.05689,-0.06218 0.11086,-0.124618 0.161131,-0.185737 -0.01455,0.111654 0.0016,0.09763 0.0066,-0.0082 0.06324,-0.07752 0.120386,-0.152136 0.171186,-0.221192 -0.0048,0.102658 0.01085,0.08837 0.0061,-0.0085 0.148167,-0.202935 0.236273,-0.351895 0.236273,-0.351895 0.113242,-0.11483 0.215636,-0.231246 0.308769,-0.348457 0.01217,0.05636 0.03784,0.220927 -0.03836,0.356923 0.06324,-0.112712 0.103982,-0.239183 0.04815,-0.365125 0.07435,0.06006 0.140494,0.13679 0.215371,0.199231 0.09155,0.0762 0.182827,0.1524 0.274373,0.2286 0.130175,0.10848 0.26035,0.216959 0.390525,0.325438 0.05477,0.04551 0.107686,0.09737 0.166952,0.13679 0.04445,0.02937 0.07435,0.03704 0.09128,0.09234 0.07408,0.243681 0.144991,0.487892 0.223572,0.73025 0.05107,0.134673 0.13335,0.186267 0.211403,0.204788 0.03334,0.142081 0.108214,0.456935 0.157956,0.618595 0.03281,0.106098 0.08916,0.159809 0.149754,0.172509 0.02355,0.09604 0.0717,0.303741 0.09313,0.482071 0.0016,0.01058 0.0042,0.02011 0.0082,0.02831 0.0013,0.0026 0.0032,0.0045 0.0045,0.0069 0.0032,0.0053 0.0063,0.01085 0.01032,0.01508 0.0024,0.0026 0.0053,0.0042 0.0082,0.0066 0.004,0.0034 0.0077,0.0069 0.01244,0.0095 0.0034,0.0021 0.0077,0.0034 0.01164,0.005 0.0045,0.0019 0.0087,0.004 0.01349,0.0053 0.004,0.0011 0.0085,0.0016 0.0127,0.0024 -0.005,0.07858 -0.01429,0.232569 -0.01799,0.376767 -0.0042,0.05503 0.01138,0.08255 0.03122,0.09657 -0.0127,0.09154 -0.04127,0.253206 -0.100277,0.393964 -0.02593,0.06271 0.01561,0.118004 0.07673,0.144992 -0.02566,0.0463 -0.08123,0.139171 -0.130439,0.169333 0.09446,-0.05133 0.127,-0.123296 0.138377,-0.164306 0.0021,0.004 0.004,0.0069 0.0042,0.0071 l 0.0069,-0.0053 c 0.01852,0.0061 0.03784,0.0095 0.05768,0.01005 -0.02619,0.0471 -0.08043,0.131763 -0.150283,0.16854 0,0 0.114829,-0.04339 0.157427,-0.168275 0.01191,0 0.02381,-0.0011 0.03545,-0.0034 -0.01508,0.09287 0.02355,0.126206 0.02355,0.126206 -0.01693,-0.03254 -0.01879,-0.09128 -0.01799,-0.128058 0.01323,-0.0032 0.02593,-0.0085 0.0381,-0.01508 -0.0058,0.04101 -0.0085,0.116946 0.0463,0.156369 -0.03069,-0.03678 -0.03836,-0.118534 -0.04022,-0.159544 0.02778,-0.0172 0.05106,-0.04366 0.06509,-0.08308 0.0056,-0.01535 0.0098,-0.03149 0.01349,-0.04895 0.0098,-0.04471 0.01376,-0.0926 0.01429,-0.140494 0,-0.0048 -2.65e-4,-0.0093 -5.29e-4,-0.02117 -5.3e-4,-0.02328 -0.0019,-0.0463 -0.0037,-0.06879 -2.64e-4,-0.0037 -5.29e-4,-0.0074 -7.93e-4,-0.01085 -0.0011,-0.01138 -0.0021,-0.02223 -0.0037,-0.03307 -2.64e-4,-0.0034 -7.93e-4,-0.0066 -0.0013,-0.01005 -0.0026,-0.0209 -0.0056,-0.04048 -0.0098,-0.06429 -0.0016,-0.0087 -0.0032,-0.01667 -0.0045,-0.02461 -7.94e-4,-0.0042 -0.0016,-0.0079 -0.0032,-0.01587 0.03043,-0.02619 0.05186,-0.07567 0.04868,-0.160073 -0.0034,-0.0979 -0.0254,-0.2032 -0.04763,-0.288396 -0.0074,-0.02858 -0.01482,-0.0545 -0.02355,-0.08255 -0.0021,-0.0066 -0.004,-0.01297 -0.0024,-0.02249 0.0048,-0.0045 0.009,-0.0095 0.01323,-0.01455 0.0034,-0.004 0.0069,-0.0077 0.0098,-0.01191 0.0037,-0.0053 0.0071,-0.01058 0.01032,-0.01614 0.0026,-0.0045 0.0056,-0.009 0.0077,-0.01376 0.0026,-0.0056 0.005,-0.01164 0.0071,-0.01746 0.0019,-0.005 0.0037,-0.01032 0.005,-0.01561 0.0016,-0.0061 0.0026,-0.01243 0.0034,-0.01905 7.94e-4,-0.0056 0.0013,-0.01111 0.0016,-0.01693 2.64e-4,-0.0069 -2.65e-4,-0.01376 -7.94e-4,-0.02064 -2.65e-4,-0.0034 0,-0.0063 -0.0013,-0.0095 -7.94e-4,-0.0063 -0.0011,-0.01243 -0.0026,-0.01878 -0.02752,-0.112977 -0.06085,-0.213519 -0.108215,-0.302154 -0.0095,-0.01746 -0.01931,-0.03466 -0.03149,-0.05265 -0.02302,-0.03413 -0.04815,-0.06456 -0.07673,-0.09022 0.0045,-0.0093 0.0082,-0.01879 0.01085,-0.02831 0.0016,-0.0048 0.0029,-0.0098 0.004,-0.01482 0.0021,-0.01005 0.0032,-0.02037 0.0037,-0.03069 2.64e-4,-0.004 7.93e-4,-0.0077 7.93e-4,-0.01164 -2.64e-4,-0.01349 -0.0019,-0.02725 -0.0048,-0.04127 -0.0011,-0.0058 -0.0029,-0.01164 -0.0045,-0.0172 -0.0024,-0.0087 -0.0048,-0.01746 -0.0082,-0.02619 -0.0026,-0.0069 -0.0053,-0.01402 -0.0085,-0.02117 -0.0032,-0.0077 -0.0069,-0.01535 -0.01085,-0.02302 -0.0037,-0.0074 -0.0074,-0.01508 -0.01217,-0.02355 -0.01746,-0.03122 -0.03863,-0.06297 -0.06297,-0.09499 -0.04868,-0.06482 -0.107157,-0.169863 -0.15584,-0.264054 -0.03334,-0.06456 -0.06191,-0.123561 -0.0799,-0.161396 0.0066,-0.04471 -0.0048,-0.0979 -0.04657,-0.149754 -0.06324,-0.07858 -0.156633,-0.290513 -0.232833,-0.489744 0.0048,0.0032 0.0098,0.0066 0.01455,0.0098 0.05688,0.03784 0.114829,0.0762 0.174625,0.114829 1.002242,0.649816 2.312723,1.579562 2.894277,1.392766 0.02487,-0.0079 0.04974,-0.01746 0.07408,-0.02805 0.0077,-0.0032 0.01508,-0.0069 0.02249,-0.01032 0.01746,-0.0082 0.03493,-0.0172 0.05212,-0.02699 0.0077,-0.0042 0.01535,-0.0085 0.02275,-0.01296 0.02143,-0.01296 0.04286,-0.02672 0.06403,-0.0418 0.0024,-0.0016 0.0048,-0.0032 0.0071,-0.005 0.02249,-0.0164 0.04445,-0.0344 0.06615,-0.05318 0.0074,-0.0063 0.01482,-0.01323 0.02223,-0.01984 0.01535,-0.01402 0.03043,-0.02831 0.04551,-0.04339 0.0074,-0.0074 0.01482,-0.01482 0.02223,-0.02275 0.01799,-0.01905 0.03598,-0.03916 0.05345,-0.06006 0.0032,-0.0037 0.0063,-0.0071 0.0095,-0.01111 0.01984,-0.02434 0.03942,-0.05001 0.05847,-0.0762 0.0066,-0.0093 0.01323,-0.01905 0.01984,-0.02857 0.01296,-0.01905 0.02593,-0.03836 0.03863,-0.05821 0.0066,-0.01058 0.01323,-0.0209 0.01984,-0.03175 0.01482,-0.02461 0.02937,-0.04974 0.04366,-0.07567 0.0032,-0.0058 0.0066,-0.01164 0.0098,-0.01746 0.01693,-0.03122 0.03281,-0.06376 0.04868,-0.0971 0.0056,-0.01138 0.01058,-0.02328 0.01614,-0.03493 0.01085,-0.02408 0.02143,-0.04842 0.03175,-0.07329 0.0053,-0.0127 0.01058,-0.02513 0.01561,-0.0381 0.01191,-0.0299 0.02355,-0.06059 0.03466,-0.09181 0.0026,-0.0071 0.0053,-0.01402 0.0079,-0.02143 0.01323,-0.03784 0.0254,-0.07673 0.03731,-0.116417 0.0037,-0.0127 0.0074,-0.0254 0.01111,-0.0381 0.0085,-0.02937 0.0164,-0.059 0.02408,-0.08916 0.0034,-0.01376 0.0071,-0.02752 0.01032,-0.04154 0.0087,-0.03625 0.01693,-0.07303 0.02487,-0.110596 0.0013,-0.0069 0.0029,-0.01323 0.0042,-0.02011 0.009,-0.04445 0.01693,-0.08969 0.02434,-0.135731 5.29e-4,-0.0037 0.0013,-0.0074 0.0016,-0.01058 0.06562,-0.413808 0.06959,-0.886883 -0.01032,-1.391708 -0.23839,-1.502833 -1.120511,-2.363523 -1.205442,-2.573602 -0.289454,-0.635265 -0.570177,-1.012825 -0.570177,-1.012825 l 0.0063,-0.01111 c -0.0026,-0.0016 -0.0048,-0.0029 -0.0074,-0.0042 -0.01482,-0.256381 -0.253206,-0.924983 -0.559065,-1.566598 0.0019,-0.01693 0.0011,-0.02884 0.0011,-0.03016 l -0.01482,0.0013 c -0.0093,-0.01931 -0.01852,-0.03863 -0.02778,-0.05794 -0.331788,-0.67945 -0.821532,-1.64809 -1.163109,-1.892565 0,0 0.0019,-0.0127 -0.0042,-0.01349 -0.0021,-0.0074 -0.0045,-0.01455 -0.0069,-0.02196 0.04551,0.0066 0.08863,0.01429 0.129646,0.02302 0.07064,0.07779 0.150283,0.161396 0.150283,0.161396 -0.02275,-0.05106 -0.0852,-0.114036 -0.13335,-0.157692 0.04101,0.009 0.08017,0.01852 0.116681,0.02884 0.02805,0.05292 0.06112,0.08678 0.06112,0.08678 -0.01402,-0.03519 -0.03572,-0.06482 -0.05186,-0.08414 0.02143,0.0061 0.04207,0.01244 0.06218,0.01879 l 0.116681,0.139435 c -0.02143,-0.05636 -0.05556,-0.09895 -0.08625,-0.129646 0.02037,0.0069 0.03995,0.01376 0.059,0.02064 l 0.116681,0.109008 c -0.02328,-0.03889 -0.04895,-0.06879 -0.07355,-0.09287 0.04868,0.01879 0.09207,0.03704 0.12991,0.05292 0.02963,0.02963 0.05768,0.059 0.07461,0.07885 -0.01455,-0.02514 -0.02884,-0.0463 -0.04286,-0.06535 0.02699,0.01138 0.05107,0.02064 0.07223,0.02805 0.01058,0.01852 0.01852,0.03704 0.01958,0.05318 -2.65e-4,-0.01852 -0.0032,-0.0344 -0.0069,-0.04895 0.0087,0.0026 0.01693,0.0048 0.02461,0.0063 0.0037,0.01958 0.0061,0.03836 0.0056,0.05371 0.0042,-0.01931 0.0058,-0.03598 0.0063,-0.05159 0.0066,0.0011 0.01323,0.0016 0.01905,0.0016 0.02461,-2.64e-4 0.04762,-0.01667 0.06694,-0.04286 0.06826,0.06588 0.760941,0.754591 1.295135,2.107935 0.141288,0.405606 0.176213,0.515408 0.318294,0.532342 0.08414,0.09525 0.364067,0.378089 1.016794,0.764381 0.718608,0.42545 1.119452,0.775229 1.299368,0.648229 0.0762,0.07937 0.298186,0.318294 0.351102,0.467783 0.0019,0.0064 0.0048,0.01164 0.01323,0.02037 0.0029,0.0026 0.0061,0.0053 0.0098,0.0071 0.0021,0.0011 0.0048,0.0019 0.0071,0.0026 0.0037,0.0013 0.0074,0.0024 0.01164,0.0032 0.0029,5.29e-4 0.0061,7.94e-4 0.0093,0.0011 0.0042,2.65e-4 0.0085,2.65e-4 0.01297,0 0.0034,-2.64e-4 0.0071,-2.64e-4 0.01058,-7.93e-4 0.0045,-5.3e-4 0.009,-0.0016 0.01587,-0.0032 0.009,0.07832 0.02752,0.287072 0.0074,0.534722 -0.0056,0.08467 0.03254,0.124355 0.08361,0.137319 -0.0069,0.09948 -0.03096,0.332581 -0.108215,0.459052 -0.005,0.0098 -0.0071,0.01905 -0.0077,0.03545 2.65e-4,0.0066 0.0019,0.01323 0.0066,0.02487 0.0013,0.0024 0.0032,0.0045 0.0048,0.0069 -0.07858,0.108744 -0.153987,0.391584 -0.151606,0.503238 0.0011,0.05371 0.05768,0.07937 0.122237,0.08652 -0.02196,0.05239 -0.06085,0.135202 -0.10107,0.16801 0.07779,-0.05636 0.104775,-0.123296 0.114035,-0.166952 0.02275,0.0016 0.04604,0.0011 0.068,-0.0016 -0.02143,0.05133 -0.06324,0.134143 -0.124354,0.177006 0,0 0.104246,-0.0545 0.133614,-0.178065 0.0127,-0.0019 0.02461,-0.0042 0.03572,-0.0071 -2.65e-4,0.08652 0.03995,0.112713 0.03995,0.112713 -0.01905,-0.02752 -0.02857,-0.07805 -0.03307,-0.114565 0.01376,-0.0042 0.0254,-0.009 0.03493,-0.01482 0.0013,0.04286 0.01323,0.105568 0.06588,0.134143 -0.03175,-0.0291 -0.04921,-0.09657 -0.05768,-0.139435 0.0077,-0.0061 0.01296,-0.01296 0.01376,-0.02037 0,-0.0045 0,-0.009 -2.65e-4,-0.01376 -0.0024,-0.09155 0.0026,-0.216165 0.0087,-0.321734 2.65e-4,-0.005 5.29e-4,-0.01032 7.94e-4,-0.01508 2.65e-4,-0.0058 7.94e-4,-0.01164 0.0011,-0.0172 0.0037,-0.05953 0.0071,-0.109802 0.0095,-0.140758 0.0069,-0.0026 0.01349,-0.0056 0.0217,-0.01005 0.04762,-0.02619 0.08969,-0.07435 0.109009,-0.153723 0.03387,-0.125148 0.03334,-0.236008 0.02381,-0.326231 z m -7.058289,-7.55015 c -0.08784,-0.009 -0.176742,-0.01773 -0.2667,-0.02593 -0.04022,-0.0037 -0.08096,-0.0071 -0.121444,-0.01085 0.194998,0.01455 0.323321,0.02831 0.388408,0.03598 2.65e-4,2.65e-4 0,5.29e-4 -2.64e-4,7.94e-4 z m 0.174095,1.844675 c -0.0066,0.0291 -0.01402,0.05794 -0.02143,0.08652 0.01032,-0.04445 0.01905,-0.08863 0.02778,-0.132556 -0.0021,0.01561 -0.004,0.03043 -0.0063,0.04604 z"
       id="path5"
       style="stroke-width:0.264583" />
  </g>
</svg>
