<?xml version="1.0" encoding="UTF-8" standalone="no"?>
<!-- Created with Inkscape (http://www.inkscape.org/) -->

<svg
   width="32mm"
   height="24.799999mm"
   viewBox="0 0 32 24.799999"
   version="1.1"
   id="svg1"
   inkscape:version="1.4.3 (0d15f75, 2025-12-25)"
   sodipodi:docname="fly.svg"
   xmlns:inkscape="http://www.inkscape.org/namespaces/inkscape"
   xmlns:sodipodi="http://sodipodi.sourceforge.net/DTD/sodipodi-0.dtd"
   xmlns="http://www.w3.org/2000/svg"
   xmlns:svg="http://www.w3.org/2000/svg">
  <sodipodi:namedview
     id="namedview1"
     pagecolor="#ffffff"
     bordercolor="#000000"
     borderopacity="0.25"
     inkscape:showpageshadow="2"
     inkscape:pageopacity="0.0"
     inkscape:pagecheckerboard="0"
     inkscape:deskcolor="#d1d1d1"
     inkscape:document-units="mm"
     inkscape:zoom="5.8083612"
     inkscape:cx="61.204871"
     inkscape:cy="66.025508"
     inkscape:window-width="1920"
     inkscape:window-height="1017"
     inkscape:window-x="-8"
     inkscape:window-y="-8"
     inkscape:window-maximized="1"
     inkscape:current-layer="layer1"
     showgrid="false" />
  <defs
     id="defs1" />
  <g
     inkscape:label="Layer 1"
     inkscape:groupmode="layer"
     id="layer1">
    <g
       id="g478"
       transform="matrix(0.36071744,0,0,0.36071744,-85.661898,-46.034606)">
      <g
         id="g459">
        <path
           style="fill:#354546"
           d="m 273.07169,195.87944 c -0.086,0 -0.172,-0.02 -0.253,-0.065 -0.252,-0.139 -0.345,-0.457 -0.205,-0.711 l 4.9,-8.884 -6.534,-6.441 c -0.182,-0.179 -0.208,-0.461 -0.064,-0.671 l 5.525,-7.975 c 0.165,-0.238 0.49,-0.297 0.728,-0.133 0.238,0.164 0.297,0.49 0.133,0.728 l -5.274,7.614 6.504,6.413 c 0.166,0.163 0.203,0.419 0.09,0.625 l -5.092,9.23 c -0.096,0.173 -0.275,0.27 -0.458,0.27 z"
           id="path458" />
      </g>
      <g
         id="g460">
        <path
           style="fill:#455556"
           d="m 275.589,146.449 c -0.263,0 -0.489,-0.197 -0.519,-0.465 l -1.161,-10.248 -3.276,-7.38 c -0.116,-0.264 0.002,-0.573 0.267,-0.691 0.262,-0.118 0.573,0.002 0.69,0.266 l 3.309,7.453 c 0.021,0.049 0.036,0.101 0.042,0.153 l 1.17,10.329 c 0.032,0.287 -0.174,0.546 -0.461,0.578 -0.022,0.004 -0.042,0.005 -0.061,0.005 z"
           id="path459" />
      </g>
      <g
         id="g461">
        <path
           style="fill:#455556"
           d="m 267.319,160.7 c -0.053,0 -0.106,-0.008 -0.159,-0.025 -0.275,-0.088 -0.427,-0.383 -0.339,-0.658 l 2.78,-8.653 -9.063,-9.256 c -0.202,-0.206 -0.198,-0.537 0.008,-0.739 0.207,-0.202 0.537,-0.199 0.739,0.008 l 9.283,9.48 c 0.137,0.139 0.184,0.341 0.125,0.526 l -2.877,8.955 c -0.069,0.22 -0.275,0.362 -0.497,0.362 z"
           id="path460" />
      </g>
      <g
         id="g462">
        <path
           style="fill:#455556"
           d="m 267.581,161.469 c -0.404,0 -0.748,-0.311 -0.782,-0.721 -0.035,-0.432 0.285,-0.811 0.718,-0.847 l 9.465,-0.784 c 0.437,-0.041 0.811,0.284 0.846,0.717 0.037,0.432 -0.284,0.811 -0.716,0.846 l -9.465,0.785 c -0.023,0.002 -0.045,0.004 -0.066,0.004 z"
           id="path461" />
      </g>
      <g
         id="g463">
        <path
           style="fill:#354546"
           d="m 272.438,196.141 c -0.038,0 -0.079,-0.003 -0.118,-0.009 l -1.79,-0.27 c -0.429,-0.065 -0.724,-0.465 -0.66,-0.893 0.066,-0.43 0.469,-0.727 0.894,-0.66 l 1.791,0.27 c 0.429,0.065 0.724,0.465 0.659,0.895 -0.061,0.389 -0.395,0.667 -0.776,0.667 z"
           id="path462" />
      </g>
      <g
         id="g475">
        <g
           id="g464"
           transform="translate(-0.68084306)">
          <path
             style="fill:#354546"
             d="m 291.352,196.132 c 0.085,0 0.172,-0.02 0.252,-0.065 0.253,-0.139 0.344,-0.457 0.205,-0.711 l -4.899,-8.884 6.534,-6.441 c 0.181,-0.179 0.208,-0.461 0.063,-0.671 l -5.524,-7.975 c -0.165,-0.238 -0.49,-0.297 -0.728,-0.133 -0.236,0.164 -0.297,0.49 -0.132,0.728 l 5.274,7.614 -6.504,6.413 c -0.166,0.163 -0.204,0.419 -0.091,0.625 l 5.092,9.23 c 0.095,0.173 0.274,0.27 0.458,0.27 z"
             id="path463" />
        </g>
        <g
           id="g473">
          <g
             id="g465">
            <path
               style="fill:#455556"
               d="m 288.076,146.449 c 0.263,0 0.488,-0.197 0.52,-0.465 l 1.16,-10.248 3.276,-7.38 c 0.117,-0.264 -0.002,-0.573 -0.267,-0.691 -0.263,-0.118 -0.573,0.002 -0.689,0.266 l -3.31,7.453 c -0.022,0.049 -0.034,0.101 -0.042,0.153 l -1.169,10.329 c -0.032,0.287 0.174,0.546 0.461,0.578 0.02,0.004 0.04,0.005 0.06,0.005 z"
               id="path464" />
          </g>
          <path
             style="fill:#263536"
             d="m 283.146,142.505 c 0.381,-0.053 0.68,-0.367 0.68,-0.763 0,-0.434 -0.352,-0.785 -0.784,-0.785 h -1.208 -1.208 c -0.434,0 -0.785,0.352 -0.785,0.785 0,0.396 0.299,0.71 0.681,0.763 -0.705,2.167 -1.225,8.624 -1.225,8.624 0,0.922 0.748,1.669 1.669,1.669 0.318,0 0.614,-0.095 0.868,-0.251 0.253,0.156 0.549,0.251 0.867,0.251 0.922,0 1.669,-0.747 1.669,-1.669 -10e-4,-0.001 -0.519,-6.456 -1.224,-8.624 z"
             id="path465" />
          <path
             style="fill:#354546"
             d="m 285.389,151.169 c 1.576,0.354 3.244,-1.093 3.726,-3.232 0.481,-2.141 -0.406,-4.162 -1.982,-4.518 -1.576,-0.355 -3.243,1.092 -3.726,3.232 -0.482,2.141 0.404,4.163 1.982,4.518 z"
             id="path466" />
          <path
             style="fill:#556566"
             d="m 281.838,163.879 c -0.001,0 -0.003,0 -0.005,0 -0.002,0 -0.004,0 -0.006,0 -2.641,0 -4.781,2.14 -4.781,4.781 v 11.316 c 0,2.641 2.141,4.781 4.781,4.781 0.002,0 0.004,0 0.006,0 0.002,0 0.004,0 0.005,0 2.641,0 4.781,-2.141 4.781,-4.781 V 168.66 c 0,-2.641 -2.141,-4.781 -4.781,-4.781 z"
             id="path467" />
          <path
             style="fill:#455556"
             d="m 281.838,150.116 c -0.001,0 -0.004,0 -0.005,0 -0.002,0 -0.004,0 -0.006,0 -3.444,0 -6.237,2.793 -6.237,6.238 v 3.207 c 0,3.445 2.793,6.237 6.237,6.237 0.002,0 0.004,0 0.006,0 10e-4,0 0.004,0 0.005,0 3.444,0 6.237,-2.792 6.237,-6.237 v -3.207 c 0,-3.445 -2.793,-6.238 -6.237,-6.238 z"
             id="path468" />
          <g
             id="g469">
            <path
               style="fill:#455556"
               d="m 296.346,160.7 c 0.053,0 0.106,-0.008 0.16,-0.025 0.274,-0.088 0.427,-0.383 0.337,-0.658 l -2.779,-8.653 9.063,-9.256 c 0.202,-0.206 0.198,-0.537 -0.008,-0.739 -0.207,-0.202 -0.537,-0.199 -0.74,0.008 l -9.282,9.48 c -0.136,0.139 -0.185,0.341 -0.125,0.526 l 2.877,8.955 c 0.07,0.22 0.275,0.362 0.497,0.362 z"
               id="path469" />
          </g>
          <g
             id="g470">
            <path
               style="fill:#455556"
               d="m 296.085,161.469 c 0.404,0 0.747,-0.311 0.78,-0.721 0.036,-0.432 -0.284,-0.811 -0.716,-0.847 l -9.466,-0.784 c -0.436,-0.041 -0.811,0.284 -0.846,0.717 -0.036,0.432 0.285,0.811 0.717,0.846 l 9.465,0.785 c 0.022,0.002 0.045,0.004 0.066,0.004 z"
               id="path470" />
          </g>
          <g
             id="g472">
            <g
               id="g471">
              <path
                 style="fill:#c5d5d6;fill-opacity:0.8"
                 d="m 283.657,156.424 c 2.523,-0.534 9.261,5.875 13.254,15.526 4.109,9.939 6.05,21.688 3.491,22.353 -3.533,0.918 -15.448,-6.539 -16.177,-12.16 -1.607,-12.404 -3.146,-24.114 -0.991,-25.542 z"
                 id="path471" />
            </g>
          </g>
        </g>
        <g
           id="g474">
          <path
             style="fill:#354546"
             d="m 291.227,196.141 c 0.04,0 0.079,-0.003 0.119,-0.009 l 1.791,-0.27 c 0.428,-0.065 0.724,-0.465 0.658,-0.893 -0.064,-0.43 -0.468,-0.727 -0.893,-0.66 l -1.79,0.27 c -0.429,0.065 -0.724,0.465 -0.659,0.895 0.058,0.389 0.393,0.667 0.774,0.667 z"
             id="path473" />
        </g>
      </g>
      <path
         style="fill:#354546"
         d="m 278.276,151.169 c -1.576,0.354 -3.244,-1.093 -3.726,-3.232 -0.481,-2.141 0.405,-4.162 1.982,-4.518 1.576,-0.355 3.243,1.092 3.726,3.232 0.481,2.141 -0.405,4.163 -1.982,4.518 z"
         id="path475" />
      <g
         id="g477">
        <g
           id="g476">
          <path
             style="fill:#c5d5d6;fill-opacity:0.8"
             d="m 280.008,156.424 c -2.524,-0.534 -9.262,5.875 -13.253,15.526 -4.11,9.939 -6.051,21.688 -3.492,22.353 3.533,0.918 15.448,-6.539 16.176,-12.16 1.607,-12.404 3.146,-24.114 0.991,-25.542 z"
             id="path476" />
        </g>
      </g>
    </g>
  </g>
</svg>
