<?xml version="1.0" encoding="UTF-8" standalone="no"?>
<!-- Created with Inkscape (http://www.inkscape.org/) -->

<svg
   width="20.417578mm"
   height="20.065418mm"
   viewBox="0 0 20.417578 20.065418"
   version="1.1"
   id="svg1"
   inkscape:version="1.4.3 (0d15f75, 2025-12-25)"
   sodipodi:docname="glue paper.svg"
   xmlns:inkscape="http://www.inkscape.org/namespaces/inkscape"
   xmlns:sodipodi="http://sodipodi.sourceforge.net/DTD/sodipodi-0.dtd"
   xmlns="http://www.w3.org/2000/svg"
   xmlns:svg="http://www.w3.org/2000/svg">
  <sodipodi:namedview
     id="namedview1"
     pagecolor="#ffffff"
     bordercolor="#000000"
     borderopacity="0.25"
     inkscape:showpageshadow="2"
     inkscape:pageopacity="0.0"
     inkscape:pagecheckerboard="0"
     inkscape:deskcolor="#d1d1d1"
     inkscape:document-units="mm"
     inkscape:zoom="0.72604517"
     inkscape:cx="396.66953"
     inkscape:cy="561.25984"
     inkscape:window-width="1920"
     inkscape:window-height="1017"
     inkscape:window-x="-8"
     inkscape:window-y="-8"
     inkscape:window-maximized="1"
     inkscape:current-layer="layer1" />
  <defs
     id="defs1" />
  <g
     inkscape:label="Layer 1"
     inkscape:groupmode="layer"
     id="layer1">
    <g
       id="g413"
       transform="matrix(0.26458333,0,0,0.26458333,-32.72737,-35.63149)">
	<g
   id="g401">
		<g
   id="g399">
			<g
   id="g391">
				<path
   style="fill:#fbcc02"
   d="m 173.078,134.992 -26.743,14.146 c -1.355,0.717 -1.877,2.411 -1.16,3.766 l 13.09,24.746 0.674,1.274 9.933,18.777 c 0.716,1.355 2.411,1.877 3.766,1.16 l 26.743,-14.146 c 1.355,-0.717 1.877,-2.411 1.16,-3.766 l -9.933,-18.777 -0.674,-1.274 -13.09,-24.746 c -0.717,-1.355 -2.412,-1.877 -3.766,-1.16 z"
   id="path390" />

			</g>

			<g
   id="g392">
				<path
   style="fill:#f9ae06"
   d="m 197.997,183.042 -25.964,13.734 c -0.423,0.223 -0.951,0.061 -1.174,-0.362 l -23.498,-44.422 c -0.223,-0.422 -0.061,-0.951 0.362,-1.174 l 25.964,-13.734 c 0.422,-0.223 0.951,-0.061 1.174,0.362 l 23.498,44.422 c 0.223,0.422 0.06,0.951 -0.362,1.174 z"
   id="path391" />

			</g>

			<g
   id="g393">
				<path
   style="fill:#a04927"
   d="m 172.58,143.708 -18.76,9.923 c -0.546,0.289 -1.228,0.078 -1.517,-0.467 v 0 c -0.289,-0.546 -0.078,-1.228 0.467,-1.517 l 18.76,-9.923 c 0.546,-0.289 1.228,-0.078 1.517,0.467 v 0 c 0.289,0.545 0.078,1.228 -0.467,1.517 z"
   id="path392" />

			</g>

			<g
   id="g394">
				<path
   style="fill:#a04927"
   d="m 174.639,147.6 -18.76,9.923 c -0.546,0.289 -1.228,0.078 -1.517,-0.467 v 0 c -0.289,-0.546 -0.078,-1.228 0.467,-1.517 l 18.76,-9.923 c 0.546,-0.289 1.228,-0.078 1.517,0.467 v 0 c 0.289,0.546 0.078,1.229 -0.467,1.517 z"
   id="path393" />

			</g>

			<g
   id="g395">
				<path
   style="fill:#a04927"
   d="m 176.824,151.73 -18.76,9.923 c -0.546,0.289 -1.228,0.078 -1.517,-0.467 v 0 c -0.289,-0.546 -0.078,-1.228 0.467,-1.517 l 18.76,-9.923 c 0.546,-0.289 1.228,-0.078 1.517,0.467 v 0 c 0.288,0.546 0.078,1.229 -0.467,1.517 z"
   id="path394" />

			</g>

			<g
   id="g396">
				<path
   style="fill:#a04927"
   d="m 189.252,175.226 -18.76,9.923 c -0.546,0.289 -1.228,0.078 -1.517,-0.467 v 0 c -0.289,-0.546 -0.078,-1.228 0.467,-1.517 l 18.76,-9.923 c 0.546,-0.289 1.228,-0.078 1.517,0.467 v 0 c 0.289,0.546 0.079,1.228 -0.467,1.517 z"
   id="path395" />

			</g>

			<g
   id="g397">
				<path
   style="fill:#a04927"
   d="m 191.287,179.072 -18.76,9.923 c -0.546,0.289 -1.228,0.078 -1.517,-0.467 v 0 c -0.289,-0.546 -0.078,-1.228 0.467,-1.517 l 18.76,-9.923 c 0.546,-0.289 1.228,-0.078 1.517,0.467 v 0 c 0.288,0.546 0.078,1.228 -0.467,1.517 z"
   id="path396" />

			</g>

			<g
   id="g398">
				<path
   style="fill:#a04927"
   d="m 193.471,183.202 -18.76,9.923 c -0.546,0.289 -1.228,0.078 -1.517,-0.467 v 0 c -0.289,-0.546 -0.078,-1.228 0.467,-1.517 l 18.76,-9.923 c 0.546,-0.289 1.228,-0.078 1.517,0.467 v 0 c 0.289,0.546 0.079,1.228 -0.467,1.517 z"
   id="path397" />

			</g>

		</g>

		<g
   id="g400">
			<path
   style="fill:#a04927"
   d="m 179.244,163.218 c -0.219,0.093 -1.778,1.045 -2.141,1.408 -0.145,0.145 -0.282,0.333 -0.391,0.499 -0.191,-0.063 -0.384,-0.124 -0.578,-0.177 -0.73,-0.201 -1.699,-0.431 -2.465,-0.199 -0.011,-0.024 -0.022,-0.052 -0.034,-0.074 -0.087,-0.155 -0.19,-0.302 -0.3,-0.44 0.188,-0.308 0.535,-0.914 0.882,-1.706 0.389,-0.89 0.144,-1.155 0.005,-1.232 -0.057,-0.187 -0.191,-0.489 -0.508,-0.823 -0.192,-0.202 -0.38,-0.338 -0.503,-0.417 0.07,-0.212 0.17,-0.556 0.192,-0.854 0.037,-0.512 -0.263,-2.314 -0.336,-2.541 -0.193,-0.595 -0.387,-0.44 -0.258,0.363 0.022,0.137 0.275,1.549 0.268,1.858 -0.013,0.607 -0.087,1.178 0.063,1.374 v -0.001 c 0.005,0.01 0.011,0.021 0.017,0.029 0.102,0.134 0.269,0.348 0.45,0.561 0.185,0.218 0.396,0.416 0.527,0.534 -0.028,0.207 -0.133,0.704 -0.526,1.516 -0.209,0.432 -0.414,0.764 -0.578,1 -0.271,-0.276 -0.536,-0.486 -0.684,-0.596 0.264,-0.19 0.445,-0.441 0.282,-0.744 -0.224,-0.415 -0.839,-0.467 -1.32,-0.437 v -0.001 c 0,0 -0.295,-0.09 -0.548,-0.082 v 0 c -0.124,-0.029 -0.271,-0.058 -0.422,-0.075 0.059,-0.157 0.09,-0.38 -0.043,-0.632 -0.276,-0.521 -0.214,-0.863 -0.214,-0.863 0,0 -0.327,0.313 -0.184,0.864 0.069,0.266 0.145,0.474 0.204,0.619 -0.111,0.007 -0.229,0.059 -0.328,0.159 -0.086,-0.13 -0.213,-0.305 -0.39,-0.507 -0.375,-0.429 -0.817,-0.334 -0.817,-0.334 0,0 0.317,0.142 0.592,0.663 0.124,0.234 0.308,0.337 0.464,0.383 -0.087,0.146 -0.158,0.302 -0.212,0.436 v 0 c -0.149,0.205 -0.221,0.455 -0.221,0.455 v 0 c -0.308,0.382 -0.657,0.955 -0.428,1.396 0.165,0.318 0.493,0.297 0.81,0.173 0.008,0.193 0.034,0.544 0.115,0.935 -0.294,0.007 -0.715,-0.006 -1.239,-0.084 -0.893,-0.132 -1.363,-0.325 -1.549,-0.419 -0.023,-0.175 -0.069,-0.46 -0.145,-0.736 -0.074,-0.269 -0.157,-0.527 -0.21,-0.687 -0.003,-0.01 -0.009,-0.02 -0.014,-0.031 h 0.001 c -0.077,-0.235 -0.59,-0.495 -1.1,-0.825 -0.259,-0.168 -1.284,-1.172 -1.385,-1.267 -0.592,-0.558 -0.829,-0.485 -0.446,0.009 0.146,0.188 1.467,1.45 1.911,1.707 0.258,0.15 0.599,0.261 0.814,0.322 -0.004,0.146 0.003,0.378 0.062,0.651 0.097,0.45 0.272,0.73 0.394,0.883 -0.015,0.158 0.067,0.51 1.021,0.689 0.931,0.174 1.679,0.222 2.001,0.235 0.049,0.153 0.108,0.305 0.18,0.449 0.019,0.038 0.045,0.079 0.071,0.119 -0.518,0.524 -0.829,1.346 -1.051,1.994 -0.08,0.235 -0.154,0.472 -0.22,0.711 -0.224,-0.012 -0.556,-0.016 -0.832,0.036 -0.504,0.096 -2.169,0.848 -2.369,0.977 -0.525,0.339 -0.326,0.487 0.417,0.156 0.127,-0.057 1.426,-0.664 1.727,-0.736 0.382,-0.093 0.754,-0.157 1.011,-0.244 -0.167,0.647 -0.283,1.306 -0.323,1.974 -0.118,1.988 0.413,4.152 1.804,5.633 -0.01,-0.017 -0.022,-0.035 -0.033,-0.052 0.246,0.282 0.51,0.396 0.778,0.114 0.016,-0.017 0.032,-0.032 0.048,-0.052 0.495,-0.61 0.875,-1.355 1.173,-2.07 0.153,0.503 0.308,1.074 0.351,1.589 0.088,1.064 -0.269,1.959 -0.421,2.366 -0.069,0.184 -0.075,0.501 0.152,0.09 0.546,-0.993 0.62,-1.944 0.526,-2.679 -0.031,-0.239 -0.248,-1.094 -0.463,-1.727 0.056,-0.145 0.109,-0.287 0.159,-0.425 0.003,0.019 0.008,0.037 0.009,0.057 0.005,-0.031 0.006,-0.065 0.007,-0.1 0.001,-0.004 0.003,-0.008 0.004,-0.012 0.08,-0.226 0.152,-0.44 0.217,-0.637 0.012,-0.037 0.022,-0.074 0.033,-0.111 0.127,-0.408 0.212,-0.805 0.265,-1.187 1.259,0.91 2.727,1.078 2.859,1.091 l 0.003,0.005 c 0,0 0.001,-0.002 0.003,-0.005 0.003,0 0.005,10e-4 0.005,10e-4 l -0.003,-0.005 c 0.037,-0.068 0.288,-0.544 0.482,-1.238 0.161,-0.577 0.277,-1.305 0.202,-2.075 0.429,0.242 0.917,0.459 1.459,0.624 0.037,0.011 0.073,0.024 0.111,0.035 0.199,0.057 0.417,0.118 0.649,0.179 0.004,0.001 0.008,0.002 0.012,0.003 0.029,0.019 0.057,0.037 0.086,0.051 -0.015,-0.012 -0.027,-0.027 -0.042,-0.039 0.186,0.048 0.381,0.096 0.582,0.141 0.399,0.519 0.938,1.126 1.109,1.278 0.555,0.491 1.382,0.966 2.51,1.072 0.467,0.044 0.202,-0.129 0.011,-0.176 -0.423,-0.103 -1.362,-0.312 -2.193,-0.983 -0.379,-0.306 -0.741,-0.722 -1.057,-1.112 0.72,0.14 1.495,0.229 2.23,0.167 0.025,-0.002 0.047,-0.007 0.07,-0.01 0.383,-0.063 0.438,-0.345 0.343,-0.707 0.008,0.019 0.017,0.039 0.025,0.057 -0.441,-1.983 -1.932,-3.64 -3.641,-4.661 -0.592,-0.354 -1.223,-0.637 -1.873,-0.866 0.177,-0.157 0.376,-0.355 0.59,-0.549 0.229,-0.208 1.462,-0.94 1.58,-1.013 0.696,-0.431 0.686,-0.679 0.11,-0.435 z m -5.5,1.727 c 0,0 0,-0.001 0,-0.001 h 0.001 c 0,-10e-4 -0.001,0 -0.001,0.001 z"
   id="path399" />

		</g>

	</g>

	<g
   id="g412">
		<g
   id="g411">
			<g
   id="g402">
				<path
   style="fill:#fbcc02"
   d="M 156.734,154.257 H 126.48 c -1.533,0 -2.786,1.254 -2.786,2.786 v 27.995 1.441 21.243 c 0,1.533 1.254,2.786 2.786,2.786 h 30.254 c 1.533,0 2.786,-1.254 2.786,-2.786 v -21.242 -1.441 -27.995 c 10e-4,-1.533 -1.253,-2.787 -2.786,-2.787 z"
   id="path401" />

			</g>

			<g
   id="g403">
				<path
   style="fill:#f9ae06"
   d="m 156.294,208.383 h -29.373 c -0.478,0 -0.869,-0.391 -0.869,-0.869 V 157.26 c 0,-0.478 0.391,-0.869 0.869,-0.869 h 29.373 c 0.478,0 0.869,0.391 0.869,0.869 v 50.255 c 0,0.477 -0.391,0.868 -0.869,0.868 z"
   id="path402" />

			</g>

			<g
   id="g404">
				<path
   style="fill:#a04927"
   d="m 152.219,161.729 h -21.223 c -0.617,0 -1.122,-0.505 -1.122,-1.122 v 0 c 0,-0.617 0.505,-1.122 1.122,-1.122 h 21.223 c 0.617,0 1.122,0.505 1.122,1.122 v 0 c 0,0.617 -0.505,1.122 -1.122,1.122 z"
   id="path403" />

			</g>

			<g
   id="g405">
				<path
   style="fill:#a04927"
   d="m 152.219,166.132 h -21.223 c -0.617,0 -1.122,-0.505 -1.122,-1.122 v 0 c 0,-0.617 0.505,-1.122 1.122,-1.122 h 21.223 c 0.617,0 1.122,0.505 1.122,1.122 v 0 c 0,0.617 -0.505,1.122 -1.122,1.122 z"
   id="path404" />

			</g>

			<g
   id="g406">
				<path
   style="fill:#a04927"
   d="m 152.219,170.805 h -21.223 c -0.617,0 -1.122,-0.505 -1.122,-1.122 v 0 c 0,-0.617 0.505,-1.122 1.122,-1.122 h 21.223 c 0.617,0 1.122,0.505 1.122,1.122 v 0 c 0,0.617 -0.505,1.122 -1.122,1.122 z"
   id="path405" />

			</g>

			<g
   id="g407">
				<path
   style="fill:#a04927"
   d="m 152.219,197.385 h -21.223 c -0.617,0 -1.122,-0.505 -1.122,-1.122 v 0 c 0,-0.617 0.505,-1.122 1.122,-1.122 h 21.223 c 0.617,0 1.122,0.505 1.122,1.122 v 0 c 0,0.617 -0.505,1.122 -1.122,1.122 z"
   id="path406" />

			</g>

			<g
   id="g408">
				<path
   style="fill:#a04927"
   d="m 152.219,201.736 h -21.223 c -0.617,0 -1.122,-0.505 -1.122,-1.122 v 0 c 0,-0.617 0.505,-1.122 1.122,-1.122 h 21.223 c 0.617,0 1.122,0.505 1.122,1.122 v 0 c 0,0.617 -0.505,1.122 -1.122,1.122 z"
   id="path407" />

			</g>

			<g
   id="g409">
				<path
   style="fill:#a04927"
   d="m 152.219,206.408 h -21.223 c -0.617,0 -1.122,-0.505 -1.122,-1.122 v 0 c 0,-0.617 0.505,-1.122 1.122,-1.122 h 21.223 c 0.617,0 1.122,0.505 1.122,1.122 v 0 c 0,0.617 -0.505,1.122 -1.122,1.122 z"
   id="path408" />

			</g>

			<g
   id="g410">
				<path
   style="fill:#a04927"
   d="m 148.462,185.385 c -0.676,-0.975 -1.517,-1.817 -2.378,-2.627 -0.622,-0.585 -1.519,-1.322 -2.204,-2.084 -0.066,-0.073 -0.125,-0.141 -0.18,-0.206 0.266,0.09 0.581,0.108 0.581,0.108 0,0 -0.57,-0.266 -1.228,-1.12 -0.02,-0.026 -0.04,-0.051 -0.061,-0.079 -0.151,-0.203 -0.34,-0.379 -0.536,-0.518 0.079,-0.133 0.133,-0.286 0.159,-0.45 0.007,-0.007 0.563,-0.623 0.299,-1.065 -0.246,-0.412 -0.815,-0.258 -0.9,-0.232 -0.034,-0.017 -0.071,-0.028 -0.107,-0.04 0.123,-0.288 0.327,-0.726 0.506,-0.916 0.278,-0.295 1.117,-0.93 1.796,-1.335 1.077,-0.642 1.122,-1.821 1.122,-1.821 0,0 -0.48,0.744 -0.861,1.16 -0.593,0.648 -1.289,0.877 -1.954,1.614 -0.415,0.46 -0.671,0.95 -0.756,1.258 -0.051,-0.009 -0.102,-0.018 -0.156,-0.018 -0.052,0 -0.102,0.009 -0.152,0.018 -0.085,-0.308 -0.341,-0.798 -0.756,-1.258 -0.665,-0.737 -1.361,-0.965 -1.954,-1.614 -0.38,-0.416 -0.861,-1.16 -0.861,-1.16 0,0 0.046,1.179 1.122,1.821 0.679,0.405 1.518,1.04 1.796,1.335 0.179,0.19 0.383,0.627 0.506,0.914 -0.04,0.014 -0.08,0.027 -0.118,0.047 0,0 0,-10e-4 0,-10e-4 0,0 -0.645,-0.217 -0.911,0.229 -0.266,0.446 0.299,1.066 0.299,1.066 0,0 0.009,-0.007 0.018,-0.013 0.025,0.167 0.078,0.322 0.157,0.457 -0.199,0.141 -0.391,0.318 -0.545,0.524 -0.022,0.029 -0.044,0.057 -0.065,0.085 -0.656,0.85 -1.223,1.114 -1.223,1.114 0,0 0.335,-0.02 0.607,-0.118 -0.058,0.068 -0.119,0.139 -0.188,0.215 -0.685,0.762 -1.582,1.5 -2.204,2.084 -0.861,0.81 -1.702,1.652 -2.378,2.627 -1.083,1.559 -1.867,3.931 -0.901,5.736 0.181,0.429 0.436,0.785 0.771,1.019 0.026,0.019 0.053,0.035 0.08,0.052 0.574,0.362 1.275,0.377 2.063,0.186 0.006,0.009 0.011,0.02 0.017,0.029 -0.004,-0.009 -0.007,-0.021 -0.011,-0.03 0.129,-0.032 0.261,-0.068 0.394,-0.11 0.002,0.014 0.003,0.027 0.005,0.041 0.003,-0.014 0.006,-0.03 0.009,-0.045 0.024,-0.008 0.048,-0.014 0.072,-0.022 0.998,-0.329 1.984,-1.295 2.36,-1.771 0.258,-0.326 0.493,-0.801 0.696,-1.357 0.334,0.289 0.742,0.435 1.175,0.435 0.495,0 0.996,-0.17 1.379,-0.56 0.212,0.61 0.463,1.133 0.74,1.483 0.376,0.476 1.361,1.442 2.36,1.771 0.024,0.008 0.048,0.014 0.072,0.022 0.003,0.015 0.006,0.031 0.009,0.045 0.002,-0.014 0.003,-0.027 0.005,-0.041 0.134,0.042 0.265,0.079 0.394,0.11 -0.004,0.01 -0.007,0.021 -0.01,0.03 0.006,-0.009 0.011,-0.019 0.017,-0.029 0.788,0.191 1.489,0.176 2.063,-0.186 0.027,-0.017 0.054,-0.033 0.081,-0.052 0.335,-0.235 0.59,-0.591 0.771,-1.019 0.964,-1.806 0.18,-4.178 -0.903,-5.738 z m -4.127,-4.078 c -0.03,-0.029 -0.059,-0.057 -0.086,-0.083 v 0 c 0.029,0.027 0.058,0.054 0.086,0.083 z m -0.179,-0.179 c -0.021,-0.022 -0.042,-0.045 -0.061,-0.065 -0.012,-0.014 -0.022,-0.026 -0.034,-0.039 0.032,0.034 0.063,0.069 0.095,0.102 0,0.001 0,0.002 0,0.002 z m -5.003,-0.104 c -0.012,0.013 -0.022,0.026 -0.034,0.039 -0.019,0.02 -0.04,0.043 -0.061,0.065 0,0 0,-10e-4 0,-0.002 0.033,-0.033 0.063,-0.068 0.095,-0.102 z m -0.188,0.199 c -0.027,0.027 -0.056,0.055 -0.086,0.083 0.029,-0.028 0.058,-0.055 0.086,-0.083 z"
   id="path409" />

			</g>

		</g>

	</g>

</g>
  </g>
</svg>
