<?xml version="1.0" encoding="UTF-8" standalone="no"?>
<!-- Created with Inkscape (http://www.inkscape.org/) -->

<svg
   width="16.115999mm"
   height="26.672178mm"
   viewBox="0 0 16.115999 26.672178"
   version="1.1"
   id="svg1"
   inkscape:version="1.4.3 (0d15f75, 2025-12-25)"
   sodipodi:docname="insecticide.svg"
   xmlns:inkscape="http://www.inkscape.org/namespaces/inkscape"
   xmlns:sodipodi="http://sodipodi.sourceforge.net/DTD/sodipodi-0.dtd"
   xmlns="http://www.w3.org/2000/svg"
   xmlns:svg="http://www.w3.org/2000/svg">
  <sodipodi:namedview
     id="namedview1"
     pagecolor="#ffffff"
     bordercolor="#000000"
     borderopacity="0.25"
     inkscape:showpageshadow="2"
     inkscape:pageopacity="0.0"
     inkscape:pagecheckerboard="0"
     inkscape:deskcolor="#d1d1d1"
     inkscape:document-units="mm"
     inkscape:zoom="0.72604517"
     inkscape:cx="396.66953"
     inkscape:cy="561.25984"
     inkscape:window-width="1920"
     inkscape:window-height="1017"
     inkscape:window-x="-8"
     inkscape:window-y="-8"
     inkscape:window-maximized="1"
     inkscape:current-layer="layer1" />
  <defs
     id="defs1" />
  <g
     inkscape:label="Layer 1"
     inkscape:groupmode="layer"
     id="layer1">
    <g
       id="g336"
       transform="matrix(-0.26458953,0,0,0.26458953,110.32866,-32.329435)">
	<g
   id="g319">
		<g
   id="g306">
			<polygon
   style="fill:#fbcc02"
   points="393.727,125.472 384.397,126.819 384.397,131.008 393.137,132.603 "
   id="polygon305" />

		</g>

		<g
   id="g307">
			<rect
   x="401.495"
   y="132.09399"
   style="fill:#fbcc02"
   width="4.408"
   height="10.095"
   id="rect306" />

		</g>

		<g
   id="g310">
			<g
   id="g308">
				<path
   style="fill:#fbcc02"
   d="m 416.836,215.828 c 0,-3.408 0.325,-32.558 0,-41.744 -0.226,-6.398 -4.289,-14.067 -6.735,-18.136 h -3.462 -5.88 -3.461 c -2.447,4.069 -6.509,11.738 -6.735,18.136 -0.325,9.186 0,38.336 0,41.744 0,0.409 0.031,0.822 0.093,1.234 h 26.088 c 0.061,-0.412 0.092,-0.825 0.092,-1.234 z"
   id="path307" />

			</g>

			<g
   id="g309">
				<path
   style="fill:#f9ae06"
   d="m 397.912,222.993 c 1.023,0 1.975,0 2.848,0 3.642,0 5.88,0 5.88,0 0.873,0 1.825,0 2.848,0 4.656,0 6.807,-2.91 7.256,-5.931 h -26.088 c 0.449,3.02 2.599,5.931 7.256,5.931 z"
   id="path308" />

			</g>

		</g>

		<g
   id="g311">
			<rect
   x="399.29199"
   y="141.409"
   style="fill:#f9ae06"
   width="8.816"
   height="5.5339999"
   id="rect310" />

		</g>

		<g
   id="g312">
			<rect
   x="397.349"
   y="146.36501"
   style="fill:#f9ae06"
   width="12.7"
   height="9.5839996"
   id="rect311" />

		</g>

		<g
   id="g315">
			<g
   id="g313">
				<path
   style="fill:#f9ae06"
   d="m 414.264,128.338 c -2.357,-3.734 -6.414,-6.96 -14.923,-5.97 -8.509,0.99 -9.48,10.308 -11.987,17.201 -2.507,6.893 -5.213,8.259 -7.698,10.455 -0.654,0.578 -1.099,1.931 -1.275,2.544 1.681,-0.515 4.863,-1.68 7.079,-3.656 3.137,-2.798 6.102,-9.24 8.264,-13.224 2.162,-3.984 5.384,-8.481 11.826,-6.362 6.443,2.119 6.951,5.768 5.086,10.261 -0.784,1.887 -1.743,3.306 -2.594,4.322 l -0.061,2.456 h 2.065 c 0,0 2.275,-1.261 4.527,-6.796 1.167,-2.86 1.607,-8.196 -0.309,-11.231 z"
   id="path312" />

			</g>

			<g
   id="g314">
				<path
   style="fill:#f78f08"
   d="m 405.553,129.325 c -6.443,-2.119 -9.664,2.377 -11.826,6.362 -2.162,3.984 -5.128,10.427 -8.264,13.224 -2.216,1.977 -5.398,3.141 -7.079,3.656 -0.055,0.19 -0.085,0.314 -0.085,0.314 0,0 4.182,0.279 9.093,-3.867 4.912,-4.146 7.146,-14.033 10.708,-15.928 3.931,-2.091 9.344,-0.771 10.721,1.568 1.706,2.898 -0.713,6.754 -0.713,6.754 l -0.062,2.499 c 0.851,-1.016 1.811,-2.435 2.594,-4.322 1.864,-4.492 1.355,-8.141 -5.087,-10.26 z"
   id="path313" />

			</g>

		</g>

		<g
   id="g316">
			<rect
   x="392.922"
   y="176.758"
   style="fill:#ffffff"
   width="22.040001"
   height="30.802"
   id="rect315" />

		</g>

		<g
   id="g317">
			<path
   style="fill:#873217"
   d="m 412.988,192.421 c -0.5,-0.821 -1.716,-1.195 -2.612,-1.465 -0.915,-0.275 -1.818,-0.591 -2.716,-0.919 -0.704,-0.257 -1.403,-0.506 -2.06,-0.85 -0.011,-0.012 -0.021,-0.023 -0.032,-0.034 0.02,-0.155 0.027,-0.304 0.022,-0.438 0.141,-0.124 0.331,-0.286 0.526,-0.436 0.389,-0.299 1.217,-1.206 1.56,-1.722 0.226,-0.341 0.24,-0.539 0.214,-0.647 0.298,-0.485 0.04,-0.688 0.754,-1.57 0.188,-0.232 0.233,-0.379 0.233,-0.468 0.355,-0.263 1.193,-0.749 1.785,-1.102 0.652,-0.389 2.053,-1.128 2.481,-1.685 0.316,-0.411 0.011,-0.371 -0.558,0.098 -0.43,0.355 -1.916,1.258 -2.814,1.717 -0.499,0.255 -0.801,0.626 -0.925,0.862 -10e-4,-0.001 -0.003,-0.004 -0.003,-0.004 0,0 -0.299,0.27 -0.693,0.808 -0.282,0.386 -0.322,0.95 -0.323,1.243 -0.026,0.047 -0.457,0.813 -1.574,1.91 -0.33,0.324 -0.542,0.603 -0.679,0.812 -0.022,-0.154 -0.064,-0.272 -0.123,-0.327 -0.03,-0.027 -0.061,-0.05 -0.092,-0.074 -0.223,-0.176 -0.475,-0.279 -0.714,-0.339 0.117,-0.06 0.221,-0.139 0.309,-0.236 v 0.003 c 0,0 0.691,-0.352 0.642,-0.97 -0.048,-0.618 -0.847,-0.7 -0.847,-0.7 v 0.001 c -0.042,-0.028 -0.087,-0.05 -0.132,-0.072 0.218,-0.405 0.713,-1.283 1.246,-1.955 0.665,-0.838 0.765,-1.097 0.194,-0.719 -0.419,0.277 -1.236,1.648 -1.5,2.644 -0.069,-0.028 -0.142,-0.049 -0.217,-0.063 l -0.122,-5.475 -0.279,5.475 c -0.074,0.014 -0.145,0.034 -0.213,0.061 -0.264,-0.996 -1.081,-2.365 -1.499,-2.642 -0.571,-0.378 -0.471,-0.119 0.194,0.719 0.532,0.67 1.025,1.546 1.244,1.952 -0.048,0.023 -0.097,0.047 -0.141,0.077 -0.097,0.013 -0.782,0.123 -0.827,0.697 -0.048,0.618 0.608,0.951 0.608,0.951 l 10e-4,-0.006 c 0.088,0.102 0.194,0.186 0.314,0.25 -0.159,0.041 -0.326,0.102 -0.49,0.198 -0.104,0.061 -0.207,0.133 -0.304,0.223 -0.07,0.064 -0.115,0.219 -0.132,0.417 -0.131,-0.215 -0.357,-0.529 -0.737,-0.902 -1.117,-1.097 -1.548,-1.863 -1.574,-1.91 -10e-4,-0.293 -0.041,-0.857 -0.322,-1.243 -0.394,-0.539 -0.693,-0.808 -0.693,-0.808 0,0 -0.002,0.002 -0.003,0.004 -0.124,-0.236 -0.426,-0.607 -0.925,-0.862 -0.898,-0.459 -2.384,-1.362 -2.814,-1.717 -0.569,-0.469 -0.874,-0.509 -0.558,-0.098 0.428,0.557 1.83,1.296 2.481,1.685 0.592,0.353 1.43,0.839 1.785,1.102 10e-4,0.089 0.046,0.236 0.233,0.468 0.714,0.881 0.456,1.085 0.754,1.57 -0.026,0.108 -0.012,0.306 0.214,0.647 0.342,0.516 1.17,1.423 1.56,1.722 0.229,0.176 0.449,0.367 0.592,0.495 -0.002,0.126 0.006,0.262 0.026,0.404 -0.663,0.35 -1.371,0.6 -2.082,0.86 -0.898,0.328 -1.8,0.643 -2.716,0.919 -0.896,0.269 -2.112,0.644 -2.612,1.465 -0.067,0.109 -0.121,0.246 -0.147,0.386 -0.006,0.034 -0.014,0.067 -0.016,0.101 0,0.002 0.001,0.005 0.001,0.007 -0.003,0.066 10e-4,0.132 0.018,0.194 0.016,0.057 0.036,0.103 0.057,0.144 0.011,0.022 0.025,0.042 0.038,0.063 0.005,0.007 0.01,0.015 0.015,0.021 0.504,0.722 2.41,0.705 4.32,-0.288 0.422,-0.219 0.811,-0.472 1.17,-0.741 -0.076,0.16 -0.169,0.373 -0.275,0.645 -0.223,0.577 -0.967,2.058 -1.21,2.538 -0.272,0.295 -0.495,0.464 -0.636,1.328 -0.152,0.928 -0.452,2.904 -0.32,3.429 0.128,0.509 0.279,0.7 0.297,0.449 0.023,-0.31 -0.037,-0.826 -0.01,-1.297 0.073,-1.268 0.13,-1.639 0.33,-2.446 0.16,-0.647 0.275,-1.077 0.339,-1.312 0.087,-0.033 0.253,-0.161 0.54,-0.604 0.347,-0.537 0.699,-1.488 0.864,-1.9 0.203,-0.505 0.266,-0.806 0.281,-0.982 0.709,-0.565 1.28,-1.203 1.692,-1.825 0.098,-0.147 0.184,-0.293 0.263,-0.438 0.002,0.005 0.005,0.01 0.007,0.014 -0.375,0.631 -1.107,1.882 -1.323,2.384 -0.149,0.346 -0.129,0.673 -0.093,0.867 -0.027,0.18 -0.063,0.477 -0.083,0.901 -0.03,0.633 -0.278,2.342 -0.35,2.829 -0.215,0.232 -0.392,0.465 -0.511,1.193 -0.151,0.928 0.057,5.278 0.189,5.804 0.128,0.509 0.279,0.7 0.297,0.449 0.023,-0.31 -0.037,-0.826 -0.01,-1.297 0.072,-1.268 -0.378,-4.013 -0.179,-4.82 0.159,-0.643 0.273,-1.071 0.337,-1.307 0.069,-0.101 0.156,-0.29 0.251,-0.66 0.159,-0.619 0.192,-1.632 0.218,-2.076 0.035,-0.575 -0.008,-0.883 -0.052,-1.048 0.069,-0.21 0.208,-0.569 0.475,-1.066 0.328,-0.609 0.818,-1.368 1.027,-1.846 0.145,0.172 0.328,0.291 0.558,0.307 0.058,0.004 0.154,0.007 0.263,0.008 -0.27,0.017 -0.654,0.092 -0.816,0.381 -0.107,0.189 -0.24,0.561 -0.34,1.073 -0.002,0.005 -0.007,0.017 -0.007,0.017 l 0.004,-0.003 c -0.06,0.314 -0.104,0.682 -0.122,1.1 -10e-4,0.002 -0.005,0.01 -0.005,0.01 l 0.005,-0.002 c -0.016,0.374 -0.011,0.783 0.03,1.232 l -0.002,0.003 0.002,-0.001 c 0.021,0.231 0.048,0.469 0.089,0.718 0.019,0.12 0.046,0.224 0.069,0.337 -0.002,0.005 -0.006,0.012 -0.006,0.012 0,0 0.006,10e-4 0.008,10e-4 0.067,0.332 0.143,0.638 0.229,0.912 -10e-4,0.002 -0.004,0.005 -0.004,0.005 0,0 0.004,0.002 0.006,0.002 0.413,1.308 0.969,1.958 0.969,1.958 0,0 0.683,-0.67 1.145,-2.014 0.004,-0.002 0.009,-0.006 0.009,-0.006 0,0 -0.004,-0.003 -0.006,-0.005 0.122,-0.356 0.232,-0.749 0.305,-1.202 0.118,-0.733 0.143,-1.384 0.118,-1.952 10e-4,0 0.005,0.002 0.005,0.002 0,0 -0.004,-0.007 -0.005,-0.008 -0.016,-0.378 -0.054,-0.714 -0.106,-1.008 10e-4,0.002 0.006,0.008 0.006,0.008 0,0 -0.004,-0.017 -0.013,-0.046 -0.1,-0.548 -0.24,-0.945 -0.352,-1.143 -0.162,-0.288 -0.546,-0.364 -0.816,-0.381 0.108,-0.001 0.205,-0.004 0.263,-0.008 0.231,-0.016 0.415,-0.136 0.561,-0.31 0.209,0.478 0.7,1.239 1.029,1.85 0.268,0.497 0.406,0.856 0.475,1.066 -0.044,0.165 -0.086,0.472 -0.052,1.048 0.027,0.444 0.059,1.457 0.218,2.076 0.095,0.37 0.182,0.559 0.251,0.66 0.064,0.236 0.178,0.664 0.337,1.307 0.2,0.806 -0.251,3.552 -0.178,4.82 0.027,0.471 -0.034,0.987 -0.01,1.297 0.019,0.251 0.17,0.06 0.297,-0.449 0.132,-0.525 0.34,-4.876 0.189,-5.804 -0.119,-0.728 -0.296,-0.961 -0.511,-1.193 -0.072,-0.487 -0.32,-2.196 -0.35,-2.829 -0.02,-0.424 -0.056,-0.721 -0.083,-0.901 0.035,-0.194 0.056,-0.521 -0.093,-0.867 -0.216,-0.503 -0.951,-1.758 -1.326,-2.388 0.004,-0.008 0.008,-0.015 0.011,-0.023 0.081,0.149 0.17,0.299 0.27,0.451 0.459,0.694 1.119,1.406 1.945,2.015 0.037,0.182 0.11,0.437 0.253,0.792 0.166,0.413 0.517,1.363 0.864,1.9 0.286,0.443 0.453,0.571 0.54,0.604 0.064,0.235 0.178,0.665 0.339,1.312 0.2,0.806 0.257,1.178 0.33,2.446 0.027,0.471 -0.034,0.987 -0.01,1.297 0.019,0.251 0.17,0.06 0.297,-0.449 0.132,-0.525 -0.168,-2.501 -0.32,-3.429 -0.141,-0.864 -0.364,-1.033 -0.636,-1.328 -0.243,-0.48 -0.987,-1.962 -1.21,-2.538 -0.06,-0.155 -0.116,-0.289 -0.167,-0.408 0.265,0.18 0.542,0.35 0.838,0.504 1.91,0.993 3.816,1.01 4.32,0.288 0.005,-0.007 0.01,-0.014 0.015,-0.021 0.013,-0.021 0.027,-0.041 0.038,-0.063 0.021,-0.041 0.041,-0.087 0.057,-0.144 0.017,-0.062 0.021,-0.128 0.018,-0.194 0,-0.002 0.001,-0.005 0.001,-0.007 -0.001,-0.034 -0.009,-0.067 -0.016,-0.101 -0.019,-0.142 -0.073,-0.279 -0.14,-0.388 z"
   id="path316" />

		</g>

		<g
   id="g318">
			<rect
   x="392.922"
   y="210.179"
   style="fill:#ffffff"
   width="22.040001"
   height="2.0039999"
   id="rect317" />

		</g>

	</g>

	<g
   id="g335">
		<g
   id="g325">
			<g
   id="g320">
				<ellipse
   style="fill:#d8d8d8"
   cx="367.46201"
   cy="175.689"
   rx="11.391"
   ry="11.134"
   id="ellipse319" />

			</g>

			<g
   id="g321">
				<rect
   x="356.07101"
   y="175.689"
   style="fill:#f23812"
   width="22.781"
   height="47.304001"
   id="rect320" />

			</g>

			<g
   id="g322">
				<polygon
   style="fill:#f23812"
   points="365.146,156.904 361.786,157.938 361.786,159.454 365.146,160.508 "
   id="polygon321" />

			</g>

			<g
   id="g323">
				<rect
   x="364.59601"
   y="156.33099"
   style="fill:#d8d8d8"
   width="4.6430001"
   height="6.4070001"
   id="rect322" />

			</g>

			<g
   id="g324">
				<rect
   x="362.85199"
   y="162.343"
   style="fill:#f23812"
   width="8.1309996"
   height="3.056"
   id="rect323" />

			</g>

		</g>

		<g
   id="g326">
			<rect
   x="373.98801"
   y="175.689"
   style="fill:#db2305"
   width="4.8639998"
   height="47.304001"
   id="rect325" />

		</g>

		<g
   id="g327">
			<path
   style="fill:#f9ae06"
   d="m 366.845,179.907 -6.822,10.122 c -0.765,1.135 0.048,2.663 1.417,2.663 h 6.822 6.822 c 1.368,0 2.182,-1.529 1.417,-2.663 l -6.822,-10.122 c -0.678,-1.005 -2.157,-1.005 -2.834,0 z"
   id="path326" />

		</g>

		<g
   id="g328">
			<path
   style="fill:#ffffff"
   d="m 374.074,188.061 c -0.005,-0.012 -0.009,-0.024 -0.015,-0.036 -0.014,-0.032 -0.023,-0.068 -0.04,-0.095 -0.324,-0.532 -1.112,-0.775 -1.693,-0.95 -0.594,-0.178 -1.178,-0.383 -1.76,-0.596 -0.456,-0.167 -0.91,-0.328 -1.336,-0.551 -0.007,-0.008 -0.016,-0.017 -0.023,-0.025 0.013,-0.099 0.019,-0.195 0.015,-0.281 0.091,-0.08 0.215,-0.186 0.342,-0.283 0.252,-0.194 0.789,-0.782 1.011,-1.116 0.148,-0.223 0.154,-0.346 0.137,-0.416 0.197,-0.317 0.027,-0.448 0.491,-1.021 0.122,-0.151 0.15,-0.245 0.151,-0.303 0.229,-0.171 0.774,-0.486 1.158,-0.715 0.422,-0.252 1.331,-0.731 1.608,-1.092 0.205,-0.266 0.007,-0.24 -0.362,0.064 -0.279,0.23 -1.242,0.815 -1.824,1.113 -0.324,0.166 -0.519,0.407 -0.599,0.559 l -0.002,-0.003 c 0,0 -0.194,0.175 -0.449,0.524 -0.183,0.25 -0.209,0.616 -0.209,0.806 -0.017,0.03 -0.297,0.527 -1.021,1.238 -0.219,0.215 -0.355,0.397 -0.444,0.534 -0.014,-0.1 -0.038,-0.184 -0.076,-0.219 -0.019,-0.018 -0.04,-0.032 -0.06,-0.048 -0.147,-0.116 -0.313,-0.183 -0.47,-0.221 0.079,-0.04 0.149,-0.091 0.207,-0.156 l 0.001,0.007 c 0,0 0.448,-0.228 0.416,-0.629 -0.031,-0.4 -0.549,-0.454 -0.549,-0.454 l 0.002,0.017 c -0.03,-0.021 -0.057,-0.045 -0.089,-0.06 0.141,-0.261 0.462,-0.833 0.809,-1.27 0.431,-0.543 0.496,-0.711 0.126,-0.466 -0.272,0.18 -0.8,1.069 -0.97,1.715 -0.044,-0.018 -0.095,-0.02 -0.143,-0.029 l -0.079,-3.563 -0.181,3.562 c -0.047,0.009 -0.097,0.011 -0.14,0.028 -0.17,-0.646 -0.697,-1.534 -0.969,-1.714 -0.37,-0.245 -0.305,-0.077 0.126,0.466 0.346,0.436 0.667,1.006 0.808,1.268 -0.03,0.014 -0.054,0.037 -0.082,0.055 l 0.001,-0.01 c 0,0 -0.517,0.053 -0.549,0.454 -0.032,0.401 0.394,0.616 0.394,0.616 l 0.002,-0.011 c 0.059,0.069 0.13,0.125 0.211,0.168 -0.106,0.026 -0.217,0.066 -0.326,0.13 -0.067,0.039 -0.134,0.086 -0.197,0.144 -0.046,0.042 -0.073,0.145 -0.084,0.274 -0.084,-0.139 -0.228,-0.341 -0.479,-0.588 -0.724,-0.711 -1.004,-1.208 -1.02,-1.238 0,-0.19 -0.026,-0.556 -0.209,-0.806 -0.255,-0.349 -0.449,-0.524 -0.449,-0.524 l -0.002,0.003 c -0.08,-0.153 -0.276,-0.394 -0.6,-0.559 -0.582,-0.298 -1.545,-0.883 -1.824,-1.113 -0.369,-0.304 -0.566,-0.33 -0.362,-0.064 0.278,0.361 1.186,0.84 1.609,1.092 0.384,0.229 0.928,0.544 1.158,0.715 0,0.058 0.028,0.152 0.151,0.303 0.465,0.574 0.294,0.704 0.491,1.021 -0.018,0.07 -0.011,0.193 0.137,0.416 0.222,0.335 0.759,0.922 1.011,1.116 0.153,0.118 0.294,0.24 0.386,0.323 -10e-4,0.081 0.005,0.167 0.017,0.258 -0.431,0.227 -0.891,0.39 -1.353,0.559 -0.582,0.212 -1.167,0.417 -1.76,0.596 -0.581,0.175 -1.369,0.418 -1.693,0.95 -0.017,0.027 -0.026,0.064 -0.04,0.095 -0.006,0.012 -0.01,0.024 -0.015,0.036 -0.017,0.044 -0.028,0.084 -0.035,0.13 -0.003,0.018 -0.014,0.036 -0.015,0.054 -0.002,0.043 0.001,0.087 0.012,0.13 0.022,0.077 0.053,0.125 0.089,0.16 0.343,0.452 1.559,0.438 2.784,-0.199 0.279,-0.145 0.529,-0.314 0.765,-0.493 -0.051,0.106 -0.112,0.242 -0.185,0.431 -0.146,0.376 -0.63,1.341 -0.784,1.646 -0.176,0.191 -0.321,0.3 -0.412,0.861 -0.098,0.602 -0.293,1.883 -0.207,2.223 0.083,0.33 0.181,0.454 0.193,0.291 0.015,-0.201 -0.024,-0.536 -0.007,-0.841 0.047,-0.822 0.084,-1.063 0.214,-1.585 0.107,-0.433 0.179,-0.702 0.22,-0.851 0.056,-0.022 0.164,-0.105 0.35,-0.391 0.225,-0.348 0.453,-0.964 0.56,-1.232 0.137,-0.342 0.176,-0.539 0.183,-0.65 0.454,-0.364 0.831,-0.769 1.096,-1.169 0.067,-0.101 0.113,-0.198 0.167,-0.296 0.003,0.007 0.007,0.012 0.01,0.019 -0.242,0.408 -0.719,1.222 -0.86,1.549 -0.097,0.226 -0.082,0.43 -0.059,0.555 -0.018,0.115 -0.042,0.304 -0.055,0.591 -0.02,0.412 -0.181,1.522 -0.227,1.834 -0.139,0.15 -0.254,0.301 -0.331,0.773 -0.098,0.602 0.037,3.422 0.122,3.762 0.083,0.33 0.181,0.454 0.193,0.291 0.015,-0.201 -0.024,-0.536 -0.007,-0.841 0.047,-0.822 -0.245,-2.602 -0.116,-3.124 0.107,-0.431 0.178,-0.698 0.219,-0.848 0.044,-0.066 0.101,-0.188 0.162,-0.427 0.103,-0.401 0.124,-1.058 0.142,-1.346 0.022,-0.37 -0.005,-0.57 -0.033,-0.677 0.043,-0.134 0.128,-0.36 0.308,-0.693 0.214,-0.396 0.533,-0.891 0.668,-1.2 0.094,0.112 0.211,0.192 0.36,0.202 0.041,0.003 0.113,0.004 0.191,0.005 -0.175,0.007 -0.44,0.051 -0.55,0.247 -0.069,0.123 -0.156,0.364 -0.22,0.696 -0.001,0.003 -0.004,0.011 -0.004,0.011 l 0.003,-0.002 c -0.039,0.203 -0.068,0.442 -0.079,0.713 -10e-4,0.001 -0.003,0.007 -0.003,0.007 l 0.003,-0.001 c -0.01,0.243 -0.007,0.508 0.019,0.798 l -10e-4,0.002 h 10e-4 c 0.014,0.15 0.031,0.304 0.057,0.465 0.013,0.078 0.03,0.145 0.044,0.218 -0.002,0.003 -0.004,0.008 -0.004,0.008 l 0.005,0.001 c 0.043,0.215 0.093,0.414 0.148,0.591 -10e-4,0.001 -0.002,0.003 -0.002,0.003 l 0.004,0.001 c 0.267,0.848 0.628,1.27 0.628,1.27 0,0 0.443,-0.434 0.742,-1.306 0,0 0.006,-0.003 0.006,-0.003 0,0 -0.002,-0.002 -0.004,-0.003 0.079,-0.231 0.15,-0.486 0.198,-0.779 0.077,-0.475 0.092,-0.897 0.077,-1.265 l 0.003,10e-4 c 0,0 -0.003,-0.004 -0.003,-0.005 -0.01,-0.245 -0.035,-0.462 -0.069,-0.653 l 0.004,0.004 c 0,0 -0.003,-0.011 -0.008,-0.03 -0.065,-0.355 -0.156,-0.613 -0.228,-0.741 -0.11,-0.196 -0.375,-0.239 -0.55,-0.247 0.078,-10e-4 0.15,-0.002 0.191,-0.005 0.15,-0.01 0.268,-0.091 0.362,-0.204 0.134,0.31 0.454,0.805 0.668,1.202 0.179,0.333 0.264,0.56 0.308,0.693 -0.028,0.107 -0.055,0.306 -0.033,0.677 0.017,0.288 0.038,0.945 0.141,1.346 0.062,0.24 0.118,0.362 0.162,0.427 0.041,0.15 0.112,0.417 0.219,0.848 0.129,0.523 -0.163,2.303 -0.116,3.124 0.018,0.305 -0.022,0.64 -0.007,0.841 0.012,0.163 0.11,0.039 0.193,-0.291 0.085,-0.34 0.22,-3.16 0.122,-3.762 -0.077,-0.472 -0.192,-0.623 -0.331,-0.773 -0.046,-0.311 -0.207,-1.422 -0.227,-1.834 -0.013,-0.287 -0.037,-0.476 -0.055,-0.591 0.023,-0.126 0.039,-0.329 -0.059,-0.555 -0.141,-0.327 -0.619,-1.144 -0.861,-1.551 0.004,-0.008 0.01,-0.015 0.013,-0.024 0.055,0.101 0.103,0.201 0.171,0.304 0.296,0.448 0.727,0.906 1.259,1.3 0.023,0.118 0.072,0.286 0.165,0.519 0.107,0.268 0.335,0.884 0.56,1.232 0.185,0.287 0.293,0.37 0.349,0.391 0.041,0.149 0.113,0.417 0.22,0.851 0.129,0.523 0.167,0.763 0.214,1.585 0.017,0.305 -0.022,0.64 -0.007,0.841 0.012,0.163 0.11,0.039 0.193,-0.291 0.085,-0.34 -0.109,-1.621 -0.207,-2.223 -0.091,-0.56 -0.236,-0.669 -0.412,-0.861 -0.154,-0.304 -0.639,-1.269 -0.784,-1.645 -0.04,-0.104 -0.077,-0.191 -0.111,-0.27 0.173,0.118 0.352,0.231 0.546,0.332 1.225,0.636 2.441,0.651 2.784,0.199 0.035,-0.036 0.067,-0.083 0.089,-0.16 0.011,-0.044 0.014,-0.087 0.012,-0.13 -10e-4,-0.018 -0.012,-0.036 -0.015,-0.054 -0.009,-0.05 -0.02,-0.09 -0.037,-0.133 z"
   id="path327" />

		</g>

		<g
   id="g329">
			<rect
   x="359.728"
   y="197.871"
   style="fill:#ffffff"
   width="16.693001"
   height="1.47"
   id="rect328" />

		</g>

		<g
   id="g330">
			<rect
   x="359.728"
   y="208.138"
   style="fill:#ffffff"
   width="16.693001"
   height="1.47"
   id="rect329" />

		</g>

		<g
   id="g331">
			<rect
   x="359.728"
   y="211.72099"
   style="fill:#ffffff"
   width="16.693001"
   height="1.47"
   id="rect330" />

		</g>

		<g
   id="g332">
			<rect
   x="359.728"
   y="215.304"
   style="fill:#ffffff"
   width="16.693001"
   height="1.47"
   id="rect331" />

		</g>

		<g
   id="g333">
			<rect
   x="359.728"
   y="201.261"
   style="fill:#f9ae06"
   width="16.693001"
   height="4.6859999"
   id="rect332" />

		</g>

		<g
   id="g334">
			<rect
   x="368.07401"
   y="156.33099"
   style="fill:#c1c1c1"
   width="1.165"
   height="5.848"
   id="rect333" />

		</g>

	</g>

</g>
  </g>
</svg>
