<?xml version="1.0" encoding="UTF-8" standalone="no"?>
<!-- Created with Inkscape (http://www.inkscape.org/) -->

<svg
   width="10.234705mm"
   height="26.672178mm"
   viewBox="0 0 10.234705 26.672178"
   version="1.1"
   id="svg1"
   inkscape:version="1.4.3 (0d15f75, 2025-12-25)"
   sodipodi:docname="insecticide.svg"
   xmlns:inkscape="http://www.inkscape.org/namespaces/inkscape"
   xmlns:sodipodi="http://sodipodi.sourceforge.net/DTD/sodipodi-0.dtd"
   xmlns="http://www.w3.org/2000/svg"
   xmlns:svg="http://www.w3.org/2000/svg">
  <sodipodi:namedview
     id="namedview1"
     pagecolor="#ffffff"
     bordercolor="#000000"
     borderopacity="0.25"
     inkscape:showpageshadow="2"
     inkscape:pageopacity="0.0"
     inkscape:pagecheckerboard="0"
     inkscape:deskcolor="#d1d1d1"
     inkscape:document-units="mm"
     inkscape:zoom="5.8083614"
     inkscape:cx="34.777451"
     inkscape:cy="55.179074"
     inkscape:window-width="1920"
     inkscape:window-height="1017"
     inkscape:window-x="-8"
     inkscape:window-y="-8"
     inkscape:window-maximized="1"
     inkscape:current-layer="g336"
     showgrid="false" />
  <defs
     id="defs1" />
  <g
     inkscape:label="Layer 1"
     inkscape:groupmode="layer"
     id="layer1">
    <g
       id="g336"
       transform="matrix(-0.26458953,0,0,0.26458953,110.32866,-32.329435)">
      <g
         id="g319">
        <g
           id="g306">
          <polygon
             style="fill:#fbcc02"
             points="384.397,131.008 393.137,132.603 393.727,125.472 384.397,126.819 "
             id="polygon305" />
        </g>
        <g
           id="g307">
          <rect
             x="401.495"
             y="132.09399"
             style="fill:#fbcc02"
             width="4.408"
             height="10.095"
             id="rect306" />
        </g>
        <g
           id="g310">
          <g
             id="g308">
            <path
               style="fill:#fbcc02"
               d="m 416.836,215.828 c 0,-3.408 0.325,-32.558 0,-41.744 -0.226,-6.398 -4.289,-14.067 -6.735,-18.136 h -3.462 -5.88 -3.461 c -2.447,4.069 -6.509,11.738 -6.735,18.136 -0.325,9.186 0,38.336 0,41.744 0,0.409 0.031,0.822 0.093,1.234 h 26.088 c 0.061,-0.412 0.092,-0.825 0.092,-1.234 z"
               id="path307" />
          </g>
          <g
             id="g309"
             style="fill:#ff4800;fill-opacity:1">
            <path
               style="fill:#ff4800;fill-opacity:1"
               d="m 397.912,222.993 c 1.023,0 1.975,0 2.848,0 3.642,0 5.88,0 5.88,0 0.873,0 1.825,0 2.848,0 4.656,0 6.807,-2.91 7.256,-5.931 h -26.088 c 0.449,3.02 2.599,5.931 7.256,5.931 z"
               id="path308" />
          </g>
        </g>
        <g
           id="g311">
          <rect
             x="399.29199"
             y="141.409"
             style="fill:#f9ae06"
             width="8.816"
             height="5.5339999"
             id="rect310" />
        </g>
        <g
           id="g312">
          <rect
             x="397.349"
             y="146.36501"
             style="fill:#f9ae06"
             width="12.7"
             height="9.5839996"
             id="rect311" />
        </g>
        <g
           id="g315">
          <g
             id="g313">
            <path
               style="fill:#f9ae06"
               d="m 414.264,128.338 c -2.357,-3.734 -6.414,-6.96 -14.923,-5.97 -8.509,0.99 -9.48,10.308 -11.987,17.201 -2.507,6.893 -5.213,8.259 -7.698,10.455 -0.654,0.578 -1.099,1.931 -1.275,2.544 1.681,-0.515 4.863,-1.68 7.079,-3.656 3.137,-2.798 6.102,-9.24 8.264,-13.224 2.162,-3.984 5.384,-8.481 11.826,-6.362 6.443,2.119 6.951,5.768 5.086,10.261 -0.784,1.887 -1.743,3.306 -2.594,4.322 l -0.061,2.456 h 2.065 c 0,0 2.275,-1.261 4.527,-6.796 1.167,-2.86 1.607,-8.196 -0.309,-11.231 z"
               id="path312" />
          </g>
          <g
             id="g314">
            <path
               style="fill:#f78f08"
               d="m 405.553,129.325 c -6.443,-2.119 -9.664,2.377 -11.826,6.362 -2.162,3.984 -5.128,10.427 -8.264,13.224 -2.216,1.977 -5.398,3.141 -7.079,3.656 -0.055,0.19 -0.085,0.314 -0.085,0.314 0,0 4.182,0.279 9.093,-3.867 4.912,-4.146 7.146,-14.033 10.708,-15.928 3.931,-2.091 9.344,-0.771 10.721,1.568 1.706,2.898 -0.713,6.754 -0.713,6.754 l -0.062,2.499 c 0.851,-1.016 1.811,-2.435 2.594,-4.322 1.864,-4.492 1.355,-8.141 -5.087,-10.26 z"
               id="path313" />
          </g>
        </g>
        <g
           id="g316">
          <rect
             x="392.922"
             y="176.758"
             style="fill:#ffffff"
             width="22.040001"
             height="30.802"
             id="rect315" />
        </g>
        <g
           id="g327"
           transform="translate(35.562298,3.9664677)">
          <path
             style="fill:#f9ae06"
             d="m 366.845,179.907 -6.822,10.122 c -0.765,1.135 0.048,2.663 1.417,2.663 h 6.822 6.822 c 1.368,0 2.182,-1.529 1.417,-2.663 l -6.822,-10.122 c -0.678,-1.005 -2.157,-1.005 -2.834,0 z"
             id="path326" />
        </g>
        <g
           id="g317">
          <path
             style="fill:#873217"
             d="m 412.988,192.421 c -0.5,-0.821 -1.716,-1.195 -2.612,-1.465 -0.915,-0.275 -1.818,-0.591 -2.716,-0.919 -0.704,-0.257 -1.403,-0.506 -2.06,-0.85 -0.011,-0.012 -0.021,-0.023 -0.032,-0.034 0.02,-0.155 0.027,-0.304 0.022,-0.438 0.141,-0.124 0.331,-0.286 0.526,-0.436 0.389,-0.299 1.217,-1.206 1.56,-1.722 0.226,-0.341 0.24,-0.539 0.214,-0.647 0.298,-0.485 0.04,-0.688 0.754,-1.57 0.188,-0.232 0.233,-0.379 0.233,-0.468 0.355,-0.263 1.193,-0.749 1.785,-1.102 0.652,-0.389 2.053,-1.128 2.481,-1.685 0.316,-0.411 0.011,-0.371 -0.558,0.098 -0.43,0.355 -1.916,1.258 -2.814,1.717 -0.499,0.255 -0.801,0.626 -0.925,0.862 -10e-4,-0.001 -0.003,-0.004 -0.003,-0.004 0,0 -0.299,0.27 -0.693,0.808 -0.282,0.386 -0.322,0.95 -0.323,1.243 -0.026,0.047 -0.457,0.813 -1.574,1.91 -0.33,0.324 -0.542,0.603 -0.679,0.812 -0.022,-0.154 -0.064,-0.272 -0.123,-0.327 -0.03,-0.027 -0.061,-0.05 -0.092,-0.074 -0.223,-0.176 -0.475,-0.279 -0.714,-0.339 0.117,-0.06 0.221,-0.139 0.309,-0.236 v 0.003 c 0,0 0.691,-0.352 0.642,-0.97 -0.048,-0.618 -0.847,-0.7 -0.847,-0.7 v 0.001 c -0.042,-0.028 -0.087,-0.05 -0.132,-0.072 0.218,-0.405 0.713,-1.283 1.246,-1.955 0.665,-0.838 0.765,-1.097 0.194,-0.719 -0.419,0.277 -1.236,1.648 -1.5,2.644 -0.069,-0.028 -0.142,-0.049 -0.217,-0.063 l -0.122,-5.475 -0.279,5.475 c -0.074,0.014 -0.145,0.034 -0.213,0.061 -0.264,-0.996 -1.081,-2.365 -1.499,-2.642 -0.571,-0.378 -0.471,-0.119 0.194,0.719 0.532,0.67 1.025,1.546 1.244,1.952 -0.048,0.023 -0.097,0.047 -0.141,0.077 -0.097,0.013 -0.782,0.123 -0.827,0.697 -0.048,0.618 0.608,0.951 0.608,0.951 l 10e-4,-0.006 c 0.088,0.102 0.194,0.186 0.314,0.25 -0.159,0.041 -0.326,0.102 -0.49,0.198 -0.104,0.061 -0.207,0.133 -0.304,0.223 -0.07,0.064 -0.115,0.219 -0.132,0.417 -0.131,-0.215 -0.357,-0.529 -0.737,-0.902 -1.117,-1.097 -1.548,-1.863 -1.574,-1.91 -10e-4,-0.293 -0.041,-0.857 -0.322,-1.243 -0.394,-0.539 -0.693,-0.808 -0.693,-0.808 0,0 -0.002,0.002 -0.003,0.004 -0.124,-0.236 -0.426,-0.607 -0.925,-0.862 -0.898,-0.459 -2.384,-1.362 -2.814,-1.717 -0.569,-0.469 -0.874,-0.509 -0.558,-0.098 0.428,0.557 1.83,1.296 2.481,1.685 0.592,0.353 1.43,0.839 1.785,1.102 10e-4,0.089 0.046,0.236 0.233,0.468 0.714,0.881 0.456,1.085 0.754,1.57 -0.026,0.108 -0.012,0.306 0.214,0.647 0.342,0.516 1.17,1.423 1.56,1.722 0.229,0.176 0.449,0.367 0.592,0.495 -0.002,0.126 0.006,0.262 0.026,0.404 -0.663,0.35 -1.371,0.6 -2.082,0.86 -0.898,0.328 -1.8,0.643 -2.716,0.919 -0.896,0.269 -2.112,0.644 -2.612,1.465 -0.067,0.109 -0.121,0.246 -0.147,0.386 -0.006,0.034 -0.014,0.067 -0.016,0.101 0,0.002 0.001,0.005 0.001,0.007 -0.003,0.066 10e-4,0.132 0.018,0.194 0.016,0.057 0.036,0.103 0.057,0.144 0.011,0.022 0.025,0.042 0.038,0.063 0.005,0.007 0.01,0.015 0.015,0.021 0.504,0.722 2.41,0.705 4.32,-0.288 0.422,-0.219 0.811,-0.472 1.17,-0.741 -0.076,0.16 -0.169,0.373 -0.275,0.645 -0.223,0.577 -0.967,2.058 -1.21,2.538 -0.272,0.295 -0.495,0.464 -0.636,1.328 -0.152,0.928 -0.452,2.904 -0.32,3.429 0.128,0.509 0.279,0.7 0.297,0.449 0.023,-0.31 -0.037,-0.826 -0.01,-1.297 0.073,-1.268 0.13,-1.639 0.33,-2.446 0.16,-0.647 0.275,-1.077 0.339,-1.312 0.087,-0.033 0.253,-0.161 0.54,-0.604 0.347,-0.537 0.699,-1.488 0.864,-1.9 0.203,-0.505 0.266,-0.806 0.281,-0.982 0.709,-0.565 1.28,-1.203 1.692,-1.825 0.098,-0.147 0.184,-0.293 0.263,-0.438 0.002,0.005 0.005,0.01 0.007,0.014 -0.375,0.631 -1.107,1.882 -1.323,2.384 -0.149,0.346 -0.129,0.673 -0.093,0.867 -0.027,0.18 -0.063,0.477 -0.083,0.901 -0.03,0.633 -0.278,2.342 -0.35,2.829 -0.215,0.232 -0.392,0.465 -0.511,1.193 -0.151,0.928 0.057,5.278 0.189,5.804 0.128,0.509 0.279,0.7 0.297,0.449 0.023,-0.31 -0.037,-0.826 -0.01,-1.297 0.072,-1.268 -0.378,-4.013 -0.179,-4.82 0.159,-0.643 0.273,-1.071 0.337,-1.307 0.069,-0.101 0.156,-0.29 0.251,-0.66 0.159,-0.619 0.192,-1.632 0.218,-2.076 0.035,-0.575 -0.008,-0.883 -0.052,-1.048 0.069,-0.21 0.208,-0.569 0.475,-1.066 0.328,-0.609 0.818,-1.368 1.027,-1.846 0.145,0.172 0.328,0.291 0.558,0.307 0.058,0.004 0.154,0.007 0.263,0.008 -0.27,0.017 -0.654,0.092 -0.816,0.381 -0.107,0.189 -0.24,0.561 -0.34,1.073 -0.002,0.005 -0.007,0.017 -0.007,0.017 l 0.004,-0.003 c -0.06,0.314 -0.104,0.682 -0.122,1.1 -10e-4,0.002 -0.005,0.01 -0.005,0.01 l 0.005,-0.002 c -0.016,0.374 -0.011,0.783 0.03,1.232 l -0.002,0.003 0.002,-0.001 c 0.021,0.231 0.048,0.469 0.089,0.718 0.019,0.12 0.046,0.224 0.069,0.337 -0.002,0.005 -0.006,0.012 -0.006,0.012 0,0 0.006,10e-4 0.008,10e-4 0.067,0.332 0.143,0.638 0.229,0.912 -10e-4,0.002 -0.004,0.005 -0.004,0.005 0,0 0.004,0.002 0.006,0.002 0.413,1.308 0.969,1.958 0.969,1.958 0,0 0.683,-0.67 1.145,-2.014 0.004,-0.002 0.009,-0.006 0.009,-0.006 0,0 -0.004,-0.003 -0.006,-0.005 0.122,-0.356 0.232,-0.749 0.305,-1.202 0.118,-0.733 0.143,-1.384 0.118,-1.952 10e-4,0 0.005,0.002 0.005,0.002 0,0 -0.004,-0.007 -0.005,-0.008 -0.016,-0.378 -0.054,-0.714 -0.106,-1.008 10e-4,0.002 0.006,0.008 0.006,0.008 0,0 -0.004,-0.017 -0.013,-0.046 -0.1,-0.548 -0.24,-0.945 -0.352,-1.143 -0.162,-0.288 -0.546,-0.364 -0.816,-0.381 0.108,-0.001 0.205,-0.004 0.263,-0.008 0.231,-0.016 0.415,-0.136 0.561,-0.31 0.209,0.478 0.7,1.239 1.029,1.85 0.268,0.497 0.406,0.856 0.475,1.066 -0.044,0.165 -0.086,0.472 -0.052,1.048 0.027,0.444 0.059,1.457 0.218,2.076 0.095,0.37 0.182,0.559 0.251,0.66 0.064,0.236 0.178,0.664 0.337,1.307 0.2,0.806 -0.251,3.552 -0.178,4.82 0.027,0.471 -0.034,0.987 -0.01,1.297 0.019,0.251 0.17,0.06 0.297,-0.449 0.132,-0.525 0.34,-4.876 0.189,-5.804 -0.119,-0.728 -0.296,-0.961 -0.511,-1.193 -0.072,-0.487 -0.32,-2.196 -0.35,-2.829 -0.02,-0.424 -0.056,-0.721 -0.083,-0.901 0.035,-0.194 0.056,-0.521 -0.093,-0.867 -0.216,-0.503 -0.951,-1.758 -1.326,-2.388 0.004,-0.008 0.008,-0.015 0.011,-0.023 0.081,0.149 0.17,0.299 0.27,0.451 0.459,0.694 1.119,1.406 1.945,2.015 0.037,0.182 0.11,0.437 0.253,0.792 0.166,0.413 0.517,1.363 0.864,1.9 0.286,0.443 0.453,0.571 0.54,0.604 0.064,0.235 0.178,0.665 0.339,1.312 0.2,0.806 0.257,1.178 0.33,2.446 0.027,0.471 -0.034,0.987 -0.01,1.297 0.019,0.251 0.17,0.06 0.297,-0.449 0.132,-0.525 -0.168,-2.501 -0.32,-3.429 -0.141,-0.864 -0.364,-1.033 -0.636,-1.328 -0.243,-0.48 -0.987,-1.962 -1.21,-2.538 -0.06,-0.155 -0.116,-0.289 -0.167,-0.408 0.265,0.18 0.542,0.35 0.838,0.504 1.91,0.993 3.816,1.01 4.32,0.288 0.005,-0.007 0.01,-0.014 0.015,-0.021 0.013,-0.021 0.027,-0.041 0.038,-0.063 0.021,-0.041 0.041,-0.087 0.057,-0.144 0.017,-0.062 0.021,-0.128 0.018,-0.194 0,-0.002 0.001,-0.005 0.001,-0.007 -0.001,-0.034 -0.009,-0.067 -0.016,-0.101 -0.019,-0.142 -0.073,-0.279 -0.14,-0.388 z"
             id="path316" />
        </g>
        <g
           id="g318">
          <rect
             x="392.922"
             y="210.179"
             style="fill:#ffffff"
             width="22.040001"
             height="2.0039999"
             id="rect317" />
        </g>
      </g>
    </g>
  </g>
</svg>
