<?xml version="1.0" encoding="UTF-8" standalone="no"?>
<!-- Created with Inkscape (http://www.inkscape.org/) -->

<svg
   width="29.209999mm"
   height="32.650002mm"
   viewBox="0 0 29.209999 32.650002"
   version="1.1"
   id="svg1"
   inkscape:version="1.4.3 (0d15f75, 2025-12-25)"
   sodipodi:docname="ladybug.svg"
   xmlns:inkscape="http://www.inkscape.org/namespaces/inkscape"
   xmlns:sodipodi="http://sodipodi.sourceforge.net/DTD/sodipodi-0.dtd"
   xmlns="http://www.w3.org/2000/svg"
   xmlns:svg="http://www.w3.org/2000/svg">
  <sodipodi:namedview
     id="namedview1"
     pagecolor="#ffffff"
     bordercolor="#000000"
     borderopacity="0.25"
     inkscape:showpageshadow="2"
     inkscape:pageopacity="0.0"
     inkscape:pagecheckerboard="0"
     inkscape:deskcolor="#d1d1d1"
     inkscape:document-units="mm"
     inkscape:zoom="8.2142635"
     inkscape:cx="28.121815"
     inkscape:cy="38.28706"
     inkscape:window-width="1920"
     inkscape:window-height="1017"
     inkscape:window-x="-8"
     inkscape:window-y="-8"
     inkscape:window-maximized="1"
     inkscape:current-layer="g424"
     showgrid="false" />
  <defs
     id="defs1" />
  <g
     inkscape:label="Layer 1"
     inkscape:groupmode="layer"
     id="layer1">
    <g
       id="g437"
       transform="matrix(0.65740474,0,0,0.65740474,-101.61888,-96.302324)">
      <g
         id="g414">
        <path
           style="fill:#000000;fill-opacity:1"
           d="m 191.499,196.141 c 0.2,0 0.402,-0.086 0.538,-0.254 0.244,-0.298 0.2,-0.736 -0.1,-0.979 l -4.055,-3.307 c -0.297,-0.242 -0.733,-0.198 -0.978,0.1 -0.242,0.297 -0.198,0.735 0.101,0.977 l 4.055,3.307 c 0.128,0.104 0.285,0.156 0.439,0.156 z"
           id="path413" />
      </g>
      <g
         id="g415">
        <path
           style="fill:#000000;fill-opacity:1"
           d="m 194.008,175.986 c 0.066,0 0.131,-0.009 0.196,-0.027 l 4.169,-1.216 c 0.367,-0.108 0.58,-0.494 0.472,-0.863 -0.106,-0.368 -0.492,-0.579 -0.861,-0.472 l -4.17,1.215 c -0.369,0.108 -0.578,0.494 -0.472,0.862 0.088,0.305 0.365,0.501 0.666,0.501 z"
           id="path414" />
      </g>
      <g
         id="g416">
        <path
           style="fill:#000000;fill-opacity:1"
           d="m 187.791,192.314 c 0.369,0 0.726,-0.195 0.914,-0.542 l 3.873,-7.063 c 0.211,-0.387 0.158,-0.862 -0.134,-1.191 l -2.063,-2.335 c -0.382,-0.432 -1.038,-0.474 -1.472,-0.092 -0.43,0.381 -0.472,1.04 -0.092,1.471 l 1.58,1.788 -3.519,6.423 c -0.278,0.502 -0.092,1.137 0.411,1.414 0.161,0.085 0.334,0.127 0.502,0.127 z"
           id="path415" />
      </g>
      <g
         id="g417">
        <path
           style="fill:#000000;fill-opacity:1"
           d="m 193.413,176.333 c 0.061,0 0.123,-0.006 0.186,-0.018 0.567,-0.101 0.943,-0.643 0.843,-1.21 l -1.131,-6.254 c -0.067,-0.384 -0.349,-0.698 -0.723,-0.812 l -2.865,-0.869 c -0.553,-0.167 -1.135,0.145 -1.302,0.696 -0.165,0.55 0.145,1.132 0.697,1.299 l 2.256,0.684 1.016,5.626 c 0.091,0.505 0.53,0.858 1.023,0.858 z"
           id="path416" />
      </g>
      <g
         id="g418">
        <path
           style="fill:#000000;fill-opacity:1"
           d="m 161.95,196.141 c -0.2,0 -0.4,-0.086 -0.538,-0.254 -0.243,-0.298 -0.199,-0.736 0.1,-0.979 l 4.055,-3.307 c 0.297,-0.242 0.733,-0.198 0.977,0.1 0.243,0.297 0.197,0.735 -0.1,0.977 l -4.055,3.307 c -0.128,0.104 -0.285,0.156 -0.439,0.156 z"
           id="path417" />
      </g>
      <g
         id="g419">
        <path
           style="fill:#000000;fill-opacity:1"
           d="m 159.441,175.986 c -0.064,0 -0.131,-0.009 -0.195,-0.027 l -4.169,-1.216 c -0.369,-0.108 -0.581,-0.494 -0.473,-0.863 0.108,-0.368 0.494,-0.579 0.861,-0.472 l 4.17,1.215 c 0.368,0.108 0.579,0.494 0.472,0.862 -0.087,0.305 -0.365,0.501 -0.666,0.501 z"
           id="path418" />
      </g>
      <g
         id="g420">
        <path
           style="fill:#000000;fill-opacity:1"
           d="m 165.658,192.314 c -0.369,0 -0.726,-0.195 -0.914,-0.542 l -3.872,-7.063 c -0.212,-0.387 -0.159,-0.862 0.133,-1.191 l 2.063,-2.335 c 0.381,-0.432 1.039,-0.474 1.472,-0.092 0.432,0.381 0.472,1.04 0.091,1.471 l -1.579,1.788 3.519,6.423 c 0.277,0.502 0.092,1.137 -0.413,1.414 -0.159,0.085 -0.332,0.127 -0.5,0.127 z"
           id="path419" />
      </g>
      <g
         id="g421">
        <path
           style="fill:#000000;fill-opacity:1"
           d="m 160.036,176.333 c -0.062,0 -0.124,-0.006 -0.187,-0.018 -0.566,-0.101 -0.942,-0.643 -0.841,-1.21 l 1.13,-6.254 c 0.068,-0.384 0.349,-0.698 0.722,-0.812 l 2.867,-0.869 c 0.552,-0.167 1.134,0.145 1.301,0.696 0.165,0.55 -0.145,1.132 -0.695,1.299 l -2.257,0.684 -1.017,5.626 c -0.089,0.505 -0.53,0.858 -1.023,0.858 z"
           id="path420" />
      </g>
      <path
         style="fill:#d53d33"
         d="m 176.725,160.01 c -7.848,0.106 -14.128,2.772 -14.128,14.235 0,11.374 5.183,21.046 14.128,20.192 8.945,0.854 14.128,-8.818 14.128,-20.192 -0.001,-11.462 -6.279,-14.128 -14.128,-14.235 z"
         id="path421" />
      <g
         id="g422">
        <path
           style="fill:#000000;fill-opacity:1"
           d="m 184.804,160.352 c 0.192,0 0.385,-0.052 0.56,-0.165 l 2.991,-1.91 c 0.256,-0.163 0.426,-0.43 0.469,-0.729 l 1.006,-6.948 c 0.082,-0.57 -0.313,-1.099 -0.882,-1.18 -0.568,-0.085 -1.099,0.312 -1.182,0.882 l -0.938,6.475 -2.588,1.655 c -0.485,0.31 -0.626,0.956 -0.316,1.441 0.198,0.309 0.534,0.479 0.88,0.479 z"
           id="path422" />
      </g>
      <g
         id="g423">
        <path
           style="fill:#000000;fill-opacity:1"
           d="m 188.797,151.145 c 0.07,0 0.138,-0.011 0.208,-0.031 l 5.213,-1.635 c 0.363,-0.115 0.568,-0.503 0.453,-0.87 -0.112,-0.366 -0.503,-0.571 -0.87,-0.456 l -5.211,1.634 c -0.365,0.115 -0.569,0.503 -0.455,0.871 0.092,0.297 0.367,0.487 0.662,0.487 z"
           id="path423" />
      </g>
      <g
         id="g424">
        <path
           style="fill:#000000;fill-opacity:1"
           d="m 168.645,160.352 c -0.192,0 -0.386,-0.052 -0.56,-0.165 l -2.99,-1.91 c -0.255,-0.163 -0.428,-0.43 -0.47,-0.729 l -1.006,-6.948 c -0.082,-0.57 0.313,-1.099 0.882,-1.18 0.568,-0.085 1.099,0.312 1.182,0.882 l 0.937,6.475 2.589,1.655 c 0.485,0.31 0.626,0.956 0.316,1.441 -0.198,0.309 -0.535,0.479 -0.88,0.479 z"
           id="path424" />
      </g>
      <g
         id="g425">
        <path
           style="fill:#000000;fill-opacity:1"
           d="m 164.652,151.145 c -0.069,0 -0.139,-0.011 -0.208,-0.031 l -5.211,-1.635 c -0.367,-0.115 -0.57,-0.503 -0.456,-0.87 0.115,-0.366 0.504,-0.571 0.871,-0.456 l 5.211,1.634 c 0.367,0.115 0.57,0.503 0.455,0.871 -0.091,0.297 -0.367,0.487 -0.662,0.487 z"
           id="path425" />
      </g>
      <g
         id="g426">
        <path
           style="fill:#404040"
           d="m 174.597,152.779 c -0.319,0 -3.962,-4.626 -3.962,-4.626 -0.345,-0.462 -0.247,-1.115 0.216,-1.458 0.462,-0.344 1.114,-0.248 1.457,0.214 0,0 2.503,5.87 2.289,5.87 z"
           id="path426" />
      </g>
      <g
         id="g427">
        <path
           style="fill:#000000;fill-opacity:1"
           d="m 171.899,176.333 c 0,1.58 -1.467,2.861 -3.276,2.861 -1.809,0 -3.276,-1.282 -3.276,-2.861 0,-1.581 1.468,-2.862 3.276,-2.862 1.81,0 3.276,1.281 3.276,2.862 z"
           id="path427" />
      </g>
      <g
         id="g428">
        <path
           style="fill:#000000;fill-opacity:1"
           d="m 175.795,186.572 c 0,1.581 -1.467,2.86 -3.276,2.86 -1.81,0 -3.276,-1.279 -3.276,-2.86 0,-1.58 1.467,-2.861 3.276,-2.861 1.809,-0.001 3.276,1.281 3.276,2.861 z"
           id="path428" />
      </g>
      <path
         style="fill:#505050"
         d="m 181.85,155.487 h -5.125 -5.125 c -2.11,0 -3.82,1.711 -3.82,3.822 0,2.111 1.71,3.822 3.82,3.822 h 5.125 5.125 c 2.109,0 3.82,-1.711 3.82,-3.822 0,-2.111 -1.711,-3.822 -3.82,-3.822 z"
         id="path429" />
      <path
         style="fill:#404040"
         d="m 178.884,151.666 h -2.159 -2.159 c -1.439,0 -2.605,1.167 -2.605,2.607 0,1.438 1.165,2.605 2.605,2.605 h 2.159 2.159 c 1.439,0 2.605,-1.167 2.605,-2.605 -0.001,-1.44 -1.166,-2.607 -2.605,-2.607 z"
         id="path430" />
      <g
         id="g431">
        <path
           style="fill:#404040"
           d="m 178.852,152.779 c 0.319,0 3.961,-4.626 3.961,-4.626 0.346,-0.462 0.248,-1.115 -0.215,-1.458 -0.462,-0.344 -1.114,-0.248 -1.457,0.214 0.001,0 -2.503,5.87 -2.289,5.87 z"
           id="path431" />
      </g>
      <g
         id="g432">
        <path
           style="fill:#000000;fill-opacity:1"
           d="m 178.465,152.779 c 0,0.815 0.659,1.478 1.477,1.478 0.814,0 1.478,-0.663 1.478,-1.478 0,-0.816 -0.663,-1.477 -1.478,-1.477 -0.818,0.001 -1.477,0.661 -1.477,1.477 z"
           id="path432" />
      </g>
      <path
         style="fill:#000000;fill-opacity:1"
         d="m 176.811,164.52 c -0.029,0 -0.058,0.005 -0.087,0.006 -0.029,-0.001 -0.058,-0.006 -0.087,-0.006 -2.582,0 -4.673,1.829 -4.673,4.083 0,2.254 2.091,4.082 4.673,4.082 0.029,0 0.058,-0.003 0.087,-0.003 0.029,0 0.058,0.003 0.087,0.003 2.583,0 4.673,-1.828 4.673,-4.082 0,-2.254 -2.089,-4.083 -4.673,-4.083 z"
         id="path433" />
      <g
         id="g434">
        <path
           style="fill:#000000;fill-opacity:1"
           d="m 181.551,176.333 c 0,1.58 1.467,2.861 3.274,2.861 1.81,0 3.278,-1.282 3.278,-2.861 0,-1.581 -1.469,-2.862 -3.278,-2.862 -1.807,0 -3.274,1.281 -3.274,2.862 z"
           id="path434" />
      </g>
      <g
         id="g435">
        <path
           style="fill:#000000;fill-opacity:1"
           d="m 177.654,186.572 c 0,1.581 1.467,2.86 3.276,2.86 1.808,0 3.276,-1.279 3.276,-2.86 0,-1.58 -1.469,-2.861 -3.276,-2.861 -1.809,-0.001 -3.276,1.281 -3.276,2.861 z"
           id="path435" />
      </g>
      <g
         id="g436">
        <path
           style="fill:#000000;fill-opacity:1"
           d="m 174.984,152.779 c 0,0.815 -0.659,1.478 -1.477,1.478 -0.814,0 -1.476,-0.663 -1.476,-1.478 0,-0.816 0.661,-1.477 1.476,-1.477 0.818,0.001 1.477,0.661 1.477,1.477 z"
           id="path436" />
      </g>
    </g>
  </g>
</svg>
