<?xml version="1.0" encoding="UTF-8" standalone="no"?>
<!-- Created with Inkscape (http://www.inkscape.org/) -->

<svg
   width="48mm"
   height="31mm"
   viewBox="0 0 47.999999 31"
   version="1.1"
   id="svg1"
   inkscape:version="1.4.3 (0d15f75, 2025-12-25)"
   sodipodi:docname="level.svg"
   xmlns:inkscape="http://www.inkscape.org/namespaces/inkscape"
   xmlns:sodipodi="http://sodipodi.sourceforge.net/DTD/sodipodi-0.dtd"
   xmlns="http://www.w3.org/2000/svg"
   xmlns:svg="http://www.w3.org/2000/svg">
  <sodipodi:namedview
     id="namedview1"
     pagecolor="#ffffff"
     bordercolor="#000000"
     borderopacity="0.25"
     inkscape:showpageshadow="2"
     inkscape:pageopacity="0.0"
     inkscape:pagecheckerboard="0"
     inkscape:deskcolor="#d1d1d1"
     inkscape:document-units="mm"
     inkscape:zoom="0.72604517"
     inkscape:cx="397.3582"
     inkscape:cy="561.25984"
     inkscape:window-width="1920"
     inkscape:window-height="1017"
     inkscape:window-x="-8"
     inkscape:window-y="-8"
     inkscape:window-maximized="1"
     inkscape:current-layer="layer1" />
  <defs
     id="defs1" />
  <g
     inkscape:label="Layer 1"
     inkscape:groupmode="layer"
     id="layer1">
    <g
       id="g66"
       transform="matrix(0.26458333,0,0,0.26458333,-11.821568,-90.808174)">
		<g
   id="g60">
			<g
   id="g44">
				<path
   style="fill:#ffaa17"
   d="m 98.471,390.531 6.319,-16.705 -59.561,-22.531 c 0,0 -4.329,17.459 11.324,23.379 15.653,5.922 41.918,15.857 41.918,15.857 z"
   id="path42" />

				<path
   style="fill:#ffaa17"
   d="m 103.569,413.533 6.318,-16.703 -59.561,-22.531 c 0,0 -4.33,17.457 11.323,23.378 15.655,5.922 41.92,15.856 41.92,15.856 z"
   id="path43" />

				<path
   style="fill:#ffaa17"
   d="m 55.425,397.302 c 0,0 -4.33,17.458 11.322,23.378 15.653,5.922 41.919,15.857 41.919,15.857 l 6.318,-16.705 z"
   id="path44" />

			</g>

			<g
   id="g47">
				<path
   style="fill:#ffda33"
   d="m 98.471,382.447 6.319,-16.705 -59.561,-22.53 c 0,0 -4.329,17.458 11.324,23.378 15.653,5.921 41.918,15.857 41.918,15.857 z"
   id="path45" />

				<path
   style="fill:#ffda33"
   d="m 103.569,405.45 6.318,-16.704 -59.561,-22.531 c 0,0 -4.33,17.457 11.323,23.379 15.655,5.92 41.92,15.856 41.92,15.856 z"
   id="path46" />

				<path
   style="fill:#ffda33"
   d="m 55.425,389.219 c 0,0 -4.33,17.455 11.322,23.377 15.653,5.922 41.919,15.857 41.919,15.857 l 6.318,-16.705 z"
   id="path47" />

			</g>

			<g
   id="g50">
				<path
   style="fill:#ffaa17"
   d="m 85.056,413.131 c 0.596,2.609 1.43,5.043 2.449,7.317 11.263,4.26 21.161,8.005 21.161,8.005 L 114.984,411.748 83,399.648 c 0.342,4.31 0.992,8.829 2.056,13.483 z"
   id="path48" />

				<path
   style="fill:#ffaa17"
   d="m 82.867,397.619 c 11.071,4.188 20.702,7.831 20.702,7.831 l 6.318,-16.704 -26.322,-9.957 c -0.721,5.475 -1.103,11.858 -0.698,18.83 z"
   id="path49" />

				<path
   style="fill:#ffaa17"
   d="m 104.79,365.742 -16.58,-6.273 c -0.578,1.482 -2.939,7.912 -4.378,17.439 8.3,3.141 14.639,5.539 14.639,5.539 z"
   id="path50" />

			</g>

			<g
   id="g53">
				<path
   style="fill:#ffaa17"
   d="m 171.646,390.531 -6.319,-16.705 59.561,-22.531 c 0,0 4.329,17.459 -11.324,23.379 -15.653,5.922 -41.918,15.857 -41.918,15.857 z"
   id="path51" />

				<path
   style="fill:#ffaa17"
   d="m 166.549,413.533 -6.319,-16.703 59.561,-22.531 c 0,0 4.33,17.457 -11.323,23.378 -15.655,5.922 -41.919,15.856 -41.919,15.856 z"
   id="path52" />

				<path
   style="fill:#ffaa17"
   d="m 214.692,397.302 c 0,0 4.33,17.458 -11.322,23.378 -15.653,5.922 -41.919,15.857 -41.919,15.857 l -6.318,-16.705 z"
   id="path53" />

			</g>

			<g
   id="g56">
				<path
   style="fill:#ffda33"
   d="m 171.646,382.447 -6.319,-16.705 59.561,-22.53 c 0,0 4.329,17.458 -11.324,23.378 -15.653,5.921 -41.918,15.857 -41.918,15.857 z"
   id="path54" />

				<path
   style="fill:#ffda33"
   d="m 166.549,405.45 -6.319,-16.704 59.561,-22.531 c 0,0 4.33,17.457 -11.323,23.379 -15.655,5.92 -41.919,15.856 -41.919,15.856 z"
   id="path55" />

				<path
   style="fill:#ffda33"
   d="m 214.692,389.219 c 0,0 4.33,17.455 -11.322,23.377 -15.653,5.922 -41.919,15.857 -41.919,15.857 l -6.318,-16.705 z"
   id="path56" />

			</g>

			<g
   id="g59">
				<path
   style="fill:#ffaa17"
   d="m 185.061,413.131 c -0.596,2.609 -1.43,5.043 -2.449,7.317 -11.263,4.26 -21.161,8.005 -21.161,8.005 l -6.318,-16.705 31.984,-12.1 c -0.342,4.31 -0.992,8.829 -2.056,13.483 z"
   id="path57" />

				<path
   style="fill:#ffaa17"
   d="m 187.251,397.619 c -11.072,4.188 -20.702,7.831 -20.702,7.831 l -6.319,-16.704 26.322,-9.957 c 0.721,5.475 1.103,11.858 0.699,18.83 z"
   id="path58" />

				<path
   style="fill:#ffaa17"
   d="m 165.327,365.742 16.58,-6.273 c 0.578,1.482 2.939,7.912 4.378,17.439 -8.3,3.141 -14.639,5.539 -14.639,5.539 z"
   id="path59" />

			</g>

		</g>

		<path
   style="fill:#ffaa17"
   d="m 175.994,367.963 -19.72,2.113 -21.216,-14.201 v -10e-4 0 h -0.001 v 10e-4 l -21.216,14.201 -19.719,-2.113 c 0,0 -10.096,24.182 -3.288,53.996 6.804,29.801 44.187,37.086 44.223,37.092 v 0 h 0.001 v 0 0 c 0.036,-0.006 37.419,-7.291 44.223,-37.092 6.808,-29.814 -3.287,-53.996 -3.287,-53.996 z"
   id="path60" />

		
		<path
   style="fill:#ffda33"
   d="m 175.994,361.688 -19.72,2.111 -21.216,-14.201 v 0 0 h -0.001 v 0 l -21.216,14.201 -19.719,-2.111 c 0,0 -10.096,24.181 -3.288,53.996 6.804,29.802 44.187,37.086 44.223,37.092 v 0 h 0.001 v 0 0 c 0.036,-0.006 37.419,-7.29 44.223,-37.092 6.808,-29.816 -3.287,-53.996 -3.287,-53.996 z"
   id="path62" />

		
		
		<path
   style="fill:#ffaa17"
   d="m 135.059,443.152 c -6.781,-1.793 -30.505,-9.439 -35.099,-29.552 -4.041,-17.702 -1.409,-33.37 0.771,-41.792 l 15.494,1.661 18.833,-12.608 18.834,12.608 15.496,-1.661 c 2.177,8.41 4.811,24.082 0.769,41.792 -4.594,20.113 -28.318,27.759 -35.098,29.552 z"
   id="path65" />

		<path
   style="fill:#ff8800"
   d="m 114.983,377.156 19.697,-12.608 19.697,12.608 15.882,-1.627 c -0.288,-1.357 -0.584,-2.605 -0.872,-3.721 l -15.496,1.661 -18.834,-12.608 -18.833,12.608 -15.494,-1.661 c -0.295,1.136 -0.595,2.411 -0.888,3.796 z"
   id="path66" />

	</g>
  </g>
</svg>
