<?xml version="1.0" encoding="UTF-8" standalone="no"?>
<!-- Created with Inkscape (http://www.inkscape.org/) -->

<svg
   width="35.5mm"
   height="23mm"
   viewBox="0 0 35.5 23"
   version="1.1"
   id="svg1"
   inkscape:version="1.4.3 (0d15f75, 2025-12-25)"
   sodipodi:docname="mosquito.svg"
   xmlns:inkscape="http://www.inkscape.org/namespaces/inkscape"
   xmlns:sodipodi="http://sodipodi.sourceforge.net/DTD/sodipodi-0.dtd"
   xmlns="http://www.w3.org/2000/svg"
   xmlns:svg="http://www.w3.org/2000/svg">
  <sodipodi:namedview
     id="namedview1"
     pagecolor="#ffffff"
     bordercolor="#000000"
     borderopacity="0.25"
     inkscape:showpageshadow="2"
     inkscape:pageopacity="0.0"
     inkscape:pagecheckerboard="0"
     inkscape:deskcolor="#d1d1d1"
     inkscape:document-units="mm"
     inkscape:zoom="2.9041807"
     inkscape:cx="90.903435"
     inkscape:cy="64.90643"
     inkscape:window-width="1920"
     inkscape:window-height="1017"
     inkscape:window-x="-8"
     inkscape:window-y="-8"
     inkscape:window-maximized="1"
     inkscape:current-layer="g88" />
  <defs
     id="defs1" />
  <g
     inkscape:label="Layer 1"
     inkscape:groupmode="layer"
     id="layer1">
    <g
       id="g88"
       transform="matrix(0.36482147,0,0,0.36482147,-8.3879753,-11.532736)">
		<path
   style="fill:#d53d33"
   d="m 73.171,32.943 c 0,0.735 -0.695,1.33 -1.554,1.33 -0.858,0 -1.554,-0.595 -1.554,-1.33 0,-0.734 0.695,-1.331 1.554,-1.331 0.859,0 1.554,0.596 1.554,1.331 z"
   id="path69" />

		<g
   id="g70">
			<path
   style="fill:#808080"
   d="m 56.941,93.464 c -0.11,0 -0.223,-0.024 -0.329,-0.075 -0.378,-0.182 -0.537,-0.637 -0.355,-1.015 L 65.463,73.249 63.607,63.088 c -0.046,-0.252 0.038,-0.51 0.223,-0.687 l 6.083,-5.796 c 0.304,-0.289 0.785,-0.279 1.075,0.026 0.289,0.304 0.277,0.785 -0.026,1.075 l -5.785,5.514 1.827,10.001 c 0.028,0.158 0.006,0.321 -0.063,0.466 l -9.313,19.348 c -0.131,0.27 -0.403,0.429 -0.687,0.429 z"
   id="path70" />

		</g>

		<g
   id="g71">
			<path
   style="fill:#808080"
   d="m 49.154,79.476 c -0.175,0 -0.351,-0.06 -0.495,-0.183 C 48.341,79.02 48.304,78.54 48.577,78.22 l 9.559,-11.138 3.563,-8.248 c 0.083,-0.191 0.241,-0.341 0.438,-0.413 l 7.897,-2.872 c 0.393,-0.144 0.83,0.06 0.974,0.455 0.144,0.395 -0.06,0.831 -0.455,0.975 l -7.588,2.76 -3.479,8.053 c -0.03,0.07 -0.071,0.135 -0.121,0.193 l -9.634,11.226 c -0.15,0.175 -0.362,0.265 -0.577,0.265 z"
   id="path71" />

		</g>

		<g
   id="g72">
			<path
   style="fill:#808080"
   d="m 69.651,52.925 c -0.125,0 -0.251,-0.039 -0.36,-0.119 L 64.116,49 C 63.96,48.885 63.868,48.704 63.868,48.51 v -5.644 l -4.296,-5.847 c -0.2,-0.271 -0.141,-0.652 0.13,-0.851 0.272,-0.2 0.652,-0.141 0.851,0.13 l 4.414,6.008 c 0.078,0.104 0.119,0.231 0.119,0.36 v 5.536 l 4.926,3.624 c 0.272,0.199 0.33,0.581 0.13,0.851 -0.119,0.162 -0.303,0.248 -0.491,0.248 z"
   id="path72" />

		</g>

		<path
   style="fill:#505050"
   d="m 69.555,48.731 v 5.413 c 0,1.145 0.921,2.071 2.062,2.086 v -9.586 c -1.141,0.015 -2.062,0.942 -2.062,2.087 z"
   id="path73" />

		<path
   style="fill:#606060"
   d="m 71.617,43.843 h -1.381 c -0.954,0 -1.727,0.773 -1.727,1.727 0,0.954 0.773,1.727 1.727,1.727 h 1.381 z"
   id="path74" />

		<g
   id="g75">
			<path
   style="fill:#808080"
   d="m 86.293,93.464 c 0.11,0 0.223,-0.024 0.329,-0.075 0.378,-0.182 0.537,-0.637 0.355,-1.015 L 77.771,73.249 79.627,63.088 c 0.046,-0.252 -0.038,-0.51 -0.223,-0.687 l -6.082,-5.796 c -0.304,-0.289 -0.784,-0.279 -1.075,0.026 -0.289,0.304 -0.277,0.785 0.026,1.075 l 5.785,5.514 -1.827,10 c -0.028,0.158 -0.006,0.321 0.063,0.466 l 9.313,19.348 c 0.131,0.271 0.403,0.43 0.686,0.43 z"
   id="path75" />

		</g>

		<g
   id="g76">
			<path
   style="fill:#808080"
   d="m 94.08,79.476 c 0.175,0 0.351,-0.06 0.495,-0.183 0.318,-0.273 0.355,-0.753 0.081,-1.073 L 85.097,67.082 81.534,58.834 C 81.452,58.643 81.293,58.493 81.096,58.421 L 73.2,55.549 c -0.393,-0.144 -0.83,0.06 -0.974,0.455 -0.144,0.395 0.06,0.831 0.455,0.975 l 7.588,2.76 3.479,8.053 c 0.03,0.07 0.071,0.135 0.121,0.193 l 9.634,11.226 c 0.15,0.175 0.363,0.265 0.577,0.265 z"
   id="path76" />

		</g>

		<g
   id="g77">
			<path
   style="fill:#808080"
   d="m 73.583,52.925 c 0.125,0 0.252,-0.039 0.36,-0.119 L 79.118,49 c 0.156,-0.115 0.248,-0.296 0.248,-0.49 v -5.644 l 4.295,-5.847 c 0.2,-0.271 0.141,-0.652 -0.13,-0.851 -0.272,-0.2 -0.652,-0.141 -0.851,0.13 l -4.414,6.008 c -0.078,0.104 -0.119,0.231 -0.119,0.36 v 5.536 l -4.926,3.624 c -0.272,0.199 -0.33,0.581 -0.13,0.851 0.12,0.162 0.305,0.248 0.492,0.248 z"
   id="path77" />

		</g>

		<g
   id="g78">
			<path
   style="fill:#505050"
   d="m 71.617,46.644 c 1.141,0.015 2.062,0.942 2.062,2.087 v 5.413 c 0,1.145 -0.921,2.071 -2.062,2.086 z"
   id="path78" />

		</g>

		<path
   style="fill:#505050"
   d="m 71.617,46.644 c -1.141,0.015 -2.062,0.942 -2.062,2.086 v 5.413 c 0,1.145 0.921,2.072 2.062,2.087 1.141,-0.015 2.062,-0.942 2.062,-2.087 V 48.73 c 0,-1.144 -0.921,-2.071 -2.062,-2.086 z"
   id="path79" />

		<path
   style="fill:#303030"
   d="m 71.617,32.815 c -0.406,0.016 -0.732,0.345 -0.732,0.755 0,0 0.325,9.923 0.732,10.371 0.407,-0.447 0.732,-10.371 0.732,-10.371 0,-0.41 -0.326,-0.738 -0.732,-0.755 z"
   id="path80" />

		<path
   style="fill:#606060"
   d="m 71.617,55.549 c -0.733,0.015 -1.325,0.612 -1.325,1.35 v 10.904 c 0,0.737 0.591,1.334 1.325,1.349 0.733,-0.015 1.325,-0.612 1.325,-1.349 V 56.899 c 0,-0.737 -0.591,-1.335 -1.325,-1.35 z"
   id="path81" />

		<g
   id="g82">
			<path
   style="fill:#d5e5e6;fill-opacity:0.80000001"
   d="m 71.617,53.85 c 0.582,-2.804 10.812,-5.036 23.348,-5.036 12.911,0 25.277,-1.305 25.277,1.616 0,2.921 -12.367,8.961 -25.277,8.961 -12.536,0 -22.766,-2.233 -23.348,-5.037 z"
   id="path82" />

		</g>

		<path
   style="fill:#606060"
   d="m 71.617,43.843 h 1.381 c 0.954,0 1.727,0.773 1.727,1.727 0,0.954 -0.773,1.727 -1.727,1.727 h -1.381 z"
   id="path83" />

		<path
   style="fill:#606060"
   d="m 72.998,43.843 h -1.381 -1.381 c -0.954,0 -1.727,0.774 -1.727,1.727 0,0.954 0.773,1.727 1.727,1.727 h 1.381 1.381 c 0.954,0 1.727,-0.773 1.727,-1.727 0,-0.953 -0.773,-1.727 -1.727,-1.727 z"
   id="path84" />

		<g
   id="g85">
			<path
   style="fill:#e0e0e0"
   d="m 72.234,44.802 c 0,0.798 0.647,1.445 1.445,1.445 0.797,0 1.444,-0.647 1.444,-1.445 0,-0.798 -0.647,-1.445 -1.444,-1.445 -0.798,-10e-4 -1.445,0.646 -1.445,1.445 z"
   id="path85" />

		</g>

		<g
   id="g86">
			<path
   style="fill:#e0e0e0"
   d="m 71.001,44.802 c 0,0.798 -0.647,1.445 -1.445,1.445 -0.797,0 -1.444,-0.647 -1.444,-1.445 0,-0.798 0.647,-1.445 1.444,-1.445 0.798,-10e-4 1.445,0.646 1.445,1.445 z"
   id="path86" />

		</g>

		<g
   id="g87">
			<path
   style="fill:#d5e5e6;fill-opacity:0.80000001"
   d="m 71.617,53.85 c -0.582,-2.804 -10.812,-5.036 -23.348,-5.036 -12.911,0 -25.277,-1.305 -25.277,1.616 0,2.921 12.367,8.961 25.277,8.961 12.536,0 22.766,-2.233 23.348,-5.037 z"
   id="path87" />

		</g>

		
	</g>
  </g>
</svg>
