<?xml version="1.0" encoding="UTF-8" standalone="no"?>
<!-- Created with Inkscape (http://www.inkscape.org/) -->

<svg
   width="43.200001mm"
   height="25.5mm"
   viewBox="0 0 43.200001 25.5"
   version="1.1"
   id="svg1"
   inkscape:version="1.4.3 (0d15f75, 2025-12-25)"
   sodipodi:docname="moth.svg"
   xmlns:inkscape="http://www.inkscape.org/namespaces/inkscape"
   xmlns:sodipodi="http://sodipodi.sourceforge.net/DTD/sodipodi-0.dtd"
   xmlns="http://www.w3.org/2000/svg"
   xmlns:svg="http://www.w3.org/2000/svg">
  <sodipodi:namedview
     id="namedview1"
     pagecolor="#ffffff"
     bordercolor="#000000"
     borderopacity="0.25"
     inkscape:showpageshadow="2"
     inkscape:pageopacity="0.0"
     inkscape:pagecheckerboard="0"
     inkscape:deskcolor="#d1d1d1"
     inkscape:document-units="mm"
     inkscape:zoom="5.8083614"
     inkscape:cx="84.533308"
     inkscape:cy="68.263659"
     inkscape:window-width="1920"
     inkscape:window-height="1017"
     inkscape:window-x="-8"
     inkscape:window-y="-8"
     inkscape:window-maximized="1"
     inkscape:current-layer="g670" />
  <defs
     id="defs1" />
  <g
     inkscape:label="Layer 1"
     inkscape:groupmode="layer"
     id="layer1">
    <g
       id="g687"
       transform="matrix(0.29060286,0,0,0.29060286,-51.768576,-67.593936)">
	<g
   id="g642">
		<polygon
   style="fill:#663a29"
   points="218.716,299.804 227.362,289.984 242.44,275.584 247.098,273.838 247.317,280.82 247.098,295.44 249.091,307.658 248.205,317.478 245.987,320.097 236.454,317.261 228.915,313.551 221.599,307.441 "
   id="polygon637" />

		<polygon
   style="fill:#774c36"
   points="236.454,317.261 228.915,313.551 221.599,307.441 218.716,299.804 220.318,297.984 223.595,302.641 229.581,309.186 236.676,313.551 243.77,315.732 248.378,315.565 248.205,317.478 245.987,320.097 "
   id="polygon638" />

		<path
   style="fill:#b27a5b"
   d="m 226.841,290.578 c 0.878,1.389 1.746,2.802 1.852,3.116 0.223,0.654 3.549,4.146 3.549,4.146 l 5.765,2.618 5.987,1.965 4.125,-0.726 0.973,5.961 -0.256,2.851 c -0.775,0.399 -6.183,-0.449 -6.839,-0.449 -0.664,0 -7.76,-3.709 -9.533,-4.583 -1.773,-0.872 -7.316,-6.109 -7.76,-6.764 -0.226,-0.333 -1.078,-2.015 -1.865,-3.59 z"
   id="path638" />

		<path
   style="fill:#4c291e"
   d="m 228.548,313.244 0.257,-3.075 0.887,-5.456 3.436,-10.909 4.434,-10.146 2.767,-6.057 1.75,-1.673 c -1.741,3.866 -4.219,9.473 -4.517,9.911 -0.442,0.654 -3.99,9.818 -4.212,10.473 -0.223,0.654 -2.66,8.729 -2.883,9.384 -0.145,0.428 -0.573,5.047 -0.854,8.199 l -0.698,-0.345 z"
   id="path639" />

		<path
   style="fill:#4c291e"
   d="m 234.68,308.532 1.774,-7.637 3.104,-8.293 3.547,-9.6 c 0,0 2.327,-3.868 4.066,-6.761 l 0.045,1.407 c -1.455,2.853 -3.669,7.317 -3.669,7.317 0,0 -2.438,7.854 -2.659,8.51 -0.223,0.654 -4.213,11.128 -4.435,12.22 -0.161,0.789 -1.485,7.075 -2.202,10.48 l -1.083,-0.533 z"
   id="path640" />

		<path
   style="fill:#4c291e"
   d="m 238.782,315.406 c 0,0 0.997,-4.583 0.997,-4.91 0,-0.327 1.553,-7.092 1.553,-7.092 l 2.661,-7.965 3.199,-6.375 -0.041,2.673 -2.273,3.702 -2.106,6.874 -1.995,7.964 -1.33,6.765 -0.057,1.093 -0.759,-0.228 z"
   id="path641" />

		<path
   style="fill:#4c291e"
   d="m 243.282,319.292 -0.065,-3.34 c 0,0 1.44,-8.839 1.44,-9.165 0,-0.244 1.708,-6.967 2.591,-10.425 l 0.521,3.195 -0.672,1.556 -2.44,11.455 -0.555,5.455 v 1.512 z"
   id="path642" />

	</g>

	<g
   id="g647">
		<polygon
   style="fill:#663a29"
   points="285.454,299.804 276.807,289.984 261.73,275.584 257.073,273.838 256.852,280.82 257.073,295.44 255.078,307.658 255.965,317.478 258.183,320.097 267.716,317.261 275.254,313.551 282.57,307.441 "
   id="polygon642" />

		<polygon
   style="fill:#774c36"
   points="267.716,317.261 275.254,313.551 282.57,307.441 285.454,299.804 283.852,297.984 280.577,302.641 274.59,309.186 267.495,313.551 260.399,315.732 255.791,315.565 255.965,317.478 258.183,320.097 "
   id="polygon643" />

		<path
   style="fill:#b27a5b"
   d="m 277.328,290.578 c -0.877,1.389 -1.746,2.802 -1.852,3.116 -0.223,0.654 -3.548,4.146 -3.548,4.146 l -5.765,2.618 -5.986,1.965 -4.127,-0.726 -0.973,5.961 0.258,2.851 c 0.774,0.399 6.181,-0.449 6.836,-0.449 0.666,0 7.762,-3.709 9.536,-4.583 1.772,-0.872 7.316,-6.109 7.759,-6.764 0.226,-0.333 1.078,-2.015 1.866,-3.59 z"
   id="path643" />

		<path
   style="fill:#4c291e"
   d="m 275.623,313.244 -0.257,-3.075 -0.888,-5.456 -3.436,-10.909 -4.436,-10.146 -2.764,-6.057 -1.75,-1.673 c 1.742,3.866 4.219,9.473 4.514,9.911 0.444,0.654 3.992,9.818 4.214,10.473 0.222,0.654 2.66,8.729 2.883,9.384 0.145,0.428 0.572,5.047 0.853,8.199 l 0.697,-0.345 z"
   id="path644" />

		<path
   style="fill:#4c291e"
   d="m 269.489,308.532 -1.773,-7.637 -3.103,-8.293 -3.548,-9.6 c 0,0 -2.328,-3.868 -4.066,-6.761 l -0.047,1.407 c 1.456,2.853 3.67,7.317 3.67,7.317 0,0 2.439,7.854 2.66,8.51 0.223,0.654 4.214,11.128 4.435,12.22 0.162,0.789 1.483,7.075 2.203,10.48 l 1.084,-0.533 z"
   id="path645" />

		<path
   style="fill:#4c291e"
   d="m 265.389,315.406 c 0,0 -0.998,-4.583 -0.998,-4.91 0,-0.327 -1.553,-7.092 -1.553,-7.092 l -2.66,-7.965 -3.202,-6.375 0.042,2.673 2.272,3.702 2.106,6.874 1.996,7.964 1.33,6.765 0.055,1.093 0.76,-0.228 z"
   id="path646" />

		<path
   style="fill:#4c291e"
   d="m 260.888,319.292 0.066,-3.34 c 0,0 -1.441,-8.839 -1.441,-9.165 0,-0.244 -1.707,-6.967 -2.59,-10.425 l -0.521,3.195 0.672,1.556 2.44,11.455 0.554,5.455 v 1.512 z"
   id="path647" />

	</g>

	<polygon
   style="fill:#4c291e"
   points="252.766,256.164 248.021,257.619 245.175,262.274 246.123,268.674 251.183,271.874 255.927,270.419 258.773,265.765 258.773,259.364 255.296,257.036 "
   id="polygon647" />

	<polygon
   style="fill:#4c291e"
   points="248.723,258.782 247.836,255.29 250.201,252.964 253.749,252.964 256.41,254.418 256.114,259.073 "
   id="polygon648" />

	
	
	<polygon
   style="fill:#4c291e"
   points="244.881,282.057 247.836,294.568 250.201,305.622 251.382,313.186 253.749,315.805 255.521,311.15 257.591,303.004 258.478,292.239 259.365,282.64 258.478,273.91 257.001,269.838 253.749,269.256 251.679,269.547 246.948,271.002 244.583,275.074 "
   id="polygon651" />

	<path
   style="fill:#d3ae7d"
   d="m 248.132,274.783 -3.459,2.384 0.094,2.244 1.887,-1.428 5.322,-1.164 5.32,0.292 c 0,0 0.713,0.465 1.603,0.931 l -0.315,-3.093 -5.131,-1.33 z"
   id="path651" />

	<polygon
   style="fill:#d3ae7d"
   points="248.427,281.476 245.102,283.002 245.684,285.458 249.609,284.094 256.705,283.802 259.201,284.416 259.365,282.64 259.337,282.37 255.521,281.184 "
   id="polygon652" />

	<polygon
   style="fill:#d3ae7d"
   points="258.478,292.239 258.634,290.548 258.184,290.204 254.044,289.33 249.609,289.621 246.879,290.518 247.168,291.742 252.27,290.784 257.001,291.948 258.435,292.772 "
   id="polygon653" />

	<polygon
   style="fill:#d3ae7d"
   points="258.032,297.666 258.262,294.856 257.001,294.275 251.088,293.403 247.92,294.962 248.466,297.513 250.497,296.313 254.635,296.603 "
   id="polygon654" />

	<polygon
   style="fill:#d3ae7d"
   points="257.777,300.767 255.817,299.804 251.088,299.512 249.071,300.34 249.52,302.444 251.976,301.842 256.41,302.713 257.56,303.125 257.591,303.004 "
   id="polygon655" />

	<polygon
   style="fill:#d3ae7d"
   points="256.017,309.203 256.705,306.496 251.976,306.496 250.472,307.357 250.933,310.304 252.27,309.696 "
   id="polygon656" />

	<polygon
   style="fill:#4c291e"
   points="252.64,249.836 254.191,253.982 250.422,253.763 251.531,249.836 "
   id="polygon657" />

	
	<path
   style="fill:#4c291e"
   d="m 253.525,253.546 1.553,-2.511 c 0,0 3.548,-2.836 3.991,-3.381 0.443,-0.546 6.652,-4.145 7.095,-4.69 0.442,-0.547 4.878,-3.384 4.989,-3.71 0.11,-0.329 4.101,-4.693 4.101,-4.693 v -1.962 h 1.331 v 1.854 l -1.441,1.526 -2.105,2.182 -2.551,2.62 -3.105,2.072 -3.768,2.51 -4.212,2.945 -3.216,2.946 -1.995,2.728 z"
   id="path658" />

	<g
   id="g670">
		<polygon
   style="fill:#bf9066"
   points="279.024,313.551 277.027,309.186 271.264,295.003 265.276,286.057 258.183,276.675 256.186,272.31 254.414,269.037 255.817,264.6 257.738,260.746 272.372,261.837 290.997,267.947 313.612,282.13 324.255,297.185 326.693,305.696 323.589,308.314 318.712,310.277 314.942,310.06 312.946,311.806 310.064,313.114 304.077,313.551 298.756,313.332 296.54,315.078 293.214,314.86 290.332,313.551 287.449,314.205 284.345,314.642 "
   id="polygon658" />

		<polygon
   style="fill:#b27a5b"
   points="322.685,308.679 323.497,308.352 320.707,299.367 315.164,289.33 305.741,280.712 290.775,270.893 274.922,264.348 262.284,262.165 257.25,261.729 256.705,262.819 260.621,262.819 270.266,264.456 276.807,265.874 286.563,269.91 296.207,275.475 305.519,282.021 311.061,286.93 314.942,290.529 319.377,298.603 322.036,306.678 "
   id="polygon659" />

		<path
   style="fill:#b27a5b"
   d="m 314.832,302.096 -5.765,-9.384 -8.426,-8.183 -12.194,-8.728 -11.862,-6 -11.862,-3.272 -8.508,-2.724 -0.397,0.794 -0.108,0.347 7.572,2.128 8.869,2.291 5.322,1.963 7.981,4.037 10.864,6.873 8.869,7.966 5.542,6.763 3.215,4.802 c 0,0 1.552,5.345 1.664,5.673 0.057,0.172 0.485,1.493 0.877,2.707 l 0.815,0.048 z"
   id="path659" />

		<polygon
   style="fill:#b27a5b"
   points="304.853,307.332 301.195,297.73 293.879,287.803 282.57,278.966 271.597,273.293 255.085,266.917 254.563,268.565 267.495,272.529 274.811,275.912 282.35,280.057 289.556,285.185 294.544,290.204 298.536,295.658 301.418,300.677 303.745,306.896 304.521,311.913 304.696,313.506 305.499,313.446 "
   id="polygon660" />

		<polygon
   style="fill:#b27a5b"
   points="297.426,311.042 294.321,300.896 286.119,288.238 272.593,278.639 255.872,271.73 256.186,272.31 256.572,273.153 267.939,277.548 274.146,280.82 280.797,285.512 285.897,289.657 290.332,296.094 293.436,301.659 295.653,307.55 296.54,313.551 296.54,315.078 297.481,314.335 "
   id="polygon661" />

		<polygon
   style="fill:#b27a5b"
   points="261.51,281.075 265.056,282.238 270.487,285.076 275.92,290.204 281.333,295.123 285.121,301.004 288.003,306.568 289.224,313.006 289.33,313.778 290.271,313.565 289.445,307.332 283.569,295.768 270.266,283.658 260.288,279.461 "
   id="polygon662" />

		
		
		
		
		
		
		
		
		
		<path
   style="fill:#d3ae7d"
   d="m 312.208,293.912 4.434,-1.091 2.31,-3.138 -1.126,-1.593 -0.075,0.148 -5.1,2.62 -5.765,-0.874 -5.543,-0.218 -4.878,1.746 -3.325,4.146 -1.553,2.618 -4.212,0.873 c 0,0 -3.992,0.438 -4.656,0.438 -0.666,0 -4.213,0 -4.213,0 0,0 -2.217,0.654 -2.662,1.309 -0.166,0.248 -0.688,1.189 -1.267,2.261 l 1.662,4.092 3.154,-4.825 5.986,-0.219 6.43,0.436 4.655,-1.964 2.44,-4.364 4.213,-2.4 c 0,0 4.213,0 4.876,0 0.666,-0.001 4.215,-0.001 4.215,-0.001 z"
   id="path668" />

		<path
   style="fill:#d3ae7d"
   d="m 307.773,282.566 c 0,0 2.438,0 3.104,0 0.357,0 1.49,-0.317 2.459,-0.611 l -4.647,-2.913 c -0.669,-0.059 -1.258,-0.121 -1.58,-0.185 -1.108,-0.219 -7.982,-0.438 -8.87,-0.438 -0.886,0 -3.989,1.092 -4.878,1.31 -0.886,0.219 -2.882,1.091 -3.769,1.964 -0.887,0.873 -2.217,2.619 -2.217,2.619 0,0 -0.665,1.964 -0.888,2.617 -0.222,0.654 -1.773,2.837 -1.773,2.837 l -2.439,1.092 c 0,0 -0.375,-0.593 -2.661,-0.438 -2.286,0.157 -2.068,-0.436 -3.694,-0.217 -1.627,0.217 -2.958,0.217 -4.065,1.09 -0.506,0.396 -1.147,1.247 -1.697,2.056 l 1.107,1.653 1.094,2.69 c 0.35,-0.765 0.604,-1.387 0.604,-1.599 0,-0.654 1.774,-2.617 1.774,-2.617 l 3.991,-0.219 3.991,-0.218 3.104,-0.873 3.104,-4.364 0.665,-3.709 c 0,0 7.981,-3.273 8.646,-3.056 0.666,0.219 5.766,1.092 5.766,1.092 z"
   id="path669" />

		<path
   style="fill:#d3ae7d"
   d="m 282.381,265.121 -1.214,0.426 -3.104,0.218 h -3.103 l -2.883,2.618 -0.887,3.71 0.442,3.055 -0.442,1.527 c 0,0 -1.627,0.436 -2.439,0.654 -0.811,0.219 -5.099,2.837 -5.099,2.837 l -1.137,2.237 1.287,1.704 1.18,-3.287 1.553,-1.527 h 2.659 l 3.991,-2.618 -0.443,-3.056 -0.221,-3.49 1.994,-2.4 c 0,0 1.552,-1.31 2.882,-1.31 1.331,0 3.991,0.22 3.991,0.22 l 2.883,-0.655 0.155,-0.192 z"
   id="path670" />

	</g>

	
	
	
	
	
	<g
   id="g686">
		<polygon
   style="fill:#bf9066"
   points="225.811,313.551 227.807,309.186 233.571,295.003 239.559,286.057 246.652,276.675 248.647,272.31 250.422,269.037 249.018,264.6 247.098,260.746 232.463,261.837 213.838,267.947 191.223,282.13 180.58,297.185 178.142,305.696 181.246,308.314 186.123,310.277 189.893,310.06 191.888,311.806 194.77,313.114 200.757,313.551 206.079,313.332 208.295,315.078 211.621,314.86 214.503,313.551 217.386,314.205 220.49,314.642 "
   id="polygon674" />

		<polygon
   style="fill:#b27a5b"
   points="182.15,308.679 181.337,308.352 184.128,299.367 189.671,289.33 199.094,280.712 214.06,270.893 229.913,264.348 242.551,262.165 247.585,261.729 248.129,262.819 244.214,262.819 234.569,264.456 228.028,265.874 218.272,269.91 208.627,275.475 199.316,282.021 193.773,286.93 189.893,290.529 185.458,298.603 182.798,306.678 "
   id="polygon675" />

		<path
   style="fill:#b27a5b"
   d="m 190.003,302.096 5.765,-9.384 8.425,-8.183 12.194,-8.728 11.863,-6 11.862,-3.272 8.508,-2.724 0.398,0.794 0.108,0.347 -7.572,2.128 -8.869,2.291 -5.322,1.963 -7.98,4.037 -10.865,6.873 -8.869,7.966 -5.542,6.763 -3.214,4.802 c 0,0 -1.552,5.345 -1.664,5.673 -0.058,0.172 -0.485,1.493 -0.876,2.707 l -0.817,0.048 z"
   id="path675" />

		<polygon
   style="fill:#b27a5b"
   points="199.98,307.332 203.639,297.73 210.956,287.803 222.264,278.966 233.239,273.293 249.75,266.917 250.272,268.565 237.341,272.529 230.023,275.912 222.486,280.057 215.279,285.185 210.291,290.204 206.3,295.658 203.418,300.677 201.09,306.896 200.313,311.913 200.139,313.506 199.336,313.446 "
   id="polygon676" />

		<polygon
   style="fill:#b27a5b"
   points="207.408,311.042 210.513,300.896 218.716,288.238 232.241,278.639 248.963,271.73 248.647,272.31 248.264,273.153 236.897,277.548 230.689,280.82 224.037,285.512 218.938,289.657 214.503,296.094 211.399,301.659 209.183,307.55 208.295,313.551 208.295,315.078 207.354,314.335 "
   id="polygon677" />

		<polygon
   style="fill:#b27a5b"
   points="243.325,281.075 239.779,282.238 234.348,285.076 228.915,290.204 223.502,295.123 219.714,301.004 216.831,306.568 215.611,313.006 215.505,313.778 214.564,313.565 215.391,307.332 221.266,295.768 234.569,283.658 244.547,279.461 "
   id="polygon678" />

		
		
		
		
		
		
		
		
		
		<path
   style="fill:#d3ae7d"
   d="m 192.628,293.912 -4.435,-1.091 -2.31,-3.138 1.125,-1.593 0.075,0.148 5.1,2.62 5.765,-0.874 5.542,-0.218 4.879,1.746 3.325,4.146 1.552,2.618 4.213,0.873 c 0,0 3.99,0.438 4.654,0.438 0.666,0 4.214,0 4.214,0 0,0 2.217,0.654 2.661,1.309 0.167,0.248 0.689,1.189 1.269,2.261 l -1.664,4.092 -3.153,-4.825 -5.986,-0.219 -6.428,0.436 -4.657,-1.964 -2.439,-4.364 -4.213,-2.4 c 0,0 -4.213,0 -4.878,0 -0.664,-0.001 -4.211,-0.001 -4.211,-0.001 z"
   id="path684" />

		<path
   style="fill:#d3ae7d"
   d="m 197.063,282.566 c 0,0 -2.44,0 -3.104,0 -0.358,0 -1.491,-0.317 -2.458,-0.611 l 4.646,-2.913 c 0.669,-0.059 1.258,-0.121 1.581,-0.185 1.109,-0.219 7.982,-0.438 8.869,-0.438 0.887,0 3.99,1.092 4.879,1.31 0.886,0.219 2.882,1.091 3.768,1.964 0.887,0.873 2.218,2.619 2.218,2.619 0,0 0.664,1.964 0.886,2.617 0.223,0.654 1.774,2.837 1.774,2.837 l 2.439,1.092 c 0,0 0.375,-0.593 2.661,-0.438 2.286,0.157 2.068,-0.436 3.694,-0.217 1.627,0.217 2.958,0.217 4.066,1.09 0.505,0.396 1.147,1.247 1.697,2.056 l -1.106,1.653 -1.093,2.69 c -0.351,-0.765 -0.605,-1.387 -0.605,-1.599 0,-0.654 -1.774,-2.617 -1.774,-2.617 l -3.991,-0.219 -3.992,-0.218 -3.104,-0.873 -3.103,-4.364 -0.666,-3.709 c 0,0 -7.981,-3.273 -8.647,-3.056 -0.664,0.219 -5.765,1.092 -5.765,1.092 z"
   id="path685" />

		<path
   style="fill:#d3ae7d"
   d="m 222.455,265.121 1.213,0.426 3.104,0.218 h 3.105 l 2.882,2.618 0.888,3.71 -0.442,3.055 0.442,1.527 c 0,0 1.627,0.436 2.44,0.654 0.812,0.219 5.099,2.837 5.099,2.837 l 1.137,2.237 -1.287,1.704 -1.18,-3.287 -1.553,-1.527 h -2.659 l -3.991,-2.618 0.442,-3.056 0.223,-3.49 -1.995,-2.4 c 0,0 -1.552,-1.31 -2.882,-1.31 -1.331,0 -3.991,0.22 -3.991,0.22 l -2.884,-0.655 -0.155,-0.192 z"
   id="path686" />

	</g>

	<path
   style="fill:#4c291e"
   d="m 249.979,253.546 -1.553,-2.511 c 0,0 -3.548,-2.836 -3.991,-3.381 -0.442,-0.546 -6.651,-4.145 -7.095,-4.69 -0.443,-0.547 -4.878,-3.384 -4.99,-3.71 -0.109,-0.329 -4.101,-4.693 -4.101,-4.693 v -1.962 h -1.33 v 1.854 l 1.441,1.526 2.105,2.182 2.55,2.62 3.104,2.072 3.768,2.51 4.213,2.945 3.215,2.946 1.996,2.728 z"
   id="path687" />

</g>
  </g>
</svg>
