<?xml version="1.0" encoding="UTF-8" standalone="no"?>
<!-- Created with Inkscape (http://www.inkscape.org/) -->

<svg
   width="50mm"
   height="25.5mm"
   viewBox="0 0 50 25.5"
   version="1.1"
   id="svg1"
   inkscape:version="1.4.3 (0d15f75, 2025-12-25)"
   sodipodi:docname="moth.svg"
   xmlns:inkscape="http://www.inkscape.org/namespaces/inkscape"
   xmlns:sodipodi="http://sodipodi.sourceforge.net/DTD/sodipodi-0.dtd"
   xmlns="http://www.w3.org/2000/svg"
   xmlns:svg="http://www.w3.org/2000/svg">
  <sodipodi:namedview
     id="namedview1"
     pagecolor="#ffffff"
     bordercolor="#000000"
     borderopacity="0.25"
     inkscape:showpageshadow="2"
     inkscape:pageopacity="0.0"
     inkscape:pagecheckerboard="0"
     inkscape:deskcolor="#d1d1d1"
     inkscape:document-units="mm"
     inkscape:zoom="5.06"
     inkscape:cx="85.770751"
     inkscape:cy="59.980237"
     inkscape:window-width="1920"
     inkscape:window-height="1017"
     inkscape:window-x="-8"
     inkscape:window-y="-8"
     inkscape:window-maximized="1"
     inkscape:current-layer="g642"
     showgrid="false" />
  <defs
     id="defs1" />
  <g
     inkscape:label="Layer 1"
     inkscape:groupmode="layer"
     id="layer1">
    <g
       id="g687"
       transform="matrix(0.29060286,0,0,0.29060286,-48.353247,-67.593936)">
      <g
         id="g642"
         inkscape:label="left wing bottom">
        <polygon
           style="fill:#663a29"
           points="247.317,280.82 247.098,295.44 249.091,307.658 248.205,317.478 245.987,320.097 236.454,317.261 228.915,313.551 221.599,307.441 218.716,299.804 227.362,289.984 242.44,275.584 247.098,273.838 "
           id="polygon637" />
        <polygon
           style="fill:#774c36"
           points="220.318,297.984 223.595,302.641 229.581,309.186 236.676,313.551 243.77,315.732 248.378,315.565 248.205,317.478 245.987,320.097 236.454,317.261 228.915,313.551 221.599,307.441 218.716,299.804 "
           id="polygon638" />
        <path
           style="fill:#b27a5b"
           d="m 226.841,290.578 c 1.32382,2.13712 2.51297,4.40754 4.33893,6.17227 1.28927,1.57563 3.37439,2.03617 5.1086,2.94079 1.9981,0.92013 4.11703,1.54459 6.17695,2.28657 1.67459,0.73205 3.48307,0.0698 5.17538,-0.20211 1.22987,0.43899 0.51897,2.23885 1.01793,3.23942 0.28268,1.66353 0.67704,3.41672 0.12607,5.06987 -0.88971,1.17198 -2.48965,0.19109 -3.69602,0.31219 -1.9299,-0.17557 -3.9227,-0.38317 -5.61864,-1.40899 -2.32905,-1.20798 -4.74085,-2.26187 -7.01877,-3.56457 -2.68057,-1.66874 -4.97613,-3.87716 -7.17237,-6.12423 -0.85867,-1.11001 -1.7095,-2.3038 -2.1257,-3.65428 -0.26785,-1.20254 1.01804,-1.83972 1.60384,-2.69976 0.69982,-0.78442 1.40224,-1.56674 2.0838,-2.36717 z"
           id="path638" />
        <path
           style="fill:#4c291e"
           d="m 228.548,313.244 c 0.24843,-3.28393 0.65915,-6.58491 1.52875,-9.764 1.50412,-4.52866 2.64068,-9.19878 4.7256,-13.51392 1.80545,-4.13794 3.6203,-8.27237 5.52665,-12.36508 0.4908,-0.39722 2.17906,-2.36749 1.33905,-0.74271 -2.63973,5.97411 -5.56448,11.83015 -7.75758,17.99211 -1.28806,3.4564 -2.26281,7.01716 -3.32297,10.54635 -0.57668,2.43595 -0.58799,4.9597 -0.87724,7.439 0.0157,1.19682 -0.16744,1.23477 -1.16226,0.40825 z"
           id="path639" />
        <path
           style="fill:#4c291e"
           d="m 234.68,308.532 c 0.98089,-4.6523 2.13447,-9.27783 4.02647,-13.65433 1.58694,-4.08307 2.94198,-8.27621 4.65271,-12.2982 1.17738,-1.61544 3.11672,-5.87611 3.80079,-5.78263 -0.43371,3.40996 -3.15457,5.9456 -3.91777,9.27331 -1.65489,5.29274 -3.40445,10.55087 -5.45274,15.70598 -1.83484,4.62243 -2.42107,9.58375 -3.53846,14.39887 -1.98063,-0.55443 -0.27423,-2.97475 -0.25581,-4.4228 0.22827,-1.0734 0.45654,-2.1468 0.68481,-3.2202 z"
           id="path640" />
        <path
           style="fill:#4c291e"
           d="m 238.782,315.406 c 1.21447,-5.61459 2.0474,-11.34589 4.12712,-16.7327 0.92408,-3.41426 2.7501,-6.45252 4.28288,-9.6093 0.50765,2.37597 -1.06381,4.37499 -2.19929,6.27321 -2.39842,6.86167 -4.09639,13.96797 -5.41926,21.11474 0.27531,1.18753 -0.95153,2.40772 -0.95174,0.62629 0.043,-0.55618 0.27144,-1.11021 0.16029,-1.67224 z"
           id="path641" />
        <path
           style="fill:#4c291e"
           d="m 243.282,319.292 c -0.0897,-2.04101 -0.10431,-4.10957 0.3899,-6.10544 0.58014,-3.76852 1.10176,-7.5601 2.15593,-11.23316 0.46931,-1.86484 0.94762,-3.72739 1.4202,-5.5914 0.17367,1.065 0.34733,2.13 0.521,3.195 -1.08767,2.13804 -1.19368,4.58291 -1.7998,6.86881 -0.68795,3.11242 -1.41019,6.23066 -1.65392,9.41697 -0.13168,1.22595 -0.23847,2.45802 -0.21328,3.69222 -0.27334,-0.081 -0.54668,-0.16202 -0.82003,-0.243 z"
           id="path642" />
      </g>
      <g
         id="g647"
         inkscape:label="right wing bottom">
        <polygon
           style="fill:#663a29"
           points="256.852,280.82 257.073,295.44 255.078,307.658 255.965,317.478 258.183,320.097 267.716,317.261 275.254,313.551 282.57,307.441 285.454,299.804 276.807,289.984 261.73,275.584 257.073,273.838 "
           id="polygon642" />
        <polygon
           style="fill:#774c36"
           points="283.852,297.984 280.577,302.641 274.59,309.186 267.495,313.551 260.399,315.732 255.791,315.565 255.965,317.478 258.183,320.097 267.716,317.261 275.254,313.551 282.57,307.441 285.454,299.804 "
           id="polygon643" />
        <path
           style="fill:#b27a5b"
           d="m 277.328,290.578 c -1.86232,2.97125 -3.57506,6.50038 -6.94683,8.00243 -3.21721,1.50084 -6.54907,2.79149 -9.9681,3.73594 -1.76726,0.41193 -5.00586,-1.99511 -4.63222,1.14602 -0.0878,2.16554 -2.02788,6.3624 0.71934,7.22065 2.85815,-0.43701 5.93479,-0.21292 8.47137,-1.83217 3.59292,-1.81666 7.4297,-3.34024 10.3803,-6.16778 1.76636,-1.63606 3.74169,-3.16896 4.85669,-5.33901 1.26537,-1.21366 0.99943,-2.87879 -0.31373,-3.85244 -0.8556,-0.97122 -1.71121,-1.94243 -2.56682,-2.91364 z"
           id="path643" />
        <path
           style="fill:#4c291e"
           d="m 275.623,313.244 c -0.24065,-4.98134 -1.38982,-9.84025 -3.02737,-14.53331 -1.99688,-6.94167 -5.36122,-13.36742 -8.22654,-19.97036 -0.314,-1.48218 -3.30231,-3.87706 -1.46774,-1.00494 3.76627,8.21252 7.59693,16.44712 9.96596,25.19634 1.29355,3.51604 1.30273,7.28473 1.68869,10.96327 l 0.56239,-0.28051 z"
           id="path644" />
        <path
           style="fill:#4c291e"
           d="m 269.489,308.532 c -0.9804,-4.65232 -2.13307,-9.27803 -4.02482,-13.65458 -1.58677,-4.08312 -2.94213,-8.27616 -4.65342,-12.29791 -1.17822,-1.6152 -3.11613,-5.87593 -3.80141,-5.78267 0.43129,3.41059 3.15519,5.94522 3.9176,9.27328 1.6555,5.29269 3.40566,10.55075 5.454,15.70597 1.83547,4.62237 2.4187,9.58436 3.53905,14.39891 2.3743,-1.71192 -0.62629,-4.85631 -0.34072,-7.21933 z"
           id="path645" />
        <path
           style="fill:#4c291e"
           d="m 265.389,315.406 c -1.21597,-5.61435 -2.04853,-11.34573 -4.12755,-16.73283 -0.92321,-3.41504 -2.75152,-6.4526 -4.28545,-9.60917 -0.50622,2.37586 1.06429,4.3748 2.1994,6.27329 2.39771,6.86187 4.09781,13.96763 5.42003,21.11455 -0.27809,1.19565 0.95161,2.39464 0.95396,0.62093 -0.0463,-0.55391 -0.27701,-1.10658 -0.16039,-1.66677 z"
           id="path646" />
        <path
           style="fill:#4c291e"
           d="m 260.888,319.292 c 0.13208,-2.14126 0.0414,-4.2847 -0.43421,-6.38097 -0.55899,-3.7834 -1.13473,-7.56981 -2.18578,-11.25452 -0.43741,-1.54206 -0.9872,-4.26865 -1.36146,-5.06904 -0.32415,1.54282 -0.76028,3.17052 0.15835,4.61531 0.83253,3.81504 1.70529,7.62836 2.42561,11.46873 0.2546,2.2792 0.60871,4.56336 0.57747,6.86349 0.27334,-0.081 0.54668,-0.16201 0.82002,-0.243 z"
           id="path647" />
      </g>
      <polygon
         style="fill:#4c291e"
         points="251.183,271.874 255.927,270.419 258.773,265.765 258.773,259.364 255.296,257.036 252.766,256.164 248.021,257.619 245.175,262.274 246.123,268.674 "
         id="polygon647" />
      <polygon
         style="fill:#4c291e"
         points="256.41,254.418 256.114,259.073 248.723,258.782 247.836,255.29 250.201,252.964 253.749,252.964 "
         id="polygon648" />
      <polygon
         style="fill:#4c291e"
         points="253.749,315.805 255.521,311.15 257.591,303.004 258.478,292.239 259.365,282.64 258.478,273.91 257.001,269.838 253.749,269.256 251.679,269.547 246.948,271.002 244.583,275.074 244.881,282.057 247.836,294.568 250.201,305.622 251.382,313.186 "
         id="polygon651" />
      <path
         style="fill:#d3ae7d"
         d="m 248.132,274.783 -3.459,2.384 0.094,2.244 1.887,-1.428 5.322,-1.164 5.32,0.292 c 0,0 0.713,0.465 1.603,0.931 l -0.315,-3.093 -5.131,-1.33 z"
         id="path651" />
      <polygon
         style="fill:#d3ae7d"
         points="256.705,283.802 259.201,284.416 259.365,282.64 259.337,282.37 255.521,281.184 248.427,281.476 245.102,283.002 245.684,285.458 249.609,284.094 "
         id="polygon652" />
      <polygon
         style="fill:#d3ae7d"
         points="249.609,289.621 246.879,290.518 247.168,291.742 252.27,290.784 257.001,291.948 258.435,292.772 258.478,292.239 258.634,290.548 258.184,290.204 254.044,289.33 "
         id="polygon653" />
      <polygon
         style="fill:#d3ae7d"
         points="247.92,294.962 248.466,297.513 250.497,296.313 254.635,296.603 258.032,297.666 258.262,294.856 257.001,294.275 251.088,293.403 "
         id="polygon654" />
      <polygon
         style="fill:#d3ae7d"
         points="249.52,302.444 251.976,301.842 256.41,302.713 257.56,303.125 257.591,303.004 257.777,300.767 255.817,299.804 251.088,299.512 249.071,300.34 "
         id="polygon655" />
      <polygon
         style="fill:#d3ae7d"
         points="250.933,310.304 252.27,309.696 256.017,309.203 256.705,306.496 251.976,306.496 250.472,307.357 "
         id="polygon656" />
      <polygon
         style="fill:#4c291e"
         points="252.64,249.836 254.191,253.982 250.422,253.763 251.531,249.836 "
         id="polygon657" />
      <g
         id="g670"
         inkscape:label="right wing top">
        <polygon
           style="fill:#bf9066"
           points="258.183,276.675 256.186,272.31 254.414,269.037 255.817,264.6 257.738,260.746 272.372,261.837 290.997,267.947 313.612,282.13 324.255,297.185 326.693,305.696 323.589,308.314 318.712,310.277 314.942,310.06 312.946,311.806 310.064,313.114 304.077,313.551 298.756,313.332 296.54,315.078 293.214,314.86 290.332,313.551 287.449,314.205 284.345,314.642 279.024,313.551 277.027,309.186 271.264,295.003 265.276,286.057 "
           id="polygon658" />
        <polygon
           style="fill:#b27a5b"
           points="305.741,280.712 290.775,270.893 274.922,264.348 262.284,262.165 257.25,261.729 256.705,262.819 260.621,262.819 270.266,264.456 276.807,265.874 286.563,269.91 296.207,275.475 305.519,282.021 311.061,286.93 314.942,290.529 319.377,298.603 322.036,306.678 322.685,308.679 323.497,308.352 320.707,299.367 315.164,289.33 "
           id="polygon659" />
        <path
           style="fill:#b27a5b"
           d="m 314.832,302.096 c -2.21465,-3.32895 -3.94679,-7.01402 -6.50842,-10.08975 -3.99506,-3.87816 -7.81293,-8.0241 -12.58839,-10.97379 -4.01398,-2.9804 -8.07334,-5.96951 -12.69454,-7.95264 -3.71704,-2.02881 -7.55417,-3.92562 -11.74609,-4.72893 -4.87419,-1.33788 -9.73777,-2.7287 -14.51442,-4.38625 -2.3304,1.44339 3.01771,1.95101 4.15971,2.46624 7.14079,1.92504 14.53374,3.39486 21.01466,7.13206 5.08064,2.62722 9.91337,5.72371 14.60952,8.97907 3.50669,2.99543 7.04815,6.00305 10.13353,9.44578 3.31245,4.34503 7.616,8.44828 8.45807,14.10721 0.15854,1.07602 1.3001,4.31384 1.7571,3.60073 -0.17226,-2.65224 -1.52434,-5.03278 -2.08073,-7.59973 z"
           id="path659" />
        <polygon
           style="fill:#b27a5b"
           points="271.597,273.293 255.085,266.917 254.563,268.565 267.495,272.529 274.811,275.912 282.35,280.057 289.556,285.185 294.544,290.204 298.536,295.658 301.418,300.677 303.745,306.896 304.521,311.913 304.696,313.506 305.499,313.446 304.853,307.332 301.195,297.73 293.879,287.803 282.57,278.966 "
           id="polygon660" />
        <polygon
           style="fill:#b27a5b"
           points="255.872,271.73 256.186,272.31 256.572,273.153 267.939,277.548 274.146,280.82 280.797,285.512 285.897,289.657 290.332,296.094 293.436,301.659 295.653,307.55 296.54,313.551 296.54,315.078 297.481,314.335 297.426,311.042 294.321,300.896 286.119,288.238 272.593,278.639 "
           id="polygon661" />
        <polygon
           style="fill:#b27a5b"
           points="281.333,295.123 285.121,301.004 288.003,306.568 289.224,313.006 289.33,313.778 290.271,313.565 289.445,307.332 283.569,295.768 270.266,283.658 260.288,279.461 261.51,281.075 265.056,282.238 270.487,285.076 275.92,290.204 "
           id="polygon662" />
        <path
           style="fill:#d3ae7d"
           d="m 312.208,293.912 c 1.62383,-0.67032 3.88657,-0.32396 5.00665,-1.86891 0.71721,-1.18353 2.57507,-2.42055 0.83946,-3.60258 -1.64944,-0.11048 -3.2507,1.64121 -4.94771,2.16843 -1.68194,0.45654 -3.52001,-0.42963 -5.2733,-0.47275 -2.01595,-0.24091 -4.0545,-0.36255 -6.07764,-0.32211 -1.62143,0.30032 -3.2252,0.80676 -4.71392,1.49963 -1.61158,1.04216 -2.55662,2.7843 -3.80665,4.18259 -0.71308,2.21043 -2.51816,3.4432 -4.81251,3.45197 -3.26671,0.60167 -6.60205,0.72199 -9.91638,0.6387 -1.93825,0.30924 -4.39828,2.36679 -3.56317,4.46294 0.51814,0.7173 0.87415,3.30278 1.50715,2.8763 0.98101,-1.50075 1.96201,-3.00149 2.94302,-4.50224 3.74521,-0.18481 7.51646,-0.32224 11.23988,0.18696 1.96939,-0.0723 3.84514,-0.92785 5.51996,-1.86346 1.71039,-1.54953 1.91443,-4.37172 4.22481,-5.33011 1.86637,-1.26916 3.97157,-1.80926 6.22261,-1.49728 1.86889,0.005 3.73835,-0.0174 5.60774,-0.008 z"
           id="path668" />
        <path
           style="fill:#d3ae7d"
           d="m 307.773,282.566 c 2.07691,0.28556 7.58664,-0.17699 3.37855,-2.00284 -2.70363,-2.34316 -6.3922,-1.76518 -9.68142,-2.07178 -3.81126,-0.31678 -7.67269,0.71865 -10.99806,2.5537 -2.8879,1.60211 -3.44884,4.93003 -4.9042,7.56622 -1.56733,2.92685 -5.21843,1.73051 -7.8538,1.6841 -2.82969,-0.67701 -8.67267,0.79324 -6.70485,4.64194 0.97572,1.2481 1.54995,3.78733 1.93599,0.88716 1.52348,-3.38782 5.52688,-2.44258 8.47452,-2.70191 3.72635,0.23578 6.35374,-2.63654 7.56235,-5.83974 -0.31444,-4.01024 3.93201,-4.43653 6.72471,-5.58776 3.05626,-1.32406 6.1731,0.39288 9.28155,0.54822 0.92597,0.12586 1.85432,0.23461 2.78466,0.32269 z"
           id="path669" />
        <path
           style="fill:#d3ae7d"
           d="m 282.381,265.121 c -2.12671,0.83406 -4.47892,0.55853 -6.71702,0.65323 -1.52539,0.27755 -3.00601,1.8629 -3.72453,3.19743 -0.25746,1.45185 -1.00564,2.90096 -0.56557,4.38703 0.35707,1.44744 0.43632,3.75752 -1.58561,3.68167 -2.19893,0.53793 -4.04234,1.91807 -5.96622,3.04568 -1.05634,1.12276 -1.64409,2.75345 -0.16784,3.82531 0.80868,-0.40252 0.75848,-2.98219 2.01534,-3.77925 0.8922,-1.51186 2.62003,-0.38958 3.89576,-1.07408 1.20533,-0.78449 2.40615,-1.59898 3.61969,-2.383 -0.34902,-2.09002 -0.57181,-4.20176 -0.64966,-6.31953 0.94913,-1.64738 2.29934,-3.33149 4.22077,-3.83135 1.96859,-0.41904 4.01277,0.49224 5.96017,-0.1869 0.71898,-0.0653 2.37521,-0.49936 0.82154,-0.86559 -0.38595,-0.10872 -0.80712,-0.1382 -1.15682,-0.35065 z"
           id="path670" />
      </g>
      <g
         id="g686"
         inkscape:label="left wing top">
        <polygon
           style="fill:#bf9066"
           points="246.652,276.675 248.647,272.31 250.422,269.037 249.018,264.6 247.098,260.746 232.463,261.837 213.838,267.947 191.223,282.13 180.58,297.185 178.142,305.696 181.246,308.314 186.123,310.277 189.893,310.06 191.888,311.806 194.77,313.114 200.757,313.551 206.079,313.332 208.295,315.078 211.621,314.86 214.503,313.551 217.386,314.205 220.49,314.642 225.811,313.551 227.807,309.186 233.571,295.003 239.559,286.057 "
           id="polygon674" />
        <polygon
           style="fill:#b27a5b"
           points="199.094,280.712 214.06,270.893 229.913,264.348 242.551,262.165 247.585,261.729 248.129,262.819 244.214,262.819 234.569,264.456 228.028,265.874 218.272,269.91 208.627,275.475 199.316,282.021 193.773,286.93 189.893,290.529 185.458,298.603 182.798,306.678 182.15,308.679 181.337,308.352 184.128,299.367 189.671,289.33 "
           id="polygon675" />
        <path
           style="fill:#b27a5b"
           d="m 190.003,302.096 5.765,-9.384 8.425,-8.183 12.194,-8.728 11.863,-6 11.862,-3.272 8.508,-2.724 0.398,0.794 0.108,0.347 -7.572,2.128 -8.869,2.291 -5.322,1.963 -7.98,4.037 -10.865,6.873 -8.869,7.966 -5.542,6.763 -3.214,4.802 c 0,0 -1.552,5.345 -1.664,5.673 -0.058,0.172 -0.485,1.493 -0.876,2.707 l -0.817,0.048 z"
           id="path675" />
        <polygon
           style="fill:#b27a5b"
           points="233.239,273.293 249.75,266.917 250.272,268.565 237.341,272.529 230.023,275.912 222.486,280.057 215.279,285.185 210.291,290.204 206.3,295.658 203.418,300.677 201.09,306.896 200.313,311.913 200.139,313.506 199.336,313.446 199.98,307.332 203.639,297.73 210.956,287.803 222.264,278.966 "
           id="polygon676" />
        <polygon
           style="fill:#b27a5b"
           points="248.963,271.73 248.647,272.31 248.264,273.153 236.897,277.548 230.689,280.82 224.037,285.512 218.938,289.657 214.503,296.094 211.399,301.659 209.183,307.55 208.295,313.551 208.295,315.078 207.354,314.335 207.408,311.042 210.513,300.896 218.716,288.238 232.241,278.639 "
           id="polygon677" />
        <polygon
           style="fill:#b27a5b"
           points="223.502,295.123 219.714,301.004 216.831,306.568 215.611,313.006 215.505,313.778 214.564,313.565 215.391,307.332 221.266,295.768 234.569,283.658 244.547,279.461 243.325,281.075 239.779,282.238 234.348,285.076 228.915,290.204 "
           id="polygon678" />
        <path
           style="fill:#d3ae7d"
           d="m 192.628,293.912 c -1.75996,-0.69324 -4.20209,-0.31145 -5.28622,-2.18763 -0.88364,-0.90433 -2.12697,-2.87328 -0.20928,-3.37406 1.85803,0.42699 3.1461,2.23168 5.13648,2.29555 2.46166,0.1521 4.83535,-0.7781 7.29874,-0.72019 2.15331,-0.19788 4.42176,-0.26698 6.41359,0.68936 2.58829,0.48299 4.04302,2.89564 5.51902,4.82199 0.86601,1.41771 1.77127,3.45282 3.75323,3.33112 2.81592,0.54689 5.70982,0.81767 8.59227,0.82572 1.74302,-0.0106 3.69702,-0.11334 5.00404,1.26198 1.32153,1.0108 1.48956,2.84847 0.6295,4.21376 -0.43984,1.04312 -0.88055,3.11534 -1.68153,1.10837 -0.89779,-1.41505 -1.4867,-3.61282 -3.44044,-3.81933 -3.80401,-0.27976 -7.61849,0.0269 -11.42047,0.24477 -1.97224,-1.04877 -4.79308,-1.23228 -5.57698,-3.72928 -0.7056,-2.01876 -2.35284,-3.29591 -4.16482,-4.23401 -2.68453,-1.29369 -5.74032,-0.56068 -8.60007,-0.72781 -0.65569,-1.3e-4 -1.31137,-2.4e-4 -1.96706,-3.1e-4 z"
           id="path684" />
        <path
           style="fill:#d3ae7d"
           d="m 197.063,282.566 c -1.5805,-0.0888 -4.5344,0.35754 -5.17719,-0.83656 2.12415,-1.27628 4.1851,-3.20452 6.85055,-2.96353 2.90241,-0.16112 5.84554,-0.51189 8.73682,-0.16567 3.19423,0.84077 6.82081,1.52249 8.9307,4.33119 1.72275,1.81822 1.70885,4.61357 3.43036,6.44612 1.43695,1.73485 3.8796,1.08195 5.8226,1.0287 2.60318,-0.18932 5.67864,-0.66091 7.77495,1.29671 1.68245,1.1837 0.61317,3.15918 -0.35183,4.41422 -0.51148,0.64676 -0.77663,2.09321 -0.89143,0.50753 -0.60531,-2.59497 -3.52428,-3.83055 -5.97662,-3.41386 -2.30902,0.091 -4.66317,-0.20299 -6.85838,-0.94935 -1.48822,-1.32425 -2.54794,-3.1421 -3.50882,-4.82868 -0.1999,-1.11327 -0.39981,-2.22654 -0.59971,-3.33981 -3.18007,-0.94873 -6.13803,-3.19838 -9.59397,-2.83108 -2.84267,0.55351 -5.70307,1.03428 -8.58803,1.30407 z"
           id="path685" />
        <path
           style="fill:#d3ae7d"
           d="m 222.455,265.121 c 2.33369,0.95158 4.91813,0.41678 7.34249,0.7313 1.68132,1.1328 3.35619,2.51794 3.50284,4.69193 1.03739,2.05432 -1.30043,5.09425 1.09204,6.4026 1.93384,0.14178 3.50986,1.32001 5.15478,2.23174 1.8913,0.65651 3.75684,3.50057 1.45578,4.78396 -0.61731,-1.52547 -0.9665,-3.49139 -2.51096,-4.48373 -1.90649,-0.14092 -3.88064,-0.32331 -5.2864,-1.76794 -2.43436,-0.81121 -1.02612,-3.2394 -1.04666,-5.0399 0.72222,-2.28677 -0.72388,-4.04473 -2.44895,-5.39444 -2.32638,-1.82728 -5.36148,0.002 -7.92195,-1.0236 -1.55601,-0.0552 -1.23326,-0.80912 0.16317,-0.95141 l 0.26173,-0.0833 0.2421,-0.0972 z"
           id="path686" />
      </g>
      <path
         style="fill:#4c291e"
         d="m 253.525,253.546 c 0.77738,-1.1468 1.29897,-2.53609 2.53707,-3.29112 1.83303,-1.47864 3.4998,-3.18579 5.57592,-4.33573 2.09015,-1.26387 4.15718,-2.57766 6.03944,-4.13971 1.5717,-1.09182 3.31587,-2.05547 4.40728,-3.6845 1.00832,-1.25509 2.26103,-2.35206 3.16929,-3.65964 0,-0.6121 0,-1.2242 0,-1.8363 0.44367,0 0.88733,0 1.331,0 0,0.618 0,1.236 0,1.854 -2.02388,2.14578 -4.07065,4.27011 -6.14932,6.36291 -3.8201,2.60109 -7.76686,5.03204 -11.42643,7.85834 -1.40662,1.32722 -3.00747,2.5057 -3.99004,4.21006 -0.4107,0.50128 -0.84309,1.44837 -1.49421,0.66169 z"
         id="path658"
         inkscape:label="right antenna" />
      <path
         style="fill:#4c291e"
         d="m 249.979,253.546 c -0.68055,-0.92986 -1.07432,-2.11388 -1.97526,-2.84837 -1.51314,-1.16155 -2.89522,-2.48896 -4.39307,-3.66198 -2.44715,-1.63613 -5.08272,-3.00419 -7.33209,-4.92178 -1.58043,-1.21727 -3.49244,-2.09633 -4.65805,-3.77189 -1.06501,-1.32605 -2.3351,-2.5275 -3.37153,-3.84388 0,-0.63303 0,-1.26607 0,-1.8991 -0.44333,0 -0.88667,0 -1.33,0 0,0.618 0,1.236 0,1.854 2.02376,2.14558 4.07038,4.26971 6.14831,6.36292 3.75811,2.5416 7.603,4.96601 11.23573,7.68589 1.01396,0.91818 2.03775,1.83182 3.01274,2.7884 0.77451,0.7681 1.33504,2.2505 2.16222,2.58279 0.167,-0.109 0.334,-0.218 0.501,-0.327 z"
         id="path687"
         inkscape:label="left antenna" />
    </g>
  </g>
</svg>
