<?xml version="1.0" encoding="UTF-8" standalone="no"?>
<!-- Created with Inkscape (http://www.inkscape.org/) -->

<svg
   width="37.799999mm"
   height="50mm"
   viewBox="0 0 37.799998 50"
   version="1.1"
   id="svg1"
   inkscape:version="1.4.3 (0d15f75, 2025-12-25)"
   sodipodi:docname="scorpion.svg"
   xmlns:inkscape="http://www.inkscape.org/namespaces/inkscape"
   xmlns:sodipodi="http://sodipodi.sourceforge.net/DTD/sodipodi-0.dtd"
   xmlns="http://www.w3.org/2000/svg"
   xmlns:svg="http://www.w3.org/2000/svg">
  <sodipodi:namedview
     id="namedview1"
     pagecolor="#ffffff"
     bordercolor="#000000"
     borderopacity="0.25"
     inkscape:showpageshadow="2"
     inkscape:pageopacity="0.0"
     inkscape:pagecheckerboard="0"
     inkscape:deskcolor="#d1d1d1"
     inkscape:document-units="mm"
     inkscape:zoom="2.9041807"
     inkscape:cx="69.899232"
     inkscape:cy="120.34375"
     inkscape:window-width="1920"
     inkscape:window-height="1017"
     inkscape:window-x="-8"
     inkscape:window-y="-8"
     inkscape:window-maximized="1"
     inkscape:current-layer="layer1"
     showgrid="false" />
  <defs
     id="defs1" />
  <g
     inkscape:label="Layer 1"
     inkscape:groupmode="layer"
     id="layer1">
    <g
       id="g210"
       transform="matrix(-0.20591136,0,0,0.20591136,70.342029,-13.960262)">
      <g
         id="g26">
        <g
           id="g6">
          <path
             style="fill:#4f3e26"
             d="m 203.691,289.484 c -0.0593,0.89629 0.37781,1.88698 -0.17166,2.73567 -0.55753,1.1156 -2.15935,1.47511 -3.09801,0.61349 -1.20827,-0.8487 -2.3934,-2.17141 -2.07702,-3.7675 -0.0818,-1.23611 -1.05993,-2.33118 -0.66487,-3.61847 0.22192,-2.80671 2.0043,-5.1911 4.08834,-6.95415 1.92296,-1.64933 4.4211,-2.40643 6.90579,-2.64159 2.78965,-0.32559 5.74256,-0.59585 8.11132,-2.26326 1.81878,-1.11557 3.75542,-2.84082 3.62182,-5.17532 -0.15819,-1.18327 0.29896,0.96733 0.44822,1.38381 0.75759,3.08415 -0.81061,6.2022 -2.81621,8.46557 -3.01845,3.41843 -7.53088,4.98991 -10.62006,8.32958 -0.84064,0.90508 -1.82699,1.66178 -2.97137,2.13789 -0.30934,0.17728 -0.63396,0.40188 -0.75629,0.75428 z"
             id="path6" />
        </g>
        <g
           id="g7">
          <path
             style="fill:#443421"
             d="m 202.289,292.827 c 1.38405,-0.31832 0.86793,-2.15575 2.04442,-2.61709 1.48949,-0.52189 3.11213,-0.35301 4.65619,-0.59304 2.08915,-0.23171 4.19126,-0.30501 6.28655,-0.40427 4.19648,-0.79156 8.52973,-0.46146 12.6792,0.4396 1.84257,0.4951 3.71418,0.95126 5.49144,1.64172 1.32644,0.96528 2.3618,2.46748 2.64427,4.09859 0.13819,1.53187 -1.4968,2.32369 -2.73107,2.6945 -4.30734,1.21381 -8.85858,1.09611 -13.28252,0.79178 -5.65301,-0.62852 -11.46754,-1.16286 -16.69837,-3.57179 -0.78593,-0.37936 -2.85242,-1.32652 -1.60912,-2.25735 0.16452,-0.0928 0.34036,-0.16279 0.51901,-0.22265 z"
             id="path7" />
        </g>
        <g
           id="g8">
          <path
             style="fill:#4f3e26"
             d="m 243.439,277.471 c -0.9242,-0.13283 -1.7715,0.28313 -2.26866,1.06736 -2.60551,2.51364 -4.08834,5.8733 -5.99956,8.88832 -0.65268,1.13639 -1.41581,2.22384 -1.92578,3.43332 0.0617,0.88864 1.17001,1.21761 1.38916,2.08452 0.65174,1.14252 1.18454,2.35076 1.83259,3.49185 0.60689,0.9137 1.70465,0.23706 2.38914,-0.19409 0.83134,-0.66258 1.46353,-1.53877 2.20954,-2.29319 2.24602,-2.57743 4.1463,-5.428 6.09504,-8.2295 0.66365,-1.15831 1.30882,-2.32698 2.05653,-3.43559 0.3499,-0.76239 0.47088,-1.68767 0.27225,-2.50272 -0.58746,-0.96844 -1.81256,-1.20744 -2.81705,-1.53375 -1.06883,-0.29459 -2.15489,-0.52047 -3.2332,-0.77653 z"
             id="path8" />
        </g>
        <g
           id="g9">
          <path
             style="fill:#443421"
             d="m 245.979,262.516 c -0.924,-0.047 -4.586,13.858 -4.004,14.482 1.382,1.48 2.896,3.386 5.25,2.748 1.272,-0.345 2.698,-0.378 3.635,-1.229 0.495,-0.449 1.193,-1.557 1.45,-2.139 0.493,-1.117 0.923,-2.279 1.317,-3.431 0.725,-2.124 1.768,-4.712 1.702,-6.98 -0.014,-0.498 -0.141,-1.473 -0.396,-1.918 -0.211,-0.368 -0.383,-0.421 -0.842,-0.524 -1.473,-0.336 -3.972,-0.542 -8.112,-1.009 z"
             id="path9" />
        </g>
        <g
           id="g10">
          <path
             style="fill:#4f3e26"
             d="m 249.502,248.067 c -0.90016,0.15907 -1.86333,0.14569 -2.69188,0.57008 -0.55956,0.56907 -0.43065,1.46246 -0.63493,2.18337 -0.38541,1.80992 -0.90677,3.59973 -1.02791,5.45616 -0.0419,1.51474 -0.89635,3.05416 -0.28912,4.54718 0.63682,1.40013 1.75364,2.51618 2.86576,3.54906 0.83647,0.76847 2.03397,0.56227 3.05645,0.4479 1.57198,-0.15727 3.27859,-0.42064 4.49129,-1.52078 0.78196,-0.84774 0.77508,-2.07904 1.10475,-3.12656 0.67877,-2.82661 1.30685,-5.67089 1.73859,-8.54623 0.0876,-0.87459 0.0296,-1.97809 -0.84512,-2.45154 -1.34255,-0.7203 -2.91396,-0.77079 -4.39949,-0.92613 -1.1211,-0.0883 -2.24472,-0.14037 -3.36839,-0.18251 z"
             id="path10" />
        </g>
        <g
           id="g11">
          <path
             style="fill:#382a1b"
             d="m 246.122,235.719 c -1.03707,0.91221 -1.33669,2.37249 -1.142,3.692 0.27545,2.45161 0.49697,4.90929 0.75669,7.36208 0.12206,1.00076 0.48734,2.03491 1.34408,2.63892 0.91161,0.69737 1.91114,1.29306 2.95135,1.7747 1.6495,0.58212 3.36357,-0.17125 4.84996,-0.86701 0.91755,-0.52846 2.03626,-0.65924 2.86558,-1.34065 0.66503,-0.59451 0.3308,-1.55252 0.54857,-2.31598 0.57695,-3.00927 1.0251,-6.04518 1.26946,-9.1001 0.22564,-0.80177 0.003,-1.81166 -0.89894,-2.05334 -2.16973,-0.70108 -4.48901,-0.45528 -6.72559,-0.32361 -1.94253,0.14506 -3.88126,0.33666 -5.81916,0.53299 z"
             id="path11" />
        </g>
        <g
           id="g17">
          <g
             style="opacity:0.1"
             id="g16" />
        </g>
        <g
           id="g25">
          <g
             id="g24" />
        </g>
      </g>
      <g
         id="g194">
        <g
           id="g40">
          <g
             id="g27">
            <path
               style="fill:#332919"
               d="m 311.377,146.811 c 1.763,-1.444 8.265,-5.483 6.496,-5.938 -2.722,0.831 -6.656,3.592 -8.969,5.423 0.655,0.653 0.835,0.443 2.473,0.515 z"
               id="path26" />
          </g>
          <g
             id="g30">
            <g
               id="g28">
              <path
                 style="fill:#4f3e26"
                 d="m 308.919,146.107 c 1.566,0.118 2.427,0.463 2.402,0.747 -0.094,1.101 -0.121,3.351 -0.273,4.461 -0.379,2.771 -1.206,13.042 -1.717,15.306 -0.141,0.622 -0.817,1.16 -1.598,0.938 -0.66,-0.187 -0.957,-1.211 -1.135,-1.729 -0.45,-1.314 -0.411,-1.965 -0.825,-3.281 -0.433,-1.377 -0.447,-4.006 0.553,-5.295 0.554,-0.712 2.206,-10.222 2.593,-11.147 z"
                 id="path27" />
            </g>
          </g>
          <g
             id="g31">
            <path
               style="fill:#443421"
               d="m 308.206,167.778 c -1.075,-1.815 -1.588,-3.07 -2.319,-2.933 -2.077,0.39 -11.288,1.437 -12.785,1.73 -1.702,0.333 -3.3,0.437 -4.99,0.686 -1.741,0.256 -2.411,2.804 -2.319,4.308 5.914,0.528 22.545,-2.924 22.413,-3.791 z"
               id="path30" />
          </g>
          <g
             id="g32">
            <path
               style="fill:#4f3e26"
               d="m 287.678,167.515 c -1.397,-3.536 -10.924,-15.175 -12.185,-14.992 -0.733,0.106 -2.368,1.418 -2.432,2.014 -0.087,0.817 9.75,13.813 10.734,15.169 0.408,0.562 0.63,1.131 1.307,1.506 1.217,0.671 1.2,-0.217 2.576,-3.697 z"
               id="path31" />
          </g>
          <g
             id="g35">
            <g
               id="g33">
              <path
                 style="fill:#382a1b"
                 d="m 275.996,152.655 c -0.406,-1.268 -2.12,-3.251 -3.343,-4.671 -1.216,-1.412 -4.716,-2.066 -6.605,-1.583 -1.751,0.448 -1.234,2.437 -0.747,3.947 0.244,0.757 2.89,1.033 4.168,1.734 0.855,0.469 2.993,2.503 3.168,2.614 0.617,0.388 1.188,-0.676 3.359,-2.041 z"
                 id="path32" />
            </g>
          </g>
          <g
             id="g39">
            <g
               id="g38" />
          </g>
        </g>
        <g
           id="g54">
          <g
             id="g41">
            <path
               style="fill:#332919"
               d="m 325.938,164.628 c 0.962,-0.678 2.703,-1.006 3.891,-1.383 1.408,-0.447 2.594,-0.785 4.102,-0.788 0.56,1.526 -7.341,3.993 -8.622,4.476 -0.273,-0.56 -0.255,-1.19 0.629,-2.305 z"
               id="path40" />
          </g>
          <g
             id="g44">
            <g
               id="g42">
              <path
                 style="fill:#4f3e26"
                 d="m 326.437,166.796 c -0.162,-0.956 -0.329,-1.874 -0.792,-2.023 -0.09,-0.326 -1.337,1.26 -1.747,1.968 -0.525,0.905 -1.123,1.631 -1.77,2.466 -1.321,1.705 -2.513,3.512 -3.783,5.244 -2.029,2.768 -3.409,6.131 -4.567,9.324 -0.244,0.673 -0.736,1.603 -0.708,2.309 0.026,0.67 0.579,1.675 0.829,2.311 1.349,0.322 4.121,-3.138 4.681,-4.16 0.693,-1.267 1.144,-2.605 1.668,-3.939 1.318,-3.361 2.832,-6.549 6.189,-13.5 z"
                 id="path41" />
            </g>
          </g>
          <g
             id="g45">
            <path
               style="fill:#443421"
               d="m 314.288,188.415 c -0.844,-1.29 -0.284,-4.132 -1.097,-4.546 -1.177,-0.6 -6.693,0.317 -8.427,0.723 -2.989,0.7 -4.188,0.762 -7.241,1.238 -1.363,0.212 -2.748,0.414 -4.122,0.588 -0.786,0.099 -1.973,-0.018 -2.573,0.513 -0.747,0.661 -0.869,2.348 -0.983,3.227 -0.081,0.627 -0.086,0.832 0.594,1.118 0.639,0.269 1.489,0.156 2.158,0.177 1.898,0.061 21.753,-2.552 21.691,-3.038 z"
               id="path44" />
          </g>
          <g
             id="g46">
            <path
               style="fill:#4f3e26"
               d="m 290.604,188.011 c 0.176,-1.46 0.676,-0.785 -0.085,-2.088 -1.147,-1.963 -8.896,-13.395 -11.425,-16.259 -1.018,-1.153 -1.537,-2.036 -3.03,-0.915 -0.386,0.29 -1.586,0.944 -1.805,1.348 -0.326,0.601 0.145,1.15 0.415,1.726 1.607,3.432 3.334,7.15 5.642,10.225 1.697,2.261 6.601,8.406 7.646,8.96 1.537,0.813 2.381,0.623 2.642,-2.997 z"
               id="path45" />
          </g>
          <g
             id="g49">
            <g
               id="g47">
              <path
                 style="fill:#382a1b"
                 d="m 274.41,170.424 c 0.496,-1.121 4.529,-1.997 3.661,-3.443 -0.638,-1.063 -1.373,-2.132 -2.084,-3.149 -0.693,-0.992 -1.212,-1.956 -1.786,-3.023 -0.256,-0.476 -0.557,-1.146 -0.929,-1.538 -0.687,-0.725 -0.902,-0.354 -1.756,-0.535 -1.711,-0.365 -2.21,-2.509 -3.98,-2.995 -1.543,-0.423 -1.269,1.597 -1.294,2.698 -0.061,2.806 -0.888,6.065 2.442,7.27 2.459,0.888 4.638,5.703 5.726,4.715 z"
                 id="path46" />
            </g>
          </g>
          <g
             id="g53" />
        </g>
        <g
           id="g68">
          <g
             id="g55">
            <path
               style="fill:#332919"
               d="m 331.155,223.449 c 1.28,-0.702 3.396,-0.467 4.819,-0.374 1.58,0.103 3.636,0.207 5.065,0.91 1.849,0.91 -1.286,0.913 -2.129,0.867 -1.646,-0.089 -3.19,0.211 -4.82,0.33 -1.283,0.093 -2.552,0.368 -3.837,0.529 -0.073,-0.31 -0.322,-0.93 -0.254,-1.244 0.139,-0.638 0.461,-0.472 1.156,-1.018 z"
               id="path54" />
          </g>
          <g
             id="g58">
            <g
               id="g56">
              <path
                 style="fill:#4f3e26"
                 d="m 331.32,223.228 c 0.251,0.322 -0.214,1.867 -0.582,2.303 -0.334,0.396 -2.203,0.644 -2.747,0.791 -1.869,0.505 -3.798,0.86 -5.684,1.313 -3.578,0.858 -7.235,1.53 -10.636,2.899 -1.839,0.74 -3.777,1.534 -5.84,1.595 -1.567,0.046 -2.216,-0.233 -1.772,-1.633 0.355,-1.118 1.009,-3.299 2.136,-3.962 1.142,-0.671 3.382,-0.575 4.677,-0.911 2.535,-0.657 4.894,-0.76 7.492,-0.894 1.13,-0.059 7.971,-0.71 12.956,-1.501 z"
                 id="path55" />
            </g>
          </g>
          <g
             id="g59">
            <path
               style="fill:#443421"
               d="m 304.993,228.609 c 0.392,-1.191 1.238,-1.982 -0.089,-2.591 -4.002,-1.838 -15.744,-8.574 -17.611,-9.437 -1.545,-0.715 -3.151,-1.925 -4.968,-1.737 -0.927,0.096 -3.629,0.936 -3.939,1.734 -0.681,1.751 2.729,3.831 3.914,4.469 3.139,1.692 13.568,7.901 15.937,9.086 1.157,0.578 3.551,1.686 4.922,1.872 0.843,0.115 0.658,0.179 1.834,-3.396 z"
               id="path58" />
          </g>
          <g
             id="g60">
            <path
               style="fill:#4f3e26"
               d="m 283.486,214.939 c -0.578,-7.917 -1.049,-13.916 -2.211,-23.655 -0.192,-1.606 -0.419,-2.166 -2.322,-1.935 -1.777,0.216 -2.533,0.271 -2.709,1.806 -0.554,4.843 0.531,10.813 1.128,15.649 0.314,2.539 0.618,7.276 0.817,9.796 0.124,1.576 0.476,0.306 5.297,-1.661 z"
               id="path59" />
          </g>
          <g
             id="g63">
            <g
               id="g61">
              <path
                 style="fill:#382a1b"
                 d="m 280.671,189.833 c 1.13,-0.68 -1.781,-4.755 -2.568,-6.229 -0.798,-1.495 -4.401,-7.323 -5.123,-8.608 -0.883,-1.569 -2.403,-2.548 -4.094,-3.268 -1.381,-0.588 -3.03,-1.528 -2.888,0.511 0.102,1.465 0.551,2.902 0.644,4.364 0.079,1.24 0.028,2.419 0.906,3.461 0.632,0.75 1.314,1.196 1.915,1.99 1.021,1.348 2.109,1.889 2.858,3.389 0.696,1.394 2.276,4.395 3.284,5.627 1.084,1.328 2.178,0.502 5.066,-1.237 z"
                 id="path60" />
            </g>
          </g>
          <g
             id="g67">
            <g
               id="g66" />
          </g>
        </g>
        <g
           id="g80">
          <g
             id="g69">
            <path
               style="fill:#332919"
               d="m 301.41,137.341 c 1.15,-0.558 8.436,-3.002 8.773,-1.655 -1.049,1.146 -3.163,1.55 -4.596,2.074 -1.188,0.435 -2.396,0.902 -3.553,1.413 -0.311,-0.331 -0.5,-0.792 -0.624,-1.832 z"
               id="path68" />
          </g>
          <g
             id="g72">
            <g
               id="g70">
              <path
                 style="fill:#443421"
                 d="m 291.926,154.195 c -0.5,-0.061 -1.334,-2.839 -1.2,-3.466 0.242,-1.139 1.414,-1.674 2.045,-2.646 0.367,-0.565 0.766,-1.059 1.067,-1.66 0.267,-0.532 0.417,-1.441 0.855,-1.861 0.557,-0.535 0.838,-0.372 1.341,-1.086 0.396,-0.562 0.735,-1.128 1.167,-1.685 0.893,-1.151 1.971,-2.16 2.898,-3.296 0.565,-0.692 1.588,-2.014 2.227,-0.572 0.468,1.055 -0.578,2.872 -1.06,3.84 -0.952,1.912 -2.247,3.677 -3.38,5.499 -1.048,1.685 -2.248,3.358 -3.384,4.979 -0.379,0.54 -1.639,3.422 -2.576,1.954 z"
                 id="path69" />
            </g>
            <g
               id="g71" />
          </g>
          <g
             id="g73">
            <path
               style="fill:#4f3e26"
               d="m 278.504,146.23 c 2.688,0.36 4.985,1.331 7.595,1.902 1.743,0.382 5.544,1.099 5.87,2.012 0.361,1.008 0.504,2.083 0.407,4.277 -0.028,0.641 -14.287,-4.163 -15.762,-4.702 -2.156,-0.787 -1.225,-0.996 1.89,-3.489 z"
               id="path72" />
          </g>
          <g
             id="g76">
            <g
               id="g74">
              <path
                 style="fill:#382a1b"
                 d="m 263.333,136.635 c 0.861,-0.573 1.518,-1.096 2.597,-1.35 1.705,-0.402 2.43,-0.238 3.209,1.097 0.677,1.16 1.311,1.526 2.402,2.362 1.12,0.858 1.93,2.069 2.945,3.032 1.194,1.134 3.55,3.27 4.123,4.837 0.191,0.523 -1.388,2.789 -2.013,2.792 -1.651,0.009 -3.983,-2.961 -4.887,-3.958 -1.268,-1.398 -2.729,-2.565 -4.029,-3.941 -0.767,-0.812 -0.75,-1.302 -1.99,-1.365 -0.381,-0.019 -1.21,0.227 -1.56,0.071 -0.82,-0.363 -1.223,-1.905 -0.797,-3.577 z"
                 id="path73" />
            </g>
          </g>
        </g>
        <g
           id="g92">
          <g
             id="g86">
            <g
               id="g83">
              <g
                 id="g81">
                <path
                   style="fill:#382a1b"
                   d="m 292.823,100.608 c -1.1031,-1.336906 -1.31457,-3.246554 -2.61643,-4.436592 -1.53532,-1.042859 -3.74677,-0.325485 -5.10449,-1.736439 -1.07209,-1.002776 -1.2939,-2.603245 -2.3419,-3.607704 -1.00698,-0.718616 -2.57976,0.302014 -3.37025,-0.844447 -0.13561,-1.184798 -0.85758,-2.084084 -1.74267,-2.839391 -0.57612,-0.460069 -1.66188,-1.81572 -1.9167,-1.696455 0.68283,3.784273 2.46026,7.326688 4.93402,10.257081 1.50973,2.040439 3.04208,4.148209 5.21624,5.534787 2.18418,1.5028 4.40859,2.97488 6.79605,4.13662 1.45295,0.49109 2.94026,1.00111 4.48076,1.09169 1.08833,-0.35472 -0.15154,-1.66762 -0.53985,-2.22895 -1.11767,-1.34759 -2.3677,-2.60995 -3.79478,-3.6302 z"
                   id="path80" />
              </g>
              <g
                 id="g82">
                <path
                   style="fill:#4f3e26"
                   d="m 299.611,110.815 c 0.38303,-0.82275 0.67956,-2.55561 0.21348,-2.99154 -1.94635,0.46739 -3.69269,-0.96325 -5.16217,-2.0433 -1.4569,-1.08176 -2.94688,-2.51027 -2.95793,-4.46229 -0.13538,-2.952864 0.23958,-6.301896 -1.74484,-8.760885 -0.84208,-1.212014 -2.80726,-1.253919 -3.24454,-2.785985 0.29522,-1.245998 0.42232,-3.056702 -1.4198,-2.971079 -1.55164,-0.07672 -2.29969,-1.325873 -2.8641,-2.555437 -1.52075,-0.702972 -2.52237,-2.056161 -3.61013,-3.267575 -0.3826,-0.789437 -2.36974,-1.23711 -2.13737,-1.46996 3.54937,-0.612151 7.09502,0.542545 10.48207,1.487613 3.5385,1.046844 6.78682,2.898527 9.59411,5.280238 3.46811,2.777958 6.62985,6.554846 6.97927,11.163284 0.28201,3.029736 0.11811,6.081866 -0.22997,9.096346 -0.0326,1.48625 0.10862,3.5771 -1.55993,4.24671 -0.74996,0.27078 -1.57269,0.18565 -2.33815,0.0339 z"
                   id="path81" />
              </g>
            </g>
            <g
               id="g84">
              <path
                 style="fill:#443421"
                 d="m 303.733,108.088 c -0.506,-0.315 -3.012,0.296 -3.607,0.359 -0.558,0.059 -1.607,0.147 -2.079,0.51 -1.18,0.906 -0.966,3.078 -1.519,4.288 -0.445,0.974 -0.939,1.998 -1.585,2.872 -0.759,1.027 -1.697,1.887 -2.32,3.003 -1.05,1.88 -2.14,4.192 -2.3,6.313 -0.286,3.773 -1.376,7.521 0.033,11.205 2.19,5.725 9.613,-4.59 10.664,-6.558 0.923,-1.73 2.062,-3.671 2.736,-5.492 0.573,-1.547 0.943,-3.193 1.389,-4.778 0.846,-3.008 0.124,-11.749 -1.412,-11.722 z"
                 id="path83" />
            </g>
            <g
               id="g85">
              <path
                 style="fill:#4f3e26"
                 d="m 289.134,130.739 c 1.316,0.476 2.881,7.561 2.547,8.077 -0.595,0.919 -1.718,0.381 -2.624,0.125 -2.274,-0.643 -10.499,-4.437 -12.426,-5.39 -1.838,-0.909 -3.662,-1.931 -5.371,-3.035 -1.303,-0.842 -2.554,-1.753 -3.911,-2.526 -1.204,-0.686 -1.948,-1.293 -1.554,-2.662 0.328,-1.139 0.901,-3.329 2.428,-3.42 1.06,-0.063 2.643,0.325 3.635,0.638 4.607,1.452 9.057,4.502 17.276,8.193 z"
                 id="path84" />
            </g>
          </g>
          <g
             id="g87">
            <path
               style="fill:#382a1b"
               d="m 257.145,129.518 c 1.843,-0.155 1.928,-3.284 2.239,-4.504 0.516,-2.024 2.123,-3.555 4.428,-3.783 2.102,-0.208 3.989,-0.027 4.069,2.209 0.079,2.243 -0.284,4.771 -2.248,6.212 -2.5,1.836 -5.028,2.323 -8.488,-0.134 z"
               id="path86" />
          </g>
        </g>
        <g
           id="g193">
          <g
             id="g123">
            <g
               id="g110">
              <path
                 style="fill:#332919"
                 d="m 188.621,147.705 c -1.764,-1.444 -8.265,-5.483 -6.496,-5.938 2.722,0.831 6.656,3.592 8.969,5.423 -0.655,0.653 -0.835,0.443 -2.473,0.515 z"
                 id="path109" />
            </g>
            <g
               id="g113">
              <g
                 id="g111">
                <path
                   style="fill:#4f3e26"
                   d="m 191.079,147.001 c -1.566,0.118 -2.427,0.463 -2.402,0.747 0.094,1.101 0.121,3.351 0.273,4.461 0.379,2.771 1.206,13.042 1.717,15.306 0.141,0.622 0.817,1.16 1.598,0.938 0.66,-0.187 0.957,-1.211 1.135,-1.729 0.45,-1.314 0.411,-1.965 0.825,-3.281 0.433,-1.377 0.447,-4.006 -0.553,-5.295 -0.554,-0.712 -2.206,-10.222 -2.593,-11.147 z"
                   id="path110" />
              </g>
            </g>
            <g
               id="g114">
              <path
                 style="fill:#443421"
                 d="m 191.792,168.672 c 1.075,-1.815 1.588,-3.07 2.319,-2.933 2.077,0.39 11.288,1.437 12.785,1.73 1.702,0.333 3.3,0.437 4.99,0.686 1.741,0.256 2.411,2.804 2.319,4.308 -5.914,0.528 -22.545,-2.924 -22.413,-3.791 z"
                 id="path113" />
            </g>
            <g
               id="g115">
              <path
                 style="fill:#4f3e26"
                 d="m 212.32,168.409 c 1.397,-3.536 10.924,-15.175 12.185,-14.992 0.733,0.107 2.368,1.418 2.432,2.014 0.087,0.817 -9.75,13.813 -10.734,15.169 -0.408,0.562 -0.63,1.131 -1.307,1.506 -1.216,0.671 -1.2,-0.217 -2.576,-3.697 z"
                 id="path114" />
            </g>
            <g
               id="g118">
              <g
                 id="g116">
                <path
                   style="fill:#382a1b"
                   d="m 224.002,153.549 c 0.406,-1.268 2.12,-3.251 3.343,-4.671 1.216,-1.412 4.716,-2.066 6.605,-1.582 1.751,0.448 1.234,2.436 0.747,3.947 -0.244,0.757 -2.89,1.033 -4.168,1.734 -0.855,0.468 -2.993,2.503 -3.168,2.613 -0.616,0.388 -1.188,-0.675 -3.359,-2.041 z"
                   id="path115" />
              </g>
            </g>
          </g>
          <g
             id="g137">
            <g
               id="g124">
              <path
                 style="fill:#332919"
                 d="m 174.06,165.522 c -0.962,-0.678 -2.703,-1.006 -3.891,-1.383 -1.408,-0.447 -2.594,-0.785 -4.102,-0.788 -0.56,1.526 7.341,3.993 8.622,4.476 0.273,-0.56 0.255,-1.19 -0.629,-2.305 z"
                 id="path123" />
            </g>
            <g
               id="g127">
              <g
                 id="g125">
                <path
                   style="fill:#4f3e26"
                   d="m 173.562,167.69 c 0.162,-0.956 0.329,-1.874 0.792,-2.023 0.09,-0.326 1.337,1.26 1.747,1.968 0.525,0.905 1.123,1.631 1.77,2.466 1.321,1.705 2.513,3.512 3.783,5.244 2.029,2.768 3.409,6.131 4.568,9.324 0.244,0.673 0.736,1.603 0.708,2.309 -0.026,0.67 -0.579,1.675 -0.829,2.311 -1.349,0.322 -4.121,-3.138 -4.681,-4.16 -0.693,-1.267 -1.144,-2.605 -1.668,-3.939 -1.32,-3.361 -2.834,-6.549 -6.19,-13.5 z"
                   id="path124" />
              </g>
            </g>
            <g
               id="g128">
              <path
                 style="fill:#443421"
                 d="m 185.71,189.31 c 0.844,-1.29 0.284,-4.132 1.097,-4.546 1.178,-0.6 6.693,0.317 8.427,0.723 2.989,0.7 4.188,0.762 7.241,1.238 1.363,0.212 2.749,0.414 4.122,0.588 0.785,0.099 1.973,-0.018 2.573,0.513 0.746,0.661 0.869,2.348 0.982,3.227 0.081,0.627 0.086,0.832 -0.594,1.117 -0.639,0.269 -1.489,0.156 -2.158,0.177 -1.897,0.061 -21.752,-2.552 -21.69,-3.037 z"
                 id="path127" />
            </g>
            <g
               id="g129">
              <path
                 style="fill:#4f3e26"
                 d="m 209.394,188.905 c -0.176,-1.46 -0.676,-0.785 0.085,-2.088 1.147,-1.963 8.896,-13.395 11.425,-16.259 1.018,-1.153 1.537,-2.036 3.03,-0.915 0.386,0.29 1.586,0.944 1.805,1.348 0.326,0.601 -0.146,1.15 -0.415,1.725 -1.607,3.432 -3.334,7.15 -5.642,10.225 -1.697,2.261 -6.601,8.406 -7.646,8.96 -1.537,0.814 -2.381,0.624 -2.642,-2.996 z"
                 id="path128" />
            </g>
            <g
               id="g132">
              <g
                 id="g130">
                <path
                   style="fill:#382a1b"
                   d="m 225.588,171.318 c -0.496,-1.12 -4.529,-1.997 -3.661,-3.443 0.638,-1.063 1.373,-2.132 2.084,-3.149 0.693,-0.992 1.212,-1.956 1.786,-3.024 0.256,-0.476 0.557,-1.146 0.929,-1.538 0.687,-0.725 0.902,-0.354 1.756,-0.535 1.711,-0.365 2.209,-2.509 3.98,-2.995 1.543,-0.423 1.269,1.597 1.294,2.698 0.061,2.806 0.888,6.065 -2.442,7.27 -2.458,0.889 -4.638,5.705 -5.726,4.716 z"
                   id="path129" />
              </g>
            </g>
            <g
               id="g136">
              <g
                 id="g135" />
            </g>
          </g>
          <g
             id="g151">
            <g
               id="g138">
              <path
                 style="fill:#332919"
                 d="m 168.843,224.343 c -1.28,-0.702 -3.396,-0.467 -4.819,-0.374 -1.58,0.103 -3.636,0.207 -5.064,0.91 -1.849,0.91 1.286,0.913 2.129,0.867 1.646,-0.089 3.19,0.211 4.82,0.33 1.283,0.093 2.552,0.368 3.837,0.529 0.073,-0.31 0.322,-0.93 0.254,-1.244 -0.14,-0.638 -0.462,-0.472 -1.157,-1.018 z"
                 id="path137" />
            </g>
            <g
               id="g141">
              <g
                 id="g139">
                <path
                   style="fill:#4f3e26"
                   d="m 168.678,224.122 c -0.251,0.322 0.214,1.867 0.582,2.303 0.334,0.396 2.203,0.644 2.747,0.791 1.869,0.505 3.798,0.86 5.684,1.313 3.578,0.858 7.235,1.53 10.636,2.899 1.839,0.74 3.777,1.534 5.84,1.595 1.567,0.046 2.216,-0.233 1.772,-1.633 -0.355,-1.118 -1.009,-3.299 -2.136,-3.962 -1.142,-0.671 -3.382,-0.575 -4.677,-0.911 -2.535,-0.657 -4.894,-0.76 -7.492,-0.894 -1.13,-0.059 -7.971,-0.71 -12.956,-1.501 z"
                   id="path138" />
              </g>
            </g>
            <g
               id="g142">
              <path
                 style="fill:#443421"
                 d="m 195.005,229.503 c -0.392,-1.191 -1.238,-1.981 0.089,-2.591 4.002,-1.838 15.744,-8.574 17.611,-9.437 1.545,-0.715 3.151,-1.925 4.968,-1.736 0.927,0.096 3.629,0.936 3.939,1.734 0.681,1.751 -2.729,3.831 -3.914,4.469 -3.139,1.692 -13.568,7.901 -15.937,9.086 -1.157,0.579 -3.551,1.686 -4.922,1.872 -0.843,0.114 -0.658,0.179 -1.834,-3.397 z"
                 id="path141" />
            </g>
            <g
               id="g143">
              <path
                 style="fill:#4f3e26"
                 d="m 216.512,215.833 c 0.578,-7.917 1.049,-13.916 2.211,-23.655 0.192,-1.606 0.419,-2.166 2.322,-1.935 1.777,0.216 2.533,0.271 2.709,1.806 0.554,4.843 -0.531,10.813 -1.128,15.649 -0.314,2.539 -0.618,7.276 -0.817,9.796 -0.124,1.576 -0.476,0.306 -5.297,-1.661 z"
                 id="path142" />
            </g>
            <g
               id="g146">
              <g
                 id="g144">
                <path
                   style="fill:#382a1b"
                   d="m 219.328,190.727 c -0.67405,-0.90587 0.23472,-1.97061 0.5787,-2.8315 1.14299,-2.01696 2.34807,-3.9982 3.51233,-6.00289 1.35781,-2.24278 2.68128,-4.50961 4.0811,-6.72496 1.38317,-1.7355 3.52969,-2.60316 5.56759,-3.30129 1.30943,0.0586 0.9628,1.70942 0.76104,2.56995 -0.27899,1.49713 -0.53498,3.00354 -0.5619,4.52931 -0.11919,1.15767 -0.79129,2.19169 -1.70809,2.88552 -1.00343,0.98488 -1.82619,2.14082 -2.8894,3.06754 -1.18156,1.33681 -1.72016,3.08174 -2.67852,4.56591 -0.5983,1.0249 -1.16251,2.11862 -2.05929,2.91669 -1.0511,0.59908 -2.15906,-0.25933 -3.07045,-0.74944 -0.51421,-0.30299 -1.02115,-0.61808 -1.53311,-0.92484 z"
                   id="path143" />
              </g>
            </g>
            <g
               id="g150" />
          </g>
          <g
             id="g163">
            <g
               id="g152">
              <path
                 style="fill:#332919"
                 d="m 198.588,138.235 c -1.149,-0.558 -8.436,-3.002 -8.773,-1.655 1.049,1.146 3.163,1.55 4.596,2.074 1.188,0.435 2.396,0.902 3.553,1.413 0.311,-0.331 0.5,-0.792 0.624,-1.832 z"
                 id="path151" />
            </g>
            <g
               id="g155">
              <g
                 id="g153">
                <path
                   style="fill:#443421"
                   d="m 208.072,155.089 c 0.5,-0.061 1.334,-2.839 1.2,-3.466 -0.243,-1.139 -1.414,-1.675 -2.045,-2.646 -0.367,-0.565 -0.766,-1.059 -1.067,-1.66 -0.267,-0.532 -0.417,-1.44 -0.855,-1.861 -0.557,-0.535 -0.838,-0.372 -1.341,-1.086 -0.396,-0.562 -0.736,-1.128 -1.167,-1.685 -0.893,-1.151 -1.971,-2.16 -2.898,-3.296 -0.565,-0.692 -1.588,-2.014 -2.227,-0.572 -0.468,1.055 0.578,2.872 1.06,3.84 0.952,1.912 2.247,3.677 3.38,5.499 1.048,1.686 2.248,3.358 3.384,4.979 0.379,0.54 1.639,3.422 2.576,1.954 z"
                   id="path152" />
              </g>
            </g>
            <g
               id="g156">
              <path
                 style="fill:#4f3e26"
                 d="m 221.494,147.124 c -2.688,0.36 -4.985,1.331 -7.595,1.902 -1.743,0.382 -5.544,1.1 -5.871,2.012 -0.36,1.008 -0.503,2.083 -0.407,4.278 0.028,0.641 14.287,-4.164 15.762,-4.702 2.157,-0.788 1.226,-0.997 -1.889,-3.49 z"
                 id="path155" />
            </g>
            <g
               id="g159">
              <g
                 id="g157">
                <path
                   style="fill:#382a1b"
                   d="m 236.665,137.529 c -0.861,-0.573 -1.519,-1.096 -2.597,-1.35 -1.705,-0.402 -2.43,-0.238 -3.209,1.097 -0.677,1.16 -1.311,1.526 -2.402,2.362 -1.12,0.858 -1.93,2.069 -2.945,3.032 -1.194,1.134 -3.55,3.27 -4.123,4.837 -0.191,0.522 1.388,2.788 2.013,2.792 1.651,0.009 3.982,-2.961 4.887,-3.958 1.268,-1.398 2.729,-2.565 4.029,-3.941 0.767,-0.812 0.75,-1.302 1.99,-1.364 0.381,-0.019 1.21,0.227 1.56,0.071 0.82,-0.364 1.223,-1.906 0.797,-3.578 z"
                   id="path156" />
              </g>
            </g>
            <g
               id="g162">
              <g
                 id="g161" />
            </g>
          </g>
          <g
             id="g175">
            <g
               id="g169">
              <g
                 id="g166">
                <g
                   id="g164">
                  <path
                     style="fill:#382a1b"
                     d="m 207.175,101.502 c 1.1031,-1.33691 1.31457,-3.246554 2.61643,-4.436592 1.53532,-1.042859 3.74677,-0.325485 5.10449,-1.736439 1.07209,-1.002776 1.2939,-2.603245 2.3419,-3.607704 1.00703,-0.718478 2.57955,0.3018 3.37025,-0.844447 0.13561,-1.184798 0.85758,-2.084084 1.74267,-2.839391 0.57612,-0.460069 1.66188,-1.81572 1.9167,-1.696455 -0.68262,3.784383 -2.46066,7.326407 -4.93401,10.257081 -1.50975,2.040088 -3.04126,4.148327 -5.21525,5.534787 -2.18418,1.5028 -4.40859,2.97488 -6.79605,4.13662 -1.45295,0.49109 -2.94026,1.00111 -4.48076,1.09169 -1.08878,-0.35437 0.15061,-1.66762 0.53903,-2.22895 1.11755,-1.34764 2.36755,-2.60998 3.7946,-3.6302 z"
                     id="path163" />
                </g>
                <g
                   id="g165">
                  <path
                     style="fill:#4f3e26"
                     d="m 200.387,111.709 c -0.38303,-0.82275 -0.67956,-2.55561 -0.21348,-2.99154 1.94635,0.46739 3.69269,-0.96325 5.16217,-2.0433 1.4569,-1.08176 2.94688,-2.51027 2.95793,-4.46229 0.13544,-2.95283 -0.23884,-6.301703 1.74486,-8.760885 0.84206,-1.212031 2.80725,-1.253917 3.24452,-2.785985 -0.29522,-1.245998 -0.42232,-3.056702 1.4198,-2.971079 1.55164,-0.07672 2.29969,-1.325873 2.8641,-2.555437 1.52075,-0.702972 2.52237,-2.056161 3.61013,-3.267575 0.3826,-0.789437 2.36974,-1.23711 2.13737,-1.46996 -3.54937,-0.612095 -7.09509,0.542412 -10.48207,1.48777 -3.53844,1.047378 -6.78665,2.899427 -9.59411,5.281072 -3.46782,2.777786 -6.62978,6.554137 -6.97927,11.162293 -0.28201,3.029736 -0.11811,6.081866 0.22997,9.096346 0.0326,1.48625 -0.10862,3.5771 1.55993,4.24671 0.74996,0.27078 1.57269,0.18565 2.33815,0.0339 z"
                     id="path164" />
                </g>
              </g>
              <g
                 id="g167">
                <path
                   style="fill:#443421"
                   d="m 196.265,108.982 c 1.41385,-0.27158 2.82489,0.36501 4.24138,0.43032 0.98445,0.0333 1.96476,0.58005 2.20842,1.59076 0.41974,1.34913 0.40771,2.82904 1.18989,4.05759 0.78206,1.90275 2.4232,3.22494 3.47031,4.95333 1.24648,2.21155 2.30792,4.61958 2.38018,7.19682 0.37536,3.49515 1.21833,7.20511 -0.21962,10.57789 -0.40366,1.30611 -1.9735,1.84012 -3.12563,1.15569 -2.41542,-1.23876 -4.15217,-3.42361 -5.79228,-5.52467 -1.61652,-2.11376 -2.79157,-4.52045 -3.95197,-6.90294 -0.91544,-2.11796 -1.44515,-4.38071 -1.98241,-6.61585 -0.37119,-3.05285 -0.2013,-6.18843 0.49584,-9.18364 0.21878,-0.60513 0.35437,-1.57066 1.08589,-1.7353 z"
                   id="path166" />
              </g>
              <g
                 id="g168">
                <path
                   style="fill:#4f3e26"
                   d="m 210.864,131.633 c -1.316,0.476 -2.881,7.561 -2.547,8.077 0.594,0.919 1.718,0.381 2.624,0.125 2.274,-0.643 10.499,-4.437 12.426,-5.39 1.838,-0.909 3.662,-1.931 5.371,-3.035 1.303,-0.842 2.554,-1.753 3.91,-2.525 1.204,-0.686 1.948,-1.293 1.554,-2.662 -0.328,-1.139 -0.901,-3.329 -2.428,-3.42 -1.06,-0.063 -2.643,0.325 -3.635,0.638 -4.606,1.451 -9.056,4.501 -17.275,8.192 z"
                   id="path167" />
              </g>
            </g>
            <g
               id="g170">
              <path
                 style="fill:#382a1b"
                 d="m 242.853,130.413 c -1.843,-0.155 -1.928,-3.284 -2.239,-4.504 -0.516,-2.024 -2.123,-3.555 -4.428,-3.783 -2.102,-0.208 -3.989,-0.027 -4.069,2.209 -0.079,2.243 0.284,4.77 2.248,6.212 2.5,1.835 5.029,2.323 8.488,-0.134 z"
                 id="path169" />
            </g>
          </g>
        </g>
      </g>
      <g
         id="g195" />
      <g
         id="g209">
        <g
           id="g198">
          <g
             id="g196">
            <path
               style="fill:#4f3e26"
               d="m 267.705,161.644 c -1.46662,-4.02655 -0.41704,-8.68421 -1.6327,-13.05989 -0.8825,-5.41345 -1.26481,-10.93142 -2.3028,-16.29924 -0.68188,-4.32796 -4.61237,-6.82224 -8.50938,-7.71758 -3.2107,1.496 -7.83261,1.54264 -11.12012,0.37271 -3.67712,0.2012 -7.85035,3.06597 -8.473,7.069 3.63619,6.61255 1.19348,14.59876 3.75493,21.47605 0.19826,2.73191 6.44553,3.8909 2.11494,4.93308 -3.51043,2.73045 -2.86768,9.3573 1.33713,11.07687 -3.13869,2.28558 -3.23582,7.97111 0.724,9.464 -5.48717,2.41086 -2.7857,9.16766 1.739,10.825 -3.85566,2.52869 -4.97627,7.70162 -2.70123,11.67795 1.52913,1.29519 3.03079,1.00935 0.98794,2.6445 -2.2925,4.01184 -2.82604,9.76557 0.15726,13.5601 4.40924,1.38039 -0.32293,6.37155 1.26631,9.96694 -0.1669,3.34481 3.66868,9.18918 2.26775,10.4457 -2.55564,-0.92182 -3.19612,-0.33792 -0.5924,0.98863 4.58171,2.65842 10.74391,0.87123 13.61637,-3.46682 3.10472,-2.97761 6.50982,-6.12674 7.889,-10.304 1.68522,-12.94571 0.8334,-26.03303 0.70014,-39.04298 -0.30628,-8.20137 -0.29137,-16.45292 -1.22314,-24.61002 z"
               id="path195" />
          </g>
          <g
             id="g197">
            <path
               style="fill:#443421"
               d="m 246.107,218.877 c -5.994,-0.919 -5.203,-13.589 -1.11,-16.165 -3.026,-0.482 -3.227,-2.846 -3.416,-5.415 -0.316,-4.306 1.101,-4.769 3.756,-7.511 -1.704,-1.958 -4.039,-1.912 -4.733,-4.817 -0.586,-2.453 0.659,-5.13 2.994,-6.008 -4.199,-1.898 -3.74,-6.962 -0.724,-9.464 -3.487,-1.296 -4.531,-6.392 -2.713,-9.519 0.705,-1.212 1.825,-2.137 3.42,-2.416 -0.205,-0.094 -0.387,-0.199 -0.577,-0.301 -4.742,-2.551 -4.699,-7.584 -4.915,-12.387 -0.128,-2.847 -0.372,-9.695 -2.422,-12.863 -0.377,1.109 -0.668,2.184 -0.657,3.488 0.015,1.728 -1.947,19.92 -1.883,21.914 0.03,0.915 0.11,1.681 0.509,2.186 -0.381,0.679 -0.68,1.545 -0.95,2.662 -0.773,3.202 -0.084,49.821 1.16,57.46 0.425,2.607 0.516,3.553 0.917,6.168 0.301,1.959 4.068,6.539 8.305,10.019 0.475,0.56 0.981,1.109 1.539,1.619 2.081,1.647 5.093,3.465 3.595,0.825 -2.38,-6.9 -4.846,-12.093 -2.095,-19.475 z"
               id="path196" />
          </g>
        </g>
        <g
           id="g208">
          <g
             id="g206">
            <g
               id="g201">
              <path
                 style="fill:#2d2316"
                 d="m 235.359,169.37 c 2.542,-0.38 5.1,-0.611 7.662,-0.781 2.562,-0.181 5.13,-0.237 7.697,-0.255 2.567,0.005 5.133,0.049 7.694,0.19 l 3.841,0.227 c 1.279,0.116 2.558,0.2 3.835,0.35 -1.284,0.077 -2.565,0.089 -3.848,0.14 l -3.843,0.052 -7.677,0.041 -7.672,0.021 c -2.56,0.009 -5.12,0.047 -7.689,0.015 z"
                 id="path200" />
            </g>
            <g
               id="g202">
              <path
                 style="fill:#2d2316"
                 d="m 235.235,178.346 c 2.557,-0.251 5.113,-0.416 7.672,-0.562 2.558,-0.158 5.122,-0.226 7.686,-0.268 2.564,-0.019 5.129,-0.011 7.691,0.092 2.563,0.092 5.124,0.223 7.681,0.469 -1.282,0.096 -2.563,0.121 -3.844,0.193 l -3.841,0.107 c -2.56,0.079 -5.118,0.097 -7.676,0.138 -2.558,0.017 -5.116,0.059 -7.678,0.034 -2.562,-0.014 -5.127,-0.042 -7.691,-0.203 z"
                 id="path201" />
            </g>
            <g
               id="g203">
              <path
                 style="fill:#2d2316"
                 d="m 236.105,190.838 c 2.423,-0.308 4.852,-0.502 7.283,-0.665 2.431,-0.174 4.867,-0.254 7.304,-0.304 2.438,-0.027 4.877,-0.022 7.315,0.103 l 3.652,0.224 c 1.215,0.123 2.43,0.225 3.639,0.4 -1.221,0.051 -2.438,0.047 -3.655,0.09 l -3.647,0.055 -7.288,0.127 c -2.43,0.025 -4.86,0.079 -7.294,0.07 -2.434,0.003 -4.869,0.004 -7.309,-0.1 z"
                 id="path202" />
            </g>
            <g
               id="g204">
              <path
                 style="fill:#2d2316"
                 d="m 236.366,203.614 c 2.483,-0.251 4.961,-0.447 7.441,-0.642 2.479,-0.206 4.965,-0.348 7.459,-0.437 2.493,-0.066 4.997,-0.07 7.491,0.112 1.247,0.093 2.491,0.21 3.731,0.357 1.237,0.184 2.471,0.368 3.692,0.63 -1.249,-0.037 -2.488,-0.123 -3.731,-0.141 -1.24,-0.048 -2.48,-0.077 -3.719,-0.077 -2.478,0 -4.953,0.031 -7.433,0.118 -2.48,0.064 -4.963,0.18 -7.454,0.203 -2.491,0.035 -4.985,0.038 -7.477,-0.123 z"
                 id="path203" />
            </g>
            <g
               id="g205">
              <path
                 style="fill:#2d2316"
                 d="m 237.912,219.086 c 2.379,-0.245 4.748,-0.445 7.123,-0.652 2.375,-0.21 4.768,-0.341 7.154,-0.354 2.386,0.057 4.772,0.116 7.156,0.253 l 3.575,0.208 c 1.191,0.106 2.381,0.178 3.57,0.314 -1.194,0.09 -2.385,0.116 -3.576,0.176 l -3.571,0.071 c -2.38,0.045 -4.758,0.012 -7.137,-0.023 -2.378,-0.012 -4.748,0.092 -7.132,0.119 l -3.58,0.029 c -1.195,-0.035 -2.389,-0.05 -3.582,-0.141 z"
                 id="path204" />
            </g>
          </g>
          <g
             id="g207">
            <path
               style="fill:#2d2316"
               d="m 236.071,157.87 c 1.177,-0.245 2.363,-0.424 3.548,-0.626 1.189,-0.167 2.38,-0.315 3.575,-0.449 2.389,-0.267 4.794,-0.389 7.202,-0.42 2.407,-0.01 4.82,0.089 7.213,0.382 1.197,0.137 2.388,0.325 3.571,0.543 1.18,0.243 2.351,0.521 3.503,0.865 -1.198,-0.122 -2.378,-0.302 -3.572,-0.38 -1.187,-0.118 -2.375,-0.219 -3.566,-0.262 -2.379,-0.109 -4.759,-0.181 -7.141,-0.149 -2.383,0.006 -4.765,0.1 -7.152,0.184 -2.389,0.092 -4.778,0.249 -7.181,0.312 z"
               id="path206" />
          </g>
        </g>
      </g>
    </g>
  </g>
</svg>
