<?xml version="1.0" encoding="UTF-8" standalone="no"?>
<!-- Created with Inkscape (http://www.inkscape.org/) -->

<svg
   width="37.799999mm"
   height="45.299999mm"
   viewBox="0 0 37.799998 45.299999"
   version="1.1"
   id="svg1"
   inkscape:version="1.4.3 (0d15f75, 2025-12-25)"
   sodipodi:docname="scorpion.svg"
   xmlns:inkscape="http://www.inkscape.org/namespaces/inkscape"
   xmlns:sodipodi="http://sodipodi.sourceforge.net/DTD/sodipodi-0.dtd"
   xmlns="http://www.w3.org/2000/svg"
   xmlns:svg="http://www.w3.org/2000/svg">
  <sodipodi:namedview
     id="namedview1"
     pagecolor="#ffffff"
     bordercolor="#000000"
     borderopacity="0.25"
     inkscape:showpageshadow="2"
     inkscape:pageopacity="0.0"
     inkscape:pagecheckerboard="0"
     inkscape:deskcolor="#d1d1d1"
     inkscape:document-units="mm"
     inkscape:zoom="4.1071317"
     inkscape:cx="79.130649"
     inkscape:cy="50.521876"
     inkscape:window-width="1920"
     inkscape:window-height="1017"
     inkscape:window-x="-8"
     inkscape:window-y="-8"
     inkscape:window-maximized="1"
     inkscape:current-layer="g210" />
  <defs
     id="defs1" />
  <g
     inkscape:label="Layer 1"
     inkscape:groupmode="layer"
     id="layer1">
    <g
       id="g210"
       transform="matrix(-0.20591136,0,0,0.20591136,70.342029,-16.334349)">
      <g
         id="g26">
        <g
           id="g6">
          <path
             style="fill:#4f3e26"
             d="m 203.691,289.484 c -0.059,0.173 -0.066,0.371 -0.003,0.606 0.203,0.752 0.178,1.588 -0.243,2.257 -0.421,0.669 -1.293,1.118 -2.103,0.937 -0.454,-0.101 -0.838,-0.376 -1.193,-0.659 -0.914,-0.728 -1.79,-1.66 -1.83,-2.78 -0.012,-0.346 0.057,-0.694 0.007,-1.038 -0.141,-0.976 -0.828,-1.775 -0.71,-2.836 0.155,-1.401 0.406,-2.773 1.168,-4.01 1.721,-2.793 4.295,-5.043 7.735,-5.762 3.273,-0.684 6.627,-0.451 9.588,-2.197 2.434,-1.435 4.694,-3.235 4.247,-6.117 0.24,1.148 0.717,2.234 0.706,3.445 -0.018,1.835 -0.626,3.486 -1.614,5.062 -1.964,3.136 -4.794,4.835 -7.925,6.868 -1.154,0.749 -2.197,1.536 -3.198,2.454 -0.828,0.76 -1.554,1.608 -2.479,2.273 -0.695,0.5 -1.9,0.758 -2.153,1.497 z"
             id="path6" />
        </g>
        <g
           id="g7">
          <path
             style="fill:#443421"
             d="m 202.289,292.827 c 1.766,-0.84 0.747,-1.975 1.893,-2.547 0.798,-0.398 1.754,-0.399 2.625,-0.468 1.796,-0.143 5.743,-0.573 7.538,-0.536 1.87,0.038 4.217,-1.236 12.196,0.078 1.885,0.311 5.286,1.389 6.353,1.705 0.813,0.241 1.292,0.79 1.8,1.418 0.639,0.791 1.405,2.094 1.406,3.109 0.002,1.935 -2.891,2.613 -4.491,2.934 -4.018,0.805 -9.724,0.642 -13.731,0.128 -3.404,-0.437 -6.422,-0.727 -10.296,-1.799 -2.327,-0.645 -8.648,-2.902 -5.293,-4.022 z"
             id="path7" />
        </g>
        <g
           id="g8">
          <path
             style="fill:#4f3e26"
             d="m 243.439,277.471 c -1.68,-0.008 -1.415,0.233 -2.555,1.362 -1.525,1.51 -2.944,3.816 -3.963,5.655 -0.85,1.534 -3.611,5.868 -3.676,6.372 -0.079,0.613 0.635,0.869 0.986,1.413 0.566,0.877 1.002,1.839 1.502,2.747 0.485,0.881 0.783,2.306 2.066,1.77 1.507,-0.629 1.539,-1.016 2.593,-2.109 1.754,-1.818 3.889,-4.793 5.29,-6.838 0.676,-0.986 1.439,-1.931 1.982,-2.999 0.507,-0.996 0.969,-1.603 1.553,-2.56 0.308,-0.504 0.38,-1.51 0.363,-2.116 -0.042,-1.458 -3.18,-1.997 -6.141,-2.697 z"
             id="path8" />
        </g>
        <g
           id="g9">
          <path
             style="fill:#443421"
             d="m 245.979,262.516 c -0.924,-0.047 -4.586,13.858 -4.004,14.482 1.382,1.48 2.896,3.386 5.25,2.748 1.272,-0.345 2.698,-0.378 3.635,-1.229 0.495,-0.449 1.193,-1.557 1.45,-2.139 0.493,-1.117 0.923,-2.279 1.317,-3.431 0.725,-2.124 1.768,-4.712 1.702,-6.98 -0.014,-0.498 -0.141,-1.473 -0.396,-1.918 -0.211,-0.368 -0.383,-0.421 -0.842,-0.524 -1.473,-0.336 -3.972,-0.542 -8.112,-1.009 z"
             id="path9" />
        </g>
        <g
           id="g10">
          <path
             style="fill:#4f3e26"
             d="m 249.502,248.067 c -0.641,0.11 -2.397,0.232 -2.779,0.644 -0.327,0.353 -0.382,1.204 -0.461,1.642 -0.112,0.624 -0.237,1.245 -0.399,1.864 -0.376,1.445 -0.628,2.853 -0.738,4.337 -0.093,1.254 -0.769,2.817 -0.352,4.044 0.409,1.204 1.562,2.418 2.461,3.328 1.115,1.127 1.705,1.088 3.268,0.924 1.508,-0.158 2.63,-0.271 3.967,-0.97 1.372,-0.717 1.399,-1.64 1.735,-3.003 0.618,-2.499 1.185,-5.027 1.633,-7.561 0.18,-1.02 0.471,-2.152 0.187,-3.185 -0.374,-1.368 -2.354,-1.836 -8.522,-2.064 z"
             id="path10" />
        </g>
        <g
           id="g11">
          <path
             style="fill:#382a1b"
             d="m 246.122,235.719 c -1.092,1.057 -1.299,2.202 -1.142,3.692 0.214,2.038 0.44,4.065 0.621,6.107 0.087,0.987 0.199,2.46 0.853,3.275 0.694,0.866 2.04,1.567 3.015,2.131 1.981,1.145 4.209,-0.044 6.022,-0.891 0.82,-0.383 2.18,-0.628 2.567,-1.469 0.174,-0.376 0.112,-0.98 0.163,-1.39 0.084,-0.677 0.243,-1.374 0.36,-2.055 0.411,-2.398 0.758,-4.711 0.938,-7.144 0.052,-0.709 0.339,-1.574 -0.254,-2.106 -0.458,-0.411 -1.155,-0.548 -1.753,-0.65 -1.754,-0.297 -3.666,-0.288 -11.39,0.5 z"
             id="path11" />
        </g>
        <g
           id="g17">
          <g
             style="opacity:0.1"
             id="g16" />
        </g>
        <g
           id="g25">
          <g
             id="g18">
            <path
               style="fill:#2d2316"
               d="m 198.602,288.559 c 0.799,-0.377 1.632,-0.38 2.429,-0.262 0.787,0.15 1.597,0.432 2.193,1.093 -0.869,0.085 -1.6,0.011 -2.36,-0.108 -0.754,-0.143 -1.489,-0.311 -2.262,-0.723 z"
               id="path17" />
          </g>
          <g
             id="g24">
            <g
               id="g19">
              <path
                 style="fill:#2d2316"
                 d="m 246.638,249.195 c 1.813,0.75 3.584,1.368 5.402,1.375 0.903,0.018 1.799,-0.127 2.676,-0.394 0.878,-0.273 1.726,-0.687 2.592,-1.162 -0.592,0.789 -1.386,1.441 -2.302,1.886 -0.913,0.455 -1.95,0.674 -2.979,0.669 -2.07,-0.036 -4.022,-0.967 -5.389,-2.374 z"
                 id="path18" />
            </g>
            <g
               id="g20">
              <path
                 style="fill:#2d2316"
                 d="m 245.963,262.645 c 0.601,0.575 1.286,0.923 1.999,1.216 0.715,0.277 1.449,0.489 2.196,0.589 0.745,0.113 1.497,0.11 2.245,0.004 0.749,-0.113 1.484,-0.353 2.252,-0.692 -0.505,0.665 -1.242,1.17 -2.063,1.449 -0.822,0.29 -1.718,0.342 -2.576,0.228 -0.856,-0.136 -1.684,-0.426 -2.41,-0.888 -0.716,-0.447 -1.391,-1.093 -1.643,-1.906 z"
                 id="path19" />
            </g>
            <g
               id="g21">
              <path
                 style="fill:#2d2316"
                 d="m 242.328,277.446 c 1.161,0.849 2.234,1.633 3.44,1.957 0.594,0.175 1.211,0.217 1.847,0.159 0.638,-0.064 1.285,-0.246 1.983,-0.454 -0.466,0.553 -1.094,0.984 -1.818,1.216 -0.722,0.243 -1.536,0.245 -2.282,0.041 -1.498,-0.439 -2.635,-1.588 -3.17,-2.919 z"
                 id="path20" />
            </g>
            <g
               id="g22">
              <path
                 style="fill:#2d2316"
                 d="m 233.292,291.156 c 0.566,0.849 0.975,1.582 1.488,2.306 0.482,0.737 1.056,1.462 1.42,2.42 -0.93,-0.404 -1.67,-1.037 -2.247,-1.859 -0.554,-0.826 -0.877,-1.867 -0.661,-2.867 z"
                 id="path21" />
            </g>
            <g
               id="g23">
              <path
                 style="fill:#2d2316"
                 d="m 201.25,293.181 c 0.441,-0.593 0.917,-0.923 1.287,-1.28 0.195,-0.168 0.349,-0.339 0.523,-0.539 0.169,-0.203 0.327,-0.465 0.564,-0.758 0.176,0.327 0.234,0.691 0.154,1.063 -0.072,0.375 -0.298,0.717 -0.565,0.97 -0.562,0.482 -1.244,0.686 -1.963,0.544 z"
                 id="path22" />
            </g>
          </g>
        </g>
      </g>
      <g
         id="g194">
        <g
           id="g40">
          <g
             id="g27">
            <path
               style="fill:#332919"
               d="m 311.377,146.811 c 1.763,-1.444 8.265,-5.483 6.496,-5.938 -2.722,0.831 -6.656,3.592 -8.969,5.423 0.655,0.653 0.835,0.443 2.473,0.515 z"
               id="path26" />
          </g>
          <g
             id="g30">
            <g
               id="g28">
              <path
                 style="fill:#4f3e26"
                 d="m 308.919,146.107 c 1.566,0.118 2.427,0.463 2.402,0.747 -0.094,1.101 -0.121,3.351 -0.273,4.461 -0.379,2.771 -1.206,13.042 -1.717,15.306 -0.141,0.622 -0.817,1.16 -1.598,0.938 -0.66,-0.187 -0.957,-1.211 -1.135,-1.729 -0.45,-1.314 -0.411,-1.965 -0.825,-3.281 -0.433,-1.377 -0.447,-4.006 0.553,-5.295 0.554,-0.712 2.206,-10.222 2.593,-11.147 z"
                 id="path27" />
            </g>
            <g
               id="g29">
              <path
                 style="fill:#2d2316"
                 d="m 309.777,156.555 c -0.257,0.17 -0.448,0.289 -0.656,0.38 -0.204,0.099 -0.411,0.153 -0.623,0.205 -0.434,0.075 -0.866,0.096 -1.432,-0.116 0.301,-0.536 0.765,-0.754 1.237,-0.864 0.242,-0.038 0.491,-0.056 0.748,0.001 0.25,0.05 0.525,0.153 0.726,0.394 z"
                 id="path28" />
            </g>
          </g>
          <g
             id="g31">
            <path
               style="fill:#443421"
               d="m 308.206,167.778 c -1.075,-1.815 -1.588,-3.07 -2.319,-2.933 -2.077,0.39 -11.288,1.437 -12.785,1.73 -1.702,0.333 -3.3,0.437 -4.99,0.686 -1.741,0.256 -2.411,2.804 -2.319,4.308 5.914,0.528 22.545,-2.924 22.413,-3.791 z"
               id="path30" />
          </g>
          <g
             id="g32">
            <path
               style="fill:#4f3e26"
               d="m 287.678,167.515 c -1.397,-3.536 -10.924,-15.175 -12.185,-14.992 -0.733,0.106 -2.368,1.418 -2.432,2.014 -0.087,0.817 9.75,13.813 10.734,15.169 0.408,0.562 0.63,1.131 1.307,1.506 1.217,0.671 1.2,-0.217 2.576,-3.697 z"
               id="path31" />
          </g>
          <g
             id="g35">
            <g
               id="g33">
              <path
                 style="fill:#382a1b"
                 d="m 275.996,152.655 c -0.406,-1.268 -2.12,-3.251 -3.343,-4.671 -1.216,-1.412 -4.716,-2.066 -6.605,-1.583 -1.751,0.448 -1.234,2.437 -0.747,3.947 0.244,0.757 2.89,1.033 4.168,1.734 0.855,0.469 2.993,2.503 3.168,2.614 0.617,0.388 1.188,-0.676 3.359,-2.041 z"
                 id="path32" />
            </g>
            <g
               id="g34">
              <path
                 style="fill:#2d2316"
                 d="m 268.687,146.785 c 0.252,0.665 0.202,1.255 0.11,1.822 -0.123,0.567 -0.293,1.092 -0.715,1.659 -0.371,-0.612 -0.366,-1.257 -0.267,-1.848 0.132,-0.592 0.356,-1.148 0.872,-1.633 z"
                 id="path33" />
            </g>
          </g>
          <g
             id="g39">
            <g
               id="g36">
              <path
                 style="fill:#2d2316"
                 d="m 273.236,154.036 c 0.148,-0.604 0.494,-0.974 0.88,-1.285 0.405,-0.286 0.858,-0.514 1.479,-0.485 -0.165,0.619 -0.499,0.981 -0.88,1.285 -0.399,0.279 -0.84,0.499 -1.479,0.485 z"
                 id="path35" />
            </g>
            <g
               id="g37">
              <path
                 style="fill:#2d2316"
                 d="m 287.536,167.248 c 0.174,0.841 0.047,1.624 -0.234,2.375 -0.311,0.737 -0.733,1.388 -1.418,1.91 -0.029,-0.864 0.23,-1.59 0.489,-2.278 0.287,-0.675 0.576,-1.371 1.163,-2.007 z"
                 id="path36" />
            </g>
            <g
               id="g38">
              <path
                 style="fill:#2d2316"
                 d="m 306.328,164.873 c 0.337,0.126 0.592,0.287 0.829,0.465 0.24,0.175 0.45,0.385 0.649,0.647 0.183,0.273 0.33,0.597 0.367,0.928 0.044,0.328 0.013,0.657 -0.13,0.985 -0.51,-0.507 -0.746,-0.937 -1.053,-1.338 -0.291,-0.423 -0.667,-0.977 -0.662,-1.687 z"
                 id="path37" />
            </g>
          </g>
        </g>
        <g
           id="g54">
          <g
             id="g41">
            <path
               style="fill:#332919"
               d="m 325.938,164.628 c 0.962,-0.678 2.703,-1.006 3.891,-1.383 1.408,-0.447 2.594,-0.785 4.102,-0.788 0.56,1.526 -7.341,3.993 -8.622,4.476 -0.273,-0.56 -0.255,-1.19 0.629,-2.305 z"
               id="path40" />
          </g>
          <g
             id="g44">
            <g
               id="g42">
              <path
                 style="fill:#4f3e26"
                 d="m 326.437,166.796 c -0.162,-0.956 -0.329,-1.874 -0.792,-2.023 -0.09,-0.326 -1.337,1.26 -1.747,1.968 -0.525,0.905 -1.123,1.631 -1.77,2.466 -1.321,1.705 -2.513,3.512 -3.783,5.244 -2.029,2.768 -3.409,6.131 -4.567,9.324 -0.244,0.673 -0.736,1.603 -0.708,2.309 0.026,0.67 0.579,1.675 0.829,2.311 1.349,0.322 4.121,-3.138 4.681,-4.16 0.693,-1.267 1.144,-2.605 1.668,-3.939 1.318,-3.361 2.832,-6.549 6.189,-13.5 z"
                 id="path41" />
            </g>
            <g
               id="g43">
              <path
                 style="fill:#2d2316"
                 d="m 320.887,176.496 c -0.586,0.002 -0.88,0.005 -1.259,-0.052 -0.364,-0.077 -0.76,-0.161 -1.225,-0.526 0.406,-0.424 0.893,-0.529 1.394,-0.459 0.481,0.084 1.034,0.43 1.09,1.037 z"
                 id="path42" />
            </g>
          </g>
          <g
             id="g45">
            <path
               style="fill:#443421"
               d="m 314.288,188.415 c -0.844,-1.29 -0.284,-4.132 -1.097,-4.546 -1.177,-0.6 -6.693,0.317 -8.427,0.723 -2.989,0.7 -4.188,0.762 -7.241,1.238 -1.363,0.212 -2.748,0.414 -4.122,0.588 -0.786,0.099 -1.973,-0.018 -2.573,0.513 -0.747,0.661 -0.869,2.348 -0.983,3.227 -0.081,0.627 -0.086,0.832 0.594,1.118 0.639,0.269 1.489,0.156 2.158,0.177 1.898,0.061 21.753,-2.552 21.691,-3.038 z"
               id="path44" />
          </g>
          <g
             id="g46">
            <path
               style="fill:#4f3e26"
               d="m 290.604,188.011 c 0.176,-1.46 0.676,-0.785 -0.085,-2.088 -1.147,-1.963 -8.896,-13.395 -11.425,-16.259 -1.018,-1.153 -1.537,-2.036 -3.03,-0.915 -0.386,0.29 -1.586,0.944 -1.805,1.348 -0.326,0.601 0.145,1.15 0.415,1.726 1.607,3.432 3.334,7.15 5.642,10.225 1.697,2.261 6.601,8.406 7.646,8.96 1.537,0.813 2.381,0.623 2.642,-2.997 z"
               id="path45" />
          </g>
          <g
             id="g49">
            <g
               id="g47">
              <path
                 style="fill:#382a1b"
                 d="m 274.41,170.424 c 0.496,-1.121 4.529,-1.997 3.661,-3.443 -0.638,-1.063 -1.373,-2.132 -2.084,-3.149 -0.693,-0.992 -1.212,-1.956 -1.786,-3.023 -0.256,-0.476 -0.557,-1.146 -0.929,-1.538 -0.687,-0.725 -0.902,-0.354 -1.756,-0.535 -1.711,-0.365 -2.21,-2.509 -3.98,-2.995 -1.543,-0.423 -1.269,1.597 -1.294,2.698 -0.061,2.806 -0.888,6.065 2.442,7.27 2.459,0.888 4.638,5.703 5.726,4.715 z"
                 id="path46" />
            </g>
            <g
               id="g48">
              <path
                 style="fill:#2d2316"
                 d="m 270.375,159.445 c 0.383,0.829 0.305,1.714 0.15,2.508 -0.189,0.803 -0.467,1.539 -0.98,2.273 -0.268,-0.869 -0.15,-1.706 0.004,-2.485 0.184,-0.787 0.418,-1.503 0.826,-2.296 z"
                 id="path47" />
            </g>
          </g>
          <g
             id="g53">
            <g
               id="g50">
              <path
                 style="fill:#2d2316"
                 d="m 274.371,170.552 c 0,-0.842 0.597,-1.553 1.252,-1.961 0.681,-0.402 1.387,-0.597 2.207,-0.569 -0.478,0.686 -1.121,1.053 -1.68,1.418 -0.585,0.348 -1.08,0.671 -1.779,1.112 z"
                 id="path49" />
            </g>
            <g
               id="g51">
              <path
                 style="fill:#2d2316"
                 d="m 313.556,184.491 c 0.29,0.254 0.443,0.562 0.573,0.858 0.133,0.299 0.206,0.607 0.267,0.916 0.09,0.626 0.099,1.253 -0.169,1.943 -0.512,-0.546 -0.698,-1.163 -0.817,-1.779 -0.094,-0.626 -0.084,-1.249 0.146,-1.938 z"
                 id="path50" />
            </g>
            <g
               id="g52">
              <path
                 style="fill:#2d2316"
                 d="m 290.995,187.073 c 0.281,0.72 0.354,1.35 0.293,2.062 -0.083,0.694 -0.391,1.458 -1.067,1.862 -0.033,-0.78 0.015,-1.337 0.074,-1.977 0.087,-0.624 0.199,-1.34 0.7,-1.947 z"
                 id="path51" />
            </g>
          </g>
        </g>
        <g
           id="g68">
          <g
             id="g55">
            <path
               style="fill:#332919"
               d="m 331.155,223.449 c 1.28,-0.702 3.396,-0.467 4.819,-0.374 1.58,0.103 3.636,0.207 5.065,0.91 1.849,0.91 -1.286,0.913 -2.129,0.867 -1.646,-0.089 -3.19,0.211 -4.82,0.33 -1.283,0.093 -2.552,0.368 -3.837,0.529 -0.073,-0.31 -0.322,-0.93 -0.254,-1.244 0.139,-0.638 0.461,-0.472 1.156,-1.018 z"
               id="path54" />
          </g>
          <g
             id="g58">
            <g
               id="g56">
              <path
                 style="fill:#4f3e26"
                 d="m 331.32,223.228 c 0.251,0.322 -0.214,1.867 -0.582,2.303 -0.334,0.396 -2.203,0.644 -2.747,0.791 -1.869,0.505 -3.798,0.86 -5.684,1.313 -3.578,0.858 -7.235,1.53 -10.636,2.899 -1.839,0.74 -3.777,1.534 -5.84,1.595 -1.567,0.046 -2.216,-0.233 -1.772,-1.633 0.355,-1.118 1.009,-3.299 2.136,-3.962 1.142,-0.671 3.382,-0.575 4.677,-0.911 2.535,-0.657 4.894,-0.76 7.492,-0.894 1.13,-0.059 7.971,-0.71 12.956,-1.501 z"
                 id="path55" />
            </g>
            <g
               id="g57">
              <path
                 style="fill:#2d2316"
                 d="m 317.647,227.838 c -0.501,-0.269 -0.713,-0.61 -0.876,-0.965 -0.137,-0.37 -0.212,-0.735 -0.083,-1.287 0.555,0.146 0.834,0.521 1.008,0.908 0.146,0.402 0.201,0.835 -0.049,1.344 z"
                 id="path56" />
            </g>
          </g>
          <g
             id="g59">
            <path
               style="fill:#443421"
               d="m 304.993,228.609 c 0.392,-1.191 1.238,-1.982 -0.089,-2.591 -4.002,-1.838 -15.744,-8.574 -17.611,-9.437 -1.545,-0.715 -3.151,-1.925 -4.968,-1.737 -0.927,0.096 -3.629,0.936 -3.939,1.734 -0.681,1.751 2.729,3.831 3.914,4.469 3.139,1.692 13.568,7.901 15.937,9.086 1.157,0.578 3.551,1.686 4.922,1.872 0.843,0.115 0.658,0.179 1.834,-3.396 z"
               id="path58" />
          </g>
          <g
             id="g60">
            <path
               style="fill:#4f3e26"
               d="m 283.486,214.939 c -0.578,-7.917 -1.049,-13.916 -2.211,-23.655 -0.192,-1.606 -0.419,-2.166 -2.322,-1.935 -1.777,0.216 -2.533,0.271 -2.709,1.806 -0.554,4.843 0.531,10.813 1.128,15.649 0.314,2.539 0.618,7.276 0.817,9.796 0.124,1.576 0.476,0.306 5.297,-1.661 z"
               id="path59" />
          </g>
          <g
             id="g63">
            <g
               id="g61">
              <path
                 style="fill:#382a1b"
                 d="m 280.671,189.833 c 1.13,-0.68 -1.781,-4.755 -2.568,-6.229 -0.798,-1.495 -4.401,-7.323 -5.123,-8.608 -0.883,-1.569 -2.403,-2.548 -4.094,-3.268 -1.381,-0.588 -3.03,-1.528 -2.888,0.511 0.102,1.465 0.551,2.902 0.644,4.364 0.079,1.24 0.028,2.419 0.906,3.461 0.632,0.75 1.314,1.196 1.915,1.99 1.021,1.348 2.109,1.889 2.858,3.389 0.696,1.394 2.276,4.395 3.284,5.627 1.084,1.328 2.178,0.502 5.066,-1.237 z"
                 id="path60" />
            </g>
            <g
               id="g62">
              <path
                 style="fill:#2d2316"
                 d="m 272.201,175.231 c -0.336,1.155 -0.741,2.153 -1.118,3.197 -0.404,1.029 -0.769,2.081 -1.399,3.113 -0.146,-1.197 0.062,-2.359 0.464,-3.465 0.425,-1.09 1.066,-2.141 2.053,-2.845 z"
                 id="path61" />
            </g>
          </g>
          <g
             id="g67">
            <g
               id="g64">
              <path
                 style="fill:#2d2316"
                 d="m 276.694,191.822 c 0.407,-0.732 0.956,-1.239 1.611,-1.654 0.334,-0.192 0.689,-0.365 1.083,-0.457 0.386,-0.096 0.818,-0.132 1.223,0.016 -0.648,0.515 -1.162,0.912 -1.787,1.296 -0.623,0.356 -1.284,0.722 -2.13,0.799 z"
                 id="path63" />
            </g>
            <g
               id="g65">
              <path
                 style="fill:#2d2316"
                 d="m 278.484,217.705 c 0.031,-0.519 0.296,-1.012 0.66,-1.389 0.36,-0.389 0.814,-0.656 1.266,-0.866 0.931,-0.392 1.846,-0.544 2.862,-0.547 -0.73,0.742 -1.652,1.088 -2.458,1.461 -0.833,0.361 -1.544,0.685 -2.33,1.341 z"
                 id="path64" />
            </g>
            <g
               id="g66">
              <path
                 style="fill:#2d2316"
                 d="m 304.059,231.641 c -0.239,-0.38 -0.291,-0.841 -0.254,-1.267 0.03,-0.433 0.164,-0.835 0.318,-1.212 0.343,-0.751 0.784,-1.36 1.415,-1.958 0.066,0.442 -0.004,0.863 -0.106,1.253 -0.097,0.394 -0.249,0.754 -0.393,1.105 -0.314,0.707 -0.637,1.283 -0.98,2.079 z"
                 id="path65" />
            </g>
          </g>
        </g>
        <g
           id="g80">
          <g
             id="g69">
            <path
               style="fill:#332919"
               d="m 301.41,137.341 c 1.15,-0.558 8.436,-3.002 8.773,-1.655 -1.049,1.146 -3.163,1.55 -4.596,2.074 -1.188,0.435 -2.396,0.902 -3.553,1.413 -0.311,-0.331 -0.5,-0.792 -0.624,-1.832 z"
               id="path68" />
          </g>
          <g
             id="g72">
            <g
               id="g70">
              <path
                 style="fill:#443421"
                 d="m 291.926,154.195 c -0.5,-0.061 -1.334,-2.839 -1.2,-3.466 0.242,-1.139 1.414,-1.674 2.045,-2.646 0.367,-0.565 0.766,-1.059 1.067,-1.66 0.267,-0.532 0.417,-1.441 0.855,-1.861 0.557,-0.535 0.838,-0.372 1.341,-1.086 0.396,-0.562 0.735,-1.128 1.167,-1.685 0.893,-1.151 1.971,-2.16 2.898,-3.296 0.565,-0.692 1.588,-2.014 2.227,-0.572 0.468,1.055 -0.578,2.872 -1.06,3.84 -0.952,1.912 -2.247,3.677 -3.38,5.499 -1.048,1.685 -2.248,3.358 -3.384,4.979 -0.379,0.54 -1.639,3.422 -2.576,1.954 z"
                 id="path69" />
            </g>
            <g
               id="g71">
              <path
                 style="fill:#2d2316"
                 d="m 295.86,144.68 c 0.552,-0.001 0.874,0.122 1.205,0.338 0.302,0.231 0.611,0.548 0.663,1.11 -0.551,0.054 -0.898,-0.07 -1.24,-0.294 -0.312,-0.241 -0.628,-0.589 -0.628,-1.154 z"
                 id="path70" />
            </g>
          </g>
          <g
             id="g73">
            <path
               style="fill:#4f3e26"
               d="m 278.504,146.23 c 2.688,0.36 4.985,1.331 7.595,1.902 1.743,0.382 5.544,1.099 5.87,2.012 0.361,1.008 0.504,2.083 0.407,4.277 -0.028,0.641 -14.287,-4.163 -15.762,-4.702 -2.156,-0.787 -1.225,-0.996 1.89,-3.489 z"
               id="path72" />
          </g>
          <g
             id="g76">
            <g
               id="g74">
              <path
                 style="fill:#382a1b"
                 d="m 263.333,136.635 c 0.861,-0.573 1.518,-1.096 2.597,-1.35 1.705,-0.402 2.43,-0.238 3.209,1.097 0.677,1.16 1.311,1.526 2.402,2.362 1.12,0.858 1.93,2.069 2.945,3.032 1.194,1.134 3.55,3.27 4.123,4.837 0.191,0.523 -1.388,2.789 -2.013,2.792 -1.651,0.009 -3.983,-2.961 -4.887,-3.958 -1.268,-1.398 -2.729,-2.565 -4.029,-3.941 -0.767,-0.812 -0.75,-1.302 -1.99,-1.365 -0.381,-0.019 -1.21,0.227 -1.56,0.071 -0.82,-0.363 -1.223,-1.905 -0.797,-3.577 z"
                 id="path73" />
            </g>
            <g
               id="g75">
              <path
                 style="fill:#2d2316"
                 d="m 266.881,139.478 c -0.054,-0.647 0.206,-1.145 0.542,-1.56 0.36,-0.396 0.804,-0.719 1.45,-0.78 -0.104,0.64 -0.382,1.05 -0.692,1.432 -0.336,0.363 -0.691,0.69 -1.3,0.908 z"
                 id="path74" />
            </g>
          </g>
          <g
             id="g79">
            <g
               id="g77">
              <path
                 style="fill:#2d2316"
                 d="m 276.186,149.781 c 0.156,-0.694 0.457,-1.157 0.796,-1.619 0.361,-0.439 0.788,-0.884 1.468,-1.1 -0.058,0.706 -0.316,1.224 -0.681,1.716 -0.387,0.471 -0.884,0.882 -1.583,1.003 z"
                 id="path76" />
            </g>
            <g
               id="g78">
              <path
                 style="fill:#2d2316"
                 d="m 291.614,149.798 c 0.599,0.624 0.907,1.351 1.093,2.13 0.154,0.771 0.175,1.658 -0.298,2.403 -0.324,-0.796 -0.511,-1.458 -0.679,-2.193 -0.14,-0.731 -0.271,-1.486 -0.116,-2.34 z"
                 id="path77" />
            </g>
          </g>
        </g>
        <g
           id="g92">
          <g
             id="g86">
            <g
               id="g83">
              <g
                 id="g81">
                <path
                   style="fill:#382a1b"
                   d="m 292.823,100.608 c -0.925,-1.072 -1.432,-3.277 -2.443,-4.286 -0.864,-0.862 -2.739,-0.753 -3.903,-1.091 -1.681,-0.488 -2.195,-1.922 -2.898,-3.254 -0.504,-0.956 -0.765,-1.41 -1.901,-1.435 -0.756,-0.017 -1.603,0.22 -2.183,-0.412 -0.323,-0.351 -0.278,-1.061 -0.478,-1.479 -0.249,-0.519 -2.651,-2.713 -3.326,-3.413 0.423,2.268 0.81,3.27 1.458,4.825 0.741,1.777 1.765,3.436 2.984,4.959 1.429,1.785 2.74,3.88 4.564,5.336 1.7,1.358 5.845,4.013 7.838,4.957 0.582,0.276 4.077,1.338 4.787,1.127 1.439,-0.425 -2.864,-4.764 -4.499,-5.834 z"
                   id="path80" />
              </g>
              <g
                 id="g82">
                <path
                   style="fill:#4f3e26"
                   d="m 299.611,110.815 c 0.438,-0.755 0.457,-2.175 0.404,-3.068 -1.998,0.926 -5.122,-1.734 -6.453,-2.886 -2.225,-1.926 -1.831,-3.507 -1.91,-6.12 -0.066,-2.209 -0.299,-5.032 -2.179,-6.676 -0.887,-0.776 -2.478,-1.04 -2.758,-2.294 -0.144,-0.646 0.405,-1.45 0.157,-2.1 -0.318,-0.833 -1.154,-0.699 -2.09,-1.007 -1.003,-0.33 -1.421,-0.449 -1.783,-1.361 -0.429,-1.081 -0.281,-0.909 -1.357,-1.532 -1.992,-1.153 -2.65,-3.688 -5.24,-4.159 0.61,-0.32 2.447,-0.309 3.124,-0.257 2.017,0.154 3.209,0.456 5.167,0.942 3.266,0.81 6.74,2.089 9.409,3.973 4.425,3.123 8.774,7.016 9.551,12.444 0.344,2.406 0.279,6.732 -0.088,9.06 -0.275,1.756 0.75,6.008 -3.954,5.041 z"
                   id="path81" />
              </g>
            </g>
            <g
               id="g84">
              <path
                 style="fill:#443421"
                 d="m 303.733,108.088 c -0.506,-0.315 -3.012,0.296 -3.607,0.359 -0.558,0.059 -1.607,0.147 -2.079,0.51 -1.18,0.906 -0.966,3.078 -1.519,4.288 -0.445,0.974 -0.939,1.998 -1.585,2.872 -0.759,1.027 -1.697,1.887 -2.32,3.003 -1.05,1.88 -2.14,4.192 -2.3,6.313 -0.286,3.773 -1.376,7.521 0.033,11.205 2.19,5.725 9.613,-4.59 10.664,-6.558 0.923,-1.73 2.062,-3.671 2.736,-5.492 0.573,-1.547 0.943,-3.193 1.389,-4.778 0.846,-3.008 0.124,-11.749 -1.412,-11.722 z"
                 id="path83" />
            </g>
            <g
               id="g85">
              <path
                 style="fill:#4f3e26"
                 d="m 289.134,130.739 c 1.316,0.476 2.881,7.561 2.547,8.077 -0.595,0.919 -1.718,0.381 -2.624,0.125 -2.274,-0.643 -10.499,-4.437 -12.426,-5.39 -1.838,-0.909 -3.662,-1.931 -5.371,-3.035 -1.303,-0.842 -2.554,-1.753 -3.911,-2.526 -1.204,-0.686 -1.948,-1.293 -1.554,-2.662 0.328,-1.139 0.901,-3.329 2.428,-3.42 1.06,-0.063 2.643,0.325 3.635,0.638 4.607,1.452 9.057,4.502 17.276,8.193 z"
                 id="path84" />
            </g>
          </g>
          <g
             id="g87">
            <path
               style="fill:#382a1b"
               d="m 257.145,129.518 c 1.843,-0.155 1.928,-3.284 2.239,-4.504 0.516,-2.024 2.123,-3.555 4.428,-3.783 2.102,-0.208 3.989,-0.027 4.069,2.209 0.079,2.243 -0.284,4.771 -2.248,6.212 -2.5,1.836 -5.028,2.323 -8.488,-0.134 z"
               id="path86" />
          </g>
          <g
             id="g91">
            <g
               id="g88">
              <path
                 style="fill:#2d2316"
                 d="m 267.608,122.178 c 0.442,0.315 0.668,0.85 0.803,1.342 0.14,0.504 0.172,1.021 0.156,1.534 -0.039,0.511 -0.124,1.022 -0.318,1.508 -0.186,0.474 -0.471,0.985 -0.95,1.244 0.136,-0.506 0.148,-0.955 0.19,-1.421 l 0.08,-1.385 c 0.033,-0.461 0.045,-0.922 0.071,-1.386 0.009,-0.468 0.043,-0.917 -0.032,-1.436 z"
                 id="path87" />
            </g>
            <g
               id="g89">
              <path
                 style="fill:#2d2316"
                 d="m 290.049,131.619 c 0.716,0.95 1.126,2.009 1.437,3.096 0.139,0.549 0.258,1.104 0.306,1.676 0.053,0.569 0.061,1.156 -0.075,1.74 -0.54,-1.05 -0.897,-2.079 -1.196,-3.156 -0.273,-1.078 -0.508,-2.168 -0.472,-3.356 z"
                 id="path88" />
            </g>
            <g
               id="g90">
              <path
                 style="fill:#2d2316"
                 d="m 300.081,108.342 c 0.551,-0.404 1.062,-0.58 1.633,-0.675 0.284,-0.032 0.574,-0.052 0.874,-0.008 0.297,0.039 0.611,0.116 0.901,0.322 -0.551,0.406 -1.061,0.582 -1.633,0.675 -0.284,0.031 -0.574,0.051 -0.874,0.007 -0.297,-0.039 -0.611,-0.116 -0.901,-0.321 z"
                 id="path89" />
            </g>
          </g>
        </g>
        <g
           id="g193">
          <g
             id="g123">
            <g
               id="g110">
              <path
                 style="fill:#332919"
                 d="m 188.621,147.705 c -1.764,-1.444 -8.265,-5.483 -6.496,-5.938 2.722,0.831 6.656,3.592 8.969,5.423 -0.655,0.653 -0.835,0.443 -2.473,0.515 z"
                 id="path109" />
            </g>
            <g
               id="g113">
              <g
                 id="g111">
                <path
                   style="fill:#4f3e26"
                   d="m 191.079,147.001 c -1.566,0.118 -2.427,0.463 -2.402,0.747 0.094,1.101 0.121,3.351 0.273,4.461 0.379,2.771 1.206,13.042 1.717,15.306 0.141,0.622 0.817,1.16 1.598,0.938 0.66,-0.187 0.957,-1.211 1.135,-1.729 0.45,-1.314 0.411,-1.965 0.825,-3.281 0.433,-1.377 0.447,-4.006 -0.553,-5.295 -0.554,-0.712 -2.206,-10.222 -2.593,-11.147 z"
                   id="path110" />
              </g>
              <g
                 id="g112">
                <path
                   style="fill:#2d2316"
                   d="m 190.221,157.449 c 0.201,-0.242 0.476,-0.344 0.727,-0.395 0.257,-0.057 0.506,-0.038 0.748,-0.001 0.472,0.11 0.936,0.329 1.237,0.864 -0.566,0.212 -0.998,0.19 -1.432,0.116 -0.212,-0.052 -0.419,-0.106 -0.623,-0.205 -0.209,-0.09 -0.4,-0.208 -0.657,-0.379 z"
                   id="path111" />
              </g>
            </g>
            <g
               id="g114">
              <path
                 style="fill:#443421"
                 d="m 191.792,168.672 c 1.075,-1.815 1.588,-3.07 2.319,-2.933 2.077,0.39 11.288,1.437 12.785,1.73 1.702,0.333 3.3,0.437 4.99,0.686 1.741,0.256 2.411,2.804 2.319,4.308 -5.914,0.528 -22.545,-2.924 -22.413,-3.791 z"
                 id="path113" />
            </g>
            <g
               id="g115">
              <path
                 style="fill:#4f3e26"
                 d="m 212.32,168.409 c 1.397,-3.536 10.924,-15.175 12.185,-14.992 0.733,0.107 2.368,1.418 2.432,2.014 0.087,0.817 -9.75,13.813 -10.734,15.169 -0.408,0.562 -0.63,1.131 -1.307,1.506 -1.216,0.671 -1.2,-0.217 -2.576,-3.697 z"
                 id="path114" />
            </g>
            <g
               id="g118">
              <g
                 id="g116">
                <path
                   style="fill:#382a1b"
                   d="m 224.002,153.549 c 0.406,-1.268 2.12,-3.251 3.343,-4.671 1.216,-1.412 4.716,-2.066 6.605,-1.582 1.751,0.448 1.234,2.436 0.747,3.947 -0.244,0.757 -2.89,1.033 -4.168,1.734 -0.855,0.468 -2.993,2.503 -3.168,2.613 -0.616,0.388 -1.188,-0.675 -3.359,-2.041 z"
                   id="path115" />
              </g>
              <g
                 id="g117">
                <path
                   style="fill:#2d2316"
                   d="m 231.311,147.679 c 0.515,0.485 0.74,1.042 0.871,1.633 0.1,0.591 0.104,1.236 -0.267,1.848 -0.422,-0.567 -0.591,-1.092 -0.715,-1.658 -0.091,-0.568 -0.141,-1.158 0.111,-1.823 z"
                   id="path116" />
              </g>
            </g>
            <g
               id="g122">
              <g
                 id="g119">
                <path
                   style="fill:#2d2316"
                   d="m 226.762,154.93 c -0.638,0.014 -1.079,-0.206 -1.479,-0.485 -0.381,-0.304 -0.716,-0.666 -0.88,-1.285 0.622,-0.029 1.074,0.199 1.479,0.485 0.386,0.311 0.731,0.681 0.88,1.285 z"
                   id="path118" />
              </g>
              <g
                 id="g120">
                <path
                   style="fill:#2d2316"
                   d="m 212.462,168.142 c 0.587,0.636 0.876,1.332 1.163,2.007 0.259,0.688 0.518,1.414 0.489,2.278 -0.685,-0.522 -1.107,-1.173 -1.418,-1.91 -0.28,-0.751 -0.408,-1.534 -0.234,-2.375 z"
                   id="path119" />
              </g>
              <g
                 id="g121">
                <path
                   style="fill:#2d2316"
                   d="m 193.67,165.767 c 0.005,0.71 -0.371,1.264 -0.661,1.688 -0.307,0.401 -0.543,0.831 -1.053,1.338 -0.143,-0.329 -0.175,-0.657 -0.13,-0.985 0.037,-0.331 0.184,-0.654 0.367,-0.928 0.199,-0.263 0.409,-0.473 0.649,-0.647 0.236,-0.179 0.491,-0.339 0.828,-0.466 z"
                   id="path120" />
              </g>
            </g>
          </g>
          <g
             id="g137">
            <g
               id="g124">
              <path
                 style="fill:#332919"
                 d="m 174.06,165.522 c -0.962,-0.678 -2.703,-1.006 -3.891,-1.383 -1.408,-0.447 -2.594,-0.785 -4.102,-0.788 -0.56,1.526 7.341,3.993 8.622,4.476 0.273,-0.56 0.255,-1.19 -0.629,-2.305 z"
                 id="path123" />
            </g>
            <g
               id="g127">
              <g
                 id="g125">
                <path
                   style="fill:#4f3e26"
                   d="m 173.562,167.69 c 0.162,-0.956 0.329,-1.874 0.792,-2.023 0.09,-0.326 1.337,1.26 1.747,1.968 0.525,0.905 1.123,1.631 1.77,2.466 1.321,1.705 2.513,3.512 3.783,5.244 2.029,2.768 3.409,6.131 4.568,9.324 0.244,0.673 0.736,1.603 0.708,2.309 -0.026,0.67 -0.579,1.675 -0.829,2.311 -1.349,0.322 -4.121,-3.138 -4.681,-4.16 -0.693,-1.267 -1.144,-2.605 -1.668,-3.939 -1.32,-3.361 -2.834,-6.549 -6.19,-13.5 z"
                   id="path124" />
              </g>
              <g
                 id="g126">
                <path
                   style="fill:#2d2316"
                   d="m 179.112,177.39 c 0.055,-0.607 0.608,-0.953 1.09,-1.037 0.501,-0.07 0.988,0.034 1.394,0.459 -0.465,0.366 -0.861,0.45 -1.225,0.526 -0.379,0.057 -0.673,0.054 -1.259,0.052 z"
                   id="path125" />
              </g>
            </g>
            <g
               id="g128">
              <path
                 style="fill:#443421"
                 d="m 185.71,189.31 c 0.844,-1.29 0.284,-4.132 1.097,-4.546 1.178,-0.6 6.693,0.317 8.427,0.723 2.989,0.7 4.188,0.762 7.241,1.238 1.363,0.212 2.749,0.414 4.122,0.588 0.785,0.099 1.973,-0.018 2.573,0.513 0.746,0.661 0.869,2.348 0.982,3.227 0.081,0.627 0.086,0.832 -0.594,1.117 -0.639,0.269 -1.489,0.156 -2.158,0.177 -1.897,0.061 -21.752,-2.552 -21.69,-3.037 z"
                 id="path127" />
            </g>
            <g
               id="g129">
              <path
                 style="fill:#4f3e26"
                 d="m 209.394,188.905 c -0.176,-1.46 -0.676,-0.785 0.085,-2.088 1.147,-1.963 8.896,-13.395 11.425,-16.259 1.018,-1.153 1.537,-2.036 3.03,-0.915 0.386,0.29 1.586,0.944 1.805,1.348 0.326,0.601 -0.146,1.15 -0.415,1.725 -1.607,3.432 -3.334,7.15 -5.642,10.225 -1.697,2.261 -6.601,8.406 -7.646,8.96 -1.537,0.814 -2.381,0.624 -2.642,-2.996 z"
                 id="path128" />
            </g>
            <g
               id="g132">
              <g
                 id="g130">
                <path
                   style="fill:#382a1b"
                   d="m 225.588,171.318 c -0.496,-1.12 -4.529,-1.997 -3.661,-3.443 0.638,-1.063 1.373,-2.132 2.084,-3.149 0.693,-0.992 1.212,-1.956 1.786,-3.024 0.256,-0.476 0.557,-1.146 0.929,-1.538 0.687,-0.725 0.902,-0.354 1.756,-0.535 1.711,-0.365 2.209,-2.509 3.98,-2.995 1.543,-0.423 1.269,1.597 1.294,2.698 0.061,2.806 0.888,6.065 -2.442,7.27 -2.458,0.889 -4.638,5.705 -5.726,4.716 z"
                   id="path129" />
              </g>
              <g
                 id="g131">
                <path
                   style="fill:#2d2316"
                   d="m 229.623,160.339 c 0.408,0.793 0.642,1.509 0.827,2.296 0.154,0.779 0.272,1.617 0.003,2.485 -0.513,-0.734 -0.791,-1.47 -0.98,-2.273 -0.155,-0.794 -0.232,-1.679 0.15,-2.508 z"
                   id="path130" />
              </g>
            </g>
            <g
               id="g136">
              <g
                 id="g133">
                <path
                   style="fill:#2d2316"
                   d="m 225.627,171.446 c -0.699,-0.442 -1.194,-0.764 -1.78,-1.112 -0.559,-0.365 -1.201,-0.732 -1.679,-1.418 0.819,-0.028 1.526,0.166 2.207,0.569 0.655,0.408 1.252,1.119 1.252,1.961 z"
                   id="path132" />
              </g>
              <g
                 id="g134">
                <path
                   style="fill:#2d2316"
                   d="m 186.442,185.385 c 0.229,0.688 0.24,1.312 0.146,1.938 -0.118,0.616 -0.305,1.233 -0.817,1.779 -0.268,-0.69 -0.26,-1.317 -0.169,-1.943 0.061,-0.309 0.134,-0.617 0.267,-0.916 0.131,-0.296 0.283,-0.603 0.573,-0.858 z"
                   id="path133" />
              </g>
              <g
                 id="g135">
                <path
                   style="fill:#2d2316"
                   d="m 209.003,187.967 c 0.501,0.607 0.613,1.324 0.7,1.947 0.059,0.64 0.108,1.196 0.074,1.977 -0.676,-0.403 -0.984,-1.167 -1.067,-1.862 -0.061,-0.713 0.013,-1.342 0.293,-2.062 z"
                   id="path134" />
              </g>
            </g>
          </g>
          <g
             id="g151">
            <g
               id="g138">
              <path
                 style="fill:#332919"
                 d="m 168.843,224.343 c -1.28,-0.702 -3.396,-0.467 -4.819,-0.374 -1.58,0.103 -3.636,0.207 -5.064,0.91 -1.849,0.91 1.286,0.913 2.129,0.867 1.646,-0.089 3.19,0.211 4.82,0.33 1.283,0.093 2.552,0.368 3.837,0.529 0.073,-0.31 0.322,-0.93 0.254,-1.244 -0.14,-0.638 -0.462,-0.472 -1.157,-1.018 z"
                 id="path137" />
            </g>
            <g
               id="g141">
              <g
                 id="g139">
                <path
                   style="fill:#4f3e26"
                   d="m 168.678,224.122 c -0.251,0.322 0.214,1.867 0.582,2.303 0.334,0.396 2.203,0.644 2.747,0.791 1.869,0.505 3.798,0.86 5.684,1.313 3.578,0.858 7.235,1.53 10.636,2.899 1.839,0.74 3.777,1.534 5.84,1.595 1.567,0.046 2.216,-0.233 1.772,-1.633 -0.355,-1.118 -1.009,-3.299 -2.136,-3.962 -1.142,-0.671 -3.382,-0.575 -4.677,-0.911 -2.535,-0.657 -4.894,-0.76 -7.492,-0.894 -1.13,-0.059 -7.971,-0.71 -12.956,-1.501 z"
                   id="path138" />
              </g>
              <g
                 id="g140">
                <path
                   style="fill:#2d2316"
                   d="m 182.352,228.732 c -0.25,-0.51 -0.195,-0.942 -0.048,-1.344 0.173,-0.386 0.453,-0.761 1.008,-0.908 0.128,0.552 0.054,0.917 -0.083,1.287 -0.165,0.355 -0.377,0.696 -0.877,0.965 z"
                   id="path139" />
              </g>
            </g>
            <g
               id="g142">
              <path
                 style="fill:#443421"
                 d="m 195.005,229.503 c -0.392,-1.191 -1.238,-1.981 0.089,-2.591 4.002,-1.838 15.744,-8.574 17.611,-9.437 1.545,-0.715 3.151,-1.925 4.968,-1.736 0.927,0.096 3.629,0.936 3.939,1.734 0.681,1.751 -2.729,3.831 -3.914,4.469 -3.139,1.692 -13.568,7.901 -15.937,9.086 -1.157,0.579 -3.551,1.686 -4.922,1.872 -0.843,0.114 -0.658,0.179 -1.834,-3.397 z"
                 id="path141" />
            </g>
            <g
               id="g143">
              <path
                 style="fill:#4f3e26"
                 d="m 216.512,215.833 c 0.578,-7.917 1.049,-13.916 2.211,-23.655 0.192,-1.606 0.419,-2.166 2.322,-1.935 1.777,0.216 2.533,0.271 2.709,1.806 0.554,4.843 -0.531,10.813 -1.128,15.649 -0.314,2.539 -0.618,7.276 -0.817,9.796 -0.124,1.576 -0.476,0.306 -5.297,-1.661 z"
                 id="path142" />
            </g>
            <g
               id="g146">
              <g
                 id="g144">
                <path
                   style="fill:#382a1b"
                   d="m 219.328,190.727 c -1.13,-0.68 1.781,-4.755 2.568,-6.229 0.798,-1.495 4.401,-7.323 5.123,-8.608 0.882,-1.569 2.403,-2.548 4.094,-3.268 1.381,-0.588 3.03,-1.528 2.888,0.511 -0.102,1.465 -0.551,2.902 -0.644,4.364 -0.079,1.24 -0.028,2.419 -0.906,3.461 -0.632,0.75 -1.313,1.196 -1.915,1.99 -1.021,1.348 -2.109,1.889 -2.858,3.389 -0.696,1.393 -2.276,4.395 -3.284,5.626 -1.085,1.329 -2.179,0.503 -5.066,-1.236 z"
                   id="path143" />
              </g>
              <g
                 id="g145">
                <path
                   style="fill:#2d2316"
                   d="m 227.797,176.125 c 0.987,0.704 1.628,1.755 2.053,2.845 0.402,1.106 0.61,2.268 0.464,3.465 -0.629,-1.031 -0.995,-2.083 -1.399,-3.113 -0.377,-1.044 -0.782,-2.041 -1.118,-3.197 z"
                   id="path144" />
              </g>
            </g>
            <g
               id="g150">
              <g
                 id="g147">
                <path
                   style="fill:#2d2316"
                   d="m 223.304,192.716 c -0.846,-0.077 -1.507,-0.444 -2.129,-0.8 -0.626,-0.383 -1.14,-0.781 -1.787,-1.296 0.405,-0.148 0.837,-0.111 1.223,-0.016 0.394,0.092 0.749,0.265 1.083,0.457 0.653,0.417 1.203,0.924 1.61,1.655 z"
                   id="path146" />
              </g>
              <g
                 id="g148">
                <path
                   style="fill:#2d2316"
                   d="m 221.514,218.599 c -0.785,-0.656 -1.496,-0.98 -2.33,-1.342 -0.806,-0.373 -1.729,-0.72 -2.458,-1.461 1.016,0.003 1.931,0.155 2.862,0.547 0.452,0.21 0.906,0.478 1.266,0.866 0.363,0.378 0.629,0.871 0.66,1.39 z"
                   id="path147" />
              </g>
              <g
                 id="g149">
                <path
                   style="fill:#2d2316"
                   d="m 195.939,232.535 c -0.343,-0.796 -0.665,-1.372 -0.98,-2.079 -0.144,-0.351 -0.296,-0.711 -0.393,-1.105 -0.102,-0.39 -0.172,-0.811 -0.106,-1.253 0.631,0.598 1.072,1.207 1.415,1.958 0.154,0.377 0.288,0.78 0.318,1.212 0.036,0.425 -0.015,0.887 -0.254,1.267 z"
                   id="path148" />
              </g>
            </g>
          </g>
          <g
             id="g163">
            <g
               id="g152">
              <path
                 style="fill:#332919"
                 d="m 198.588,138.235 c -1.149,-0.558 -8.436,-3.002 -8.773,-1.655 1.049,1.146 3.163,1.55 4.596,2.074 1.188,0.435 2.396,0.902 3.553,1.413 0.311,-0.331 0.5,-0.792 0.624,-1.832 z"
                 id="path151" />
            </g>
            <g
               id="g155">
              <g
                 id="g153">
                <path
                   style="fill:#443421"
                   d="m 208.072,155.089 c 0.5,-0.061 1.334,-2.839 1.2,-3.466 -0.243,-1.139 -1.414,-1.675 -2.045,-2.646 -0.367,-0.565 -0.766,-1.059 -1.067,-1.66 -0.267,-0.532 -0.417,-1.44 -0.855,-1.861 -0.557,-0.535 -0.838,-0.372 -1.341,-1.086 -0.396,-0.562 -0.736,-1.128 -1.167,-1.685 -0.893,-1.151 -1.971,-2.16 -2.898,-3.296 -0.565,-0.692 -1.588,-2.014 -2.227,-0.572 -0.468,1.055 0.578,2.872 1.06,3.84 0.952,1.912 2.247,3.677 3.38,5.499 1.048,1.686 2.248,3.358 3.384,4.979 0.379,0.54 1.639,3.422 2.576,1.954 z"
                   id="path152" />
              </g>
              <g
                 id="g154">
                <path
                   style="fill:#2d2316"
                   d="m 204.138,145.574 c 0,0.566 -0.316,0.914 -0.628,1.154 -0.341,0.224 -0.688,0.348 -1.24,0.294 0.052,-0.563 0.361,-0.879 0.663,-1.111 0.331,-0.215 0.653,-0.338 1.205,-0.337 z"
                   id="path153" />
              </g>
            </g>
            <g
               id="g156">
              <path
                 style="fill:#4f3e26"
                 d="m 221.494,147.124 c -2.688,0.36 -4.985,1.331 -7.595,1.902 -1.743,0.382 -5.544,1.1 -5.871,2.012 -0.36,1.008 -0.503,2.083 -0.407,4.278 0.028,0.641 14.287,-4.164 15.762,-4.702 2.157,-0.788 1.226,-0.997 -1.889,-3.49 z"
                 id="path155" />
            </g>
            <g
               id="g159">
              <g
                 id="g157">
                <path
                   style="fill:#382a1b"
                   d="m 236.665,137.529 c -0.861,-0.573 -1.519,-1.096 -2.597,-1.35 -1.705,-0.402 -2.43,-0.238 -3.209,1.097 -0.677,1.16 -1.311,1.526 -2.402,2.362 -1.12,0.858 -1.93,2.069 -2.945,3.032 -1.194,1.134 -3.55,3.27 -4.123,4.837 -0.191,0.522 1.388,2.788 2.013,2.792 1.651,0.009 3.982,-2.961 4.887,-3.958 1.268,-1.398 2.729,-2.565 4.029,-3.941 0.767,-0.812 0.75,-1.302 1.99,-1.364 0.381,-0.019 1.21,0.227 1.56,0.071 0.82,-0.364 1.223,-1.906 0.797,-3.578 z"
                   id="path156" />
              </g>
              <g
                 id="g158">
                <path
                   style="fill:#2d2316"
                   d="m 233.117,140.372 c -0.609,-0.218 -0.964,-0.545 -1.299,-0.908 -0.31,-0.383 -0.588,-0.792 -0.692,-1.432 0.646,0.061 1.09,0.384 1.45,0.78 0.336,0.414 0.595,0.913 0.541,1.56 z"
                   id="path157" />
              </g>
            </g>
            <g
               id="g162">
              <g
                 id="g160">
                <path
                   style="fill:#2d2316"
                   d="m 223.812,150.675 c -0.699,-0.121 -1.196,-0.532 -1.582,-1.003 -0.365,-0.492 -0.624,-1.01 -0.681,-1.716 0.68,0.216 1.107,0.661 1.468,1.1 0.338,0.462 0.639,0.925 0.795,1.619 z"
                   id="path159" />
              </g>
              <g
                 id="g161">
                <path
                   style="fill:#2d2316"
                   d="m 208.384,150.692 c 0.156,0.854 0.025,1.608 -0.116,2.339 -0.168,0.735 -0.355,1.397 -0.679,2.193 -0.473,-0.744 -0.452,-1.632 -0.298,-2.403 0.185,-0.778 0.494,-1.504 1.093,-2.129 z"
                   id="path160" />
              </g>
            </g>
          </g>
          <g
             id="g175">
            <g
               id="g169">
              <g
                 id="g166">
                <g
                   id="g164">
                  <path
                     style="fill:#382a1b"
                     d="m 207.175,101.502 c 0.925,-1.072 1.432,-3.277 2.443,-4.286 0.864,-0.862 2.739,-0.753 3.903,-1.091 1.681,-0.488 2.195,-1.922 2.898,-3.254 0.504,-0.956 0.765,-1.41 1.901,-1.435 0.756,-0.017 1.602,0.22 2.183,-0.412 0.323,-0.351 0.278,-1.061 0.478,-1.479 0.249,-0.519 2.651,-2.713 3.326,-3.413 -0.423,2.268 -0.81,3.27 -1.458,4.825 -0.741,1.777 -1.765,3.435 -2.984,4.959 -1.429,1.785 -2.74,3.88 -4.563,5.336 -1.7,1.358 -5.845,4.013 -7.838,4.957 -0.582,0.276 -4.077,1.338 -4.787,1.127 -1.44,-0.425 2.863,-4.764 4.498,-5.834 z"
                     id="path163" />
                </g>
                <g
                   id="g165">
                  <path
                     style="fill:#4f3e26"
                     d="m 200.387,111.709 c -0.438,-0.755 -0.457,-2.175 -0.404,-3.068 1.998,0.926 5.122,-1.734 6.453,-2.886 2.225,-1.926 1.831,-3.507 1.91,-6.12 0.067,-2.209 0.299,-5.032 2.179,-6.676 0.887,-0.776 2.478,-1.04 2.758,-2.294 0.144,-0.646 -0.405,-1.45 -0.157,-2.1 0.318,-0.833 1.154,-0.699 2.09,-1.007 1.003,-0.33 1.421,-0.449 1.783,-1.361 0.429,-1.081 0.281,-0.909 1.357,-1.532 1.992,-1.153 2.65,-3.688 5.24,-4.159 -0.61,-0.32 -2.447,-0.309 -3.124,-0.257 -2.017,0.154 -3.209,0.456 -5.167,0.942 -3.266,0.81 -6.74,2.09 -9.409,3.974 -4.425,3.123 -8.774,7.016 -9.551,12.443 -0.344,2.406 -0.279,6.732 0.088,9.06 0.275,1.756 -0.75,6.008 3.954,5.041 z"
                     id="path164" />
                </g>
              </g>
              <g
                 id="g167">
                <path
                   style="fill:#443421"
                   d="m 196.265,108.982 c 0.507,-0.315 3.012,0.296 3.607,0.359 0.558,0.059 1.607,0.147 2.079,0.51 1.18,0.906 0.966,3.077 1.519,4.288 0.445,0.974 0.939,1.998 1.585,2.872 0.759,1.027 1.697,1.887 2.32,3.003 1.05,1.88 2.14,4.192 2.3,6.313 0.286,3.773 1.376,7.521 -0.033,11.205 -2.19,5.725 -9.613,-4.589 -10.664,-6.558 -0.923,-1.73 -2.062,-3.671 -2.736,-5.492 -0.572,-1.547 -0.943,-3.193 -1.389,-4.778 -0.845,-3.008 -0.124,-11.749 1.412,-11.722 z"
                   id="path166" />
              </g>
              <g
                 id="g168">
                <path
                   style="fill:#4f3e26"
                   d="m 210.864,131.633 c -1.316,0.476 -2.881,7.561 -2.547,8.077 0.594,0.919 1.718,0.381 2.624,0.125 2.274,-0.643 10.499,-4.437 12.426,-5.39 1.838,-0.909 3.662,-1.931 5.371,-3.035 1.303,-0.842 2.554,-1.753 3.91,-2.525 1.204,-0.686 1.948,-1.293 1.554,-2.662 -0.328,-1.139 -0.901,-3.329 -2.428,-3.42 -1.06,-0.063 -2.643,0.325 -3.635,0.638 -4.606,1.451 -9.056,4.501 -17.275,8.192 z"
                   id="path167" />
              </g>
            </g>
            <g
               id="g170">
              <path
                 style="fill:#382a1b"
                 d="m 242.853,130.413 c -1.843,-0.155 -1.928,-3.284 -2.239,-4.504 -0.516,-2.024 -2.123,-3.555 -4.428,-3.783 -2.102,-0.208 -3.989,-0.027 -4.069,2.209 -0.079,2.243 0.284,4.77 2.248,6.212 2.5,1.835 5.029,2.323 8.488,-0.134 z"
                 id="path169" />
            </g>
            <g
               id="g174">
              <g
                 id="g171">
                <path
                   style="fill:#2d2316"
                   d="m 232.39,123.072 c -0.075,0.519 -0.041,0.968 -0.031,1.436 0.025,0.464 0.037,0.924 0.071,1.386 l 0.08,1.385 c 0.042,0.466 0.054,0.915 0.19,1.421 -0.479,-0.259 -0.764,-0.77 -0.95,-1.244 -0.194,-0.487 -0.28,-0.998 -0.318,-1.508 -0.016,-0.512 0.015,-1.029 0.156,-1.534 0.134,-0.492 0.36,-1.027 0.802,-1.342 z"
                   id="path170" />
              </g>
              <g
                 id="g172">
                <path
                   style="fill:#2d2316"
                   d="m 209.949,132.513 c 0.036,1.188 -0.199,2.278 -0.472,3.356 -0.299,1.076 -0.656,2.106 -1.196,3.156 -0.136,-0.584 -0.128,-1.171 -0.075,-1.74 0.048,-0.572 0.168,-1.128 0.306,-1.676 0.311,-1.088 0.721,-2.147 1.437,-3.096 z"
                   id="path171" />
              </g>
              <g
                 id="g173">
                <path
                   style="fill:#2d2316"
                   d="m 199.917,109.236 c -0.29,0.205 -0.604,0.282 -0.901,0.321 -0.3,0.044 -0.59,0.024 -0.874,-0.007 -0.572,-0.093 -1.082,-0.269 -1.633,-0.675 0.29,-0.206 0.604,-0.284 0.901,-0.322 0.3,-0.044 0.59,-0.024 0.874,0.008 0.571,0.095 1.082,0.271 1.633,0.675 z"
                   id="path172" />
              </g>
            </g>
          </g>
        </g>
      </g>
      <g
         id="g195">
        <path
           style="fill:#2d2316"
           d="m 231.352,122.18 c 0.055,1.078 0.063,1.991 0.249,2.891 0.165,0.904 0.487,1.727 0.931,2.714 -1.013,-0.413 -1.705,-1.443 -1.912,-2.525 -0.199,-1.089 0.03,-2.25 0.732,-3.08 z"
           id="path194" />
      </g>
      <g
         id="g209">
        <g
           id="g198">
          <g
             id="g196">
            <path
               style="fill:#4f3e26"
               d="m 267.705,161.644 c -0.315,-1.107 -0.65,-1.962 -1.058,-2.627 0.378,-0.519 0.426,-1.286 0.419,-2.202 -0.017,-1.994 -2.722,-20.105 -2.777,-21.832 -0.064,-2 -0.815,-3.433 -1.519,-5.286 -0.719,-1.892 -1.731,-2.795 -3.789,-3.528 v 0 c -1.156,-0.528 -2.885,-2.204 -4.247,-1.414 -0.398,0.231 -0.623,0.439 -0.719,0.626 -0.265,0.013 -0.531,0.032 -0.797,0.064 -1.02,0.122 -2.606,0.018 -3.762,0.324 -1.168,-0.265 -2.748,-0.105 -3.773,-0.192 -0.267,-0.023 -0.533,-0.033 -0.799,-0.036 -0.103,-0.184 -0.337,-0.384 -0.744,-0.601 -1.393,-0.742 -3.052,0.993 -4.186,1.562 0,0 0,0 0,0 -2.026,0.805 -3,1.743 -3.642,3.659 -0.219,0.653 -0.444,1.255 -0.645,1.848 2.05,3.169 2.294,10.016 2.422,12.863 0.216,4.803 0.173,9.836 4.915,12.387 0.189,0.102 0.372,0.207 0.577,0.301 -1.595,0.279 -2.716,1.204 -3.42,2.416 -1.817,3.127 -0.774,8.223 2.713,9.519 -3.016,2.502 -3.475,7.566 0.724,9.464 -2.335,0.878 -3.58,3.555 -2.994,6.008 0.694,2.905 3.03,2.859 4.733,4.817 -2.654,2.742 -4.072,3.206 -3.756,7.511 0.189,2.568 0.389,4.933 3.416,5.415 -4.093,2.576 -4.884,15.245 1.11,16.165 -2.752,7.383 -0.286,12.575 2.096,19.474 -1.178,-0.393 -2.381,-0.648 -3.595,-0.825 1.682,1.54 3.826,2.729 6.953,2.797 0.077,0.002 0.157,-0.007 0.236,-0.01 0.078,0 0.16,0.006 0.236,0.001 4.157,-0.237 6.492,-2.397 8.306,-4.711 4.092,-3.627 7.669,-8.336 7.889,-10.304 0.295,-2.627 0.347,-3.576 0.665,-6.195 0.932,-7.676 -0.285,-54.286 -1.188,-57.458 z"
               id="path195" />
          </g>
          <g
             id="g197">
            <path
               style="fill:#443421"
               d="m 246.107,218.877 c -5.994,-0.919 -5.203,-13.589 -1.11,-16.165 -3.026,-0.482 -3.227,-2.846 -3.416,-5.415 -0.316,-4.306 1.101,-4.769 3.756,-7.511 -1.704,-1.958 -4.039,-1.912 -4.733,-4.817 -0.586,-2.453 0.659,-5.13 2.994,-6.008 -4.199,-1.898 -3.74,-6.962 -0.724,-9.464 -3.487,-1.296 -4.531,-6.392 -2.713,-9.519 0.705,-1.212 1.825,-2.137 3.42,-2.416 -0.205,-0.094 -0.387,-0.199 -0.577,-0.301 -4.742,-2.551 -4.699,-7.584 -4.915,-12.387 -0.128,-2.847 -0.372,-9.695 -2.422,-12.863 -0.377,1.109 -0.668,2.184 -0.657,3.488 0.015,1.728 -1.947,19.92 -1.883,21.914 0.03,0.915 0.11,1.681 0.509,2.186 -0.381,0.679 -0.68,1.545 -0.95,2.662 -0.773,3.202 -0.084,49.821 1.16,57.46 0.425,2.607 0.516,3.553 0.917,6.168 0.301,1.959 4.068,6.539 8.305,10.019 0.475,0.56 0.981,1.109 1.539,1.619 2.081,1.647 5.093,3.465 3.595,0.825 -2.38,-6.9 -4.846,-12.093 -2.095,-19.475 z"
               id="path196" />
          </g>
        </g>
        <g
           id="g208">
          <g
             id="g206">
            <g
               id="g201">
              <path
                 style="fill:#2d2316"
                 d="m 235.359,169.37 c 2.542,-0.38 5.1,-0.611 7.662,-0.781 2.562,-0.181 5.13,-0.237 7.697,-0.255 2.567,0.005 5.133,0.049 7.694,0.19 l 3.841,0.227 c 1.279,0.116 2.558,0.2 3.835,0.35 -1.284,0.077 -2.565,0.089 -3.848,0.14 l -3.843,0.052 -7.677,0.041 -7.672,0.021 c -2.56,0.009 -5.12,0.047 -7.689,0.015 z"
                 id="path200" />
            </g>
            <g
               id="g202">
              <path
                 style="fill:#2d2316"
                 d="m 235.235,178.346 c 2.557,-0.251 5.113,-0.416 7.672,-0.562 2.558,-0.158 5.122,-0.226 7.686,-0.268 2.564,-0.019 5.129,-0.011 7.691,0.092 2.563,0.092 5.124,0.223 7.681,0.469 -1.282,0.096 -2.563,0.121 -3.844,0.193 l -3.841,0.107 c -2.56,0.079 -5.118,0.097 -7.676,0.138 -2.558,0.017 -5.116,0.059 -7.678,0.034 -2.562,-0.014 -5.127,-0.042 -7.691,-0.203 z"
                 id="path201" />
            </g>
            <g
               id="g203">
              <path
                 style="fill:#2d2316"
                 d="m 236.105,190.838 c 2.423,-0.308 4.852,-0.502 7.283,-0.665 2.431,-0.174 4.867,-0.254 7.304,-0.304 2.438,-0.027 4.877,-0.022 7.315,0.103 l 3.652,0.224 c 1.215,0.123 2.43,0.225 3.639,0.4 -1.221,0.051 -2.438,0.047 -3.655,0.09 l -3.647,0.055 -7.288,0.127 c -2.43,0.025 -4.86,0.079 -7.294,0.07 -2.434,0.003 -4.869,0.004 -7.309,-0.1 z"
                 id="path202" />
            </g>
            <g
               id="g204">
              <path
                 style="fill:#2d2316"
                 d="m 236.366,203.614 c 2.483,-0.251 4.961,-0.447 7.441,-0.642 2.479,-0.206 4.965,-0.348 7.459,-0.437 2.493,-0.066 4.997,-0.07 7.491,0.112 1.247,0.093 2.491,0.21 3.731,0.357 1.237,0.184 2.471,0.368 3.692,0.63 -1.249,-0.037 -2.488,-0.123 -3.731,-0.141 -1.24,-0.048 -2.48,-0.077 -3.719,-0.077 -2.478,0 -4.953,0.031 -7.433,0.118 -2.48,0.064 -4.963,0.18 -7.454,0.203 -2.491,0.035 -4.985,0.038 -7.477,-0.123 z"
                 id="path203" />
            </g>
            <g
               id="g205">
              <path
                 style="fill:#2d2316"
                 d="m 237.912,219.086 c 2.379,-0.245 4.748,-0.445 7.123,-0.652 2.375,-0.21 4.768,-0.341 7.154,-0.354 2.386,0.057 4.772,0.116 7.156,0.253 l 3.575,0.208 c 1.191,0.106 2.381,0.178 3.57,0.314 -1.194,0.09 -2.385,0.116 -3.576,0.176 l -3.571,0.071 c -2.38,0.045 -4.758,0.012 -7.137,-0.023 -2.378,-0.012 -4.748,0.092 -7.132,0.119 l -3.58,0.029 c -1.195,-0.035 -2.389,-0.05 -3.582,-0.141 z"
                 id="path204" />
            </g>
          </g>
          <g
             id="g207">
            <path
               style="fill:#2d2316"
               d="m 236.071,157.87 c 1.177,-0.245 2.363,-0.424 3.548,-0.626 1.189,-0.167 2.38,-0.315 3.575,-0.449 2.389,-0.267 4.794,-0.389 7.202,-0.42 2.407,-0.01 4.82,0.089 7.213,0.382 1.197,0.137 2.388,0.325 3.571,0.543 1.18,0.243 2.351,0.521 3.503,0.865 -1.198,-0.122 -2.378,-0.302 -3.572,-0.38 -1.187,-0.118 -2.375,-0.219 -3.566,-0.262 -2.379,-0.109 -4.759,-0.181 -7.141,-0.149 -2.383,0.006 -4.765,0.1 -7.152,0.184 -2.389,0.092 -4.778,0.249 -7.181,0.312 z"
               id="path206" />
          </g>
        </g>
      </g>
    </g>
  </g>
</svg>
