<?xml version="1.0" encoding="UTF-8" standalone="no"?>
<!-- Created with Inkscape (http://www.inkscape.org/) -->

<svg
   width="88.485001mm"
   height="173.49329mm"
   viewBox="0 0 88.485001 173.49329"
   version="1.1"
   id="svg1"
   inkscape:version="1.4.3 (0d15f75, 2025-12-25)"
   sodipodi:docname="shoe.svg"
   xmlns:inkscape="http://www.inkscape.org/namespaces/inkscape"
   xmlns:sodipodi="http://sodipodi.sourceforge.net/DTD/sodipodi-0.dtd"
   xmlns="http://www.w3.org/2000/svg"
   xmlns:svg="http://www.w3.org/2000/svg">
  <sodipodi:namedview
     id="namedview1"
     pagecolor="#ffffff"
     bordercolor="#000000"
     borderopacity="0.25"
     inkscape:showpageshadow="2"
     inkscape:pageopacity="0.0"
     inkscape:pagecheckerboard="0"
     inkscape:deskcolor="#d1d1d1"
     inkscape:document-units="mm"
     inkscape:zoom="0.72604517"
     inkscape:cx="396.66953"
     inkscape:cy="451.07386"
     inkscape:window-width="1920"
     inkscape:window-height="1017"
     inkscape:window-x="-8"
     inkscape:window-y="-8"
     inkscape:window-maximized="1"
     inkscape:current-layer="layer1" />
  <defs
     id="defs1" />
  <g
     inkscape:label="Layer 1"
     inkscape:groupmode="layer"
     id="layer1">
    <g
       id="g265"
       transform="matrix(0.26458452,0,0,0.26458452,-630.35886,-303.06171)">
			<path
   style="fill:#b57243"
   d="m 2486.121,1798.298 c 27.93,-8.303 48.783,-2.076 73.693,-90.3 24.91,-88.224 74.731,-325.91 65.389,-374.692 -9.341,-48.783 -51.896,-134.931 -99.641,-152.576 -47.745,-17.645 -80.958,-17.645 -96.527,-8.303 -15.569,9.341 -34.252,33.214 -39.441,184.751 -5.19,151.538 -13.493,375.73 5.189,401.678 18.683,25.949 52.934,50.859 91.338,39.442 z"
   id="path247" />

			<path
   style="fill:#99573a"
   d="m 2486.121,1777.508 c 27.93,-8.304 48.783,-2.076 73.693,-90.3 24.91,-88.224 74.731,-325.91 65.389,-374.692 -9.341,-48.783 -51.896,-134.931 -99.641,-152.576 -47.745,-17.645 -80.958,-17.645 -96.527,-8.303 -15.569,9.341 -34.252,33.214 -39.441,184.751 -5.19,151.538 -13.493,375.73 5.189,401.678 18.683,25.949 52.934,50.859 91.338,39.442 z"
   id="path248" />

			<path
   style="fill:#8e4f2b"
   d="m 2389.593,1336.388 c 5.189,-151.538 23.872,-175.41 39.441,-184.751 15.569,-9.341 48.782,-9.341 96.527,8.303 28.582,10.563 55.3,45.675 74.149,82.624 -18.325,-12.927 -42.48,-14.523 -65.067,-14.4 -8.034,0.043 -16.368,0.305 -23.569,3.867 -9.049,4.477 -14.905,13.441 -19.884,22.224 -25.117,44.3 -39.127,94.239 -46.219,144.667 -7.092,50.429 -7.466,101.55 -6.716,152.47 0.249,16.861 0.799,34.445 8.763,49.309 21.314,-14.599 52.706,-9.584 70.823,8.833 18.117,18.417 23.157,47.457 15.59,72.158 9.744,1.326 19.604,-0.08 28.858,-3.443 -0.849,3.132 -1.676,6.124 -2.476,8.959 -24.91,88.224 -45.763,81.996 -73.693,90.3 -38.403,11.417 -72.655,-13.493 -91.338,-39.441 -18.682,-25.949 -10.378,-250.141 -5.189,-401.679 z"
   id="path249" />

			<polygon
   style="fill:#824222"
   points="2608.664,1467.603 2598.754,1519.032 2382.448,1489.463 2397.266,1440.933 "
   id="polygon249" />

			<path
   style="fill:#824222"
   d="m 2388.556,1366.624 c -0.095,2.767 -0.19,5.552 -0.285,8.351 l 228.01,47.452 c 1.665,-10.514 3.168,-20.648 4.475,-30.27 l -206.215,-69.162 z"
   id="path250" />

			<g
   id="g256">
				<path
   style="fill:#ddb32a"
   d="m 2382.898,1483.914 c 0,0 49.378,-17.243 114.403,-11.968 65.879,5.344 110.979,30.251 110.979,30.251 l 4.97,-61.274 c 0,0 -44.246,-24.838 -110.979,-30.251 -72.993,-5.921 -116.973,11.968 -116.973,11.968 z"
   id="path251" />

				<path
   style="fill:#b27d1f"
   d="m 2599.214,1518.616 54.441,4.416 c 18.025,1.462 33.823,-11.965 35.286,-29.991 l 0.766,-9.443 -87.08,-7.064 z"
   id="path252" />

				<path
   style="fill:#ddb32a"
   d="m 2599.579,1514.12 53.061,4.304 c 18.788,1.524 35.254,-12.471 36.778,-31.259 l 0.056,-0.687 c 1.524,-18.788 -12.471,-35.254 -31.259,-36.778 l -53.061,-4.304 z"
   id="path253" />

				<path
   style="fill:#b27d1f"
   d="m 2382.448,1489.463 c 0,0 50.232,-17.174 114.403,-11.968 64.171,5.206 110.979,30.251 110.979,30.251 l 0.45,-5.549 c 0,0 -44.815,-24.884 -110.979,-30.251 -64.74,-5.252 -114.403,11.968 -114.403,11.968 z"
   id="path254" />

				<polygon
   style="fill:#b27d1f"
   points="2600.597,1501.574 2598.843,1518.585 2606.898,1519.239 2608.28,1502.197 "
   id="polygon254" />

				<path
   style="fill:#705d57"
   d="m 2514.673,1417.157 -16.457,48.306 c -2.535,7.44 1.74,15.183 9.607,17.117 l 76.45,18.794 c 7.867,1.934 15.244,-2.945 16.448,-10.712 l 7.816,-50.431 c 0.985,-6.355 -3.819,-12.773 -10.71,-14.467 l -66.957,-16.46 c -6.891,-1.693 -14.123,1.766 -16.197,7.853 z m 41.875,46.73 c 0.921,-3.845 4.912,-6.125 8.924,-5.139 l 21.186,5.208 c 4.012,0.986 6.722,4.913 6.045,8.819 l -2.172,12.513 c -0.717,4.132 -4.712,6.686 -8.914,5.653 l -22.186,-5.454 c -4.202,-1.033 -6.808,-5.21 -5.834,-9.279 z m 7.81,-32.605 c 0.82,-3.421 4.545,-5.407 8.332,-4.476 l 19.991,4.914 c 3.786,0.931 6.372,4.469 5.77,7.943 l -1.929,11.112 c -0.636,3.663 -4.363,5.88 -8.318,4.908 l -20.879,-5.133 c -3.954,-0.972 -6.451,-4.719 -5.587,-8.326 z m -38.532,-8.864 c 1.163,-3.676 5.446,-5.795 9.581,-4.778 l 11.144,2.74 c 4.135,1.017 6.704,4.82 5.725,8.541 l -10.813,41.097 c -1.152,4.376 -5.803,7.062 -10.374,5.938 l -12.317,-3.028 c -4.571,-1.124 -7.152,-5.587 -5.785,-9.91 z"
   id="path255" />

				<path
   style="fill:#563c37"
   d="m 2514.673,1417.157 -16.457,48.306 c -2.535,7.44 1.74,15.183 9.607,17.117 l 38.225,9.397 18.3,-74.442 -33.478,-8.23 c -6.891,-1.694 -14.123,1.765 -16.197,7.852 z m 11.153,5.261 c 1.163,-3.676 5.446,-5.795 9.581,-4.778 l 11.144,2.74 c 4.135,1.017 6.704,4.82 5.725,8.541 l -10.813,41.097 c -1.152,4.376 -5.803,7.062 -10.374,5.938 l -12.317,-3.028 c -4.571,-1.124 -7.152,-5.587 -5.785,-9.91 z"
   id="path256" />

			</g>

			<g
   id="g262">
				<path
   style="fill:#ddb32a"
   d="m 2386.529,1367.091 c 0,0 59.657,-15.07 127.966,-5.202 69.205,9.998 115.178,39.277 115.178,39.277 l 9.299,-64.369 c 0,0 -45.076,-29.15 -115.178,-39.277 -76.679,-11.077 -134.914,7.186 -134.914,7.186 z"
   id="path257" />

				<path
   style="fill:#b27d1f"
   d="m 2619.015,1417.903 57.19,8.262 c 18.936,2.736 36.504,-10.397 39.24,-29.333 l 1.433,-9.92 -91.477,-13.215 z"
   id="path258" />

				<path
   style="fill:#ddb32a"
   d="m 2619.698,1413.18 55.74,8.052 c 19.737,2.851 38.048,-10.837 40.899,-30.574 l 0.104,-0.722 c 2.851,-19.737 -10.837,-38.048 -30.574,-40.899 l -55.74,-8.053 z"
   id="path259" />

				<path
   style="fill:#b27d1f"
   d="m 2386.529,1373.337 c 0,0 59.712,-15.357 127.124,-5.618 67.412,9.739 115.178,39.277 115.178,39.277 l 0.842,-5.829 c 0,0 -45.674,-29.237 -115.178,-39.277 -68.01,-9.825 -127.966,5.202 -127.966,5.202 z"
   id="path260" />

				
					<rect
   x="2615.3"
   y="1405.457"
   transform="matrix(0.143,-0.9897,0.9897,0.143,854.0755,3805.3894)"
   style="fill:#b27d1f"
   width="18.087999"
   height="8.1549997"
   id="rect260" />

				<path
   style="fill:#705d57"
   d="m 2536.459,1305.188 -20.57,49.917 c -3.168,7.688 0.833,16.146 9.012,18.708 l 79.478,24.898 c 8.179,2.562 16.291,-2.101 18.075,-10.223 l 11.586,-52.731 c 1.46,-6.645 -3.188,-13.739 -10.352,-15.983 l -69.608,-21.806 c -7.164,-2.244 -15.028,0.93 -17.621,7.22 z m 41.124,52.109 c 1.227,-3.999 5.591,-6.143 9.762,-4.836 l 22.025,6.9 c 4.171,1.307 6.773,5.632 5.8,9.711 l -3.12,13.068 c -1.031,4.315 -5.418,6.748 -9.786,5.38 l -23.065,-7.225 c -4.368,-1.369 -6.844,-5.952 -5.546,-10.183 z m 10.403,-33.911 c 1.091,-3.557 5.156,-5.408 9.093,-4.175 l 20.782,6.51 c 3.936,1.233 6.433,5.14 5.567,8.768 l -2.771,11.605 c -0.914,3.826 -4.996,5.92 -9.107,4.632 l -21.706,-6.8 c -4.111,-1.288 -6.5,-5.409 -5.349,-9.161 z m -40.099,-11.905 c 1.471,-3.804 6.133,-5.758 10.432,-4.411 l 11.585,3.629 c 4.299,1.347 6.76,5.532 5.48,9.396 l -14.134,42.678 c -1.505,4.544 -6.594,7.073 -11.345,5.584 l -12.805,-4.011 c -4.751,-1.489 -7.182,-6.372 -5.453,-10.846 z"
   id="path261" />

				<path
   style="fill:#563c37"
   d="m 2536.459,1305.188 -20.57,49.917 c -3.168,7.688 0.833,16.146 9.012,18.708 l 39.739,12.449 24.244,-77.391 -34.804,-10.903 c -7.164,-2.244 -15.028,0.93 -17.621,7.22 z m 11.428,6.293 c 1.471,-3.804 6.133,-5.758 10.432,-4.411 l 11.585,3.629 c 4.299,1.347 6.76,5.532 5.48,9.396 l -14.134,42.678 c -1.505,4.544 -6.594,7.073 -11.345,5.584 l -12.805,-4.011 c -4.751,-1.488 -7.182,-6.372 -5.453,-10.846 z"
   id="path262" />

				<polygon
   style="fill:#db982c"
   points="2638.256,1341.756 2652.91,1344.277 2672.595,1420.822 2627.769,1414.347 "
   id="polygon262" />

			</g>

			<polygon
   style="fill:#db982c"
   points="2612.78,1445.926 2631.066,1447.498 2650.073,1518.217 2606.665,1514.796 "
   id="polygon263" />

			<polygon
   style="fill:#db982c"
   points="2448.094,1296.086 2458.821,1295.415 2455.248,1357.5 2444.526,1357.947 "
   id="polygon264" />

			<polygon
   style="fill:#db982c"
   points="2437.745,1411.152 2448.472,1410.481 2444.898,1472.176 2434.177,1473.013 "
   id="polygon265" />

		</g>
  </g>
</svg>
