<?xml version="1.0" encoding="UTF-8" standalone="no"?>
<!-- Created with Inkscape (http://www.inkscape.org/) -->

<svg
   width="49mm"
   height="106mm"
   viewBox="0 0 49 106"
   version="1.1"
   id="svg1"
   xml:space="preserve"
   inkscape:version="1.4.3 (0d15f75, 2025-12-25)"
   sodipodi:docname="snail.svg"
   xmlns:inkscape="http://www.inkscape.org/namespaces/inkscape"
   xmlns:sodipodi="http://sodipodi.sourceforge.net/DTD/sodipodi-0.dtd"
   xmlns="http://www.w3.org/2000/svg"
   xmlns:svg="http://www.w3.org/2000/svg"><sodipodi:namedview
     id="namedview1"
     pagecolor="#ffffff"
     bordercolor="#000000"
     borderopacity="0.25"
     inkscape:showpageshadow="2"
     inkscape:pageopacity="0.0"
     inkscape:pagecheckerboard="0"
     inkscape:deskcolor="#d1d1d1"
     inkscape:document-units="mm"
     inkscape:zoom="1.4520904"
     inkscape:cx="6.8866237"
     inkscape:cy="124.30356"
     inkscape:window-width="1920"
     inkscape:window-height="1017"
     inkscape:window-x="-8"
     inkscape:window-y="-8"
     inkscape:window-maximized="1"
     inkscape:current-layer="g415" /><defs
     id="defs1" /><g
     inkscape:label="Layer 1"
     inkscape:groupmode="layer"
     id="layer1"><g
       id="g748"
       transform="matrix(0.59374537,0,0,0.59374537,-192.92629,-16.992755)">
		
		<g
   id="g747"
   transform="translate(-0.49099418)">
			
			<g
   id="g746">
				<g
   id="g741">
					<g
   id="g409"
   inkscape:label="body">
						<path
   style="fill:#e9cea9"
   d="m 389.456,76.314 c -2.293,-2.923 -4.988,-5.497 -7.28,-8.422 -2.137,-2.729 -3.991,-5.69 -5.232,-8.94 -1.522,-3.998 -4.317,-8.274 -8.439,-9.92 -1.934,-0.772 -4.142,-1.093 -6.162,-0.466 -1.695,0.525 -3.211,1.504 -4.535,2.672 -2.966,2.62 -5.246,5.939 -7.393,9.233 -0.605,0.929 -9.865,22.329 -13.605,32.195 -4.015,10.593 -6.593,21.987 -6.435,33.359 0.147,10.79 1.955,21.667 6.544,31.496 4.685,10.031 13.604,17.034 20.296,25.605 3.549,4.542 6.918,9.223 10.342,13.856 2.652,3.587 5.985,8.293 10.296,9.932 3.796,1.444 6.524,-2.87 7.7,-5.794 1.911,-4.752 3.008,-9.853 3.995,-14.863 1.168,-5.931 2.08,-11.901 3.426,-17.797 1.275,-5.589 2.346,-11.222 3.233,-16.884 1.85,-11.775 2.507,-23.751 2.169,-35.661 -0.313,-11.08 -1.427,-22.386 -4.61,-33.005 -1.248,-2.31 -2.683,-4.52 -4.31,-6.596 z"
   id="path257" />
						<path
   style="opacity:0.5;fill:#c4a172"
   d="m 390.489,92.544 c -2.818,-3.149 -6.565,-5.463 -8.404,-9.419 -2.095,-4.504 -2.278,-9.646 -3.341,-14.439 -0.734,-3.305 -1.362,-6.63 -1.894,-9.969 -1.544,-3.93 -4.305,-8.071 -8.346,-9.686 -1.934,-0.772 -4.142,-1.093 -6.162,-0.466 -1.695,0.525 -3.211,1.504 -4.535,2.672 -2.966,2.62 -5.246,5.939 -7.393,9.233 -0.057,0.086 -0.191,0.358 -0.392,0.783 0.043,0.062 0.073,0.135 0.079,0.225 0.314,4.329 -0.977,8.651 -1.494,12.924 -0.478,3.927 -1.146,7.689 -3.093,11.18 -3.278,5.88 -8.34,10.524 -11.747,16.303 -2.212,7.856 -3.506,16.002 -3.393,24.14 0.147,10.79 1.955,21.667 6.544,31.496 4.685,10.031 13.604,17.034 20.296,25.605 3.549,4.542 6.918,9.223 10.342,13.856 2.652,3.587 5.985,8.293 10.296,9.932 3.796,1.444 6.524,-2.87 7.7,-5.794 1.911,-4.752 3.008,-9.853 3.995,-14.863 1.168,-5.931 2.08,-11.901 3.426,-17.797 1.275,-5.589 2.346,-11.222 3.233,-16.884 1.85,-11.775 2.507,-23.751 2.169,-35.661 -0.11,-3.942 -0.327,-7.915 -0.699,-11.874 -2.338,-3.846 -4.165,-8.127 -7.187,-11.497 z"
   id="path258" />
						
						<path
   style="fill:#c4a172"
   d="m 388.003,190.268 c 0.684,-5.535 1.677,-11.276 0.989,-16.857 -0.731,-5.938 -2.063,-11.778 -3.215,-17.642 -0.728,-3.695 -1.517,-7.396 -2.739,-10.964 -1.307,-3.808 -3.08,-7.655 -5.945,-10.555 -2.992,-3.026 -7.147,-4.872 -11.457,-4.492 -10.188,0.895 -13.126,12.662 -13.596,21.105 -0.982,17.676 7.927,33.371 17.001,48.119 2.386,3.168 5.269,6.583 8.812,7.932 3.796,1.444 6.524,-2.87 7.7,-5.794 0.745,-1.85 1.362,-3.753 1.902,-5.681 0.138,-1.73 0.337,-3.456 0.548,-5.171 z"
   id="path260" />
						<path
   style="fill:#c4a172"
   d="m 350.88,107.513 c 7.653,1.489 15.678,-0.396 22.771,-3.31 2.613,-1.073 5.185,-2.307 7.675,-3.697 -0.635,-5.992 -1.253,-12.701 -1.954,-17.93 -1.445,-10.765 0.582,-37.633 -15.586,-38.782 -9.132,-0.65 -11.849,9.136 -12.681,16.34 -0.456,3.943 -1.087,8.161 -1.082,12.131 0.004,3.043 -0.158,6.084 -0.441,9.115 -0.564,5.99 -1.564,11.926 -2.317,17.894 -0.287,2.288 -0.555,4.577 -0.813,6.867 1.407,0.608 2.887,1.071 4.428,1.372 z"
   id="path261" />
						
						
						
						<g
   id="g405"
   inkscape:label="right antenna">
							<path
   style="fill:#e9cea9"
   d="m 371.05,47.712 c 0,0 16.755,-12.879 20.209,-17.026 0,0 0.272,-0.396 0.617,-1.44 0.347,-1.043 3.168,-0.909 2.103,1.364 0,0 -0.737,0.477 -1.853,0.884 -1.116,0.407 -18.695,20.062 -18.695,20.062 0,0 -3.972,-0.922 -2.381,-3.844 z"
   id="path403" />
							
							<path
   style="fill:#14120f"
   d="m 393.528,29.529 c 0.003,0.129 -0.099,0.238 -0.228,0.241 -0.13,0.004 -0.238,-0.099 -0.241,-0.228 -0.004,-0.129 0.099,-0.237 0.228,-0.241 0.129,-0.004 0.237,0.098 0.241,0.228 z"
   id="path405" />
						</g>
						<g
   id="g408"
   inkscape:label="left antenna">
							<path
   style="fill:#e9cea9"
   d="m 356.464,48.122 c 0,0 -17.45,-11.922 -21.13,-15.871 0,0 -0.292,-0.381 -0.695,-1.401 -0.405,-1.023 -3.216,-0.732 -2.026,1.477 0,0 0.764,0.436 1.9,0.781 1.138,0.343 19.789,18.984 19.789,18.984 0,0 3.914,-1.142 2.162,-3.97 z"
   id="path406" />
							
							<path
   style="fill:#14120f"
   d="m 333.004,31.223 c 0.004,0.129 0.112,0.232 0.242,0.229 0.129,-0.005 0.231,-0.113 0.228,-0.243 -0.004,-0.128 -0.111,-0.23 -0.241,-0.227 -0.13,0.002 -0.232,0.112 -0.229,0.241 z"
   id="path408" />
						</g>
					</g>
					<g
   id="g740"
   inkscape:label="shell">
						<g
   id="g418">
							<g
   id="g415">
								<g
   id="g410">
									<path
   style="fill:#a25d1c"
   d="m 398.282,104.143 c 0,0 -8.8,-22.253 -36.631,-18.872 -27.83,3.38 -39.851,27.505 -35.284,56.232 4.565,28.728 44.171,53.911 67.426,22.986 20.344,-27.053 4.489,-60.346 4.489,-60.346 z"
   id="path409" />
									<path
   style="opacity:0.6;fill:#b58c7a"
   d="m 398.282,104.143 c 0,0 -8.8,-22.253 -36.631,-18.872 -0.693,0.082 -1.373,0.184 -2.05,0.295 3.464,-0.238 6.953,-0.1 10.343,0.404 7.103,1.055 14.447,3.852 19.132,9.536 1.142,1.385 2.112,2.89 2.887,4.511 0.541,1.131 1.148,2.533 0.856,3.82 -0.502,2.221 -3.268,2.512 -5.139,2.621 -2.833,0.166 -5.73,-0.146 -8.516,0.481 -4.327,0.974 -8.496,2.685 -12.183,5.163 -7.674,5.156 -12.852,13.174 -14.391,22.293 -0.997,5.907 -0.277,11.819 0.117,17.741 0.281,4.214 0.761,9.502 -1.711,13.234 -1.803,2.721 -5.193,3.934 -8.355,3.204 -0.128,-0.032 -0.253,-0.065 -0.381,-0.099 14.813,12.575 36.56,15.924 51.531,-3.985 20.346,-27.054 4.491,-60.347 4.491,-60.347 z"
   id="path410" />
								</g>
								<path
   style="fill:#bb6c21"
   d="m 406.085,145.62 c 2.214,-9.747 1.35,-20.145 -3.666,-28.527 -2.086,-3.485 -6.424,-7.362 -10.48,-8.376 -17.595,-4.392 -36.245,13.978 -36.025,35.203 0.218,21.224 22.155,38.244 36.957,24.997 6.474,-5.793 11.165,-14.265 13.214,-23.297 z"
   id="path411" />
								<path
   style="opacity:0.6;fill:#b58c7a"
   d="m 402.419,117.093 c -2.086,-3.485 -6.424,-7.362 -10.48,-8.376 -13.135,-3.277 -26.856,6.129 -32.878,19.938 0.671,-1.216 1.393,-2.402 2.172,-3.546 2.409,-3.542 5.305,-6.857 8.825,-9.336 3.061,-2.153 6.859,-3.963 10.693,-3.775 3.214,0.156 6.893,1.253 9.136,3.688 0.99,1.076 1.883,2.601 1.8,4.124 -0.102,1.826 -1.229,3.376 -2.44,4.666 -1.423,1.516 -3.032,2.839 -4.505,4.304 -1.849,1.838 -3.653,3.757 -5.107,5.933 -3.214,4.813 -4.627,10.514 -4.544,16.272 0.034,2.46 0.796,5.172 -0.196,7.53 -0.73,1.733 -2.02,3.253 -3.726,4.089 -1.563,0.763 -3.376,1.08 -5.082,0.641 -1.817,-0.467 -3.403,-1.649 -4.756,-2.918 -0.623,-0.583 -1.193,-1.212 -1.729,-1.869 6.91,13.236 22.112,20.442 33.267,10.459 6.474,-5.792 11.165,-14.264 13.214,-23.296 2.216,-9.748 1.352,-20.145 -3.664,-28.528 z"
   id="path412" />
								<path
   style="fill:#a25d1c"
   d="m 406.932,141.466 c 0.023,-0.034 0.04,-0.071 0.039,-0.093 0,0 -0.074,-0.163 -0.118,-0.12 -0.023,-0.056 -0.049,-0.108 -0.073,-0.164 -0.036,-0.269 -0.136,-0.533 -0.282,-0.791 -0.224,-5.984 -1.882,-17.673 -11.592,-15.165 -10.46,2.702 -15.435,13.747 -15.76,23.15 -0.225,6.452 2.006,18.753 10.848,18.739 5.141,0.813 10.288,-1.901 13.422,-5.885 3.252,-4.132 4.626,-9.385 4.528,-14.578 -0.031,-1.564 -0.356,-3.398 -1.012,-5.093 z"
   id="path413" />
								<path
   style="opacity:0.6;fill:#b58c7a"
   d="m 407.661,144.014 c -0.068,0.666 -0.251,1.292 -0.57,1.749 -0.425,0.607 -1.012,0.918 -1.758,0.743 -0.784,-0.185 -1.254,-0.89 -2.128,-0.87 -0.718,0.016 -1.453,0.128 -2.128,0.389 -4.618,1.787 -4.188,8.067 -2.404,11.758 0.056,0.118 0.003,0.296 -0.152,0.289 -2.62,-0.128 -3.775,-2.953 -4.26,-5.16 -0.602,-2.733 -0.65,-5.6 0.339,-8.253 1.106,-2.971 3.438,-5.662 6.826,-5.77 1.58,-0.051 3.74,0.577 5.229,1.745 -0.044,-0.113 -0.096,-0.225 -0.158,-0.335 -0.224,-5.984 -1.882,-17.673 -11.592,-15.165 -1.341,0.347 -2.59,0.833 -3.751,1.43 1.251,-0.307 2.594,-0.236 3.71,0.465 1.289,0.812 1.088,2.467 0.597,3.685 -0.636,1.578 -1.64,2.969 -2.634,4.338 -1.313,1.812 -2.591,3.67 -3.61,5.668 -2.159,4.23 -2.818,8.704 -2.296,13.397 0.153,1.378 0.453,3.633 -0.876,4.591 -1.485,1.067 -2.905,0.038 -3.899,-1.176 -1.88,-2.293 -2.78,-5.221 -3.014,-8.194 0.04,6.648 2.48,17.698 10.861,17.685 5.141,0.813 10.288,-1.901 13.422,-5.885 3.252,-4.132 4.626,-9.385 4.528,-14.578 -0.014,-0.796 -0.109,-1.664 -0.282,-2.546 z m -4.027,4.583 c -0.096,0.966 -0.519,1.79 -1.296,2.386 -0.611,0.471 -1.349,0.914 -1.521,1.729 -0.213,1.005 0.136,1.905 0.549,2.804 0.071,0.153 -0.03,0.308 -0.203,0.282 -3.705,-0.568 -2.713,-6.525 -0.41,-8.308 0.384,-0.379 0.876,-0.614 1.493,-0.565 0.31,0.025 0.593,0.151 0.824,0.344 0.064,0.036 0.129,0.068 0.193,0.111 0.074,0.05 0.097,0.128 0.083,0.199 0.207,0.294 0.323,0.651 0.288,1.018 z"
   id="path414" />
								
							</g>
							
						</g>
						
						
						
						
						
						
						
						
						
						
						
						
						
						
						
						
						
						
						
						
						
						
						
						
						
						
						
						
						
						
						
						
						
						
						
						
						
						
						
						
						
						
						
						
						
						
						
						
						
						
						
						
						
						
						
						
						
						
						
						
						
						
						
						
						
						
						
						
						
						
						
						
						
						
						
						
						
						
						
						
						
						
						
						
						
						
						
						
						
						
						
						
						
						
						
						
						
						
						
						
						
						
						
						
						
						
						
						
						
						
						
						
						
						
						
						
						
						
						
						
						
						
						
						
						
						
						
						
						
						
						
						
						
						
						
						
						
						
						
						
						
						
						
						
						
						
						
						
						
						
						
						
						
						
						
						
						
						
						
						
						
						
						
						
						
						
						
						
						
						
						
						
						
						
						
						
						
						
						
						
						
						
						
						
						
						
						
						
						
						
						
						
						
						
						
						
						
						
						
						
						
						
						
						
						
						
						
						
						
						
						
						
						
						
						
						
						
						
						
						
						
						
						
						
						
						
						
						
						
						
						
						
						
						
						
						
						
						
						
						
						
						
						
						
						
						
						
						
						
						
						
						
						
						
						
						
						
						
						
						
						
						
						
						
						
						
						
						
						
						
						
						
						
						
						
						
						
						
						
						
						
						
						
						
						
						
						
						
						
						
						
						
						
						
						
						
						
						
						
						
						
						
						
						
						
						
						
						
						
						
						
						
						
						
						
						
						
						
						
						
						
						
						
					</g>
				</g>
				
			</g>
		</g>
	</g></g></svg>
