<?xml version="1.0" encoding="UTF-8" standalone="no"?>
<!-- Created with Inkscape (http://www.inkscape.org/) -->

<svg
   width="30.200001mm"
   height="34mm"
   viewBox="0 0 30.200001 34"
   version="1.1"
   id="svg1"
   inkscape:version="1.4.3 (0d15f75, 2025-12-25)"
   sodipodi:docname="spider.svg"
   xmlns:inkscape="http://www.inkscape.org/namespaces/inkscape"
   xmlns:sodipodi="http://sodipodi.sourceforge.net/DTD/sodipodi-0.dtd"
   xmlns="http://www.w3.org/2000/svg"
   xmlns:svg="http://www.w3.org/2000/svg">
  <sodipodi:namedview
     id="namedview1"
     pagecolor="#ffffff"
     bordercolor="#000000"
     borderopacity="0.25"
     inkscape:showpageshadow="2"
     inkscape:pageopacity="0.0"
     inkscape:pagecheckerboard="0"
     inkscape:deskcolor="#d1d1d1"
     inkscape:document-units="mm"
     inkscape:zoom="11.616723"
     inkscape:cx="51.133182"
     inkscape:cy="49.454567"
     inkscape:window-width="1920"
     inkscape:window-height="1017"
     inkscape:window-x="-8"
     inkscape:window-y="-8"
     inkscape:window-maximized="1"
     inkscape:current-layer="g146"
     showgrid="false" />
  <defs
     id="defs1" />
  <g
     inkscape:label="Layer 1"
     inkscape:groupmode="layer"
     id="layer1">
    <g
       id="g147"
       transform="matrix(0.48703376,0,0,0.48703376,-173.37429,-119.40294)">
      <g
         id="g133">
        <g
           id="g124">
          <path
             style="fill:#505050"
             d="m 375.714,304.571 c -0.32031,3.2408 -0.62195,6.48345 -0.95404,9.72309 -0.17468,0.85434 -1.62366,0.60172 -1.43661,-0.28986 0.3023,-3.24094 0.61401,-6.48528 0.94703,-9.72491 0.17812,-0.77871 1.48898,-0.61604 1.44521,0.19995 l -0.002,0.0918 z"
             id="path124" />
        </g>
        <g
           id="g125">
          <path
             style="fill:#505050"
             d="m 369.214,292.461 c -1.6243,1.10167 -3.32822,2.07899 -4.9716,3.1512 -0.58792,0.36882 -1.17831,0.73387 -1.77721,1.08464 -0.61164,0.22981 -1.22212,-0.62409 -0.81925,-1.13145 0.53016,-0.48139 1.20264,-0.76935 1.78307,-1.18401 1.64788,-1.0351 3.29196,-2.0763 4.94773,-3.09878 0.66155,-0.32246 1.39158,0.65878 0.83726,1.1784 z"
             id="path125" />
        </g>
        <g
           id="g126">
          <path
             style="fill:#505050"
             d="m 365.222,268.35 c -0.22466,0.3802 -0.77768,0.45112 -1.11013,0.17198 -2.59362,-1.61933 -5.18725,-3.23865 -7.78087,-4.85798 -0.46787,-0.267 -0.46136,-1.03152 0.0262,-1.27458 0.32197,-0.20254 0.69247,-0.0492 0.9683,0.15362 2.55517,1.59532 5.11034,3.19064 7.66551,4.78596 0.33975,0.20558 0.44331,0.68892 0.231,1.021 z"
             id="path126" />
        </g>
        <g
           id="g127">
          <path
             style="fill:#505050"
             d="m 378.256,255.777 c 0.006,0.53421 -0.6502,0.90072 -1.10145,0.61271 -0.41054,-0.22522 -0.37675,-0.73221 -0.46775,-1.12875 -0.53988,-3.10173 -1.08927,-6.20204 -1.6232,-9.30468 -0.0681,-0.56283 0.61991,-0.99667 1.0996,-0.69587 0.4174,0.21563 0.38487,0.72039 0.47371,1.11523 0.53669,3.08312 1.07339,6.16624 1.61009,9.24936 l 0.008,0.0768 z"
             id="path127" />
        </g>
        <g
           id="g128">
          <path
             style="fill:#303030"
             d="m 384.95,270.661 c -0.32729,0.37854 -0.9776,0.24709 -1.22757,-0.15422 -0.44539,-0.4423 -0.94951,-0.82855 -1.33874,-1.32505 -0.17062,-0.38168 0.0474,-0.78199 0.18324,-1.13739 0.15495,-0.26018 0.24619,-0.58882 0.0612,-0.859 -0.27847,-0.63916 -0.57139,-1.27237 -0.82466,-1.92219 -0.15297,-0.58628 0.63795,-1.14573 1.12666,-0.76274 0.38669,0.28843 0.44017,0.80411 0.66133,1.20291 0.24284,0.54647 0.49414,1.08989 0.70311,1.65058 0.0546,0.43088 -0.22598,0.79643 -0.34443,1.19068 0.0136,0.34368 0.38774,0.47473 0.58026,0.70677 0.27877,0.2503 0.64633,0.52676 0.62187,0.94497 -0.01,0.172 -0.078,0.34341 -0.2023,0.46468 z"
             id="path128" />
        </g>
        <g
           id="g129">
          <path
             style="fill:#303030"
             d="m 386.161,283.383 c -0.39919,0.82202 -1.38552,1.03598 -2.06931,1.55192 -1.30191,0.775 -2.60141,1.55406 -3.90569,2.32508 -0.98308,3.46657 -2.05617,6.91101 -2.98134,10.39188 -0.3465,2.02637 -0.61087,4.07164 -1.01263,6.08554 -0.40264,0.99165 -2.09852,0.73362 -2.09984,-0.37346 0.0523,-1.04081 0.32666,-2.06371 0.45071,-3.10052 0.27744,-1.75465 0.49451,-3.52782 1.07522,-5.21519 0.89229,-3.01084 1.71958,-6.04731 2.65862,-9.04035 0.50851,-0.69723 1.41364,-0.92556 2.08676,-1.42776 1.5162,-0.87476 2.97815,-1.86729 4.54595,-2.63841 0.78127,-0.17855 1.56953,0.68287 1.25155,1.44127 z"
             id="path129" />
        </g>
        <g
           id="g130">
          <path
             style="fill:#303030"
             d="m 384.631,278.227 c -0.2105,0.79277 -1.13333,0.92766 -1.7837,0.62655 -3.23911,-0.96732 -6.48959,-1.9009 -9.72236,-2.88674 -0.5839,-0.37992 -0.97398,-0.99165 -1.46478,-1.4822 -0.76102,-0.82789 -1.4975,-1.68605 -2.27371,-2.4952 -1.52796,-0.89242 -3.06254,-1.77397 -4.58633,-2.67323 -0.7911,-0.51829 -0.46055,-1.91353 0.49541,-1.99271 0.69625,-0.0574 1.22096,0.49207 1.81258,0.77418 1.24006,0.73137 2.49962,1.43206 3.72726,2.18297 1.1383,1.21645 2.23467,2.47394 3.35663,3.70638 3.26568,0.96887 6.53677,1.92113 9.79907,2.90036 0.51404,0.20202 0.81123,0.81165 0.63993,1.33964 z"
             id="path130" />
        </g>
        <g
           id="g131">
          <path
             style="fill:#303030"
             d="m 384.249,276.449 c -0.55524,0.44933 -1.38457,0.19017 -1.716,-0.402 -1.37178,-1.78007 -2.75664,-3.55045 -4.12022,-5.33659 -0.25303,-0.65522 -0.24001,-1.3834 -0.36743,-2.07268 -0.54157,-4.00483 -1.10515,-8.00732 -1.63293,-12.01361 -0.0591,-0.96323 1.28346,-1.50283 1.91402,-0.78081 0.42204,0.4924 0.32171,1.19078 0.45402,1.78965 0.54818,4.02535 1.09636,8.05069 1.64454,12.07604 1.35926,1.76003 2.72931,3.51212 4.08288,5.2763 0.3009,0.46311 0.1819,1.13138 -0.25888,1.4637 z"
             id="path131" />
        </g>
        <g
           id="g132">
          <path
             style="fill:#303030"
             d="m 384.053,281.365 c -2.44071,1.20906 -4.89064,2.39937 -7.335,3.601 -2.24792,2.44233 -4.43732,4.9385 -6.72283,7.34616 -1.04285,0.7692 -2.41784,-1.06177 -1.29067,-1.80671 2.1727,-2.44337 4.39457,-4.8423 6.59523,-7.26036 2.63858,-1.3978 5.34569,-2.65955 8.03041,-3.96485 1.17242,-0.31815 1.94153,1.61959 0.72286,2.08476 z"
             id="path132" />
        </g>
      </g>
      <g
         id="g146">
        <g
           id="g134">
          <path
             style="fill:#505050"
             d="m 399.832,314.839 c 0.022,0 0.047,-0.002 0.071,-0.004 0.406,-0.039 0.703,-0.4 0.663,-0.807 l -0.931,-9.602 c -0.038,-0.404 -0.393,-0.707 -0.806,-0.663 -0.406,0.04 -0.703,0.4 -0.663,0.808 l 0.931,9.601 c 0.038,0.381 0.358,0.667 0.735,0.667 z"
             id="path133" />
        </g>
        <g
           id="g135">
          <path
             style="fill:#505050"
             d="m 411.621,296.721 c 0.247,0 0.486,-0.123 0.627,-0.346 0.216,-0.346 0.111,-0.802 -0.234,-1.019 l -6.4,-4.012 c -0.344,-0.217 -0.801,-0.113 -1.018,0.232 -0.217,0.346 -0.113,0.801 0.232,1.018 l 6.401,4.014 c 0.123,0.077 0.259,0.113 0.392,0.113 z"
             id="path134" />
        </g>
        <g
           id="g136">
          <path
             style="fill:#505050"
             d="m 409.284,268.693 c 0.134,0 0.27,-0.036 0.391,-0.112 l 7.877,-4.92 c 0.348,-0.216 0.451,-0.672 0.236,-1.018 -0.217,-0.346 -0.672,-0.451 -1.018,-0.234 l -7.877,4.92 c -0.348,0.215 -0.451,0.67 -0.236,1.018 0.141,0.223 0.382,0.346 0.627,0.346 z"
             id="path135" />
        </g>
        <g
           id="g137">
          <path
             style="fill:#505050"
             d="m 396.359,256.493 c 0.353,0 0.665,-0.254 0.728,-0.611 l 1.723,-9.849 c 0.069,-0.402 -0.198,-0.785 -0.601,-0.855 -0.401,-0.071 -0.783,0.197 -0.855,0.599 l -1.723,9.849 c -0.071,0.401 0.198,0.785 0.601,0.854 0.042,0.009 0.085,0.013 0.127,0.013 z"
             id="path136" />
        </g>
        <g
           id="g138">
          <path
             style="fill:#303030"
             d="m 389.465,270.894 c 0.54169,-0.0262 0.82088,-0.57338 1.21299,-0.87125 0.30723,-0.35863 0.87175,-0.61406 0.8874,-1.1404 -0.0222,-0.50493 -0.40631,-0.95602 -0.42545,-1.43481 0.31012,-0.76261 0.70843,-1.49677 0.9528,-2.28156 0.0624,-0.64977 -0.85767,-1.06891 -1.2784,-0.54332 -0.30253,0.4267 -0.42967,0.95051 -0.66712,1.4148 -0.19549,0.47242 -0.45831,0.93247 -0.56878,1.43062 -0.0651,0.49706 0.63298,1.02547 0.15772,1.43247 -0.33757,0.2967 -0.70619,0.58673 -0.95114,0.96723 -0.21701,0.46136 0.16952,1.0472 0.67998,1.02622 z"
             id="path137" />
        </g>
        <g
           id="g139">
          <path
             style="fill:#303030"
             d="m 398.695,304.375 c 0.7823,0.028 1.30089,-0.82956 1.05566,-1.53506 -0.34045,-2.04331 -0.6287,-4.09764 -1.00216,-6.13399 -1.02932,-3.52874 -2.04534,-7.06171 -3.08298,-10.58781 -0.2931,-0.62881 -1.03061,-0.81458 -1.56006,-1.19632 -1.6617,-0.97267 -3.29632,-1.99817 -4.9753,-2.93714 -0.87517,-0.35634 -1.81414,0.68812 -1.3669,1.52053 0.3366,0.58808 1.04605,0.78162 1.57549,1.15851 1.45175,0.86376 2.9035,1.72752 4.35525,2.59128 0.97957,3.40187 1.99215,6.79633 2.95114,10.20282 0.3415,2.05931 0.63661,4.12819 1.00761,6.18141 0.14793,0.43266 0.58517,0.74088 1.04225,0.73577 z"
             id="path138" />
        </g>
        <g
           id="g140">
          <path
             style="fill:#303030"
             d="m 390.31,279.019 c 0.93211,-0.17155 1.82907,-0.51814 2.74623,-0.76392 2.5651,-0.76637 5.13901,-1.50631 7.69855,-2.28931 0.5934,-0.39445 0.99471,-1.0172 1.49626,-1.52014 0.74954,-0.81566 1.47479,-1.66127 2.23952,-2.45821 1.52643,-0.8921 3.06103,-1.77097 4.58234,-2.67138 0.75209,-0.4906 0.51072,-1.78326 -0.36927,-1.96666 -0.71101,-0.17367 -1.25886,0.42073 -1.85356,0.70216 -1.26606,0.74664 -2.55171,1.46253 -3.80532,2.22871 -1.13991,1.21568 -2.23811,2.47216 -3.36175,3.70375 -3.26411,0.96929 -6.53282,1.92431 -9.79405,2.90252 -0.85152,0.30094 -0.92372,1.63354 -0.0859,2.00813 0.15586,0.081 0.33121,0.12454 0.50697,0.12435 z"
             id="path139" />
        </g>
        <g
           id="g141">
          <path
             style="fill:#303030"
             d="m 390.31,276.68 c 0.79531,-1.1e-4 1.11455,-0.81898 1.57336,-1.32709 1.19248,-1.54847 2.40595,-3.08178 3.58519,-4.63982 0.25717,-0.65521 0.24176,-1.38459 0.36967,-2.07459 0.54094,-3.99536 1.09691,-7.98906 1.62846,-11.98547 0.0752,-0.8946 -1.09297,-1.50062 -1.77955,-0.9204 -0.56495,0.44516 -0.43908,1.22739 -0.57865,1.85838 -0.55083,4.04 -1.10165,8.07999 -1.65248,12.11999 -1.35979,1.75943 -2.73173,3.50991 -4.08391,5.27494 -0.47136,0.69796 0.0942,1.72297 0.93791,1.69406 z"
             id="path140" />
        </g>
        <g
           id="g142">
          <path
             style="fill:#303030"
             d="m 404.482,292.478 c 0.87281,0.0439 1.44572,-1.08746 0.89187,-1.76464 -2.25683,-2.49568 -4.52349,-4.98357 -6.79279,-7.468 -0.67346,-0.43591 -1.43477,-0.72812 -2.14571,-1.1026 -1.91367,-0.93463 -3.82075,-1.88363 -5.73854,-2.80927 -0.82538,-0.35342 -1.76721,0.5634 -1.43158,1.39763 0.23564,0.66539 0.99853,0.79465 1.54321,1.11734 2.11685,1.03951 4.23369,2.07903 6.35054,3.11854 2.19825,2.40966 4.38505,4.83027 6.59047,7.23308 0.199,0.17879 0.46529,0.2787 0.73253,0.27792 z"
             id="path141" />
        </g>
        <path
           d="m 390.313,270.154 c 0.036,1.20305 -1.09436,2.29534 -2.29844,2.20141 -0.84858,-9.7e-4 -1.69862,0.0231 -2.54626,-0.0168 -1.06869,-0.12457 -1.93608,-1.14018 -1.89925,-2.21447 0.003,-0.94369 0.68006,-1.83463 1.59172,-2.08338 0.48501,-0.13969 0.99407,-0.0638 1.49114,-0.0857 0.59334,0.007 1.1884,-0.0161 1.78055,0.0215 1.05186,0.13569 1.89767,1.11745 1.88054,2.17748 z"
           id="path142"
           style="fill:#000000;fill-opacity:1" />
        <path
           style="fill:#404040"
           d="m 391.352,275.337 c -0.0106,1.29424 0.0224,2.58982 -0.019,3.88312 -0.13801,2.03498 -1.76903,3.8306 -3.76427,4.21083 -0.44748,0.11564 -0.74884,0.13431 -1.18951,0.0122 -1.84247,-0.32477 -3.40491,-1.84494 -3.75195,-3.68721 -0.16331,-0.92056 -0.0726,-1.8596 -0.0963,-2.78965 0.0288,-1.10938 -0.1264,-2.26273 0.3143,-3.31586 0.6101,-1.62844 2.18237,-2.82282 3.9087,-2.99748 0.29661,-0.0969 0.73141,0.0734 1.1252,0.14668 1.9957,0.53075 3.5018,2.46443 3.4728,4.53732 z"
           id="path143" />
        <path
           style="fill:#404040"
           d="m 394.1,290.096 c -0.0532,2.38356 0.12018,4.77868 -0.11535,7.15405 -0.63939,3.75368 -4.62346,6.7165 -8.41126,5.84405 -3.06552,-0.64174 -5.53697,-3.41341 -5.75725,-6.54926 -0.0945,-1.90077 0.0237,-3.80571 -0.0372,-5.70842 -0.0705,-1.7546 0.29371,-3.56703 1.35811,-4.99759 1.67997,-2.40341 4.92136,-3.76115 7.76857,-2.80316 3.01658,0.91806 5.24803,3.89182 5.1944,7.06033 z"
           id="path144" />
        <path
           style="fill:#9c3030;fill-opacity:1"
           d="m 387.125,282.727 c -1.65979,-0.0215 -3.30727,0.5845 -4.593,1.627 0.55584,3.29765 1.23071,6.57747 1.71005,9.88656 0.0693,1.64917 1.89936,3.06508 3.50276,2.49907 1.03724,-0.36921 1.69657,-1.37887 1.89294,-2.42919 0.45635,-3.23932 1.09815,-6.44981 1.65901,-9.67269 -0.3967,-1.31159 -3.25382,-1.85509 -4.17176,-1.91075 z"
           id="path145"
           sodipodi:nodetypes="ccccccc" />
        <path
           style="fill:#303030"
           d="m 389.761,271.744 c -0.36057,2.07026 -0.73651,4.13779 -1.103,6.207 0.0331,0.97248 -0.82656,1.88332 -1.80329,1.8876 -0.84047,-0.11914 -1.55902,-0.84013 -1.62721,-1.69483 -0.33577,-2.13871 -0.74026,-4.26696 -1.1135,-6.39977 0.8697,-0.69926 1.99754,-1.09886 3.11518,-1.04164 1.1043,0.14166 1.8747,0.52161 2.53182,1.04164 z"
           id="path146"
           sodipodi:nodetypes="ccccccc" />
      </g>
    </g>
  </g>
</svg>
