<?xml version="1.0" encoding="UTF-8" standalone="no"?>
<!-- Created with Inkscape (http://www.inkscape.org/) -->

<svg
   width="30.200001mm"
   height="34mm"
   viewBox="0 0 30.200001 34"
   version="1.1"
   id="svg1"
   inkscape:version="1.4.3 (0d15f75, 2025-12-25)"
   sodipodi:docname="spider.svg"
   xmlns:inkscape="http://www.inkscape.org/namespaces/inkscape"
   xmlns:sodipodi="http://sodipodi.sourceforge.net/DTD/sodipodi-0.dtd"
   xmlns="http://www.w3.org/2000/svg"
   xmlns:svg="http://www.w3.org/2000/svg">
  <sodipodi:namedview
     id="namedview1"
     pagecolor="#ffffff"
     bordercolor="#000000"
     borderopacity="0.25"
     inkscape:showpageshadow="2"
     inkscape:pageopacity="0.0"
     inkscape:pagecheckerboard="0"
     inkscape:deskcolor="#d1d1d1"
     inkscape:document-units="mm"
     inkscape:zoom="2.9041807"
     inkscape:cx="112.25197"
     inkscape:cy="126.19738"
     inkscape:window-width="1920"
     inkscape:window-height="1017"
     inkscape:window-x="-8"
     inkscape:window-y="-8"
     inkscape:window-maximized="1"
     inkscape:current-layer="g147" />
  <defs
     id="defs1" />
  <g
     inkscape:label="Layer 1"
     inkscape:groupmode="layer"
     id="layer1">
    <g
       id="g147"
       transform="matrix(0.48703376,0,0,0.48703376,-173.37429,-119.40294)">
		<g
   id="g133">
			<g
   id="g124">
				<path
   style="fill:#505050"
   d="m 375.714,304.571 -0.935,9.601 c -0.034,0.382 -0.355,0.667 -0.729,0.667 h -0.071 c -0.408,-0.043 -0.702,-0.399 -0.667,-0.81 l 0.934,-9.601 c 0.018,-0.143 0.063,-0.276 0.143,-0.383 v -0.01 c 0.16,-0.186 0.399,-0.303 0.658,-0.274 0.303,0.034 0.542,0.23 0.622,0.496 0.045,0.1 0.054,0.206 0.045,0.314 z"
   id="path124" />

			</g>

			<g
   id="g125">
				<path
   style="fill:#505050"
   d="m 369.214,292.461 c -0.045,0.054 -0.097,0.098 -0.159,0.134 l -6.403,4.01 c -0.123,0.08 -0.257,0.114 -0.391,0.114 -0.248,0 -0.489,-0.123 -0.63,-0.345 -0.214,-0.348 -0.108,-0.801 0.239,-1.015 l 6.401,-4.019 c 0.009,0 0.009,-0.009 0.017,-0.009 0.339,-0.204 0.783,-0.088 0.997,0.249 0.178,0.276 0.143,0.642 -0.071,0.881 z"
   id="path125" />

			</g>

			<g
   id="g126">
				<path
   style="fill:#505050"
   d="m 365.222,268.35 c -0.143,0.223 -0.382,0.346 -0.621,0.346 -0.071,0 -0.151,-0.009 -0.223,-0.035 -0.063,-0.019 -0.116,-0.045 -0.17,-0.079 l -7.877,-4.918 c -0.348,-0.223 -0.453,-0.676 -0.24,-1.023 0.223,-0.346 0.676,-0.453 1.023,-0.23 l 7.877,4.918 c 0.025,0.018 0.054,0.034 0.071,0.052 0.285,0.23 0.356,0.647 0.16,0.969 z"
   id="path126" />

			</g>

			<g
   id="g127">
				<path
   style="fill:#505050"
   d="m 378.256,255.777 c -0.009,0.337 -0.259,0.639 -0.604,0.701 -0.045,0.009 -0.088,0.009 -0.133,0.009 -0.348,0 -0.658,-0.248 -0.721,-0.605 l -0.018,-0.088 -1.707,-9.763 c -0.071,-0.4 0.196,-0.782 0.596,-0.854 0.4,-0.071 0.792,0.195 0.863,0.596 l 1.715,9.852 c 0.009,0.055 0.009,0.099 0.009,0.152 z"
   id="path127" />

			</g>

			<g
   id="g128">
				<path
   style="fill:#303030"
   d="m 384.95,270.661 c -0.143,0.159 -0.337,0.23 -0.533,0.23 -0.186,0 -0.364,-0.063 -0.507,-0.205 l -0.328,-0.302 c 0,-0.009 0,-0.009 0,-0.009 l -1.04,-0.978 c -0.214,-0.205 -0.285,-0.516 -0.179,-0.801 l 0.409,-1.076 -0.915,-2.098 c -0.17,-0.374 0.009,-0.81 0.382,-0.978 0.374,-0.16 0.81,0.009 0.97,0.382 l 1.04,2.374 c 0.071,0.177 0.08,0.382 0.009,0.561 l -0.348,0.906 0.134,0.125 0.881,0.827 c 0.293,0.277 0.31,0.748 0.025,1.042 z"
   id="path128" />

			</g>

			<g
   id="g129">
				<path
   style="fill:#303030"
   d="m 386.161,283.383 c -0.08,0.241 -0.25,0.464 -0.481,0.606 l -2.907,1.732 -2.357,1.405 -0.23,0.134 -2.934,10.1 -0.978,6.08 c -0.055,0.373 -0.294,0.667 -0.604,0.817 -0.142,0.082 -0.311,0.117 -0.479,0.117 -0.062,0 -0.125,0 -0.179,-0.009 -0.248,-0.046 -0.462,-0.16 -0.622,-0.32 v -0.01 c -0.239,-0.24 -0.364,-0.585 -0.302,-0.941 l 0.986,-6.153 c 0.009,-0.052 0.018,-0.098 0.034,-0.141 l 3.077,-10.581 c 0.08,-0.275 0.249,-0.498 0.499,-0.641 l 5.44,-3.245 0.427,-0.248 c 0.524,-0.32 1.2,-0.143 1.52,0.382 0.063,0.097 0.1,0.205 0.125,0.31 0.044,0.206 0.036,0.42 -0.035,0.606 z"
   id="path129" />

			</g>

			<g
   id="g130">
				<path
   style="fill:#303030"
   d="m 384.631,278.227 c -0.143,0.479 -0.587,0.792 -1.058,0.792 -0.107,0 -0.214,-0.019 -0.321,-0.045 l -0.719,-0.214 -9.265,-2.738 c -0.196,-0.063 -0.373,-0.168 -0.507,-0.319 l -3.334,-3.69 -4.525,-2.632 c -0.285,-0.16 -0.464,-0.426 -0.524,-0.72 -0.063,-0.267 -0.02,-0.552 0.123,-0.8 0.134,-0.232 0.33,-0.391 0.561,-0.482 0.302,-0.105 0.649,-0.089 0.951,0.082 l 4.677,2.719 c 0.105,0.063 0.194,0.134 0.266,0.214 l 3.236,3.593 8.341,2.463 1.351,0.399 c 0.587,0.178 0.924,0.791 0.747,1.378 z"
   id="path130" />

			</g>

			<g
   id="g131">
				<path
   style="fill:#303030"
   d="m 384.249,276.449 c -0.205,0.15 -0.444,0.23 -0.676,0.23 -0.339,0 -0.658,-0.151 -0.88,-0.427 l -0.16,-0.205 -4.037,-5.219 c -0.124,-0.15 -0.195,-0.328 -0.223,-0.524 l -1.85,-13.541 c -0.052,-0.373 0.089,-0.729 0.357,-0.969 0.159,-0.143 0.364,-0.249 0.596,-0.276 0.33,-0.043 0.649,0.054 0.88,0.259 0.196,0.168 0.328,0.408 0.365,0.685 l 1.804,13.247 2.659,3.432 1.359,1.752 c 0.375,0.479 0.285,1.182 -0.194,1.556 z"
   id="path131" />

			</g>

			<g
   id="g132">
				<path
   style="fill:#303030"
   d="m 384.053,281.365 -0.568,0.284 -6.767,3.317 -6.5,7.147 c -0.223,0.241 -0.514,0.364 -0.818,0.364 -0.06,0 -0.123,-0.009 -0.185,-0.018 -0.205,-0.036 -0.399,-0.125 -0.561,-0.275 -0.248,-0.223 -0.373,-0.542 -0.365,-0.853 0.011,-0.25 0.108,-0.507 0.285,-0.712 l 6.651,-7.298 c 0.097,-0.108 0.204,-0.188 0.328,-0.25 l 7.052,-3.458 0.48,-0.241 c 0.541,-0.266 1.208,-0.034 1.476,0.507 0.275,0.554 0.043,1.221 -0.508,1.486 z"
   id="path132" />

			</g>

		</g>

		<g
   id="g146">
			<g
   id="g134">
				<path
   style="fill:#505050"
   d="m 399.832,314.839 c 0.022,0 0.047,-0.002 0.071,-0.004 0.406,-0.039 0.703,-0.4 0.663,-0.807 l -0.931,-9.602 c -0.038,-0.404 -0.393,-0.707 -0.806,-0.663 -0.406,0.04 -0.703,0.4 -0.663,0.808 l 0.931,9.601 c 0.038,0.381 0.358,0.667 0.735,0.667 z"
   id="path133" />

			</g>

			<g
   id="g135">
				<path
   style="fill:#505050"
   d="m 411.621,296.721 c 0.247,0 0.486,-0.123 0.627,-0.346 0.216,-0.346 0.111,-0.802 -0.234,-1.019 l -6.4,-4.012 c -0.344,-0.217 -0.801,-0.113 -1.018,0.232 -0.217,0.346 -0.113,0.801 0.232,1.018 l 6.401,4.014 c 0.123,0.077 0.259,0.113 0.392,0.113 z"
   id="path134" />

			</g>

			<g
   id="g136">
				<path
   style="fill:#505050"
   d="m 409.284,268.693 c 0.134,0 0.27,-0.036 0.391,-0.112 l 7.877,-4.92 c 0.348,-0.216 0.451,-0.672 0.236,-1.018 -0.217,-0.346 -0.672,-0.451 -1.018,-0.234 l -7.877,4.92 c -0.348,0.215 -0.451,0.67 -0.236,1.018 0.141,0.223 0.382,0.346 0.627,0.346 z"
   id="path135" />

			</g>

			<g
   id="g137">
				<path
   style="fill:#505050"
   d="m 396.359,256.493 c 0.353,0 0.665,-0.254 0.728,-0.611 l 1.723,-9.849 c 0.069,-0.402 -0.198,-0.785 -0.601,-0.855 -0.401,-0.071 -0.783,0.197 -0.855,0.599 l -1.723,9.849 c -0.071,0.401 0.198,0.785 0.601,0.854 0.042,0.009 0.085,0.013 0.127,0.013 z"
   id="path136" />

			</g>

			<g
   id="g138">
				<path
   style="fill:#303030"
   d="m 389.465,270.894 c 0.183,0 0.365,-0.067 0.508,-0.201 l 1.364,-1.292 c 0.219,-0.205 0.29,-0.52 0.185,-0.799 l -0.412,-1.084 0.917,-2.098 c 0.163,-0.373 -0.007,-0.809 -0.382,-0.973 -0.375,-0.161 -0.809,0.009 -0.971,0.383 l -1.038,2.373 c -0.078,0.178 -0.082,0.377 -0.014,0.558 l 0.344,0.905 -1.008,0.953 c -0.297,0.279 -0.311,0.747 -0.029,1.044 0.144,0.152 0.341,0.231 0.536,0.231 z"
   id="path137" />

			</g>

			<g
   id="g139">
				<path
   style="fill:#303030"
   d="m 398.695,304.375 c 0.059,0 0.118,-0.004 0.177,-0.015 0.604,-0.095 1.016,-0.663 0.919,-1.268 l -0.985,-6.155 c -0.007,-0.045 -0.017,-0.09 -0.029,-0.133 L 395.7,286.218 c -0.08,-0.272 -0.257,-0.5 -0.498,-0.643 l -5.869,-3.496 c -0.524,-0.311 -1.205,-0.141 -1.519,0.386 -0.313,0.526 -0.141,1.207 0.384,1.52 l 5.496,3.27 2.935,10.102 0.974,6.086 c 0.086,0.544 0.559,0.932 1.092,0.932 z"
   id="path138" />

			</g>

			<g
   id="g140">
				<path
   style="fill:#303030"
   d="m 390.31,279.019 c 0.107,0 0.211,-0.016 0.317,-0.045 l 9.985,-2.955 c 0.196,-0.058 0.371,-0.169 0.507,-0.32 l 3.331,-3.688 4.528,-2.633 c 0.528,-0.308 0.709,-0.986 0.401,-1.515 -0.308,-0.529 -0.988,-0.707 -1.515,-0.401 l -4.678,2.72 c -0.1,0.06 -0.188,0.13 -0.266,0.216 l -3.237,3.586 -9.687,2.865 c -0.587,0.173 -0.922,0.79 -0.748,1.377 0.145,0.48 0.586,0.793 1.062,0.793 z"
   id="path139" />

			</g>

			<g
   id="g141">
				<path
   style="fill:#303030"
   d="m 390.31,276.68 c 0.332,0 0.658,-0.147 0.877,-0.429 l 4.201,-5.418 c 0.118,-0.153 0.194,-0.335 0.223,-0.528 l 1.846,-13.539 c 0.083,-0.606 -0.343,-1.165 -0.948,-1.249 -0.611,-0.083 -1.165,0.342 -1.247,0.948 l -1.806,13.246 -4.019,5.182 c -0.375,0.483 -0.288,1.18 0.196,1.555 0.202,0.155 0.442,0.232 0.677,0.232 z"
   id="path140" />

			</g>

			<g
   id="g142">
				<path
   style="fill:#303030"
   d="m 404.482,292.478 c 0.266,0 0.533,-0.096 0.747,-0.288 0.451,-0.412 0.484,-1.113 0.073,-1.564 l -6.647,-7.306 c -0.094,-0.105 -0.207,-0.188 -0.33,-0.25 l -7.524,-3.692 c -0.549,-0.268 -1.214,-0.043 -1.483,0.506 -0.269,0.551 -0.041,1.214 0.508,1.482 l 7.333,3.601 6.505,7.148 c 0.218,0.242 0.519,0.363 0.818,0.363 z"
   id="path141" />

			</g>

			<path
   d="m 390.313,270.154 c 0,0.071 0,0.142 -0.009,0.222 -0.054,0.516 -0.284,0.977 -0.623,1.316 -0.009,0.018 -0.018,0.026 -0.035,0.035 -0.392,0.391 -0.934,0.632 -1.529,0.632 h -2.348 c -0.596,0 -1.138,-0.241 -1.537,-0.632 -0.011,-0.009 -0.027,-0.018 -0.036,-0.035 -0.337,-0.339 -0.56,-0.801 -0.613,-1.308 0,-0.009 0,-0.009 0,-0.009 -0.009,-0.08 -0.009,-0.15 -0.009,-0.222 0,-0.517 0.169,-0.986 0.471,-1.36 0.4,-0.507 1.022,-0.837 1.725,-0.837 h 2.348 c 0.703,0 1.325,0.33 1.716,0.837 0.3,0.375 0.479,0.845 0.479,1.361 z"
   id="path142" />

			<path
   style="fill:#404040"
   d="m 391.352,275.337 v 3.477 c 0,0.274 -0.027,0.542 -0.071,0.801 -0.125,0.756 -0.436,1.448 -0.88,2.035 -0.196,0.249 -0.41,0.481 -0.649,0.685 -0.294,0.268 -0.622,0.489 -0.978,0.676 -0.33,0.17 -0.685,0.302 -1.058,0.384 -0.196,0.052 -0.393,0.088 -0.596,0.105 v 0.045 c -0.063,0 -0.116,-0.019 -0.179,-0.019 -0.063,0 -0.123,0.019 -0.186,0.019 V 283.5 c -0.205,-0.018 -0.401,-0.054 -0.596,-0.116 -0.365,-0.071 -0.721,-0.203 -1.051,-0.373 -0.354,-0.178 -0.693,-0.408 -0.986,-0.676 -0.24,-0.203 -0.453,-0.436 -0.64,-0.685 -0.444,-0.587 -0.757,-1.279 -0.88,-2.035 -0.045,-0.259 -0.071,-0.526 -0.071,-0.801 v -3.477 c 0,-0.791 0.194,-1.538 0.551,-2.196 0.259,-0.498 0.612,-0.951 1.04,-1.325 0.036,-0.025 0.071,-0.063 0.107,-0.088 0.364,-0.312 0.781,-0.56 1.234,-0.747 0.071,-0.026 0.143,-0.054 0.205,-0.071 0.348,-0.134 0.712,-0.214 1.086,-0.257 v -0.045 c 0.063,0 0.123,0.017 0.186,0.025 0.063,-0.009 0.116,-0.025 0.179,-0.025 v 0.045 c 0.382,0.043 0.747,0.123 1.084,0.257 0.063,0.018 0.133,0.045 0.204,0.071 0.453,0.188 0.872,0.435 1.236,0.747 0.035,0.025 0.071,0.063 0.107,0.088 0.427,0.374 0.783,0.827 1.049,1.325 0.357,0.658 0.553,1.405 0.553,2.196 z"
   id="path143" />

			<path
   style="fill:#404040"
   d="m 394.1,290.096 v 5.788 c 0,2.037 -0.826,3.887 -2.168,5.22 -1.245,1.244 -2.935,2.035 -4.81,2.143 v 0.018 c -0.063,0 -0.116,-0.009 -0.179,-0.009 -0.063,0 -0.123,0.009 -0.186,0.009 v -0.018 c -1.878,-0.107 -3.565,-0.898 -4.811,-2.143 -1.334,-1.333 -2.16,-3.183 -2.16,-5.22 v -5.788 c 0,-1.049 0.222,-2.063 0.63,-2.969 0.471,-1.086 1.2,-2.037 2.117,-2.774 0.747,-0.606 1.627,-1.068 2.577,-1.344 0.347,-0.107 0.712,-0.178 1.085,-0.232 0.179,-0.026 0.373,-0.043 0.562,-0.052 v -0.011 h 0.364 v 0.011 c 0.185,0.009 0.373,0.025 0.56,0.052 0.373,0.045 0.737,0.125 1.094,0.232 0.96,0.275 1.832,0.737 2.578,1.344 0.916,0.736 1.645,1.688 2.124,2.782 0.401,0.907 0.623,1.912 0.623,2.961 z"
   id="path144" />

			<path
   style="fill:#703030;fill-opacity:1"
   d="m 387.125,282.727 v -0.013 c -0.06,0 -0.124,0.004 -0.185,0.004 -0.061,0 -0.125,-0.004 -0.184,-0.004 v 0.013 c -1.597,0.088 -3.061,0.683 -4.224,1.627 l 1.712,9.631 c 0,0.806 0.325,1.544 0.858,2.075 0.432,0.438 1.012,0.721 1.653,0.81 v 0.042 c 0.063,-0.002 0.121,-0.016 0.184,-0.022 0.063,0.006 0.122,0.02 0.185,0.022 v -0.042 c 0.641,-0.09 1.221,-0.373 1.652,-0.81 0.533,-0.531 0.858,-1.27 0.858,-2.075 l 1.712,-9.631 c -1.161,-0.945 -2.627,-1.539 -4.221,-1.627 z"
   id="path145" />

			<path
   style="fill:#303030"
   d="m 389.761,271.744 -0.009,0.071 -1.094,6.136 c 0,0.516 -0.203,0.996 -0.551,1.342 -0.259,0.259 -0.604,0.444 -0.986,0.516 v 0.037 c 0,0 -0.011,0 -0.02,0 -0.052,0 -0.105,-0.02 -0.159,-0.02 -0.063,0 -0.115,0.02 -0.169,0.02 -0.009,0 -0.009,0 -0.017,0 v -0.037 c -0.383,-0.071 -0.721,-0.257 -0.988,-0.516 -0.337,-0.346 -0.551,-0.826 -0.551,-1.342 l -1.094,-6.136 -0.009,-0.071 c 0.026,-0.017 0.054,-0.043 0.08,-0.052 0.382,-0.313 0.809,-0.543 1.271,-0.712 0.071,-0.026 0.143,-0.054 0.205,-0.071 0.348,-0.105 0.712,-0.177 1.086,-0.205 v -0.018 c 0.008,0 0.008,0 0.017,0 h 0.328 c 0.009,0 0.02,0 0.02,0 v 0.018 c 0.373,0.028 0.738,0.1 1.084,0.205 0.063,0.018 0.133,0.045 0.204,0.071 0.462,0.169 0.89,0.399 1.272,0.712 0.027,0.009 0.053,0.036 0.08,0.052 z"
   id="path146" />

		</g>

		
	</g>
  </g>
</svg>
