<?xml version="1.0" encoding="UTF-8" standalone="no"?>
<!-- Generator: Adobe Illustrator 27.5.0, SVG Export Plug-In . SVG Version: 6.00 Build 0)  -->

<svg
   version="1.1"
   x="0px"
   y="0px"
   viewBox="0 0 1540.5649 1685.5071"
   xml:space="preserve"
   id="svg21"
   sodipodi:docname="splat.svg"
   inkscape:version="1.4.3 (0d15f75, 2025-12-25)"
   width="1540.5649"
   height="1685.5071"
   xmlns:inkscape="http://www.inkscape.org/namespaces/inkscape"
   xmlns:sodipodi="http://sodipodi.sourceforge.net/DTD/sodipodi-0.dtd"
   xmlns="http://www.w3.org/2000/svg"
   xmlns:svg="http://www.w3.org/2000/svg"><defs
   id="defs21" /><sodipodi:namedview
   id="namedview21"
   pagecolor="#ffffff"
   bordercolor="#000000"
   borderopacity="0.25"
   inkscape:showpageshadow="2"
   inkscape:pageopacity="0.0"
   inkscape:pagecheckerboard="false"
   inkscape:deskcolor="#d1d1d1"
   inkscape:zoom="0.26195092"
   inkscape:cx="790.22436"
   inkscape:cy="849.39575"
   inkscape:window-width="1920"
   inkscape:window-height="1017"
   inkscape:window-x="-8"
   inkscape:window-y="-8"
   inkscape:window-maximized="1"
   inkscape:current-layer="g21" />

<g
   id="Objects"
   transform="translate(-329.7167,-257.24612)">
	<g
   id="g21">
		<g
   id="g1"
   style="fill:#efeacd;fill-opacity:1;stroke:none">
			<path
   d="M 1789.601,940.541 C 1740.939,953.488 1689.33,943.565 1639.13,947.493 1588.93,951.434 1532.967,977.29 1522.965,1026.65 1515.38,1064.045 1536.739,1100.303 1552.594,1135.01 1568.448,1169.717 1577.688,1215.007 1551.315,1242.582 1513.765,1281.863 1445.178,1248.41 1394.564,1268.192 1342.503,1288.556 1328.612,1357.389 1339.441,1412.241 1353.732,1484.744 1396.373,1548.796 1446.25,1603.324 1480.634,1640.913 1519.114,1675.323 1546.986,1717.964 1574.871,1760.605 1591.229,1814.514 1575.439,1862.943 1559.662,1911.386 1503.582,1947.618 1456.083,1929.192 1396.515,1906.062 1389.821,1826.686 1384.511,1763.008 1379.794,1706.502 1367.312,1648.045 1331.39,1604.151 1295.481,1560.27 1230.77,1535.912 1179.834,1560.838 1145.23,1577.778 1123.78,1612.602 1097.136,1640.435 1070.505,1668.268 1029.104,1690.7 994.552,1673.656 937.581,1645.565 948.138,1537.024 885.378,1527.242 814.801,1516.246 794.85,1651.444 723.445,1649.415 686.864,1648.381 663.114,1608.712 658.824,1572.364 654.547,1536.029 662.274,1498.608 654.211,1462.919 644.455,1419.671 610.2,1382.844 567.766,1369.961 525.345,1357.091 476.398,1368.669 444.236,1399.202 420.641,1421.595 405.853,1449.125 373.407,1446.799 336.271,1444.137 316.947,1396.333 339.107,1366.42 361.267,1336.507 401.608,1327.294 438.667,1323.701 475.726,1320.108 515.033,1319.385 546.575,1299.602 578.104,1279.819 595.548,1231.971 570.079,1204.81 522.295,1153.847 425.332,1246.017 371.734,1201.205 337.905,1172.92 358.67,1113.571 396.582,1091.049 434.494,1068.527 481.14,1068.772 524.169,1059.133 567.198,1049.493 613.418,1021.57 616.61,977.585 620.254,927.139 565.234,886.256 569.589,835.862 573.362,792.084 618.988,765.685 659.962,749.792 700.936,733.899 747.97,716.196 763.476,675.08 778.685,634.804 755.051,589.074 722.205,561.254 689.346,533.447 648.19,517.605 612.075,494.165 575.959,470.738 542.816,434.959 541.937,391.93 541.007,347.247 575.791,308.664 615.616,288.403 649.832,270.985 695.949,265.403 723.239,292.435 753.902,322.813 743.371,373.143 741.368,416.275 738.822,470.713 756.098,528.718 798.21,563.296 840.334,597.874 909.581,600.562 946.472,560.44 973.258,531.328 981.231,484.823 1016.067,466.061 1052.286,446.549 1096.646,468.103 1129.621,492.718 1162.584,517.333 1197.523,547.079 1238.588,544.365 1282.521,541.484 1315.058,501.698 1332.644,461.331 1350.243,420.951 1359.082,376.204 1384.459,340.218 1409.824,304.219 1460.657,279.823 1498.336,302.616 1531.183,322.476 1538.057,369.653 1523.882,405.329 1509.72,441.005 1480.001,467.805 1451.25,493.234 1424.493,516.916 1379.023,555.02 1347.74,600.669 1313.09,651.232 1387.069,705.137 1424.101,656.292 1438.148,637.763 1450.01,617.372 1458.086,597.989 1475.157,557.018 1492.948,525.137 1537.114,520.679 1576.202,516.725 1616.62,539.092 1634.025,574.303 1651.43,609.527 1644.647,655.218 1617.77,683.865 1594.395,708.791 1560.127,719.477 1529.697,735.021 1499.267,750.553 1469.03,776.512 1468.165,810.677 1467.144,850.747 1509.656,881.099 1549.738,881.28 1589.821,881.461 1626.557,860.089 1659.907,837.851 1693.257,815.613 1726.983,791.23 1766.419,784.007 1805.843,776.784 1853.019,792.923 1866.612,830.641 1883.696,878.014 1838.263,927.581 1789.601,940.541 Z"
   id="path1"
   style="fill:#efeacd;fill-opacity:1;stroke:none" />
		</g>
		<g
   id="g2"
   style="fill:#f6cece;fill-opacity:1;stroke:none">
			<path
   d="M 1080.63,1789.677 C 1078.825,1810.453 1055.42,1828.619 1028.741,1830.533 1002.076,1832.437 975.117,1818.296 966.723,1798.52 958.343,1778.744 968.808,1755.238 990.716,1743.262 1000.425,1737.943 1012.023,1735.017 1023.858,1734.429 1058.998,1736.377 1082.826,1764.441 1080.63,1789.677 Z"
   id="path2"
   style="fill:#f6cece;fill-opacity:1;stroke:none" />
		</g>
		<g
   id="g3"
   style="fill:#f6cece;fill-opacity:1;stroke:none">
			<path
   d="M 1039.328,1913.053 C 1038.021,1928.093 1021.078,1941.243 1001.765,1942.629 982.462,1944.007 962.946,1933.77 956.87,1919.455 950.804,1905.139 958.379,1888.123 974.239,1879.453 981.268,1875.602 989.663,1873.484 998.231,1873.059 1023.668,1874.469 1040.918,1894.784 1039.328,1913.053 Z"
   id="path3"
   style="fill:#f6cece;fill-opacity:1;stroke:none" />
		</g>
		<g
   id="g4"
   style="fill:#f6cece;fill-opacity:1;stroke:none">
			<path
   d="M 1833.25,1257.584 C 1823.119,1271.022 1800.894,1273.917 1788.877,1262.145 1777.674,1251.149 1778.398,1231.573 1787.882,1219.065 1791.866,1213.819 1797.02,1209.705 1802.822,1206.636 1811.711,1201.934 1822.813,1203.698 1829.635,1211.086 1829.673,1211.127 1829.711,1211.168 1829.749,1211.209 1841.119,1223.613 1843.367,1244.159 1833.25,1257.584 Z"
   id="path4"
   style="fill:#f6cece;fill-opacity:1;stroke:none" />
		</g>
		<g
   id="g5"
   style="fill:#f6cece;fill-opacity:1;stroke:none">
			<path
   d="M 1699.218,1344.752 C 1695.781,1369.096 1674.887,1389.809 1650.568,1393.389 1626.237,1396.968 1600.445,1383.349 1589.359,1361.395 1585.444,1353.668 1583.234,1344.881 1584.294,1336.289 1585.354,1327.799 1589.501,1319.956 1594.618,1313.095 1603.962,1300.589 1616.987,1290.983 1631.505,1285.271 1642.317,1281.017 1654.397,1280.722 1665.163,1285.09 1665.23,1285.117 1665.296,1285.144 1665.363,1285.172 1688.092,1294.539 1702.655,1320.395 1699.218,1344.752 Z"
   id="path5"
   style="fill:#f6cece;fill-opacity:1;stroke:none" />
		</g>
		<g
   id="g6"
   style="fill:#f6cece;fill-opacity:1;stroke:none">
			<path
   d="M 1680.362,1193.984 C 1678.14,1187.51 1679.961,1180.184 1683.605,1174.382 1684.377,1173.153 1685.223,1171.978 1686.126,1170.848 1694.231,1160.711 1710.305,1162.176 1715.997,1173.84 1716.032,1173.913 1716.068,1173.986 1716.102,1174.059 1720.883,1184.099 1717.549,1197.693 1707.974,1203.352 1698.401,1209.012 1683.968,1204.502 1680.362,1193.984 Z"
   id="path6"
   style="fill:#f6cece;fill-opacity:1;stroke:none" />
		</g>
		<g
   id="g7"
   style="fill:#f6cece;fill-opacity:1;stroke:none">
			<path
   d="M 491.944,811.008 C 491.839,811.1 491.733,811.191 491.628,811.282 471.417,828.721 440.519,825.957 423.607,805.303 421.674,802.942 419.851,800.477 418.149,797.908 402.811,774.727 398.638,742.881 410.422,717.497 422.206,692.126 450.828,675.68 476.968,682.073 501.829,688.154 520.242,713.606 522.297,740.378 524.364,767.163 511.611,793.894 491.944,811.008 Z"
   id="path7"
   style="fill:#f6cece;fill-opacity:1;stroke:none" />
		</g>
		
		<g
   id="g9"
   style="fill:#f6cece;fill-opacity:1;stroke:none">
			<path
   d="M 1142.973,361.344 C 1141.422,370.195 1134.303,377.263 1126.201,381.14 1118.086,385.016 1109.003,386.218 1100.087,387.368 1086.17,389.164 1072.099,390.96 1058.17,389.293 1044.241,387.613 1030.273,382.083 1021.15,371.423 1021.102,371.367 1021.054,371.31 1021.007,371.254 1013.061,361.825 1015.21,347.561 1025.246,340.398 1029.432,337.41 1033.848,334.745 1038.452,332.452 1061.22,321.094 1088.381,318.859 1112.699,326.314 1128.85,331.276 1145.88,344.689 1142.973,361.344 Z"
   id="path9"
   style="fill:#f6cece;fill-opacity:1;stroke:none" />
		</g>
		
		
		
		
		
		
		
		
		
		
		
		<g
   id="g22"><path
     style="fill:#ffffff"
     d="M 1561.704,1851.302 C 1546.082,1888.141 1507.188,1909.526 1468.424,1909.526 1541.121,1870.723 1550.282,1823.973 1549.752,1775.543 1567.273,1795.778 1572.843,1824.994 1561.704,1851.302 Z"
     id="path10" /><path
     style="fill:#ffffff"
     d="M 690.99,299.079 C 722.108,310.734 731.445,348.312 727.6,385.477 703.966,315.871 656.26,305.567 611.221,318.788 624.902,299.311 668.77,290.773 690.99,299.079 Z"
     id="path11" /><path
     style="fill:#ffffff"
     d="M 1676.515,1347.667 C 1668.704,1366.087 1649.257,1376.779 1629.875,1376.779 1666.223,1357.377 1670.804,1334.002 1670.539,1309.787 1679.299,1319.905 1682.084,1334.513 1676.515,1347.667 Z"
     id="path12" /><path
     style="fill:#ffffff"
     d="M 423.243,1406.568 C 414.482,1423.857 396.159,1436.378 376.196,1435.021 361.944,1434.039 350.172,1424.955 345.107,1412.563 366.583,1423.754 389.505,1430.227 423.243,1406.568 Z"
     id="path13" /><path
     style="fill:#ffffff"
     d="M 450.019,1191.329 C 428.815,1201.925 401.705,1200.865 383.086,1184.985 369.803,1173.64 370.929,1154.027 377.035,1140.277 384.095,1169.278 399.651,1189.972 450.019,1191.329 Z"
     id="path14" /><path
     style="fill:#ffffff"
     d="M 1049.249,1809.889 C 1031.882,1819.826 1009.929,1816.582 994.488,1804.863 1035.178,1811.388 1052.958,1795.546 1067.391,1776.1 1068.257,1789.46 1061.641,1802.769 1049.249,1809.889 Z"
     id="path15" /><path
     style="fill:#ffffff"
     d="M 505.202,763.297 C 496.209,784.527 473.803,796.88 451.461,796.919 493.34,774.487 498.586,747.546 498.25,719.635 508.367,731.29 511.585,748.114 505.202,763.297 Z"
     id="path16" /><path
     style="fill:#ffffff"
     d="M 1121.985,370.069 C 1113.831,378.998 1100.6,380.871 1072.379,380.871 1109.748,371.387 1119.891,363.892 1123.419,336.938 1127.825,347.586 1130.539,360.701 1121.985,370.069 Z"
     id="path17" /><path
     style="fill:#ffffff"
     d="M 1830.865,1244.982 C 1825.971,1256.523 1813.787,1263.222 1801.643,1263.222 1824.417,1251.066 1827.287,1236.42 1827.121,1221.248 1832.609,1227.588 1834.354,1236.74 1830.865,1244.982 Z"
     id="path18" /><path
     style="fill:#ffffff"
     d="M 1824.055,810.164 C 1843.933,826.617 1849.967,854.596 1842.811,878.548 1832.255,826.467 1805.06,812.177 1775.038,803.564 1790.776,796.473 1809.855,798.425 1824.055,810.164 Z"
     id="path19" /><path
     style="fill:#ffffff"
     d="M 1491.437,415.863 C 1508.765,365.637 1492.587,339.523 1471.086,316.858 1488.246,318.745 1503.7,330.103 1509.98,347.43 1518.753,371.697 1509.747,398.858 1491.437,415.863 Z"
     id="path20" /><path
     style="fill:#ffffff"
     d="M 1620.555,610.274 C 1619.25,642.009 1596.327,668.77 1567.525,679.611 1610.696,630.458 1604.429,593.166 1590.499,557.335 1609.184,567.465 1621.485,587.623 1620.555,610.274 Z"
     id="path21" /></g>
	</g>
</g>
</svg>
