<?xml version="1.0" encoding="UTF-8" standalone="no"?>
<!-- Created with Inkscape (http://www.inkscape.org/) -->

<svg
   width="73.585999mm"
   height="394.70053mm"
   viewBox="0 0 73.585999 394.70053"
   version="1.1"
   id="svg1"
   inkscape:version="1.4.3 (0d15f75, 2025-12-25)"
   sodipodi:docname="swatter.svg"
   xmlns:inkscape="http://www.inkscape.org/namespaces/inkscape"
   xmlns:sodipodi="http://sodipodi.sourceforge.net/DTD/sodipodi-0.dtd"
   xmlns="http://www.w3.org/2000/svg"
   xmlns:svg="http://www.w3.org/2000/svg">
  <sodipodi:namedview
     id="namedview1"
     pagecolor="#ffffff"
     bordercolor="#000000"
     borderopacity="0.25"
     inkscape:showpageshadow="2"
     inkscape:pageopacity="0.0"
     inkscape:pagecheckerboard="0"
     inkscape:deskcolor="#d1d1d1"
     inkscape:document-units="mm"
     inkscape:zoom="0.36302259"
     inkscape:cx="253.42776"
     inkscape:cy="577.09908"
     inkscape:window-width="1920"
     inkscape:window-height="1017"
     inkscape:window-x="-8"
     inkscape:window-y="-8"
     inkscape:window-maximized="1"
     inkscape:current-layer="layer1" />
  <defs
     id="defs1" />
  <g
     inkscape:label="Layer 1"
     inkscape:groupmode="layer"
     id="layer1">
    <g
       id="g212"
       transform="matrix(0,-0.26458173,0.26458173,0,-430.9793,424.43513)">
	<rect
   x="229.689"
   y="1757.226"
   style="fill:#c48a55"
   width="853.125"
   height="26.038"
   id="rect165" />

	<path
   style="fill:#8bba6c"
   d="m 1540.794,1628.908 h -315.747 c -34.965,0 -63.31,28.345 -63.31,46.492 v 42.129 c 0,33.988 -88.401,25.506 -88.401,25.506 v 30.902 30.903 c 0,0 88.401,-8.483 88.401,25.507 0,-0.13 0,-1.391 0,-3.455 10e-4,51.78 28.346,80.124 63.31,80.124 h 315.747 c 34.965,0 63.31,-28.345 63.31,-63.31 v -151.489 c 0,-34.964 -28.345,-63.309 -63.31,-63.309 z m -318.478,239.048 c 0,7.136 -5.785,12.921 -12.92,12.921 h -6.153 c -7.136,0 -12.92,-5.785 -12.92,-12.921 v -6.152 c 0,-7.136 5.785,-12.921 12.92,-12.921 h 6.153 c 7.135,0 12.92,5.785 12.92,12.921 z m 0,-48.666 c 0,7.136 -5.785,12.921 -12.92,12.921 h -6.153 c -7.136,0 -12.92,-5.785 -12.92,-12.921 v -6.152 c 0,-7.136 5.785,-12.921 12.92,-12.921 h 6.153 c 7.135,0 12.92,5.785 12.92,12.921 z m 0,-48.666 c 0,7.136 -5.785,12.921 -12.92,12.921 h -6.153 c -7.136,0 -12.92,-5.785 -12.92,-12.921 v -6.152 c 0,-7.136 5.785,-12.921 12.92,-12.921 h 6.153 c 7.135,0 12.92,5.785 12.92,12.921 z m 0,-48.666 c 0,7.136 -5.785,12.92 -12.92,12.92 h -6.153 c -7.136,0 -12.92,-5.784 -12.92,-12.92 v -6.152 c 0,-7.136 5.785,-12.921 12.92,-12.921 h 6.153 c 7.135,0 12.92,5.785 12.92,12.921 z m 0,-48.666 c 0,7.136 -5.785,12.92 -12.92,12.92 h -6.153 c -7.136,0 -12.92,-5.784 -12.92,-12.92 v -6.153 c 0,-7.135 5.785,-12.92 12.92,-12.92 h 6.153 c 7.135,0 12.92,5.785 12.92,12.92 z m 49.661,194.664 c 0,7.136 -5.785,12.921 -12.92,12.921 h -6.153 c -7.136,0 -12.92,-5.785 -12.92,-12.921 v -6.152 c 0,-7.136 5.784,-12.921 12.92,-12.921 h 6.153 c 7.136,0 12.92,5.785 12.92,12.921 z m 0,-48.666 c 0,7.136 -5.785,12.921 -12.92,12.921 h -6.153 c -7.136,0 -12.92,-5.785 -12.92,-12.921 v -6.152 c 0,-7.136 5.784,-12.921 12.92,-12.921 h 6.153 c 7.136,0 12.92,5.785 12.92,12.921 z m 0,-48.666 c 0,7.136 -5.785,12.921 -12.92,12.921 h -6.153 c -7.136,0 -12.92,-5.785 -12.92,-12.921 v -6.152 c 0,-7.136 5.784,-12.921 12.92,-12.921 h 6.153 c 7.136,0 12.92,5.785 12.92,12.921 z m 0,-48.666 c 0,7.136 -5.785,12.92 -12.92,12.92 h -6.153 c -7.136,0 -12.92,-5.784 -12.92,-12.92 v -6.152 c 0,-7.136 5.784,-12.921 12.92,-12.921 h 6.153 c 7.136,0 12.92,5.785 12.92,12.921 z m 0,-48.666 c 0,7.136 -5.785,12.92 -12.92,12.92 h -6.153 c -7.136,0 -12.92,-5.784 -12.92,-12.92 v -6.153 c 0,-7.135 5.784,-12.92 12.92,-12.92 h 6.153 c 7.136,0 12.92,5.785 12.92,12.92 z m 49.659,194.664 c 0,7.136 -5.785,12.921 -12.92,12.921 h -6.152 c -7.136,0 -12.92,-5.785 -12.92,-12.921 v -6.152 c 0,-7.136 5.785,-12.921 12.92,-12.921 h 6.152 c 7.136,0 12.92,5.785 12.92,12.921 z m 0,-48.666 c 0,7.136 -5.785,12.921 -12.92,12.921 h -6.152 c -7.136,0 -12.92,-5.785 -12.92,-12.921 v -6.152 c 0,-7.136 5.785,-12.921 12.92,-12.921 h 6.152 c 7.136,0 12.92,5.785 12.92,12.921 z m 0,-48.666 c 0,7.136 -5.785,12.921 -12.92,12.921 h -6.152 c -7.136,0 -12.92,-5.785 -12.92,-12.921 v -6.152 c 0,-7.136 5.785,-12.921 12.92,-12.921 h 6.152 c 7.136,0 12.92,5.785 12.92,12.921 z m 0,-48.666 c 0,7.136 -5.785,12.92 -12.92,12.92 h -6.152 c -7.136,0 -12.92,-5.784 -12.92,-12.92 v -6.152 c 0,-7.136 5.785,-12.921 12.92,-12.921 h 6.152 c 7.136,0 12.92,5.785 12.92,12.921 z m 0,-48.666 c 0,7.136 -5.785,12.92 -12.92,12.92 h -6.152 c -7.136,0 -12.92,-5.784 -12.92,-12.92 v -6.153 c 0,-7.135 5.785,-12.92 12.92,-12.92 h 6.152 c 7.136,0 12.92,5.785 12.92,12.92 z m 49.66,194.664 c 0,7.136 -5.785,12.921 -12.92,12.921 h -6.152 c -7.136,0 -12.92,-5.785 -12.92,-12.921 v -6.152 c 0,-7.136 5.785,-12.921 12.92,-12.921 h 6.152 c 7.136,0 12.92,5.785 12.92,12.921 z m 0,-48.666 c 0,7.136 -5.785,12.921 -12.92,12.921 h -6.152 c -7.136,0 -12.92,-5.785 -12.92,-12.921 v -6.152 c 0,-7.136 5.785,-12.921 12.92,-12.921 h 6.152 c 7.136,0 12.92,5.785 12.92,12.921 z m 0,-48.666 c 0,7.136 -5.785,12.921 -12.92,12.921 h -6.152 c -7.136,0 -12.92,-5.785 -12.92,-12.921 v -6.152 c 0,-7.136 5.785,-12.921 12.92,-12.921 h 6.152 c 7.136,0 12.92,5.785 12.92,12.921 z m 0,-48.666 c 0,7.136 -5.785,12.92 -12.92,12.92 h -6.152 c -7.136,0 -12.92,-5.784 -12.92,-12.92 v -6.152 c 0,-7.136 5.785,-12.921 12.92,-12.921 h 6.152 c 7.136,0 12.92,5.785 12.92,12.921 z m 0,-48.666 c 0,7.136 -5.785,12.92 -12.92,12.92 h -6.152 c -7.136,0 -12.92,-5.784 -12.92,-12.92 v -6.153 c 0,-7.135 5.785,-12.92 12.92,-12.92 h 6.152 c 7.136,0 12.92,5.785 12.92,12.92 z m 49.66,194.664 c 0,7.136 -5.784,12.921 -12.92,12.921 h -6.153 c -7.136,0 -12.92,-5.785 -12.92,-12.921 v -6.152 c 0,-7.136 5.785,-12.921 12.92,-12.921 h 6.153 c 7.136,0 12.92,5.785 12.92,12.921 z m 0,-48.666 c 0,7.136 -5.784,12.921 -12.92,12.921 h -6.153 c -7.136,0 -12.92,-5.785 -12.92,-12.921 v -6.152 c 0,-7.136 5.785,-12.921 12.92,-12.921 h 6.153 c 7.136,0 12.92,5.785 12.92,12.921 z m 0,-48.666 c 0,7.136 -5.784,12.921 -12.92,12.921 h -6.153 c -7.136,0 -12.92,-5.785 -12.92,-12.921 v -6.152 c 0,-7.136 5.785,-12.921 12.92,-12.921 h 6.153 c 7.136,0 12.92,5.785 12.92,12.921 z m 0,-48.666 c 0,7.136 -5.784,12.92 -12.92,12.92 h -6.153 c -7.136,0 -12.92,-5.784 -12.92,-12.92 v -6.152 c 0,-7.136 5.785,-12.921 12.92,-12.921 h 6.153 c 7.136,0 12.92,5.785 12.92,12.921 z m 0,-48.666 c 0,7.136 -5.784,12.92 -12.92,12.92 h -6.153 c -7.136,0 -12.92,-5.784 -12.92,-12.92 v -6.153 c 0,-7.135 5.785,-12.92 12.92,-12.92 h 6.153 c 7.136,0 12.92,5.785 12.92,12.92 z m 49.66,194.664 c 0,7.136 -5.785,12.921 -12.92,12.921 h -6.153 c -7.136,0 -12.92,-5.785 -12.92,-12.921 v -6.152 c 0,-7.136 5.785,-12.921 12.92,-12.921 h 6.153 c 7.135,0 12.92,5.785 12.92,12.921 z m 0,-48.666 c 0,7.136 -5.785,12.921 -12.92,12.921 h -6.153 c -7.136,0 -12.92,-5.785 -12.92,-12.921 v -6.152 c 0,-7.136 5.785,-12.921 12.92,-12.921 h 6.153 c 7.135,0 12.92,5.785 12.92,12.921 z m 0,-48.666 c 0,7.136 -5.785,12.921 -12.92,12.921 h -6.153 c -7.136,0 -12.92,-5.785 -12.92,-12.921 v -6.152 c 0,-7.136 5.785,-12.921 12.92,-12.921 h 6.153 c 7.135,0 12.92,5.785 12.92,12.921 z m 0,-48.666 c 0,7.136 -5.785,12.92 -12.92,12.92 h -6.153 c -7.136,0 -12.92,-5.784 -12.92,-12.92 v -6.152 c 0,-7.136 5.785,-12.921 12.92,-12.921 h 6.153 c 7.135,0 12.92,5.785 12.92,12.921 z m 0,-48.666 c 0,7.136 -5.785,12.92 -12.92,12.92 h -6.153 c -7.136,0 -12.92,-5.784 -12.92,-12.92 v -6.153 c 0,-7.135 5.785,-12.92 12.92,-12.92 h 6.153 c 7.135,0 12.92,5.785 12.92,12.92 z m 49.66,194.664 c 0,7.136 -5.785,12.921 -12.92,12.921 h -6.153 c -7.136,0 -12.92,-5.785 -12.92,-12.921 v -6.152 c 0,-7.136 5.785,-12.921 12.92,-12.921 h 6.153 c 7.136,0 12.92,5.785 12.92,12.921 z m 0,-48.666 c 0,7.136 -5.785,12.921 -12.92,12.921 h -6.153 c -7.136,0 -12.92,-5.785 -12.92,-12.921 v -6.152 c 0,-7.136 5.785,-12.921 12.92,-12.921 h 6.153 c 7.136,0 12.92,5.785 12.92,12.921 z m 0,-48.666 c 0,7.136 -5.785,12.921 -12.92,12.921 h -6.153 c -7.136,0 -12.92,-5.785 -12.92,-12.921 v -6.152 c 0,-7.136 5.785,-12.921 12.92,-12.921 h 6.153 c 7.136,0 12.92,5.785 12.92,12.921 z m 0,-48.666 c 0,7.136 -5.785,12.92 -12.92,12.92 h -6.153 c -7.136,0 -12.92,-5.784 -12.92,-12.92 v -6.152 c 0,-7.136 5.785,-12.921 12.92,-12.921 h 6.153 c 7.136,0 12.92,5.785 12.92,12.921 z m 0,-48.666 c 0,7.136 -5.785,12.92 -12.92,12.92 h -6.153 c -7.136,0 -12.92,-5.784 -12.92,-12.92 v -6.153 c 0,-7.135 5.785,-12.92 12.92,-12.92 h 6.153 c 7.136,0 12.92,5.785 12.92,12.92 z m 49.66,194.664 c 0,7.136 -5.785,12.921 -12.92,12.921 h -6.152 c -7.136,0 -12.92,-5.785 -12.92,-12.921 v -6.152 c 0,-7.136 5.785,-12.921 12.92,-12.921 h 6.152 c 7.136,0 12.92,5.785 12.92,12.921 z m 0,-48.666 c 0,7.136 -5.785,12.921 -12.92,12.921 h -6.152 c -7.136,0 -12.92,-5.785 -12.92,-12.921 v -6.152 c 0,-7.136 5.785,-12.921 12.92,-12.921 h 6.152 c 7.136,0 12.92,5.785 12.92,12.921 z m 0,-48.666 c 0,7.136 -5.785,12.921 -12.92,12.921 h -6.152 c -7.136,0 -12.92,-5.785 -12.92,-12.921 v -6.152 c 0,-7.136 5.785,-12.921 12.92,-12.921 h 6.152 c 7.136,0 12.92,5.785 12.92,12.921 z m 0,-48.666 c 0,7.136 -5.785,12.92 -12.92,12.92 h -6.152 c -7.136,0 -12.92,-5.784 -12.92,-12.92 v -6.152 c 0,-7.136 5.785,-12.921 12.92,-12.921 h 6.152 c 7.136,0 12.92,5.785 12.92,12.921 z m 0,-48.666 c 0,7.136 -5.785,12.92 -12.92,12.92 h -6.152 c -7.136,0 -12.92,-5.784 -12.92,-12.92 v -6.153 c 0,-7.135 5.785,-12.92 12.92,-12.92 h 6.152 c 7.136,0 12.92,5.785 12.92,12.92 z"
   id="path165" />

	<g
   id="g207">
		<path
   style="fill:#7ca562"
   d="m 1380.845,1760.332 c 0,5.513 3.459,10.206 8.32,12.062 -0.079,-0.576 -0.133,-1.159 -0.133,-1.757 v -6.153 c 0,-7.136 5.785,-12.92 12.92,-12.92 h 6.153 c 1.623,0 3.169,0.313 4.6,0.858 -0.859,-6.302 -6.249,-11.163 -12.787,-11.163 h -6.153 c -7.136,0 -12.92,5.785 -12.92,12.921 z"
   id="path166" />

		<path
   style="fill:#7ca562"
   d="m 1300.599,1643.927 h -6.153 c -7.136,0 -12.92,5.784 -12.92,12.921 V 1663 c 0,5.513 3.459,10.206 8.32,12.062 -0.079,-0.576 -0.134,-1.159 -0.134,-1.758 v -6.152 c 0,-7.136 5.785,-12.92 12.921,-12.92 h 6.152 c 1.623,0 3.169,0.311 4.6,0.858 -0.859,-6.303 -6.249,-11.163 -12.786,-11.163 z"
   id="path167" />

		<path
   style="fill:#7ca562"
   d="m 1380.845,1808.998 c 0,5.513 3.459,10.206 8.32,12.063 -0.079,-0.577 -0.133,-1.16 -0.133,-1.758 v -6.152 c 0,-7.137 5.785,-12.921 12.92,-12.921 h 6.153 c 1.623,0 3.169,0.313 4.6,0.858 -0.859,-6.302 -6.249,-11.163 -12.787,-11.163 h -6.153 c -7.136,0 -12.92,5.785 -12.92,12.921 z"
   id="path168" />

		<path
   style="fill:#7ca562"
   d="m 1380.845,1711.666 c 0,5.513 3.459,10.206 8.32,12.062 -0.079,-0.576 -0.133,-1.159 -0.133,-1.757 v -6.152 c 0,-7.137 5.785,-12.921 12.92,-12.921 h 6.153 c 1.623,0 3.169,0.312 4.6,0.858 -0.859,-6.303 -6.249,-11.163 -12.787,-11.163 h -6.153 c -7.136,0 -12.92,5.784 -12.92,12.92 z"
   id="path169" />

		<path
   style="fill:#7ca562"
   d="m 1331.186,1857.664 c 0,5.513 3.459,10.207 8.32,12.063 -0.078,-0.576 -0.133,-1.16 -0.133,-1.758 v -6.152 c 0,-7.136 5.785,-12.921 12.921,-12.921 h 6.152 c 1.623,0 3.169,0.313 4.6,0.858 -0.859,-6.302 -6.249,-11.163 -12.787,-11.163 h -6.153 c -7.135,0 -12.92,5.785 -12.92,12.921 z"
   id="path170" />

		<path
   style="fill:#7ca562"
   d="m 1331.186,1808.998 c 0,5.513 3.459,10.206 8.32,12.063 -0.078,-0.577 -0.133,-1.16 -0.133,-1.758 v -6.152 c 0,-7.137 5.785,-12.921 12.921,-12.921 h 6.152 c 1.623,0 3.169,0.313 4.6,0.858 -0.859,-6.302 -6.249,-11.163 -12.787,-11.163 h -6.153 c -7.135,0 -12.92,5.785 -12.92,12.921 z"
   id="path171" />

		<path
   style="fill:#7ca562"
   d="m 1350.258,1643.927 h -6.153 c -7.135,0 -12.92,5.784 -12.92,12.921 V 1663 c 0,5.513 3.459,10.206 8.32,12.062 -0.078,-0.576 -0.133,-1.159 -0.133,-1.758 v -6.152 c 0,-7.136 5.785,-12.92 12.921,-12.92 h 6.152 c 1.623,0 3.169,0.311 4.6,0.858 -0.859,-6.303 -6.249,-11.163 -12.787,-11.163 z"
   id="path172" />

		<path
   style="fill:#7ca562"
   d="m 1399.918,1643.927 h -6.153 c -7.136,0 -12.92,5.784 -12.92,12.921 V 1663 c 0,5.513 3.459,10.206 8.32,12.062 -0.079,-0.576 -0.133,-1.159 -0.133,-1.758 v -6.152 c 0,-7.136 5.785,-12.92 12.92,-12.92 h 6.153 c 1.623,0 3.169,0.311 4.6,0.858 -0.859,-6.303 -6.249,-11.163 -12.787,-11.163 z"
   id="path173" />

		<path
   style="fill:#7ca562"
   d="m 1331.186,1711.666 c 0,5.513 3.459,10.206 8.32,12.062 -0.078,-0.576 -0.133,-1.159 -0.133,-1.757 v -6.152 c 0,-7.137 5.785,-12.921 12.921,-12.921 h 6.152 c 1.623,0 3.169,0.312 4.6,0.858 -0.859,-6.303 -6.249,-11.163 -12.787,-11.163 h -6.153 c -7.135,0 -12.92,5.784 -12.92,12.92 z"
   id="path174" />

		<path
   style="fill:#7ca562"
   d="m 1380.845,1857.664 c 0,5.513 3.459,10.207 8.32,12.063 -0.079,-0.576 -0.133,-1.16 -0.133,-1.758 v -6.152 c 0,-7.136 5.785,-12.921 12.92,-12.921 h 6.153 c 1.623,0 3.169,0.313 4.6,0.858 -0.859,-6.302 -6.249,-11.163 -12.787,-11.163 h -6.153 c -7.136,0 -12.92,5.785 -12.92,12.921 z"
   id="path175" />

		<path
   style="fill:#7ca562"
   d="m 1480.165,1760.332 c 0,5.513 3.459,10.206 8.32,12.062 -0.079,-0.576 -0.133,-1.159 -0.133,-1.757 v -6.153 c 0,-7.136 5.785,-12.92 12.92,-12.92 h 6.152 c 1.623,0 3.169,0.313 4.601,0.858 -0.859,-6.302 -6.249,-11.163 -12.787,-11.163 h -6.152 c -7.136,0 -12.921,5.785 -12.921,12.921 z"
   id="path176" />

		<path
   style="fill:#7ca562"
   d="m 1480.165,1808.998 c 0,5.513 3.459,10.206 8.32,12.063 -0.079,-0.577 -0.133,-1.16 -0.133,-1.758 v -6.152 c 0,-7.137 5.785,-12.921 12.92,-12.921 h 6.152 c 1.623,0 3.169,0.313 4.601,0.858 -0.859,-6.302 -6.249,-11.163 -12.787,-11.163 h -6.152 c -7.136,0 -12.921,5.785 -12.921,12.921 z"
   id="path177" />

		<path
   style="fill:#7ca562"
   d="m 1499.238,1643.927 h -6.152 c -7.136,0 -12.921,5.784 -12.921,12.921 V 1663 c 0,5.513 3.459,10.206 8.32,12.062 -0.079,-0.576 -0.133,-1.159 -0.133,-1.758 v -6.152 c 0,-7.136 5.785,-12.92 12.92,-12.92 h 6.152 c 1.623,0 3.169,0.311 4.601,0.858 -0.859,-6.303 -6.249,-11.163 -12.787,-11.163 z"
   id="path178" />

		<path
   style="fill:#7ca562"
   d="m 1480.165,1711.666 c 0,5.513 3.459,10.206 8.32,12.062 -0.079,-0.576 -0.133,-1.159 -0.133,-1.757 v -6.152 c 0,-7.137 5.785,-12.921 12.92,-12.921 h 6.152 c 1.623,0 3.169,0.312 4.601,0.858 -0.859,-6.303 -6.249,-11.163 -12.787,-11.163 h -6.152 c -7.136,0 -12.921,5.784 -12.921,12.92 z"
   id="path179" />

		<path
   style="fill:#7ca562"
   d="m 1480.165,1857.664 c 0,5.513 3.459,10.207 8.32,12.063 -0.079,-0.576 -0.133,-1.16 -0.133,-1.758 v -6.152 c 0,-7.136 5.785,-12.921 12.92,-12.921 h 6.152 c 1.623,0 3.169,0.313 4.601,0.858 -0.859,-6.302 -6.249,-11.163 -12.787,-11.163 h -6.152 c -7.136,0 -12.921,5.785 -12.921,12.921 z"
   id="path180" />

		<path
   style="fill:#7ca562"
   d="m 1430.505,1808.998 c 0,5.513 3.459,10.206 8.32,12.063 -0.078,-0.577 -0.133,-1.16 -0.133,-1.758 v -6.152 c 0,-7.137 5.785,-12.921 12.92,-12.921 h 6.153 c 1.623,0 3.169,0.313 4.6,0.858 -0.859,-6.302 -6.249,-11.163 -12.787,-11.163 h -6.152 c -7.136,0 -12.921,5.785 -12.921,12.921 z"
   id="path181" />

		<path
   style="fill:#7ca562"
   d="m 1430.505,1857.664 c 0,5.513 3.459,10.207 8.32,12.063 -0.078,-0.576 -0.133,-1.16 -0.133,-1.758 v -6.152 c 0,-7.136 5.785,-12.921 12.92,-12.921 h 6.153 c 1.623,0 3.169,0.313 4.6,0.858 -0.859,-6.302 -6.249,-11.163 -12.787,-11.163 h -6.152 c -7.136,0 -12.921,5.785 -12.921,12.921 z"
   id="path182" />

		<path
   style="fill:#7ca562"
   d="m 1449.578,1643.927 h -6.152 c -7.136,0 -12.921,5.784 -12.921,12.921 V 1663 c 0,5.513 3.459,10.206 8.32,12.062 -0.078,-0.576 -0.133,-1.159 -0.133,-1.758 v -6.152 c 0,-7.136 5.785,-12.92 12.92,-12.92 h 6.153 c 1.623,0 3.169,0.311 4.6,0.858 -0.859,-6.303 -6.249,-11.163 -12.787,-11.163 z"
   id="path183" />

		<path
   style="fill:#7ca562"
   d="m 1430.505,1760.332 c 0,5.513 3.459,10.206 8.32,12.062 -0.078,-0.576 -0.133,-1.159 -0.133,-1.757 v -6.153 c 0,-7.136 5.785,-12.92 12.92,-12.92 h 6.153 c 1.623,0 3.169,0.313 4.6,0.858 -0.859,-6.302 -6.249,-11.163 -12.787,-11.163 h -6.152 c -7.136,0 -12.921,5.785 -12.921,12.921 z"
   id="path184" />

		<path
   style="fill:#7ca562"
   d="m 1430.505,1711.666 c 0,5.513 3.459,10.206 8.32,12.062 -0.078,-0.576 -0.133,-1.159 -0.133,-1.757 v -6.152 c 0,-7.137 5.785,-12.921 12.92,-12.921 h 6.153 c 1.623,0 3.169,0.312 4.6,0.858 -0.859,-6.303 -6.249,-11.163 -12.787,-11.163 h -6.152 c -7.136,0 -12.921,5.784 -12.921,12.92 z"
   id="path185" />

		<path
   style="fill:#7ca562"
   d="m 1331.186,1760.332 c 0,5.513 3.459,10.206 8.32,12.062 -0.078,-0.576 -0.133,-1.159 -0.133,-1.757 v -6.153 c 0,-7.136 5.785,-12.92 12.921,-12.92 h 6.152 c 1.623,0 3.169,0.313 4.6,0.858 -0.859,-6.302 -6.249,-11.163 -12.787,-11.163 h -6.153 c -7.135,0 -12.92,5.785 -12.92,12.921 z"
   id="path186" />

		<path
   style="fill:#7ca562"
   d="m 1548.898,1741.259 h -6.153 c -7.136,0 -12.92,5.785 -12.92,12.921 v 6.152 c 0,5.513 3.459,10.206 8.32,12.062 -0.079,-0.576 -0.134,-1.159 -0.134,-1.757 v -6.153 c 0,-7.136 5.785,-12.92 12.921,-12.92 h 6.152 c 1.623,0 3.169,0.313 4.6,0.858 -0.858,-6.302 -6.248,-11.163 -12.786,-11.163 z"
   id="path187" />

		<path
   style="fill:#7ca562"
   d="m 1548.898,1692.593 h -6.153 c -7.136,0 -12.92,5.784 -12.92,12.92 v 6.153 c 0,5.513 3.459,10.206 8.32,12.062 -0.079,-0.576 -0.134,-1.159 -0.134,-1.757 v -6.152 c 0,-7.137 5.785,-12.921 12.921,-12.921 h 6.152 c 1.623,0 3.169,0.312 4.6,0.858 -0.858,-6.303 -6.248,-11.163 -12.786,-11.163 z"
   id="path188" />

		<path
   style="fill:#7ca562"
   d="m 1548.898,1789.925 h -6.153 c -7.136,0 -12.92,5.785 -12.92,12.921 v 6.152 c 0,5.513 3.459,10.206 8.32,12.063 -0.079,-0.577 -0.134,-1.16 -0.134,-1.758 v -6.152 c 0,-7.137 5.785,-12.921 12.921,-12.921 h 6.152 c 1.623,0 3.169,0.313 4.6,0.858 -0.858,-6.302 -6.248,-11.163 -12.786,-11.163 z"
   id="path189" />

		<path
   style="fill:#7ca562"
   d="m 1182.206,1857.664 c 0,5.513 3.459,10.207 8.32,12.063 -0.078,-0.576 -0.133,-1.16 -0.133,-1.758 v -6.152 c 0,-7.136 5.785,-12.921 12.92,-12.921 h 6.153 c 1.623,0 3.169,0.313 4.6,0.858 -0.859,-6.302 -6.249,-11.163 -12.787,-11.163 h -6.152 c -7.136,0 -12.92,5.785 -12.92,12.921 v 6.152 z"
   id="path190" />

		<path
   style="fill:#7ca562"
   d="m 1182.206,1808.998 c 0,5.513 3.459,10.206 8.32,12.063 -0.078,-0.577 -0.133,-1.16 -0.133,-1.758 v -6.152 c 0,-7.137 5.785,-12.921 12.92,-12.921 h 6.153 c 1.623,0 3.169,0.313 4.6,0.858 -0.859,-6.302 -6.249,-11.163 -12.787,-11.163 h -6.152 c -7.136,0 -12.92,5.785 -12.92,12.921 v 6.152 z"
   id="path191" />

		<path
   style="fill:#7ca562"
   d="m 1073.405,1793.988 v 10.864 c 0,0 56.942,-5.459 79.421,9.959 -6.981,-22.294 -59.004,-21.874 -79.421,-20.823 z"
   id="path192" />

		<path
   style="fill:#7ca562"
   d="m 1548.898,1643.927 h -6.153 c -7.136,0 -12.92,5.784 -12.92,12.921 V 1663 c 0,5.513 3.459,10.206 8.32,12.062 -0.079,-0.576 -0.134,-1.159 -0.134,-1.758 v -6.152 c 0,-7.136 5.785,-12.92 12.921,-12.92 h 6.152 c 1.623,0 3.169,0.311 4.6,0.858 -0.858,-6.303 -6.248,-11.163 -12.786,-11.163 z"
   id="path193" />

		<path
   style="fill:#7ca562"
   d="m 1182.206,1760.332 c 0,5.513 3.459,10.206 8.32,12.062 -0.078,-0.576 -0.133,-1.159 -0.133,-1.757 v -6.153 c 0,-7.136 5.785,-12.92 12.92,-12.92 h 6.153 c 1.623,0 3.169,0.313 4.6,0.858 -0.859,-6.302 -6.249,-11.163 -12.787,-11.163 h -6.152 c -7.136,0 -12.92,5.785 -12.92,12.921 v 6.152 z"
   id="path194" />

		<path
   style="fill:#7ca562"
   d="m 1586.067,1647.922 c 6.271,9.825 9.919,21.484 9.919,34.004 v 151.489 c 0,34.965 -28.345,63.31 -63.31,63.31 H 1216.93 c -15.952,0 -30.515,-5.918 -41.647,-17.252 11.589,18.041 29.596,27.557 49.834,27.557 h 315.747 c 34.965,0 63.31,-28.345 63.31,-63.311 V 1692.23 c -10e-4,-17.254 -6.912,-32.888 -18.107,-44.308 z"
   id="path195" />

		<path
   style="fill:#7ca562"
   d="m 1538.146,1869.726 c -0.079,-0.576 -0.134,-1.16 -0.134,-1.758 v -6.152 c 0,-7.136 5.785,-12.921 12.921,-12.921 h 6.152 c 1.623,0 3.169,0.313 4.6,0.858 -0.859,-6.302 -6.249,-11.163 -12.787,-11.163 h -6.153 c -7.136,0 -12.92,5.785 -12.92,12.921 v 6.152 c 0,5.514 3.459,10.208 8.321,12.063 z"
   id="path196" />

		<path
   style="fill:#7ca562"
   d="m 1231.865,1857.664 c 0,5.513 3.459,10.207 8.32,12.063 -0.079,-0.576 -0.133,-1.16 -0.133,-1.758 v -6.152 c 0,-7.136 5.785,-12.921 12.92,-12.921 h 6.153 c 1.623,0 3.169,0.313 4.6,0.858 -0.859,-6.302 -6.249,-11.163 -12.787,-11.163 h -6.152 c -7.136,0 -12.921,5.785 -12.921,12.921 z"
   id="path197" />

		<path
   style="fill:#7ca562"
   d="m 1182.206,1711.666 c 0,5.513 3.459,10.206 8.32,12.062 -0.078,-0.576 -0.133,-1.159 -0.133,-1.757 v -6.152 c 0,-7.137 5.785,-12.921 12.92,-12.921 h 6.153 c 1.623,0 3.169,0.312 4.6,0.858 -0.859,-6.303 -6.249,-11.163 -12.787,-11.163 h -6.152 c -7.136,0 -12.92,5.784 -12.92,12.92 v 6.153 z"
   id="path198" />

		<path
   style="fill:#7ca562"
   d="m 1281.525,1857.664 c 0,5.513 3.459,10.207 8.32,12.063 -0.079,-0.576 -0.134,-1.16 -0.134,-1.758 v -6.152 c 0,-7.136 5.785,-12.921 12.921,-12.921 h 6.152 c 1.623,0 3.169,0.313 4.6,0.858 -0.859,-6.302 -6.249,-11.163 -12.787,-11.163 h -6.153 c -7.136,0 -12.92,5.785 -12.92,12.921 v 6.152 z"
   id="path199" />

		<path
   style="fill:#7ca562"
   d="m 1231.865,1711.666 c 0,5.513 3.459,10.206 8.32,12.062 -0.079,-0.576 -0.133,-1.159 -0.133,-1.757 v -6.152 c 0,-7.137 5.785,-12.921 12.92,-12.921 h 6.153 c 1.623,0 3.169,0.312 4.6,0.858 -0.859,-6.303 -6.249,-11.163 -12.787,-11.163 h -6.152 c -7.136,0 -12.921,5.784 -12.921,12.92 z"
   id="path200" />

		<path
   style="fill:#7ca562"
   d="m 1281.525,1808.998 c 0,5.513 3.459,10.206 8.32,12.063 -0.079,-0.577 -0.134,-1.16 -0.134,-1.758 v -6.152 c 0,-7.137 5.785,-12.921 12.921,-12.921 h 6.152 c 1.623,0 3.169,0.313 4.6,0.858 -0.859,-6.302 -6.249,-11.163 -12.787,-11.163 h -6.153 c -7.136,0 -12.92,5.785 -12.92,12.921 v 6.152 z"
   id="path201" />

		<path
   style="fill:#7ca562"
   d="m 1281.525,1760.332 c 0,5.513 3.459,10.206 8.32,12.062 -0.079,-0.576 -0.134,-1.159 -0.134,-1.757 v -6.153 c 0,-7.136 5.785,-12.92 12.921,-12.92 h 6.152 c 1.623,0 3.169,0.313 4.6,0.858 -0.859,-6.302 -6.249,-11.163 -12.787,-11.163 h -6.153 c -7.136,0 -12.92,5.785 -12.92,12.921 v 6.152 z"
   id="path202" />

		<path
   style="fill:#7ca562"
   d="m 1250.938,1643.927 h -6.152 c -7.136,0 -12.921,5.784 -12.921,12.921 V 1663 c 0,5.513 3.459,10.206 8.32,12.062 -0.079,-0.576 -0.133,-1.159 -0.133,-1.758 v -6.152 c 0,-7.136 5.785,-12.92 12.92,-12.92 h 6.153 c 1.623,0 3.169,0.311 4.6,0.858 -0.859,-6.303 -6.248,-11.163 -12.787,-11.163 z"
   id="path203" />

		<path
   style="fill:#7ca562"
   d="m 1201.278,1643.927 h -6.152 c -7.136,0 -12.92,5.784 -12.92,12.921 V 1663 c 0,5.513 3.459,10.206 8.32,12.062 -0.078,-0.576 -0.133,-1.159 -0.133,-1.758 v -6.152 c 0,-7.136 5.785,-12.92 12.92,-12.92 h 6.153 c 1.623,0 3.169,0.311 4.6,0.858 -0.86,-6.303 -6.25,-11.163 -12.788,-11.163 z"
   id="path204" />

		<path
   style="fill:#7ca562"
   d="m 1281.525,1711.666 c 0,5.513 3.459,10.206 8.32,12.062 -0.079,-0.576 -0.134,-1.159 -0.134,-1.757 v -6.152 c 0,-7.137 5.785,-12.921 12.921,-12.921 h 6.152 c 1.623,0 3.169,0.312 4.6,0.858 -0.859,-6.303 -6.249,-11.163 -12.787,-11.163 h -6.153 c -7.136,0 -12.92,5.784 -12.92,12.92 v 6.153 z"
   id="path205" />

		<path
   style="fill:#7ca562"
   d="m 1231.865,1760.332 c 0,5.513 3.459,10.206 8.32,12.062 -0.079,-0.576 -0.133,-1.159 -0.133,-1.757 v -6.153 c 0,-7.136 5.785,-12.92 12.92,-12.92 h 6.153 c 1.623,0 3.169,0.313 4.6,0.858 -0.859,-6.302 -6.249,-11.163 -12.787,-11.163 h -6.152 c -7.136,0 -12.921,5.785 -12.921,12.921 z"
   id="path206" />

		<path
   style="fill:#7ca562"
   d="m 1231.865,1808.998 c 0,5.513 3.459,10.206 8.32,12.063 -0.079,-0.577 -0.133,-1.16 -0.133,-1.758 v -6.152 c 0,-7.137 5.785,-12.921 12.92,-12.921 h 6.153 c 1.623,0 3.169,0.313 4.6,0.858 -0.859,-6.302 -6.249,-11.163 -12.787,-11.163 h -6.152 c -7.136,0 -12.921,5.785 -12.921,12.921 z"
   id="path207" />

	</g>

	<path
   style="fill:#8bba6c"
   d="m 161.165,1719.778 c 0,0 -30.27,1.907 -43.608,20.159 -7.476,10.23 -6.295,47.215 0,60.614 9.612,20.461 43.608,20.16 43.608,20.16 l 278.628,-16.619 v -33.848 -33.849 z m 50.033,54.825 c 0,7.148 -5.795,12.942 -12.943,12.942 h -49.657 c -7.148,0 -12.943,-5.794 -12.943,-12.942 v -8.738 c 0,-7.147 5.795,-12.942 12.943,-12.942 h 49.657 c 7.148,0 12.943,5.795 12.943,12.942 z"
   id="path208" />

	<g
   id="g210">
		<path
   style="fill:#7ca562"
   d="m 431.573,1735.959 v 27.831 33.848 l -278.629,16.619 c 0,0 -17.807,0.151 -31.291,-7.521 12.744,14.253 39.511,14.028 39.511,14.028 l 278.628,-16.619 v -33.848 -33.849 z"
   id="path209" />

		<path
   style="fill:#7ca562"
   d="m 137.141,1780.666 c -0.945,-1.797 -1.486,-3.84 -1.486,-6.01 v -8.738 c 0,-7.148 5.795,-12.943 12.943,-12.943 h 49.657 c 1.12,0 2.201,0.157 3.237,0.425 -2.165,-4.12 -6.48,-6.933 -11.457,-6.933 h -49.658 c -7.148,0 -12.942,5.795 -12.942,12.942 v 8.738 c 0,6.029 4.126,11.079 9.706,12.519 z"
   id="path210" />

	</g>

	<polygon
   style="fill:#84593c"
   points="1058.403,1783.545 1065.904,1756.826 1073.336,1757.226 1073.405,1783.545 "
   id="polygon210" />

	<polygon
   style="fill:#84593c"
   points="462.215,1783.264 451.004,1757.226 439.793,1757.226 439.793,1783.264 "
   id="polygon211" />

	<path
   style="opacity:0.42;fill:#ffffff"
   d="m 150.857,1736.224 c 20.975,-0.258 41.985,0.525 62.809,3.053 25.48,3.093 50.811,8.801 76.471,8.193 2.707,-0.064 5.965,-0.558 7.037,-3.045 0.731,-1.698 0.041,-3.754 -1.253,-5.073 -1.294,-1.32 -3.078,-2.033 -4.848,-2.563 -4.63,-1.385 -9.494,-1.748 -14.313,-2.104 -29.787,-2.199 -59.574,-4.397 -89.361,-6.597 -11.651,-0.86 -23.225,-0.441 -34.843,-0.957 -3.06,-0.136 -6.239,-1.204 -8.287,1.698 -3.637,5.154 2.507,7.445 6.588,7.395 z"
   id="path211" />

	<path
   style="opacity:0.34;fill:#ffffff"
   d="m 1094.151,1767.265 c 13.694,-1.603 27.389,-3.204 41.084,-4.807 4.924,-0.576 9.943,-1.179 14.447,-3.251 4.504,-2.072 8.49,-5.897 9.453,-10.762 0.36,-1.818 0.166,-3.971 -1.285,-5.126 -1.348,-1.073 -3.281,-0.912 -4.961,-0.538 -5.642,1.257 -10.713,4.251 -15.982,6.629 -11.138,5.026 -23.627,7.356 -35.73,5.667 -5.703,-0.796 -18.057,-5.099 -20.867,2.937 -3.035,8.679 8.27,9.902 13.841,9.251 z"
   id="path212" />

</g>
  </g>
</svg>
