<?xml version="1.0" encoding="UTF-8" standalone="no"?>
<!-- Created with Inkscape (http://www.inkscape.org/) -->

<svg
   width="24.5mm"
   height="30.299999mm"
   viewBox="0 0 24.5 30.299999"
   version="1.1"
   id="svg1"
   inkscape:version="1.4.3 (0d15f75, 2025-12-25)"
   sodipodi:docname="termite.svg"
   xmlns:inkscape="http://www.inkscape.org/namespaces/inkscape"
   xmlns:sodipodi="http://sodipodi.sourceforge.net/DTD/sodipodi-0.dtd"
   xmlns="http://www.w3.org/2000/svg"
   xmlns:svg="http://www.w3.org/2000/svg">
  <sodipodi:namedview
     id="namedview1"
     pagecolor="#ffffff"
     bordercolor="#000000"
     borderopacity="0.25"
     inkscape:showpageshadow="2"
     inkscape:pageopacity="0.0"
     inkscape:pagecheckerboard="0"
     inkscape:deskcolor="#d1d1d1"
     inkscape:document-units="mm"
     inkscape:zoom="5.8083614"
     inkscape:cx="64.734265"
     inkscape:cy="60.344042"
     inkscape:window-width="1920"
     inkscape:window-height="1017"
     inkscape:window-x="-8"
     inkscape:window-y="-8"
     inkscape:window-maximized="1"
     inkscape:current-layer="layer1" />
  <defs
     id="defs1" />
  <g
     inkscape:label="Layer 1"
     inkscape:groupmode="layer"
     id="layer1">
    <g
       id="g355"
       transform="matrix(0.54645074,0,0,0.54645074,-141.75601,-199.66617)">
		<g
   id="g328">
			<path
   style="fill:#7d4c2e"
   d="m 284.626,394.685 c 0.282,0 0.565,-0.111 0.773,-0.334 l 7.149,-7.605 c 0.4,-0.427 0.38,-1.098 -0.047,-1.499 -0.428,-0.402 -1.1,-0.382 -1.5,0.046 l -7.149,7.604 c -0.401,0.428 -0.381,1.099 0.046,1.5 0.206,0.194 0.467,0.288 0.728,0.288 z"
   id="path328" />

		</g>

		<g
   id="g329">
			<path
   style="fill:#7d4c2e"
   d="m 269.841,397.961 -0.113,0.892 -0.948,7.421 c -0.007,0.071 -0.027,0.148 -0.064,0.212 l -2.122,4.421 c -0.121,0.256 -0.375,0.404 -0.637,0.404 -0.105,0 -0.205,-0.021 -0.305,-0.07 -0.353,-0.17 -0.502,-0.588 -0.332,-0.941 l 2.072,-4.322 0.948,-7.407 0.099,-0.792 c 0.05,-0.383 0.403,-0.651 0.793,-0.608 0.381,0.047 0.659,0.401 0.609,0.79 z"
   id="path329" />

		</g>

		<g
   id="g330">
			<path
   style="fill:#7d4c2e"
   d="m 277.982,397.551 -2.772,0.438 -5.483,0.863 -0.425,0.063 c -0.057,0.008 -0.105,0.015 -0.162,0.015 -0.311,0 -0.602,-0.135 -0.8,-0.361 -0.128,-0.148 -0.22,-0.332 -0.247,-0.537 -0.092,-0.573 0.304,-1.117 0.884,-1.211 l 6.827,-1.074 1.854,-0.291 c 0.537,-0.084 1.039,0.256 1.181,0.765 0.015,0.035 0.022,0.07 0.028,0.113 0.092,0.581 -0.304,1.125 -0.885,1.217 z"
   id="path330" />

		</g>

		<g
   id="g331">
			<path
   style="fill:#7d4c2e"
   d="m 272.6,386.02 c 0,0.39 -0.318,0.708 -0.707,0.708 h -9.65 c -0.155,0 -0.304,-0.05 -0.424,-0.142 l -2.123,-1.592 c -0.31,-0.234 -0.375,-0.68 -0.141,-0.99 0.233,-0.311 0.68,-0.375 0.99,-0.142 l 1.932,1.45 h 9.416 c 0.388,10e-4 0.707,0.319 0.707,0.708 z"
   id="path331" />

		</g>

		<g
   id="g332">
			<path
   style="fill:#7d4c2e"
   d="m 279.766,394.396 c -0.205,0.198 -0.467,0.29 -0.729,0.29 -0.283,0 -0.566,-0.113 -0.771,-0.332 l -1.541,-1.642 -5.61,-5.964 c -0.008,-0.008 -0.015,-0.014 -0.015,-0.02 -0.361,-0.411 -0.361,-1.02 0.007,-1.415 0.015,-0.022 0.036,-0.042 0.058,-0.065 0.424,-0.402 1.096,-0.381 1.499,0.043 l 4.853,5.164 0.213,0.227 1.203,1.28 0.877,0.935 c 0.401,0.43 0.38,1.103 -0.044,1.499 z"
   id="path332" />

		</g>

		<g
   id="g333">
			<path
   style="fill:#7d4c2e"
   d="m 273.223,384.166 c -0.064,0.022 -0.128,0.028 -0.191,0.028 -0.312,0 -0.594,-0.205 -0.68,-0.516 l -0.211,-0.758 -0.836,-2.949 -3.656,-1.43 c -0.369,-0.142 -0.545,-0.551 -0.404,-0.913 0.142,-0.367 0.553,-0.544 0.912,-0.402 l 3.99,1.556 c 0.205,0.078 0.361,0.248 0.425,0.467 l 0.927,3.283 0.212,0.764 c 0.105,0.375 -0.113,0.764 -0.488,0.87 z"
   id="path333" />

		</g>

		<g
   id="g334">
			<path
   style="fill:#7d4c2e"
   d="m 281.874,388.44 v 1.167 c -0.007,0.007 -0.007,0.021 -0.015,0.028 -0.006,0.014 -0.014,0.021 -0.027,0.035 -0.205,0.275 -0.523,0.418 -0.842,0.418 -0.213,0 -0.426,-0.064 -0.609,-0.191 l -1.266,-0.877 -0.764,-0.538 -1.19,-0.828 -4.739,-3.296 c -0.467,-0.325 -0.587,-0.962 -0.282,-1.436 0.006,-0.014 0.014,-0.021 0.02,-0.034 0.305,-0.439 0.871,-0.574 1.338,-0.354 0.05,0.028 0.092,0.049 0.141,0.085 l 3.835,2.667 1.895,1.323 2.229,1.548 c 0.093,0.065 0.17,0.143 0.234,0.227 0.014,0.019 0.027,0.034 0.042,0.056 z"
   id="path334" />

		</g>

		<g
   id="g335">
			<path
   style="fill:#7d4c2e"
   d="m 276.652,376.972 c -0.07,0.021 -0.141,0.028 -0.211,0.028 -0.135,0 -0.262,-0.035 -0.369,-0.106 -0.141,-0.092 -0.254,-0.226 -0.303,-0.396 l -1.946,-6.36 -3.749,-3.53 c -0.29,-0.268 -0.305,-0.714 -0.035,-0.997 0.268,-0.283 0.714,-0.297 0.997,-0.027 l 3.891,3.649 c 0.093,0.084 0.163,0.191 0.198,0.312 l 1.853,6.083 0.142,0.46 c 0.113,0.374 -0.093,0.764 -0.468,0.884 z"
   id="path335" />

		</g>

		<g
   id="g336">
			<path
   style="fill:#7d4c2e"
   d="m 297.708,411.31 c 0.102,0 0.207,-0.022 0.306,-0.069 0.352,-0.17 0.501,-0.592 0.332,-0.944 l -2.073,-4.318 -1.046,-8.199 c -0.05,-0.388 -0.404,-0.656 -0.792,-0.612 -0.388,0.05 -0.661,0.404 -0.612,0.792 l 1.06,8.313 c 0.01,0.074 0.032,0.147 0.065,0.216 l 2.123,4.422 c 0.12,0.252 0.373,0.399 0.637,0.399 z"
   id="path336" />

		</g>

		<g
   id="g337">
			<path
   style="fill:#7d4c2e"
   d="m 294.525,398.931 c 0.514,0 0.965,-0.374 1.047,-0.896 0.092,-0.579 -0.305,-1.122 -0.883,-1.213 l -8.682,-1.366 c -0.578,-0.093 -1.121,0.304 -1.213,0.882 -0.091,0.579 0.305,1.123 0.883,1.214 l 8.682,1.366 c 0.056,0.008 0.112,0.013 0.166,0.013 z"
   id="path337" />

		</g>

		<g
   id="g338">
			<path
   style="fill:#7d4c2e"
   d="m 291.775,386.728 h 9.647 c 0.152,0 0.301,-0.05 0.424,-0.142 l 2.123,-1.592 c 0.313,-0.234 0.375,-0.678 0.141,-0.99 -0.234,-0.314 -0.677,-0.376 -0.99,-0.142 l -1.934,1.45 h -9.41 c -0.391,0 -0.707,0.316 -0.707,0.707 -0.001,0.391 0.316,0.709 0.706,0.709 z"
   id="path338" />

		</g>

		<g
   id="g339">
			<path
   style="fill:#7d4c2e"
   d="m 290.634,384.196 c 0.309,0 0.593,-0.204 0.681,-0.516 l 1.046,-3.711 3.659,-1.427 c 0.363,-0.142 0.543,-0.552 0.402,-0.916 -0.143,-0.363 -0.555,-0.543 -0.917,-0.401 l -3.986,1.554 c -0.206,0.081 -0.364,0.254 -0.424,0.468 l -1.143,4.049 c -0.106,0.376 0.113,0.768 0.489,0.873 0.065,0.019 0.129,0.027 0.193,0.027 z"
   id="path339" />

		</g>

		<g
   id="g340">
			<path
   style="fill:#7d4c2e"
   d="m 281.79,388.442 c 0.072,-0.109 0.165,-0.208 0.278,-0.287 l 7.959,-5.538 c 0.483,-0.335 1.143,-0.215 1.477,0.266 0.336,0.48 0.217,1.142 -0.264,1.477 l -7.959,5.538 c -0.186,0.129 -0.396,0.19 -0.605,0.19 -0.336,0 -0.666,-0.16 -0.872,-0.456 -0.005,-0.007 -0.009,-0.016 -0.014,-0.022 z"
   id="path340" />

		</g>

		<g
   id="g341">
			<path
   style="fill:#7d4c2e"
   d="m 287.221,377 c 0.303,0 0.583,-0.196 0.676,-0.501 l 1.943,-6.363 3.754,-3.526 c 0.285,-0.268 0.299,-0.715 0.031,-1 -0.268,-0.285 -0.717,-0.298 -1,-0.03 l -3.891,3.654 c -0.09,0.084 -0.156,0.19 -0.192,0.309 l -1.999,6.544 c -0.113,0.374 0.098,0.769 0.471,0.883 0.068,0.02 0.138,0.03 0.207,0.03 z"
   id="path341" />

		</g>

		<path
   style="fill:#ad7c5e"
   d="m 290.935,411.961 c -0.07,0.446 -0.183,0.871 -0.332,1.281 -0.375,1.117 -0.969,2.107 -1.67,2.971 -0.375,0.467 -0.785,0.898 -1.202,1.288 -2.13,1.973 -4.683,3.048 -5.857,3.296 v 0.021 c -0.015,0 -0.028,-0.008 -0.042,-0.008 -0.015,0 -0.029,0.008 -0.043,0.008 v -0.021 c -1.174,-0.248 -3.729,-1.323 -5.851,-3.296 -0.425,-0.39 -0.827,-0.821 -1.202,-1.288 -0.701,-0.863 -1.295,-1.853 -1.67,-2.971 -0.148,-0.41 -0.262,-0.835 -0.332,-1.281 -0.178,-0.912 -0.205,-1.91 -0.043,-2.978 0.028,-0.276 0.086,-0.566 0.148,-0.856 0.028,-0.142 0.064,-0.283 0.092,-0.425 0.213,-0.926 0.432,-1.931 0.666,-2.971 0.099,-0.425 0.189,-0.85 0.297,-1.288 0.219,-0.969 0.445,-1.967 0.693,-2.972 0.099,-0.424 0.205,-0.855 0.311,-1.279 0.1,-0.404 0.205,-0.807 0.312,-1.203 0.149,-0.595 0.304,-1.188 0.468,-1.769 0.041,-0.155 0.084,-0.318 0.127,-0.474 0.077,-0.275 0.162,-0.544 0.24,-0.814 0.212,-0.765 0.439,-1.508 0.68,-2.222 0.077,-0.255 0.162,-0.502 0.246,-0.75 0.149,-0.439 0.305,-0.87 0.461,-1.28 0.027,-0.077 0.057,-0.155 0.084,-0.227 0.227,-0.594 0.461,-1.16 0.701,-1.684 0.043,-0.099 0.085,-0.197 0.135,-0.29 0.318,-0.7 0.658,-1.33 1.017,-1.874 0.178,-0.291 0.368,-0.559 0.566,-0.8 0.588,-0.729 1.203,-1.209 1.854,-1.358 v -0.028 c 0.008,0 0.014,0.008 0.021,0.008 0.007,0 0.014,0.006 0.022,0.006 0.007,0 0.014,-0.006 0.021,-0.006 0.006,0 0.014,-0.008 0.021,-0.008 v 0.028 c 0.651,0.149 1.267,0.629 1.853,1.358 0.198,0.24 0.389,0.509 0.566,0.8 0.361,0.544 0.701,1.174 1.02,1.874 0.049,0.093 0.099,0.191 0.141,0.29 0.24,0.523 0.467,1.09 0.693,1.684 0.035,0.071 0.064,0.149 0.092,0.227 0.156,0.41 0.312,0.842 0.46,1.28 0.085,0.248 0.171,0.495 0.247,0.743 0.241,0.721 0.468,1.464 0.68,2.228 0.078,0.27 0.163,0.538 0.24,0.814 0.043,0.155 0.086,0.318 0.128,0.474 0.163,0.58 0.318,1.174 0.467,1.769 0.106,0.396 0.212,0.799 0.311,1.203 0.106,0.424 0.212,0.855 0.311,1.279 0.248,1.005 0.475,2.003 0.693,2.972 0.106,0.438 0.199,0.863 0.298,1.288 0.233,1.04 0.452,2.045 0.665,2.971 0.027,0.142 0.064,0.283 0.092,0.425 0.064,0.29 0.12,0.58 0.148,0.856 0.162,1.069 0.134,2.067 -0.044,2.979 z"
   id="path342" />

		<g
   id="g343">
			<path
   style="fill:#c0c0c0"
   d="m 280.664,368.723 v 10.746 c -1.584,-0.177 -2.887,-1.974 -3.19,-4.322 -0.042,-0.339 -0.063,-0.693 -0.063,-1.055 -10e-4,-2.836 1.435,-5.164 3.253,-5.369 z"
   id="path343" />

		</g>

		<g
   id="g344">
			<path
   style="fill:#c0c0c0"
   d="m 283,368.721 c 1.818,0.209 3.254,2.532 3.254,5.375 0,2.844 -1.436,5.168 -3.254,5.376 z"
   id="path344" />

		</g>

		<path
   style="fill:#9d6c4e"
   d="m 288.333,379.83 c 0,2.072 -1.019,3.912 -2.589,5.037 -0.602,0.424 -1.281,0.749 -2.017,0.94 -0.503,0.142 -1.04,0.212 -1.585,0.212 h -0.623 c -0.544,0 -1.082,-0.07 -1.584,-0.212 -0.736,-0.184 -1.415,-0.51 -2.01,-0.94 -1.57,-1.125 -2.596,-2.965 -2.596,-5.037 0,-1.062 0.269,-2.059 0.742,-2.937 0.248,-0.46 0.553,-0.884 0.906,-1.267 0.156,-0.169 0.318,-0.332 0.495,-0.48 0.382,-0.332 0.806,-0.616 1.267,-0.849 0.594,-0.297 1.238,-0.503 1.924,-0.595 0.276,-0.042 0.566,-0.064 0.855,-0.064 h 0.623 c 0.291,0 0.58,0.022 0.855,0.064 0.688,0.092 1.33,0.298 1.925,0.595 0.46,0.232 0.884,0.517 1.267,0.849 0.177,0.148 0.34,0.311 0.495,0.48 0.353,0.383 0.657,0.807 0.905,1.267 0.476,0.879 0.745,1.876 0.745,2.937 z"
   id="path345" />

		<path
   style="fill:#5d2c10"
   d="m 284.938,374.1 c 0,0.063 -0.008,0.134 -0.015,0.198 -0.092,0.735 -0.722,1.301 -1.492,1.301 h -3.198 c -0.764,0 -1.393,-0.565 -1.492,-1.301 -0.008,-0.065 -0.014,-0.135 -0.014,-0.198 0,-0.835 0.678,-1.508 1.506,-1.508 h 3.198 c 0.834,0 1.507,0.673 1.507,1.508 z"
   id="path346" />

		<path
   style="fill:#9d6c4e"
   d="m 286.235,390.685 h -4.361 -0.084 -4.36 c -0.156,0.41 -0.313,0.841 -0.461,1.28 h 4.821 0.084 4.821 c -0.148,-0.44 -0.304,-0.87 -0.46,-1.28 z"
   id="path347" />

		<path
   style="fill:#9d6c4e"
   d="m 287.993,396.221 h -12.315 c 0.041,-0.155 0.084,-0.318 0.127,-0.474 0.077,-0.275 0.162,-0.544 0.24,-0.814 h 11.58 c 0.078,0.27 0.163,0.538 0.24,0.814 0.043,0.155 0.086,0.318 0.128,0.474 z"
   id="path348" />

		<path
   style="fill:#9d6c4e"
   d="m 289.082,400.472 h -14.494 c 0.099,-0.424 0.205,-0.855 0.311,-1.279 h 13.873 c 0.105,0.423 0.211,0.855 0.31,1.279 z"
   id="path349" />

		<path
   style="fill:#9d6c4e"
   d="m 290.073,404.731 h -16.475 c 0.099,-0.425 0.189,-0.85 0.297,-1.288 h 15.881 c 0.106,0.439 0.199,0.864 0.297,1.288 z"
   id="path350" />

		<path
   style="fill:#9d6c4e"
   d="m 290.978,408.983 h -18.287 c 0.028,-0.276 0.086,-0.566 0.148,-0.856 0.028,-0.142 0.064,-0.283 0.092,-0.425 h 17.807 c 0.027,0.142 0.064,0.283 0.092,0.425 0.064,0.29 0.12,0.58 0.148,0.856 z"
   id="path351" />

		<path
   style="fill:#9d6c4e"
   d="m 290.935,411.961 c -0.07,0.446 -0.183,0.871 -0.332,1.281 h -17.537 c -0.148,-0.41 -0.262,-0.835 -0.332,-1.281 z"
   id="path352" />

		<path
   style="fill:#9d6c4e"
   d="m 288.934,416.213 c -0.375,0.467 -0.785,0.898 -1.202,1.288 h -11.793 c -0.425,-0.39 -0.827,-0.821 -1.202,-1.288 z"
   id="path353" />

		<path
   style="fill:#7d4c2e"
   d="m 286.698,386.728 c 0,0.332 -0.07,0.644 -0.198,0.926 -0.205,0.482 -0.58,0.877 -1.047,1.118 -0.275,0.142 -0.58,0.226 -0.905,0.248 -0.05,0.007 -0.099,0.007 -0.148,0.007 h -5.129 c -0.05,0 -0.106,0 -0.155,-0.007 -0.326,-0.022 -0.63,-0.106 -0.898,-0.248 -0.467,-0.241 -0.842,-0.637 -1.055,-1.118 -0.12,-0.282 -0.191,-0.594 -0.191,-0.926 0,-0.545 0.191,-1.048 0.503,-1.443 0.134,-0.156 0.283,-0.305 0.452,-0.417 0.376,-0.276 0.842,-0.438 1.345,-0.438 h 5.129 c 0.502,0 0.97,0.162 1.345,0.438 0.162,0.112 0.318,0.261 0.445,0.417 0.317,0.395 0.507,0.898 0.507,1.443 z"
   id="path354" />

		
	</g>
  </g>
</svg>
