<?xml version="1.0" encoding="UTF-8" standalone="no"?>
<!-- Created with Inkscape (http://www.inkscape.org/) -->

<svg
   width="24.5mm"
   height="30.299999mm"
   viewBox="0 0 24.5 30.299999"
   version="1.1"
   id="svg1"
   inkscape:version="1.4.3 (0d15f75, 2025-12-25)"
   sodipodi:docname="termite.svg"
   xmlns:inkscape="http://www.inkscape.org/namespaces/inkscape"
   xmlns:sodipodi="http://sodipodi.sourceforge.net/DTD/sodipodi-0.dtd"
   xmlns="http://www.w3.org/2000/svg"
   xmlns:svg="http://www.w3.org/2000/svg">
  <sodipodi:namedview
     id="namedview1"
     pagecolor="#ffffff"
     bordercolor="#000000"
     borderopacity="0.25"
     inkscape:showpageshadow="2"
     inkscape:pageopacity="0.0"
     inkscape:pagecheckerboard="0"
     inkscape:deskcolor="#d1d1d1"
     inkscape:document-units="mm"
     inkscape:zoom="5.8083614"
     inkscape:cx="46.656876"
     inkscape:cy="63.443022"
     inkscape:window-width="1920"
     inkscape:window-height="1017"
     inkscape:window-x="-8"
     inkscape:window-y="-8"
     inkscape:window-maximized="1"
     inkscape:current-layer="g340" />
  <defs
     id="defs1" />
  <g
     inkscape:label="Layer 1"
     inkscape:groupmode="layer"
     id="layer1">
    <g
       id="g355"
       transform="matrix(0.54645074,0,0,0.54645074,-141.75601,-199.66617)">
      <g
         id="g328">
        <path
           style="fill:#7d4c2e"
           d="m 284.626,394.685 c 1.06595,-0.23549 1.55811,-1.31044 2.29313,-1.99954 1.88623,-1.904 3.69837,-3.88 5.51212,-5.85253 0.39059,-0.31629 0.58964,-0.88119 0.25751,-1.31641 -0.30578,-0.51392 -1.13493,-0.797 -1.56996,-0.28395 -1.28412,1.18607 -2.3666,2.56801 -3.62029,3.78453 -1.28124,1.35442 -2.56,2.71098 -3.81144,4.09309 -0.38331,0.64443 0.16856,1.63848 0.93893,1.57481 z"
           id="path328"
           sodipodi:nodetypes="cccccccc" />
      </g>
      <g
         id="g329">
        <path
           style="fill:#7d4c2e"
           d="m 269.841,397.961 c -0.36104,2.80708 -0.70795,5.61653 -1.08175,8.42163 -0.71134,1.51279 -1.4452,3.01548 -2.16525,4.52437 -0.23013,0.56663 -1.13245,0.50982 -1.30413,-0.0679 -0.14578,-0.44149 0.20357,-0.81867 0.3516,-1.20968 0.58172,-1.22789 1.18773,-2.44859 1.75431,-3.68094 0.35274,-2.74652 0.70084,-5.4939 1.05608,-8.23992 0.10978,-0.58707 0.99223,-0.74113 1.28526,-0.21527 0.0877,0.13753 0.12536,0.30592 0.10388,0.46769 z"
           id="path329" />
      </g>
      <g
         id="g330">
        <path
           style="fill:#7d4c2e"
           d="m 277.982,397.551 c -2.89321,0.45541 -5.78546,0.91719 -8.68,1.364 -0.65562,0.13155 -1.3081,-0.48567 -1.21754,-1.14786 0.0396,-0.53469 0.52593,-0.94854 1.0495,-0.97083 2.85815,-0.44858 5.71567,-0.90142 8.57427,-1.34695 0.67751,-0.097 1.30665,0.59014 1.15218,1.25653 -0.0796,0.43002 -0.44528,0.78259 -0.87841,0.84511 z"
           id="path330" />
      </g>
      <g
         id="g331">
        <path
           style="fill:#7d4c2e"
           d="m 272.6,386.02 c 0.0145,0.45381 -0.44283,0.77521 -0.86929,0.708 -3.18182,-0.002 -6.36377,0.003 -9.54551,-0.002 -0.38196,-0.0533 -0.63844,-0.37945 -0.95048,-0.57781 -0.54497,-0.42025 -1.11436,-0.81197 -1.64338,-1.25087 -0.39892,-0.40906 -0.0753,-1.17818 0.49751,-1.17445 0.42713,-0.006 0.70568,0.36685 1.04025,0.57784 0.4493,0.3372 0.8986,0.67441 1.3479,1.01162 3.16259,0.003 6.32546,-0.005 9.48788,0.004 0.35072,0.031 0.64143,0.35142 0.63512,0.70416 z"
           id="path331" />
      </g>
      <g
         id="g332">
        <path
           style="fill:#7d4c2e"
           d="m 279.7654,394.39634 c -0.44782,0.45628 -1.24709,0.34294 -1.60973,-0.1599 -2.3484,-2.50602 -4.70812,-5.00196 -7.05567,-7.50844 -0.50229,-0.51903 -0.25817,-1.47485 0.42142,-1.7025 0.48449,-0.19837 1.00835,0.0501 1.30819,0.44172 2.33848,2.49066 4.68176,4.9769 7.01675,7.47079 0.36096,0.41077 0.32767,1.09176 -0.081,1.45833 z"
           id="path332"
           sodipodi:nodetypes="cccccccc" />
      </g>
      <g
         id="g333">
        <path
           style="fill:#7d4c2e"
           d="m 273.223,384.166 c -0.4076,0.13291 -0.84743,-0.18521 -0.90187,-0.5989 -0.33356,-1.20014 -0.67774,-2.39731 -1.01613,-3.5961 -1.24055,-0.48755 -2.48444,-0.9671 -3.7229,-1.45968 -0.46982,-0.21117 -0.51523,-0.93615 -0.0808,-1.20924 0.27565,-0.21266 0.62148,-0.10679 0.90593,0.0215 1.27088,0.49855 2.54609,0.98702 3.81425,1.49189 0.35727,0.1733 0.38171,0.59872 0.49127,0.93203 0.337,1.20657 0.68847,2.40933 1.01418,3.61889 0.0666,0.34558 -0.16321,0.71065 -0.50394,0.7996 z"
           id="path333" />
      </g>
      <g
         id="g334">
        <path
           style="fill:#7d4c2e"
           d="m 281.874,388.44 c 0,0.389 0,0.778 0,1.167 -0.32332,0.54303 -1.13171,0.63266 -1.59582,0.21878 -2.63237,-1.83383 -5.26591,-3.6661 -7.89886,-5.49909 -0.59039,-0.4226 -0.51549,-1.42805 0.13218,-1.75957 0.42436,-0.25674 0.95468,-0.12588 1.31256,0.18058 2.61518,1.81785 5.22897,3.63807 7.84082,5.46044 0.0808,0.0664 0.14847,0.14748 0.20912,0.23186 z"
           id="path334" />
      </g>
      <g
         id="g335">
        <path
           style="fill:#7d4c2e"
           d="m 276.652,376.972 c -0.07,0.021 -0.141,0.028 -0.211,0.028 -0.135,0 -0.262,-0.035 -0.369,-0.106 -0.141,-0.092 -0.254,-0.226 -0.303,-0.396 l -1.946,-6.36 -3.749,-3.53 c -0.29,-0.268 -0.305,-0.714 -0.035,-0.997 0.268,-0.283 0.714,-0.297 0.997,-0.027 l 3.891,3.649 c 0.093,0.084 0.163,0.191 0.198,0.312 l 1.853,6.083 0.142,0.46 c 0.113,0.374 -0.093,0.764 -0.468,0.884 z"
           id="path335" />
      </g>
      <g
         id="g336">
        <path
           style="fill:#7d4c2e"
           d="m 297.708,411.31 c 0.55956,0.025 0.90412,-0.67526 0.5865,-1.12028 -0.67384,-1.40357 -1.34767,-2.80715 -2.0215,-4.21072 -0.35419,-2.75658 -0.69851,-5.51467 -1.05887,-8.2703 -0.10324,-0.56117 -0.92291,-0.74258 -1.249,-0.27145 -0.27793,0.37381 -0.066,0.84219 -0.048,1.26054 0.32197,2.52507 0.64395,5.05014 0.96592,7.57521 0.17446,0.53103 0.469,1.0183 0.69593,1.53017 0.51641,1.0647 1.016,2.13821 1.54307,3.19733 0.12765,0.19271 0.35547,0.31091 0.586,0.3095 z"
           id="path336" />
      </g>
      <g
         id="g337">
        <path
           style="fill:#7d4c2e"
           d="m 294.525,398.931 c 0.66351,0.0224 1.21213,-0.67777 1.02912,-1.317 -0.10693,-0.47953 -0.56855,-0.79786 -1.04457,-0.82023 -2.85226,-0.44796 -5.70407,-0.89908 -8.55662,-1.34506 -0.66065,-0.0948 -1.28065,0.55258 -1.16057,1.20853 0.0631,0.51365 0.53577,0.8976 1.04165,0.91946 2.86975,0.44907 5.73819,0.90773 8.60874,1.3508 z"
           id="path337" />
      </g>
      <g
         id="g338">
        <path
           style="fill:#7d4c2e"
           d="m 291.775,386.728 c 3.23459,-0.002 6.4693,0.003 9.70381,-0.002 0.39035,-0.0577 0.65332,-0.39047 0.97298,-0.59394 0.53822,-0.41471 1.09981,-0.80202 1.62273,-1.23466 0.39946,-0.40812 0.0738,-1.17869 -0.49745,-1.17591 -0.42718,-0.005 -0.70636,0.36755 -1.04127,0.57884 -0.44993,0.33733 -0.89987,0.67467 -1.3498,1.012 -3.16076,0.002 -6.32177,-0.005 -9.48237,0.004 -0.57289,0.029 -0.85257,0.82013 -0.42826,1.20449 0.13033,0.13199 0.31401,0.20889 0.49963,0.20787 z"
           id="path338" />
      </g>
      <g
         id="g339">
        <path
           style="fill:#7d4c2e"
           d="m 290.634,384.196 c 0.37695,0.0114 0.66816,-0.30988 0.72266,-0.6638 0.33478,-1.18773 0.66956,-2.37547 1.00434,-3.5632 1.24115,-0.48669 2.48613,-0.96428 3.72488,-1.45669 0.4662,-0.21411 0.51587,-0.93844 0.0786,-1.21015 -0.27681,-0.21262 -0.62419,-0.10882 -0.90983,0.0204 -1.26952,0.4985 -2.54433,0.98481 -3.81053,1.49098 -0.35079,0.17039 -0.3785,0.58558 -0.48468,0.9137 -0.34,1.21341 -0.68947,2.4244 -1.02353,3.63932 -0.0843,0.41972 0.27074,0.84011 0.69811,0.82939 z"
           id="path339" />
      </g>
      <g
         id="g340">
        <path
           style="fill:#7d4c2e"
           d="m 281.79,388.442 c 0.25724,-0.34469 0.66315,-0.52795 0.9975,-0.78764 2.4287,-1.68874 4.85522,-3.38071 7.28528,-5.06744 0.57077,-0.38533 1.43617,-0.0392 1.58738,0.63188 0.14103,0.48663 -0.13014,1.00738 -0.56406,1.24133 -2.62926,1.82676 -5.25357,3.66095 -7.88593,5.48307 -0.462,0.28975 -1.17199,0.12984 -1.4208,-0.35791 z"
           id="path340"
           sodipodi:nodetypes="cccccccc" />
      </g>
      <g
         id="g341">
        <path
           style="fill:#7d4c2e"
           d="m 287.221,377 c 0.303,0 0.583,-0.196 0.676,-0.501 l 1.943,-6.363 3.754,-3.526 c 0.285,-0.268 0.299,-0.715 0.031,-1 -0.268,-0.285 -0.717,-0.298 -1,-0.03 l -3.891,3.654 c -0.09,0.084 -0.156,0.19 -0.192,0.309 l -1.999,6.544 c -0.113,0.374 0.098,0.769 0.471,0.883 0.068,0.02 0.138,0.03 0.207,0.03 z"
           id="path341" />
      </g>
      <path
         style="fill:#ad7c5e"
         d="m 290.935,411.961 c -0.07,0.446 -0.183,0.871 -0.332,1.281 -0.375,1.117 -0.969,2.107 -1.67,2.971 -0.375,0.467 -0.785,0.898 -1.202,1.288 -2.13,1.973 -4.683,3.048 -5.857,3.296 v 0.021 c -0.015,0 -0.028,-0.008 -0.042,-0.008 -0.015,0 -0.029,0.008 -0.043,0.008 v -0.021 c -1.174,-0.248 -3.729,-1.323 -5.851,-3.296 -0.425,-0.39 -0.827,-0.821 -1.202,-1.288 -0.701,-0.863 -1.295,-1.853 -1.67,-2.971 -0.148,-0.41 -0.262,-0.835 -0.332,-1.281 -0.178,-0.912 -0.205,-1.91 -0.043,-2.978 0.028,-0.276 0.086,-0.566 0.148,-0.856 0.028,-0.142 0.064,-0.283 0.092,-0.425 0.213,-0.926 0.432,-1.931 0.666,-2.971 0.099,-0.425 0.189,-0.85 0.297,-1.288 0.219,-0.969 0.445,-1.967 0.693,-2.972 0.099,-0.424 0.205,-0.855 0.311,-1.279 0.1,-0.404 0.205,-0.807 0.312,-1.203 0.149,-0.595 0.304,-1.188 0.468,-1.769 0.041,-0.155 0.084,-0.318 0.127,-0.474 0.077,-0.275 0.162,-0.544 0.24,-0.814 0.212,-0.765 0.439,-1.508 0.68,-2.222 0.077,-0.255 0.162,-0.502 0.246,-0.75 0.149,-0.439 0.305,-0.87 0.461,-1.28 0.027,-0.077 0.057,-0.155 0.084,-0.227 0.227,-0.594 0.461,-1.16 0.701,-1.684 0.043,-0.099 0.085,-0.197 0.135,-0.29 0.318,-0.7 0.658,-1.33 1.017,-1.874 0.178,-0.291 0.368,-0.559 0.566,-0.8 0.588,-0.729 1.203,-1.209 1.854,-1.358 v -0.028 c 0.008,0 0.014,0.008 0.021,0.008 0.007,0 0.014,0.006 0.022,0.006 0.007,0 0.014,-0.006 0.021,-0.006 0.006,0 0.014,-0.008 0.021,-0.008 v 0.028 c 0.651,0.149 1.267,0.629 1.853,1.358 0.198,0.24 0.389,0.509 0.566,0.8 0.361,0.544 0.701,1.174 1.02,1.874 0.049,0.093 0.099,0.191 0.141,0.29 0.24,0.523 0.467,1.09 0.693,1.684 0.035,0.071 0.064,0.149 0.092,0.227 0.156,0.41 0.312,0.842 0.46,1.28 0.085,0.248 0.171,0.495 0.247,0.743 0.241,0.721 0.468,1.464 0.68,2.228 0.078,0.27 0.163,0.538 0.24,0.814 0.043,0.155 0.086,0.318 0.128,0.474 0.163,0.58 0.318,1.174 0.467,1.769 0.106,0.396 0.212,0.799 0.311,1.203 0.106,0.424 0.212,0.855 0.311,1.279 0.248,1.005 0.475,2.003 0.693,2.972 0.106,0.438 0.199,0.863 0.298,1.288 0.233,1.04 0.452,2.045 0.665,2.971 0.027,0.142 0.064,0.283 0.092,0.425 0.064,0.29 0.12,0.58 0.148,0.856 0.162,1.069 0.134,2.067 -0.044,2.979 z"
         id="path342" />
      <g
         id="g343">
        <path
           style="fill:#c0c0c0"
           d="m 280.664,368.723 v 10.746 c -1.584,-0.177 -2.887,-1.974 -3.19,-4.322 -0.042,-0.339 -0.063,-0.693 -0.063,-1.055 -10e-4,-2.836 1.435,-5.164 3.253,-5.369 z"
           id="path343" />
      </g>
      <g
         id="g344">
        <path
           style="fill:#c0c0c0"
           d="m 283,368.721 c 1.818,0.209 3.254,2.532 3.254,5.375 0,2.844 -1.436,5.168 -3.254,5.376 z"
           id="path344" />
      </g>
      <path
         style="fill:#9d6c4e"
         d="m 288.333,379.83 c 0,2.072 -1.019,3.912 -2.589,5.037 -0.602,0.424 -1.281,0.749 -2.017,0.94 -0.503,0.142 -1.04,0.212 -1.585,0.212 h -0.623 c -0.544,0 -1.082,-0.07 -1.584,-0.212 -0.736,-0.184 -1.415,-0.51 -2.01,-0.94 -1.57,-1.125 -2.596,-2.965 -2.596,-5.037 0,-1.062 0.269,-2.059 0.742,-2.937 0.248,-0.46 0.553,-0.884 0.906,-1.267 0.156,-0.169 0.318,-0.332 0.495,-0.48 0.382,-0.332 0.806,-0.616 1.267,-0.849 0.594,-0.297 1.238,-0.503 1.924,-0.595 0.276,-0.042 0.566,-0.064 0.855,-0.064 h 0.623 c 0.291,0 0.58,0.022 0.855,0.064 0.688,0.092 1.33,0.298 1.925,0.595 0.46,0.232 0.884,0.517 1.267,0.849 0.177,0.148 0.34,0.311 0.495,0.48 0.353,0.383 0.657,0.807 0.905,1.267 0.476,0.879 0.745,1.876 0.745,2.937 z"
         id="path345" />
      <path
         style="fill:#5d2c10"
         d="m 284.938,374.1 c 0,0.063 -0.008,0.134 -0.015,0.198 -0.092,0.735 -0.722,1.301 -1.492,1.301 h -3.198 c -0.764,0 -1.393,-0.565 -1.492,-1.301 -0.008,-0.065 -0.014,-0.135 -0.014,-0.198 0,-0.835 0.678,-1.508 1.506,-1.508 h 3.198 c 0.834,0 1.507,0.673 1.507,1.508 z"
         id="path346" />
      <path
         style="fill:#9d6c4e"
         d="m 286.235,390.685 h -4.361 -0.084 -4.36 c -0.156,0.41 -0.313,0.841 -0.461,1.28 h 4.821 0.084 4.821 c -0.148,-0.44 -0.304,-0.87 -0.46,-1.28 z"
         id="path347" />
      <path
         style="fill:#9d6c4e"
         d="m 287.993,396.221 h -12.315 c 0.041,-0.155 0.084,-0.318 0.127,-0.474 0.077,-0.275 0.162,-0.544 0.24,-0.814 h 11.58 c 0.078,0.27 0.163,0.538 0.24,0.814 0.043,0.155 0.086,0.318 0.128,0.474 z"
         id="path348" />
      <path
         style="fill:#9d6c4e"
         d="m 289.082,400.472 h -14.494 c 0.099,-0.424 0.205,-0.855 0.311,-1.279 h 13.873 c 0.105,0.423 0.211,0.855 0.31,1.279 z"
         id="path349" />
      <path
         style="fill:#9d6c4e"
         d="m 290.073,404.731 h -16.475 c 0.099,-0.425 0.189,-0.85 0.297,-1.288 h 15.881 c 0.106,0.439 0.199,0.864 0.297,1.288 z"
         id="path350" />
      <path
         style="fill:#9d6c4e"
         d="m 290.978,408.983 h -18.287 c 0.028,-0.276 0.086,-0.566 0.148,-0.856 0.028,-0.142 0.064,-0.283 0.092,-0.425 h 17.807 c 0.027,0.142 0.064,0.283 0.092,0.425 0.064,0.29 0.12,0.58 0.148,0.856 z"
         id="path351" />
      <path
         style="fill:#9d6c4e"
         d="m 290.935,411.961 c -0.07,0.446 -0.183,0.871 -0.332,1.281 h -17.537 c -0.148,-0.41 -0.262,-0.835 -0.332,-1.281 z"
         id="path352" />
      <path
         style="fill:#9d6c4e"
         d="m 288.934,416.213 c -0.375,0.467 -0.785,0.898 -1.202,1.288 h -11.793 c -0.425,-0.39 -0.827,-0.821 -1.202,-1.288 z"
         id="path353" />
      <path
         style="fill:#7d4c2e"
         d="m 286.698,386.728 c 0,0.332 -0.07,0.644 -0.198,0.926 -0.205,0.482 -0.58,0.877 -1.047,1.118 -0.275,0.142 -0.58,0.226 -0.905,0.248 -0.05,0.007 -0.099,0.007 -0.148,0.007 h -5.129 c -0.05,0 -0.106,0 -0.155,-0.007 -0.326,-0.022 -0.63,-0.106 -0.898,-0.248 -0.467,-0.241 -0.842,-0.637 -1.055,-1.118 -0.12,-0.282 -0.191,-0.594 -0.191,-0.926 0,-0.545 0.191,-1.048 0.503,-1.443 0.134,-0.156 0.283,-0.305 0.452,-0.417 0.376,-0.276 0.842,-0.438 1.345,-0.438 h 5.129 c 0.502,0 0.97,0.162 1.345,0.438 0.162,0.112 0.318,0.261 0.445,0.417 0.317,0.395 0.507,0.898 0.507,1.443 z"
         id="path354" />
    </g>
  </g>
</svg>
