<?xml version="1.0" encoding="UTF-8" standalone="no"?>
<!-- Created with Inkscape (http://www.inkscape.org/) -->

<svg
   width="12mm"
   height="23mm"
   viewBox="0 0 12 23"
   version="1.1"
   id="svg1"
   inkscape:version="1.4.3 (0d15f75, 2025-12-25)"
   sodipodi:docname="touch.svg"
   xmlns:inkscape="http://www.inkscape.org/namespaces/inkscape"
   xmlns:sodipodi="http://sodipodi.sourceforge.net/DTD/sodipodi-0.dtd"
   xmlns="http://www.w3.org/2000/svg"
   xmlns:svg="http://www.w3.org/2000/svg">
  <sodipodi:namedview
     id="namedview1"
     pagecolor="#ffffff"
     bordercolor="#000000"
     borderopacity="0.25"
     inkscape:showpageshadow="2"
     inkscape:pageopacity="0.0"
     inkscape:pagecheckerboard="0"
     inkscape:deskcolor="#d1d1d1"
     inkscape:document-units="mm"
     inkscape:zoom="0.72604517"
     inkscape:cx="397.3582"
     inkscape:cy="561.25984"
     inkscape:window-width="1920"
     inkscape:window-height="1017"
     inkscape:window-x="-8"
     inkscape:window-y="-8"
     inkscape:window-maximized="1"
     inkscape:current-layer="layer1" />
  <defs
     id="defs1">
    <linearGradient
       id="SVGID_00000044893923390587430770000014077632637188108712_"
       gradientUnits="userSpaceOnUse"
       x1="272.13629"
       y1="54.2668"
       x2="250.80721"
       y2="42.156399">
			<stop
   offset="0"
   style="stop-color:#6E6E6E"
   id="stop79" />

			<stop
   offset="0.2614"
   style="stop-color:#777777"
   id="stop80" />

			<stop
   offset="0.6918"
   style="stop-color:#909090"
   id="stop81" />

			<stop
   offset="1"
   style="stop-color:#A6A6A6"
   id="stop82" />

		</linearGradient>
  </defs>
  <g
     inkscape:label="Layer 1"
     inkscape:groupmode="layer"
     id="layer1">
    <g
       id="g96"
       transform="matrix(0.26458333,0,0,0.26458333,-67.230624,-6.2539562)">
	<g
   id="g82">
		<path
   style="fill:#2e2e2e"
   d="m 286.985,23.637 h -30.262 c -1.449,0 -2.623,1.236 -2.623,2.761 v 55.441 c 0,1.525 1.174,2.762 2.623,2.762 h 30.262 c 1.448,0 2.622,-1.236 2.622,-2.762 v -55.44 c 10e-4,-1.526 -1.173,-2.762 -2.622,-2.762 z"
   id="path76" />

		<rect
   x="256.76099"
   y="30.398001"
   style="fill:#475059"
   width="30.187"
   height="47.908001"
   id="rect76" />

		<path
   style="fill:#9ba4ab"
   d="m 275.953,26.107 h -8.198 c -0.6,0 -1.086,0.487 -1.086,1.086 0,0.6 0.486,1.086 1.086,1.086 h 8.198 c 0.6,0 1.086,-0.486 1.086,-1.086 0.001,-0.599 -0.486,-1.086 -1.086,-1.086 z"
   id="path77" />

		<path
   style="fill:#9ba4ab"
   d="m 271.854,79.647 c -0.938,0 -1.699,0.761 -1.699,1.698 0,0.938 0.76,1.698 1.699,1.698 0.938,0 1.699,-0.76 1.699,-1.698 0,-0.938 -0.761,-1.698 -1.699,-1.698 z"
   id="path78" />

		<path
   style="opacity:0.4;fill:#24292e"
   d="m 275.232,26.431 h -6.868 c -0.502,0 -0.91,0.341 -0.91,0.762 0,0.421 0.407,0.762 0.91,0.762 h 6.868 c 0.502,0 0.91,-0.341 0.91,-0.762 -10e-4,-0.421 -0.408,-0.762 -0.91,-0.762 z"
   id="path79" />

		
			<linearGradient
   id="linearGradient4"
   gradientUnits="userSpaceOnUse"
   x1="272.13629"
   y1="54.2668"
   x2="250.80721"
   y2="42.156399">
			<stop
   offset="0"
   style="stop-color:#6E6E6E"
   id="stop1" />

			<stop
   offset="0.2614"
   style="stop-color:#777777"
   id="stop2" />

			<stop
   offset="0.6918"
   style="stop-color:#909090"
   id="stop3" />

			<stop
   offset="1"
   style="stop-color:#A6A6A6"
   id="stop4" />

		</linearGradient>

		<path
   style="fill:url(#SVGID_00000044893923390587430770000014077632637188108712_)"
   d="m 256.723,23.637 c -1.449,0 -2.623,1.236 -2.623,2.761 v 55.441 c 0,0.929 0.437,1.748 1.104,2.248 L 288.772,24.38 c -0.468,-0.46 -1.095,-0.743 -1.787,-0.743 z"
   id="path82" />

	</g>

	<g
   id="g95">
		<g
   id="g84">
			<path
   style="fill:#79b3cc"
   d="m 271.854,53.197 c -3.151,0 -5.715,-2.563 -5.715,-5.715 0,-3.152 2.563,-5.715 5.715,-5.715 3.151,0 5.715,2.563 5.715,5.715 0,3.152 -2.564,5.715 -5.715,5.715 z m 0,-10.233 c -2.492,0 -4.519,2.027 -4.519,4.519 0,2.492 2.027,4.519 4.519,4.519 2.492,0 4.518,-2.027 4.518,-4.519 0,-2.492 -2.026,-4.519 -4.518,-4.519 z"
   id="path83" />

			<path
   style="fill:#79b3cc"
   d="m 271.854,55.712 c -4.538,0 -8.229,-3.692 -8.229,-8.229 0,-4.537 3.692,-8.229 8.229,-8.229 4.537,0 8.229,3.692 8.229,8.229 0,4.537 -3.691,8.229 -8.229,8.229 z m 0,-14.864 c -3.658,0 -6.634,2.976 -6.634,6.634 0,3.658 2.976,6.634 6.634,6.634 3.658,0 6.634,-2.976 6.634,-6.634 10e-4,-3.658 -2.975,-6.634 -6.634,-6.634 z"
   id="path84" />

		</g>

		<g
   id="g94">
			<path
   style="fill:#ffbd95"
   d="m 280.574,108.703 c 0,0 -2.939,-7.628 -4.182,-9.157 -1.243,-1.529 -3.053,-3.978 -3.895,-5.03 -1.147,-1.434 -4.83,-8.835 -4.994,-9.511 -1.099,-4.516 -3.415,-9.809 -4.039,-10.777 -1.123,-1.744 -3.728,-2.844 -3.345,-3.919 0.373,-1.05 4.206,-2.199 6.691,0.287 2.485,2.485 5.066,8.603 5.066,8.603 0,0 0.191,-3.25 0,-5.353 -0.191,-2.103 -1.314,-11.721 -1.505,-13.728 -0.191,-2.007 -0.884,-10.072 -0.789,-11.315 0.096,-1.243 -0.118,-3.566 2.007,-3.823 1.971,-0.239 2.545,1.816 2.832,3.919 0.287,2.103 0.921,8.485 1.326,11.076 0.391,2.5 1.004,7.503 1.577,8.459 0.574,0.956 1.828,1.362 1.828,1.362 0,0 0.519,-2.685 0.753,-3.943 0.106,-0.572 0.502,-2.903 2.867,-2.808 2.215,0.09 2.676,2.868 2.676,2.868 0,0 0.74,-0.538 1.724,-0.371 1.051,0.179 1.646,0.849 1.932,2.091 0.109,0.475 0.263,1.72 0.263,1.72 0,0 0.693,-0.526 1.649,-0.239 0.956,0.287 1.314,1.673 1.505,2.437 0.191,0.765 1.434,6.309 1.529,8.316 0.096,2.007 -1.338,11.948 -1.147,13.478 0.191,1.529 6.404,15.358 6.404,15.358 z"
   id="path85" />

			<path
   style="fill:#ffc8a7"
   d="m 271.589,44.979 c 0.948,-0.124 1.529,0.358 1.84,0.884 0.311,0.526 0.425,3.298 0.162,3.704 -0.263,0.406 -2.528,0.777 -2.958,0.455 -0.573,-0.43 -0.717,-2.892 -0.645,-3.585 0.072,-0.694 0.502,-1.315 1.601,-1.458 z"
   id="path86" />

			<path
   style="fill:#f9a983"
   d="m 267.895,71.885 c 0,0 1.864,2.713 3.382,5.981 0.216,0.465 0.598,1.332 0.598,1.332 0,0 -0.79,2.401 -0.925,3.544 -0.135,1.144 0.331,3.469 0.331,3.469 0,0 -1.353,-1.904 -1.124,-4.487 0.177,-1.991 0.285,-3.039 0.249,-3.738 -0.099,-1.942 -2.511,-6.101 -2.511,-6.101 z"
   id="path87" />

			<path
   style="fill:#f9a983"
   d="m 285.449,65.912 c 0,0 -0.302,4.75 -0.112,5.723 0.211,1.086 0.676,1.82 1.072,1.82 0.556,0.001 0.609,-0.86 0.323,-2.115 -0.288,-1.254 -1.283,-5.428 -1.283,-5.428 z"
   id="path88" />

			<path
   style="fill:#f9a983"
   d="m 289.368,69.353 c 0,0 -0.003,3.171 0.266,4.174 0.269,1.004 0.466,1.541 0.896,1.631 0.43,0.09 0.556,-0.394 0.394,-1.147 -0.308,-1.441 -1.556,-4.658 -1.556,-4.658 z"
   id="path89" />

			<path
   style="fill:#f9a983"
   d="m 277.17,68.086 c 0,0 0.164,1.163 0.796,1.861 0.631,0.698 1.096,0.764 1.096,0.764 l 0.09,-0.916 c 0,0 -0.61,-0.266 -1.045,-0.545 -0.698,-0.445 -0.937,-1.164 -0.937,-1.164 z"
   id="path90" />

			<path
   style="fill:#ffd3b9"
   d="m 270.632,50.02 c 0,0 10e-4,10e-4 10e-4,0.002 0.417,0.313 2.562,-0.028 2.925,-0.42 -0.277,-0.126 -0.857,-0.331 -1.594,-0.233 -0.799,0.105 -1.193,0.483 -1.332,0.651 z"
   id="path91" />

			<path
   style="fill:#f9a983"
   d="m 280.624,100.639 c -1.794,-2.293 -4.585,-4.186 -6.878,-6.678 -2.293,-2.492 -4.932,-7.905 -5.283,-9.195 -1.171,-4.311 -3.237,-8.735 -3.987,-9.768 -1.52,-2.093 0.548,-2.642 -1.957,-1.865 0.356,0.337 0.689,0.699 0.945,1.096 0.623,0.968 2.939,6.261 4.039,10.777 0.164,0.676 3.847,8.077 4.994,9.511 0.842,1.052 2.652,3.501 3.895,5.03 1.243,1.529 4.182,9.157 4.182,9.157 h 3.587 c -0.746,-2.533 -2.266,-6.442 -3.537,-8.065 z"
   id="path92" />

			<path
   style="fill:#ffc8a7"
   d="m 263.13,73.702 c 0.176,-0.018 0.806,-0.789 0.771,-0.95 -0.036,-0.161 -1.864,-2.187 -2.67,-2.348 -0.807,-0.161 -1.452,0.036 -1.488,0.233 -0.036,0.198 3.208,3.083 3.387,3.065 z"
   id="path93" />

			<path
   style="fill:#f99c94"
   d="m 294.052,79.867 c -0.096,-2.007 -1.338,-7.551 -1.529,-8.316 -0.191,-0.765 -0.55,-2.151 -1.505,-2.438 -0.956,-0.287 -1.649,0.239 -1.649,0.239 0,0 -0.153,-1.246 -0.263,-1.72 -0.287,-1.243 -0.881,-1.912 -1.932,-2.091 -0.984,-0.168 -1.724,0.371 -1.724,0.371 0,0 -0.075,-0.439 -0.301,-0.972 -3.444,5.225 -5.453,11.478 -5.453,18.203 0,10.29 4.692,19.484 12.052,25.56 h 7.562 c 0,0 -6.213,-13.829 -6.404,-15.358 -0.193,-1.53 1.241,-11.47 1.146,-13.478 z"
   id="path94" />

		</g>

	</g>

</g>
  </g>
</svg>
