<?xml version="1.0" encoding="UTF-8" standalone="no"?>
<!-- Created with Inkscape (http://www.inkscape.org/) -->

<svg
   width="39mm"
   height="27mm"
   viewBox="0 0 39 27"
   version="1.1"
   id="svg1"
   inkscape:version="1.4.3 (0d15f75, 2025-12-25)"
   sodipodi:docname="wasp.svg"
   xmlns:inkscape="http://www.inkscape.org/namespaces/inkscape"
   xmlns:sodipodi="http://sodipodi.sourceforge.net/DTD/sodipodi-0.dtd"
   xmlns="http://www.w3.org/2000/svg"
   xmlns:svg="http://www.w3.org/2000/svg">
  <sodipodi:namedview
     id="namedview1"
     pagecolor="#ffffff"
     bordercolor="#000000"
     borderopacity="0.25"
     inkscape:showpageshadow="2"
     inkscape:pageopacity="0.0"
     inkscape:pagecheckerboard="0"
     inkscape:deskcolor="#d1d1d1"
     inkscape:document-units="mm"
     inkscape:zoom="4.1071317"
     inkscape:cx="86.191538"
     inkscape:cy="88.991545"
     inkscape:window-width="1920"
     inkscape:window-height="1017"
     inkscape:window-x="-8"
     inkscape:window-y="-8"
     inkscape:window-maximized="1"
     inkscape:current-layer="g260" />
  <defs
     id="defs1" />
  <g
     inkscape:label="Layer 1"
     inkscape:groupmode="layer"
     id="layer1">
    <g
       id="g262"
       transform="matrix(0.43026353,0,0,0.43026353,-146.98632,-154.09126)">
      <g
         id="g248">
        <g
           id="g236">
          <path
             style="fill:#303030"
             d="m 385.859,370.166 c -0.141,0 -0.281,-0.048 -0.396,-0.147 l -3.508,-3.025 c -0.106,-0.091 -0.178,-0.218 -0.202,-0.357 l -1.101,-6.446 -0.77,-1.103 c -0.192,-0.276 -0.124,-0.655 0.151,-0.847 0.276,-0.19 0.653,-0.124 0.846,0.151 l 0.847,1.215 c 0.051,0.073 0.085,0.157 0.1,0.245 l 1.087,6.365 3.343,2.883 c 0.253,0.219 0.282,0.602 0.063,0.856 -0.12,0.139 -0.289,0.21 -0.46,0.21 z"
             id="path235" />
        </g>
        <g
           id="g237">
          <path
             style="fill:#6d3c1f"
             d="m 382.975,384.753 c -0.177,0 -0.354,-0.056 -0.506,-0.172 l -6.175,-4.75 c -0.204,-0.157 -0.323,-0.4 -0.323,-0.658 v -3.412 l -3.503,-2.328 c -0.382,-0.254 -0.485,-0.768 -0.232,-1.15 0.254,-0.381 0.768,-0.486 1.15,-0.232 l 3.873,2.574 c 0.231,0.154 0.371,0.413 0.371,0.691 v 3.449 l 5.85,4.501 c 0.363,0.279 0.432,0.801 0.152,1.163 -0.163,0.214 -0.409,0.324 -0.657,0.324 z"
             id="path236" />
        </g>
        <g
           id="g238"
           transform="translate(2.5576745)">
          <path
             style="fill:#6d3c1f"
             d="m 366.286,395.289 c -0.226,0 -0.451,-0.091 -0.615,-0.271 -0.308,-0.339 -0.284,-0.863 0.055,-1.173 l 3.436,-3.133 c 0.205,-0.189 0.49,-0.26 0.761,-0.191 l 3.346,0.837 5.786,-4.585 c 0.359,-0.285 0.881,-0.225 1.166,0.135 0.285,0.359 0.224,0.881 -0.135,1.167 l -6.106,4.838 c -0.202,0.16 -0.466,0.219 -0.718,0.154 l -3.31,-0.827 -3.107,2.833 c -0.16,0.144 -0.36,0.216 -0.559,0.216 z"
             id="path237" />
        </g>
        <path
           id="path239"
           style="fill:#6d3c1f"
           d="M 384.06289 370.87413 C 382.11489 370.87413 380.53543 372.45359 380.53543 374.40159 C 380.53543 376.34959 382.11489 377.92785 384.06289 377.92785 L 386.91536 377.92785 L 386.96701 377.92785 L 389.81948 377.92785 C 391.76648 377.92785 393.34694 376.34959 393.34694 374.40159 C 393.34694 372.45359 391.76648 370.87413 389.81948 370.87413 L 386.96701 370.87413 L 386.91536 370.87413 L 384.06289 370.87413 z " />
        <path
           style="fill:#333333"
           d="m 384.498,370.798 c 0.607,0.738 0.501,1.829 -0.237,2.436 l -2.053,1.688 c -0.738,0.606 -1.828,0.501 -2.437,-0.238 v 0 c -0.606,-0.738 -0.5,-1.828 0.238,-2.435 l 2.053,-1.689 c 0.739,-0.607 1.829,-0.5 2.436,0.238 z"
           id="path240" />
        <path
           id="path245"
           style="fill:#5d2c10"
           d="M 386.91536 375.86085 L 386.91536 375.86206 C 384.72656 375.9281 382.97475 377.34364 382.97475 379.08685 L 382.97475 383.92345 C 382.97475 385.66666 384.72656 387.08219 386.91536 387.14824 L 386.91536 387.14944 C 386.92404 387.14927 386.93192 387.14966 386.94058 387.14944 C 386.94924 387.14966 386.95833 387.14927 386.96701 387.14944 L 386.96701 387.14824 C 389.15581 387.08219 390.90642 385.66666 390.90642 383.92345 L 390.90642 379.08685 C 390.90642 377.34364 389.15581 375.9281 386.96701 375.86206 L 386.96701 375.86085 C 386.95833 375.86103 386.94924 375.86184 386.94058 375.86206 C 386.93192 375.86184 386.92404 375.86103 386.91536 375.86085 z " />
      </g>
      <g
         id="g261">
        <g
           id="g249">
          <path
             style="fill:#303030"
             d="m 388.022,370.166 c 0.141,0 0.282,-0.048 0.397,-0.147 l 3.507,-3.025 c 0.106,-0.091 0.178,-0.218 0.201,-0.357 l 1.102,-6.446 0.77,-1.103 c 0.191,-0.276 0.124,-0.655 -0.151,-0.847 -0.275,-0.19 -0.654,-0.124 -0.846,0.151 l -0.846,1.215 c -0.053,0.073 -0.086,0.157 -0.101,0.245 l -1.088,6.365 -3.343,2.883 c -0.254,0.219 -0.281,0.602 -0.063,0.856 0.121,0.139 0.291,0.21 0.461,0.21 z"
             id="path248" />
        </g>
        <g
           id="g250">
          <path
             style="fill:#6d3c1f"
             d="m 390.908,384.753 c 0.176,0 0.354,-0.056 0.505,-0.172 l 6.175,-4.75 c 0.204,-0.157 0.324,-0.4 0.324,-0.658 v -3.412 l 3.502,-2.328 c 0.382,-0.254 0.485,-0.768 0.231,-1.15 -0.254,-0.381 -0.768,-0.486 -1.15,-0.232 l -3.874,2.574 c -0.23,0.154 -0.369,0.413 -0.369,0.691 v 3.449 l -5.852,4.501 c -0.363,0.279 -0.432,0.801 -0.15,1.163 0.162,0.214 0.408,0.324 0.658,0.324 z"
             id="path249" />
        </g>
        <g
           id="g251"
           transform="translate(-2.7888493)">
          <path
             style="fill:#6d3c1f"
             d="m 407.597,395.289 c 0.226,0 0.449,-0.091 0.613,-0.271 0.31,-0.339 0.285,-0.863 -0.054,-1.173 l -3.437,-3.133 c -0.206,-0.189 -0.49,-0.26 -0.76,-0.191 l -3.348,0.837 -5.785,-4.585 c -0.358,-0.285 -0.881,-0.225 -1.165,0.135 -0.286,0.359 -0.225,0.881 0.134,1.167 l 6.106,4.838 c 0.201,0.16 0.467,0.219 0.717,0.154 l 3.312,-0.827 3.107,2.833 c 0.159,0.144 0.36,0.216 0.56,0.216 z"
             id="path250" />
        </g>
        <path
           id="path251"
           style="fill:#5d2c10"
           d="m 386.915,368.81 c 0.034,-10e-4 0.068,-0.011 0.104,-0.011 1.087,0 1.971,0.883 1.971,1.972 v 0.415 c 0,1.088 -0.884,1.971 -1.971,1.971 -0.036,0 -0.07,-0.009 -0.104,-0.011 z m 0.052,0 c -0.035,-10e-4 -0.067,-0.011 -0.104,-0.011 -1.089,0 -1.971,0.883 -1.971,1.972 v 0.415 c 0,1.088 0.882,1.971 1.971,1.971 0.036,0 0.068,-0.009 0.104,-0.011 z" />
        <path
           style="fill:#333333"
           d="m 389.384,370.798 c -0.607,0.738 -0.501,1.829 0.237,2.436 l 2.053,1.688 c 0.738,0.606 1.829,0.501 2.436,-0.238 v 0 c 0.607,-0.738 0.501,-1.828 -0.237,-2.435 l -2.053,-1.689 c -0.739,-0.607 -1.83,-0.5 -2.436,0.238 z"
           id="path253" />
        <path
           id="path254"
           style="fill:#e49306"
           d="m 386.915,384.672 c 3.26173,-0.0309 6.11615,2.96419 5.967,6.21237 -0.006,6.08672 0.0124,12.17385 -0.009,18.26032 -0.24869,2.78647 -1.36047,5.55646 -3.26316,7.62562 -0.71513,0.73011 -1.64136,1.35518 -2.69348,1.39669 -6.7e-4,-11.16467 0.001,-22.332 -10e-4,-33.495 z m 0.052,0 c -3.26173,-0.0309 -6.11615,2.96419 -5.967,6.21237 0.006,6.08672 -0.0122,12.17384 0.009,18.26032 0.25181,2.85015 1.42042,5.6676 3.36863,7.77604 0.63945,0.64762 1.68668,1.39342 2.532,1.23123 0,-11.14751 0,-22.29502 0,-33.44253 z" />
        <path
           id="path256"
           style="fill:#000000;fill-opacity:1"
           d="m 386.915,407.391 c 1.989,0 3.978,0 5.967,0 -0.009,0.96859 0.0491,1.9489 -0.149,2.904 -1.939,0 -3.878,0 -5.817,0 -6.7e-4,-0.968 10e-4,-1.936 -10e-4,-2.904 z m 0.009,0.01 c -1.97467,-0.003 -3.94933,-0.007 -5.924,-0.01 0.009,0.96858 -0.0499,1.949 0.149,2.904 1.92028,-0.006 3.84057,-0.0125 5.76085,-0.0187 6.9e-4,-0.9607 -0.008,-1.92137 -0.006,-2.88207 z" />
        <path
           id="path255"
           style="fill:#000000;fill-opacity:1"
           d="m 386.915,413.3 h 4.896 c -0.208,0.497 -0.44,0.978 -0.706,1.444 -1.079,1.883 -2.558,3.36 -4.19,3.423 z m 0.052,0 h -4.897 c 0.208,0.497 0.44,0.978 0.705,1.444 1.08,1.883 2.50185,3.36 4.13485,3.423 V 413.3 Z"
           sodipodi:nodetypes="ccccccccccc" />
        <path
           id="rect256"
           d="m 386.91501,401.423 c 1.989,0 3.978,0 5.967,0 0,0.96833 0,1.93667 0,2.905 -1.989,0 -3.978,0 -5.967,0 0,-0.96833 0,-1.93667 0,-2.905 z m -5.91501,0 c 1.989,0 3.978,0 5.967,0 0,0.96833 0,1.93667 0,2.905 -1.989,0 -3.978,0 -5.967,0 0,-0.96833 0,-1.93667 0,-2.905 z" />
        <path
           id="rect257"
           d="m 386.91501,395.45599 h 5.967 v 2.905 h -5.967 z m -5.91501,0 h 5.967 v 2.905 H 381 Z"
           sodipodi:nodetypes="cccccccccc" />
        <path
           id="path257"
           style="fill:#000000;fill-opacity:1"
           d="m 386.915,389.489 h 5.834 c 0.092,0.398 0.133,0.821 0.133,1.253 v 1.651 h -5.967 z m -0.004,-0.0187 -5.77785,0.0187 c -0.092,0.398 -0.133,0.821 -0.133,1.253 v 1.651 h 5.91085 z"
           sodipodi:nodetypes="ccscccccsccc" />
      </g>
      <g
         id="g260"
         transform="translate(-1.6946977e-6)">
        <g
           id="g259">
          <path
             style="fill:#c5d5d6;fill-opacity:0.8"
             d="m 389.585,380.314 c 2.694,-0.569 9.883,6.271 14.142,16.57 4.387,10.605 6.456,23.142 3.727,23.852 -3.771,0.981 -16.485,-6.978 -17.263,-12.977 -1.715,-13.237 -3.356,-25.732 -1.057,-27.257 z"
             id="path259" />
        </g>
      </g>
      <g
         id="g247"
         transform="translate(-1.6946977e-6)">
        <g
           id="g246">
          <path
             style="fill:#c5d5d6;fill-opacity:0.8"
             d="m 384.298,380.314 c -2.694,-0.569 -9.884,6.271 -14.144,16.57 -4.388,10.605 -6.457,23.142 -3.726,23.852 3.77,0.981 16.484,-6.978 17.261,-12.977 1.715,-13.237 3.357,-25.732 1.059,-27.257 z"
             id="path246" />
        </g>
      </g>
    </g>
  </g>
</svg>
