<?xml version="1.0" encoding="UTF-8" standalone="no"?>
<!-- Created with Inkscape (http://www.inkscape.org/) -->

<svg
   width="14.067mm"
   height="29.860001mm"
   viewBox="0 0 14.067 29.86"
   version="1.1"
   id="svg1"
   inkscape:version="1.4.3 (0d15f75, 2025-12-25)"
   sodipodi:docname="zapper.svg"
   xmlns:inkscape="http://www.inkscape.org/namespaces/inkscape"
   xmlns:sodipodi="http://sodipodi.sourceforge.net/DTD/sodipodi-0.dtd"
   xmlns="http://www.w3.org/2000/svg"
   xmlns:svg="http://www.w3.org/2000/svg">
  <sodipodi:namedview
     id="namedview1"
     pagecolor="#ffffff"
     bordercolor="#000000"
     borderopacity="0.25"
     inkscape:showpageshadow="2"
     inkscape:pageopacity="0.0"
     inkscape:pagecheckerboard="true"
     inkscape:deskcolor="#d1d1d1"
     inkscape:document-units="mm"
     inkscape:zoom="8.2142634"
     inkscape:cx="18.747877"
     inkscape:cy="38.287061"
     inkscape:window-width="1920"
     inkscape:window-height="1017"
     inkscape:window-x="-8"
     inkscape:window-y="-8"
     inkscape:window-maximized="1"
     inkscape:current-layer="g428"
     showgrid="false" />
  <defs
     id="defs1" />
  <g
     inkscape:label="Layer 1"
     inkscape:groupmode="layer"
     id="layer1">
    <g
       id="g433"
       transform="matrix(0.26457644,0,0,0.26457644,-8.7749423,-30.732937)">
      <g
         id="g425"
         transform="matrix(1.0789658,0,0,1,-6.1923367,0)">
        <rect
           x="78.417999"
           y="143.364"
           style="fill:#757575"
           width="5.3959999"
           height="1.364"
           id="rect424" />
      </g>
      <g
         id="g424"
         transform="matrix(1.0922994,0,0,1,-3.8241288,0)">
        <rect
           x="35.686001"
           y="143.364"
           style="fill:#757575"
           width="5.3959999"
           height="1.364"
           id="rect423" />
      </g>
      <g
         id="g414">
        <rect
           x="53.064999"
           y="188.364"
           style="fill:#757575"
           width="1.482"
           height="3.648"
           id="rect413" />
      </g>
      <g
         id="g415">
        <rect
           x="53.064999"
           y="194.39799"
           style="fill:#757575"
           width="1.482"
           height="3.6489999"
           id="rect414" />
      </g>
      <g
         id="g423">
        <g
           id="g420">
          <g
             id="g419">
            <path
               style="fill:#757575"
               d="m 51.857,161.413 c 0.139,0.03 0.27,0.072 0.39,0.126 l 15.518,-19.061 -7.748,0.03 7.218,-16.593 c -0.15,-0.044 -0.291,-0.097 -0.423,-0.161 L 50.14,146.739 h 7.011 z m 1.208,-16.086 9.252,-11.646 -4.457,10.247 6.925,-0.027 -9.176,11.271 3.552,-9.846 h -6.096 z"
               id="path418" />
          </g>
        </g>
        <g
           id="g422">
          <g
             id="g421">
            <path
               style="fill:#757575"
               d="m 59.75,163.745 c -10.635,0 -19.287,-9.084 -19.287,-20.251 0,-11.166 8.652,-20.251 19.287,-20.251 10.635,0 19.287,9.084 19.287,20.251 0,11.167 -8.652,20.251 -19.287,20.251 z m 0,-39.292 c -9.968,0 -18.077,8.542 -18.077,19.041 0,10.499 8.109,19.041 18.077,19.041 9.968,0 18.077,-8.542 18.077,-19.041 0,-10.499 -8.109,-19.041 -18.077,-19.041 z"
               id="path420" />
          </g>
        </g>
      </g>
      <g
         id="g426"
         transform="matrix(1,0,0,1.0733254,0,-9.411284)">
        <rect
           x="56.227001"
           y="120.819"
           transform="rotate(-90,58.9252,121.5007)"
           style="fill:#757575"
           width="5.3959999"
           height="1.364"
           id="rect425" />
      </g>
      <g
         id="g427"
         transform="matrix(1,0,0,0.97179795,0,4.3958935)">
        <rect
           x="56.227001"
           y="165.442"
           transform="rotate(-90,58.9252,166.1236)"
           style="fill:#757575"
           width="5.3959999"
           height="1.364"
           id="rect426" />
      </g>
      <g
         id="g431">
        <g
           id="g428">
          <g
             id="g416"
             transform="translate(2.5197507e-7)">
            <ellipse
               style="fill:none;fill-opacity:1;stroke:#f23812;stroke-width:2.17456;stroke-dasharray:none;stroke-opacity:1"
               cx="59.75"
               cy="143.98145"
               rx="25.496717"
               ry="26.735144"
               id="ellipse415" />
          </g>
          <path
             style="fill:#fbcc02"
             d="m 76.553,165.867 c 0,0 -1.318,-4.341 -6.878,-1.445 -2.382,1.241 -5.992,3.391 -9.926,3.391 -4.406,0 -7.852,-0.901 -12.254,-3.979 -1.836,-1.284 -4.55,2.033 -4.55,2.033 0,0 0.899,0.815 2.222,2.327 l -0.003,-0.104 c 0,0 9.709,5.184 10.963,10.876 1.254,5.692 1.604,30.711 1.313,35.344 -0.291,4.633 -2.806,7.774 -3.401,11.242 -0.196,1.142 -0.262,2.354 -0.264,3.468 h 5.632 0.684 5.72 c -0.002,-1.114 -0.067,-2.326 -0.263,-3.468 -0.596,-3.468 -3.111,-6.609 -3.401,-11.242 -0.291,-4.633 0.059,-29.652 1.313,-35.344 1.254,-5.692 10.963,-10.876 10.963,-10.876 v 0 c 1.273,-1.446 2.13,-2.223 2.13,-2.223 z"
             id="path427" />
        </g>
        <g
           id="g429">
          <path
             style="fill:#f9ae06"
             d="m 63.46,178.965 c -1.254,5.692 -1.603,30.711 -1.313,35.344 0.291,4.633 2.805,7.774 3.401,11.242 0.196,1.142 0.262,2.354 0.263,3.468 h 2.76 c 0,0 0.25,-2.378 -0.501,-4.523 -0.915,-2.612 -2.865,-5.318 -2.865,-8.513 0,-5.821 -0.908,-29.383 0.684,-33.706 2.424,-6.579 6.186,-11.523 8.532,-14.188 v 0 c 0.002,0 -9.707,5.184 -10.961,10.876 z"
             id="path428" />
        </g>
        <g
           id="g430">
          <path
             style="fill:#f9ae06"
             d="m 54.039,225.551 c 0.596,-3.468 3.111,-6.609 3.401,-11.242 0.291,-4.633 -0.059,-29.652 -1.313,-35.344 -1.254,-5.692 -10.963,-10.876 -10.963,-10.876 l 0.003,0.104 c 2.352,2.689 6.048,7.589 8.441,14.083 1.593,4.323 0.684,27.885 0.684,33.706 0,3.196 -1.95,5.902 -2.865,8.513 -0.752,2.145 -0.501,4.523 -0.501,4.523 h 2.848 c 0.003,-1.113 0.069,-2.325 0.265,-3.467 z"
             id="path429" />
        </g>
      </g>
      <g
         id="g432"
         style="fill:#f23812;fill-opacity:1">
        <path
           style="fill:#f23812;fill-opacity:1"
           d="m 60.514,226.882 h -2.155 c -0.846,0 -1.538,-0.692 -1.538,-1.538 v 0 c 0,-0.846 0.692,-1.538 1.538,-1.538 h 2.155 c 0.846,0 1.538,0.692 1.538,1.538 v 0 c -10e-4,0.846 -0.693,1.538 -1.538,1.538 z"
           id="path431" />
      </g>
    </g>
  </g>
</svg>
