<?xml version="1.0" encoding="utf-8"?>
<!-- Generator: Adobe Illustrator 27.5.0, SVG Export Plug-In . SVG Version: 6.00 Build 0)  -->
<svg version="1.1" xmlns="http://www.w3.org/2000/svg" xmlns:xlink="http://www.w3.org/1999/xlink" x="0px" y="0px"
	 viewBox="0 0 500 500" style="enable-background:new 0 0 500 500;" xml:space="preserve">
<g id="BACKGROUND">
</g>
<g id="OBJECTS">
	<g>
		<path d="M137.578,74.426c0-1.102-0.786-1.995-1.756-1.995c-0.005,0-0.009,0-0.014,0c-0.728,0.007-1.375,0.861-1.489,0.295
			l-0.928-12.343l-0.928,12.343c-0.114,0.566-0.761-0.288-1.489-0.295c-0.005,0-0.009,0-0.014,0c-0.97,0-1.756,0.893-1.756,1.995
			c0,0.635,0.266,1.193,0.672,1.559c-0.258,0.372-0.407,0.789-0.407,1.232c0,1.541,1.755,2.79,3.921,2.79s3.921-1.249,3.921-2.79
			c0-0.443-0.149-0.86-0.407-1.232C137.312,75.619,137.578,75.061,137.578,74.426z"/>
		<g>
			<path d="M200.298,98.127c-1.867,3.992-15.156,7.292-32.168-0.938c-20.608-9.969-36.109-9.687-35.357-13.535
				c0.752-3.848,24.174-2.511,41.156,0.806C190.911,87.778,201.959,94.575,200.298,98.127z"/>
			<path d="M66.486,98.127c1.867,3.992,15.156,7.292,32.168-0.938c20.608-9.969,36.109-9.687,35.357-13.535
				c-0.752-3.848-24.174-2.511-41.156,0.806C75.872,87.778,64.825,94.575,66.486,98.127z"/>
		</g>
		<path d="M141.589,91.224c0-4.823-2.207-8.928-5.304-10.538c-0.826-5.042-1.822-8.42-2.893-8.42s-2.067,3.378-2.893,8.42
			c-3.097,1.61-5.304,5.714-5.304,10.538c0,3.073,0.898,5.853,2.349,7.884c0.639,0.895,1.05,2.017,0.911,3.144
			c-2.382,19.377,0.433,32.431,4.937,32.431c4.279,0,7.657-13.055,4.937-32.431c-0.158-1.125,0.272-2.25,0.911-3.144
			C140.691,97.077,141.589,94.297,141.589,91.224z"/>
		<g>
			<path d="M140.18,64.719c0,0-0.277,0.144-0.76,0.448c-0.477,0.311-1.148,0.806-1.889,1.523c-1.485,1.422-3.192,3.811-4.219,6.811
				c-0.598,1.809-0.329,2.854,0.08,2.941c0.437,0.095,1-0.691,1.558-2.381c0.953-2.78,2.156-5.186,3.246-6.817
				c0.541-0.816,1.039-1.447,1.401-1.873C139.972,64.952,140.18,64.719,140.18,64.719z"/>
		</g>
		<g>
			<path d="M126.604,64.719c0,0,0.208,0.233,0.582,0.652c0.362,0.426,0.86,1.057,1.401,1.873c1.09,1.631,2.293,4.037,3.246,6.817
				c0.551,1.662,1.118,2.461,1.558,2.381c0.411-0.071,0.687-1.102,0.08-2.941c-1.027-3-2.734-5.388-4.219-6.811
				c-0.741-0.718-1.412-1.212-1.889-1.524C126.88,64.863,126.604,64.719,126.604,64.719z"/>
		</g>
		<g>
			<g>
				<path d="M192.55,144.949c0,0-0.549-0.656-1.583-1.889c-0.53-0.607-1.254-1.29-2.072-2.132c-0.424-0.405-0.907-0.81-1.409-1.259
					c-0.501-0.451-1.042-0.922-1.646-1.377c-2.358-1.902-5.409-3.999-9.107-6.081c-1.849-1.042-3.853-2.092-6.009-3.118
					c-1.081-0.507-2.195-1.019-3.351-1.514c-0.58-0.243-1.167-0.489-1.761-0.737c-0.3-0.119-0.601-0.239-0.904-0.359
					c-0.403-0.153-0.392-0.155-0.479-0.191c-0.791-3.802-1.657-7.966-2.577-12.393c-1.02-4.725-2.1-9.73-3.217-14.907
					c-1.778-1.199-3.891-2.625-6.03-4.067c-19.022-12.779-20.621-11.072-1.288,1.916c1.876,1.255,3.73,2.494,5.289,3.537
					c1.12,4.852,2.204,9.543,3.227,13.971c1.122,4.726,2.178,9.173,3.142,13.232c0.759,0.265,1.509,0.528,2.251,0.787
					c0.592,0.224,1.177,0.445,1.755,0.663c1.154,0.446,2.27,0.909,3.356,1.366c2.165,0.928,4.185,1.879,6.056,2.824
					c3.742,1.888,6.858,3.798,9.292,5.544c0.624,0.417,1.184,0.851,1.705,1.267c0.522,0.415,1.026,0.787,1.47,1.162
					c0.858,0.781,1.623,1.415,2.188,1.983C191.958,144.334,192.55,144.949,192.55,144.949z"/>
			</g>
			<g>
				<path d="M164.927,191.498c0,0-0.089-1.37-0.254-3.921c-0.042-0.639-0.09-1.351-0.142-2.134c-0.1-0.779-0.208-1.627-0.326-2.544
					c-0.119-0.918-0.247-1.903-0.383-2.952c-0.175-1.044-0.404-2.144-0.623-3.311c-0.92-4.649-2.365-10.259-4.982-16.303
					c-1.298-3.023-2.883-6.149-4.795-9.298c-0.5-0.774-1.006-1.558-1.518-2.351c-0.552-0.767-1.091-1.557-1.674-2.329
					c-0.595-0.764-1.186-1.545-1.841-2.294c-0.315-0.383-0.651-0.755-0.994-1.126c-0.17-0.187-0.339-0.374-0.522-0.556l-0.154-0.163
					c1.241-5.008,2.549-10.284,3.908-15.769c1.418-5.848,2.89-11.919,4.402-18.151c-0.724-0.94-1.6-2.077-2.479-3.219
					c-18.608-24.137-20.741-23.123-1.828,1.41c0.642,0.832,1.281,1.659,1.81,2.344c-1.38,5.875-2.723,11.598-4.018,17.111
					c-1.352,5.875-2.653,11.525-3.888,16.889l0.498,0.465l0.419,0.407c0.171,0.162,0.335,0.337,0.5,0.51
					c0.332,0.343,0.659,0.69,0.97,1.052c0.643,0.702,1.231,1.445,1.825,2.169c0.582,0.734,1.124,1.489,1.68,2.22
					c0.519,0.759,1.032,1.51,1.538,2.251c1.947,3.022,3.591,6.038,4.961,8.967c2.762,5.856,4.4,11.343,5.502,15.915
					c0.265,1.147,0.54,2.231,0.758,3.26c0.181,1.037,0.352,2.01,0.51,2.916c0.159,0.907,0.306,1.748,0.442,2.518
					c0.089,0.777,0.171,1.484,0.244,2.118C164.768,190.135,164.927,191.498,164.927,191.498z"/>
			</g>
			<g>
				<path d="M74.234,144.949c0,0,0.592-0.615,1.705-1.772c0.565-0.567,1.33-1.201,2.188-1.983c0.444-0.375,0.948-0.748,1.47-1.163
					c0.521-0.416,1.081-0.85,1.705-1.267c2.434-1.747,5.55-3.656,9.292-5.545c1.87-0.945,3.891-1.895,6.056-2.824
					c1.085-0.458,2.202-0.921,3.356-1.367c0.578-0.218,1.163-0.439,1.755-0.663c0.742-0.26,1.493-0.522,2.251-0.787
					c0.964-4.059,2.02-8.506,3.142-13.232c1.023-4.429,2.106-9.12,3.227-13.971c1.559-1.043,3.413-2.283,5.289-3.537
					c19.022-12.779,18.046-14.905-1.287-1.916c-2.139,1.443-4.253,2.868-6.03,4.067c-1.117,5.177-2.197,10.182-3.217,14.907
					c-0.921,4.427-1.787,8.591-2.577,12.393c-0.088,0.036-0.076,0.038-0.479,0.191c-0.303,0.12-0.605,0.24-0.905,0.359
					c-0.594,0.249-1.181,0.494-1.761,0.737c-1.156,0.495-2.27,1.007-3.351,1.514c-2.156,1.027-4.16,2.077-6.009,3.118
					c-3.699,2.082-6.75,4.178-9.107,6.081c-0.605,0.456-1.145,0.926-1.646,1.377c-0.502,0.449-0.985,0.854-1.409,1.259
					c-0.819,0.842-1.542,1.525-2.072,2.132C74.783,144.293,74.234,144.949,74.234,144.949z"/>
			</g>
			<g>
				<path d="M101.857,191.498c0,0,0.159-1.363,0.456-3.9c0.073-0.633,0.154-1.34,0.244-2.118c0.135-0.771,0.283-1.611,0.442-2.518
					c0.159-0.906,0.329-1.879,0.51-2.916c0.218-1.029,0.493-2.113,0.758-3.26c1.103-4.572,2.74-10.058,5.502-15.915
					c1.37-2.929,3.015-5.945,4.961-8.967c0.507-0.741,1.02-1.492,1.538-2.251c0.556-0.731,1.097-1.486,1.68-2.22
					c0.593-0.725,1.182-1.467,1.825-2.169c0.311-0.362,0.638-0.708,0.97-1.052c0.165-0.174,0.329-0.348,0.5-0.51l0.419-0.407
					l0.498-0.465c-1.235-5.364-2.536-11.014-3.888-16.889c-1.295-5.513-2.638-11.236-4.018-17.111
					c0.529-0.685,1.168-1.513,1.81-2.344c18.608-24.137,17.084-25.942-1.828-1.41c-0.879,1.142-1.755,2.278-2.479,3.219
					c1.511,6.232,2.984,12.303,4.402,18.151c1.359,5.485,2.667,10.761,3.908,15.769l-0.154,0.163
					c-0.183,0.182-0.353,0.37-0.522,0.556c-0.343,0.371-0.679,0.743-0.994,1.126c-0.655,0.749-1.245,1.53-1.841,2.294
					c-0.583,0.773-1.122,1.563-1.674,2.329c-0.512,0.793-1.018,1.577-1.518,2.351c-1.912,3.15-3.497,6.275-4.795,9.298
					c-2.617,6.045-4.061,11.654-4.982,16.303c-0.219,1.167-0.449,2.267-0.623,3.311c-0.136,1.05-0.264,2.035-0.383,2.952
					c-0.117,0.916-0.226,1.765-0.326,2.544c-0.052,0.783-0.1,1.496-0.142,2.134C101.946,190.128,101.857,191.498,101.857,191.498z"
					/>
			</g>
		</g>
		<g>
			<g>
				<path d="M152.145,30.577c0,0-1.037,1.313-2.935,3.715c-0.941,1.207-2.095,2.689-3.44,4.416c-1.388,1.81-2.974,3.877-4.735,6.173
					c0.867,3.496,1.885,7.598,3.008,12.127c0.566,2.203,1.159,4.51,1.774,6.9c0.566,2.152,1.152,4.378,1.752,6.659
					c-1.126,0.892-2.461,1.949-3.814,3.021c-13.016,10.384-11.789,12.359,1.44,1.805c1.761-1.412,3.497-2.806,4.964-3.982
					c-0.781-2.763-1.544-5.46-2.281-8.067c-0.689-2.369-1.354-4.656-1.99-6.84c-0.649-2.18-1.267-4.258-1.848-6.211
					c-0.295-0.975-0.581-1.919-0.856-2.83c-0.139-0.455-0.275-0.901-0.409-1.339c-0.067-0.219-0.133-0.435-0.199-0.65l-0.113-0.335
					c3.014-4.507,5.428-8.117,7.089-10.601C151.228,31.977,152.145,30.577,152.145,30.577z"/>
			</g>
			<g>
				<path d="M114.639,30.577c0,0,0.917,1.4,2.594,3.96c1.661,2.484,4.075,6.094,7.089,10.601l-0.113,0.335
					c-0.066,0.214-0.132,0.431-0.199,0.65c-0.134,0.438-0.27,0.884-0.409,1.339c-0.275,0.91-0.561,1.855-0.856,2.83
					c-0.581,1.953-1.2,4.03-1.848,6.211c-0.635,2.184-1.3,4.472-1.989,6.84c-0.737,2.607-1.5,5.304-2.282,8.067
					c1.466,1.176,3.203,2.569,4.964,3.982c13.016,10.384,14.669,8.75,1.44-1.805c-1.353-1.072-2.687-2.129-3.814-3.021
					c0.6-2.281,1.186-4.507,1.752-6.659c0.614-2.389,1.207-4.696,1.774-6.9c1.124-4.529,2.141-8.631,3.008-12.127
					c-1.761-2.296-3.347-4.363-4.735-6.173c-1.346-1.727-2.499-3.208-3.44-4.416C115.676,31.89,114.639,30.577,114.639,30.577z"/>
			</g>
		</g>
	</g>
	<g>
		<path d="M91.622,393.04c0,0-2.874-16.778,10.652-21.287c6.268-2.09,14.034,5.165,13,12.277
			c-1.495,10.279-18.864,12.432-18.864,12.432L91.622,393.04z"/>
		<g>
			<path d="M93.047,397.449c-0.047,1.803-1.548,3.227-3.351,3.179c-1.803-0.047-3.227-1.548-3.179-3.351
				c0.047-1.803,1.548-3.227,3.351-3.179C91.671,394.146,93.094,395.646,93.047,397.449z"/>
			<path d="M97.39,399.479c-0.047,1.803-1.548,3.227-3.351,3.179c-1.803-0.047-3.227-1.548-3.179-3.351
				c0.047-1.803,1.548-3.227,3.351-3.179S97.438,397.676,97.39,399.479z"/>
			<g>
				<path d="M73.65,429.607c0,0,8.544-12.061,17.855-27.66c5.577-9.343,3.663-10.64-2.002-1.15
					C80.198,416.385,73.65,429.607,73.65,429.607z"/>
			</g>
			<g>
				<path d="M98.303,419.429c0,0-0.452-0.256-1.267-0.717c-0.721-0.583-1.783-1.392-2.56-2.811
					c-1.642-2.752-2.378-7.291-2.038-12.211c0.18-2.937,0.135-4.479-0.453-4.666c-0.505-0.18-1.643,1.247-1.851,4.517
					c-0.376,5.309,1.048,10.3,3.404,13.033c1.127,1.409,2.479,2.051,3.33,2.457C97.805,419.307,98.303,419.429,98.303,419.429z"/>
			</g>
			<g>
				<path d="M73.549,402.773c0,0,0.381,0.213,1.068,0.596c0.702,0.367,1.775,0.803,3.185,1.147c1.412,0.294,3.17,0.443,5.096,0.192
					c1.924-0.242,4.002-0.866,5.97-1.956c2.384-1.323,2.962-2.878,2.549-3.24c-0.443-0.418-1.563,0.053-3.663,1.218
					c-3.485,1.953-7.137,2.662-9.818,2.64c-1.338-0.043-2.445-0.183-3.201-0.341C73.973,402.865,73.549,402.773,73.549,402.773z"/>
			</g>
		</g>
		<g>
			<path d="M114.35,438.132c0,0-0.426-1.419-1.115-4.005c-0.341-1.294-0.758-2.878-1.242-4.716c-0.239-0.92-0.494-1.904-0.764-2.947
				c-0.135-0.522-0.273-1.058-0.415-1.609c-0.071-0.275-0.143-0.554-0.215-0.837l-0.11-0.426c-0.027-0.139-0.059-0.164-0.038-0.252
				c0.572-2.291,1.198-4.801,1.87-7.494c0.663-2.735,1.371-5.658,2.116-8.733c0.722-3.081,1.48-6.314,2.266-9.666
				c0.192-0.839,0.386-1.685,0.582-2.539c0.165-0.734,0.33-1.472,0.497-2.212l0.144-0.643l0.072-0.322l0.018-0.081
				c0.007-0.027-0.045-0.005-0.065-0.011l-0.164,0.008l-1.318,0.061c-2.013,0.094-4.055,0.19-6.121,0.286
				c-17.533,0.859-17.586,3.171,0.114,2.306c1.58-0.082,3.141-0.163,4.68-0.242c0.008-0.003,0.018-0.007,0.016,0.001l0.002,0.011
				c-0.002,0.013,0.006-0.018-0.005,0.031l-0.069,0.321c-0.182,0.856-0.362,1.706-0.541,2.548c-0.697,3.372-1.37,6.624-2.011,9.722
				c-0.618,3.103-1.205,6.052-1.755,8.812c-0.54,2.801-1.043,5.41-1.502,7.792c-0.045,0.11,0.007,0.217,0.039,0.323l0.089,0.284
				l0.136,0.42c0.09,0.278,0.18,0.552,0.268,0.823c0.178,0.541,0.351,1.069,0.519,1.581c0.342,1.023,0.664,1.989,0.965,2.891
				c0.623,1.798,1.159,3.348,1.597,4.614C113.787,436.76,114.35,438.132,114.35,438.132z"/>
		</g>
		<g>
			<path d="M63.616,430.108c0,0,0.993-1.101,2.692-3.174c0.841-1.043,1.869-2.32,3.064-3.802c0.589-0.747,1.219-1.547,1.886-2.394
				c0.332-0.426,0.673-0.863,1.023-1.312c0.175-0.225,0.351-0.453,0.53-0.684l0.27-0.349l0.18-0.237
				c0.066-0.089,0.151-0.172,0.146-0.291c0.374-2.397,0.783-5.022,1.222-7.841c0.416-2.783,0.861-5.757,1.329-8.886
				c0.445-3.133,0.912-6.421,1.396-9.829c0.117-0.853,0.234-1.713,0.353-2.58l0.044-0.326c0.007-0.049,0.004-0.018,0.006-0.03
				l0.005-0.01c0.001-0.009,0.009-0.001,0.016,0.004c1.421,0.595,2.863,1.199,4.322,1.811c16.099,6.692,17.36,4.717,0.887-2.132
				c-1.912-0.79-3.801-1.571-5.664-2.34l-1.219-0.503l-0.152-0.063c-0.02-0.002-0.062-0.04-0.065-0.012l-0.01,0.082l-0.041,0.328
				l-0.082,0.654c-0.094,0.753-0.188,1.503-0.281,2.249c-0.105,0.869-0.208,1.731-0.311,2.586c-0.394,3.42-0.775,6.719-1.137,9.863
				c-0.339,3.146-0.661,6.135-0.963,8.934c-0.279,2.762-0.538,5.336-0.775,7.685c-0.01,0.089-0.049,0.102-0.121,0.224l-0.247,0.364
				c-0.164,0.241-0.326,0.48-0.486,0.715c-0.32,0.47-0.632,0.928-0.935,1.374c-0.608,0.89-1.18,1.73-1.716,2.515
				c-1.077,1.566-2.005,2.915-2.764,4.018C64.497,428.916,63.616,430.108,63.616,430.108z"/>
		</g>
		<path d="M104.47,377.6c0,0,4.449-4.613,17.588-8.597c26.346-7.988,53.462,15.507,50.029,21.11
			c-3.685,6.014-21.701,4.729-40.835-4.91c-8.959-4.513-21.432,0.686-21.432,0.686L104.47,377.6z"/>
		<path d="M171.504,356.496c-6.636,13.911-28.062,16.67-37.071,16.736c-19.03,0.138-33.282,13.435-35.41,10.18
			c-0.938-1.434-0.716-6.575,16.351-18.402C137.363,349.772,177.392,344.153,171.504,356.496z"/>
		<path d="M97.028,397.572c-1.428,2.209-4.081,3.034-5.927,1.841c-1.845-1.193-2.184-3.951-0.756-6.16
			c1.428-2.209,4.081-3.033,5.927-1.841C98.118,392.605,98.456,395.363,97.028,397.572z"/>
		<g>
			<path d="M215.949,380.619c0,0-4.368,3.697-12.485,10.566c-5.303,1.216-12.628,2.895-21.192,4.858
				c-1.873-3.495-3.906-7.288-6.073-11.333c-2.274-4.203-4.689-8.667-7.217-13.34c-5.073-9.338-10.634-19.495-16.479-30.057
				c-0.857-1.543-1.687-3.039-2.491-4.487c-16.133,30.889-11.679,26.813,0.049,4.831l0.001,0.012l0,0.001l0,0l0.048,0.087
				c0.123,0.223,0.247,0.448,0.373,0.674c5.846,10.562,11.5,20.667,16.72,29.924c5.346,9.413,10.213,17.982,14.368,25.298
				c8.977-2.368,16.655-4.393,22.214-5.859C211.693,384.529,215.949,380.619,215.949,380.619z"/>
		</g>
		<g>
			<path d="M212.745,397.227c0,0-4.376,3.714-12.414,10.535c-4.04-0.901-8.952-1.998-14.594-3.257
				c-5.598-1.229-11.921-2.617-18.824-4.133c-3.861-7.129-8.277-15.286-13.066-24.129c-4.906-8.932-10.194-18.556-15.673-28.53
				c-1.303-2.34-2.538-4.56-3.691-6.63c-16.042,30.88-11.763,26.759,0.049,4.781l0.006,0.026l0,0.007l0.25,0.457
				c0.442,0.802,0.898,1.628,1.366,2.477c5.542,9.939,10.891,19.53,15.854,28.43c5.081,8.988,9.767,17.279,13.864,24.526
				c7.203,1.393,13.8,2.67,19.642,3.8c5.797,1.1,10.845,2.058,14.996,2.846C208.432,401.178,212.745,397.227,212.745,397.227z"/>
		</g>
		<g>
			<path d="M138.73,449.826c0,0-2.744-2.105-7.837-6.014c-1.246-3.137-2.841-7.153-4.719-11.882
				c-1.863-4.618-4.007-9.934-6.366-15.784c2.56-3.586,5.347-7.488,8.301-11.624c3.296-4.681,6.779-9.625,10.38-14.737
				c-2.962-1.041-6.468-2.273-10.024-3.522c-25.2-8.809-26.374-6.773-0.762,2.179c2.558,0.887,5.08,1.763,7.21,2.502
				c-2.947,4.303-5.797,8.463-8.495,12.402c-3.041,4.483-5.91,8.713-8.546,12.6c2.698,6.086,5.149,11.615,7.279,16.419
				c2.114,4.693,3.909,8.677,5.312,11.79C135.836,447.84,138.73,449.826,138.73,449.826z"/>
		</g>
		<g>
			<path d="M52.125,405.486c0,0,1.711-0.294,4.871-0.838c3.233-0.574,7.947-1.412,13.875-2.466
				c0.971-5.447,2.137-11.985,3.451-19.35c1.162-6.772,2.454-14.304,3.836-22.354l0.043,0.033l0.018,0.014l0.011,0.008l0.211,0.125
				c0.565,0.334,1.139,0.673,1.721,1.017c1.166,0.687,2.364,1.393,3.588,2.114c2.451,1.436,5.003,2.93,7.588,4.443
				c22.627,13.196,24.161,11.418,1.163-1.994c-5.676-3.286-11.205-6.487-16.002-9.264c-0.739,4.868-1.454,9.58-2.139,14.098
				c-0.588,4.015-1.151,7.858-1.684,11.496c-1.006,7.158-1.9,13.513-2.644,18.807C58.776,403.96,52.125,405.486,52.125,405.486z"/>
		</g>
	</g>
	<g>
		<path d="M100.398,274.563c0,0-0.468-14.156,8.146-18.42c10.75-5.322,16.313,7.96,14.526,12.62s-10.622,8.036-16.559,7.717
			C100.575,276.16,100.398,274.563,100.398,274.563z"/>
		<g>
			<path d="M81.24,286.249c0,0,0.84-0.296,2.331-0.964c1.493-0.663,3.636-1.688,6.268-3.064c0.186-0.099,0.373-0.199,0.564-0.3
				l0.365-0.201c0.089-0.094,0.09-0.255,0.141-0.382c0.119-0.405,0.241-0.819,0.365-1.242c0.229-0.779,0.469-1.591,0.717-2.435
				c0.488-1.69,1.011-3.504,1.565-5.424c0.539-1.925,1.107-3.957,1.701-6.078c0.29-1.062,0.586-2.147,0.887-3.252l0.225-0.833
				l0.093-0.344l0.011-0.019c0.014-0.023,0.024-0.036,0.032-0.04l0.026,0.056l0.091,0.118c0.169,0.203,0.341,0.409,0.514,0.617
				c0.732,0.857,1.495,1.75,2.267,2.652c4.355,4.997,7.238,6.927,7.642,6.537c0.43-0.412-1.531-3.043-5.902-8.056
				c-0.768-0.889-1.529-1.769-2.258-2.613c-0.515-0.608-1.018-1.204-1.507-1.782c-0.673-0.814-1.325-1.603-1.951-2.361
				c-0.461,1.877-0.914,3.724-1.36,5.538c-0.262,1.115-0.519,2.209-0.771,3.281c-0.49,2.147-0.959,4.204-1.404,6.153
				c-0.429,1.952-0.834,3.796-1.211,5.514c-0.184,0.86-0.361,1.688-0.531,2.482c-0.075,0.363-0.149,0.719-0.221,1.067
				c-0.014,0.049-0.009,0.113-0.038,0.152l-0.128,0.089c-0.138,0.089-0.273,0.177-0.408,0.265c-2.491,1.588-4.511,2.822-5.916,3.641
				C82.034,285.847,81.24,286.249,81.24,286.249z"/>
		</g>
		<g>
			<path d="M124.849,307.574c0,0-0.15-0.233-0.382-0.705c-0.236-0.47-0.56-1.174-0.952-2.092c-0.392-0.918-0.855-2.049-1.378-3.368
				c-0.13-0.33-0.264-0.671-0.403-1.024c-0.126-0.351-0.323-0.762-0.327-0.928c0.207-0.736,0.426-1.514,0.656-2.331
				c0.955-3.448,2.066-7.56,3.249-12.138c0.579-2.292,1.188-4.698,1.818-7.191c0.153-0.625,0.308-1.255,0.464-1.89
				c0.125-0.522,0.251-1.047,0.377-1.573l0.114-0.479l0.057-0.24l0.029-0.12c-0.026-0.02-0.075-0.026-0.111-0.04l-0.941-0.291
				c-1.432-0.442-2.885-0.89-4.355-1.344c-12.557-3.835-13.321-1.655-0.675,2.208c1.138,0.343,2.263,0.682,3.372,1.016
				c0.007-0.001,0.014-0.001,0.013,0.005c-0.004,0.028,0.031-0.11-0.072,0.345c-0.142,0.638-0.283,1.272-0.423,1.899
				c-0.542,2.514-1.065,4.94-1.563,7.251c-0.972,4.627-1.802,8.805-2.476,12.318c-0.177,0.923-0.346,1.803-0.506,2.635
				c-0.05,0.14,0.091,0.26,0.126,0.388l0.155,0.32c0.087,0.176,0.174,0.349,0.258,0.519c0.172,0.339,0.338,0.668,0.499,0.986
				c0.649,1.268,1.228,2.351,1.72,3.226c0.491,0.875,0.898,1.542,1.19,1.982C124.669,307.362,124.849,307.574,124.849,307.574z"/>
		</g>
		<g>
			<g>
				<path d="M101.729,277.552c0.461,1.4-0.192,2.873-1.457,3.289c-1.265,0.416-2.664-0.382-3.124-1.782
					c-0.461-1.4,0.192-2.872,1.457-3.289C99.869,275.354,101.268,276.152,101.729,277.552z"/>
				<path d="M105.672,278.078c0.517,1.572-0.179,3.213-1.555,3.666c-1.376,0.452-2.91-0.455-3.427-2.027
					c-0.517-1.572,0.179-3.213,1.555-3.666C103.621,275.599,105.155,276.506,105.672,278.078z"/>
				<g>
					<path d="M90.353,308.656c0,0,0.208-0.793,0.584-2.225c0.418-1.42,1-3.473,1.891-5.949c1.752-4.949,4.516-11.691,8.475-18.568
						c2.379-4.093,3.573-6.18,3.128-6.606c-0.377-0.387-2.592,1.095-5.123,5.443c-4.102,7.13-6.368,14.227-7.589,19.408
						c-0.624,2.593-0.929,4.732-1.136,6.202C90.435,307.838,90.353,308.656,90.353,308.656z"/>
				</g>
				<g>
					<path d="M110.414,296.128c0,0-0.476-0.19-1.333-0.533c-0.41-0.194-0.871-0.522-1.408-0.84
						c-0.466-0.443-1.057-0.839-1.531-1.482c-2.076-2.351-3.535-6.684-3.684-11.452c-0.01-1.418-0.032-2.465-0.073-3.183
						c-0.044-0.704-0.145-1.149-0.415-1.289c-0.242-0.131-0.691,0.112-1.12,0.883c-0.415,0.761-0.717,2.004-0.699,3.639
						c0.157,5.335,2.41,10.014,5.186,12.229c0.639,0.602,1.387,0.932,1.966,1.284c0.656,0.23,1.198,0.453,1.662,0.551
						C109.897,296.059,110.414,296.128,110.414,296.128z"/>
				</g>
				<g>
					<path d="M84.177,287.365c0,0,0.111,0.023,0.323,0.067c0.213,0.03,0.532,0.137,0.947,0.149c0.835,0.1,2.06,0.055,3.546-0.214
						c2.953-0.552,6.956-2.128,10.45-5.272c2.09-1.931,2.339-3.592,1.879-3.867c-0.521-0.335-1.573,0.442-3.438,2.165
						c-3.135,2.827-6.583,4.809-9.21,5.865c-1.318,0.521-2.44,0.847-3.238,0.962c-0.399,0.095-0.712,0.079-0.928,0.112
						C84.291,287.354,84.177,287.365,84.177,287.365z"/>
				</g>
			</g>
			<path d="M106.293,275.305c0.796,2.42-0.521,5.028-2.941,5.824c-2.42,0.796-5.028-0.521-5.824-2.941
				c-0.796-2.42,0.521-5.028,2.941-5.824C102.889,271.568,105.496,272.885,106.293,275.305z"/>
		</g>
		<path d="M109.45,261.262c0,0,14.387-7.407,29.768-8.538c16.29-1.197,35.034,3.808,35.705,9.515
			c0.698,5.94-18.603,12.425-36.263,9.603C123.356,269.398,109.45,261.262,109.45,261.262z"/>
		<path d="M104.424,202.143c15.844,9.707,16.026,30.039,15.527,38.083c-1.053,16.993,4.531,23.965,1.163,25.846
			c-1.484,0.829-3.128,3.151-11.365-14.539C99.594,229.724,93.478,195.437,104.424,202.143z"/>
		<path d="M166.49,215.899c-2.012,18.472-18.331,30.318-25.819,33.302c-15.816,6.304-25.273,20.674-28.412,18.432
			c-1.383-0.988-1.97-6.412,10.508-21.414C138.152,227.724,167.88,203.138,166.49,215.899z"/>
		<g>
			<path d="M156.597,316.188c0,0-3.217,0.179-9.201,0.512c-1.581-1.181-3.495-2.609-5.682-4.242
				c-2.131-1.573-4.529-3.342-7.135-5.266l0.016-0.135l0.022-0.235c0.02-0.267,0.04-0.536,0.061-0.807
				c0.04-0.543,0.081-1.095,0.123-1.655c0.081-1.122,0.165-2.28,0.251-3.471c0.163-2.382,0.335-4.896,0.514-7.516
				c0.166-2.621,0.338-5.349,0.515-8.158c0.172-3.008,0.35-6.105,0.531-9.262c-0.816-0.621-1.8-1.369-2.789-2.121
				c-15.765-11.965-17.419-10.322-1.396,1.839c0.646,0.489,1.288,0.975,1.822,1.378c-0.13,2.744-0.257,5.434-0.38,8.049
				c-0.118,2.813-0.233,5.544-0.344,8.168c-0.189,5.405-0.362,10.37-0.513,14.691c2.952,1.968,5.668,3.778,8.083,5.387
				c2.358,1.548,4.42,2.903,6.125,4.022C153.319,316.599,156.597,316.188,156.597,316.188z"/>
		</g>
		<g>
			<path d="M67.59,285.594c0,0,1.006-0.333,2.962-0.98c1.986-0.671,4.937-1.667,8.794-2.97c0.932-2.164,2.025-4.702,3.256-7.56
				c1.193-2.808,2.52-5.93,3.958-9.313c1.419-3.391,2.949-7.045,4.566-10.908c1.413-3.42,2.903-7.026,4.45-10.77l0.039,0.047
				c0.348,0.297,0.702,0.599,1.061,0.905c0.784,0.666,1.592,1.353,2.416,2.053c1.653,1.397,3.375,2.852,5.116,4.324
				c17.279,14.549,19.049,13.021,1.487-1.766c-3.915-3.275-7.741-6.475-11.037-9.232c-1.027,2.619-2.035,5.19-3.021,7.704
				c-0.794,2.052-1.57,4.058-2.325,6.01c-1.494,3.912-2.907,7.612-4.219,11.046c-1.293,3.442-2.486,6.617-3.559,9.473
				c-1.035,2.805-1.954,5.297-2.738,7.421C71.47,284.03,67.59,285.594,67.59,285.594z"/>
		</g>
		<g>
			<path d="M219.163,268.731c0,0-3.485,3.68-9.961,10.517c-4.536,1.584-10.8,3.772-18.125,6.33
				c-1.982-2.878-4.134-6.003-6.428-9.335c-2.418-3.477-4.985-7.17-7.673-11.036c-5.391-7.722-11.296-16.115-17.498-24.832
				c-0.957-1.341-1.884-2.641-2.782-3.899c-11.325,29.366-7.34,24.765,0.593,4.795l0.002,0.011l0,0.002l0.305,0.43
				c6.201,8.717,12.194,17.048,17.721,24.673c5.671,7.766,10.834,14.836,15.241,20.871c7.689-3.006,14.266-5.578,19.027-7.439
				C215.813,272.609,219.163,268.731,219.163,268.731z"/>
		</g>
		<g>
			<path d="M217.999,283.675c0,0-3.488,3.694-9.895,10.479c-3.641-0.398-8.07-0.881-13.156-1.437
				c-5.039-0.531-10.73-1.13-16.944-1.785c-4.097-5.888-8.784-12.623-13.866-19.926c-5.209-7.377-10.822-15.327-16.638-23.565
				c-1.43-1.999-2.787-3.895-4.052-5.664c-11.235,29.346-7.43,24.723,0.587,4.745l0.008,0.024l0.001,0.007
				c0.005,0.009-0.041-0.055,0.125,0.181c0.469,0.662,0.953,1.344,1.449,2.045c5.876,8.196,11.545,16.105,16.807,23.445
				c5.388,7.414,10.359,14.253,14.703,20.23c6.498,0.499,12.449,0.957,17.719,1.362c5.222,0.38,9.77,0.711,13.509,0.984
				C214.6,287.597,217.999,283.675,217.999,283.675z"/>
		</g>
	</g>
	<g>
		<path d="M322.205,250.399c0,0-2.463-15.316,9.708-21.671c11.654-6.085,20.159,6.647,14.826,15.923
			c-5.946,10.343-20.855,7.62-20.855,7.62L322.205,250.399z"/>
		<path d="M331.695,231.408c0,0,14.882,0.495,32.427,2.449c29.954,3.337,34.764,13.725,33.641,17.445
			c-1.1,3.646-21.036,4.557-38.408-2.996c-15.351-6.675-27.66-9.015-27.66-9.015V231.408z"/>
		<g>
			<path d="M330.385,249.359c1.513,2.55,0.581,5.899-2.083,7.48c-2.664,1.581-6.05,0.795-7.564-1.755
				c-1.513-2.55-0.581-5.899,2.083-7.48C325.486,246.023,328.872,246.809,330.385,249.359z"/>
			<g>
				<path d="M309.041,293.591c0,0,0.165-1.039,0.464-2.918c0.201-0.929,0.429-2.067,0.733-3.375c0.354-1.3,0.703-2.786,1.233-4.393
					c1.985-6.439,5.564-15.142,11.017-23.788c1.664-2.559,2.955-4.441,3.807-5.729c0.862-1.268,1.25-2.008,1.056-2.241
					c-0.175-0.215-0.95,0.1-2.204,1.142c-1.224,1.057-2.85,2.879-4.601,5.58c-5.638,8.943-8.734,18.051-10.191,24.742
					c-0.397,1.668-0.61,3.21-0.835,4.55c-0.175,1.35-0.279,2.518-0.374,3.467C309.079,292.535,309.041,293.591,309.041,293.591z"/>
			</g>
			<g>
				<path d="M298.499,259.356c0,0,0.558,0.236,1.564,0.661c1.021,0.39,2.524,0.934,4.483,1.297c1.948,0.375,4.384,0.533,7.04,0.089
					c2.66-0.422,5.434-1.519,8.097-2.958c3.169-1.779,4.327-3.312,4.036-3.784c-0.313-0.511-2.077,0.036-5.141,1.757
					c-2.537,1.368-5.014,2.492-7.393,3.079c-2.372,0.606-4.614,0.749-6.51,0.671c-1.899-0.065-3.447-0.318-4.515-0.498
					C299.092,259.468,298.499,259.356,298.499,259.356z"/>
			</g>
			<g>
				<path d="M328.854,275.605c0,0-0.398-0.566-1.117-1.589c-0.393-0.48-0.718-1.176-1.142-1.937
					c-0.466-0.738-0.771-1.696-1.196-2.691c-0.698-2.059-1.244-4.59-1.279-7.434c-0.038-2.834,0.366-5.972,1.333-9.08
					c0.57-1.868,1.123-3.198,1.44-4.11c0.086-0.223,0.154-0.43,0.205-0.617c0.06-0.169,0.112-0.307,0.142-0.442
					c0.062-0.266,0.059-0.473-0.031-0.587c-0.09-0.113-0.268-0.134-0.557-0.025c-0.144,0.054-0.317,0.141-0.512,0.266
					c-0.165,0.131-0.349,0.297-0.551,0.5c-0.784,0.817-1.7,2.242-2.337,4.318c-1.059,3.404-1.343,6.824-1.077,9.88
					c0.262,3.066,1.15,5.729,2.164,7.787c0.582,0.997,1.038,1.927,1.636,2.621c0.557,0.717,0.996,1.354,1.48,1.775
					C328.355,275.119,328.854,275.605,328.854,275.605z"/>
			</g>
			<path d="M323.467,253.465c0.87,1.466,0.673,3.19-0.439,3.851c-1.113,0.66-2.72,0.007-3.591-1.459
				c-0.87-1.466-0.673-3.19,0.439-3.851C320.989,251.345,322.597,251.998,323.467,253.465z"/>
		</g>
		<path d="M330.037,236.149c-0.954-0.237,9.345-7.831,27.35-14.152c17.907-6.286,47.104-5.292,47.073,1.738
			c-0.028,6.351-24.17,9.832-33.874,9.187C350.708,231.6,334.35,237.218,330.037,236.149z"/>
		<g>
			<path d="M306.849,300.3c0,0,1.114-0.198,3.211-0.571c2.119-0.391,5.23-0.965,9.202-1.698c2.285-1.934,5.03-4.256,8.133-6.882
				c3.107-2.669,6.573-5.647,10.297-8.848c1.375-3.643,2.844-7.533,4.38-11.601c1.476-4.001,3.017-8.178,4.598-12.464
				c0.448-1.253,0.87-2.434,1.263-3.536c-4.952-16.154-6.46-14.839-2.381-0.077c-0.006,0.011,0.002-0.015-0.014,0.024l-0.143,0.38
				c-0.095,0.255-0.193,0.515-0.291,0.78c-0.195,0.53-0.396,1.077-0.603,1.64c-1.545,4.299-3.05,8.489-4.492,12.503
				c-1.382,3.946-2.703,7.719-3.94,11.253c-3.472,3.223-6.703,6.223-9.599,8.911c-2.898,2.731-5.462,5.146-7.596,7.157
				C311.2,299.203,306.849,300.3,306.849,300.3z"/>
		</g>
		<g>
			<path d="M266.88,257.161c0,0,2.157,1.518,6.346,4.466c2.859-0.361,6.716-0.847,11.35-1.432c2.296-0.304,4.784-0.633,7.438-0.984
				c2.781-0.383,5.735-0.789,8.835-1.215c2.32-3.573,4.859-7.483,7.549-11.625c2.577-4.04,5.298-8.305,8.097-12.694
				c0.34-0.543,0.671-1.07,0.991-1.581l0.22-0.355l-0.001-0.007l0.003-0.025c10.1,8.283,14.309,9.503-0.52-3.409
				c-0.822,1.288-1.705,2.671-2.645,4.143c-2.759,4.415-5.441,8.705-7.981,12.768c-2.426,3.96-4.717,7.698-6.81,11.114
				c-5.724,1.014-10.912,1.932-15.355,2.719c-4.514,0.838-8.271,1.535-11.056,2.052C269.076,258.498,266.88,257.161,266.88,257.161z
				"/>
		</g>
		<g>
			<path d="M296.838,240.826c0,0,1.731,2.056,5.016,5.959c2.501,0.885,5.71,2.021,9.523,3.37c3.985,1.385,8.602,2.99,13.742,4.777
				c2.311-5.745,5.002-12.433,7.952-19.766c2.533-6.434,5.289-13.433,8.164-20.733l0,0.003l0,0.001l0.236,0.397
				c13.452,22.696,15.659,21.891,1.986-1.177c-0.944-1.591-1.883-3.175-2.661-4.485c-1.842,4.811-3.647,9.523-5.396,14.092
				c-1.455,3.857-2.864,7.594-4.214,11.174c-1.335,3.585-2.611,7.013-3.815,10.247c-0.597,1.619-1.176,3.189-1.735,4.706
				c-0.279,0.759-0.552,1.505-0.821,2.236c-0.134,0.366-0.267,0.729-0.398,1.087l-0.145,0.433c-9.622-2.92-17.285-5.245-22.179-6.73
				C298.652,242.755,296.838,240.826,296.838,240.826z"/>
		</g>
		<g>
			<path d="M411.517,305.747c0,0-6.535-0.14-18.404-0.394c-2.674-2.358-5.874-5.18-9.493-8.37
				c-3.574-3.126-7.561-6.613-11.853-10.368c0.579-6.047,1.226-12.794,1.919-20.024c0.697-7.78,1.44-16.079,2.208-24.662
				c-1.529-0.019-3.374-0.043-5.228-0.066c-31.618-0.386-32.164,1.916-0.028,2.309c0.707,0.008,1.413,0.017,2.088,0.025
				c0.964,0.011,0.58,0.006,0.662,0.006c-0.626,7.729-1.231,15.203-1.799,22.209c-0.571,7.556-1.105,14.609-1.582,20.928
				c4.638,3.836,8.946,7.399,12.807,10.593c3.816,3.129,7.191,5.896,10.011,8.207C404.88,305.886,411.517,305.747,411.517,305.747z"
				/>
		</g>
		<g>
			<path d="M446.265,291.942c0,0-3.876-0.369-11.578-1.103c-1.228-2.31-2.725-5.128-4.449-8.372
				c-1.777-3.292-3.786-7.016-5.984-11.089c-2.223-4.059-4.635-8.466-7.193-13.137c-2.711-4.87-5.576-10.015-8.546-15.349
				c-2.188,0.316-4.793,0.692-7.427,1.073c-23.741,3.467-23.796,5.808,0.334,2.285c2.084-0.309,4.145-0.614,5.875-0.87
				c2.773,4.821,5.447,9.471,7.978,13.872c2.685,4.599,5.217,8.938,7.55,12.935c2.357,3.982,4.513,7.624,6.418,10.843
				c1.958,3.267,3.659,6.104,5.053,8.431C442.258,291.781,446.265,291.942,446.265,291.942z"/>
		</g>
		<g>
			<path d="M457.525,263.67c0,0-3.772,0.967-11.266,2.887c-1.938-1.757-4.302-3.901-7.024-6.368
				c-2.787-2.495-5.941-5.317-9.389-8.403c-3.467-3.065-7.23-6.393-11.22-9.92c-4.201-3.662-8.641-7.532-13.243-11.544
				c-1.951,1.039-4.274,2.276-6.624,3.527c-21.16,11.31-20.418,13.531,1.088,2.036c1.856-0.997,3.691-1.982,5.232-2.81
				c4.243,3.596,8.335,7.064,12.209,10.346c4.085,3.417,7.938,6.64,11.488,9.609c3.568,2.948,6.83,5.643,9.714,8.026
				c2.949,2.409,5.511,4.503,7.612,6.219C453.701,264.876,457.525,263.67,457.525,263.67z"/>
		</g>
	</g>
	<g>
		<path d="M315.532,380.162c-0.641,3.407-3.922,5.65-7.329,5.009c-3.407-0.641-5.65-3.922-5.009-7.329
			c0.64-3.407,3.922-5.65,7.329-5.009C313.929,373.474,316.172,376.755,315.532,380.162z"/>
		<path d="M309.634,377.559c-0.388,2.066-2.378,3.426-4.444,3.038c-2.066-0.388-3.426-2.378-3.038-4.444
			c0.388-2.066,2.378-3.426,4.444-3.038C308.663,373.503,310.022,375.493,309.634,377.559z"/>
		<g>
			<path d="M276.281,386.697c0,0,3.108-0.678,8.121-1.772c5.013-1.077,11.93-2.487,19.589-3.906
				c4.585-0.847,6.846-1.747,6.777-2.331c-0.065-0.563-2.487-0.808-7.199,0.061c-7.737,1.434-14.592,3.423-19.471,5.063
				C279.214,385.449,276.281,386.697,276.281,386.697z"/>
		</g>
		<g>
			<path d="M299.254,396.802c0,0,0.098-0.482,0.273-1.35c0.216-0.858,0.495-2.096,1.03-3.552c1.024-2.917,2.952-6.734,6.032-10.156
				c1.835-2.025,2.674-3.252,2.315-3.751c-0.302-0.443-1.951-0.074-4.036,2.213c-1.669,1.887-2.953,3.942-3.81,5.933
				c-0.871,1.987-1.362,3.88-1.62,5.478c-0.273,1.598-0.267,2.91-0.27,3.801C299.224,396.308,299.254,396.802,299.254,396.802z"/>
		</g>
		<g>
			<path d="M292.137,375.086c-0.182,0.046,0.534,1.355,2.465,2.526c0.964,0.581,2.234,1.094,3.694,1.383
				c1.456,0.294,3.075,0.371,4.71,0.31c3.888-0.16,3.83-2.469-0.081-2.307c-1.592,0.059-3.063,0.123-4.387,0.064
				c-1.32-0.054-2.499-0.238-3.474-0.508C293.108,376.004,291.986,375.19,292.137,375.086z"/>
		</g>
		<path d="M310.768,375.793c0,0,9.675-22.472,24.815-12.571c15.027,9.827-2.249,24.534-14.436,20.892
			C312.713,381.593,310.768,375.793,310.768,375.793z"/>
		<path d="M328.583,364.46c0,0,16.012,0.532,34.89,2.635c32.23,3.591,37.405,14.768,36.197,18.77
			c-1.184,3.923-22.634,4.903-41.326-3.224c-16.517-7.182-29.761-9.7-29.761-9.7V364.46z"/>
		<path d="M327.559,367.18c-0.915-0.531,12.009-5.279,32.511-6.392c20.389-1.107,50.254,8.703,48.107,15.955
			c-1.94,6.552-27.926,2.886-37.758-0.699C350.282,368.699,331.694,369.583,327.559,367.18z"/>
		<g>
			<path d="M286.721,435.642c0,0,0.92-0.569,2.672-1.653c1.762-1.107,4.361-2.739,7.71-4.843c1.001-1.503,2.166-3.254,3.462-5.202
				c1.295-1.97,2.721-4.138,4.245-6.455c0.618-3.899,1.323-8.351,2.089-13.188c0.687-4.607,1.429-9.58,2.202-14.759
				c1.28-0.692,2.804-1.515,4.345-2.348c17.461-9.489,16.644-11.673-1.102-2.029c-1.897,1.035-3.772,2.059-5.347,2.919
				c-0.386,2.89-0.765,5.723-1.132,8.476c-0.329,2.569-0.649,5.064-0.956,7.463c-0.573,4.744-1.1,9.11-1.562,12.934
				c-2.707,4.592-5.067,8.598-6.843,11.61C290.202,433.125,286.721,435.642,286.721,435.642z"/>
		</g>
		<g>
			<path d="M280.323,418.191c0,0,1.208-0.507,3.49-1.465c2.298-0.983,5.677-2.428,10.001-4.278c1.321-1.604,2.846-3.455,4.531-5.501
				c1.694-2.079,3.549-4.356,5.523-6.779c0.534-4.427,1.14-9.445,1.794-14.863c0.528-4.705,1.095-9.758,1.683-14.995l0.001,0.003
				c16.899,12.707,18.578,11.08,1.378-1.853c-1.152-0.866-2.299-1.728-3.248-2.44c-0.373,3.664-0.739,7.264-1.096,10.77
				c-0.273,2.849-0.54,5.622-0.796,8.296c-0.244,2.676-0.479,5.252-0.703,7.706c-0.204,2.373-0.398,4.628-0.58,6.742
				c-3.551,4.772-6.677,8.972-9.066,12.182c-4.124,2.059-7.345,3.667-9.537,4.762C281.492,417.599,280.323,418.191,280.323,418.191z
				"/>
		</g>
		<g>
			<path d="M399.747,430.649c0,0-8.497-0.165-23.466-0.455c-3.467-3.043-7.592-6.663-12.221-10.726
				c-4.604-4.006-9.71-8.449-15.167-13.198c-0.41-6.322-0.849-13.097-1.309-20.197c-0.505-7.237-1.032-14.805-1.574-22.572
				c-0.271-3.513-0.519-6.736-0.743-9.643c-24.288,14.458-19.315,13.455-1.956,3.703c-0.005,0.035-0.009,0.058-0.014,0.072
				c0.04,0.62,0.082,1.255,0.124,1.906c0.091,1.314,0.187,2.691,0.287,4.128c0.582,7.765,1.148,15.329,1.69,22.564
				c0.586,7.37,1.146,14.404,1.668,20.966c5.783,4.806,11.194,9.302,16.073,13.356c4.853,3.997,9.176,7.557,12.809,10.55
				C391.128,430.814,399.747,430.649,399.747,430.649z"/>
		</g>
		<g>
			<path d="M389.099,407.322c0,0-7.261-0.182-19.757-0.495c-2.43-2.463-5.254-5.324-8.346-8.458
				c-1.347-2.831-2.805-5.896-4.356-9.157c-1.585-3.293-3.264-6.784-5.02-10.434c-3.527-7.292-7.394-15.201-11.464-23.411
				c-0.879-1.762-1.718-3.441-2.501-5.01c-14.327,22.44-9.764,18.897-0.265,4.596c0.003,0.016,0.001,0.027,0.001,0.027
				c0.226,0.458,0.458,0.93,0.696,1.413c4.07,8.21,8.026,16.076,11.694,23.297c3.718,7.247,7.114,13.865,10.027,19.544
				c3.383,3.18,6.472,6.084,9.131,8.583c6.398-0.148,11.456-0.265,14.914-0.345C387.265,407.375,389.099,407.322,389.099,407.322z"
				/>
		</g>
		<g>
			<g>
				<path d="M444.672,411.425c0,0-4.037-0.6-11.105-1.651c-3.537-0.504-7.832-1.117-12.76-1.82
					c-4.871-0.667-10.368-1.421-16.365-2.242c-4.136-2.703-8.694-5.682-13.539-8.848c-4.93-3.169-10.152-6.526-15.531-9.984
					c-1.158-0.729-2.253-1.419-3.284-2.069c-0.518-0.32-1.02-0.631-1.506-0.931c-0.243-0.149-0.483-0.296-0.718-0.44l-0.35-0.213
					c-0.064-0.037-0.033-0.014-0.055-0.024c-5.816-13.342-7.615-13.893-1.739,1.45c0.976,0.643,2.026,1.333,3.146,2.07
					c1.024,0.66,2.113,1.362,3.266,2.104c5.405,3.415,10.654,6.731,15.609,9.861c5.039,3.133,9.78,6.08,14.083,8.755
					c6.171,0.633,11.827,1.213,16.839,1.728c4.955,0.479,9.273,0.896,12.83,1.24C440.607,411.056,444.672,411.425,444.672,411.425z"
					/>
			</g>
			<g>
				<path d="M457.525,382.416c0,0-4.055,0.461-11.155,1.269c-3.547,0.425-7.856,0.94-12.798,1.532
					c-4.879,0.611-10.384,1.301-16.39,2.053c-4.693-1.545-9.865-3.248-15.362-5.058c-5.581-1.791-11.492-3.688-17.58-5.642
					c-1.306-0.406-2.543-0.79-3.706-1.152c-0.583-0.176-1.148-0.346-1.695-0.511c-0.274-0.081-0.543-0.161-0.807-0.239l-0.393-0.116
					c-0.071-0.02-0.035-0.005-0.06-0.009c-9.06-11.391-10.94-11.46-1.306,1.85c1.109,0.369,2.301,0.766,3.573,1.189
					c1.16,0.374,2.393,0.771,3.698,1.191c6.103,1.906,12.029,3.756,17.624,5.503c5.677,1.728,11.017,3.353,15.864,4.828
					c6.126-0.979,11.74-1.877,16.715-2.673c4.911-0.815,9.191-1.525,12.716-2.11C453.503,383.108,457.525,382.416,457.525,382.416z"
					/>
			</g>
		</g>
	</g>
	<g>
		<path d="M373.816,118.995c0,3.761-3.886,8.773-8.679,8.773c-4.793,0-8.679-5.012-8.679-8.773c0-3.761,3.886-4.846,8.679-4.846
			C369.93,114.149,373.816,115.234,373.816,118.995z"/>
		<path d="M374.954,109.999c0,5.148-4.395,11.562-9.817,11.562c-5.422,0-9.817-6.414-9.817-11.562
			c0-5.148,4.395-16.103,9.817-16.103C370.559,93.896,374.954,104.851,374.954,109.999z"/>
		<g>
			<path d="M364.008,132.166c0,1.478-1.137,2.677-2.539,2.677s-2.539-1.198-2.539-2.677c0-1.478,1.137-2.677,2.539-2.677
				S364.008,130.688,364.008,132.166z"/>
			<path d="M370.216,132.166c0,1.478-1.137,2.677-2.539,2.677s-2.539-1.198-2.539-2.677c0-1.478,1.137-2.677,2.539-2.677
				S370.216,130.688,370.216,132.166z"/>
			<path d="M371.137,129.064c0,2.813-2.884,5.093-6.441,5.093c-3.557,0-6.441-2.28-6.441-5.093c0-2.813,2.884-5.093,6.441-5.093
				C368.254,123.971,371.137,126.251,371.137,129.064z"/>
			<g>
				<line x1="364.598" y1="129.489" x2="364.598" y2="158.045"/>
				<g>
					<path d="M364.598,158.045c0,0,1.154-10.227,1.154-22.842c0-7.556-2.309-7.68-2.309,0
						C363.444,147.818,364.598,158.045,364.598,158.045z"/>
				</g>
			</g>
			<g>
				<g>
					<path d="M376.9,143.749c0,0-0.104-0.05-0.3-0.145c-0.198-0.09-0.485-0.233-0.849-0.423c-0.727-0.379-1.751-0.969-2.9-1.822
						c-1.145-0.856-2.413-1.98-3.6-3.392c-1.189-1.409-2.282-3.115-3.205-5.034c-1.078-2.299-1.921-3.442-2.504-3.282
						c-0.529,0.137-0.794,1.671,0.423,4.283c1.018,2.121,2.383,3.966,3.87,5.372c1.486,1.412,3.053,2.39,4.422,3.044
						c1.376,0.652,2.553,0.988,3.368,1.17c0.408,0.091,0.726,0.149,0.944,0.179C376.786,143.732,376.9,143.749,376.9,143.749z"/>
				</g>
				<g>
					<path d="M352.08,143.749c0,0,0.114-0.017,0.329-0.05c0.218-0.03,0.535-0.088,0.944-0.179c0.815-0.182,1.992-0.518,3.368-1.17
						c1.369-0.654,2.937-1.632,4.422-3.044c1.487-1.406,2.852-3.251,3.87-5.372c1.2-2.569,0.947-4.124,0.423-4.283
						c-0.577-0.182-1.41,0.944-2.504,3.282c-0.923,1.919-2.016,3.626-3.205,5.034c-1.187,1.411-2.454,2.536-3.6,3.392
						c-1.149,0.853-2.173,1.443-2.9,1.822c-0.364,0.19-0.651,0.333-0.849,0.423C352.183,143.699,352.08,143.749,352.08,143.749z"/>
				</g>
			</g>
		</g>
		<g>
			<path d="M409.353,48.701c2.267,19.529-11.217,38.307-17.969,44.443c-14.263,12.961-20.206,29.876-23.844,28.913
				c-1.603-0.424-0.244-17.45,7.564-38.093C384.664,58.69,407.787,35.209,409.353,48.701z"/>
			<path d="M320.921,48.701c-2.267,19.529,11.217,38.307,17.969,44.443c14.263,12.961,20.206,29.876,23.844,28.913
				c1.603-0.424,0.244-17.45-7.564-38.093C345.61,58.69,322.487,35.209,320.921,48.701z"/>
		</g>
		<g>
			<g>
				<path d="M411.415,162.068c0,0-3.41-1.202-9.778-3.446c-3.328-3.436-8.097-8.359-13.84-14.288
					c1.229-3.86,2.619-8.225,4.125-12.957c0.765-2.445,1.559-4.985,2.378-7.602c1.023-3.326,2.076-6.75,3.152-10.249
					c-4.99,1.962-10.757,4.231-16.669,6.556c-23.645,9.382-23.181,11.682,0.852,2.146c2.576-1.027,5.12-2.042,7.564-3.016
					c2.217-0.889,5.706-2.288,4.836-1.962c-1.377,4.773-2.695,9.343-3.919,13.584c-1.443,5.082-2.775,9.77-3.952,13.917
					c3.18,3.027,6.091,5.798,8.668,8.251c2.514,2.369,4.702,4.43,6.501,6.124C407.899,161.042,411.415,162.068,411.415,162.068z"/>
			</g>
			<g>
				<path d="M429.511,165.685c0,0-2.138-1.708-5.991-4.786c-3.798-3-9.286-7.336-16.049-12.68c0.984-5.288,2.1-11.289,3.31-17.787
					c-2.226-4.292-4.586-8.842-7.049-13.592c-2.61-4.971-5.33-10.151-8.13-15.483c-2.061,1.123-4.524,2.465-7.01,3.821
					c-24.622,13.455-23.919,15.701,1.107,2.026c1.762-0.966,3.507-1.923,4.967-2.725c2.476,4.6,4.881,9.07,7.189,13.358
					c2.454,4.509,4.805,8.827,7.022,12.901c-1.023,6.588-1.968,12.672-2.8,18.033c7.247,5.248,13.128,9.507,17.197,12.454
					C427.286,164.094,429.511,165.685,429.511,165.685z"/>
			</g>
			<g>
				<g>
					<path d="M434.597,126.137c0,0-2.066-0.836-5.877-2.378c-3.766-1.496-9.256-3.677-16.153-6.417
						c-1.601-3.66-3.469-7.931-5.533-12.649c-2.216-4.963-4.643-10.397-7.203-16.131c-5.871-0.52-12.56-1.111-19.464-1.722
						c-2.343-0.18-4.487-0.344-6.418-0.492c-9.721,15.73-7.445,15.172,1.144,2.318l0.026,0.013c0.21,0.021,0.422,0.042,0.638,0.063
						c0.455,0.043,0.922,0.087,1.401,0.133c0.958,0.084,1.964,0.173,3.015,0.266c3.344,0.274,6.635,0.544,9.802,0.803
						c2.95,0.227,5.783,0.445,8.432,0.649c2.504,5.271,4.877,10.266,7.045,14.829c2.32,4.807,4.42,9.159,6.22,12.889
						c7.223,2.481,12.972,4.456,16.916,5.81C432.484,125.428,434.597,126.137,434.597,126.137z"/>
				</g>
				<g>
					<path d="M295.677,126.137c0,0,2.113-0.709,6.01-2.017c3.944-1.355,9.693-3.329,16.916-5.81c1.8-3.73,3.9-8.081,6.22-12.889
						c2.168-4.563,4.541-9.558,7.045-14.829c2.649-0.204,5.482-0.422,8.432-0.649c3.167-0.259,6.458-0.529,9.802-0.803
						c1.049-0.093,2.054-0.182,3.012-0.266c0.479-0.046,0.946-0.09,1.402-0.133c0.216-0.021,0.429-0.043,0.64-0.064l0.027-0.013
						c8.47,12.66,10.993,13.605,1.144-2.317c-1.927,0.148-4.072,0.313-6.419,0.493c-6.904,0.611-13.594,1.203-19.464,1.722
						c-2.56,5.733-4.987,11.167-7.204,16.131c-2.064,4.718-3.932,8.989-5.533,12.649c-6.897,2.74-12.387,4.921-16.153,6.417
						C297.743,125.301,295.677,126.137,295.677,126.137z"/>
				</g>
			</g>
		</g>
		<g>
			<g>
				<path d="M317.051,162.068c0,0,3.516-1.026,10.084-2.943c1.798-1.694,3.986-3.756,6.501-6.124
					c2.577-2.452,5.487-5.223,8.668-8.251c-1.178-4.146-2.509-8.835-3.952-13.917c-1.224-4.241-2.542-8.81-3.919-13.584
					c-0.869-0.326,2.62,1.072,4.836,1.962c2.444,0.975,4.988,1.989,7.564,3.016c23.645,9.382,24.884,7.39,0.852-2.146
					c-5.913-2.326-11.68-4.594-16.669-6.556c1.076,3.499,2.129,6.923,3.152,10.249c0.819,2.617,1.613,5.157,2.378,7.602
					c1.506,4.731,2.896,9.096,4.125,12.957c-5.743,5.929-10.512,10.853-13.84,14.288
					C320.46,160.866,317.051,162.068,317.051,162.068z"/>
			</g>
			<g>
				<path d="M298.954,165.685c0,0,2.226-1.591,6.238-4.459c4.069-2.947,9.949-7.205,17.196-12.454
					c-0.832-5.361-1.777-11.445-2.8-18.033c2.218-4.074,4.568-8.393,7.022-12.901c2.308-4.288,4.714-8.758,7.189-13.358
					c1.461,0.801,3.205,1.758,4.967,2.725c24.623,13.455,26.133,11.649,1.107-2.026c-2.487-1.355-4.949-2.697-7.01-3.821
					c-2.8,5.332-5.52,10.513-8.13,15.483c-2.464,4.75-4.823,9.299-7.049,13.592c1.209,6.498,2.326,12.499,3.31,17.787
					c-6.764,5.344-12.252,9.679-16.05,12.68C301.092,163.977,298.954,165.685,298.954,165.685z"/>
			</g>
		</g>
	</g>
</g>
<g id="DESIGNED_BY_FREEPIK">
	<g>
		<g id="XMLID_319_">
			<g id="XMLID_338_">
				<path id="XMLID_346_" style="fill:#112129;" d="M260.104,465.465c-0.432,0.443-0.803,0.931-1.108,1.453l-0.465-0.241
					c-0.067-0.298-0.349-0.503-0.659-0.466c-0.331,0.039-0.568,0.339-0.529,0.67s0.339,0.568,0.67,0.529
					c0.065-0.008,0.127-0.026,0.184-0.052l0.451,0.234c-0.251,0.554-0.433,1.139-0.539,1.744l0.746,0.132
					c0.23-1.306,0.85-2.507,1.792-3.473L260.104,465.465z"/>
				<path id="XMLID_345_" style="fill:#112129;" d="M265.592,463.163c-0.171,0-0.341,0.006-0.51,0.017l-0.074-0.626
					c0.188-0.149,0.296-0.389,0.266-0.645c-0.046-0.393-0.402-0.674-0.795-0.628s-0.674,0.402-0.628,0.795
					c0.03,0.254,0.189,0.461,0.405,0.564l0.073,0.624c-0.714,0.116-1.403,0.332-2.06,0.646l0.327,0.684
					c0.934-0.447,1.942-0.673,2.995-0.673c0.496,0,0.993,0.053,1.475,0.158l0.161-0.741
					C266.693,463.222,266.142,463.163,265.592,463.163z"/>
				<path id="XMLID_344_" style="fill:#112129;" d="M272.194,465.711c0.331-0.04,0.566-0.341,0.525-0.672
					c-0.04-0.331-0.341-0.566-0.672-0.526c-0.309,0.038-0.535,0.304-0.53,0.609l-0.416,0.363c-0.418-0.43-0.89-0.813-1.408-1.139
					l-0.404,0.641c1.134,0.715,2.021,1.726,2.563,2.925l0.69-0.313c-0.251-0.554-0.568-1.072-0.942-1.545l0.402-0.351
					C272.065,465.716,272.129,465.719,272.194,465.711z"/>
				<path id="XMLID_343_" style="fill:#112129;" d="M265.044,473.372c-0.386,0.023-0.775,0.035-1.157,0.035
					c-0.88,0-1.733-0.061-2.478-0.179c-0.39-0.062-0.846-0.155-1.27-0.292c1.046,1.861,3.069,3.125,5.388,3.125
					c2.855,0,5.262-1.916,5.95-4.504c-0.682,0.449-1.505,0.825-2.459,1.123C267.839,473.047,266.464,473.286,265.044,473.372z"/>
				<path id="XMLID_339_" style="fill:#112129;" d="M265.592,464.68c-3.352,0-6.08,2.666-6.08,5.943
					c0,0.426,0.046,0.849,0.137,1.261c0.674,0.483,2.706,0.89,5.348,0.731c2.879-0.173,5.297-0.957,6.672-2.159
					c-0.005-0.195-0.021-0.39-0.045-0.582C271.244,466.913,268.65,464.68,265.592,464.68z M263.432,471.194
					c-1.02,0-1.85-0.83-1.85-1.85c0-1.02,0.83-1.85,1.85-1.85c1.02,0,1.85,0.83,1.85,1.85
					C265.282,470.365,264.452,471.194,263.432,471.194z M268.17,470.286c-0.75,0-1.36-0.61-1.36-1.36s0.61-1.361,1.36-1.361
					c0.75,0,1.361,0.61,1.361,1.361S268.92,470.286,268.17,470.286z"/>
			</g>
			<path id="XMLID_336_" style="fill:#112129;" d="M281.595,466.547c-0.295-0.116-0.806-0.309-1.382-0.237
				c-0.551,0.069-0.844,0.341-0.844,1.007v0.866h2.228v1.717h-2.228v5.455h-1.932v-5.455h-1.34v-1.717h1.34v-0.888
				c0-1.68,0.895-2.783,2.568-2.783c0.642,0,1.157,0.122,1.59,0.308L281.595,466.547z"/>
			<path id="XMLID_334_" style="fill:#112129;" d="M286.298,469.879c-0.177-0.03-0.358-0.046-0.526-0.046
				c-0.896,0-1.51,0.548-1.51,1.614v3.908h-1.932v-7.172h1.873v0.785c0.451-0.673,1.14-0.977,2.021-0.977
				c0.414,0,0.848,0.128,1.094,0.337L286.298,469.879z"/>
			<path id="XMLID_331_" style="fill:#112129;" d="M293.965,471.757c0,0.222-0.015,0.489-0.037,0.651h-5.085
				c0.207,1.036,0.933,1.488,1.843,1.488c0.622,0,1.295-0.252,1.813-0.688l1.133,1.243c-0.814,0.748-1.85,1.088-3.057,1.088
				c-2.198,0-3.723-1.495-3.723-3.753c0-2.258,1.48-3.797,3.626-3.797C292.544,467.99,293.958,469.522,293.965,471.757z
				 M288.851,471.091h3.175c-0.178-0.918-0.733-1.436-1.562-1.436C289.554,469.655,289.021,470.203,288.851,471.091z"/>
			<path id="XMLID_328_" style="fill:#112129;" d="M301.618,471.757c0,0.222-0.015,0.489-0.037,0.651h-5.085
				c0.207,1.036,0.932,1.488,1.843,1.488c0.622,0,1.295-0.252,1.813-0.688l1.132,1.243c-0.814,0.748-1.85,1.088-3.057,1.088
				c-2.198,0-3.723-1.495-3.723-3.753c0-2.258,1.48-3.797,3.627-3.797C300.197,467.99,301.611,469.522,301.618,471.757z
				 M296.504,471.091h3.175c-0.178-0.918-0.733-1.436-1.562-1.436C297.207,469.655,296.674,470.203,296.504,471.091z"/>
			<path id="XMLID_325_" style="fill:#112129;" d="M309.964,471.764c0,2.154-1.495,3.775-3.471,3.775
				c-0.962,0-1.643-0.378-2.109-0.933v3.708h-1.924v-10.133h1.887v0.792c0.466-0.585,1.155-0.984,2.139-0.984
				C308.469,467.99,309.964,469.61,309.964,471.764z M304.287,471.764c0,1.132,0.747,1.976,1.843,1.976
				c1.14,0,1.85-0.881,1.85-1.976c0-1.095-0.711-1.976-1.85-1.976C305.035,469.788,304.287,470.632,304.287,471.764z"/>
			<path id="XMLID_322_" style="fill:#112129;" d="M313.068,465.836c0,0.696-0.54,1.229-1.236,1.229
				c-0.696,0-1.229-0.533-1.229-1.229c0-0.696,0.533-1.243,1.229-1.243C312.527,464.592,313.068,465.14,313.068,465.836z
				 M312.809,475.354h-1.932v-7.172h1.932V475.354z"/>
			<path id="XMLID_320_" style="fill:#112129;" d="M316.032,470.736l2.702-2.554h2.368l-3.479,3.375l3.501,3.797h-2.376
				l-2.716-2.901v2.901H314.1v-10.658h1.932V470.736z"/>
		</g>
		<g>
			<path style="fill:#112129;" d="M184.412,475.289v-1.055c-0.527,0.718-1.391,1.23-2.387,1.23c-1.846,0-3.149-1.406-3.149-3.706
				c0-2.256,1.289-3.721,3.149-3.721c0.952,0,1.816,0.469,2.387,1.245v-3.765h1.099v9.77H184.412z M184.412,473.37v-3.208
				c-0.395-0.615-1.245-1.143-2.124-1.143c-1.421,0-2.27,1.172-2.27,2.739c0,1.567,0.85,2.724,2.27,2.724
				C183.168,474.483,184.017,473.986,184.412,473.37z"/>
			<path style="fill:#112129;" d="M186.932,471.744c0-2.051,1.465-3.706,3.486-3.706c2.139,0,3.398,1.67,3.398,3.794v0.279h-5.727
				c0.088,1.333,1.025,2.446,2.549,2.446c0.806,0,1.626-0.322,2.182-0.894l0.527,0.718c-0.703,0.703-1.655,1.084-2.812,1.084
				C188.441,475.465,186.932,473.956,186.932,471.744z M190.404,468.947c-1.509,0-2.256,1.274-2.314,2.358h4.643
				C192.718,470.25,192.015,468.947,190.404,468.947z"/>
			<path style="fill:#112129;" d="M194.607,474.351l0.571-0.791c0.469,0.542,1.362,1.011,2.329,1.011c1.084,0,1.67-0.513,1.67-1.216
				c0-1.714-4.38-0.659-4.38-3.281c0-1.098,0.952-2.036,2.636-2.036c1.201,0,2.051,0.454,2.622,1.026l-0.513,0.762
				c-0.424-0.513-1.201-0.894-2.109-0.894c-0.967,0-1.567,0.483-1.567,1.113c0,1.552,4.38,0.527,4.38,3.281
				c0,1.187-0.952,2.138-2.783,2.138C196.306,475.465,195.325,475.113,194.607,474.351z"/>
			<path style="fill:#112129;" d="M201.477,466.471c0-0.41,0.337-0.747,0.732-0.747c0.41,0,0.747,0.337,0.747,0.747
				c0,0.41-0.337,0.732-0.747,0.732C201.814,467.203,201.477,466.881,201.477,466.471z M201.667,475.289v-7.075h1.099v7.075H201.667
				z"/>
			<path style="fill:#112129;" d="M204.582,477.105l0.556-0.82c0.586,0.703,1.289,0.967,2.3,0.967c1.172,0,2.27-0.571,2.27-2.124
				v-1.011c-0.513,0.718-1.377,1.26-2.373,1.26c-1.845,0-3.149-1.377-3.149-3.662c0-2.27,1.289-3.677,3.149-3.677
				c0.952,0,1.802,0.469,2.373,1.245v-1.069h1.099v6.87c0,2.344-1.641,3.076-3.369,3.076
				C206.237,478.16,205.417,477.926,204.582,477.105z M209.709,473.253v-3.091c-0.381-0.615-1.23-1.143-2.109-1.143
				c-1.421,0-2.27,1.128-2.27,2.695c0,1.553,0.849,2.695,2.27,2.695C208.478,474.41,209.328,473.868,209.709,473.253z"/>
			<path style="fill:#112129;" d="M217.413,475.289v-4.629c0-1.245-0.63-1.641-1.582-1.641c-0.865,0-1.685,0.527-2.095,1.099v5.17
				h-1.099v-7.075h1.099v1.025c0.498-0.586,1.464-1.201,2.519-1.201c1.48,0,2.256,0.747,2.256,2.285v4.966H217.413z"/>
			<path style="fill:#112129;" d="M219.932,471.744c0-2.051,1.465-3.706,3.486-3.706c2.139,0,3.398,1.67,3.398,3.794v0.279h-5.727
				c0.088,1.333,1.025,2.446,2.549,2.446c0.806,0,1.626-0.322,2.183-0.894l0.527,0.718c-0.703,0.703-1.655,1.084-2.812,1.084
				C221.441,475.465,219.932,473.956,219.932,471.744z M223.404,468.947c-1.509,0-2.256,1.274-2.314,2.358h4.643
				C225.718,470.25,225.015,468.947,223.404,468.947z"/>
			<path style="fill:#112129;" d="M233.35,475.289v-1.055c-0.527,0.718-1.392,1.23-2.388,1.23c-1.846,0-3.149-1.406-3.149-3.706
				c0-2.256,1.289-3.721,3.149-3.721c0.952,0,1.817,0.469,2.388,1.245v-3.765h1.098v9.77H233.35z M233.35,473.37v-3.208
				c-0.396-0.615-1.245-1.143-2.124-1.143c-1.421,0-2.27,1.172-2.27,2.739c0,1.567,0.849,2.724,2.27,2.724
				C232.105,474.483,232.954,473.986,233.35,473.37z"/>
			<path style="fill:#112129;" d="M239.692,475.289v-9.77h1.098v3.765c0.572-0.776,1.421-1.245,2.388-1.245
				c1.845,0,3.149,1.465,3.149,3.721c0,2.299-1.304,3.706-3.149,3.706c-0.996,0-1.86-0.513-2.388-1.23v1.055H239.692z
				 M242.9,474.483c1.436,0,2.286-1.157,2.286-2.724c0-1.568-0.85-2.739-2.286-2.739c-0.864,0-1.728,0.527-2.109,1.143v3.208
				C241.171,473.986,242.036,474.483,242.9,474.483z"/>
			<path style="fill:#112129;" d="M247.529,477.061c0.161,0.073,0.425,0.117,0.601,0.117c0.483,0,0.805-0.161,1.055-0.747
				l0.469-1.069l-2.959-7.148h1.187l2.358,5.8l2.344-5.8h1.201l-3.545,8.51c-0.425,1.025-1.143,1.421-2.08,1.435
				c-0.234,0-0.601-0.044-0.805-0.103L247.529,477.061z"/>
		</g>
	</g>
</g>
</svg>
