<?xml version="1.0" encoding="utf-8"?>
<!-- Generator: Adobe Illustrator 27.5.0, SVG Export Plug-In . SVG Version: 6.00 Build 0)  -->
<svg version="1.1" xmlns="http://www.w3.org/2000/svg" xmlns:xlink="http://www.w3.org/1999/xlink" x="0px" y="0px"
	 viewBox="0 0 500 500" style="enable-background:new 0 0 500 500;" xml:space="preserve">
<g id="BACKGROUND">
</g>
<g id="OBJECTS">
	<g>
		<path style="fill:#222221;" d="M105.993,66.975c-0.023-0.015-0.046-0.029-0.069-0.044
			C105.927,66.969,105.959,66.978,105.993,66.975z"/>
		<path style="fill:#222221;" d="M105.166,66.333c-0.032-0.015-0.064-0.031-0.096-0.046
			C105.077,66.343,105.121,66.35,105.166,66.333z"/>
		<path style="fill:#222221;" d="M90.49,55.248c-0.03-0.008-0.061-0.016-0.091-0.024C90.426,55.258,90.459,55.261,90.49,55.248z"/>
		<path style="fill:#222221;" d="M127.725,66.96c-0.023,0.015-0.046,0.029-0.069,0.044C127.69,67.007,127.722,66.997,127.725,66.96z
			"/>
		<path style="fill:#222221;" d="M128.579,66.315c-0.032,0.015-0.064,0.031-0.096,0.046
			C128.528,66.379,128.572,66.371,128.579,66.315z"/>
		<path style="fill:#222221;" d="M143.25,55.252c-0.03,0.008-0.061,0.016-0.091,0.024C143.19,55.29,143.223,55.287,143.25,55.252z"
			/>
		<path style="fill:#222221;" d="M186.548,108.017c-0.706-0.462-4.236,0.674-5.138,0.774c-3.627,0.402-7.285,0.392-10.93,0.38
			c-1.326-0.004-2.682-0.013-3.934-0.449c-0.874-0.304-1.689-0.813-2.607-0.933c-0.012-0.002-0.025-0.001-0.037-0.002
			c-0.305-0.469-0.773-0.9-1.221-1.221c-4.053-2.91-8.252-5.616-12.575-8.107c-1.824-1.05-3.71-2.077-5.778-2.467
			c-0.768-0.145-2.873-0.095-4.032,0.414c-0.025-0.015-0.046-0.034-0.072-0.048c-0.534-0.268-1.178-0.141-1.741,0.057
			c-1.035,0.364-1.968,1.143-2.761,1.934c-0.557-0.623-1.091-1.262-1.537-1.967c-1.32-2.091-1.921-4.799-3.598-6.484
			c0.396-0.435,0.732-0.889,0.917-1.146c1.148-1.598,2.126-3.383,3.84-4.459c0.21-0.132,0.449-0.279,0.5-0.522
			c0.043-0.205-0.066-0.408-0.171-0.589c-0.029-0.051-0.061-0.102-0.092-0.153c0.957-0.374,1.953-0.947,2.364-1.392
			c1.875-2.031,3.156-4.152,5.486-5.839c0.529-0.383,1.083-0.753,1.479-1.272c0.347-0.456,0.553-1.061,0.428-1.609
			c0.251-0.157,0.488-0.337,0.696-0.524c2.394-2.149,3.984-4.968,5.382-7.824c0.714-1.459,1.363-2.949,2.068-4.413
			c0.446-0.926,2.333-3.323,2.283-4.259c-0.116-2.188-1.421-0.376-1.957,0.623c-0.792,1.477-1.449,3.007-2.308,4.453
			c-1.822,3.069-4.078,5.919-6.944,8.078c-0.674,0.508-1.398,0.997-1.831,1.721c-0.229,0.384-0.342,0.858-0.306,1.301
			c-0.341,0.184-0.656,0.425-0.942,0.687c-0.497,0.455-0.93,0.975-1.362,1.493c-1.117,1.341-2.234,2.682-3.35,4.023
			c-0.972,1.167-1.944,2.335-2.836,3.564c-0.045,0.062-0.082,0.119-0.121,0.177c-0.507,0.206-0.86,0.786-1.137,1.3
			c-1.055,1.957-2.41,3.751-4.002,5.304c-0.368-0.192-0.718-0.404-0.985-0.718c-0.931-1.092-0.762-3.227-2.167-3.518
			c0.968-0.824,0.753-2.632-0.383-3.205c1.525-2.924-1.145-7.042-4.437-6.843c-0.038-0.112-0.085-0.227-0.136-0.342
			c0.516-0.28,1.053-0.521,1.609-0.708c-0.195,0.011-0.392-0.032-0.565-0.121c0.228-0.095,0.456-0.189,0.685-0.284
			c-0.172-0.005-0.344-0.011-0.516-0.016c0.312-0.215,0.624-0.43,0.936-0.646c-0.15-0.054-0.3-0.108-0.45-0.162
			c0.354-0.105,0.688-0.274,0.982-0.497c-0.16-0.076-0.347-0.094-0.519-0.049c0.306-0.115,0.603-0.254,0.888-0.415
			c-0.109-0.061-0.236-0.089-0.361-0.081c0.236-0.15,0.472-0.3,0.707-0.451c-0.135-0.005-0.269-0.01-0.404-0.015
			c0.358-0.221,0.717-0.442,1.075-0.663c-0.136-0.027-0.272-0.054-0.408-0.08c0.505-0.31,1.011-0.619,1.516-0.929
			c-0.121-0.085-0.284-0.105-0.422-0.054c0.337-0.157,0.674-0.314,1.011-0.472c-0.157-0.056-0.314-0.112-0.471-0.168
			c0.265-0.072,0.517-0.192,0.739-0.353c0.05-0.036,0.104-0.088,0.09-0.148c-0.005-0.02-0.022-0.03-0.041-0.034
			c0.337-0.215,0.674-0.431,1.011-0.646c-0.05-0.005-0.107-0.041-0.102-0.096c0.007-0.093,0.104-0.15,0.188-0.191
			c0.247-0.118,0.494-0.237,0.741-0.355c-0.067-0.026-0.136-0.108-0.093-0.179c0.072-0.12,0.242-0.12,0.382-0.124
			c0.14-0.005,0.317-0.07,0.314-0.21c-0.151-0.035-0.302-0.07-0.453-0.104c0.673-0.282,1.336-0.864,2.009-1.145
			c-0.121-0.059-0.242-0.119-0.364-0.178c0.346-0.093,0.693-0.185,1.04-0.278c-0.181-0.077-0.361-0.155-0.542-0.233
			c0.391-0.133,0.782-0.266,1.173-0.399c-0.143,0.017-0.292-0.014-0.416-0.086c0.443-0.171,0.9-0.303,1.365-0.396
			c-0.181-0.076-0.362-0.153-0.543-0.229c0.484-0.124,0.967-0.248,1.451-0.372c-0.189-0.026-0.371-0.093-0.533-0.193
			c0.475-0.037,0.945-0.145,1.389-0.319c-0.164-0.086-0.327-0.172-0.491-0.258c0.388-0.134,0.775-0.268,1.163-0.402
			c-0.095-0.097-0.231-0.153-0.367-0.148c0.357-0.15,0.714-0.3,1.072-0.45c-0.177-0.02-0.355-0.04-0.532-0.06
			c0.514-0.213,1.028-0.426,1.542-0.639c-0.141-0.042-0.283-0.083-0.424-0.125c0.424-0.166,0.849-0.332,1.274-0.497
			c-0.119-0.09-0.273-0.133-0.422-0.118c0.639-0.38,1.278-0.759,1.917-1.139c-0.216-0.035-0.431-0.069-0.647-0.104
			c0.397-0.177,0.791-0.684,1.188-0.861c0.098-0.044,0.212-0.109,0.215-0.217c0.001-0.021-0.012-0.036-0.024-0.05
			c0.371-0.054,0.742-0.107,1.113-0.161c-0.177,0.036-0.221-0.284-0.063-0.371s0.352-0.009,0.515,0.068
			c-0.142-0.093-0.283-0.186-0.425-0.279c0.524-0.169,1.047-0.338,1.571-0.507c-0.143-0.04-0.286-0.08-0.429-0.12
			c0.25-0.067,0.5-0.134,0.75-0.201c-0.077-0.032-0.144-0.172-0.074-0.253c0.099-0.114,0.273-0.106,0.422-0.136
			c0.137-0.027,0.278-0.154,0.24-0.277c4.292-3.387,8.731-6.59,13.301-9.592c-2.72,1.169-5.229,2.77-7.724,4.364
			c-1.509,0.964-3.018,1.927-4.527,2.891c-2.472,1.579-4.956,3.166-7.154,5.109c0.044-0.295,0.063-0.496,0.107-0.791
			c-0.297,0.42-0.594,0.84-0.891,1.26c0.034-0.241,0.068-0.481,0.102-0.722c-0.289,0.243-0.527,0.546-0.694,0.884
			c-0.004-0.198-0.008-0.396-0.012-0.594c-0.211,0.372-0.459,0.724-0.738,1.049c-0.03-0.164-0.06-0.328-0.089-0.491
			c-0.261,0.346-0.522,0.692-0.783,1.038c0.036-0.258,0.072-0.516,0.108-0.774c-0.181,0.479-0.414,0.938-0.693,1.367
			c0.069-0.295,0.055-0.608-0.039-0.896c-0.274,0.393-0.48,0.833-0.607,1.294c-0.036-0.195-0.072-0.389-0.107-0.584
			c-0.283,0.452-0.525,0.93-0.722,1.425c-0.027-0.227-0.055-0.454-0.082-0.682c-0.152,0.424-0.356,0.829-0.606,1.205
			c-0.008-0.309-0.016-0.618-0.025-0.926c-0.244,0.436-0.487,0.872-0.73,1.308c-0.057-0.183-0.053-0.264-0.11-0.447
			c-0.186,0.432-0.398,0.853-0.634,1.259c0.029-0.263,0.01-0.532-0.056-0.789c-0.26,0.51-0.519,1.021-0.779,1.531
			c0.018-0.287-0.04-0.578-0.165-0.836c-0.263,0.429-0.517,0.863-0.761,1.303c0.038-0.307-0.016-0.624-0.153-0.901
			c-0.194,0.55-0.389,1.099-0.583,1.649c0.016-0.275-0.036-0.554-0.148-0.805c-0.233,0.521-0.465,1.042-0.698,1.563
			c-0.032-0.3-0.04-0.509-0.073-0.808c-0.232,0.512-0.463,1.024-0.695,1.536c-0.041-0.237-0.082-0.474-0.123-0.712
			c-0.286,0.546-0.572,1.092-0.857,1.639c-0.033-0.248-0.065-0.497-0.098-0.745c-0.29,0.424-0.501,0.902-0.621,1.401
			c-0.022-0.308-0.105-0.612-0.242-0.889c-0.112,0.48-0.225,0.96-0.337,1.44c-0.112-0.186-0.183-0.396-0.207-0.611
			c-0.11,0.592-0.297,1.17-0.556,1.714c0.001-0.23-0.093-0.459-0.256-0.622c-0.188,0.446-0.377,0.892-0.565,1.338
			c-0.036-0.283-0.072-0.566-0.108-0.849c-0.186,0.449-0.373,0.897-0.559,1.346c0.029-0.183-0.088-0.378-0.262-0.44
			c-0.155,0.47-0.31,0.941-0.465,1.411c-0.108-0.161-0.168-0.353-0.17-0.547c-0.219,0.455-0.384,0.935-0.491,1.428
			c0.022-0.23-0.002-0.465-0.068-0.686c-0.184,0.338-0.369,0.675-0.553,1.013c-0.7-0.91-1.644-1.686-2.581-1.85
			c0.522,0.781,0.376,1.932-0.314,2.567l-0.027,0.004c0.005,0.005,0.01,0.005,0.015,0.008c-0.006,0.005-0.009,0.011-0.015,0.016
			l0-0.025c-0.719-0.628-0.875-1.806-0.345-2.6c-0.937,0.165-1.881,0.94-2.581,1.85c-0.184-0.338-0.369-0.675-0.553-1.013
			c-0.066,0.222-0.089,0.456-0.068,0.686c-0.107-0.493-0.272-0.973-0.49-1.428c-0.003,0.193-0.063,0.386-0.17,0.547
			c-0.155-0.47-0.31-0.941-0.465-1.411c-0.174,0.062-0.291,0.257-0.262,0.44c-0.186-0.449-0.373-0.897-0.559-1.346
			c-0.036,0.283-0.072,0.566-0.108,0.849c-0.188-0.446-0.377-0.892-0.565-1.338c-0.162,0.163-0.257,0.392-0.256,0.622
			c-0.258-0.544-0.446-1.122-0.556-1.714c-0.024,0.215-0.095,0.425-0.207,0.611c-0.112-0.48-0.225-0.96-0.337-1.44
			c-0.138,0.277-0.221,0.58-0.242,0.888c-0.119-0.5-0.331-0.977-0.621-1.401c-0.033,0.248-0.065,0.497-0.098,0.745
			c-0.286-0.546-0.572-1.092-0.857-1.638c-0.041,0.237-0.082,0.474-0.123,0.712c-0.232-0.512-0.463-1.024-0.695-1.536
			c-0.032,0.3-0.04,0.509-0.073,0.808c-0.233-0.521-0.465-1.042-0.698-1.563c-0.113,0.251-0.164,0.53-0.148,0.805
			c-0.194-0.55-0.389-1.099-0.583-1.649c-0.136,0.277-0.19,0.594-0.153,0.901c-0.244-0.44-0.497-0.875-0.761-1.303
			c-0.126,0.258-0.184,0.55-0.165,0.836c-0.26-0.51-0.519-1.021-0.779-1.531c-0.066,0.257-0.085,0.525-0.056,0.789
			c-0.237-0.406-0.448-0.827-0.634-1.259c-0.057,0.183-0.053,0.264-0.11,0.447c-0.243-0.436-0.487-0.872-0.73-1.308
			c-0.008,0.309-0.016,0.618-0.025,0.926c-0.249-0.375-0.453-0.781-0.605-1.205c-0.027,0.227-0.055,0.455-0.082,0.682
			c-0.197-0.496-0.439-0.974-0.722-1.426c-0.036,0.195-0.071,0.389-0.107,0.584c-0.127-0.462-0.333-0.902-0.607-1.294
			c-0.094,0.288-0.108,0.601-0.039,0.896c-0.279-0.429-0.512-0.888-0.693-1.367c0.036,0.258,0.072,0.516,0.108,0.774
			c-0.261-0.346-0.522-0.692-0.783-1.038c-0.03,0.164-0.06,0.327-0.089,0.491c-0.28-0.324-0.527-0.676-0.739-1.049
			c-0.004,0.198-0.008,0.396-0.012,0.594c-0.167-0.338-0.405-0.641-0.694-0.884c0.034,0.241,0.068,0.481,0.102,0.721
			c-0.297-0.42-0.594-0.84-0.891-1.259c0.044,0.295,0.063,0.496,0.107,0.791c-2.198-1.942-4.682-3.53-7.155-5.109
			c-1.509-0.964-3.018-1.927-4.527-2.891c-2.495-1.593-5.004-3.194-7.724-4.363c4.57,3.002,9.009,6.204,13.301,9.592
			c-0.038,0.123,0.103,0.25,0.241,0.277c0.148,0.029,0.322,0.022,0.421,0.135c0.071,0.081,0.004,0.221-0.074,0.253
			c0.25,0.067,0.5,0.134,0.75,0.201c-0.143,0.04-0.286,0.08-0.43,0.12c0.524,0.169,1.047,0.338,1.571,0.507
			c-0.142,0.093-0.283,0.186-0.425,0.279c0.163-0.077,0.357-0.155,0.515-0.068c0.158,0.087,0.114,0.407-0.063,0.371
			c0.371,0.054,0.742,0.107,1.113,0.161c-0.013,0.014-0.025,0.029-0.025,0.05c0.003,0.108,0.116,0.173,0.215,0.217
			c0.397,0.177,0.791,0.683,1.188,0.861c-0.216,0.035-0.431,0.069-0.647,0.104c0.639,0.38,1.278,0.759,1.917,1.139
			c-0.149-0.015-0.302,0.028-0.422,0.117c0.424,0.166,0.849,0.332,1.274,0.497c-0.141,0.042-0.283,0.083-0.424,0.125
			c0.514,0.213,1.028,0.426,1.542,0.639c-0.177,0.02-0.355,0.04-0.532,0.06c0.357,0.15,0.714,0.3,1.072,0.45
			c-0.136-0.004-0.273,0.051-0.367,0.148c0.388,0.134,0.775,0.268,1.163,0.403c-0.164,0.086-0.327,0.172-0.491,0.258
			c0.444,0.174,0.914,0.282,1.389,0.319c-0.161,0.101-0.344,0.167-0.533,0.193c0.484,0.124,0.967,0.248,1.451,0.372
			c-0.181,0.076-0.362,0.153-0.543,0.229c0.465,0.093,0.923,0.226,1.365,0.396c-0.125,0.073-0.273,0.103-0.416,0.087
			c0.391,0.133,0.782,0.266,1.173,0.399c-0.181,0.077-0.361,0.155-0.542,0.233c0.346,0.093,0.693,0.185,1.039,0.278
			c-0.121,0.059-0.243,0.119-0.364,0.178c0.673,0.282,1.336,0.864,2.009,1.145c-0.151,0.035-0.302,0.07-0.453,0.104
			c-0.003,0.14,0.174,0.206,0.314,0.21c0.14,0.005,0.31,0.004,0.382,0.124c0.043,0.072-0.026,0.154-0.093,0.179
			c0.247,0.118,0.494,0.237,0.741,0.355c0.084,0.041,0.181,0.097,0.188,0.191c0.005,0.055-0.053,0.092-0.102,0.096
			c0.337,0.216,0.674,0.431,1.011,0.647c-0.019,0.005-0.037,0.014-0.041,0.034c-0.013,0.06,0.041,0.112,0.09,0.148
			c0.222,0.161,0.474,0.281,0.739,0.353c-0.157,0.056-0.314,0.112-0.471,0.168c0.337,0.157,0.674,0.314,1.011,0.471
			c-0.138-0.051-0.301-0.031-0.422,0.054c0.505,0.31,1.011,0.619,1.516,0.929c-0.136,0.027-0.272,0.054-0.408,0.08
			c0.358,0.221,0.717,0.442,1.075,0.663c-0.135,0.005-0.269,0.01-0.404,0.015c0.236,0.15,0.471,0.3,0.707,0.451
			c-0.125-0.008-0.251,0.021-0.361,0.082c0.285,0.161,0.582,0.3,0.888,0.415c-0.171-0.045-0.359-0.027-0.519,0.049
			c0.294,0.223,0.628,0.392,0.982,0.497c-0.15,0.054-0.3,0.108-0.45,0.162c0.312,0.215,0.624,0.43,0.936,0.646
			c-0.172,0.005-0.344,0.011-0.516,0.016c0.228,0.095,0.457,0.189,0.685,0.284c-0.174,0.089-0.371,0.131-0.565,0.121
			c0.556,0.187,1.093,0.427,1.609,0.708c-0.05,0.116-0.097,0.23-0.136,0.342c-3.292-0.199-5.962,3.918-4.437,6.843
			c-1.135,0.573-1.351,2.381-0.383,3.206c-1.405,0.291-1.236,2.426-2.167,3.518c-0.267,0.313-0.617,0.526-0.985,0.718
			c-1.592-1.552-2.947-3.347-4.002-5.304c-0.277-0.514-0.63-1.094-1.137-1.3c-0.039-0.058-0.076-0.114-0.121-0.176
			c-0.891-1.229-1.864-2.398-2.836-3.565c-1.117-1.341-2.234-2.682-3.35-4.023c-0.431-0.518-0.865-1.038-1.362-1.493
			c-0.286-0.262-0.602-0.503-0.942-0.687c0.036-0.443-0.077-0.917-0.306-1.301c-0.432-0.724-1.157-1.214-1.83-1.721
			c-2.865-2.159-5.121-5.009-6.944-8.078c-0.858-1.446-1.516-2.976-2.308-4.452c-0.536-0.999-1.841-2.811-1.957-0.624
			c-0.049,0.936,1.838,3.333,2.283,4.259c0.704,1.464,1.353,2.954,2.068,4.413c1.399,2.856,2.989,5.675,5.382,7.824
			c0.208,0.187,0.445,0.367,0.696,0.524c-0.125,0.549,0.081,1.154,0.428,1.609c0.396,0.519,0.95,0.889,1.479,1.272
			c2.329,1.687,3.611,3.808,5.486,5.839c0.411,0.445,1.407,1.018,2.364,1.392c-0.031,0.051-0.063,0.103-0.092,0.153
			c-0.105,0.181-0.214,0.384-0.171,0.589c0.051,0.243,0.29,0.39,0.5,0.521c1.714,1.076,2.692,2.861,3.84,4.459
			c0.184,0.257,0.521,0.71,0.917,1.145c-1.676,1.685-2.278,4.393-3.598,6.484c-0.445,0.706-0.98,1.345-1.537,1.967
			c-0.792-0.792-1.726-1.571-2.761-1.934c-0.563-0.198-1.208-0.326-1.741-0.058c-0.026,0.013-0.047,0.033-0.072,0.048
			c-1.16-0.509-3.264-0.559-4.032-0.414c-2.068,0.39-3.954,1.417-5.778,2.467c-4.324,2.49-8.522,5.197-12.575,8.106
			c-0.447,0.321-0.916,0.752-1.221,1.221c-0.012,0.001-0.025,0-0.037,0.002c-0.918,0.121-1.733,0.629-2.607,0.933
			c-1.253,0.436-2.608,0.445-3.935,0.449c-3.645,0.011-7.302,0.022-10.93-0.38c-0.902-0.1-4.432-1.236-5.138-0.773
			c-1.23,0.806,0.054,1.907,1.022,2.159c4.942,1.284,10.123,1.249,15.226,1.063c2.414-0.088,4.965-0.259,7.094-1.298
			c0.706,0.133,1.611-0.177,2.289-0.561c4.628-2.621,8.715-6.125,13.469-8.532c1.145-0.58,2.321-1.102,3.539-1.508
			c0.696-0.232,2.165-0.315,3.089-0.621c0.291,0.655,0.833,1.18,1.377,1.657c0.379,0.332,0.781,0.652,1.223,0.886
			c-1.912,2.543-3.348,5.429-4.849,8.245c-6.294,11.803-14.061,22.748-21.062,34.146c-7.001,11.398-13.307,23.438-16.273,36.482
			c5.233,4.055,12.016,5.352,18.621,5.803c3.2,0.218,6.485,0.323,9.541-0.651c6.314-2.012,10.281-8.054,15.2-12.495
			c4.41-3.982,9.886-6.89,13.364-11.707c-0.096,1.475-0.593,2.751-0.689,4.226c-0.063,0.973-0.126,1.955,0.009,2.921
			c0.418,2.987,2.644,5.417,3.452,8.323c0.392,1.408,0.462,2.952,1.269,4.171c0.365,0.55,0.881,0.984,1.466,1.288
			c0,0,0.954,0.52,1.43,0.444c0.422,0.049,1.261-0.415,1.261-0.415c0.585-0.304,1.101-0.738,1.465-1.288
			c0.807-1.219,0.877-2.763,1.269-4.171c0.809-2.906,3.035-5.336,3.452-8.323c0.135-0.966,0.072-1.947,0.009-2.921
			c-0.096-1.475-0.593-2.751-0.689-4.226c3.479,4.817,8.954,7.725,13.364,11.707c4.919,4.441,8.886,10.483,15.2,12.495
			c3.056,0.974,6.341,0.869,9.541,0.65c6.605-0.451,13.388-1.748,18.621-5.803c-2.965-13.044-9.272-25.084-16.273-36.482
			c-7.001-11.398-14.767-22.343-21.062-34.146c-1.502-2.816-2.938-5.702-4.849-8.245c0.442-0.234,0.844-0.554,1.223-0.886
			c0.545-0.476,1.086-1.002,1.377-1.657c0.925,0.306,2.394,0.39,3.089,0.622c1.218,0.406,2.394,0.929,3.538,1.508
			c4.754,2.408,8.841,5.911,13.469,8.532c0.678,0.384,1.583,0.694,2.289,0.561c2.128,1.039,4.68,1.21,7.094,1.298
			c5.103,0.186,10.284,0.222,15.226-1.063C186.494,109.924,187.778,108.823,186.548,108.017z"/>
	</g>
	<path style="fill:#222221;" d="M349.309,107.506c2.487,0.826,4.973,1.653,7.46,2.479c0.902,0.3,1.949,0.76,2.106,1.697
		c0.15,0.893-0.688,1.71-1.579,1.872c-0.891,0.161-1.793-0.151-2.639-0.474c-5.243-2.002-10.255-4.608-14.906-7.749
		c-1.441-0.973-2.851-2-4.378-2.831c-2.453-1.335-5.158-2.14-7.877-2.778c-5.8-1.362-11.74-2.007-17.663-2.648
		c-3.208-0.348-5.772,0.463-8.752,1.701c7.669-0.346,15.162,3.512,20.273,9.24c5.111,5.728,8.028,13.148,9.442,20.693
		c0.595,3.173,0.982,6.503,2.707,9.232c0.624,0.987,1.418,1.883,1.832,2.975c0.414,1.092,0.334,2.496-0.583,3.219
		c-0.658,0.519-1.556,0.56-2.38,0.708c-2.859,0.514-5.2,2.488-7.785,3.814c-2.813,1.444-5.945,2.126-9.035,2.794
		c-4.026,0.87-8.093,1.745-12.212,1.689c-8.982-0.121-17.416-4.818-22.26-12.384c-0.78,2.626,0.065,5.5,1.5,7.833
		c1.435,2.333,3.421,4.266,5.198,6.351c5.202,6.103,8.691,13.606,14.439,19.197c3.568,3.47,7.898,6.09,11.405,9.622
		c0.533,0.537,1.013,1.521,0.378,1.932c-0.427,0.276-0.982-0.014-1.404-0.299c-5.451-3.691-10.903-7.382-16.354-11.072
		c-1.842-1.247-3.693-2.502-5.309-4.031c-1.616-1.529-2.97-3.308-4.318-5.078c-4.157-5.463-8.314-10.927-12.472-16.39
		c-1.74-2.287-3.557-4.781-3.635-7.653c-0.049-1.774,0.582-3.492,0.791-5.254c0.292-2.462,0.185-4.981-1.111-7.094
		c-0.601,0.558-1.395,0.905-2.214,0.966c1.334,2.023,1.021,4.973-0.708,6.672c-1.868,8.143-3.029,16.447-3.467,24.79
		c-0.087,1.654-0.163,3.375-0.952,4.831c-0.427,0.788-1.044,1.459-1.497,2.233c-1.626,2.783-0.957,6.562-2.885,9.145
		c-0.324,0.434-0.785,0.849-1.326,0.817c-1.231-0.072-1.16-1.892-0.87-3.091c1.034-4.27-0.361-8.748-0.076-13.132
		c0.304-4.684,2.518-9.155,2.349-13.846c-0.127-3.537-1.607-7.096-0.726-10.524c0.71-2.765,2.919-5.266,2.46-8.083
		c-0.59-0.28-0.815-0.569-1.405-0.85c-0.472,2.41-2.915,4.266-5.364,4.074c0.316,1.4-0.657,2.962-2.053,3.294
		c1.077,1.329-0.481,3.159-1.897,4.118c-3.982,2.698-8.08,5.224-12.28,7.569c-2.525,1.41-5.179,2.834-6.862,5.185
		c-1.307,1.826-2.08,4.242-4.1,5.224c-0.473,0.23-1.029,0.394-1.307,0.841c-0.259,0.416-0.192,0.947-0.13,1.433
		c0.222,1.732,0.278,3.484,0.166,5.227c-0.04,0.618-0.117,1.277-0.515,1.752c-0.398,0.475-1.23,0.629-1.619,0.147
		c-0.141-0.174-0.202-0.398-0.259-0.614c-0.581-2.197-1.161-4.395-1.741-6.592c-0.486-1.84-0.97-3.803-0.383-5.614
		c0.588-1.811,2.159-3.16,2.813-4.948c0.312-0.853,0.408-1.791,0.861-2.579c0.417-0.726,1.1-1.257,1.773-1.755
		c8.786-6.504,19.323-11.153,25.796-19.962c-0.315-0.522-0.281-0.821-0.597-1.343c-0.104,1.388-2.074,1.431-3.458,1.585
		c-2.637,0.295-4.626,2.437-6.95,3.718c-3.246,1.789-7.127,1.871-10.833,1.909c-2.803,0.029-5.618,0.057-8.395-0.326
		c-1.643-0.227-3.27-0.597-4.927-0.667c-2.273-0.095-4.527,0.379-6.753,0.85c-1.494,0.316-2.988,0.633-4.481,0.949
		c-0.505,0.107-1.021,0.218-1.46,0.491c-1.362,0.846-2.137,3.185-3.663,2.692c-1.277-0.413-1.049-2.291-0.474-3.504
		c1.252-2.64,2.956-5.123,5.284-6.889c2.328-1.766,5.334-2.756,8.217-2.275c0.467,0.078,0.94,0.193,1.407,0.12
		c0.372-0.058,0.713-0.233,1.066-0.362c1.44-0.529,3.031-0.31,4.555-0.138c8.503,0.958,17.193,0.216,25.41-2.171
		c-0.055-1.146-1.348-1.985-2.421-2.391s-2.244-0.455-3.36-0.718c-1.992-0.469-3.764-1.608-5.344-2.909
		c-1.549-1.276-3.027-2.864-3.341-4.847c-0.314-1.983,1.06-4.315,3.068-4.321c-1.202-2.293-0.649-5.368,1.275-7.1
		c0.89-0.801,2.08-1.405,2.474-2.535c0.212-0.609,0.151-1.274,0.169-1.919c0.096-3.321,2.665-6.411,5.912-7.113
		c0.409-0.088,0.856-0.159,1.143-0.464c0.296-0.314,0.331-0.783,0.423-1.204c0.241-1.102,1-2.08,2.008-2.587
		c-2.559-3.195-4.923-6.59-6.941-10.152c-1.518,1.834-4.248,2.181-6.576,1.688c-2.329-0.493-4.456-1.66-6.725-2.379
		c-2.194-0.694-4.522-0.963-6.816-0.786c-0.707,0.054-1.445,0.146-2.104-0.115c-0.659-0.261-1.182-1.027-0.902-1.679
		c0.264-0.614,1.03-0.785,1.673-0.968c1.694-0.484,3.15-1.561,4.772-2.249c5.391-2.288,11.48-0.015,17.189,1.291
		c1.043,0.239,2.119,0.454,3.027,1.02c2.216,1.38,4.362,1.729,6.07,3.703c3.353,3.876,6.018,8.346,7.832,13.139
		c0.044,0.116,0.104,0.247,0.224,0.276c0.12,0.029,0.238-0.166,0.125-0.217c1.207,1.165,2.218,1.515,3.869,1.816
		c1.113,0.203,2.501,0.353,2.908,1.408c-0.701-2.424-0.743-5.41-0.559-7.926c0.115-1.569,0.396-3.19-0.103-4.682
		c-0.396-1.182-1.274-2.262-1.185-3.505c0.065-0.906,0.65-1.806,0.356-2.666c-0.198-0.58-0.745-0.958-1.118-1.445
		c-0.42-0.548-0.615-1.231-0.802-1.895c-0.386-1.376-0.774-2.831-0.41-4.213c0.363-1.382,1.778-2.595,3.152-2.203
		c0.686,0.196,1.212,0.733,1.705,1.249c2.464,2.58,4.992,5.259,6.234,8.604c1.021,2.747,1.096,5.741,1.159,8.67
		c0.108,4.983,0.182,10.149-1.809,14.719c-0.085,0.195-0.197,0.41-0.402,0.47c-0.205,0.06-0.458-0.192-0.321-0.355
		c0.796,2.277,1.872,4.213,3.544,5.951c0.724-1.745,1.217-3.586,1.462-5.459c0.199-1.521,0.242-3.093,0.825-4.513
		c2.05-4.99,9.38-5.613,12.19-10.218c1.224-2.006,1.686-4.829,3.878-5.677c1.38-0.534,3.11,0.104,3.813,1.407
		c1.225,2.27-0.686,4.904-2.444,6.792c-2.237,2.402-4.429,4.846-6.577,7.328c-1.065,1.232-2.141,2.51-2.691,4.043
		c-0.676,1.885-0.489,3.956-0.293,5.95c0.029,0.292,0.063,0.661-0.194,0.804c-0.256,0.142-0.422-0.476-0.153-0.36
		c1.596-0.424,2.721-0.497,4.317-0.921c0.724-0.193,1.461-0.39,2.097-0.788c0.699-0.437,1.232-1.088,1.771-1.713
		c2.168-2.515,4.823-4.881,8.092-5.466c1.884-0.337,3.817-0.051,5.71,0.234c3.022,0.456,6.043,0.913,9.064,1.369
		c4.788,0.723,9.52,1.045,14.334,1.557c0.825,0.088,1.664,0.179,2.429,0.499c0.948,0.397,1.718,1.117,2.466,1.822
		c2.215,2.089,4.431,4.178,6.646,6.267C343.789,103.726,346.371,106.53,349.309,107.506z"/>
	<path style="fill:#222221;" d="M445.512,386.732c-0.171-0.388-0.344-0.78-0.588-1.127c-0.2-0.284-0.446-0.534-0.725-0.74
		c-0.13-0.095-0.278-0.196-0.314-0.353c-0.021-0.092,0.001-0.19-0.028-0.28c-0.049-0.156-0.23-0.23-0.394-0.243
		c-0.315-0.025-0.622,0.098-0.936,0.137c-0.314,0.039-0.691-0.047-0.817-0.337c-0.44,0.078-0.962,0.105-1.26-0.227
		c-0.272-0.303-0.261-0.814-0.594-1.049c-0.046-0.032-0.096-0.056-0.15-0.073c-0.423-5.249-2.146-10.375-5.615-14.276
		c-0.558-0.628-1.166-1.005-1.867-1.466c-0.029-0.236-0.103-0.465-0.214-0.675c0.584-0.267,1.052-0.861,1.378-1.446
		c0.532-0.956,0.909-1.999,1.109-3.075c0.14-0.753,0.198-1.53,0.479-2.242c0.234-0.591,0.615-1.116,0.842-1.71
		c0.228-0.594,0.275-1.321-0.125-1.816c1.14-0.374,2.279-0.749,3.419-1.123c0.184-0.061,0.397-0.151,0.437-0.341
		c0.02-0.097-0.012-0.196-0.02-0.295c-0.029-0.34,0.219-0.634,0.457-0.879c0.238-0.244,0.498-0.52,0.504-0.861
		c0.006-0.341-0.438-0.659-0.68-0.419c0.025,0.226,0.096,0.382,0.02,0.596c-0.142,0.397-0.502,0.667-0.844,0.913
		c-0.036-0.248-0.413-0.283-0.606-0.121c-0.192,0.161-0.27,0.418-0.411,0.625c-0.141,0.207-0.429,0.371-0.636,0.23
		c-0.083-0.057-0.141-0.157-0.239-0.18c-0.134-0.032-0.248,0.093-0.336,0.199c-0.362,0.44-0.848,0.777-1.387,0.963
		c-0.032,0.011-0.074,0.019-0.095-0.008c-0.02-0.027,0.03,0.066,0.032,0.1c-0.16-0.24-0.46-0.51-0.69-0.337
		c-0.072,0.054-0.112,0.141-0.148,0.224c-1.032,2.382-1.596,4.966-1.649,7.562c-0.017,0.835-0.062,1.825-0.769,2.269
		c-0.2,0.125-0.432,0.189-0.644,0.293c-0.052,0.025-0.103,0.055-0.151,0.087c-0.031-0.018-0.061-0.039-0.093-0.056
		c-0.572-0.295-1.305-0.311-1.871-0.004c0.064-0.887-0.328-1.758-0.889-2.447c-0.562-0.689-1.286-1.224-2.002-1.751
		c-0.928-0.684-1.857-1.368-2.785-2.051c-0.176-0.13-0.375-0.266-0.592-0.244c-0.292,0.029-0.472,0.318-0.655,0.547
		c-0.183,0.229-0.516,0.432-0.749,0.255c-0.098-0.074-0.145-0.196-0.203-0.304c-0.233-0.434-0.66-0.681-1.137-0.842
		c0.094-0.383-0.018-0.916,0.106-0.995c0.739-0.471,1.408-1.053,1.978-1.719c0.308-0.36,0.587-0.745,0.915-1.087
		c0.263-0.274,0.558-0.523,0.762-0.843c0.205-0.319,0.307-0.738,0.143-1.08c-0.367-0.124-0.769,0.125-0.982,0.449
		s-0.294,0.714-0.438,1.074c-0.429,1.071-1.383,1.826-2.298,2.53c-0.104,0.08-0.215,0.163-0.345,0.179
		c-0.252,0.031-0.521-0.191-0.74-0.064c-0.173,0.1-0.179,0.344-0.162,0.544c0.015,0.188,0.031,0.377,0.046,0.565
		c0.005,0.064,0.016,0.137,0.033,0.212c-1.063-0.199-2.125-0.399-3.188-0.598c-1.063,0.199-2.125,0.399-3.188,0.598
		c0.016-0.075,0.027-0.147,0.032-0.212c0.015-0.189,0.031-0.377,0.046-0.565c0.016-0.2,0.011-0.443-0.162-0.544
		c-0.219-0.127-0.489,0.095-0.74,0.064c-0.13-0.016-0.241-0.099-0.345-0.179c-0.914-0.704-1.869-1.459-2.298-2.53
		c-0.144-0.36-0.225-0.75-0.438-1.074c-0.212-0.324-0.615-0.572-0.982-0.449c-0.164,0.342-0.062,0.761,0.143,1.08
		c0.205,0.32,0.5,0.569,0.762,0.843c0.328,0.342,0.607,0.727,0.915,1.087c0.57,0.666,1.239,1.248,1.978,1.719
		c0.123,0.079,0.012,0.612,0.106,0.995c-0.477,0.161-0.905,0.409-1.137,0.842c-0.058,0.108-0.105,0.23-0.203,0.304
		c-0.234,0.177-0.567-0.026-0.749-0.255c-0.183-0.229-0.363-0.518-0.655-0.547c-0.218-0.022-0.416,0.115-0.592,0.244
		c-0.928,0.684-1.857,1.368-2.785,2.051c-0.716,0.527-1.44,1.062-2.002,1.751c-0.562,0.689-0.953,1.561-0.889,2.447
		c-0.566-0.307-1.299-0.291-1.871,0.004c-0.032,0.017-0.062,0.037-0.093,0.056c-0.049-0.033-0.1-0.062-0.151-0.087
		c-0.212-0.104-0.444-0.167-0.644-0.293c-0.707-0.444-0.751-1.434-0.769-2.269c-0.054-2.596-0.617-5.18-1.65-7.562
		c-0.036-0.083-0.075-0.169-0.147-0.224c-0.231-0.174-0.53,0.096-0.69,0.337c0.002-0.034,0.052-0.128,0.032-0.1
		c-0.02,0.027-0.063,0.02-0.095,0.008c-0.539-0.185-1.025-0.523-1.387-0.963c-0.087-0.106-0.202-0.232-0.336-0.199
		c-0.098,0.023-0.156,0.123-0.239,0.18c-0.207,0.142-0.494-0.022-0.636-0.23c-0.141-0.207-0.219-0.464-0.412-0.625
		c-0.192-0.161-0.57-0.127-0.606,0.121c-0.342-0.246-0.703-0.516-0.844-0.913c-0.077-0.214-0.005-0.37,0.02-0.596
		c-0.242-0.24-0.686,0.078-0.68,0.419c0.006,0.341,0.266,0.616,0.504,0.861c0.238,0.245,0.486,0.539,0.457,0.879
		c-0.008,0.099-0.04,0.198-0.02,0.295c0.04,0.19,0.253,0.281,0.438,0.341c1.139,0.374,2.279,0.749,3.419,1.123
		c-0.399,0.495-0.352,1.223-0.125,1.816c0.228,0.594,0.608,1.118,0.842,1.71c0.282,0.712,0.339,1.489,0.479,2.242
		c0.201,1.076,0.577,2.119,1.109,3.075c0.326,0.585,0.794,1.179,1.378,1.446c-0.111,0.21-0.185,0.439-0.214,0.675
		c-0.701,0.462-1.309,0.839-1.867,1.466c-3.469,3.901-5.192,9.027-5.615,14.276c-0.053,0.016-0.104,0.04-0.15,0.073
		c-0.333,0.234-0.322,0.746-0.594,1.049c-0.299,0.332-0.82,0.305-1.26,0.227c-0.126,0.29-0.503,0.376-0.817,0.337
		c-0.314-0.038-0.621-0.162-0.936-0.137c-0.163,0.013-0.345,0.087-0.394,0.243c-0.028,0.09-0.007,0.188-0.027,0.28
		c-0.036,0.157-0.184,0.258-0.314,0.353c-0.279,0.205-0.525,0.456-0.725,0.74c-0.244,0.347-0.417,0.738-0.588,1.127
		c-0.125,0.285-0.253,0.605-0.147,0.898c0.061-0.213,0.178-0.41,0.337-0.565c0.013,0.326,0.119,0.599,0.377,0.797
		c-0.075-0.234-0.112-0.48-0.108-0.725c0.001-0.066,0.005-0.135,0.033-0.195c0.037-0.081,0.11-0.138,0.179-0.195
		c0.51-0.417,0.917-0.96,1.174-1.567c0.07-0.034,0.149,0.035,0.175,0.109c0.026,0.073,0.024,0.156,0.063,0.223
		c0.094,0.16,0.349,0.118,0.482-0.012c0.133-0.129,0.2-0.314,0.33-0.446c0.427-0.437,1.237-0.104,1.734-0.459
		c0.172-0.123,0.287-0.317,0.472-0.42c0.185-0.103,0.409-0.097,0.615-0.147c-0.041,1.29-0.007,2.58,0.097,3.855
		c0.314,3.848,1.273,7.716,2.898,11.226c-0.261,1.276-0.156,2.629-0.331,3.932c-0.126,0.94-0.387,1.955,0.061,2.791
		c-0.466,0.28-0.932,0.56-1.399,0.84c-0.182,0.109-0.366,0.219-0.567,0.288c-0.223,0.077-0.461,0.1-0.686,0.17
		c-0.536,0.167-0.979,0.609-1.146,1.145c-0.084,0.27-0.389,0.391-0.571,0.608c-0.155,0.185-0.311,0.371-0.421,0.585
		c-0.11,0.214-0.172,0.461-0.126,0.697c-0.201,0.004-0.39,0.156-0.437,0.352c-0.047,0.195,0.053,0.417,0.231,0.511
		c-0.068-0.084-0.064-0.212-0.009-0.305c0.055-0.093,0.152-0.155,0.254-0.192c-0.021,0.174,0.135,0.33,0.305,0.372
		c0.17,0.043,0.349,0.001,0.519-0.039c-0.186,0.048-0.399-0.045-0.49-0.215c-0.09-0.17-0.049-0.399,0.096-0.526
		c0.107,0.099,0.248,0.031,0.357-0.066c0.109-0.097,0.159-0.243,0.195-0.384c0.036-0.141,0.063-0.288,0.14-0.413
		c0.113-0.183,0.314-0.289,0.507-0.386c-0.038,0.126-0.095,0.228-0.099,0.36c-0.004,0.127,0.017,0.27,0.118,0.347
		c0.099,0.076,0.247,0.058,0.352-0.01c0.104-0.069,0.174-0.179,0.234-0.288c0.156-0.282,0.274-0.586,0.348-0.899
		c0.04-0.167,0.077-0.353,0.212-0.46c0.108-0.086,0.255-0.1,0.392-0.111c-0.039,0.168-0.104,0.337,0.026,0.451
		c0.085,0.075,0.214,0.082,0.322,0.045c0.108-0.036,0.198-0.109,0.287-0.181c0.095-0.077,0.191-0.155,0.274-0.245
		c0.228-0.249,0.342-0.578,0.479-0.887c0.137-0.309,0.32-0.622,0.622-0.773c0.174,0.136,0.396,0.125,0.605,0.052
		c0.449-0.157,0.593-0.72,0.594-1.196c0.002-1.041-0.349-2.072-0.235-3.107c0.024-0.221,0.07-0.443,0.118-0.665
		c1.782,3.116,4.146,5.851,7.111,7.896c1.293,0.892,2.678,1.642,4.075,2.361c1.612,0.831,3.323,1.643,5.137,1.61
		c1.032-0.019,2.102-0.308,3.094-0.132c0.06,0.011,0.134,0.02,0.172,0.023c-0.001,0,0,0,0.001,0c0.022,0.001,0.031,0,0.018-0.004
		c0.02-0.004,0.052-0.011,0.097-0.019c0.992-0.176,2.062,0.113,3.094,0.132c1.814,0.033,3.525-0.779,5.137-1.61
		c1.396-0.72,2.781-1.469,4.075-2.361c2.965-2.045,5.329-4.78,7.111-7.896c0.049,0.222,0.094,0.444,0.118,0.665
		c0.114,1.035-0.237,2.066-0.235,3.107c0.001,0.476,0.145,1.039,0.594,1.196c0.209,0.073,0.431,0.085,0.605-0.052
		c0.302,0.151,0.485,0.465,0.622,0.773c0.137,0.309,0.251,0.638,0.479,0.887c0.083,0.09,0.179,0.168,0.274,0.245
		c0.088,0.071,0.179,0.144,0.287,0.181c0.107,0.036,0.237,0.03,0.322-0.045c0.129-0.115,0.064-0.283,0.026-0.451
		c0.138,0.011,0.284,0.025,0.392,0.111c0.135,0.107,0.172,0.292,0.212,0.46c0.075,0.314,0.193,0.617,0.349,0.899
		c0.06,0.109,0.13,0.219,0.234,0.288c0.104,0.069,0.252,0.086,0.351,0.01c0.101-0.077,0.122-0.22,0.118-0.347
		c-0.004-0.132-0.061-0.233-0.099-0.36c0.192,0.097,0.394,0.203,0.507,0.386c0.076,0.124,0.103,0.271,0.14,0.413
		c0.036,0.141,0.087,0.287,0.195,0.384c0.109,0.097,0.25,0.165,0.357,0.066c0.144,0.127,0.186,0.357,0.096,0.526
		c-0.09,0.17-0.304,0.264-0.49,0.215c0.171,0.041,0.349,0.082,0.519,0.039c0.17-0.042,0.326-0.198,0.306-0.372
		c0.102,0.036,0.199,0.099,0.254,0.192c0.055,0.093,0.059,0.221-0.009,0.305c0.178-0.094,0.277-0.315,0.231-0.511
		c-0.047-0.196-0.236-0.348-0.436-0.352c0.046-0.236-0.016-0.483-0.126-0.697c-0.11-0.214-0.266-0.401-0.421-0.585
		c-0.182-0.217-0.486-0.337-0.571-0.608c-0.167-0.536-0.61-0.978-1.146-1.145c-0.225-0.07-0.463-0.094-0.685-0.17
		c-0.201-0.069-0.385-0.179-0.567-0.288c-0.466-0.28-0.932-0.56-1.399-0.84c0.448-0.836,0.187-1.851,0.061-2.791
		c-0.175-1.303-0.07-2.656-0.331-3.932c1.624-3.51,2.584-7.378,2.898-11.226c0.104-1.275,0.138-2.565,0.097-3.855
		c0.206,0.05,0.43,0.044,0.615,0.147c0.185,0.103,0.3,0.297,0.472,0.42c0.497,0.355,1.307,0.022,1.734,0.459
		c0.13,0.133,0.197,0.317,0.33,0.446c0.133,0.129,0.388,0.172,0.482,0.012c0.039-0.067,0.038-0.15,0.063-0.223
		c0.026-0.073,0.105-0.143,0.175-0.109c0.257,0.607,0.664,1.15,1.174,1.567c0.069,0.056,0.142,0.114,0.179,0.195
		c0.028,0.06,0.032,0.129,0.033,0.195c0.004,0.245-0.033,0.492-0.108,0.725c0.259-0.198,0.364-0.472,0.378-0.797
		c0.159,0.155,0.276,0.352,0.337,0.565C445.765,387.337,445.638,387.017,445.512,386.732z"/>
	<g>
		<path style="fill:#222221;" d="M103.725,343.372c0.172,0.001,0.365-0.05,0.564-0.111
			C104.059,343.246,103.854,343.268,103.725,343.372z"/>
		<path style="fill:#222221;" d="M102.237,417.256c-0.014,0.159-0.031,0.319-0.066,0.482
			C102.209,417.605,102.229,417.44,102.237,417.256z"/>
		<path style="fill:#222221;" d="M102.204,416.23c0.028,0.373,0.046,0.727,0.033,1.025
			C102.268,416.911,102.251,416.571,102.204,416.23z"/>
		<path style="fill:#222221;" d="M182.354,362.809c-4.122-1.368-8.641-1.044-12.957-0.837c-8.723,0.419-17.36,1.37-26.087,0.855
			c-0.23-0.654-0.459-1.305-0.484-1.974c-0.035-0.922,0.988-1.96,0.265-2.865c0.912-0.663,1.138-2.199,2.002-3.069
			c0.837-0.841,1.688-2.201,2.563-2.383c-0.1-0.469-0.868,0.21-1.268-0.005c-0.605-0.324-0.583-0.913-0.789-1.532
			c0.093,2.232-1.569,3.357-2.481,5.383c-0.274,0.609-0.544,1.521-0.888,2.212c-0.321,0.643-1.051,1.392-0.986,2.124
			c-0.642,0.191-0.958,0.932-0.965,1.568c-0.228,0.045-0.451,0.122-0.667,0.223c-0.273-0.029-0.546-0.056-0.82-0.081
			c0.949-3.048-3.2-6.838-5.512-9.019c0.097-0.01,0.18-0.021,0.241-0.033c0.685-0.138,1.298-0.29,1.844-0.743
			c1.01-0.839,1.109-1.702,1.036-2.87c0.738-0.1,1.166,0.107,1.873-0.329c1.241-0.766,1.203-1.826,1.787-2.935
			c0.512-0.972,1.14-1.875,1.126-2.99c0.31-0.051,0.841-0.22,1.277-0.248c-0.423-0.131-0.875-0.318-1.222-0.208
			c-0.527,0.168-0.695,1.207-0.975,1.71c-0.721,1.293-1.04,2.28-2.602,2.438c-1.316,0.133-2.415-0.068-3.663,0.445
			c-0.856,0.352-0.696,0.78-1.198,1.406c-0.329,0.41-0.826,0.441-1.299,0.549c0.007-0.027,0.012-0.052,0.019-0.08
			c0.251-1.046,0.457-2.103-0.229-3.017c1.215-1.838-1.813-5.607-3.759-5.688c0.001-0.085-0.001-0.173-0.004-0.26
			c0.799-0.036,1.627-0.118,2.416,0.002c0.81,0.123,1.53,0.726,2.297,0.582c0.496-0.093,0.745-0.984,0.885-1.436
			c0.356-1.148,1.118-2.269,1.286-3.412c0.096-0.657,0.534-2.921-0.576-2.937c-0.652-0.009-0.162,2.435-0.255,3.037
			c-0.181,1.172-0.919,2.505-1.531,3.535c-1.484,0-3.062,0.021-4.613-0.211c-0.124-0.603-0.384-1.174-0.861-1.575
			c-0.67-0.563-2.561-1.332-3.203-0.685c-0.642-0.647-2.532,0.121-3.202,0.685c-0.477,0.401-0.737,0.972-0.861,1.575
			c-1.551,0.233-3.129,0.211-4.613,0.211c-0.612-1.03-1.35-2.363-1.532-3.535c-0.093-0.602,0.397-3.046-0.255-3.037
			c-1.109,0.015-0.672,2.28-0.576,2.937c0.168,1.143,0.93,2.264,1.286,3.412c0.14,0.452,0.389,1.343,0.885,1.436
			c0.768,0.144,1.488-0.459,2.297-0.582c0.789-0.12,1.617-0.038,2.416-0.002c-0.002,0.087-0.005,0.174-0.004,0.26
			c-1.946,0.081-4.974,3.85-3.759,5.688c-0.686,0.915-0.48,1.971-0.229,3.017c0.007,0.028,0.012,0.053,0.018,0.08
			c-0.473-0.108-0.971-0.139-1.299-0.549c-0.502-0.625-0.343-1.054-1.198-1.406c-1.247-0.513-2.347-0.312-3.662-0.445
			c-1.562-0.157-1.881-1.145-2.602-2.438c-0.28-0.503-0.448-1.542-0.975-1.71c-0.348-0.111-0.799,0.077-1.222,0.208
			c0.436,0.028,0.966,0.198,1.277,0.248c-0.014,1.115,0.615,2.019,1.126,2.99c0.584,1.108,0.546,2.169,1.787,2.935
			c0.707,0.436,1.135,0.229,1.873,0.329c-0.073,1.169,0.026,2.031,1.036,2.87c0.545,0.453,1.159,0.605,1.844,0.743
			c0.06,0.012,0.143,0.023,0.241,0.033c-2.312,2.181-6.461,5.971-5.512,9.019c-0.274,0.025-0.547,0.052-0.82,0.081
			c-0.216-0.101-0.439-0.178-0.667-0.223c-0.007-0.636-0.323-1.377-0.965-1.568c0.064-0.732-0.666-1.481-0.986-2.124
			c-0.344-0.69-0.614-1.603-0.888-2.212c-0.912-2.026-2.574-3.151-2.48-5.383c-0.205,0.62-0.184,1.208-0.789,1.532
			c-0.4,0.214-1.167-0.465-1.268,0.005c0.875,0.182,1.726,1.541,2.563,2.383c0.865,0.87,1.091,2.406,2.003,3.069
			c-0.722,0.905,0.3,1.943,0.265,2.865c-0.025,0.669-0.254,1.319-0.485,1.974c-8.728,0.514-17.364-0.436-26.087-0.855
			c-4.315-0.207-8.835-0.531-12.957,0.837c-2.306,0.765-6.069,2.891-5.956,5.72c0.094,2.355,1.429,5.122,3.363,6.649
			c1.514,1.195,3.538,2.068,5.306,2.856c1.997,0.891,4.017,2.043,6.109,2.618c2.125,0.584,3.507,0.843,5.597,0.149
			c0.654,0.525,0.651,2.358,1.37,3.147c0.759,0.832,2.203,1.448,3.274,1.708c1.587,0.385,3.126,0.334,4.739,0.5
			c1.527,0.158,2.893,0.633,4.438,0.066c1.642-0.603,2.744-1.761,4.055-2.8c1.195-0.947,2.756-0.977,3.931-1.993
			c2.452-2.121,2.661-6.163,5.953-7.417c0.245-0.093,0.487-0.172,0.728-0.248c0.001,0.154,0.002,0.307,0.002,0.46
			c-1.372,0.701-1.633,1.85-2.25,3.505c-0.548,1.471-2.153,2.433-2.767,4.144c-0.678,1.89-1.087,3.909-1.575,5.838
			c-0.47,1.856-0.444,3.75-1.18,5.531c-0.284,0.689-0.802,1.813-0.34,2.572c0.398,0.652,1.152,0.231,1.998-0.107
			c0.16,2.431-0.019,4.924,0.117,7.375c0.134,2.41,0.155,4.846,0.268,7.239c0.186,3.938-2.748,7.489-2.305,11.362
			c-0.058-0.749,0.04-1.751,0.872-1.681c0.786,0.066,1.057,1.458,1.073,2.144c0.027-1.122-1.614-6.889,0.813-6.773
			c0.078,0.29,0.132,0.574,0.172,0.857c-0.088-1.193-0.267-2.587,0.209-3.008c0.081,0.219,0.348,0.808,0.354,0.839
			c0.065-0.991-1.229-2.92-0.234-3.606c0.394,0.258,0.662,0.654,0.831,1.087c-0.953-1.868-0.393-4.023-0.244-6.071
			c0.207-2.858,0.341-5.802,0.483-8.645c0.026-0.531,0.015-1.112-0.06-1.608c-0.035-0.235-0.143-0.878-0.222-1.132
			c0.621,0.468,0.726,0.885,0.88,1.692c-0.009-1.372-0.365-2.21-0.691-3.446c-0.379-1.435,0.231-3.264,0.51-4.75
			c0.523-2.791,1.968-5.885,1.966-8.45c0.613,0.074,1.203,0.084,1.791,0.081c0.223,1.753,0.092,3.366-0.08,5.18
			c-0.739,7.79-0.307,17.925,7.394,22.273c2.188,1.235,4.226,1.362,6.643,1.575c1.039,0.092,1.199,0.011,1.643,0.043v0
			c0,0,0.001,0,0.002,0l0.002,0v0c0.444-0.032,0.604,0.049,1.642-0.043c2.417-0.214,4.455-0.34,6.643-1.575
			c7.701-4.347,8.132-14.483,7.394-22.273c-0.172-1.813-0.303-3.427-0.08-5.18c0.589,0.003,1.178-0.007,1.792-0.081
			c-0.002,2.565,1.443,5.659,1.966,8.45c0.278,1.486,0.888,3.315,0.51,4.75c-0.326,1.236-0.682,2.073-0.691,3.446
			c0.154-0.807,0.259-1.224,0.88-1.692c-0.079,0.254-0.187,0.897-0.222,1.132c-0.074,0.496-0.086,1.077-0.06,1.608
			c0.142,2.843,0.275,5.786,0.483,8.645c0.148,2.047,0.708,4.203-0.245,6.071c0.169-0.432,0.437-0.829,0.831-1.087
			c0.995,0.686-0.3,2.615-0.234,3.606c0.006-0.031,0.272-0.62,0.354-0.839c0.476,0.421,0.297,1.815,0.209,3.008
			c0.04-0.283,0.095-0.567,0.172-0.857c2.427-0.116,0.786,5.652,0.813,6.773c0.016-0.686,0.287-2.078,1.073-2.144
			c0.832-0.07,0.93,0.932,0.872,1.681c0.443-3.873-2.491-7.424-2.305-11.362c0.113-2.393,0.134-4.83,0.268-7.239
			c0.136-2.451-0.043-4.944,0.117-7.375c0.846,0.338,1.601,0.759,1.998,0.107c0.463-0.758-0.055-1.883-0.34-2.572
			c-0.735-1.781-0.709-3.674-1.18-5.531c-0.489-1.928-0.897-3.947-1.576-5.838c-0.614-1.711-2.219-2.674-2.767-4.144
			c-0.617-1.655-0.878-2.804-2.251-3.505c0.001-0.153,0.001-0.307,0.002-0.46c0.241,0.076,0.483,0.155,0.728,0.248
			c3.292,1.253,3.501,5.296,5.953,7.417c1.175,1.017,2.736,1.046,3.931,1.993c1.311,1.039,2.413,2.197,4.055,2.8
			c1.545,0.568,2.911,0.092,4.438-0.066c1.613-0.167,3.152-0.115,4.739-0.5c1.071-0.26,2.515-0.876,3.274-1.708
			c0.719-0.789,0.716-2.622,1.37-3.147c2.09,0.694,3.472,0.435,5.597-0.149c2.092-0.575,4.112-1.727,6.109-2.618
			c1.768-0.789,3.792-1.661,5.306-2.856c1.934-1.527,3.269-4.294,3.363-6.649C188.424,365.7,184.66,363.574,182.354,362.809z"/>
		<path style="fill:#222221;" d="M142.464,343.261c0.199,0.062,0.392,0.112,0.564,0.111
			C142.899,343.268,142.694,343.246,142.464,343.261z"/>
		<path style="fill:#222221;" d="M144.516,417.256c0.008,0.185,0.028,0.349,0.066,0.482
			C144.547,417.575,144.53,417.415,144.516,417.256z"/>
		<path style="fill:#222221;" d="M144.516,417.256c-0.013-0.298,0.006-0.652,0.033-1.025
			C144.501,416.571,144.485,416.911,144.516,417.256z"/>
	</g>
	<g>
		<path style="fill:#222221;" d="M390.929,77.715c0.006,0.011,0.011,0.022,0.017,0.034c0.023,0.021,0.045,0.042,0.068,0.063
			C391.033,77.802,390.987,77.761,390.929,77.715z"/>
		<path style="fill:#222221;" d="M390.929,77.715c-0.021-0.042-0.043-0.084-0.063-0.126
			C390.673,77.522,390.82,77.627,390.929,77.715z"/>
		<path style="fill:#222221;" d="M453.3,101.284c-0.573-1.366-5.616,1.449-6.946,1.916c-2.605,0.915-4.907,1.638-7.567,2.062
			c-2.62,0.417-4.755,2.075-7.043,3.087c-2.376,1.052-5.326,1.245-7.868,2.183c-2.199,0.811-4.467,1.676-6.064,3.121
			c-0.06-0.204-0.082-0.429-0.104-0.663c0.944-0.46,1.875-1.425,1.103-2.245c2.509-4.522,5.716-9.054,8.863-13.113
			c0.482-0.622,2.256-2.309,1.915-3.054c0.49-0.574,2.889-2.494,2.036-3.233c1.758-2.317,2.943-5.372,4.431-7.965
			c0.666-1.16,1.531-2.234,2.185-3.379c0.607-1.062,0.632-2.072,1.048-3.146c1.9-4.903,4.255-9.984,7.039-14.497
			c0.538-0.873,1.619-2.014,1.44-3.095c-2.161,1.756-3.07,4.566-4.407,6.94c-1.58,2.807-3.1,5.684-4.372,8.676
			c-0.569,1.339-1.267,1.936-2.267,2.871c-0.636,1.301-1.348,2.557-2.008,3.829c-0.901,1.738-1.377,3.522-2.551,5.096
			c-1.453,1.948-2.008,4.499-3.41,6.347c-1.542,2.033-3.183,4.082-4.76,6.134c-1.618,2.105-2.717,4.432-4.163,6.616
			c-0.909,1.372-1.668,2.956-2.666,4.281c-0.125,0.165-0.403,0.556-0.663,1.01c-0.133-0.083-0.271-0.157-0.411-0.219
			c0.332-0.614,0.592-1.366,0.579-1.988c-0.015-0.719-0.407-2.481-1.066-2.744c-0.268,1.006,0.452,1.913,0.134,3.04
			c-0.024,0.085-0.084,0.214-0.158,0.367c-0.333-0.563-0.922-0.895-1.741-0.873v0c-0.001,0-0.002,0-0.003,0
			c-0.001,0-0.002,0-0.003,0v0c-0.819-0.022-1.408,0.31-1.741,0.873c-0.074-0.153-0.134-0.282-0.158-0.367
			c-0.318-1.128,0.403-2.035,0.134-3.04c-0.659,0.263-1.051,2.025-1.066,2.744c-0.013,0.622,0.247,1.374,0.579,1.988
			c-0.14,0.062-0.277,0.136-0.411,0.219c-0.26-0.454-0.538-0.845-0.663-1.01c-0.999-1.325-1.758-2.909-2.666-4.281
			c-1.447-2.185-2.546-4.512-4.163-6.616c-1.577-2.052-3.218-4.101-4.76-6.134c-1.402-1.848-1.957-4.399-3.41-6.347
			c-1.174-1.574-1.65-3.358-2.551-5.096c-0.66-1.272-1.371-2.528-2.008-3.829c-1-0.935-1.698-1.532-2.267-2.871
			c-1.272-2.992-2.792-5.869-4.372-8.676c-1.336-2.373-2.246-5.184-4.407-6.94c-0.179,1.081,0.902,2.222,1.44,3.095
			c2.784,4.513,5.139,9.594,7.039,14.497c0.416,1.074,0.441,2.085,1.048,3.146c0.654,1.145,1.519,2.219,2.185,3.379
			c1.488,2.593,2.673,5.647,4.431,7.965c-0.853,0.739,1.546,2.659,2.036,3.233c-0.341,0.745,1.433,2.432,1.915,3.054
			c3.147,4.059,6.354,8.591,8.863,13.113c-0.772,0.82,0.16,1.785,1.103,2.245c-0.023,0.234-0.045,0.46-0.104,0.663
			c-1.598-1.445-3.866-2.31-6.064-3.121c-2.541-0.938-5.491-1.131-7.868-2.183c-2.287-1.012-4.422-2.67-7.042-3.087
			c-2.661-0.424-4.963-1.146-7.568-2.062c-1.33-0.467-6.373-3.282-6.946-1.916c-0.06,0.144-0.086,0.314-0.104,0.458
			c2.256,0.313,4.802,1.212,6.928,2.083c1.061,0.435,2.139,1.028,3.089,1.68c0.988,0.677,1.556,0.784,2.814,1.021
			c2.614,0.493,4.612,1.889,6.886,3.056c2.092,1.073,4.889,1.869,7.206,2.626c1.815,0.592,3.955,0.887,5.625,1.83
			c0.278,0.157,0.966,0.671,1.699,1.091c-0.493,0.381-1.014,0.737-1.386,1.05c-0.002,0.001-0.003,0.003-0.005,0.004
			c-0.664-0.227-1.574,0.007-2.371,0.163c-1.344,0.264-2.657,0.133-4.017,0.266c-1.098,0.107-2.624,0.337-3.669,0.719
			c-1.65,0.603-2.703,1.605-4.492,1.799c-1.064,0.116-0.785-0.026-1.351,0.709c-0.42,0.546-0.742,1.205-1.233,1.74
			c-0.59,0.642-3.223,2.063-2.925,2.817c1.511,0.624,2.543-1.576,3.589-2.428c1.137-0.925,2.726-0.873,4.048-1.677
			c2.857-1.736,5.98-2.168,9.367-2.123c0.261,0.003,0.674,0.064,1.136,0.122c-0.295,0.415-0.57,0.848-0.826,1.298
			c-0.469,0.824-0.815,1.715-1.054,2.639c-1.432,0.717-3.11,2.302-4.193,3.094c-0.844,0.618-1.672,1.295-2.395,2.042
			c-0.726,0.75-0.887,1.41-1.302,2.352c-0.373,0.847-0.961,1.667-0.951,2.645c0.006,0.546,0.229,0.92,0.185,1.436
			c-0.065,0.763-0.534,1.733-0.718,2.51c-0.532,2.249-1.464,4.858-1.619,7.132c-0.148,2.171,0.423,4.42,0.54,6.587
			c0.161,2.988,0.291,5.872,1.075,8.785c0.463,1.723,0.975,4.893,2.458,6.064c0.175,0.139-0.051,0.195,0.219,0.224
			c0.807-2.077-1.554-4.552-1.776-6.571c-0.315-2.863-0.828-5.81-1.191-8.719c-0.182-1.462-0.352-2.771,0.107-4.175
			c0.115,0.098,0.081,0.169,0.126,0.32c1.164-0.384,0.949-3.237,1.171-4.664c0.392-2.524,0.902-5.025,1.317-7.557
			c0.131-0.796,0.185-1.643,0.479-2.389c0.378-0.96,0.59-0.637,1.316-1.225c0.713-0.577,1.032-1.581,1.581-2.275
			c0.708-0.894,1.643-1.452,2.634-1.98c0.178-0.094,0.353-0.187,0.525-0.281c0.003,1.15,0.142,2.296,0.404,3.382
			c0.383,1.589,0.734,3.219,1.788,4.512c0.91,1.116,1.849,2.054,2.998,2.916c1.456,1.092,3.555,2.354,5.425,2.801l-0.001,0.12
			c0.101-0.014,0.204-0.033,0.308-0.053c0.103,0.02,0.206,0.039,0.308,0.053l-0.001-0.12c1.871-0.447,3.97-1.709,5.425-2.801
			c1.149-0.862,2.088-1.8,2.998-2.916c1.054-1.293,1.405-2.923,1.788-4.512c0.262-1.086,0.401-2.232,0.404-3.382
			c0.172,0.094,0.347,0.187,0.525,0.281c0.991,0.527,1.926,1.085,2.634,1.98c0.549,0.693,0.868,1.697,1.581,2.275
			c0.726,0.588,0.938,0.265,1.316,1.225c0.294,0.746,0.349,1.593,0.479,2.389c0.416,2.532,0.925,5.033,1.317,7.557
			c0.222,1.427,0.007,4.28,1.171,4.664c0.045-0.15,0.012-0.221,0.126-0.32c0.459,1.404,0.289,2.714,0.107,4.175
			c-0.363,2.908-0.876,5.855-1.191,8.719c-0.222,2.02-2.583,4.495-1.776,6.571c0.27-0.03,0.044-0.086,0.219-0.224
			c1.483-1.17,1.995-4.341,2.458-6.064c0.783-2.913,0.913-5.797,1.075-8.785c0.117-2.167,0.688-4.415,0.54-6.587
			c-0.155-2.274-1.088-4.883-1.619-7.132c-0.184-0.778-0.653-1.747-0.718-2.51c-0.044-0.516,0.179-0.89,0.185-1.436
			c0.01-0.977-0.578-1.798-0.951-2.645c-0.415-0.942-0.576-1.602-1.302-2.352c-0.724-0.747-1.551-1.424-2.395-2.042
			c-1.082-0.793-2.76-2.377-4.193-3.094c-0.24-0.924-0.586-1.814-1.054-2.639c-0.256-0.45-0.53-0.883-0.826-1.298
			c0.462-0.058,0.875-0.119,1.136-0.122c3.387-0.044,6.51,0.388,9.367,2.123c1.322,0.804,2.911,0.751,4.048,1.677
			c1.046,0.851,2.078,3.052,3.589,2.428c0.298-0.754-2.334-2.175-2.925-2.817c-0.492-0.535-0.813-1.194-1.233-1.74
			c-0.565-0.735-0.287-0.593-1.351-0.709c-1.789-0.195-2.842-1.196-4.492-1.799c-1.046-0.382-2.571-0.612-3.669-0.719
			c-1.361-0.133-2.673-0.002-4.017-0.266c-0.797-0.156-1.707-0.39-2.371-0.163c-0.002-0.001-0.003-0.003-0.005-0.004
			c-0.372-0.313-0.893-0.669-1.386-1.05c0.733-0.421,1.421-0.935,1.699-1.091c1.671-0.943,3.81-1.238,5.625-1.83
			c2.318-0.756,5.115-1.552,7.207-2.626c2.274-1.167,4.272-2.563,6.886-3.056c1.258-0.237,1.826-0.345,2.814-1.021
			c0.951-0.651,2.029-1.245,3.089-1.68c2.126-0.872,4.672-1.771,6.928-2.083C453.386,101.599,453.36,101.428,453.3,101.284z"/>
		<path style="fill:#222221;" d="M436.654,77.812c0.023-0.022,0.045-0.042,0.068-0.063c0.005-0.011,0.011-0.022,0.017-0.034
			C436.682,77.761,436.635,77.802,436.654,77.812z"/>
		<path style="fill:#222221;" d="M436.802,77.589c-0.021,0.042-0.043,0.084-0.063,0.126
			C436.848,77.627,436.995,77.522,436.802,77.589z"/>
	</g>
	<path style="fill:#222221;" d="M217.559,278.108c-2.732,0.363-5.313-0.982-7.558-2.455c-2.339-1.535-4.792-3.379-6.487-5.669
		c-2.096-2.832-3.327-5.85-5.029-8.903c-1.394-2.499-4.06-4.647-6.216-6.537c-1.429-1.253-2.787-2.566-4.07-3.956
		c-1.223-1.324-2.702-2.002-3.988-3.235c-0.617-0.359-2.268-0.673-2.68-0.894c0.17-0.029,0.263-0.118,0.279-0.264
		c-2.556,0.215-4.969,2.176-7.202,3.479c-1.305,0.762-3.192,1.932-4.415,3.307c-1.204,0.056-2.419,0.27-3.638,0.684
		c-0.107,0.036-0.206,0.077-0.308,0.117c-0.28-0.457-0.584-0.864-0.764-1.105c-0.876-1.171-1.798-2.79-3.199-1.873
		c-1.528,1.001-2.838,3.113-3.559,4.763c-0.366,0.837-1.214,2.602-1.594,4.106c-0.633-0.639-1.286-1.683-2.283-1.79
		c-0.167-1.647-0.799-3.406-2.07-4.572c-0.374-0.343-0.847-0.641-1.363-0.878c-0.024-2.558-0.859-6.256-1.95-6.546
		c-1.979-0.527-1.946,3.53-1.634,6.128c-0.328,0.088-0.642,0.162-0.847,0.103c-0.393-0.114-0.951-0.944-1.27-1.209
		c-1.377-1.144-6.085-4.132-7.559-2.753c-1.191-0.842-2.212-2.265-3.25-3.32c-1.72-1.749-5.896-5.126-8.018-1.765
		c-0.611,0.968,0.035,2.741-0.704,3.57c-0.669,0.751-2.957-0.053-2.318,1.492c-0.526,0.098-0.917,0.177-1.394,0.307
		c0.175,0.037,0.219-2.513,0.149-3.281c-0.134-1.477-0.732-2.945-1.985-3.822c-2.952-2.064-8.4,0.158-11.133,1.734
		c-2.253,1.299-4.37,2.643-6.349,4.265c-2.211-1.668-5.42-2.361-8.017-2.416c-3.74-0.079-7.095,1.271-10.606,2.319
		c-3.281,0.979-6.73,1.685-10.129,2.327c-4.279,0.809-8.499,1.985-12.657,3.223c-1.405,0.418-9.355,3.225-6.668,5.682
		c0.917,0.839,1.66-0.053,2.455-0.791c1.198-1.111,2.517-1.922,4.076-2.569c3.449-1.432,7.066-2.817,10.705-3.689
		c3.22-0.771,7.415-2.601,10.663-2.423c1.405,0.077,1.589,0.445,3.055-0.273c2.171-1.065,4.498-1.687,6.91-1.986
		c2.732-0.339,5.13,0.082,7.625,1.217c0.192,0.087,0.6,0.409,1.087,0.768c-1.14,1.493-0.501,3.18-1.922,4.546
		c-2.467,2.372-3.098,5.933-1.854,9.268c-2.598,1.353-5.331,2.419-7.902,3.84c-2.627,1.451-5.057,3.459-7.385,5.341
		c-2.533,2.047-5.503,4.298-7.116,7.17c-0.947,1.686-1.888,4.651-0.758,6.425c-0.24,0.091,0.111,0.429,0.459,0.686
		c0.87-0.474,1.305-1.608,1.691-2.554c0.743-1.817,1.506-3.526,2.551-5.188c3.053-4.857,8.247-8.567,13.384-11.205
		c2.309-1.185,4.692-1.915,6.64-3.611c0.672-0.584,1.721-1.402,2.529-2.307c1.44-1.17,2.728-1.782,4.539-1.967
		c1.986-0.202,4.019,0.039,5.958-0.448c2.147-0.539,4.066-1.19,5.938-2.335c1.726-1.055,3.648-2.065,4.489-3.992
		c-0.145-0.089-0.236-0.328-0.271-0.534c1.465-0.292,2.747,0.082,3.486,1.268c0.584,0.937,1.188,1.805,1.852,2.648
		c-1.276,0.054-2.469,0.146-3.269,0.15c-3.711,0.016-5.513,3.51-6.886,6.57c-0.819,1.825-1.696,3.623-2.738,5.369
		c-0.842,1.411-1.498,2.355-1.5,4.027c-0.336-0.399-2.194,2.086-2.39,2.896c-0.774,3.206-1.256,5.928-3.407,8.689
		c-0.927,1.19-6.368,4.301-5.082,5.651c0.444,0.466,1.41-1.225,1.949-1.65c-0.016,0.234,0.085,0.551,0.057,0.788
		c0.413-0.313,0.766-0.853,1.076-1.246c-0.041,0.198-0.048,0.483-0.091,0.681c0.394-0.372,0.736-0.901,1.112-1.348
		c0.011,0.157,0.016,0.348,0.015,0.5c0.533-0.21,0.844-0.916,1.116-1.496c-0.016,0.276,0.087,0.644,0.096,0.801
		c0.196-0.629,0.469-1.261,0.858-1.79c0.069,0.265,0.225,0.375,0.283,0.513c0.125-0.553,0.27-1.086,0.302-1.647
		c0.097,0.283,0.325,0.499,0.407,0.666c-0.043-0.38,0.089-0.813,0.014-1.203c0.109,0.157,0.319,0.284,0.441,0.448
		c0.367-1.289,1.05-2.555,1.377-3.87c0.309-1.245,0.238-2.64,0.696-3.85c0.59-1.556,2.307-3.13,3.578-3.906
		c0.222,0.886,0.246,2.028,0.015,2.901c0.777-0.775,1.246-2.569,0.844-3.625c2.876-1.411,4.378-7.217,4.653-10.071
		c0.122-1.271-0.213-2.825,1.438-2.97c1.564-0.137,3.704,1.868,4.747,2.846c1.872,1.756,8.766,7.38,11.386,4.457
		c0.526-0.587,0.598-1.361,0.431-2.15c0.262-0.087,0.523-0.197,0.782-0.34c1.288-0.71,2.226-2.396,2.12-3.956
		c1.333-0.206,2.451,1.255,3.318,2.916c0.051,1.303,0.018,2.65,0.285,3.871c0.385,1.757,0.811,3.527,1.225,5.197
		c0.169-0.062,0.486-0.025,0.658-0.098c-0.103,2.434,1.243,4.823,1.685,7.188c0.257,1.373,0.504,2.754,0.772,4.097
		c0.181,0.911,0.573,1.458,0.816,2.261c0.551,1.818,0.826,4.14,0.707,6.075c-0.096,1.569-0.671,1.062-1.385,2.147
		c-0.545,0.829-0.2,1.947,0.96,1.667c2.454-0.593,0.987-6.132,0.873-7.766c0.096,0.189,0.268,0.446,0.37,0.658
		c-0.025-0.64-0.259-1.319-0.522-1.916c0.126,0.269,0.269,0.527,0.43,0.799c-0.208-0.564-0.475-1.188-0.567-1.736
		c0.126,0.169,0.26,0.31,0.392,0.466c-0.794-4.3-2.705-8.293-3.553-12.684c-0.324-1.678-0.447-3.392-0.532-5.114
		c0.727,0.667,1.661,0.947,2.407-0.122c0.793-1.137-0.228-3.613,0.421-4.376c1.467,0.52,0.251,2.222,0.844,3.532
		c0.687,1.518,1.881,2.119,3.426,2.394c1.666,0.297,2.623,0.246,3.543-1.264c0.37-0.606,0.477-1.59,1.054-2.02
		c0.398-0.296,1.12-0.163,1.588-0.382c-0.064,0.132-0.153,0.242-0.268,0.329c1.432,4.282,5.705,6.162,10.306,7.371
		c-0.262,0.938-0.349,1.95-0.288,2.861c0.144-0.911,1.018-1.874,1.667-2.493c0.474,2.616,1.323,5.236,2.006,7.829
		c0.487,1.85,1.262,5.979,2.653,7.257c0.092-0.199,0.177-0.257,0.279-0.391c2.257,4.763,4.669,12.243,10.324,12.963
		c0.917-2.363-1.485-2.237-2.801-3.08c-1.935-1.239-3.227-4.599-4.49-6.506c-0.689-1.04-1.848-2.119-2.334-3.25
		c-0.332-0.772-0.179-1.746-0.52-2.551c-1.08-2.551-2.292-5-3.221-7.664c-0.519-1.486-0.687-2.91-0.836-4.389
		c2.91,0.644,5.775,1.143,7.975,1.923c2.297,0.815,4.389,1.016,6.825,0.534c1.401-0.277,4.12-1.284,5.051-2.441
		c2.183-2.713-5.571-11.252-7.602-12.822c-3.464-2.679-7.496-5.376-11.781-6.442c0.974-0.894,1.791-1.79,2.166-2.169
		c1.686-1.706,3.917-3.86,6.365-3.116c2.125,0.646,2.761,3.768,4.349,5.4c1.867,1.919,3.741,4.155,5.777,5.975
		c1.653,1.478,3.276,0.707,4.218,2.683c1.016,2.13,2.309,4.116,3.604,6.111c0.641,0.989,3.56,5.767,4.658,5.687
		c0.04-0.155,1.273,1.019,1.802,1.382c0.95,0.653,1.964,1.175,2.978,1.727c1.502,0.818,2.788,1.822,4.475,2.249
		c2.043,0.516,4.412-0.768,5.98,0.277C220.986,276.932,218.747,278.675,217.559,278.108z M162.35,259.041
		c-0.444,1.314-0.881,1.686-1.49,1.693c-0.003-0.346-0.003-0.715,0.035-1.097c0.24-2.413,1.2-4.69,2.306-6.809
		c0.34,0.353,0.707,1.326,1.175,2.165C163.38,256.018,162.902,257.406,162.35,259.041z"/>
	<path style="fill:#222221;" d="M342.38,407.109c-2.178-4.668-5.592-8.653-8.613-12.813c-6.377-8.781-15.471-15.225-22.598-23.318
		c-0.954-1.083-1.943-2.151-2.939-3.216c2.426,0.684,4.831,1.398,7.308,1.941c1.601,0.351,7.489,3.017,8.307,1.487
		c-0.148-1.617-8.794-3.1-10.524-3.607c-2.835-0.83-5.502-2.025-8.201-3.166c-0.877-0.957-1.739-1.921-2.562-2.902
		c-2.564-3.052-7.41-4.165-8.953-7.719c-0.734-1.69-0.948-3.457-1.716-5.109c2.979-2.009,6.464-5.563,7.619-6.244
		c1.838-1.083,3.607-2.267,5.397-3.436c1.413-0.923,3.445-1.656,4.604-2.714c-0.087-0.196-0.167-0.362-0.256-0.562
		c-3.819,0.718-6.508,3.96-9.898,5.85c-2.08,1.159-4.217,2.247-6.315,3.41c-0.428,0.237-1.635,0.684-2.799,1.235
		c-1.535-1.883-3.589-3.914-5.248-5.271c-0.984-0.805-2.398-1.153-3.466-1.728c1.005-0.699,2.039-1.646,2.789-2.163
		c1.817-1.253,3.805-2.35,5.699-3.398c1.975-1.092,4.266-1.373,6.35-2.167c2.121-0.808,4.247-1.529,6.357-2.372
		c0.895-0.357,5.2-1.353,5.245-2.079c0-0.142,0.08,0.145,0.15-0.132c-1.144-0.413-4.859,1.309-6.212,1.808
		c-3.778,1.394-7.8,2.362-11.461,3.884c-2.367,0.984-4.724,2.261-6.728,3.863c-0.651,0.521-2.14,1.26-3.087,2.113
		c-0.682-0.717-0.396-1.348-1.552-1.885c-0.487-0.226-1.098-0.306-1.598-0.232c-0.5-0.074-1.111,0.006-1.598,0.232
		c-1.157,0.537-0.87,1.169-1.552,1.885c-0.947-0.853-2.436-1.592-3.087-2.113c-2.004-1.602-4.361-2.879-6.728-3.863
		c-3.66-1.522-7.683-2.489-11.461-3.884c-1.352-0.499-5.068-2.221-6.212-1.808c0.07,0.277,0.15-0.011,0.151,0.132
		c0.045,0.726,4.35,1.722,5.245,2.079c2.11,0.842,4.237,1.564,6.357,2.372c2.084,0.794,4.375,1.075,6.35,2.167
		c1.895,1.048,3.883,2.145,5.699,3.398c0.75,0.517,1.784,1.464,2.789,2.163c-1.068,0.575-2.482,0.923-3.466,1.728
		c-1.658,1.357-3.713,3.389-5.248,5.271c-1.164-0.551-2.371-0.997-2.799-1.235c-2.098-1.163-4.236-2.25-6.315-3.41
		c-3.39-1.89-6.079-5.132-9.898-5.85c-0.09,0.2-0.169,0.366-0.256,0.562c1.159,1.058,3.192,1.792,4.604,2.714
		c1.789,1.169,3.559,2.352,5.397,3.436c1.155,0.681,4.64,4.235,7.619,6.244c-0.768,1.651-0.982,3.419-1.716,5.109
		c-1.543,3.553-6.388,4.666-8.953,7.719c-0.824,0.98-1.686,1.944-2.562,2.902c-2.699,1.141-5.366,2.336-8.201,3.166
		c-1.73,0.507-10.377,1.989-10.524,3.607c0.818,1.53,6.706-1.136,8.307-1.487c2.476-0.543,4.882-1.258,7.307-1.941
		c-0.996,1.065-1.984,2.133-2.938,3.216c-7.127,8.092-16.221,14.537-22.598,23.318c-3.021,4.16-6.435,8.145-8.613,12.813
		c-1.018,2.182-3.316,7.147-2.124,9.548c0.857,1.727,4.125,3.075,5.599,4.187c2.743,2.07,5.669,1.65,9.142,1.933
		c4.749,0.388,9.437,0.664,14.201,0.179c1.668-0.17,3.331-0.436,4.961-0.776c1.299-0.271,2.542-1.104,3.763-1.34
		c3.263,2.467,8.385,1.447,11.901,0.351c4.192-1.307,7.036-4.72,11.811-4.541c0-1.168-0.256-2.743-1.007-3.675
		c1.315,1.768,2.765,3.732,3.533,5.85c0.694,1.914,0.977,3.873,3.041,4.494c0,0,0.054,0.033,0.083,0.026
		c0.028,0.008,0.083-0.026,0.083-0.026c2.065-0.621,2.348-2.581,3.041-4.494c0.768-2.118,2.218-4.082,3.533-5.85
		c-0.752,0.932-1.007,2.508-1.007,3.675c4.774-0.179,7.618,3.234,11.81,4.541c3.516,1.096,8.638,2.115,11.901-0.351
		c1.221,0.236,2.464,1.069,3.763,1.34c1.63,0.34,3.293,0.607,4.961,0.776c4.764,0.485,9.451,0.209,14.201-0.179
		c3.473-0.283,6.399,0.137,9.142-1.933c1.474-1.112,4.742-2.459,5.599-4.187C345.696,414.256,343.398,409.291,342.38,407.109z"/>
	<g>
		<path style="fill:#222221;" d="M416.858,290.888c-0.008-0.004-0.016-0.01-0.024-0.014c0.003,0.01,0.005,0.021,0.008,0.031
			C416.975,291.005,416.981,291,416.858,290.888z"/>
		<path style="fill:#222221;" d="M445.505,285.422c-3.586-1.11-7.306,0.557-10.831,1.355c-3.604,0.815-7.571,0.606-11.14-0.428
			c-4.03-1.168-3.515-3.589-5.324-6.79c0.351,0.236,0.758,0.426,1.088,0.715c0.303-1.315-0.406-2.713-1.166-3.883
			c0.454,0.313,1.113,0.489,1.56,0.794c-0.249-0.849-0.402-1.962-0.867-2.791c0.335,0.202,0.871,0.365,1.199,0.581
			c-0.581-0.878-0.739-2.021-0.8-3.213c2.299-0.331,3.844-1.177,6.201-0.867c2.35,0.309,10.927,1.989,10.111-3.148
			c2.115-0.727,3.237,0.284,5.257-1.278c-0.708,0.068-1.443-0.075-2.146,0.014c0.512-0.093,1.912-0.857,2.207-1.846
			c-0.707,0.207-2.581,0.155-2.793,0.233c0.182-2.763-3.282-4.438-4.814-6.201c-3.679-4.236-7.69-8.356-13.814-9.164
			c-0.108-0.014-0.249-0.031-0.404-0.05c-0.011-1.402-0.175-2.96-0.254-4.599c-0.3-6.202-0.639-12.441,0.339-18.604
			c0.569-3.588,6.261-25.211-2.159-23.594c0.809-4.201-3.736-3.762-5.889-1.996c-5.452,4.473-8.238,12.421-13.418,17.407
			c-1.723,1.658-3.445,3.264-5.143,4.899c0.036-0.257,0.072-0.512,0.107-0.772c0.939-6.833,2.099-13.611,3.78-20.386
			c0.878-3.536,4.053-10.407,1.886-13.959c-0.782-1.281-3.836-2.884-4.98-3.774c-1.29-1.003-0.081-1.545-2.273-1.193
			c-0.723,0.116-2.12,1.203-2.619,1.746c-1.718,1.871-1.906,4.472-2.363,6.929c-1.443,7.76-6.505,15.147-10.481,21.872
			c-2.333,3.948-5.162,7.51-7.663,11.358c-0.828,1.274-1.749,2.978-2.805,4.416c-2.943,0.033-5.881,0.152-8.808,0.408
			c-7.534,0.657-16.048,1.591-23.553,0.534c-3.758-0.529-16.91-3.836-18.756-0.289c-1.739-2.312-10.745-1.068-13.407-0.789
			c-3.951,0.413-8.257,0.917-11.536,3.315c-2.513-0.786-13.014,0.804-15.818,3.315c-0.103-0.128-0.198-0.244-0.281-0.343
			c-2.541-3.056-5.03-6.116-7.913-8.987c-5.064-5.042-8.547-11.48-12.502-17.48c-2.552-3.871-6.79-19.177-11.43-20.026
			c0.037,0.46,0.128,1.022,0.268,0.581c2.417,4.287,3.915,9.261,6.369,13.571c3.344,5.874,7.297,11.335,10.812,17.068
			c2.552,4.163,5.413,8.4,8.371,12.231c0.527,0.683,1.313,1.736,2.199,2.835c-4.816-4.798-11.79-10.336-13.384-11.447
			c-7.031-4.9-13.9-10.6-20.048-16.569c-2.441-2.37-6.199-8.813-9.473-8.848c4.354,7.287,12.426,12.452,18.645,18.306
			c6.602,6.214,13.363,12.784,20.34,18.466c2.383,1.941,4.454,3.64,6.491,5.674c0.007,1.75,0.555,3.425,1.491,5.633
			c1.229,2.9,1.691,5.455,3.314,8.115c0.172,0.282,0.354,0.544,0.53,0.817c-1.39,2.5-2.308,7.032-2.827,8.662
			c-0.557,1.751-0.785,4.494-1.724,6.002c-0.852,1.368-2.43,1.71-3.074,3.431c-4.129-0.396-14.066-2.254-16.032,3.197
			c-0.11-0.023-0.618-0.39-0.267,0.578c2.11,0.566,2.982,0.377,5.01,0.062c2.295-0.356,1.792-0.616,4.344,0.306
			c1.36,0.491,3.096,0.691,4.871,0.574c-0.022,0.017-0.044,0.033-0.066,0.05c-3.245,2.614-5.977,6.182-8.688,9.308
			c-3.52,4.057-7.518,7.593-11.365,11.397c-3.431,3.393-5.26,3.169-9.65,4.239c-1.968,0.48-6.834,3.447-5.975,5.06
			c-0.25,0.315-0.161-0.009-0.354,0.321c4.35,5.755,5.843-2.812,9.51-3.162c4.666,4.126,11.881-5.108,14.84-8.857
			c2.048-2.595,3.755-5.727,6.07-8.185c2.175-2.31,6.194-6.603,9.085-7.901c2.378-1.067,5.104-1.049,7.895-2.681
			c3.693-2.159,8.115-4.89,12.39-5.544c4.587-0.701,8.845-1.485,12.007-5.289c0.534-0.642,0.968-1.361,1.278-2.087
			c0.913,0.028,1.734,0.25,2.424,0.761c0.139,3.651,6.2,8.216,9.622,9.788c3.799,1.746,10.752,3.603,15.467,2.93
			c0.555,4.462,3.387,9.717,4.037,13.788c1.01,6.332,1.128,12.309,2.93,18.499c1.258,4.323,1.513,6.895-0.442,11.051
			c-0.637,1.354-2.736,3.189-3.05,4.567c-0.429,1.883,1.27,4.217,3.412,3.242c1.151-0.524,2.327-3.578,3.118-4.563
			c3.243-4.038,2.62-5.766,2.535-10.632c1.281-1.028-1.298-5.573-1.941-7.276c-1.748-4.632-2.639-9.664-3.482-14.529
			c-0.786-4.539-0.823-9.018-1.418-13.572c-0.042-0.324-0.191-0.781-0.412-1.293c3.085,0.157,6.856,1.014,9.127,1.416
			c3.585,0.635,7.341,1.596,10.968,1.376c-0.009-0.628,0.374-1.273,0.363-1.847c2.383-0.828,6.403-0.778,8.784-0.039
			c-0.058-0.184-0.296-1.815,0.057-0.909c2.475-1.143,7.119,0.173,9.734,0.575c0.173-0.251,0.527-0.935,0.635-1.238
			c0.028-0.037,0.042-0.06,0.053-0.08c2.788-0.169,10.438,2.15,10.732-0.52c2.04-0.879,8.769,2.02,9.472-0.947
			c2.894,0.004,5.17-0.302,7.847,0.267c-0.074-0.56,0.348-1.31,0.362-1.53c2.258,0,4.151-0.568,6.26-0.041
			c0.187-0.663,0.629-1.49,0.686-2.17c0.416-0.183,0.856-0.279,1.311-0.323c-0.566,6.812-1.467,16.839,3.353,19.345
			c-0.37-1.303-0.612-3.226,0.388-4.183c0.081,1.971,1.497,2.935,3.103,3.749c0.222-0.479,0.445-0.577,0.685-0.938
			c2.095,1.908,4.312,1.812,6.638,2.912c0.339-0.266,0.108-0.34,0.378-0.633c1.298,0.777,3.024,0.892,4.612,0.854
			c0.148-0.225,0.307-0.553,0.442-0.765c0.773,0.5,3.582,1.515,4.518,0.831c1.215-0.888,0.262-2.06-0.12-3.437
			c2.175,0.048,5.156-0.211,6.984-1.263c2.512,1.705,2.601,2.163,5.549,1.483C450.453,287.538,447.028,285.893,445.505,285.422z
			 M275.488,273.094c0.806-2.386,1.069-5.499,1.546-7.487c0.636-2.653,1.318-5.239,1.655-7.895c2.584,3.428,5.54,6.249,8.765,9.088
			c0.074,0.066,0.154,0.119,0.231,0.178C283.771,269.373,279.561,271.081,275.488,273.094z M376.176,276.903
			c0.128-0.049,0.289-0.081,0.473-0.1C376.503,276.87,376.3,276.959,376.176,276.903z M376.634,229.436
			c0.693-1.969,1.24-4.055,1.981-5.874c2.623-6.438,6.11-12.473,8.54-18.97c1.17-3.127,2.421-10.354,6.653-10.704
			c-0.038,2.79-1.769,5.976-2.248,8.881c-0.728,4.422-1.203,8.929-1.816,13.371c-0.492,3.57-0.748,7.038-0.909,10.505
			c-0.259,0.272-0.524,0.533-0.781,0.81c-0.759,0.818-1.653,1.616-2.589,2.416C382.531,229.721,379.585,229.563,376.634,229.436z
			 M396.067,247.855c3.891-3.86,8.147-6.897,4.422-12.954c-1.23-2-3.045-3.15-5.105-3.835c3.136-4.402,6.464-8.651,9.762-12.968
			c1.898-2.484,3.866-5.277,6.578-6.555c1.861-0.877,4.033-0.018,4.289-3.112c1.828,0.535-0.621,5.04-0.931,6.811
			c-0.813,4.648-0.386,9.597-0.386,14.301c0,5.171,0.056,10.325-0.316,15.462c-0.09,1.24-0.253,2.573-0.401,3.927
			C407.018,248.262,396.235,247.365,396.067,247.855z"/>
	</g>
</g>
<g id="DESIGNED_BY_FREEPIK">
	<g>
		<g id="XMLID_319_">
			<g id="XMLID_338_">
				<path id="XMLID_346_" style="fill:#222221;" d="M260.104,465.465c-0.433,0.443-0.804,0.932-1.108,1.453l-0.465-0.241
					c-0.067-0.297-0.35-0.502-0.659-0.466c-0.331,0.039-0.567,0.339-0.529,0.67c0.039,0.331,0.339,0.567,0.67,0.528
					c0.066-0.007,0.127-0.025,0.184-0.052l0.451,0.234c-0.251,0.554-0.433,1.139-0.539,1.743l0.747,0.132
					c0.229-1.306,0.85-2.507,1.792-3.473L260.104,465.465z"/>
				<path id="XMLID_345_" style="fill:#222221;" d="M265.591,463.164c-0.171,0-0.341,0.006-0.509,0.017l-0.074-0.626
					c0.188-0.149,0.296-0.389,0.266-0.645c-0.046-0.393-0.402-0.674-0.795-0.628c-0.394,0.046-0.675,0.402-0.628,0.796
					c0.03,0.254,0.189,0.461,0.404,0.563l0.073,0.624c-0.714,0.116-1.402,0.332-2.06,0.646l0.327,0.685
					c0.935-0.447,1.941-0.674,2.995-0.674c0.497,0,0.993,0.053,1.476,0.158l0.16-0.741
					C266.692,463.222,266.142,463.164,265.591,463.164z"/>
				<path id="XMLID_344_" style="fill:#222221;" d="M272.194,465.711c0.331-0.04,0.566-0.341,0.525-0.672
					c-0.04-0.331-0.341-0.566-0.672-0.525c-0.31,0.038-0.535,0.304-0.53,0.608l-0.416,0.363c-0.418-0.43-0.89-0.813-1.407-1.14
					l-0.404,0.642c1.135,0.715,2.021,1.727,2.564,2.925l0.69-0.313c-0.251-0.554-0.567-1.071-0.942-1.545l0.402-0.351
					C272.065,465.715,272.128,465.719,272.194,465.711z"/>
				<path id="XMLID_343_" style="fill:#222221;" d="M265.044,473.372c-0.386,0.023-0.775,0.035-1.157,0.035
					c-0.88,0-1.733-0.061-2.478-0.18c-0.391-0.062-0.846-0.154-1.271-0.292c1.047,1.861,3.069,3.125,5.389,3.125
					c2.855,0,5.263-1.916,5.949-4.503c-0.682,0.449-1.505,0.825-2.458,1.122C267.838,473.047,266.463,473.287,265.044,473.372z"/>
				<path id="XMLID_339_" style="fill:#222221;" d="M265.591,464.68c-3.352,0-6.079,2.666-6.079,5.943
					c0,0.425,0.046,0.849,0.137,1.261c0.674,0.483,2.706,0.891,5.348,0.731c2.88-0.174,5.297-0.958,6.672-2.159
					c-0.005-0.194-0.02-0.39-0.045-0.581C271.244,466.914,268.65,464.68,265.591,464.68z M263.432,471.195
					c-1.02,0-1.85-0.83-1.85-1.85c0-1.021,0.83-1.851,1.85-1.851c1.02,0,1.85,0.83,1.85,1.851
					C265.282,470.365,264.452,471.195,263.432,471.195z M268.169,470.287c-0.75,0-1.36-0.61-1.36-1.36s0.61-1.36,1.36-1.36
					s1.36,0.61,1.36,1.36S268.919,470.287,268.169,470.287z"/>
			</g>
			<path id="XMLID_336_" style="fill:#222221;" d="M281.595,466.547c-0.295-0.116-0.806-0.31-1.383-0.238
				c-0.551,0.069-0.844,0.341-0.844,1.007v0.866h2.229v1.717h-2.229v5.455h-1.932v-5.455h-1.339v-1.717h1.339v-0.889
				c0-1.68,0.896-2.782,2.568-2.782c0.643,0,1.157,0.121,1.59,0.308V466.547z"/>
			<path id="XMLID_334_" style="fill:#222221;" d="M286.297,469.878c-0.177-0.029-0.357-0.046-0.525-0.046
				c-0.896,0-1.51,0.548-1.51,1.613v3.908h-1.933v-7.172h1.873v0.784c0.451-0.673,1.14-0.977,2.02-0.977
				c0.414,0,0.848,0.128,1.095,0.337L286.297,469.878z"/>
			<path id="XMLID_331_" style="fill:#222221;" d="M293.965,471.757c0,0.222-0.016,0.488-0.037,0.651h-5.085
				c0.207,1.036,0.933,1.487,1.843,1.487c0.622,0,1.295-0.252,1.813-0.689l1.133,1.243c-0.814,0.748-1.851,1.089-3.057,1.089
				c-2.198,0-3.724-1.496-3.724-3.753c0-2.258,1.48-3.797,3.627-3.797C292.543,467.99,293.958,469.522,293.965,471.757z
				 M288.851,471.091h3.175c-0.178-0.918-0.732-1.437-1.561-1.437C289.554,469.655,289.021,470.203,288.851,471.091z"/>
			<path id="XMLID_328_" style="fill:#222221;" d="M301.619,471.757c0,0.222-0.016,0.488-0.037,0.651h-5.085
				c0.207,1.036,0.933,1.487,1.843,1.487c0.622,0,1.296-0.252,1.814-0.689l1.133,1.243c-0.814,0.748-1.851,1.089-3.058,1.089
				c-2.198,0-3.723-1.496-3.723-3.753c0-2.258,1.48-3.797,3.627-3.797C300.197,467.99,301.611,469.522,301.619,471.757z
				 M296.504,471.091h3.175c-0.178-0.918-0.733-1.437-1.562-1.437C297.208,469.655,296.674,470.203,296.504,471.091z"/>
			<path id="XMLID_325_" style="fill:#222221;" d="M309.964,471.764c0,2.154-1.495,3.775-3.472,3.775
				c-0.962,0-1.643-0.378-2.109-0.933v3.708h-1.925v-10.133h1.888v0.792c0.467-0.585,1.154-0.984,2.139-0.984
				C308.469,467.99,309.964,469.611,309.964,471.764z M304.287,471.764c0,1.133,0.748,1.977,1.844,1.977
				c1.14,0,1.85-0.881,1.85-1.977c0-1.095-0.71-1.976-1.85-1.976C305.035,469.789,304.287,470.632,304.287,471.764z"/>
			<path id="XMLID_322_" style="fill:#222221;" d="M313.068,465.836c0,0.696-0.541,1.229-1.236,1.229
				c-0.696,0-1.228-0.533-1.228-1.229c0-0.695,0.532-1.243,1.228-1.243C312.527,464.592,313.068,465.14,313.068,465.836z
				 M312.808,475.354h-1.932v-7.172h1.932V475.354z"/>
			<path id="XMLID_320_" style="fill:#222221;" d="M316.032,470.736l2.702-2.554h2.368l-3.478,3.375l3.501,3.797h-2.376
				l-2.717-2.901v2.901H314.1v-10.658h1.932V470.736z"/>
		</g>
		<g>
			<path style="fill:#222221;" d="M184.412,475.29v-1.055c-0.527,0.718-1.391,1.23-2.387,1.23c-1.846,0-3.149-1.406-3.149-3.706
				c0-2.256,1.289-3.721,3.149-3.721c0.952,0,1.816,0.469,2.387,1.245v-3.765h1.099v9.771H184.412z M184.412,473.371v-3.208
				c-0.395-0.615-1.245-1.143-2.124-1.143c-1.42,0-2.27,1.172-2.27,2.739c0,1.567,0.85,2.725,2.27,2.725
				C183.167,474.484,184.017,473.986,184.412,473.371z"/>
			<path style="fill:#222221;" d="M186.932,471.745c0-2.051,1.465-3.706,3.486-3.706c2.139,0,3.398,1.67,3.398,3.794v0.278h-5.727
				c0.088,1.333,1.025,2.446,2.549,2.446c0.806,0,1.626-0.322,2.182-0.894l0.527,0.718c-0.703,0.703-1.655,1.084-2.812,1.084
				C188.44,475.465,186.932,473.957,186.932,471.745z M190.403,468.947c-1.509,0-2.256,1.274-2.314,2.358h4.644
				C192.718,470.25,192.015,468.947,190.403,468.947z"/>
			<path style="fill:#222221;" d="M194.607,474.352l0.571-0.791c0.469,0.542,1.362,1.011,2.329,1.011c1.084,0,1.67-0.513,1.67-1.216
				c0-1.714-4.38-0.659-4.38-3.281c0-1.099,0.952-2.036,2.636-2.036c1.202,0,2.051,0.454,2.623,1.025l-0.513,0.762
				c-0.424-0.513-1.201-0.894-2.109-0.894c-0.966,0-1.567,0.483-1.567,1.113c0,1.553,4.379,0.527,4.379,3.281
				c0,1.187-0.952,2.139-2.783,2.139C196.306,475.465,195.325,475.114,194.607,474.352z"/>
			<path style="fill:#222221;" d="M201.477,466.471c0-0.41,0.337-0.747,0.732-0.747c0.41,0,0.747,0.337,0.747,0.747
				c0,0.41-0.337,0.732-0.747,0.732C201.814,467.204,201.477,466.881,201.477,466.471z M201.667,475.29v-7.075h1.099v7.075H201.667z
				"/>
			<path style="fill:#222221;" d="M204.582,477.106l0.556-0.82c0.586,0.703,1.289,0.967,2.3,0.967c1.172,0,2.27-0.571,2.27-2.124
				v-1.011c-0.513,0.718-1.377,1.26-2.373,1.26c-1.846,0-3.149-1.377-3.149-3.662c0-2.271,1.289-3.677,3.149-3.677
				c0.952,0,1.802,0.469,2.373,1.245v-1.069h1.099v6.87c0,2.344-1.641,3.076-3.369,3.076
				C206.237,478.161,205.416,477.925,204.582,477.106z M209.708,473.253v-3.091c-0.381-0.615-1.23-1.143-2.109-1.143
				c-1.421,0-2.27,1.128-2.27,2.695c0,1.553,0.849,2.695,2.27,2.695C208.478,474.411,209.328,473.869,209.708,473.253z"/>
			<path style="fill:#222221;" d="M217.413,475.29v-4.629c0-1.245-0.63-1.641-1.582-1.641c-0.864,0-1.685,0.527-2.094,1.099v5.171
				h-1.099v-7.075h1.099v1.025c0.497-0.586,1.464-1.201,2.519-1.201c1.48,0,2.256,0.747,2.256,2.285v4.966H217.413z"/>
			<path style="fill:#222221;" d="M219.932,471.745c0-2.051,1.465-3.706,3.486-3.706c2.139,0,3.398,1.67,3.398,3.794v0.278h-5.727
				c0.088,1.333,1.025,2.446,2.548,2.446c0.806,0,1.626-0.322,2.183-0.894l0.527,0.718c-0.703,0.703-1.655,1.084-2.813,1.084
				C221.441,475.465,219.932,473.957,219.932,471.745z M223.404,468.947c-1.509,0-2.256,1.274-2.314,2.358h4.643
				C225.718,470.25,225.015,468.947,223.404,468.947z"/>
			<path style="fill:#222221;" d="M233.35,475.29v-1.055c-0.527,0.718-1.392,1.23-2.388,1.23c-1.845,0-3.149-1.406-3.149-3.706
				c0-2.256,1.289-3.721,3.149-3.721c0.952,0,1.817,0.469,2.388,1.245v-3.765h1.098v9.771H233.35z M233.35,473.371v-3.208
				c-0.396-0.615-1.245-1.143-2.124-1.143c-1.421,0-2.27,1.172-2.27,2.739c0,1.567,0.85,2.725,2.27,2.725
				C232.105,474.484,232.954,473.986,233.35,473.371z"/>
			<path style="fill:#222221;" d="M239.692,475.29v-9.771h1.099v3.765c0.571-0.776,1.421-1.245,2.388-1.245
				c1.845,0,3.149,1.465,3.149,3.721c0,2.3-1.304,3.706-3.149,3.706c-0.996,0-1.86-0.513-2.388-1.23v1.055H239.692z M242.9,474.484
				c1.436,0,2.285-1.157,2.285-2.725c0-1.567-0.85-2.739-2.285-2.739c-0.864,0-1.729,0.527-2.109,1.143v3.208
				C241.171,473.986,242.036,474.484,242.9,474.484z"/>
			<path style="fill:#222221;" d="M247.528,477.062c0.161,0.073,0.425,0.117,0.6,0.117c0.483,0,0.806-0.161,1.055-0.747l0.469-1.069
				l-2.959-7.148h1.186l2.358,5.801l2.344-5.801h1.2l-3.544,8.511c-0.425,1.024-1.143,1.421-2.08,1.436
				c-0.234,0-0.6-0.044-0.806-0.104L247.528,477.062z"/>
		</g>
	</g>
</g>
</svg>
