<?xml version="1.0" encoding="utf-8"?>
<!-- Generator: Adobe Illustrator 27.5.0, SVG Export Plug-In . SVG Version: 6.00 Build 0)  -->
<svg version="1.1" xmlns="http://www.w3.org/2000/svg" xmlns:xlink="http://www.w3.org/1999/xlink" x="0px" y="0px"
	 viewBox="0 0 500 500" style="enable-background:new 0 0 500 500;" xml:space="preserve">
<g id="BACKGROUND">
	<rect style="fill:#FFFFFF;" width="500" height="500"/>
</g>
<g id="OBJECTS">
	<g>
		<path d="M389.733,83.119c-0.355,0.228-0.709,0.413-1.058,0.55c0.568,2.889,2.398,4.757,3.85,5.483
			c0.875,0.438,2.633,1.989,4.495,3.632c1.089,0.961,2.475,2.184,3.294,2.793c-0.269,0.61-0.494,1.238-0.676,1.874
			c-0.332,1.149-0.55,2.323-0.7,3.499c-0.152,1.177-0.23,2.359-0.264,3.543c-0.016,0.592-0.019,1.184-0.008,1.777
			c0.012,0.599,0.03,1.175,0.078,1.803l0.008,0.099l0.125,0.302v0c0.536,1.139,0.547,2.606,0.31,4.045
			c-0.117,0.723-0.302,1.45-0.527,2.166c-0.113,0.358-0.237,0.714-0.371,1.063l-0.208,0.519c-0.07,0.166-0.15,0.348-0.216,0.481
			c-0.025,0.05-0.048,0.104-0.068,0.158c-0.309,0.837,0.119,1.765,0.956,2.074c0.837,0.309,1.766-0.119,2.074-0.956l0.011-0.031
			c0.089-0.241,0.152-0.44,0.22-0.655l0.184-0.633c0.116-0.422,0.218-0.845,0.309-1.273c0.177-0.855,0.311-1.724,0.367-2.614
			c0.058-0.888,0.043-1.8-0.104-2.723c-0.134-0.854-0.405-1.725-0.853-2.534c-0.078-0.461-0.147-0.951-0.206-1.431
			c-0.067-0.558-0.122-1.119-0.165-1.682c-0.083-1.124-0.124-2.253-0.093-3.376c0.056-1.829,0.255-3.687,0.854-5.39
			c0.236-0.206,0.544-0.564,0.865-1.206c0.423-0.848-1.492-2.048-3.52-3.32c-1.008-0.632-2.15-1.348-3.197-2.134
			c-0.421-0.315-0.816-0.605-1.187-0.877C392.023,86.467,390.586,85.391,389.733,83.119z M400.862,107.374L400.862,107.374
			L400.862,107.374L400.862,107.374z"/>
		<path d="M366.774,78.855c3.017,0.754,11.094-1.307,12.425-1.657c0.329-0.743,1.587-3.861,1.587-8.192
			c0-0.006,0.003-0.01,0.003-0.016c0-0.006-0.003-0.01-0.003-0.016c0-4.344-1.257-7.451-1.587-8.192
			c-1.329-0.35-9.408-2.411-12.423-1.658c-0.699,0.172-1.297,0.83-1.784,1.947c2.272,1.521,3.819,4.492,3.819,7.903
			c0,0.006-0.003,0.01-0.003,0.016c0,0.006,0.003,0.01,0.003,0.016c0,3.41-1.547,6.382-3.819,7.903
			C365.479,78.025,366.076,78.684,366.774,78.855z"/>
		<path d="M385.733,79.328l0.288-0.336c0.05-0.059,5.029-5.918,5.029-9.986c0-0.006,0.003-0.01,0.003-0.016
			c0-0.006-0.003-0.01-0.003-0.016c0-4.068-4.979-9.928-5.029-9.987l-0.288-0.336l0.346-0.277c0.002-0.002,0.014-0.011,0.018-0.014
			c-0.582,0.056-1.233,0.144-1.912,0.287c-1.802,0.381-3.201,1.01-4.165,1.871c0.413,0.942,1.622,4.072,1.622,8.454
			c0,0.006-0.003,0.01-0.003,0.016c0,0.006,0.003,0.01,0.003,0.016c0,4.382-1.208,7.512-1.622,8.454
			c0.964,0.861,2.364,1.49,4.165,1.871c0.68,0.144,1.331,0.232,1.913,0.287c-0.004-0.003-0.016-0.012-0.018-0.014L385.733,79.328z"
			/>
		<path d="M373.377,79.354c-0.835,2.342-2.152,5.376-3.837,7.062c-1.788,1.788-4.437,4.444-4.56,6.612
			c-0.609,0.145-1.27,0.239-1.91,0.281c-0.43,0.022-0.862,0.03-1.292,0.007c-0.217,0.001-0.429-0.035-0.644-0.053
			c-0.216-0.016-0.429-0.047-0.64-0.091c-0.21-0.045-0.429-0.063-0.634-0.128l-0.626-0.169c-0.205-0.066-0.404-0.149-0.608-0.223
			c-0.207-0.068-0.403-0.16-0.595-0.26c-0.398-0.177-0.769-0.404-1.133-0.646c-0.377-0.225-0.691-0.536-1.045-0.802l-0.065-0.049
			c-0.178-0.135-0.431-0.1-0.566,0.078l0,0c-1.017,0.999-2.12,1.948-3.256,2.767c-0.287,0.201-0.573,0.399-0.866,0.575
			c-0.144,0.095-0.29,0.179-0.437,0.257c-0.147,0.076-0.291,0.171-0.438,0.23c-0.293,0.147-0.579,0.25-0.853,0.335l-0.377,0.071
			c-0.11,0.004-0.194-0.015-0.286-0.006l-0.292,0.03c-0.015,0.002-0.03,0.004-0.046,0.006c-0.639,0.093-1.083,0.687-0.99,1.327
			c0.094,0.64,0.688,1.083,1.327,0.99c0.268-0.039,0.549-0.078,0.794-0.146c0.224-0.083,0.454-0.164,0.663-0.257
			c0.396-0.201,0.761-0.42,1.086-0.659c0.175-0.112,0.317-0.244,0.475-0.366c0.157-0.122,0.307-0.248,0.448-0.379
			c0.294-0.255,0.566-0.523,0.835-0.791c0.95-0.972,1.79-1.995,2.583-3.067c0.225,0.228,0.452,0.456,0.709,0.649
			c0.376,0.308,0.764,0.601,1.189,0.844c0.205,0.134,0.416,0.258,0.639,0.359c0.22,0.106,0.438,0.221,0.662,0.319l0.688,0.262
			c0.228,0.095,0.468,0.143,0.703,0.217c0.235,0.073,0.474,0.132,0.715,0.175c0.241,0.045,0.481,0.108,0.725,0.133
			c0.486,0.075,0.975,0.115,1.466,0.138c0.861,0.025,1.699-0.017,2.58-0.164c0.121,0.123,0.251,0.243,0.404,0.358
			c0.405,0.303,0.844,0.329,1.381,0.08c2.94-1.361,6.688-9.796,7.258-16.154C374.277,79.192,373.83,79.275,373.377,79.354z"/>
		<path d="M354.352,64.015c1.025,0.388,2.625,0.743,4.517,0.266c1.704-0.429,3.195-2.049,4.088-3.228
			c-0.457-0.131-0.929-0.206-1.417-0.206C359.401,60.847,356.461,62.114,354.352,64.015z"/>
		<path d="M358.868,73.697c-1.892-0.476-3.491-0.121-4.516,0.267c2.11,1.9,5.05,3.168,7.188,3.168c0.488,0,0.961-0.075,1.417-0.206
			C362.063,75.746,360.572,74.127,358.868,73.697z"/>
		<path d="M388.047,82.985c0.528-0.159,1.076-0.45,1.635-0.867l0.125-0.085c0.199-0.147,0.394-0.306,0.583-0.471
			c-1.111-0.342-1.987-0.691-2.646-1.002c-0.652-0.004-1.761-0.05-3.021-0.259c0.45,1.268,1.249,2.818,2.477,2.818
			C387.48,83.119,387.765,83.074,388.047,82.985z"/>
		<path d="M387.744,57.418c0.659-0.31,1.535-0.66,2.646-1.002c-0.189-0.165-0.385-0.324-0.583-0.471h-0.002l-0.122-0.085
			c-0.559-0.417-1.107-0.708-1.63-0.866c-0.287-0.091-0.572-0.136-0.852-0.136c-1.227,0-2.027,1.55-2.477,2.818
			C385.983,57.468,387.092,57.422,387.744,57.418z"/>
		<path d="M437.669,78.842c-3.415,0-6.56-0.555-8.633-1.032c-10.275,2.776-20.84,5.309-26.438,5.309
			c-1.871,0-3.535-0.089-5.047-0.228c2.481,2.451,7.504,3.65,15.312,3.65c8.003,0,23.981-4.328,30.804-6.176
			c1.115-0.302,1.96-0.531,2.452-0.654c1.15-0.287,2.458-0.385,3.724-0.48c2.804-0.21,4.506-0.427,4.506-1.671
			c0-0.835-0.217-1.398-0.663-1.724c-1.364-0.994-4.848,0.126-8.217,1.21C442.723,77.929,439.883,78.842,437.669,78.842z"/>
		<path d="M402.598,54.859c5.599,0,16.164,2.533,26.439,5.309c2.073-0.477,5.218-1.032,8.632-1.032c2.214,0,5.053,0.914,7.8,1.797
			c3.369,1.084,6.853,2.204,8.217,1.21c0.447-0.325,0.663-0.889,0.663-1.724c0-1.243-1.702-1.461-4.506-1.671
			c-1.266-0.095-2.574-0.193-3.724-0.48c-0.492-0.123-1.337-0.352-2.452-0.654c-6.823-1.848-22.801-6.177-30.804-6.177
			c-7.807,0-12.83,1.199-15.311,3.65C399.063,54.948,400.727,54.859,402.598,54.859z"/>
		<path d="M388.041,58.228c-0.008,0.004-0.016,0.009-0.025,0.012c-0.467,0.222-0.811,0.417-1.041,0.558
			c1.129,1.392,4.93,6.36,4.93,10.175c0,0.006-0.003,0.01-0.003,0.016c0,0.006,0.003,0.01,0.003,0.016
			c0,3.813-3.797,8.779-4.928,10.173c1.255,0.767,5.858,3.086,15.621,3.086c7.745,0,26.064-5.183,38.186-8.612
			c6.901-1.952,11.887-3.363,13.138-3.363c5.105,0,5.547-1.264,5.561-1.313c0-0.001,0-0.002,0-0.003c0,0.021-0.38-1.283-5.56-1.283
			c-1.251,0-6.237-1.41-13.138-3.363c-12.122-3.43-30.441-8.612-38.186-8.612C394.635,55.714,390.122,57.243,388.041,58.228z"/>
		<path d="M332.572,103.84c0,0,0.078-0.131,0.226-0.378c0.151-0.255,0.37-0.628,0.628-1.1c0.27-0.469,0.564-1.056,0.914-1.723
			c0.321-0.684,0.713-1.436,1.061-2.306c0.377-0.851,0.718-1.816,1.04-2.855c0.13-0.512,0.264-1.038,0.401-1.576
			c0.066-0.292,0.147-0.47,0.219-0.67c0.093-0.219,0.2-0.465,0.315-0.701c0.963-1.923,2.317-3.926,3.693-5.877
			c2.777-3.907,5.796-7.668,8.118-10.425c1.164-1.376,2.159-2.504,2.875-3.258c0.313-0.331,0.56-0.572,0.749-0.746
			c0.258,0.375,0.549,0.738,0.873,1.084c1.102-0.477,3.047-1.032,5.393-0.442c1.971,0.497,3.614,2.249,4.706,3.741
			c2.432-1.156,4.171-4.124,4.171-7.603c0-0.006,0.003-0.01,0.003-0.016c0-0.006-0.003-0.01-0.003-0.016
			c0-3.48-1.739-6.447-4.171-7.603c-1.092,1.492-2.735,3.244-4.706,3.741c-2.346,0.591-4.291,0.035-5.393-0.441
			c-0.324,0.346-0.615,0.709-0.873,1.084c-0.19-0.174-0.437-0.416-0.749-0.746c-0.717-0.754-1.711-1.882-2.875-3.258
			c-2.322-2.757-5.341-6.519-8.118-10.425c-1.375-1.951-2.73-3.954-3.693-5.877c-0.115-0.236-0.222-0.482-0.315-0.701
			c-0.072-0.201-0.153-0.378-0.219-0.67c-0.137-0.538-0.271-1.064-0.401-1.576c-0.322-1.039-0.663-2.004-1.04-2.855
			c-0.348-0.87-0.74-1.622-1.061-2.306c-0.35-0.666-0.644-1.254-0.914-1.722c-0.258-0.472-0.477-0.845-0.628-1.1
			c-0.148-0.246-0.226-0.378-0.226-0.378c-0.007-0.011-0.016-0.026-0.023-0.037c-0.348-0.533-1.061-0.683-1.594-0.336
			c-0.533,0.347-0.683,1.061-0.336,1.594l0.01,0.016c0,0,0.081,0.124,0.233,0.358c0.146,0.227,0.36,0.561,0.625,1.006
			c0.274,0.437,0.574,0.985,0.932,1.608c0.327,0.635,0.73,1.342,1.084,2.141c0.387,0.789,0.731,1.666,1.059,2.593
			c0.144,0.488,0.291,0.989,0.442,1.501c0.061,0.239,0.193,0.569,0.326,0.885c0.133,0.287,0.262,0.552,0.405,0.819
			c1.147,2.084,2.589,4.035,4.064,5.973c2.964,3.854,6.133,7.511,8.576,10.201c1.225,1.342,2.269,2.44,3.035,3.189
			c0.382,0.375,0.698,0.662,0.935,0.857c0.004,0.003,0.006,0.005,0.01,0.008c-0.409,0.783-0.654,1.608-0.654,2.458
			c0,0.006-0.003,0.01-0.003,0.016c0,0.006,0.003,0.01,0.003,0.016c0,0.849,0.244,1.675,0.654,2.458
			c-0.004,0.003-0.006,0.005-0.01,0.007c-0.237,0.195-0.553,0.482-0.935,0.857c-0.766,0.748-1.81,1.846-3.035,3.189
			c-2.443,2.69-5.612,6.348-8.576,10.201c-1.475,1.939-2.917,3.89-4.064,5.973c-0.142,0.267-0.271,0.531-0.405,0.819
			c-0.132,0.316-0.264,0.647-0.326,0.885c-0.151,0.512-0.298,1.014-0.442,1.501c-0.328,0.927-0.672,1.804-1.059,2.593
			c-0.354,0.799-0.757,1.506-1.084,2.141c-0.358,0.623-0.658,1.172-0.932,1.608c-0.266,0.445-0.48,0.779-0.625,1.006
			c-0.152,0.233-0.233,0.357-0.233,0.357l-0.013,0.02c-0.007,0.011-0.013,0.021-0.02,0.033c-0.328,0.546-0.15,1.253,0.395,1.58
			C331.537,104.563,332.244,104.386,332.572,103.84z"/>
		<path d="M352.175,42.231c-0.141-0.132-0.292-0.257-0.448-0.379c-0.158-0.121-0.301-0.253-0.475-0.365
			c-0.325-0.24-0.69-0.458-1.086-0.659c-0.209-0.094-0.439-0.175-0.663-0.257c-0.245-0.068-0.526-0.107-0.794-0.146
			c-0.015-0.002-0.035-0.005-0.05-0.006c-0.643-0.066-1.218,0.403-1.284,1.046c-0.066,0.643,0.403,1.218,1.046,1.283l0.288,0.029
			c0.092,0.009,0.176-0.01,0.286-0.006l0.377,0.071c0.274,0.085,0.56,0.189,0.853,0.336c0.147,0.059,0.291,0.154,0.438,0.23
			c0.147,0.078,0.294,0.162,0.437,0.257c0.293,0.176,0.579,0.375,0.866,0.575c1.137,0.819,2.239,1.768,3.256,2.767l0,0
			c0.134,0.178,0.386,0.213,0.564,0.079l0.067-0.05c0.354-0.266,0.668-0.577,1.045-0.802c0.364-0.243,0.735-0.469,1.133-0.646
			c0.192-0.101,0.388-0.192,0.595-0.26c0.204-0.074,0.403-0.156,0.608-0.223l0.626-0.169c0.205-0.065,0.424-0.084,0.634-0.128
			c0.211-0.044,0.424-0.075,0.64-0.091c0.216-0.018,0.427-0.054,0.644-0.053c0.431-0.023,0.862-0.015,1.292,0.007
			c0.639,0.042,1.301,0.136,1.91,0.281c0.127,2.156,2.772,4.824,4.559,6.611c1.686,1.686,3.003,4.72,3.837,7.062
			c0.452,0.078,0.9,0.161,1.335,0.247c-0.57-6.358-4.319-14.793-7.258-16.154c-0.538-0.249-0.977-0.223-1.382,0.08
			c-0.153,0.115-0.284,0.235-0.404,0.358c-0.882-0.147-1.72-0.189-2.58-0.164c-0.491,0.023-0.981,0.063-1.466,0.138
			c-0.243,0.025-0.484,0.087-0.725,0.133c-0.241,0.043-0.479,0.102-0.715,0.175c-0.235,0.074-0.475,0.121-0.703,0.217l-0.688,0.262
			c-0.224,0.098-0.442,0.213-0.662,0.319c-0.223,0.101-0.434,0.225-0.639,0.359c-0.424,0.243-0.813,0.536-1.189,0.845
			c-0.257,0.193-0.484,0.421-0.709,0.649c-0.793-1.071-1.633-2.095-2.583-3.067C352.741,42.754,352.468,42.486,352.175,42.231z"/>
		<path d="M398.592,19.067c-0.799,0.396-1.126,1.365-0.73,2.164c0.066,0.133,0.145,0.315,0.216,0.481l0.208,0.519
			c0.135,0.35,0.259,0.705,0.371,1.063c0.224,0.716,0.41,1.442,0.527,2.166c0.238,1.438,0.226,2.905-0.31,4.045v0l-0.125,0.302
			l-0.008,0.099c-0.048,0.628-0.066,1.204-0.078,1.803c-0.01,0.593-0.008,1.185,0.008,1.777c0.034,1.183,0.112,2.365,0.264,3.542
			c0.15,1.176,0.368,2.349,0.7,3.499c0.18,0.631,0.403,1.255,0.669,1.861c-0.793,0.604-2.192,1.838-3.288,2.806
			c-1.862,1.643-3.62,3.195-4.495,3.632c-1.452,0.726-3.283,2.594-3.85,5.483c0.348,0.137,0.702,0.321,1.059,0.549
			c0.852-2.271,2.291-3.348,4.578-5.025c0.371-0.272,0.766-0.562,1.187-0.877c1.047-0.785,2.189-1.502,3.197-2.134
			c2.028-1.272,3.946-2.473,3.52-3.32c-0.317-0.635-0.621-0.99-0.862-1.196c-0.602-1.705-0.802-3.567-0.858-5.4
			c-0.03-1.124,0.01-2.253,0.093-3.377c0.043-0.562,0.097-1.123,0.165-1.682c0.059-0.48,0.128-0.97,0.206-1.431
			c0.448-0.808,0.718-1.679,0.853-2.533c0.146-0.923,0.161-1.834,0.104-2.723c-0.056-0.891-0.19-1.759-0.367-2.614
			c-0.09-0.427-0.193-0.851-0.309-1.273l-0.184-0.633c-0.068-0.215-0.131-0.414-0.22-0.656l-0.012-0.033
			c-0.02-0.053-0.042-0.105-0.068-0.156C400.361,18.998,399.392,18.672,398.592,19.067z M400.862,30.605L400.862,30.605
			L400.862,30.605L400.862,30.605z"/>
	</g>
	<g>
		<path d="M366.605,277.645c1.13,4.482,4.826,9.227,6.343,11.038c1.148-0.8,2.547-1.461,4.04-1.908
			C374.711,277.534,368.44,277.457,366.605,277.645z"/>
		<path d="M361.307,293.706c0.648,0.73,1.564,1.173,2.557,1.173c1.626,0,2.987-1.127,3.341-2.676
			c-0.68-0.163-1.464-0.273-2.358-0.273C363.751,291.931,362.508,292.669,361.307,293.706z"/>
		<path d="M363.864,303.746c-0.993,0-1.909,0.444-2.556,1.173c1.201,1.037,2.444,1.776,3.539,1.776c0.894,0,1.678-0.11,2.358-0.273
			C366.852,304.873,365.49,303.746,363.864,303.746z"/>
		<path d="M416.007,324.073c3.01,0.601,6.617,1.077,8.958,0.563c2.341-0.508,4.743,0.315,6.672,0.975
			c2.496,0.855,3.605,1.095,4.11,0.019c0.572,0.17,1.137,0.365,1.687,0.594c2.011,0.811,3.96,1.992,5.514,3.513
			c1.4,1.371,2.498,2.952,3.226,4.772c0.491,1.202,1.311,2.405,2.826,1.908c4.191-1.376-2.038-7.122-3.472-8.205
			c-2.728-2.062-6.257-3.417-9.699-3.702c-0.092-0.272-0.257-0.539-0.517-0.797c-1.797-1.781-6.75-2.596-10.689-1.02
			C421.953,323.757,418.683,324.053,416.007,324.073z"/>
		<path d="M412.763,324.428c0.747-0.029,1.229-0.302,1.471-0.834c0.313-0.688,0.35-1.323,0.113-1.944
			c-0.737-1.93-3.976-3.351-6.341-4.39c-0.442-0.194-0.853-0.376-1.227-0.549c-2.039,0.001-4.005-0.023-5.866-0.097
			C403.501,320.41,409.654,324.55,412.763,324.428z"/>
		<path d="M414.235,275.031c-0.242-0.531-0.724-0.804-1.471-0.833c-3.109-0.122-9.263,4.018-11.848,7.813
			c1.861-0.073,3.827-0.098,5.866-0.097c0.373-0.173,0.785-0.355,1.227-0.549c2.365-1.038,5.603-2.46,6.341-4.39
			C414.585,276.356,414.548,275.719,414.235,275.031z"/>
		<path d="M423.317,332.574c-1.345-2.08-6.105-3.964-10.227-3.277c-2.849,0.471-6.115,0.056-8.734-0.5
			c2.7,1.179,6.217,2.473,8.653,2.473c2.393,0,4.563,1.315,6.306,2.373c2.254,1.367,3.285,1.838,4.011,0.896
			c0.523,0.288,1.034,0.6,1.523,0.941c1.791,1.221,3.444,2.792,4.636,4.61c1.076,1.64,1.808,3.417,2.133,5.351
			c0.236,1.353,0.916,2.813,2.6,2.426c4.029-0.925-0.818-7.563-2.108-8.967c-2.257-2.455-5.243-4.447-8.46-5.437
			C423.62,333.177,423.516,332.881,423.317,332.574z"/>
		<path d="M380.083,299.323c0-0.004,0.002-0.007,0.002-0.01s-0.002-0.007-0.002-0.01c0-0.305,0.058-6.992,4.022-11.953
			c-2.083-0.409-4.279-0.334-6.403,0.23c-1.712,0.454-3.327,1.217-4.546,2.147c-1.201,0.926-1.92,1.934-1.92,2.695v6.881
			c0,0.004-0.002,0.007-0.002,0.01s0.002,0.007,0.002,0.01v6.881c0,0.762,0.718,1.77,1.922,2.697
			c1.218,0.928,2.832,1.69,4.544,2.145c2.124,0.564,4.321,0.639,6.403,0.23C380.141,306.316,380.083,299.628,380.083,299.323z"/>
		<path d="M390.318,284.434c-0.012,0.002-0.023-0.002-0.035-0.001c-1.869,0.582-3.379,1.371-4.446,2.439
			c-4.716,4.717-4.771,12.354-4.771,12.431c0,0.004-0.002,0.006-0.002,0.01c0,0.004,0.002,0.007,0.002,0.01
			c0,0.077,0.062,7.722,4.771,12.431c1.068,1.068,2.579,1.857,4.448,2.439c0.012,0.001,0.022-0.003,0.034-0.001
			c0.04,0.007,0.074,0.026,0.11,0.042c4.09,1.239,9.862,1.505,16.475,1.496c0.003,0,0.005,0,0.008,0
			c2.521-0.004,5.157-0.045,7.876-0.089c2.943-0.048,5.986-0.098,9.038-0.098c3.664,0,6.492-0.82,8.688-2.083
			c-13.062-12.636-33.112-13.635-33.315-13.644c-0.25-0.011-0.438-0.21-0.461-0.451c-0.002-0.014-0.009-0.026-0.01-0.04
			c0-0.004,0.002-0.007,0.002-0.01s-0.002-0.007-0.002-0.01c0.001-0.014,0.008-0.026,0.01-0.04c0.022-0.243,0.21-0.441,0.461-0.451
			c0.203-0.009,20.253-1.008,33.315-13.644c-2.196-1.264-5.024-2.084-8.688-2.084c-3.052,0-6.095-0.05-9.037-0.098
			c-2.719-0.045-5.355-0.086-7.876-0.089c-0.003,0-0.005,0-0.008,0c-6.611-0.009-12.38,0.257-16.47,1.494
			C390.395,284.407,390.36,284.427,390.318,284.434z"/>
		<path d="M398.079,278.6c2.724-1.987,6.457-4.71,4.881-7.26l-0.199-0.287c-0.508-0.632-1.4-0.672-2.65-0.122
			c-3.959,1.744-9.46,8.536-9.423,12.384c1.126-0.309,2.351-0.557,3.674-0.749c0.369-0.822,0.897-1.592,1.592-2.287
			C396.429,279.804,397.194,279.246,398.079,278.6z"/>
		<path d="M435.179,299.323c0-0.004,0.002-0.007,0.002-0.01c0-0.004-0.002-0.007-0.002-0.01c0-6.938-4.957-9.485-6.077-9.972
			c-9.001,6.644-19.701,9.1-25.538,9.982c5.837,0.882,16.537,3.338,25.538,9.982C430.221,308.809,435.179,306.262,435.179,299.323z"
			/>
		<path d="M400.111,327.694c1.179,0.519,2.039,0.512,2.56-0.02v-0.024l0.168-0.174l0.131-0.206c1.567-2.535-2.166-5.256-4.89-7.244
			c-0.886-0.646-1.651-1.204-2.126-1.68c-0.694-0.694-1.223-1.464-1.592-2.287c-1.322-0.191-2.547-0.44-3.673-0.748
			C390.657,319.159,396.152,325.95,400.111,327.694z"/>
		<path d="M366.606,320.98c1.837,0.181,8.111,0.082,10.383-9.128c-1.494-0.448-2.893-1.108-4.04-1.908
			C371.432,311.754,367.737,316.496,366.606,320.98z"/>
		<path d="M436.162,299.303c0,0.004-0.002,0.007-0.002,0.01c0,0.004,0.002,0.007,0.002,0.01c0,6.679-4.388,9.679-6.188,10.63
			c1.171,0.912,2.307,1.9,3.397,2.967c6.551-4.462,6.671-13.107,6.671-13.597c0-0.003,0.002-0.006,0.002-0.01
			s-0.002-0.007-0.002-0.01c0-0.49-0.119-9.135-6.671-13.597c-1.089,1.067-2.226,2.055-3.396,2.967
			C431.775,289.624,436.162,292.624,436.162,299.303z"/>
		<path d="M332.939,329.852c0.644-2.322,1.408-4.614,2.248-6.871c1.92-5.16,4.241-10.578,7.973-14.709
			c0.94-1.041,2.004-1.998,3.236-2.682c1.135-0.63,2.368-0.83,3.626-1.071c2.734-0.524,5.575-1.223,8.377-1.108
			c0.495,0.02,0.965,0.033,1.451,0.136c0.014,0.003,0.026,0,0.039,0.002c0.221,0.236,0.447,0.468,0.676,0.691
			c0.833-0.932,2.027-1.476,3.299-1.476c2.069,0,3.807,1.418,4.283,3.378c1.131-0.407,1.83-0.918,2.106-1.145v-5.672
			c0-0.004,0.002-0.007,0.002-0.01s-0.002-0.007-0.002-0.01v-5.673c-0.276-0.228-0.975-0.738-2.106-1.145
			c-0.476,1.959-2.214,3.378-4.283,3.378c-1.272,0-2.467-0.544-3.299-1.477c-0.25,0.244-0.495,0.498-0.736,0.756
			c-0.6-0.069-1.609,0.081-1.759,0.087c-1.295,0.099-2.798-0.165-4.078-0.361c-1.444-0.221-2.88-0.551-4.315-0.826
			c-1.374-0.263-2.626-0.559-3.818-1.327c-1.103-0.711-2.063-1.627-2.923-2.613c-1.932-2.212-3.43-4.789-4.733-7.411
			c-2.253-4.534-4.064-9.381-5.362-14.276c-0.272-1.006-1.509-1.441-2.338-0.791c-0.643,0.504-0.62,1.242-0.388,1.937
			c0.762,2.281,1.641,4.527,2.591,6.736c2.196,5.103,4.79,10.308,8.574,14.435c1.889,2.06,4.037,3.625,6.779,4.283
			c2.966,0.405,5.884,0.781,8.873,0.945c0.374,0.021,1.358,0.091,2.165,0.002c-1.062,1.237-1.965,2.495-2.518,3.352
			c0.567,0.878,1.5,2.176,2.598,3.443c-0.845-0.137-1.741-0.116-2.57-0.071c-2.93,0.16-6.016,0.32-8.88,1.007
			c-5.466,1.31-9.055,7.035-11.603,11.62c-2.475,4.452-4.543,9.217-6.111,14.066c-0.294,0.899,0.348,1.864,1.293,1.935
			C332.262,331.383,332.717,330.651,332.939,329.852z"/>
		<path d="M339.986,339.198c0.746-2.189,1.797-4.262,2.971-6.248c1.333-2.256,3.114-4.437,5.255-5.967
			c1.893-1.353,3.809-2.078,6.08-2.498c0.102-0.019,0.189-0.056,0.267-0.102c0.069,0.061,0.143,0.095,0.145,0.095
			c0-0.005,5.363,1.026,11.971-2.86c-2.352-0.44-7.613-1.159-10.259,0.576c-0.921,0.603-1.412,1.06-1.673,1.387
			c-0.101-0.077-0.257-0.118-0.475-0.093c-1.029,0.114-2.013,0.234-3.013,0.513c-2.285,0.638-4.471,1.898-6.203,3.522
			c-3.445,3.232-6.172,7.315-7.838,11.746c-0.384,0.992,0.569,2.032,1.592,1.724C339.614,340.749,339.752,339.89,339.986,339.198z"
			/>
		<path d="M353.076,275.005c0.429,0.044,0.857,0.097,1.285,0.145c0.147,0.016,0.275-0.033,0.376-0.114
			c0.26,0.327,0.75,0.787,1.68,1.397c2.646,1.734,7.907,1.016,10.259,0.576c-6.481-3.81-11.768-2.892-12.029-2.843
			c0.004-0.001-0.024,0.016-0.058,0.043c-0.51-0.278-1.384-0.249-1.884-0.359c-2.317-0.512-4.314-1.951-6.043-3.504
			c-3.346-3.005-5.669-7.574-6.977-11.827c-0.274-0.925-1.467-1.247-2.163-0.571c-0.74,0.719-0.221,1.634,0.1,2.407
			c0.96,2.282,2.229,4.419,3.63,6.453C343.945,270.718,348.163,274.501,353.076,275.005z"/>
		<path d="M431.741,252.484c-0.257,1.474-0.564,2.906-1.227,4.262c-1.494,3.057-4.146,5.741-7.184,7.347
			c-0.725-0.949-1.757-0.478-4.015,0.891c-1.743,1.057-3.913,2.373-6.306,2.373c-2.436,0-5.953,1.293-8.653,2.473
			c2.619-0.557,5.884-0.971,8.733-0.5c4.122,0.687,8.883-1.198,10.227-3.278c0.199-0.308,0.303-0.604,0.334-0.89
			c0.535-0.173,1.063-0.367,1.578-0.59c1.962-0.85,3.849-1.977,5.436-3.421c1.595-1.373,2.935-3.092,3.882-4.969
			c0.613-1.261,1.842-3.248,0.886-4.607C434.354,250.04,432.047,250.723,431.741,252.484z"/>
		<path d="M446.477,263.377c-0.671,1.386-1.168,2.753-2.141,3.982c-2.111,2.667-5.275,4.722-8.586,5.642
			c-0.504-1.083-1.612-0.843-4.113,0.014c-1.93,0.661-4.331,1.483-6.671,0.976c-2.343-0.515-5.949-0.039-8.959,0.562
			c2.675,0.02,5.945,0.316,8.616,1.382c3.94,1.576,8.893,0.761,10.689-1.02c0.261-0.259,0.426-0.526,0.518-0.799
			c0.56-0.055,1.118-0.132,1.67-0.24c2.231-0.437,4.363-1.219,6.338-2.345c1.844-1.052,3.427-2.471,4.76-4.114
			c0.863-1.064,2.315-2.706,1.597-4.168C449.436,261.701,447.129,261.782,446.477,263.377z"/>
	</g>
	<g>
		<path d="M269.456,298.611c0.066-0.08,0.215-0.281,0.162-0.408c-0.137-0.269-0.334-0.403-0.635-0.466
			c-0.92-0.191-2.602,0.305-4.228,0.786c-0.571,0.169-1.153,0.34-1.726,0.492c-1.049,0.276-2.208,0.418-3.434,0.427
			c-0.115,0.264-0.256,0.521-0.453,0.762c-0.156,0.191-0.339,0.368-0.539,0.536C263.847,301.533,268.459,299.822,269.456,298.611z"
			/>
		<path d="M247.381,292.144c0.002,0,0.004-0.001,0.006-0.001c1.38,0,3.049-0.258,4.522-0.487c1.068-0.165,2.001-0.306,2.752-0.349
			c-0.23-0.974-0.772-1.811-1.286-2.429c-1.266,0.967-3.385,1.555-5.986,1.555c-0.002,0-0.004,0.001-0.005,0.001
			c-2.602,0-4.721-0.587-5.988-1.555c-0.515,0.617-1.056,1.456-1.286,2.429c0.75,0.043,1.684,0.183,2.752,0.349
			C244.333,291.885,246.002,292.144,247.381,292.144z"/>
		<path d="M235.173,299.443c-1.231-0.013-2.384-0.15-3.433-0.427c-0.573-0.151-1.154-0.323-1.725-0.492
			c-1.626-0.48-3.307-0.977-4.229-0.786c-0.3,0.062-0.496,0.197-0.6,0.41c-0.087,0.182,0.061,0.383,0.128,0.464
			c0.998,1.21,5.611,2.92,10.852,2.129c-0.2-0.168-0.382-0.345-0.539-0.536C235.428,299.965,235.288,299.707,235.173,299.443z"/>
		<path d="M235.827,297.788c-0.142,0.71,0.009,1.323,0.461,1.875c0.425,0.518,1.093,0.949,1.917,1.306
			c0.09,0.002,0.168,0.04,0.236,0.094c2.404,0.968,5.999,1.345,8.94,1.345c0.002,0,0.004-0.001,0.006-0.001
			c4.079,0,9.433-0.719,11.095-2.746c0.452-0.551,0.603-1.165,0.461-1.875c-0.717-3.587-2.123-5.644-3.858-5.644
			c-0.736,0-1.857,0.174-3.045,0.358c-1.502,0.233-3.205,0.497-4.65,0.497c-0.002,0-0.004,0.001-0.007,0.001
			c-1.446,0-3.15-0.264-4.653-0.497c-1.187-0.185-2.309-0.358-3.045-0.358C237.951,292.144,236.545,294.201,235.827,297.788z"/>
		<path d="M219.868,330.83c-0.587,0.902-0.546,1.341-0.502,1.487l0.019,0.062c0.012,0.025,0.033,0.056,0.072,0.094
			c0.181,0.181,0.382,0.284,0.617,0.315c1.276,0.195,3.422-1.51,5.493-3.16c0.621-0.495,1.253-0.997,1.884-1.472
			c2.351-1.767,5.076-2.731,6.672-3.188v-1.875C227.121,324.098,221.594,328.178,219.868,330.83z"/>
		<path d="M274.413,290.559c0.337-1.327,2.112-3.389,2.167-3.419c0.421-0.232,0.867-0.423,1.315-0.594
			c1.172-0.46,2.417-0.761,3.672-0.872c1.154-0.102,2.366-0.046,3.486,0.271c0.741,0.187,1.559,0.225,1.936-0.608
			c1.19-2.629-4.095-1.806-5.123-1.578c-1.704,0.377-3.398,1.112-4.866,2.107c-1.713-0.011-2.804,2.141-3.974,5.553
			c-0.769,2.228-2.356,4.509-3.273,5.718c0.102,0.061,0.194,0.132,0.278,0.211C272.339,295.443,273.915,292.542,274.413,290.559z"/>
		<path d="M219.6,333.548c-0.161-0.055-0.314-0.132-0.457-0.231c-1.095,4.054-0.221,9.158,1.25,12.098
			c0.903,1.801,0.902,4.024,0.902,5.647c0,0.407,0.001,0.893,0.027,1.281c-0.013,0.023-0.029,0.042-0.039,0.069
			c-0.179,0.5-0.398,0.987-0.633,1.464c-0.734,1.489-1.651,2.873-2.739,4.126c-1.049,1.208-2.319,2.28-3.719,3.058
			c-0.84,0.466-2.015,0.926-1.627,2.151c0.982,3.099,5.378-2.085,6.088-3.034c1.66-2.216,2.96-4.886,3.482-7.62
			c0.002-0.017-0.003-0.029-0.002-0.046c1.989-1.703,0.712-5.513-0.809-9.314C219.945,339.761,219.66,335.276,219.6,333.548z"/>
		<path d="M275.313,332.472c0.044-0.044,0.065-0.077,0.077-0.104l0.014-0.051c0.045-0.147,0.085-0.585-0.502-1.487
			c-1.726-2.652-7.253-6.733-14.256-7.737v1.874c1.597,0.457,4.321,1.421,6.672,3.188c0.631,0.474,1.262,0.977,1.883,1.471
			c2.072,1.649,4.221,3.356,5.486,3.162C274.93,332.756,275.132,332.653,275.313,332.472z"/>
		<path d="M241.395,332.356c2.515,0,4.568-0.881,5.56-1.403v9.957c-5.748,0.111-8.597,2.455-9.931,4.183
			c-1.215-2.138-2.045-5.004-2.045-8.896v-5.32C236.134,331.382,238.743,332.356,241.395,332.356z"/>
		<path d="M259.786,330.877v5.32c0,3.884-0.821,6.758-2.045,8.888c-0.684-0.881-1.77-1.925-3.43-2.755
			c-1.591-0.779-3.704-1.369-6.501-1.42v-9.957c0.992,0.522,3.045,1.403,5.56,1.403
			C256.031,332.356,258.631,331.373,259.786,330.877z"/>
		<path d="M246.955,309.74v3.268c-2.198-1.968-8.186-2.044-11.976-2.044v-0.428c0-0.188,0.06-4.705,5.56-4.705
			C245.911,305.831,246.869,309.372,246.955,309.74z"/>
		<path d="M259.786,310.535v0.428c-3.789,0-9.769,0.077-11.976,2.044v-3.268c0.086-0.367,1.052-3.909,6.415-3.909
			C259.7,305.831,259.786,310.348,259.786,310.535z"/>
		<path d="M246.955,314.812v4.884c-0.633,0.376-2.823,1.531-5.56,1.531c-2.78,0-5.603-1.189-6.416-1.557v-7.853
			C238.889,311.819,246.955,311.93,246.955,314.812z"/>
		<path d="M259.786,311.819v7.853c-0.804,0.367-3.627,1.557-6.415,1.557c-2.737,0-4.927-1.155-5.56-1.531v-4.884
			C247.811,311.93,255.885,311.819,259.786,311.819z"/>
		<path d="M265.889,310.336c1.933,0.57,3.76,1.109,4.833,0.891c0.379-0.076,0.607-0.226,0.739-0.485l0.05-0.099
			c0.05-0.121-0.065-0.317-0.172-0.454c-0.998-1.29-5.792-3.215-11.601-2.572c0.367,0.593,0.588,1.188,0.717,1.69
			c1.225,0.033,2.432,0.194,3.508,0.481C264.602,309.957,265.25,310.148,265.889,310.336z"/>
		<path d="M246.955,341.766v9.384c-1.497-0.103-6.398-0.779-9.444-5.278C238.641,344.281,241.275,341.877,246.955,341.766z"/>
		<path d="M257.254,345.863c-1.762,2.6-4.14,3.927-6.125,4.602c-1.454,0.496-2.694,0.642-3.319,0.684v-9.384
			C253.49,341.877,256.125,344.281,257.254,345.863z"/>
		<path d="M241.395,322.083c2.515,0,4.568-0.881,5.56-1.403v9.289c-0.633,0.377-2.823,1.531-5.56,1.531
			c-2.78,0-5.603-1.189-6.416-1.557v-9.332C236.134,321.108,238.743,322.083,241.395,322.083z"/>
		<path d="M259.786,320.612v9.332c-0.804,0.368-3.627,1.557-6.415,1.557c-2.737,0-4.927-1.155-5.56-1.531v-9.289
			c0.992,0.522,3.045,1.403,5.56,1.403C256.031,322.083,258.631,321.108,259.786,320.612z"/>
		<path d="M223.43,310.189c-0.107,0.138-0.221,0.334-0.16,0.48l0.04,0.077c0.131,0.257,0.358,0.407,0.736,0.482
			c1.077,0.218,2.901-0.32,4.834-0.891c0.639-0.188,1.288-0.38,1.927-0.549c1.075-0.287,2.283-0.448,3.507-0.481
			c0.129-0.501,0.35-1.098,0.717-1.69C229.222,306.974,224.429,308.899,223.43,310.189z"/>
		<path d="M247.383,303.264c-1.125,0-5.573-0.083-8.833-1.25c-0.114,1.165-0.03,2.288,0.093,3.161
			c0.563-0.123,1.185-0.201,1.897-0.201c4.328,0,6.137,2.182,6.845,3.547c0.708-1.365,2.516-3.548,6.846-3.548
			c0.71,0,1.33,0.077,1.891,0.2c0.126-0.887,0.2-2.008,0.082-3.155c-3.257,1.16-7.689,1.244-8.814,1.244
			C247.387,303.263,247.385,303.264,247.383,303.264z"/>
		<path d="M215.104,324.71c1.874-0.082,3.104-2.522,4.415-6.357c0.889-2.579,2.713-5.167,3.746-6.509
			c-0.151-0.081-0.286-0.177-0.402-0.292c-2.648,2.163-4.455,5.482-5.022,7.745c-0.423,1.669-1.656,3.096-2.555,4.138
			c-0.188,0.218-0.395,0.459-0.569,0.676c-0.073,0-0.149,0.013-0.228,0.057c-0.384,0.215-0.788,0.396-1.193,0.564
			c-1.423,0.589-2.931,0.987-4.466,1.13c-1.313,0.122-2.692,0.066-3.968-0.289c-0.82-0.201-1.735-0.246-2.126,0.695
			c-1.168,2.815,4.487,1.931,5.639,1.689c2.361-0.495,4.741-1.573,6.622-3.097C215.046,324.813,215.08,324.762,215.104,324.71z"/>
		<path d="M209.315,286.047c0.836-0.212,1.664-0.381,2.529-0.411c2.167-0.073,4.465,0.475,6.369,1.518
			c0.051,0.029,1.808,2.085,2.143,3.405c0.498,1.982,2.073,4.881,4.379,6.786c0.082-0.079,0.175-0.149,0.28-0.21
			c-0.917-1.21-2.503-3.49-3.271-5.715c-1.19-3.471-2.304-5.638-4.007-5.579c-0.043-0.028-0.083-0.062-0.126-0.09
			c-0.993-0.634-2.057-1.164-3.171-1.55c-1.344-0.465-2.738-0.727-4.16-0.75c-0.834-0.013-2.049-0.099-2.483,0.788
			C207.304,285.248,208.266,286.313,209.315,286.047z"/>
		<path d="M281.435,361.51c-1.187-0.724-2.327-1.353-3.375-2.289c-2.027-1.81-3.703-4.311-4.598-6.881
			c-0.002-0.006-0.006-0.009-0.008-0.015c0.021-0.381,0.021-0.861,0.021-1.264c0-1.623-0.001-3.846,0.902-5.647
			c1.47-2.94,2.344-8.044,1.249-12.098c-0.143,0.099-0.296,0.176-0.458,0.23c-0.059,1.727-0.344,6.213-1.723,9.652
			c-1.525,3.813-2.807,7.637-0.799,9.325c0,0.034-0.006,0.066,0.001,0.102c0.095,0.477,0.223,0.948,0.366,1.413
			c0.485,1.58,1.156,3.119,2.018,4.532c0.88,1.443,1.949,2.88,3.259,3.964c0.702,0.647,1.923,1.917,2.997,1.586
			C282.619,363.71,282.448,362.128,281.435,361.51z"/>
		<path d="M290.637,325.41c-0.961,0.077-1.889,0.42-2.866,0.486c-2.53,0.172-5.298-0.513-7.512-1.742
			c-0.074-0.043-0.146-0.055-0.215-0.055c-0.172-0.214-0.376-0.452-0.561-0.666c-0.9-1.042-2.132-2.469-2.555-4.138
			c-0.568-2.264-2.375-5.583-5.022-7.746c-0.116,0.115-0.251,0.211-0.402,0.292c1.033,1.342,2.857,3.93,3.745,6.508
			c1.312,3.837,2.545,6.279,4.418,6.358c0.026,0.059,0.064,0.115,0.123,0.164c0.306,0.249,0.632,0.476,0.961,0.693
			c1.19,0.781,2.48,1.425,3.828,1.884c1.376,0.468,2.88,0.826,4.343,0.813c0.859,0.038,2.274,0.171,2.89-0.564
			C292.59,326.77,291.845,325.315,290.637,325.41z"/>
		<path d="M297.534,269.625c-0.401-3.954-2.117-7.755-5.308-10.226c-3.281-2.541-7.511-3.533-11.571-3.886
			c-4.391-0.381-8.842-0.103-13.002,1.439c-9.533,3.534-15.134,12.793-17.87,22.14c-0.145,0.494-0.285,0.991-0.416,1.489
			c-0.605-0.256-1.264-0.413-1.979-0.413c-0.002,0-0.003,0.001-0.005,0.001c-0.715,0-1.373,0.157-1.979,0.413
			c-0.031-0.109-0.061-0.215-0.089-0.316c-1.21-4.514-2.999-8.931-5.579-12.842c-2.787-4.226-6.536-7.835-11.205-9.897
			c-4.929-2.177-10.401-2.537-15.702-1.877c-4.846,0.604-9.795,2.287-12.807,6.352c-2.637,3.558-3.468,8.62-2.654,12.937
			c0.328,1.81,3.116,1.053,2.501-0.702c-0.553-1.578-0.758-3.308-0.724-4.974c0.081-4.055,1.942-7.79,5.376-10.02
			c3.509-2.279,7.821-2.911,11.924-3.002c4.151-0.092,8.39,0.647,12.071,2.636c8.291,4.478,12.665,14.061,13.398,23.154
			c0.043,0.535,0.014,1.106,0.145,1.627c-0.711,1.157-1.092,2.308-1.092,2.926c0,0.47,0.221,0.941,0.654,1.366
			c0.006,0.005,0.014,0.007,0.02,0.013c0.005,0.004,0.007,0.011,0.011,0.015c0.949,0.908,2.877,1.6,5.729,1.6
			c0.002,0,0.003-0.001,0.005-0.001c2.852,0,4.78-0.692,5.73-1.6c0.005-0.005,0.006-0.011,0.011-0.016
			c0.006-0.005,0.014-0.007,0.02-0.012c0.433-0.425,0.654-0.896,0.654-1.366c0-0.623-0.387-1.786-1.108-2.952
			c0.051-0.168,0.087-0.345,0.094-0.533c0.157-4.303,1.295-8.692,3.07-12.601c1.986-4.373,5.004-8.292,9.102-10.868
			c4.384-2.756,9.563-3.633,14.673-3.343c4.84,0.275,10.171,1.483,13.38,5.426c2.759,3.39,3.346,8.49,1.874,12.565
			c-0.612,1.74,2.202,2.448,2.527,0.598C297.714,273.156,297.71,271.356,297.534,269.625z"/>
	</g>
	<g>
		<path d="M332.456,181.78c-0.006,0-0.011,0.004-0.018,0.004c-2.378,0-4.619-1.102-6.593-2.852
			c-0.552,1.048-0.857,2.214-0.857,3.424c0,2.682,1.325,6.5,3.15,9.079c0.959,1.348,2.485,2.956,4.3,2.956
			c0.006,0,0.012,0.003,0.018,0.004c0.006,0,0.012-0.004,0.018-0.004c1.816,0,3.341-1.608,4.302-2.957
			c1.824-2.578,3.149-6.396,3.149-9.078c0-1.211-0.305-2.376-0.857-3.424c-1.975,1.75-4.215,2.852-6.594,2.852
			C332.468,181.783,332.462,181.78,332.456,181.78z"/>
		<path d="M304.501,218.653c7.623-8.575,15.312-35.815,17.574-44.307c-2.454-3.957-3.964-8.783-3.964-12.622
			c0-4.297,1.911-8.148,4.917-10.777c-2.703,0.42-4.705,2.083-7.734,4.618c-5.578,4.667-14.007,11.719-35.389,19.307
			c-19.601,6.95-31.862,32.386-33.79,43.828c-0.584,3.467-0.323,5.932,0.717,6.764c0.841,0.671,2.089-0.085,4.226-1.479
			c3.515-2.295,8.825-5.763,16.304-2.024c19.443,9.722,25.678,8.361,32.236,1.99c0.004-0.004,0.005-0.009,0.009-0.013
			c0.003-0.003,0.008-0.004,0.012-0.007c1.424-1.386,2.864-3.003,4.458-4.798L304.501,218.653z"/>
		<path d="M332.474,148.542c-0.006,0-0.012-0.003-0.018-0.003c-0.006,0-0.011,0.003-0.018,0.003
			c-7.268,0-13.181,5.913-13.181,13.181c0,7.296,6.033,18.913,13.181,18.913c0.006,0,0.012,0.003,0.018,0.004
			c0.006,0,0.012-0.004,0.018-0.004c7.149,0,13.181-11.617,13.181-18.913C345.655,154.455,339.742,148.542,332.474,148.542z"/>
		<path d="M326.134,194.963c0-1.124,0.309-2.21,0.868-3.177c-1.841-2.744-3.16-6.642-3.16-9.432c0-1.506,0.407-2.955,1.145-4.236
			c-0.736-0.752-1.427-1.594-2.067-2.497c-2.566,9.498-10.048,35.34-17.562,43.793l-0.424,0.477
			c-1.455,1.638-2.793,3.139-4.116,4.465c2.214,2.104,6.462,4.42,14.428,4.42c12.956,0,16.083-17.469,16.554-20.737
			C328.249,206.996,326.134,197.54,326.134,194.963z"/>
		<path d="M418.798,218.699c-1.929-11.442-14.189-36.877-33.79-43.828c-21.382-7.588-29.811-14.641-35.389-19.307
			c-3.029-2.535-5.031-4.198-7.734-4.618c3.006,2.628,4.917,6.48,4.917,10.777c0,3.839-1.51,8.665-3.964,12.622
			c2.262,8.492,9.951,35.732,17.574,44.307l0.425,0.478c1.595,1.796,3.034,3.413,4.458,4.798c0.004,0.003,0.008,0.004,0.012,0.007
			c0.004,0.004,0.006,0.01,0.01,0.013c6.558,6.37,12.792,7.732,32.236-1.99c7.479-3.738,12.79-0.271,16.304,2.024
			c2.136,1.394,3.385,2.152,4.227,1.479C419.121,224.632,419.383,222.166,418.798,218.699z"/>
		<path d="M337.632,194.963c0-0.749-0.163-1.48-0.47-2.154c-1.462,1.785-3.069,2.727-4.688,2.727c-0.006,0-0.012-0.003-0.018-0.004
			c-0.006,0-0.011,0.004-0.018,0.004c-1.619,0-3.227-0.942-4.688-2.727c-0.306,0.674-0.47,1.405-0.47,2.154
			c0,3.187,2.565,12.035,5.158,12.035c0.006,0,0.012,0.003,0.018,0.004c0.006,0,0.012-0.004,0.018-0.004
			C335.067,206.998,337.632,198.15,337.632,194.963z"/>
		<path d="M359.555,219.415c-7.514-8.452-14.996-34.294-17.562-43.793c-0.641,0.903-1.332,1.745-2.068,2.497
			c0.738,1.281,1.145,2.73,1.145,4.236c0,2.79-1.32,6.689-3.16,9.432c0.559,0.967,0.868,2.053,0.868,3.177
			c0,2.577-2.114,12.032-5.664,13.077c0.473,3.269,3.607,20.737,16.553,20.737c7.966,0,12.214-2.316,14.428-4.42
			c-1.323-1.326-2.661-2.826-4.116-4.465L359.555,219.415z"/>
		<path d="M323.05,143.076c1.344,0.863,2.682,1.633,4.129,2.308c0.079,0.037,0.273,0.148,0.515,0.274
			c-0.663,0.947-1.148,2.038-1.384,3.134c1.861-0.886,3.934-1.396,6.128-1.396c0.006,0,0.012,0.003,0.018,0.003
			c0.006,0,0.012-0.003,0.018-0.003c2.194,0,4.267,0.51,6.128,1.396c-0.237-1.101-0.725-2.197-1.393-3.146
			c0.091-0.052,0.18-0.103,0.254-0.137c0.619-0.288,1.254-0.555,1.861-0.868c1.289-0.665,2.706-1.527,3.789-2.494
			c2.134-1.732,4.107-3.644,5.621-5.965c3.467-5.312,5.279-11.839,4.935-18.189c-0.071-1.225-1.409-2.012-2.509-1.443
			c-1.122,0.579-0.892,1.691-0.815,2.715c0.473,6.292-1.118,13.29-5.096,18.303c-1.41,1.777-2.971,3.41-4.82,4.74
			c-1.245,0.896-2.493,1.667-3.833,2.413c-0.027,0.015-0.067,0.033-0.1,0.048c-1.091-1.171-2.493-1.959-4.024-1.959
			c-0.006,0-0.012-0.003-0.018-0.003c-0.006,0-0.011,0.003-0.018,0.003c-1.495,0-2.868,0.749-3.947,1.874
			c-0.633-0.344-1.375-0.629-1.662-0.788c-1.219-0.678-2.412-1.542-3.477-2.445c-1.749-1.482-3.279-3.209-4.539-5.122
			c-3.411-5.182-4.936-11.823-4.149-17.989c0.163-1.116-0.802-2.114-1.926-1.967c-1.35,0.176-1.515,1.443-1.532,2.545
			c-0.1,6.599,1.947,13.335,5.962,18.588C318.788,139.626,320.796,141.627,323.05,143.076z"/>
	</g>
	<g>
		<path d="M103.01,220.865c-0.289,1.149-0.316,2.644-0.081,4.444c0.027,0.213,0.053,0.415,0.088,0.617
			c0.151,0.94,0.34,1.769,0.5,2.396c2.608-0.731,4.443-0.756,4.501-0.756c0.058,0,1.893,0.026,4.501,0.756
			c0.16-0.626,0.35-1.455,0.499-2.39c0.036-0.208,0.062-0.41,0.089-0.62c0.236-1.802,0.208-3.297-0.081-4.445
			c-0.051-0.201-0.118-0.384-0.194-0.558c1.659-2.859,2.694-8.139,1.832-11.584c-0.908-3.632-3.014-4.313-3.014-4.313
			s-0.199,0.908,1.618,4.54c1.535,3.069-0.875,8.473-1.661,10.079c-0.666-0.293-1.463-0.279-2.125,0.086
			c-0.642,0.355-1.01,0.952-1.01,1.64c0,0.25-0.203,0.454-0.454,0.454c-0.251,0-0.454-0.204-0.454-0.454
			c0-0.687-0.368-1.285-1.01-1.64c-0.662-0.366-1.459-0.379-2.125-0.086c-0.786-1.606-3.196-7.01-1.661-10.079
			c1.816-3.632,1.618-4.54,1.618-4.54s-2.106,0.681-3.014,4.313c-0.861,3.445,0.173,8.725,1.832,11.584
			C103.128,220.482,103.06,220.665,103.01,220.865z"/>
		<path d="M82.549,200.994c2.396,5.814,13.937,20.235,19.137,23.943c0.103-0.002,0.205-0.005,0.294-0.007
			c-0.169-1.577-0.136-2.933,0.104-4.039c-1.122-1.274-7.984-9.103-10.013-12.277c-0.984-1.533-2.58-3.319-3.989-4.894
			c-1.842-2.06-3.297-3.688-3.544-4.756c-0.536-2.31-7.114-22.26-9.142-23.338c-0.118-0.063-0.203-0.174-0.23-0.305
			c-0.095-0.443-2.315-10.892-0.33-14.002c0.733-1.155,0.577-1.511,0.575-1.514c-0.174-0.085-1.131,0.292-1.777,1.48
			c-0.548,1.007-1.42,8.935,0.203,14.492C73.894,175.954,79.998,194.835,82.549,200.994z"/>
		<path d="M70.192,227.594c5.285,1.954,21.187,3.322,28.841,2.48c0.011-0.001,0.022,0.004,0.033,0.003
			c1.258-0.652,2.473-1.135,3.581-1.492c-0.168-0.651-0.368-1.521-0.526-2.51c-0.013-0.077-0.023-0.161-0.034-0.24
			c-0.155,0.004-0.33,0.009-0.524,0.013c-4.725,0.173-16.059,0.511-19.305-0.07c-1.789-0.32-4.182-0.362-6.293-0.399
			c-2.773-0.048-4.963-0.087-5.913-0.636c-2.037-1.166-21.222-9.882-23.332-9.135c-0.121,0.042-0.254,0.031-0.366-0.029
			c-0.4-0.216-9.81-5.338-10.748-8.92c-0.335-1.275-0.65-1.414-0.653-1.415c-0.173,0.063-0.608,0.944-0.565,1.946
			c0.074,1.692,2.581,5.97,11.539,10.049C46.105,217.318,63.94,225.274,70.192,227.594z"/>
		<path d="M137.237,256.606c-1.25-1.481-3.72-3.608-6.992-6.037c0.004,0.027,0.01,0.052,0.015,0.08
			c0.266,1.66,0.32,3.207,0.224,4.667l0.61,0.359c2.31,1.357,4.306,2.53,4.866,3.478c1.198,2.02,13.598,19.055,15.799,19.452
			c0.135,0.024,0.252,0.109,0.318,0.229c0.219,0.403,5.367,9.895,4.207,13.405c-0.177,0.536-0.266,0.892-0.309,1.125
			c0.528-0.5,1.343-1.596,1.448-1.921l0.039-0.113c0.845-2.387-0.861-6.936-5.068-13.522
			C152.292,277.656,141.53,261.705,137.237,256.606z"/>
		<path d="M79.177,239.737c2.107-0.168,4.496-0.359,6.268-0.79c1.157-0.279,3.164-0.48,4.718-0.604
			c1.097-1.742,2.31-3.202,3.574-4.426c-8.159,0.73-16.955,2.424-20.451,3.97c-6.081,2.7-22.735,12.357-22.902,12.454
			c-8.694,3.743-11.024,8.055-11.193,9.402c-0.079,0.634,0.213,2.165,0.488,2.742c0.098-0.217,0.246-0.657,0.406-1.531
			c0.668-3.648,9.794-9.06,10.182-9.289c0.107-0.063,0.234-0.079,0.354-0.045c2.166,0.604,20.671-9.539,22.703-10.885
			C74.241,240.132,76.42,239.957,79.177,239.737z"/>
		<path d="M114.056,224.93c0.091,0.003,0.191,0.005,0.294,0.008c5.201-3.709,16.741-18.13,19.137-23.943
			c2.552-6.16,8.655-25.041,8.717-25.231c1.619-5.544,0.746-13.472,0.198-14.48c-0.646-1.187-1.603-1.566-1.786-1.47
			c0.005,0-0.143,0.359,0.585,1.505c1.984,3.109-0.236,13.558-0.331,14.001c-0.028,0.131-0.113,0.243-0.231,0.305
			c-2.028,1.078-8.606,21.028-9.142,23.338c-0.247,1.068-1.702,2.695-3.544,4.756c-1.409,1.575-3.005,3.36-3.99,4.895
			c-2.028,3.174-8.891,11.003-10.013,12.277C114.192,221.996,114.225,223.352,114.056,224.93z"/>
		<path d="M78.799,256.607c-4.293,5.098-15.054,21.049-15.162,21.209c-4.202,6.577-5.907,11.126-5.062,13.513l0.04,0.113
			c0.105,0.325,0.92,1.422,1.448,1.922c-0.043-0.233-0.132-0.59-0.309-1.126c-1.16-3.509,3.988-13.001,4.207-13.404
			c0.066-0.121,0.183-0.205,0.318-0.229c2.201-0.397,14.601-17.433,15.799-19.453c0.559-0.947,2.555-2.12,4.865-3.477l0.61-0.359
			c-0.095-1.459-0.041-3.007,0.224-4.667c0.004-0.027,0.01-0.052,0.015-0.08C82.518,252.998,80.049,255.126,78.799,256.607z"/>
		<path d="M181.059,205.244c0.005,0.008-0.302,0.172-0.629,1.415c-0.938,3.582-10.347,8.704-10.747,8.92
			c-0.112,0.061-0.246,0.071-0.366,0.029c-2.102-0.737-21.295,7.969-23.333,9.136c-0.949,0.548-3.139,0.587-5.912,0.635
			c-2.111,0.037-4.504,0.079-6.294,0.399c-3.246,0.581-14.58,0.243-19.301,0.07c-0.196-0.005-0.371-0.009-0.527-0.013
			c-0.012,0.081-0.021,0.165-0.035,0.246c-0.157,0.983-0.358,1.853-0.525,2.504c1.109,0.357,2.324,0.841,3.581,1.492
			c0.011,0.001,0.022-0.004,0.033-0.003c7.655,0.842,23.557-0.527,28.842-2.481c6.252-2.32,24.086-10.275,24.266-10.356
			c8.955-4.077,11.462-8.356,11.536-10.048C181.69,206.19,181.257,205.31,181.059,205.244z"/>
		<path d="M125.34,239.11c-0.063-0.057-0.108-0.127-0.132-0.209c-1.292-2.104-2.752-3.783-4.265-5.123
			c-0.107-0.039-0.191-0.113-0.243-0.212c-1.246-1.07-2.52-1.919-3.76-2.587c-0.011-0.001-0.025-0.002-0.036-0.003
			c-0.13-0.014-0.239-0.084-0.312-0.181c-1.316-0.677-2.58-1.156-3.718-1.495c-0.009,0-0.015,0.008-0.024,0.008
			c-0.04,0-0.08-0.005-0.12-0.016c-0.062-0.017-0.117-0.047-0.164-0.085c-2.501-0.706-4.32-0.734-4.547-0.734
			c-0.228,0-2.046,0.028-4.547,0.734c-0.047,0.038-0.102,0.068-0.165,0.085c-0.04,0.011-0.08,0.016-0.12,0.016
			c-0.009,0-0.015-0.008-0.024-0.008c-1.139,0.34-2.403,0.818-3.718,1.495c-0.073,0.097-0.182,0.167-0.312,0.181
			c-0.011,0.001-0.025,0.002-0.036,0.003c-1.24,0.667-2.513,1.516-3.76,2.587c-0.052,0.098-0.136,0.173-0.243,0.212
			c-3.68,3.259-7.061,8.514-8.421,17.014c-2.966,18.538,19.8,23.658,21.345,23.982c1.557-0.327,24.309-5.46,21.345-23.982
			C128.581,245.905,127.13,242.092,125.34,239.11z M108.103,269.56c-0.028,0.005-0.056,0.008-0.084,0.008l-0.001,0l0,0l0,0l-0.001,0
			c-0.028,0-0.056-0.003-0.084-0.008c-0.189-0.036-18.886-3.788-16.503-18.676c2.72-16.998,16.45-17.195,16.588-17.195
			c0.138,0,13.869,0.196,16.588,17.195C126.989,265.772,108.292,269.524,108.103,269.56z"/>
		<path d="M165.7,250.366c-0.216-0.122-16.87-9.778-22.951-12.479c-3.495-1.546-12.291-3.24-20.45-3.97
			c1.265,1.224,2.478,2.686,3.576,4.428c1.587,0.126,3.57,0.326,4.716,0.602c1.773,0.431,4.161,0.622,6.269,0.79
			c2.758,0.22,4.936,0.395,5.852,0.997c2.033,1.348,20.554,11.493,22.704,10.886c0.12-0.034,0.247-0.017,0.354,0.045
			c0.388,0.229,9.515,5.641,10.182,9.289c0.16,0.875,0.307,1.314,0.406,1.531c0.274-0.576,0.567-2.108,0.488-2.741
			C176.676,258.396,174.346,254.084,165.7,250.366z"/>
		<path d="M108.018,234.598c-0.537,0.001-13.098,0.218-15.692,16.43c-2.192,13.695,14.248,17.332,15.692,17.623
			c1.444-0.292,17.884-3.928,15.692-17.623C121.116,234.816,108.555,234.598,108.018,234.598z"/>
	</g>
	<g>
		<path d="M98.16,369.59c-0.023,0.023-0.04,0.05-0.068,0.066c-1.494,1.407-2.844,3.038-4.063,4.85
			c0.994,1.144,7.579,7.748,26.893,7.748c0.001,0,0.002,0,0.002,0c0.001,0,0.002,0,0.002,0c19.315,0,25.9-6.604,26.894-7.748
			c-1.218-1.813-2.569-3.444-4.063-4.85c-0.028-0.016-0.045-0.043-0.068-0.066c-1.887-1.763-3.996-3.173-6.351-4.137
			c-4.577,1.184-16.03,4.856-16.03,8.136c0,0.211-0.171,0.382-0.382,0.382c-0.001,0-0.002,0-0.002,0c-0.002,0-0.002,0-0.003,0
			c-0.211,0-0.382-0.171-0.382-0.382c0-3.281-11.452-6.952-16.03-8.136C102.156,366.417,100.047,367.827,98.16,369.59z"/>
		<path d="M88.667,354.858c0.925,1.635,1.034,3.208,1.139,4.73c0.126,1.832,0.246,3.563,1.859,5.192
			c2.047,2.068,4.643,3.418,6.151,4.093c1.146-1.053,2.372-1.979,3.683-2.761c-0.987-0.932-2.438-1.496-3.969-2.085
			c-1.448-0.557-2.945-1.133-4.181-2.077c-3.05-2.33-4.157-8.948-4.157-12.828c0-3.875-0.078-4.574-2.81-6.573
			c-2.393-1.759-2.617-4.655-2.599-5.845c-0.388,0.126-0.932,0.387-1.238,0.908c-0.366,0.622-0.326,1.487,0.119,2.573
			c1.453,3.546,4.167,4.752,4.194,4.764c0.148,0.064,0.24,0.214,0.23,0.375C87.084,345.383,86.737,351.46,88.667,354.858z"/>
		<path d="M82.678,382.97c0.125-0.036,0.259-0.006,0.357,0.079c0.014,0.012,1.653,1.347,5.51,0.893
			c0.801-2.218,1.713-4.33,2.747-6.299c-2.351-0.055-7.569,0.069-9.563,2.137l-0.113,0.117
			c-8.509,8.785-13.422,17.326-14.602,25.387c-0.028,0.193-0.208,0.335-0.392,0.327c-0.029-0.002-2.715-0.075-4.499,1.647
			c-0.8,0.772-1.305,1.795-1.509,3.05c1.116-1.399,3.312-3.578,6.203-3.65c1.44-0.035,3.074-3.946,4.805-8.087
			C74.25,392.285,77.52,384.462,82.678,382.97z"/>
		<path d="M120.925,372.329c1.543-2.609,7.476-4.927,11.788-6.32c-1.014-0.851-4.128-2.743-11.785-2.743c-0.001,0-0.002,0-0.002,0
			c-0.002,0-0.002,0-0.003,0c-7.658,0-10.772,1.892-11.785,2.743C113.449,367.401,119.382,369.72,120.925,372.329z"/>
		<path d="M128.191,345.298c0,1.475,1.201,2.676,2.676,2.676c1.475,0,2.676-1.201,2.676-2.676c0-1.475-1.201-2.676-2.676-2.676
			C129.392,342.622,128.191,343.823,128.191,345.298z"/>
		<path d="M78.485,401.72c-0.453,5.385-0.218,29.64,1.704,35.596c0.046,0.142,0.005,0.297-0.104,0.398
			c-0.047,0.043-4.687,4.403-2.786,8.148c0.472,0.928,0.977,1.49,1.378,1.825c-0.475-1.697-1.134-5.172,0.798-6.849
			c2.084-1.805,2.051-2.117,1.863-3.852l-0.043-0.409c-0.018-0.178-0.062-0.552-0.125-1.087
			c-3.759-32.069-0.963-33.069-0.044-33.398c1.359-0.485,2.505-0.612,3.423-0.388c0.257-2.185,0.581-4.361,0.984-6.502
			C83.136,395.959,78.814,397.848,78.485,401.72z"/>
		<path d="M154.992,344.948c0.027-0.012,2.748-1.235,4.195-4.764c0.446-1.088,0.485-1.955,0.117-2.577
			c-0.31-0.522-0.85-0.782-1.235-0.906c0.018,1.189-0.204,4.087-2.598,5.847c-2.733,1.999-2.811,2.698-2.811,6.573
			c0,3.88-1.107,10.499-4.157,12.828c-1.237,0.944-2.734,1.52-4.182,2.077c-1.531,0.589-2.983,1.153-3.969,2.084
			c1.311,0.782,2.537,1.709,3.683,2.762c1.508-0.675,4.105-2.026,6.151-4.093c1.612-1.628,1.732-3.359,1.859-5.192
			c0.105-1.522,0.214-3.095,1.138-4.729c1.931-3.399,1.584-9.476,1.58-9.537C154.753,345.162,154.845,345.012,154.992,344.948z"/>
		<path d="M110.983,347.974c1.476,0,2.676-1.201,2.676-2.676c0-1.475-1.201-2.676-2.676-2.676c-1.475,0-2.676,1.201-2.676,2.676
			C108.307,346.774,109.507,347.974,110.983,347.974z"/>
		<path d="M129.063,417.874c-2.078-0.82-4.042-1.595-8.135-1.595c0,0-0.001,0-0.002,0c0,0-0.001,0-0.002,0
			c-4.093,0-6.056,0.775-8.135,1.595c-2.301,0.908-4.681,1.846-10.004,1.846c-8.558,0-16.038-2.479-18.145-3.245
			c0.229,4.21,1.161,8.055,2.578,11.528c1.199,0.435,8.49,2.842,18.083,0.9c4.49-0.909,6.976-1.788,8.792-2.43
			c2.451-0.867,3.693-1.304,6.834-0.643c3.14-0.661,4.383-0.224,6.834,0.643c1.815,0.642,4.301,1.521,8.791,2.43
			c9.602,1.943,16.88-0.463,18.081-0.899c1.418-3.474,2.35-7.319,2.58-11.529c-2.106,0.766-9.587,3.245-18.145,3.245
			C133.744,419.72,131.364,418.782,129.063,417.874z"/>
		<path d="M120.925,395.38c0,0-0.001,0-0.002,0c-16.998,0-31.335-3.524-33.76-4.154c-0.274,1.135-0.524,2.284-0.752,3.446
			c-0.002,0.031-0.009,0.06-0.017,0.089c-0.598,3.068-1.038,6.212-1.334,9.361c1.881,0.491,11.936,2.982,22.191,2.982
			c2.419,0,4.122-0.675,5.924-1.391c2.091-0.829,4.254-1.688,7.748-1.688c0.001,0,0.002,0,0.002,0c0,0,0.002,0,0.002,0
			c3.494,0,5.657,0.858,7.748,1.688c1.802,0.715,3.505,1.391,5.924,1.391c10.256,0,20.311-2.491,22.191-2.982
			c-0.297-3.148-0.736-6.293-1.334-9.361c-0.009-0.029-0.016-0.058-0.018-0.089c-0.228-1.162-0.478-2.312-0.752-3.447
			c-2.424,0.63-16.762,4.154-33.761,4.154C120.927,395.38,120.926,395.38,120.925,395.38z"/>
		<path d="M152.626,384.276c-1.193-3.321-2.64-6.398-4.367-9.101c-1.478,1.649-8.299,7.845-27.332,7.845c0,0-0.001,0-0.002,0
			c0,0-0.001,0-0.002,0c-19.032,0-25.853-6.196-27.331-7.845c-0.44,0.689-0.862,1.401-1.266,2.136
			c-0.009,0.111-0.063,0.204-0.144,0.268c-1.122,2.077-2.105,4.324-2.958,6.698c0.004,0.104-0.032,0.199-0.099,0.272
			c-0.675,1.908-1.266,3.894-1.78,5.934c2.349,0.611,16.631,4.132,33.578,4.132c0.001,0,0.002,0,0.002,0c0.001,0,0.002,0,0.002,0
			c16.954,0,31.232-3.521,33.58-4.132c-0.514-2.04-1.105-4.026-1.78-5.934C152.659,384.477,152.621,384.381,152.626,384.276z"/>
		<path d="M179.723,407.253c-1.789-1.723-4.467-1.644-4.494-1.643c-0.221,0.008-0.364-0.134-0.392-0.327
			c-1.18-8.062-6.093-16.604-14.603-25.388l-0.112-0.116c-1.997-2.071-7.23-2.193-9.563-2.137c1.034,1.969,1.946,4.081,2.747,6.299
			c3.854,0.454,5.495-0.881,5.512-0.895c0.098-0.082,0.232-0.112,0.355-0.077c5.158,1.492,8.428,9.315,11.056,15.601
			c1.731,4.14,3.365,8.051,4.805,8.087c2.892,0.072,5.088,2.251,6.203,3.65C181.033,409.051,180.527,408.026,179.723,407.253z"/>
		<path d="M130.839,439.05c-5.565-1.717-6.887-2.125-9.911-2.125c-0.001,0-0.002,0-0.002,0c-0.002,0-0.002,0-0.003,0
			c-3.023,0-4.345,0.408-9.909,2.125l-1.321,0.407c-5.255,1.617-11.204,1.961-13.458,2.034c7.962,8.223,17.103,12.206,17.266,12.275
			c0.076,0.032,0.14,0.088,0.181,0.16c2.013,3.477,6.982,3.92,7.243,3.941c0.261-0.021,5.231-0.464,7.243-3.941
			c0.041-0.072,0.105-0.128,0.181-0.16c0.163-0.069,9.3-4.054,17.262-12.276c-2.256-0.073-8.202-0.417-13.454-2.034L130.839,439.05z
			"/>
		<path d="M161.766,437.715c-0.109-0.101-0.15-0.257-0.105-0.398c1.921-5.954,2.156-30.21,1.704-35.596
			c-0.328-3.872-4.65-5.762-7.048-6.517c0.403,2.141,0.727,4.317,0.984,6.502c0.917-0.225,2.064-0.098,3.423,0.388
			c0.919,0.329,3.715,1.329-0.044,33.398c-0.063,0.535-0.106,0.909-0.125,1.087l-0.043,0.408c-0.188,1.735-0.221,2.048,1.863,3.852
			c1.932,1.679,1.273,5.153,0.799,6.85c0.401-0.335,0.906-0.897,1.378-1.826C166.453,442.117,161.813,437.758,161.766,437.715z"/>
		<path d="M136.399,429.652c-4.543-0.919-7.058-1.809-8.895-2.459c-2.482-0.877-3.509-1.241-6.496-0.6c-0.003,0.001-0.005,0-0.008,0
			c-0.028,0.006-0.057,0.002-0.087,0.001c-0.021-0.001-0.043,0.003-0.063-0.001c-0.003-0.001-0.005,0-0.008,0
			c-2.987-0.64-4.015-0.277-6.496,0.6c-1.837,0.65-4.352,1.54-8.895,2.459c-2.737,0.554-5.294,0.761-7.583,0.761
			c-4.937,0-8.629-0.959-10.233-1.464c2.021,4.583,4.847,8.508,7.903,11.793c1.332-0.021,8.078-0.217,13.93-2.017l1.32-0.407
			c5.514-1.701,6.996-2.159,10.134-2.159c0.001,0,0.002,0,0.002,0c0,0,0.002,0,0.002,0c3.139,0,4.621,0.457,10.136,2.159
			l1.318,0.406c5.85,1.8,12.587,1.996,13.926,2.017c3.058-3.286,5.884-7.21,7.906-11.792c-1.605,0.505-5.297,1.464-10.231,1.464
			C141.692,430.413,139.137,430.207,136.399,429.652z"/>
		<path d="M134.6,407.869c-2.565,0-4.333-0.701-6.206-1.444c-2.025-0.803-4.118-1.634-7.466-1.634c-0.001,0-0.002,0-0.002,0
			c-0.002,0-0.002,0-0.003,0c-3.348,0-5.441,0.831-7.466,1.634c-1.872,0.743-3.641,1.444-6.206,1.444
			c-10.148,0-20.087-2.413-22.264-2.975c-0.281,3.229-0.414,6.453-0.414,9.59c0,0.395,0.027,0.777,0.039,1.166
			c1.53,0.576,9.257,3.306,18.172,3.306c5.177,0,7.488-0.911,9.724-1.793c2.148-0.848,4.177-1.647,8.416-1.647
			c0.001,0,0.002,0,0.002,0c0.001,0,0.002,0,0.002,0c4.239,0,6.269,0.8,8.417,1.647c2.235,0.882,4.546,1.793,9.724,1.793
			c8.921,0,16.643-2.73,18.172-3.306c0.012-0.389,0.039-0.771,0.039-1.166c0-3.137-0.133-6.361-0.414-9.59
			C154.688,405.455,144.748,407.869,134.6,407.869z"/>
		<path d="M75.054,317.076c0.405,0.768,0.809,1.536,1.214,2.304c1.077,2.043,2.153,4.087,3.23,6.13
			c0.351,0.666,0.701,1.331,1.052,1.997c0.549,1.042,1.478,0.91,2.529,0.922c4.862,0.057,9.784,0.671,14.482,1.934
			c5.755,1.548,11.786,4.277,15.16,9.412c0.6,0.913,1.097,1.855,1.518,2.864c0.019,0.044,0.038,0.098,0.059,0.156
			c-0.152,0.2-0.307,0.391-0.467,0.576c0.373,0.55,0.592,1.213,0.592,1.927c0,1.897-1.543,3.441-3.441,3.441
			c-1.091,0-2.054-0.52-2.684-1.315c-3.538,1.822-5.672,4.202-6.325,7.087c-1.081,4.783,2.219,9.5,2.738,10.204
			c0.559,0.145,1.896,0.503,3.586,1.029c0.743-0.786,3.776-3.241,12.625-3.241c0.001,0,0.002,0,0.002,0c0,0,0.002,0,0.002,0
			c8.85,0,11.882,2.456,12.625,3.241c1.69-0.526,3.026-0.883,3.585-1.028c0.52-0.706,3.82-5.431,2.737-10.208
			c-0.653-2.884-2.788-5.263-6.324-7.083c-0.631,0.794-1.593,1.315-2.685,1.315c-1.897,0-3.441-1.543-3.441-3.441
			c0-0.714,0.219-1.376,0.592-1.927c-0.161-0.187-0.318-0.379-0.471-0.582c0.156-0.373,0.31-0.746,0.482-1.112
			c2.594-5.481,8.231-8.728,13.782-10.572c4.603-1.529,9.462-2.3,14.296-2.58c1.269-0.073,2.542-0.12,3.813-0.093
			c0.513-0.037,0.995-0.199,1.251-0.684c0.218-0.414,0.437-0.828,0.655-1.243c1.766-3.352,3.532-6.704,5.298-10.056
			c0.221-0.418-0.373-0.764-0.656-0.397c-0.052,0.067-0.103,0.134-0.155,0.201c-0.251,0.325-0.503,0.651-0.754,0.976
			c-0.901,1.167-1.803,2.333-2.704,3.5c-1.23,1.593-2.461,3.185-3.691,4.778c-6.962,0.341-14.167,1.888-20.455,4.886
			c-3.401,1.621-6.472,3.783-8.903,6.675c-0.727,0.864-1.362,1.835-1.89,2.831c-0.288,0.543-0.55,1.111-0.77,1.686
			c-0.04,0.105-0.1,0.234-0.164,0.375c-0.524-0.841-0.905-1.655-1.238-2.378c-0.963-2.092-1.599-3.474-4.818-3.474
			c-0.001,0-0.002-0.001-0.002-0.001c-0.002,0-0.002,0.001-0.003,0.001c-3.218,0-3.854,1.382-4.818,3.474
			c-0.337,0.732-0.723,1.557-1.258,2.41c-0.577-1.582-1.401-3.009-2.375-4.378c-1.992-2.799-4.971-4.96-7.979-6.541
			c-6.618-3.478-14.357-5.211-21.815-5.574c-2.437-3.154-4.873-6.308-7.31-9.463c-0.332-0.43-0.817,0.084-0.604,0.488
			C74.861,316.708,74.958,316.892,75.054,317.076z"/>
	</g>
	<g>
		<path d="M147.565,112.312c-0.002,0.062-0.018,0.123-0.048,0.178l-2.412,4.421l4.01-4.447V98.751
			c-0.378,0.235-0.764,0.468-1.163,0.699L147.565,112.312z"/>
		<path d="M176.296,47.469c-3.258-0.032-5.898-2.689-5.898-5.954c0-2.134,1.17-4.103,3-5.15c-2.222-3.816-5.025-6.001-7.735-6.001
			c-2.71,0-5.514,2.185-7.735,6.001c1.83,1.047,3,3.015,3,5.15c0,3.264-2.64,5.922-5.898,5.954
			c0.601,4.731,4.714,7.762,10.633,7.762C171.583,55.231,175.697,52.198,176.296,47.469z"/>
		<path d="M163.066,65.182c0,2.297-1.59,4.532-4.46,6.608c0.932,0.368,1.678,0.829,2.21,1.382c1.09,1.13,1.707,2.856,1.843,4.878
			c0.649,0.231,2.254,1.038,3.003,3.443c0.749-2.404,2.354-3.212,3.003-3.443c0.137-2.022,0.754-3.749,1.844-4.879
			c0.532-0.553,1.278-1.014,2.209-1.382c-2.87-2.076-4.459-4.311-4.459-6.608c0-0.961,1.544-2.053,8.464-3.501l8.594-3.7
			l-0.449-8.531c-0.005-0.089,0.021-0.176,0.071-0.248l2.63-3.764l-3.903,3.526v7.522c0,0.167-0.105,0.317-0.262,0.373
			c-1.557,0.563-9.365,3.374-10.186,3.374c-0.964,0-4.603-1.168-4.928-4.417c-0.834,0.134-1.708,0.21-2.629,0.21
			c-0.92,0-1.795-0.076-2.629-0.21c-0.325,3.249-3.963,4.417-4.927,4.417c-0.821,0-8.629-2.811-10.186-3.374
			c-0.157-0.057-0.262-0.206-0.262-0.373v-7.522l-3.903-3.526l2.63,3.764c0.051,0.072,0.076,0.16,0.071,0.248l-0.449,8.531
			l8.594,3.7C161.521,63.129,163.066,64.221,163.066,65.182z"/>
		<path d="M169.053,65.182c0,7.08,19.111,15.48,51.091,17.281c2.429,0.137,5.004,0.206,7.652,0.206
			c24.572,0,55.673-6.179,60.516-14.449c0.836-1.428,0.849-2.825,0.038-4.271c-3.73-6.649-14.522-9.882-32.992-9.882
			c-8.224,0-18.197,0.64-30.489,1.955c-17.513,1.874-30.453,3.488-39.56,4.935C170.226,63.354,169.053,64.797,169.053,65.182z"/>
		<path d="M171.192,41.515c0,2.847,2.316,5.162,5.163,5.162c0.004,0,0.008,0,0.012,0c0.007-0.153,0.019-0.305,0.019-0.458
			c0-2.69-0.996-6.163-2.605-9.161C172.201,37.966,171.192,39.669,171.192,41.515z"/>
		<path d="M160.133,41.515c0-1.846-1.009-3.549-2.589-4.457c-1.608,2.998-2.605,6.471-2.605,9.161c0,0.154,0.012,0.305,0.019,0.458
			c0.004,0,0.008,0,0.012,0C157.817,46.677,160.133,44.362,160.133,41.515z"/>
		<path d="M111.18,82.463c31.98-1.801,51.091-10.202,51.091-17.281c0-0.385-1.172-1.828-16.256-4.223
			c-9.107-1.447-22.047-3.061-39.559-4.935c-12.293-1.315-22.266-1.955-30.489-1.955c-18.47,0-29.262,3.233-32.992,9.882
			c-0.811,1.445-0.799,2.843,0.038,4.271c4.843,8.27,35.944,14.449,60.516,14.449C106.176,82.669,108.751,82.6,111.18,82.463z"/>
		<path d="M237.838,83.154c-3.408,0.202-6.78,0.31-10.041,0.31c-2.663,0-5.253-0.069-7.697-0.207
			c-20.988-1.182-38.3-5.445-46.579-10.91c-1.07,0.353-1.897,0.812-2.44,1.377c-1.685,1.747-2.133,5.144-1.168,8.864
			c0.875,3.371,5.228,14.829,24.521,20.71c25.287,7.699,88.736,14.617,94.567,4.594c0.227-0.389,0.24-0.827,0.041-1.338
			C287.071,101.497,266.019,91.877,237.838,83.154z"/>
		<path d="M183.76,112.312l-0.387-12.862c-0.399-0.23-0.785-0.464-1.163-0.699v13.712l4.01,4.447l-2.412-4.421
			C183.778,112.435,183.761,112.374,183.76,112.312z"/>
		<path d="M171.85,88.804c-1.652-2.613-2.394-4.815-2.706-6.018c-0.348-1.343-0.505-2.644-0.508-3.864
			c-0.861,0.416-2.577,1.707-2.577,5.414c0,0.22-0.178,0.398-0.397,0.398s-0.397-0.178-0.397-0.398c0-3.707-1.716-4.998-2.577-5.414
			c-0.003,1.219-0.16,2.521-0.508,3.864c-0.312,1.202-1.054,3.405-2.706,6.018c-0.001,0.005,0.001,0.011,0,0.016
			c-1.755,9.773,3.887,17.822,3.944,17.902c0.054,0.075,0.079,0.167,0.073,0.259c-0.025,0.359-2.565,36.177-2.565,58.994
			c0,2.352,0.056,4.467,0.153,6.392c0.089,0.472,1.357,6.898,4.582,6.898c3.225,0,4.493-6.424,4.582-6.897
			c0.096-1.924,0.153-4.039,0.153-6.392c0-22.818-2.539-58.635-2.565-58.994c-0.007-0.092,0.019-0.184,0.073-0.259
			c0.057-0.08,5.697-8.141,3.944-17.902C171.848,88.815,171.85,88.81,171.85,88.804z"/>
		<path d="M160.244,73.723c-0.543-0.565-1.37-1.024-2.44-1.377c-8.279,5.465-25.591,9.728-46.579,10.91
			c-2.444,0.138-5.033,0.207-7.697,0.207c-3.261,0-6.633-0.107-10.041-0.31c-28.181,8.724-49.233,18.344-51.203,23.399
			c-0.199,0.512-0.186,0.949,0.041,1.338c5.831,10.023,69.28,3.106,94.567-4.594c19.294-5.881,23.647-17.339,24.521-20.71
			C162.377,78.866,161.929,75.47,160.244,73.723z"/>
		<path d="M165.662,180.059c-2.144,0-3.514-2.1-4.336-4.094c1.022,11.463,3.703,13.938,4.336,14.364
			c0.633-0.426,3.314-2.898,4.336-14.365C169.176,177.959,167.807,180.059,165.662,180.059z"/>
	</g>
	<g>
		<ellipse cx="394.157" cy="413.894" rx="4.06" ry="9.32"/>
		<path d="M385.658,413.894c0,7.889-2.195,15.206-6.013,20.202c3.483,3.206,7.426,5.05,10.879,5.05c3.467,0,6.76-1.827,9.525-5.285
			c3.858-4.825,6.071-12.103,6.071-19.966c0-7.863-2.213-15.141-6.071-19.966c-2.764-3.457-6.057-5.285-9.525-5.285
			c-3.453,0-7.396,1.843-10.879,5.05C383.463,398.688,385.658,406.005,385.658,413.894z M399.214,413.894
			c0,5.785-2.221,10.316-5.056,10.316c-2.835,0-5.056-4.531-5.056-10.316s2.221-10.316,5.056-10.316
			C396.993,403.578,399.214,408.109,399.214,413.894z"/>
		<path d="M370.057,413.894c0,5.052,1.859,9.32,4.06,9.32c2.201,0,4.06-4.268,4.06-9.32s-1.859-9.32-4.06-9.32
			C371.917,404.574,370.057,408.842,370.057,413.894z"/>
		<path d="M350.017,413.894c0,5.052,1.86,9.32,4.06,9.32c2.201,0,4.061-4.268,4.061-9.32s-1.859-9.32-4.061-9.32
			C351.877,404.574,350.017,408.842,350.017,413.894z"/>
		<path d="M364.2,413.894c0,7.889-2.195,15.206-6.013,20.201c3.483,3.207,7.426,5.05,10.879,5.05c3.467,0,6.76-1.827,9.525-5.285
			c3.858-4.825,6.071-12.103,6.071-19.966c0-7.863-2.212-15.141-6.071-19.966c-2.764-3.458-6.057-5.285-9.525-5.285
			c-3.453,0-7.396,1.843-10.879,5.05C362.005,398.688,364.2,406.005,364.2,413.894z M379.174,413.894
			c0,5.785-2.221,10.316-5.057,10.316c-2.835,0-5.056-4.531-5.056-10.316s2.221-10.316,5.056-10.316
			C376.953,403.578,379.174,408.109,379.174,413.894z"/>
		<path d="M407.116,413.894c0,7.889-2.195,15.206-6.013,20.202c3.483,3.206,7.426,5.05,10.879,5.05c3.467,0,6.761-1.827,9.524-5.285
			c3.858-4.825,6.071-12.103,6.071-19.966c0-7.863-2.213-15.141-6.071-19.966c-2.764-3.457-6.057-5.285-9.524-5.285
			c-3.453,0-7.396,1.843-10.879,5.05C404.921,398.688,407.116,406.005,407.116,413.894z M421.401,413.894
			c0,5.785-2.221,10.316-5.056,10.316c-2.835,0-5.057-4.531-5.057-10.316c0-5.785,2.221-10.316,5.057-10.316
			C419.18,403.578,421.401,408.11,421.401,413.894z"/>
		<path d="M428.573,413.894c0,7.889-2.195,15.206-6.013,20.202c3.483,3.206,7.426,5.05,10.879,5.05c4.057,0,7.9-2.528,10.824-7.119
			c3.077-4.798,4.771-11.237,4.771-18.132s-1.694-13.335-4.771-18.131c-2.924-4.592-6.768-7.12-10.825-7.12
			c-3.453,0-7.396,1.843-10.879,5.05C426.379,398.688,428.573,406.006,428.573,413.894z M442.871,413.894
			c0,5.785-2.221,10.316-5.056,10.316c-2.836,0-5.057-4.531-5.057-10.316c0-5.785,2.221-10.316,5.057-10.316
			C440.65,403.578,442.871,408.11,442.871,413.894z"/>
		<path d="M433.755,413.894c0,5.052,1.859,9.32,4.06,9.32c2.201,0,4.06-4.268,4.06-9.32c0-5.052-1.859-9.32-4.06-9.32
			C435.614,404.574,433.755,408.842,433.755,413.894z"/>
		<path d="M234.457,409.066c0-0.272-0.051-0.536-0.145-0.782c-0.183,0.1-0.366,0.199-0.539,0.306
			c-0.103,0.064-0.211,0.123-0.311,0.189c-0.346,0.229-0.675,0.47-0.976,0.725c-0.029,0.025-0.052,0.052-0.081,0.077
			c-0.266,0.231-0.511,0.472-0.735,0.72c-0.082,0.09-0.152,0.183-0.227,0.275c-0.1,0.121-0.187,0.245-0.276,0.37
			c0.333,0.196,0.713,0.304,1.105,0.304C233.477,411.25,234.457,410.271,234.457,409.066z"/>
		<path d="M254.842,413.894c0-8.599-3.627-15.595-8.085-15.595c-0.035,0.008-0.091,0.009-0.127,0.01
			c-3.177,0.082-6.854,3.636-8.744,8.45l-0.001,0.001v0c-0.89,2.241-1.359,4.707-1.359,7.134c0,2.426,0.47,4.892,1.359,7.133v0.001
			l0.001,0.001c1.89,4.814,5.567,8.368,8.744,8.45l0.003,0.009c0.042,0.001,0.083,0.007,0.124,0.019v-0.018
			C251.215,429.489,254.842,422.493,254.842,413.894z"/>
		<path d="M445.804,431.356c7.118-2.844,11.814-9.696,11.814-17.462c0-7.766-4.696-14.618-11.814-17.462
			c2.723,4.802,4.227,10.93,4.227,17.462C450.031,420.426,448.527,426.554,445.804,431.356z"/>
		<path d="M412.284,413.894c0,5.052,1.859,9.32,4.06,9.32c2.201,0,4.06-4.268,4.06-9.32c0-5.052-1.859-9.32-4.06-9.32
			C414.143,404.574,412.284,408.842,412.284,413.894z"/>
		<path d="M342.742,413.894c0,7.889-2.194,15.206-6.013,20.201c3.483,3.207,7.426,5.05,10.879,5.05c3.467,0,6.761-1.827,9.525-5.285
			c3.858-4.825,6.071-12.103,6.071-19.966c0-7.863-2.212-15.141-6.071-19.966c-2.764-3.458-6.057-5.285-9.525-5.285
			c-3.453,0-7.396,1.843-10.879,5.05C340.548,398.688,342.742,406.005,342.742,413.894z M359.134,413.894
			c0,5.785-2.221,10.316-5.057,10.316c-2.835,0-5.056-4.531-5.056-10.316s2.221-10.316,5.056-10.316
			C356.913,403.578,359.134,408.109,359.134,413.894z"/>
		<path d="M232.273,416.538c-0.392,0-0.772,0.108-1.105,0.304c0.09,0.125,0.177,0.251,0.278,0.373
			c0.073,0.09,0.142,0.18,0.222,0.268c0.225,0.249,0.471,0.491,0.739,0.724c0.028,0.025,0.051,0.051,0.08,0.076
			c0.301,0.255,0.629,0.495,0.974,0.724c0.101,0.067,0.211,0.128,0.316,0.192c0.173,0.107,0.355,0.206,0.536,0.305
			c0.094-0.246,0.145-0.51,0.145-0.782C234.457,417.518,233.477,416.538,232.273,416.538z"/>
		<path d="M284.53,413.894c0,5.052,1.859,9.32,4.06,9.32c2.201,0,4.06-4.268,4.06-9.32c0-5.052-1.859-9.32-4.06-9.32
			C286.389,404.574,284.53,408.842,284.53,413.894z"/>
		<path d="M278.369,413.894c0,7.889-2.195,15.206-6.013,20.201c3.483,3.207,7.426,5.05,10.879,5.05c3.467,0,6.761-1.827,9.525-5.285
			c3.858-4.825,6.071-12.103,6.071-19.966c0-7.863-2.212-15.141-6.071-19.966c-2.764-3.458-6.058-5.285-9.525-5.285
			c-3.453,0-7.396,1.843-10.879,5.05C276.174,398.688,278.369,406.005,278.369,413.894z M293.646,413.894
			c0,5.785-2.221,10.316-5.056,10.316c-2.835,0-5.056-4.531-5.056-10.316s2.221-10.316,5.056-10.316
			C291.426,403.578,293.646,408.109,293.646,413.894z"/>
		<path d="M261.27,413.894c0,5.052,1.859,9.32,4.06,9.32s4.061-4.268,4.061-9.32s-1.86-9.32-4.061-9.32
			S261.27,408.842,261.27,413.894z"/>
		<path d="M299.827,413.894c0,7.889-2.195,15.206-6.013,20.201c3.483,3.207,7.426,5.05,10.879,5.05c3.467,0,6.761-1.827,9.525-5.285
			c3.858-4.825,6.071-12.103,6.071-19.966c0-7.863-2.212-15.141-6.071-19.966c-2.764-3.458-6.058-5.285-9.525-5.285
			c-3.453,0-7.396,1.843-10.879,5.05C297.632,398.688,299.827,406.005,299.827,413.894z M314.76,413.894
			c0,5.785-2.221,10.316-5.056,10.316c-2.836,0-5.057-4.531-5.057-10.316s2.221-10.316,5.057-10.316
			C312.539,403.578,314.76,408.109,314.76,413.894z"/>
		<path d="M247.557,397.377c4.633,0.744,8.281,7.863,8.281,16.517c0,8.655-3.648,15.773-8.281,16.517
			c4.005,5.328,9.507,8.734,14.22,8.734c3.467,0,6.76-1.827,9.525-5.285c3.858-4.825,6.071-12.103,6.071-19.966
			c0-7.863-2.212-15.141-6.071-19.966c-2.764-3.458-6.057-5.285-9.525-5.285C257.064,388.643,251.562,392.048,247.557,397.377z
			 M270.387,413.894c0,5.785-2.221,10.316-5.057,10.316c-2.835,0-5.056-4.531-5.056-10.316s2.221-10.316,5.056-10.316
			C268.165,403.578,270.387,408.109,270.387,413.894z"/>
		<path d="M236.627,407.292c-0.489,0.146-0.965,0.335-1.428,0.543c0.163,0.386,0.254,0.802,0.254,1.232
			c0,1.753-1.426,3.18-3.18,3.18c-0.584,0-1.148-0.162-1.641-0.459c-0.355,0.694-0.543,1.399-0.543,2.107
			c0,0.709,0.189,1.415,0.543,2.107c0.492-0.297,1.057-0.459,1.641-0.459c1.754,0,3.18,1.427,3.18,3.18
			c0,0.43-0.091,0.846-0.254,1.232c0.464,0.208,0.94,0.397,1.428,0.542c-0.729-2.121-1.098-4.337-1.098-6.602
			S235.898,409.413,236.627,407.292z"/>
		<path d="M321.284,413.894c0,7.889-2.194,15.206-6.013,20.201c3.483,3.207,7.426,5.05,10.879,5.05c3.467,0,6.761-1.827,9.525-5.285
			c3.858-4.825,6.071-12.103,6.071-19.966c0-7.863-2.212-15.141-6.071-19.966c-2.764-3.458-6.057-5.285-9.525-5.285
			c-3.453,0-7.396,1.843-10.879,5.05C319.09,398.688,321.284,406.005,321.284,413.894z M336.947,413.894
			c0,5.785-2.221,10.316-5.056,10.316c-2.836,0-5.057-4.531-5.057-10.316s2.221-10.316,5.057-10.316
			C334.726,403.578,336.947,408.109,336.947,413.894z"/>
		<path d="M327.83,413.894c0,5.052,1.86,9.32,4.06,9.32s4.06-4.268,4.06-9.32s-1.859-9.32-4.06-9.32S327.83,408.842,327.83,413.894z
			"/>
		<path d="M305.643,413.894c0,5.052,1.86,9.32,4.061,9.32c2.201,0,4.06-4.268,4.06-9.32s-1.859-9.32-4.06-9.32
			C307.503,404.574,305.643,408.842,305.643,413.894z"/>
	</g>
</g>
<g id="DESIGNED_BY_FREEPIK">
	<g>
		<g id="XMLID_319_">
			<g id="XMLID_4_">
				<path id="XMLID_346_" style="fill:#222221;" d="M260.104,465.465c-0.432,0.443-0.803,0.931-1.108,1.453l-0.465-0.241
					c-0.067-0.298-0.349-0.503-0.659-0.466c-0.331,0.039-0.568,0.339-0.529,0.67c0.039,0.331,0.339,0.568,0.67,0.529
					c0.066-0.008,0.127-0.026,0.184-0.052l0.451,0.234c-0.251,0.554-0.433,1.139-0.539,1.744l0.747,0.132
					c0.23-1.306,0.85-2.507,1.792-3.473L260.104,465.465z"/>
				<path id="XMLID_345_" style="fill:#222221;" d="M265.592,463.163c-0.171,0-0.341,0.006-0.51,0.017l-0.074-0.626
					c0.188-0.149,0.296-0.389,0.266-0.645c-0.046-0.393-0.402-0.674-0.795-0.628c-0.393,0.046-0.674,0.402-0.628,0.795
					c0.03,0.254,0.189,0.461,0.404,0.564l0.074,0.624c-0.714,0.116-1.403,0.332-2.06,0.646l0.327,0.684
					c0.934-0.447,1.942-0.673,2.995-0.673c0.496,0,0.993,0.053,1.475,0.158l0.161-0.741
					C266.692,463.222,266.142,463.163,265.592,463.163z"/>
				<path id="XMLID_344_" style="fill:#222221;" d="M272.194,465.711c0.331-0.04,0.566-0.341,0.526-0.672
					c-0.04-0.331-0.341-0.566-0.672-0.526c-0.309,0.038-0.535,0.304-0.53,0.609l-0.416,0.363c-0.418-0.43-0.889-0.813-1.408-1.139
					l-0.404,0.641c1.134,0.715,2.021,1.726,2.563,2.925l0.69-0.313c-0.251-0.554-0.567-1.072-0.942-1.545l0.402-0.351
					C272.065,465.716,272.129,465.719,272.194,465.711z"/>
				<path id="XMLID_343_" style="fill:#222221;" d="M265.044,473.372c-0.386,0.023-0.775,0.035-1.157,0.035
					c-0.88,0-1.733-0.061-2.478-0.179c-0.39-0.062-0.846-0.155-1.27-0.292c1.046,1.861,3.069,3.125,5.388,3.125
					c2.855,0,5.262-1.916,5.95-4.504c-0.682,0.449-1.505,0.825-2.459,1.123C267.839,473.047,266.463,473.286,265.044,473.372z"/>
				<path id="XMLID_339_" style="fill:#222221;" d="M265.592,464.68c-3.352,0-6.08,2.666-6.08,5.943
					c0,0.426,0.046,0.849,0.137,1.261c0.673,0.483,2.706,0.89,5.348,0.731c2.879-0.173,5.297-0.957,6.672-2.159
					c-0.006-0.195-0.021-0.39-0.045-0.582C271.244,466.913,268.65,464.68,265.592,464.68z M263.432,471.194
					c-1.02,0-1.85-0.83-1.85-1.85c0-1.02,0.83-1.85,1.85-1.85c1.02,0,1.85,0.83,1.85,1.85
					C265.282,470.365,264.452,471.194,263.432,471.194z M268.17,470.286c-0.75,0-1.36-0.61-1.36-1.36s0.61-1.361,1.36-1.361
					c0.75,0,1.361,0.61,1.361,1.361S268.92,470.286,268.17,470.286z"/>
			</g>
			<path id="XMLID_3_" style="fill:#222221;" d="M281.595,466.547c-0.295-0.116-0.805-0.309-1.382-0.237
				c-0.551,0.069-0.844,0.341-0.844,1.007v0.866h2.228v1.717h-2.228v5.455h-1.932v-5.455h-1.34v-1.717h1.34v-0.888
				c0-1.68,0.896-2.783,2.568-2.783c0.643,0,1.157,0.122,1.59,0.308L281.595,466.547z"/>
			<path id="XMLID_334_" style="fill:#222221;" d="M286.298,469.879c-0.177-0.03-0.358-0.046-0.526-0.046
				c-0.896,0-1.51,0.548-1.51,1.614v3.908h-1.932v-7.172h1.873v0.785c0.451-0.673,1.14-0.977,2.021-0.977
				c0.414,0,0.848,0.128,1.094,0.337L286.298,469.879z"/>
			<path id="XMLID_331_" style="fill:#222221;" d="M293.965,471.757c0,0.222-0.015,0.489-0.037,0.651h-5.085
				c0.207,1.036,0.933,1.488,1.843,1.488c0.622,0,1.295-0.252,1.813-0.688l1.133,1.243c-0.814,0.748-1.85,1.088-3.057,1.088
				c-2.198,0-3.723-1.495-3.723-3.753c0-2.258,1.48-3.797,3.627-3.797C292.544,467.99,293.958,469.522,293.965,471.757z
				 M288.851,471.091h3.175c-0.177-0.918-0.733-1.436-1.562-1.436C289.554,469.655,289.021,470.203,288.851,471.091z"/>
			<path id="XMLID_328_" style="fill:#222221;" d="M301.618,471.757c0,0.222-0.015,0.489-0.037,0.651h-5.085
				c0.207,1.036,0.933,1.488,1.843,1.488c0.622,0,1.295-0.252,1.814-0.688l1.132,1.243c-0.814,0.748-1.85,1.088-3.057,1.088
				c-2.198,0-3.723-1.495-3.723-3.753c0-2.258,1.48-3.797,3.627-3.797C300.197,467.99,301.611,469.522,301.618,471.757z
				 M296.504,471.091h3.175c-0.178-0.918-0.733-1.436-1.562-1.436C297.207,469.655,296.674,470.203,296.504,471.091z"/>
			<path id="XMLID_325_" style="fill:#222221;" d="M309.964,471.764c0,2.154-1.495,3.775-3.471,3.775
				c-0.962,0-1.643-0.378-2.109-0.933v3.708h-1.924v-10.133h1.887v0.792c0.466-0.585,1.155-0.984,2.139-0.984
				C308.469,467.99,309.964,469.61,309.964,471.764z M304.287,471.764c0,1.132,0.748,1.976,1.843,1.976
				c1.14,0,1.85-0.881,1.85-1.976c0-1.095-0.71-1.976-1.85-1.976C305.035,469.788,304.287,470.632,304.287,471.764z"/>
			<path id="XMLID_322_" style="fill:#222221;" d="M313.068,465.836c0,0.696-0.54,1.229-1.236,1.229
				c-0.696,0-1.229-0.533-1.229-1.229c0-0.696,0.533-1.243,1.229-1.243C312.527,464.592,313.068,465.14,313.068,465.836z
				 M312.809,475.354h-1.932v-7.172h1.932V475.354z"/>
			<path id="XMLID_320_" style="fill:#222221;" d="M316.032,470.736l2.701-2.554h2.368l-3.479,3.375l3.501,3.797h-2.376
				l-2.716-2.901v2.901H314.1v-10.658h1.932V470.736z"/>
		</g>
		<g>
			<path style="fill:#222221;" d="M184.412,475.289v-1.055c-0.527,0.718-1.391,1.23-2.387,1.23c-1.846,0-3.149-1.406-3.149-3.706
				c0-2.256,1.289-3.721,3.149-3.721c0.952,0,1.816,0.469,2.387,1.245v-3.765h1.099v9.77H184.412z M184.412,473.37v-3.208
				c-0.395-0.615-1.245-1.143-2.124-1.143c-1.421,0-2.27,1.172-2.27,2.739c0,1.567,0.85,2.724,2.27,2.724
				C183.168,474.483,184.017,473.986,184.412,473.37z"/>
			<path style="fill:#222221;" d="M186.932,471.744c0-2.051,1.465-3.706,3.486-3.706c2.139,0,3.398,1.67,3.398,3.794v0.279h-5.727
				c0.088,1.333,1.025,2.446,2.549,2.446c0.805,0,1.626-0.322,2.182-0.894l0.527,0.718c-0.703,0.703-1.655,1.084-2.812,1.084
				C188.44,475.465,186.932,473.956,186.932,471.744z M190.403,468.947c-1.509,0-2.256,1.274-2.314,2.358h4.643
				C192.718,470.25,192.015,468.947,190.403,468.947z"/>
			<path style="fill:#222221;" d="M194.607,474.351l0.571-0.791c0.469,0.542,1.362,1.011,2.329,1.011c1.084,0,1.67-0.513,1.67-1.216
				c0-1.714-4.38-0.659-4.38-3.281c0-1.098,0.952-2.036,2.636-2.036c1.201,0,2.051,0.454,2.622,1.026l-0.513,0.762
				c-0.424-0.513-1.201-0.894-2.109-0.894c-0.967,0-1.567,0.483-1.567,1.113c0,1.552,4.38,0.527,4.38,3.281
				c0,1.187-0.952,2.138-2.783,2.138C196.306,475.465,195.325,475.113,194.607,474.351z"/>
			<path style="fill:#222221;" d="M201.477,466.471c0-0.41,0.337-0.747,0.732-0.747c0.41,0,0.747,0.337,0.747,0.747
				c0,0.41-0.337,0.732-0.747,0.732C201.814,467.203,201.477,466.881,201.477,466.471z M201.667,475.289v-7.075h1.099v7.075H201.667
				z"/>
			<path style="fill:#222221;" d="M204.582,477.105l0.556-0.82c0.586,0.703,1.289,0.967,2.3,0.967c1.172,0,2.27-0.571,2.27-2.124
				v-1.011c-0.513,0.718-1.377,1.26-2.373,1.26c-1.845,0-3.149-1.377-3.149-3.662c0-2.27,1.289-3.677,3.149-3.677
				c0.952,0,1.802,0.469,2.373,1.245v-1.069h1.098v6.87c0,2.344-1.641,3.076-3.369,3.076
				C206.237,478.16,205.417,477.926,204.582,477.105z M209.709,473.253v-3.091c-0.381-0.615-1.23-1.143-2.109-1.143
				c-1.421,0-2.27,1.128-2.27,2.695c0,1.553,0.849,2.695,2.27,2.695C208.478,474.41,209.328,473.868,209.709,473.253z"/>
			<path style="fill:#222221;" d="M217.413,475.289v-4.629c0-1.245-0.63-1.641-1.582-1.641c-0.865,0-1.685,0.527-2.095,1.099v5.17
				h-1.099v-7.075h1.099v1.025c0.498-0.586,1.464-1.201,2.519-1.201c1.48,0,2.256,0.747,2.256,2.285v4.966H217.413z"/>
			<path style="fill:#222221;" d="M219.932,471.744c0-2.051,1.465-3.706,3.486-3.706c2.139,0,3.398,1.67,3.398,3.794v0.279h-5.727
				c0.088,1.333,1.025,2.446,2.549,2.446c0.806,0,1.626-0.322,2.183-0.894l0.527,0.718c-0.703,0.703-1.655,1.084-2.812,1.084
				C221.441,475.465,219.932,473.956,219.932,471.744z M223.404,468.947c-1.509,0-2.256,1.274-2.314,2.358h4.643
				C225.718,470.25,225.015,468.947,223.404,468.947z"/>
			<path style="fill:#222221;" d="M233.35,475.289v-1.055c-0.527,0.718-1.392,1.23-2.388,1.23c-1.846,0-3.149-1.406-3.149-3.706
				c0-2.256,1.289-3.721,3.149-3.721c0.952,0,1.817,0.469,2.388,1.245v-3.765h1.098v9.77H233.35z M233.35,473.37v-3.208
				c-0.396-0.615-1.245-1.143-2.124-1.143c-1.421,0-2.27,1.172-2.27,2.739c0,1.567,0.849,2.724,2.27,2.724
				C232.105,474.483,232.954,473.986,233.35,473.37z"/>
			<path style="fill:#222221;" d="M239.692,475.289v-9.77h1.098v3.765c0.572-0.776,1.421-1.245,2.388-1.245
				c1.845,0,3.149,1.465,3.149,3.721c0,2.299-1.304,3.706-3.149,3.706c-0.996,0-1.86-0.513-2.388-1.23v1.055H239.692z
				 M242.9,474.483c1.436,0,2.285-1.157,2.285-2.724c0-1.568-0.85-2.739-2.285-2.739c-0.864,0-1.728,0.527-2.109,1.143v3.208
				C241.171,473.986,242.036,474.483,242.9,474.483z"/>
			<path style="fill:#222221;" d="M247.528,477.061c0.161,0.073,0.425,0.117,0.601,0.117c0.483,0,0.805-0.161,1.055-0.747
				l0.469-1.069l-2.959-7.148h1.187l2.358,5.8l2.344-5.8h1.201l-3.545,8.51c-0.425,1.025-1.143,1.421-2.08,1.435
				c-0.234,0-0.601-0.044-0.805-0.103L247.528,477.061z"/>
		</g>
	</g>
</g>
</svg>
