<?xml version="1.0" encoding="utf-8"?>
<!-- Generator: Adobe Illustrator 27.5.0, SVG Export Plug-In . SVG Version: 6.00 Build 0)  -->
<svg version="1.1" xmlns="http://www.w3.org/2000/svg" xmlns:xlink="http://www.w3.org/1999/xlink" x="0px" y="0px"
	 viewBox="0 0 500 500" style="enable-background:new 0 0 500 500;" xml:space="preserve">
<g id="BACKGROUND">
</g>
<g id="OBJECTS">
	<g>
		<path d="M119.8,250.581c0.138,13.529-4.699,32.033-17.541,32.029c-13.475-0.004-18.054-18.134-18.192-31.664
			c-0.138-13.529,7.824-17.23,17.691-17.331C111.626,233.514,119.662,237.051,119.8,250.581z"/>
		<g>
			<path d="M108.87,216.69c-0.884-0.568-1.527-1.41-1.9-2.392c-0.781-2.057-2.741-3.512-5.037-3.512
				c-2.296,0-4.255,1.454-5.037,3.512c-0.373,0.983-1.016,1.824-1.9,2.392c-5.726,3.678-9.704,11.141-9.704,15.91
				c0,6.528,7.45,5.525,16.641,5.525s16.641,1.003,16.641-5.525C118.574,227.831,114.596,220.368,108.87,216.69z"/>
			<g>
				<path d="M101.933,177.176c0,0-1.863,8.535-1.863,33.558c0,14.987,3.726,15.233,3.726,0
					C103.796,185.71,101.933,177.176,101.933,177.176z"/>
			</g>
		</g>
		<path d="M112.503,207.262c0.312,0.606,0.559,1.247,0.734,1.908c1.318-2.093,3.269-6.673,3.939-9.076
			c0.742,5.267,0.218,10.69-1.443,15.695c-0.827,2.492-1.936,4.882-3.311,7.097c-0.557,0.897-1.201,2.225-2.45,1.757
			c-1.183-0.443-1.473-1.818-1.592-2.94c-0.163-1.538-0.26-3.126,0.104-4.62C110.236,209.88,111.565,209.005,112.503,207.262z"/>
		<path d="M91.364,207.262c-0.313,0.606-0.559,1.247-0.734,1.908c-1.318-2.093-3.269-6.673-3.939-9.076
			c-0.742,5.267-0.218,10.69,1.443,15.695c0.827,2.492,1.936,4.882,3.311,7.097c0.557,0.897,1.201,2.225,2.45,1.757
			c1.183-0.443,1.473-1.818,1.592-2.94c0.163-1.538,0.26-3.126-0.104-4.62C93.631,209.88,92.301,209.005,91.364,207.262z"/>
		<g>
			<g>
				<path d="M128.313,184.208c0,0,0.487,1.111,1.367,3.12c0.223,0.501,0.471,1.057,0.743,1.666c0.137,0.304,0.279,0.621,0.427,0.951
					c0.069,0.155,0.14,0.314,0.212,0.475c0.03,0.124,0.151,0.236,0.103,0.365c-0.492,1.426-1.051,3.051-1.67,4.846
					c-1.277,3.696-2.798,8.095-4.555,12.937c-0.882,2.418-1.821,4.951-2.863,7.526c-0.522,1.286-1.071,2.584-1.67,3.855
					c-0.3,0.633-0.615,1.26-0.949,1.851c-0.168,0.293-0.34,0.58-0.516,0.835c-0.153,0.243-0.431,0.556-0.353,0.466
					c0,0,0.002,0.005-0.003,0.01c0.054,0.027-0.266-0.121-0.469-0.163c-0.22-0.058-0.436-0.116-0.649-0.172
					c-0.418-0.068-0.829-0.156-1.209-0.171c-0.772-0.072-1.464-0.039-2.095,0.012c-1.26,0.113-2.263,0.362-3.049,0.619
					c-1.567,0.524-2.262,1.092-2.184,1.424c0.079,0.34,0.895,0.458,2.429,0.482c0.765,0.017,1.713,0.011,2.808,0.075
					c0.543,0.039,1.133,0.075,1.723,0.184c0.305,0.035,0.586,0.125,0.892,0.185c0.14,0.045,0.283,0.091,0.428,0.138
					c0.171,0.044,0.187,0.079,0.611,0.248c0.415,0.157,0.834,0.274,1.28,0.181c0.437-0.087,0.854-0.295,1.21-0.615
					c0.647-0.561,0.806-0.873,1.072-1.235c0.244-0.357,0.449-0.706,0.645-1.054c0.386-0.695,0.72-1.383,1.032-2.067
					c0.62-1.369,1.157-2.724,1.655-4.061c0.994-2.674,1.833-5.275,2.592-7.762c1.509-4.976,2.681-9.499,3.607-13.312
					c0.226-0.954,0.441-1.863,0.645-2.723c0.209-0.915,0.406-1.777,0.59-2.584c0.069-0.127-0.045-0.233-0.098-0.343l-0.186-0.322
					c-0.101-0.171-0.201-0.339-0.298-0.503c-0.186-0.31-0.365-0.609-0.536-0.895c-0.344-0.571-0.659-1.093-0.942-1.563
					C128.946,185.243,128.313,184.208,128.313,184.208z"/>
			</g>
			<g>
				<path d="M130.834,280.281c0,0,0.055-0.189,0.158-0.548c0.127-0.361,0.201-0.908,0.308-1.624c0.156-1.43,0.15-3.524-0.138-6.068
					c-0.281-2.547-0.798-5.547-1.622-8.83c-0.059-0.226-0.119-0.454-0.179-0.682c-0.027-0.177-0.194-0.405-0.208-0.467l-0.143-0.286
					c-0.192-0.382-0.386-0.768-0.582-1.158c-0.398-0.778-0.804-1.571-1.217-2.38c-0.835-1.612-1.716-3.272-2.639-4.961
					c-0.516-0.911-0.995-1.757-1.434-2.53c-9.102,2.123-5.795,3.715-1.513,3.222c-0.003,0.023-0.009,0.035-0.014,0.042
					c0.008,0.018-0.022-0.034,0.017,0.04l0.112,0.212c0.076,0.142,0.155,0.287,0.234,0.434c0.923,1.689,1.844,3.327,2.751,4.9
					c0.457,0.784,0.906,1.555,1.345,2.31c0.223,0.376,0.443,0.748,0.661,1.115c0.105,0.176,0.251,0.422,0.231,0.377l0.183,0.523
					c1.063,3.116,1.928,5.972,2.56,8.386c0.64,2.415,1.009,4.404,1.131,5.797c0.032,0.692,0.075,1.243,0.029,1.608
					C130.845,280.085,130.834,280.281,130.834,280.281z"/>
			</g>
			<g>
				<path d="M121.532,301.078c0,0,0.325-0.371,0.797-1.158c0.473-0.785,1.09-1.974,1.769-3.511c0.341-0.768,0.699-1.623,1.066-2.558
					c0.193-0.503,0.335-0.835,0.626-1.705c0.134-0.207-0.014-0.391-0.096-0.585c-0.083-0.182-0.167-0.365-0.252-0.549
					c-0.111-0.254-0.224-0.511-0.338-0.773c-0.466-1.042-0.959-2.146-1.476-3.304c-0.518-1.122-1.059-2.296-1.621-3.513
					c-0.191-0.645-0.387-1.309-0.588-1.988c-0.218-0.71-0.442-1.438-0.669-2.178c-0.462-1.48-0.955-3.01-1.473-4.566
					c-2.935-8.804-5.791-8.012-2.808,0.936c0.519,1.556,1.043,3.076,1.561,4.537c0.542,1.49,1.065,2.924,1.558,4.279
					c0.354,0.629,0.702,1.247,1.043,1.853c0.33,0.574,0.653,1.136,0.969,1.686c0.642,1.093,1.255,2.136,1.833,3.12
					c0.146,0.245,0.291,0.486,0.433,0.724c0.076,0.129,0.079,0.115,0.124,0.182c0.033,0.048,0.087,0.097,0.062,0.155
					c-0.007,0.156-0.167,0.813-0.268,1.26c-0.224,0.964-0.439,1.853-0.645,2.655c-0.408,1.606-0.78,2.867-1.079,3.717
					C121.761,300.641,121.532,301.078,121.532,301.078z"/>
			</g>
		</g>
		<g>
			<g>
				<path d="M75.555,184.208c0,0-0.487,1.111-1.367,3.12c-0.223,0.501-0.471,1.057-0.743,1.666
					c-0.137,0.304-0.279,0.621-0.427,0.951c-0.07,0.155-0.14,0.314-0.212,0.475c-0.03,0.124-0.15,0.236-0.103,0.365
					c0.492,1.426,1.051,3.051,1.67,4.846c1.277,3.696,2.798,8.095,4.555,12.937c0.882,2.418,1.821,4.951,2.863,7.526
					c0.522,1.286,1.071,2.584,1.67,3.855c0.3,0.633,0.615,1.26,0.949,1.851c0.168,0.293,0.34,0.58,0.516,0.835
					c0.153,0.243,0.431,0.556,0.353,0.466c0,0-0.002,0.005,0.003,0.01c-0.054,0.027,0.266-0.121,0.469-0.163
					c0.22-0.058,0.436-0.116,0.649-0.172c0.418-0.068,0.829-0.156,1.209-0.171c0.772-0.072,1.464-0.039,2.095,0.012
					c1.26,0.113,2.263,0.362,3.049,0.619c1.567,0.524,2.262,1.092,2.184,1.424c-0.079,0.34-0.895,0.458-2.429,0.482
					c-0.765,0.017-1.713,0.011-2.808,0.075c-0.543,0.039-1.133,0.075-1.723,0.184c-0.305,0.035-0.586,0.125-0.892,0.185
					c-0.14,0.045-0.283,0.091-0.428,0.138c-0.171,0.044-0.187,0.079-0.611,0.248c-0.415,0.157-0.834,0.274-1.28,0.181
					c-0.437-0.087-0.854-0.295-1.21-0.615c-0.647-0.561-0.806-0.873-1.072-1.235c-0.244-0.357-0.449-0.706-0.645-1.054
					c-0.386-0.695-0.72-1.383-1.032-2.067c-0.62-1.369-1.157-2.724-1.655-4.061c-0.994-2.674-1.833-5.275-2.592-7.762
					c-1.509-4.976-2.681-9.499-3.606-13.312c-0.226-0.954-0.441-1.863-0.645-2.723c-0.209-0.915-0.406-1.777-0.59-2.584
					c-0.069-0.127,0.045-0.233,0.098-0.343l0.186-0.322c0.101-0.171,0.201-0.339,0.298-0.503c0.186-0.31,0.365-0.609,0.536-0.895
					c0.344-0.571,0.659-1.093,0.942-1.563C74.922,185.243,75.555,184.208,75.555,184.208z"/>
			</g>
			<g>
				<path d="M73.034,280.281c0,0-0.054-0.189-0.158-0.548c-0.127-0.361-0.201-0.908-0.308-1.624c-0.156-1.43-0.15-3.524,0.138-6.068
					c0.281-2.547,0.798-5.547,1.622-8.83c0.059-0.226,0.119-0.454,0.179-0.682c0.027-0.177,0.193-0.405,0.208-0.467l0.143-0.286
					c0.192-0.382,0.386-0.768,0.582-1.158c0.398-0.778,0.804-1.571,1.217-2.38c0.835-1.612,1.716-3.272,2.639-4.961
					c0.516-0.911,0.995-1.757,1.434-2.53c9.102,2.123,5.795,3.715,1.513,3.222c0.003,0.023,0.009,0.035,0.014,0.042
					c-0.008,0.018,0.022-0.034-0.017,0.04l-0.112,0.212c-0.076,0.142-0.155,0.287-0.234,0.434c-0.923,1.689-1.844,3.327-2.75,4.9
					c-0.457,0.784-0.906,1.555-1.345,2.31c-0.223,0.376-0.443,0.748-0.661,1.115c-0.105,0.176-0.251,0.422-0.231,0.377l-0.184,0.523
					c-1.063,3.116-1.928,5.972-2.56,8.386c-0.64,2.415-1.009,4.404-1.131,5.797c-0.032,0.692-0.075,1.243-0.029,1.608
					C73.023,280.085,73.034,280.281,73.034,280.281z"/>
			</g>
			<g>
				<path d="M82.336,301.078c0,0-0.325-0.371-0.797-1.158c-0.473-0.785-1.09-1.974-1.769-3.511
					c-0.341-0.768-0.699-1.623-1.066-2.558c-0.193-0.503-0.335-0.835-0.626-1.705c-0.134-0.207,0.014-0.391,0.096-0.585
					c0.083-0.182,0.167-0.365,0.252-0.549c0.111-0.254,0.224-0.511,0.338-0.773c0.465-1.042,0.959-2.146,1.476-3.304
					c0.518-1.122,1.059-2.296,1.621-3.513c0.191-0.645,0.387-1.309,0.588-1.988c0.218-0.71,0.442-1.438,0.669-2.178
					c0.462-1.48,0.954-3.01,1.473-4.566c2.935-8.804,5.791-8.012,2.808,0.936c-0.519,1.556-1.043,3.076-1.561,4.537
					c-0.542,1.49-1.064,2.924-1.558,4.279c-0.354,0.629-0.702,1.247-1.043,1.853c-0.33,0.574-0.653,1.136-0.969,1.686
					c-0.642,1.093-1.255,2.136-1.833,3.12c-0.146,0.245-0.291,0.486-0.433,0.724c-0.076,0.129-0.079,0.115-0.124,0.182
					c-0.033,0.048-0.087,0.097-0.062,0.155c0.007,0.156,0.167,0.813,0.268,1.26c0.224,0.964,0.439,1.853,0.645,2.655
					c0.408,1.606,0.78,2.867,1.079,3.717C82.106,300.641,82.336,301.078,82.336,301.078z"/>
			</g>
		</g>
	</g>
	<g>
		<path d="M392.331,228.033c0.933,4.903,3.132,8.611,4.959,8.424c1.827,0.187,4.026-3.521,4.959-8.424
			c0.952-5.001,0.225-9.34-1.622-9.691c-0.576-0.11-1.192,0.183-1.796,0.787c-0.855,0.855-2.226,0.855-3.081,0
			c-0.604-0.605-1.22-0.897-1.796-0.787C392.105,218.693,391.379,223.032,392.331,228.033z"/>
		<path d="M405.827,234.219c-0.78-0.852-1.113-2.016-0.953-3.177c0.022-0.163,0.034-0.327,0.034-0.494
			c0-2.911-3.411-5.272-7.618-5.272c-4.207,0-7.618,2.36-7.618,5.272c0,0.167,0.012,0.332,0.034,0.494
			c0.159,1.161-0.174,2.325-0.953,3.177c-3.38,3.694-5.563,9.525-5.563,16.09c0,11.17,6.313,20.224,14.1,20.224
			c7.787,0,14.1-9.055,14.1-20.224C411.39,243.743,409.207,237.912,405.827,234.219z"/>
		<g>
			<path d="M416.356,174.102c0,0,0.091,1.59,0.257,4.475c0.099,1.441,0.219,3.206,0.359,5.258c0.147,1.947,0.315,4.165,0.501,6.622
				l-0.099,0.127c-0.033,0.042-0.052,0.061-0.139,0.193c-0.141,0.21-0.283,0.422-0.427,0.637c-0.284,0.431-0.573,0.871-0.869,1.32
				c-0.586,0.9-1.182,1.842-1.787,2.824c-1.206,1.969-2.453,4.084-3.624,6.437c-0.574,1.175-1.161,2.439-1.569,3.864
				c-0.405,1.385-0.666,2.777-0.874,4.189c-0.415,2.825-0.611,5.72-0.675,8.687c-0.013,0.738-0.005,0.529,0.002,0.57
				c-9.428,6.003-10.402,10.146,3.439,1.934c0.008-0.781,0.015-1.594,0.023-2.436c0.061-2.856,0.21-5.661,0.524-8.309
				c0.155-1.323,0.356-2.613,0.652-3.798c0.275-1.152,0.731-2.293,1.217-3.436c0.983-2.274,2.07-4.434,3.103-6.451
				c0.527-1.006,1.038-1.98,1.529-2.919c0.251-0.467,0.496-0.926,0.737-1.376c0.121-0.224,0.242-0.446,0.361-0.665
				c0.182-0.32,0.363-0.637,0.541-0.95c-0.072-0.437-0.142-0.869-0.212-1.296c-0.056-0.311-0.11-0.619-0.165-0.922
				c-0.11-0.607-0.216-1.198-0.32-1.772c-0.212-1.148-0.412-2.229-0.598-3.24c-0.388-2.02-0.722-3.757-0.995-5.175
				C416.673,175.663,416.356,174.102,416.356,174.102z"/>
		</g>
		<g>
			<path d="M378.223,174.102c0,0-0.318,1.56-0.894,4.393c-0.273,1.419-0.606,3.156-0.995,5.175c-0.187,1.011-0.386,2.092-0.598,3.24
				c-0.104,0.574-0.21,1.165-0.32,1.772c-0.054,0.304-0.109,0.611-0.165,0.922c-0.07,0.427-0.141,0.859-0.212,1.296
				c0.178,0.313,0.359,0.63,0.541,0.95c0.119,0.219,0.239,0.441,0.361,0.665c0.241,0.449,0.487,0.908,0.737,1.376
				c0.492,0.939,1.002,1.913,1.529,2.919c1.033,2.017,2.12,4.177,3.103,6.451c0.486,1.143,0.943,2.284,1.217,3.436
				c0.296,1.185,0.496,2.475,0.652,3.798c0.314,2.648,0.464,5.453,0.524,8.309c0.008,0.841,0.016,1.655,0.024,2.436
				c13.666,8.102,13.045,4.174,3.44-1.934c0.007-0.041,0.014,0.168,0.001-0.57c-0.064-2.967-0.26-5.862-0.675-8.687
				c-0.208-1.412-0.469-2.805-0.874-4.189c-0.408-1.425-0.995-2.69-1.569-3.864c-1.171-2.353-2.419-4.468-3.624-6.437
				c-0.605-0.982-1.201-1.924-1.787-2.824c-0.295-0.449-0.585-0.889-0.869-1.32c-0.144-0.215-0.286-0.427-0.427-0.637
				c-0.087-0.132-0.106-0.151-0.139-0.193l-0.099-0.127c0.186-2.457,0.354-4.675,0.501-6.622c0.14-2.052,0.261-3.816,0.359-5.258
				C378.132,175.692,378.223,174.102,378.223,174.102z"/>
		</g>
		<g>
			<g>
				<path d="M357.737,216.785c0,0,0.245-0.047,0.712-0.136c0.231-0.045,0.518-0.102,0.856-0.168
					c0.168-0.033,0.349-0.068,0.543-0.106c0.197-0.02,0.406-0.041,0.629-0.063c1.752-0.243,4.343-0.314,7.361,0.378
					c1.51,0.319,3.12,0.848,4.758,1.593c0.818,0.374,1.646,0.795,2.46,1.284c0.815,0.498,1.636,0.993,2.313,1.651
					c3.162,2.825,6.68,5.874,10.445,8.986c9.013,7.451,11.388,4.918,2.184-2.69c-3.778-3.123-7.444-6.013-10.817-8.591l-0.315-0.241
					l-0.157-0.12l-0.229-0.156c-0.249-0.162-0.491-0.302-0.732-0.442c-0.483-0.273-0.962-0.523-1.443-0.748
					c-0.957-0.46-1.914-0.83-2.852-1.142c-1.877-0.62-3.691-0.975-5.356-1.098c-3.334-0.299-6.007,0.239-7.731,0.805
					c-0.218,0.063-0.424,0.123-0.617,0.18c-0.188,0.075-0.363,0.145-0.526,0.21c-0.323,0.132-0.596,0.244-0.817,0.334
					C357.967,216.689,357.737,216.785,357.737,216.785z"/>
			</g>
			<g>
				<path d="M349.134,267.128c0,0,0.408-0.351,1.223-1.051c0.79-0.694,1.976-1.734,3.556-3.12c0.217-0.043,0.606-0.165,0.971-0.284
					c0.367-0.123,0.748-0.262,1.142-0.414c0.786-0.309,1.62-0.686,2.492-1.135c1.738-0.906,3.628-2.126,5.45-3.81
					c1.823-1.703,3.477-3.789,5.039-6.133c0.777-1.173,1.53-2.411,2.25-3.708c0.362-0.648,0.713-1.312,1.058-1.992
					c0.313-0.607,0.802-1.658,0.731-1.469l0.049-0.004c0.188-0.067,0.377-0.135,0.568-0.203c0.425-0.154,0.856-0.311,1.293-0.47
					c0.873-0.321,1.769-0.651,2.683-0.987c1.823-0.687,3.718-1.402,5.642-2.128c14.131-5.417,13.122-8.741-1.24-3.236
					c-1.917,0.747-3.804,1.482-5.619,2.189c-2.031,0.812-3.981,1.592-5.804,2.322c-0.652,1.598-0.795,1.907-1.12,2.641
					c-0.297,0.66-0.6,1.31-0.911,1.945c-0.62,1.272-1.263,2.492-1.924,3.651c-1.323,2.311-2.73,4.4-4.221,6.071
					c-1.51,1.678-3.143,3.002-4.681,4.043c-0.772,0.517-1.518,0.971-2.225,1.36c-0.355,0.192-0.698,0.372-1.03,0.535
					c-0.337,0.16-0.619,0.302-1.056,0.468c-0.203,0.224-0.4,0.441-0.59,0.651c-0.167,0.188-0.328,0.37-0.484,0.546
					c-0.311,0.352-0.599,0.679-0.866,0.981c-0.53,0.607-0.972,1.112-1.325,1.516C349.484,266.72,349.134,267.128,349.134,267.128z"
					/>
			</g>
			<g>
				<path d="M374.227,302.259c0,0-0.258-0.289-0.749-0.838c-0.255-0.263-0.526-0.63-0.852-1.054
					c-0.341-0.412-0.672-0.934-1.053-1.51c-0.731-1.173-1.536-2.661-2.236-4.483c-0.703-1.819-1.304-3.963-1.736-6.374
					c-0.881-4.818-1.052-10.716-0.393-17.164c0.086-0.805,0.179-1.619,0.293-2.438c0.06-0.408,0.121-0.818,0.181-1.23l0.101-0.615
					c0.025-0.146,0.015-0.071,0.022-0.104l0.012-0.027l0.026-0.018l0.012-0.008l0.093-0.094l0.458-0.467
					c0.306-0.313,0.613-0.626,0.922-0.942c0.616-0.632,1.238-1.271,1.865-1.915c2.506-2.581,5.084-5.268,7.705-8.039
					c12.557-13.279,10.245-15.877-2.518-2.381c-2.621,2.771-5.16,5.496-7.596,8.142c-1.323,1.444-2.623,2.863-3.897,4.252
					c-0.056,0.193-0.073,0.404-0.11,0.604l-0.078,0.534l-0.081,0.66c-0.046,0.437-0.091,0.871-0.136,1.303
					c-0.081,0.863-0.139,1.715-0.187,2.557c-0.356,6.731,0.268,12.843,1.618,17.774c0.666,2.466,1.504,4.632,2.424,6.438
					c0.916,1.81,1.915,3.247,2.798,4.353c0.458,0.542,0.854,1.027,1.25,1.402c0.382,0.387,0.697,0.718,0.989,0.95
					C373.933,302.006,374.227,302.259,374.227,302.259z"/>
			</g>
		</g>
		<g>
			<g>
				<path d="M436.842,216.784c0,0-0.23-0.096-0.667-0.278c-0.221-0.09-0.494-0.202-0.817-0.334c-0.163-0.065-0.338-0.135-0.526-0.21
					c-0.193-0.056-0.399-0.116-0.617-0.18c-1.724-0.567-4.398-1.104-7.731-0.805c-1.665,0.123-3.479,0.478-5.356,1.098
					c-0.938,0.312-1.895,0.683-2.852,1.142c-0.48,0.225-0.96,0.476-1.443,0.748c-0.241,0.14-0.483,0.28-0.732,0.442l-0.229,0.156
					l-0.157,0.12l-0.315,0.241c-3.373,2.577-7.04,5.468-10.817,8.591c-9.056,7.486-6.976,10.263,2.184,2.69
					c3.764-3.112,7.283-6.161,10.445-8.986c0.677-0.657,1.498-1.153,2.313-1.651c0.814-0.489,1.642-0.91,2.46-1.284
					c1.638-0.744,3.248-1.274,4.758-1.593c3.018-0.693,5.609-0.621,7.361-0.378c0.222,0.022,0.432,0.043,0.629,0.063
					c0.194,0.038,0.375,0.073,0.543,0.106c0.338,0.066,0.625,0.122,0.856,0.168C436.596,216.738,436.842,216.784,436.842,216.784z"
					/>
			</g>
			<g>
				<path d="M445.445,267.128c0,0-0.351-0.408-1.051-1.223c-0.354-0.404-0.795-0.91-1.325-1.516
					c-0.266-0.302-0.555-0.629-0.866-0.981c-0.156-0.176-0.317-0.357-0.484-0.546c-0.19-0.21-0.387-0.427-0.59-0.651
					c-0.437-0.166-0.718-0.308-1.056-0.468c-0.332-0.164-0.676-0.343-1.03-0.535c-0.708-0.39-1.453-0.844-2.225-1.36
					c-1.538-1.042-3.17-2.365-4.68-4.043c-1.492-1.672-2.899-3.761-4.222-6.071c-0.661-1.159-1.304-2.379-1.924-3.651
					c-0.311-0.635-0.614-1.285-0.911-1.945c-0.325-0.735-0.468-1.043-1.12-2.641c-1.823-0.729-3.773-1.509-5.804-2.322
					c-1.815-0.707-3.702-1.442-5.619-2.189c-14.131-5.417-15.603-2.27-1.24,3.236c1.925,0.726,3.82,1.441,5.642,2.128
					c0.914,0.336,1.81,0.666,2.683,0.987c0.437,0.159,0.868,0.315,1.293,0.47c0.191,0.068,0.38,0.136,0.568,0.203l0.049,0.004
					c-0.071-0.189,0.418,0.862,0.731,1.469c0.344,0.679,0.696,1.343,1.058,1.992c0.721,1.297,1.473,2.535,2.25,3.708
					c1.562,2.343,3.215,4.43,5.039,6.133c1.822,1.683,3.711,2.904,5.45,3.81c0.873,0.448,1.707,0.825,2.492,1.135
					c0.394,0.152,0.775,0.291,1.142,0.414c0.365,0.118,0.755,0.241,0.971,0.284c1.58,1.386,2.765,2.427,3.556,3.12
					C445.037,266.777,445.445,267.128,445.445,267.128z"/>
			</g>
			<g>
				<path d="M420.352,302.259c0,0,0.294-0.252,0.855-0.733c0.291-0.232,0.607-0.563,0.989-0.95c0.396-0.375,0.793-0.86,1.25-1.403
					c0.883-1.105,1.882-2.543,2.798-4.353c0.92-1.806,1.758-3.972,2.424-6.438c1.35-4.931,1.973-11.043,1.618-17.774
					c-0.048-0.842-0.106-1.694-0.187-2.557c-0.045-0.432-0.091-0.866-0.136-1.303l-0.081-0.66l-0.078-0.534
					c-0.037-0.2-0.055-0.411-0.11-0.604c-1.273-1.389-2.573-2.808-3.896-4.252c-2.437-2.646-4.976-5.37-7.596-8.142
					c-12.557-13.279-15.281-11.115-2.518,2.381c2.621,2.771,5.199,5.459,7.705,8.039c0.627,0.644,1.249,1.283,1.865,1.915
					c0.309,0.316,0.616,0.63,0.922,0.942l0.458,0.467l0.093,0.094l0.012,0.008l0.026,0.018l0.011,0.027
					c0.007,0.034-0.002-0.042,0.023,0.104l0.101,0.615c0.061,0.412,0.121,0.823,0.181,1.23c0.114,0.819,0.207,1.633,0.293,2.438
					c0.659,6.447,0.488,12.345-0.393,17.164c-0.432,2.411-1.033,4.555-1.736,6.374c-0.7,1.822-1.505,3.31-2.236,4.483
					c-0.382,0.576-0.713,1.098-1.053,1.51c-0.326,0.424-0.597,0.791-0.852,1.054C420.609,301.97,420.352,302.259,420.352,302.259z"
					/>
			</g>
		</g>
	</g>
	<g>
		<g>
			<path d="M283.504,226.434c1.392,6.476-2.369,8.167-12.594,14.975c-20.314,13.525-20.496,12.789-25.025,7.192
				c-2.704-3.341,6.422-31.906,17.366-33.685C276.037,212.836,282.112,219.958,283.504,226.434z"/>
		</g>
		<g>
			<g>
				<path d="M251.417,296.536c0,0-0.064-0.085-0.189-0.25c-0.121-0.162-0.271-0.374-0.446-0.726c-0.18-0.328-0.38-0.726-0.595-1.236
					c-0.108-0.25-0.226-0.503-0.34-0.79c-0.11-0.289-0.227-0.597-0.351-0.923c-0.49-1.28-0.986-2.891-1.475-4.687
					c-0.109-0.454-0.222-0.924-0.338-1.409c-0.058-0.237-0.117-0.477-0.177-0.721c-0.048-0.249-0.096-0.502-0.145-0.759
					c-0.099-0.5-0.2-1.014-0.304-1.542c-0.077-0.526-0.156-1.067-0.237-1.62c-0.682-4.36-0.628-9.3,0.147-13.982
					c0.14-0.593,0.267-1.181,0.378-1.766c0.067-0.293,0.081-0.582,0.18-0.877c0.084-0.291,0.168-0.584,0.253-0.878
					c0.173-0.594,0.276-1.144,0.457-1.77c0.19-0.634,0.361-1.28,0.566-1.849c0.176-0.612,0.404-1.121,0.584-1.665
					c0.218-0.489,0.403-0.991,0.62-1.417c0.419-0.882,0.829-1.63,1.332-2.45c0.611-0.973,1.025-2.153,1.35-3.547
					c0.321-1.387,0.448-2.925,0.341-4.473c-0.11-1.547-0.478-3.098-1.096-4.543c-0.624-1.445-1.505-2.787-2.601-3.932
					c-1.096-1.145-2.407-2.091-3.892-2.743c-1.484-0.656-3.138-1.018-4.93-0.941c-1.789,0.07-3.73,0.601-5.763,1.797
					c-2.02,1.207-4.199,3.191-6.054,6.159c-1.513,2.436-2.72,5.101-3.533,7.682c-0.425,1.301-0.709,2.554-0.976,3.8
					c-0.206,1.209-0.416,2.432-0.498,3.56c-0.124,1.162-0.151,2.244-0.172,3.32c-0.015,1.084,0.07,2.232,0.129,3.316
					c0.039,0.545,0.079,1.087,0.117,1.626c0.033,0.537,0.159,1.066,0.239,1.591c0.184,1.049,0.383,2.077,0.595,3.079
					c0.262,0.993,0.578,1.956,0.88,2.897c0.157,0.467,0.312,0.931,0.467,1.391c0.194,0.444,0.386,0.885,0.577,1.323
					c0.391,0.867,0.771,1.716,1.184,2.526c0.453,0.793,0.908,1.561,1.362,2.303c0.434,0.752,0.94,1.441,1.443,2.106
					c0.504,0.663,0.981,1.316,1.495,1.919c1.077,1.178,2.057,2.304,3.155,3.242c4.242,3.854,8.39,5.883,11.392,6.919
					c0.376,0.123,0.73,0.24,1.063,0.349c0.337,0.102,0.672,0.18,0.968,0.255c0.302,0.072,0.567,0.139,0.827,0.188
					c0.263,0.04,0.501,0.076,0.714,0.108c0.403,0.067,0.762,0.067,0.978,0.057C251.31,296.542,251.417,296.536,251.417,296.536z"/>
			</g>
		</g>
		<g>
			<path d="M292.043,233.486c-0.303,4.722-4.377,8.304-9.099,8.001c-4.722-0.303-8.304-4.377-8.001-9.099
				c0.303-4.722,4.377-8.304,9.099-8.001C288.764,224.69,292.346,228.764,292.043,233.486z"/>
		</g>
		<g>
			<path d="M293.183,230.247c-0.13,2.028-2.438,2.079-4.466,1.949c-2.028-0.13-3.566-1.879-3.436-3.907
				c0.13-2.028,0.739-5.361,2.766-5.231C290.075,223.188,293.313,228.219,293.183,230.247z"/>
		</g>
		<g>
			<path d="M272.208,219.015c0,0-43.627-9.092-75.351-2.798c-25.766,5.113-29.639,11.741-19.368,20.706
				c18.282,15.958,39.002,8.394,58.813-0.881C256.769,226.459,272.208,219.015,272.208,219.015z"/>
		</g>
		<g>
			<g>
				<path d="M259.61,271.095c0,0-0.016-0.127-0.047-0.372c-0.019-0.121-0.031-0.273-0.038-0.453
					c-0.015-0.178-0.018-0.386-0.01-0.618c0.019-0.917,0.225-2.301,0.974-3.745c0.036-0.067,0.075-0.125,0.128-0.177
					c0.07-0.086,0.141-0.172,0.212-0.26c0.145-0.178,0.292-0.361,0.444-0.548c0.301-0.375,0.615-0.767,0.942-1.174
					c0.646-0.82,1.342-1.704,2.083-2.643c0.728-0.948,1.5-1.953,2.309-3.008c0.399-0.531,0.807-1.074,1.224-1.629
					c0.207-0.279,0.416-0.56,0.627-0.844c0.368-0.518,0.739-1.042,1.114-1.57c-0.275-0.612-0.553-1.233-0.836-1.863
					c-0.16-0.368-0.322-0.741-0.487-1.118c-0.334-0.752-0.675-1.521-1.023-2.304c-0.703-1.563-1.448-3.177-2.228-4.815
					c-4.253-8.938-7.4-7.62-3.077,1.464c0.78,1.639,1.562,3.234,2.331,4.766c0.389,0.764,0.77,1.514,1.143,2.247
					c0.189,0.365,0.376,0.726,0.561,1.083l0.069,0.133l0.03,0.058l0.006,0.006l0.025,0.025l0.055,0.061l-0.016,0.063l-0.01,0.036
					c-0.004,0.013,0.005,0.006-0.059,0.107c-0.185,0.302-0.367,0.601-0.548,0.897c-0.359,0.594-0.71,1.176-1.054,1.745
					c-0.675,1.145-1.319,2.236-1.927,3.266c-0.595,1.038-1.154,2.014-1.673,2.92c-0.256,0.455-0.501,0.893-0.737,1.313
					c-0.117,0.21-0.231,0.416-0.342,0.616c-0.056,0.102-0.112,0.202-0.167,0.301c-0.083,0.126-0.139,0.267-0.181,0.404
					c-0.546,1.804-0.433,3.27-0.248,4.219c0.046,0.239,0.096,0.446,0.153,0.622c0.049,0.178,0.096,0.324,0.144,0.44
					C259.564,270.975,259.61,271.095,259.61,271.095z"/>
			</g>
		</g>
		<g>
			<g>
				<path d="M254.195,268.562c0,0-0.008-0.136-0.024-0.396c-0.016-0.258-0.018-0.641,0.028-1.126
					c0.05-0.485,0.149-1.072,0.352-1.727c0.097-0.328,0.228-0.671,0.38-1.025c0.077-0.177,0.161-0.356,0.253-0.535
					c0.048-0.088,0.096-0.177,0.144-0.268c0.05-0.092,0.105-0.181,0.139-0.226c0.018-0.029,0.048-0.051,0.071-0.076l0.111-0.126
					c0.077-0.088,0.154-0.177,0.233-0.267c0.156-0.181,0.316-0.366,0.48-0.555c0.325-0.38,0.664-0.776,1.016-1.188
					c0.701-0.826,1.449-1.719,2.232-2.672c0.783-0.953,1.603-1.967,2.449-3.036c0.42-0.536,0.85-1.084,1.288-1.642
					c0.217-0.281,0.436-0.564,0.656-0.85c0.41-0.555,0.825-1.116,1.242-1.681c-0.521-1.05-1.081-2.18-1.666-3.357
					c-0.43-0.863-0.885-1.758-1.354-2.66c-3.981-7.668-7.104-6.205-3.058,1.588c0.469,0.903,0.939,1.789,1.397,2.638
					c0.231,0.423,0.457,0.838,0.678,1.241l0.083,0.15c0.026,0.047,0.064,0.118,0.056,0.098l0.015,0.008l0.037,0.026
					c0.001,0.009,0.001,0.019,0,0.03l-0.002,0.019l-0.002,0.01c-0.006,0.012,0.014-0.014-0.023,0.04
					c-0.198,0.302-0.395,0.602-0.589,0.898c-0.385,0.596-0.762,1.181-1.132,1.753c-0.733,1.148-1.424,2.254-2.069,3.306
					c-0.645,1.052-1.245,2.049-1.797,2.982c-0.274,0.467-0.538,0.917-0.791,1.348c-0.262,0.456-0.512,0.892-0.751,1.307
					c-0.066,0.158-0.105,0.272-0.14,0.384c-0.038,0.114-0.07,0.227-0.101,0.338c-0.061,0.223-0.112,0.439-0.154,0.651
					c-0.083,0.423-0.139,0.822-0.163,1.196c-0.055,0.747-0.008,1.384,0.068,1.891c0.08,0.507,0.186,0.885,0.272,1.134
					C254.15,268.433,254.195,268.562,254.195,268.562z"/>
			</g>
		</g>
		<g>
			<g>
				<path d="M270.105,242.439c0.029,0.003-0.217,0.399-0.13,1.266c0.061,0.423,0.267,0.974,0.715,1.449
					c0.438,0.483,1.066,0.891,1.795,1.195c0.365,0.153,0.757,0.283,1.172,0.392c0.208,0.055,0.421,0.103,0.641,0.145
					c0.111,0.02,0.222,0.039,0.335,0.059c0.159,0.021,0.328,0.037,0.496,0.048c0.082-0.004,0.175,0.034,0.252-0.007l0.241-0.085
					l0.245-0.093l0.172-0.06c0.209-0.072,0.422-0.145,0.638-0.219c0.431-0.152,0.876-0.308,1.333-0.469
					c0.912-0.327,1.871-0.683,2.865-1.068c0.496-0.196,1.002-0.396,1.517-0.6c0.257-0.105,0.515-0.21,0.776-0.317l0.535-0.228
					c0.256-0.112,0.514-0.225,0.772-0.338c0.303-0.58,0.63-1.209,0.973-1.865c0.244-0.48,0.499-0.981,0.756-1.486
					c2.834-5.692-0.118-7.278-2.998-1.493c-0.249,0.51-0.495,1.015-0.731,1.499c-0.115,0.244-0.228,0.482-0.337,0.714l-0.04,0.087
					c-0.015,0.033-0.028,0.061-0.022,0.051l0.003,0.007l0.005,0.017c-0.001,0.005-0.003,0.011-0.005,0.018l-0.002,0.005
					l-0.001,0.003l-0.043,0.022l-0.189,0.095c-0.251,0.128-0.5,0.255-0.747,0.381c-0.491,0.257-0.973,0.51-1.445,0.757
					c-0.941,0.501-1.836,0.995-2.68,1.472c-0.421,0.241-0.83,0.476-1.226,0.703c-0.197,0.115-0.392,0.229-0.582,0.341
					c-0.04,0.025-0.111,0.063-0.126,0.077l-0.051,0.042c-0.035,0.029-0.071,0.063-0.115,0.067l-0.134,0.03l-0.282,0.015
					c-0.187,0.008-0.372,0.009-0.553,0.006c-0.361-0.006-0.706-0.031-1.028-0.076c-0.645-0.088-1.198-0.261-1.619-0.51
					c-0.429-0.243-0.703-0.581-0.872-0.904C270.07,242.912,270.126,242.427,270.105,242.439z"/>
			</g>
		</g>
		<g>
			<g>
				<path d="M277.297,252.627c0.026-0.011,0.012,0.454,0.522,1.16c0.265,0.335,0.719,0.709,1.345,0.895
					c0.621,0.198,1.369,0.236,2.152,0.133c0.393-0.051,0.797-0.135,1.211-0.249c0.207-0.057,0.416-0.122,0.627-0.196
					c0.105-0.039,0.212-0.078,0.32-0.117c0.148-0.062,0.302-0.133,0.454-0.207c0.069-0.045,0.168-0.059,0.214-0.132l0.166-0.194
					l0.165-0.204l0.119-0.139c0.145-0.167,0.293-0.337,0.443-0.509c0.297-0.347,0.603-0.706,0.918-1.074
					c0.626-0.741,1.276-1.529,1.943-2.361c0.33-0.418,0.668-0.845,1.011-1.28c0.17-0.219,0.34-0.44,0.513-0.663l0.349-0.466
					c0.166-0.226,0.332-0.452,0.499-0.68c-0.029-0.654-0.061-1.362-0.094-2.102c-0.03-0.538-0.06-1.099-0.092-1.665
					c-0.402-6.346-3.752-6.238-3.343,0.212c0.041,0.566,0.081,1.126,0.119,1.663c0.023,0.269,0.045,0.531,0.067,0.786l0.009,0.095
					c0.003,0.036,0.006,0.067,0.006,0.055l0.006,0.004l0.013,0.012c0.002,0.005,0.003,0.011,0.005,0.018l0.001,0.005l0,0.003
					l-0.027,0.041l-0.116,0.177c-0.153,0.237-0.305,0.471-0.455,0.704c-0.296,0.469-0.586,0.929-0.87,1.38
					c-0.563,0.906-1.09,1.782-1.58,2.618c-0.243,0.42-0.479,0.828-0.708,1.223c-0.113,0.199-0.224,0.395-0.333,0.587
					c-0.023,0.042-0.064,0.11-0.071,0.13l-0.023,0.062c-0.016,0.043-0.029,0.09-0.066,0.115l-0.101,0.093l-0.237,0.154
					c-0.158,0.101-0.317,0.195-0.475,0.282c-0.315,0.176-0.626,0.327-0.927,0.45c-0.602,0.247-1.167,0.375-1.657,0.37
					c-0.493,0.005-0.899-0.15-1.208-0.344C277.504,253.053,277.31,252.606,277.297,252.627z"/>
			</g>
		</g>
		<g>
			<path d="M287.753,229.87c-0.288-0.019-0.561-0.179-0.711-0.45c-0.234-0.424-0.08-0.957,0.343-1.191
				c6.394-3.535,14.624-4.803,24.469-3.766c3.121,0.328,5.565,0.535,7.928,0.735c3.825,0.323,7.128,0.602,12.162,1.297
				c0.479,0.066,0.814,0.508,0.748,0.988c-0.066,0.48-0.517,0.82-0.988,0.748c-4.988-0.689-8.27-0.966-12.07-1.287
				c-2.372-0.2-4.825-0.408-7.964-0.738c-9.482-0.999-17.364,0.199-23.438,3.556C288.08,229.846,287.914,229.88,287.753,229.87z"/>
		</g>
		<g>
			<path d="M290.925,228.126c-0.252-0.016-0.495-0.14-0.654-0.36c-0.284-0.392-0.197-0.939,0.195-1.223
				c0.153-0.111,0.328-0.23,0.522-0.361c1.318-0.894,3.525-2.39,4.722-5.966c0.637-1.904,1.269-3.919,1.5-5.988
				c-3.652,0.242-7.3,0.792-10.858,1.638c-0.469,0.112-0.943-0.179-1.055-0.65c-0.112-0.471,0.179-0.943,0.65-1.055
				c3.985-0.947,8.08-1.533,12.171-1.741c0.246-0.013,0.487,0.08,0.663,0.254c0.175,0.175,0.268,0.415,0.257,0.662
				c-0.122,2.635-0.924,5.22-1.666,7.437c-1.385,4.139-3.998,5.91-5.401,6.861c-0.176,0.12-0.337,0.228-0.477,0.329
				C291.323,228.086,291.121,228.139,290.925,228.126z"/>
		</g>
	</g>
	<g>
		<path d="M226.624,141.196c-26.706-2.985,14.492-68.161,48.406-75.721c42.193-9.406,11.924,35.42,18.884,57.356
			C300.875,144.767,254.491,144.311,226.624,141.196z"/>
		<path d="M225.102,137.101c-25.366,8.868-16.439-67.718,10.862-89.213c33.965-26.742,26.08,26.769,41.849,43.531
			C293.583,108.181,251.571,127.847,225.102,137.101z"/>
		<circle cx="209.448" cy="132.501" r="5.302"/>
		<path d="M211.482,137.678c1.128,2.404,5.472,6.267,12.387,8.146c6.915,1.879,13.328-0.29,14.762-2.79
			c3.096-5.398-11.038-15.097-17.952-16.976S208.536,131.399,211.482,137.678z"/>
		<path d="M259.877,145.983c2.651,1.558,5.272,3.214,7.501,5.331c1.294,1.228,2.478,2.663,2.951,4.383
			c0.473,1.72,0.084,3.77-1.318,4.874c-1.464,1.152-3.576,1-5.341,0.408c-4.366-1.464-7.597-5.068-11.241-7.883
			c-4.217-3.257-9.179-5.544-14.395-6.634c-5.264-1.1-11.063-1.115-15.372-4.333c-4.999-3.734,1.383-8.924,5.698-8.711
			c6.857,0.338,14.176,3.826,20.314,6.671C252.504,141.864,256.237,143.844,259.877,145.983z"/>
		<g>
			<g>
				<g>
					<path d="M206.747,132.087c-0.012,0-0.024-0.001-0.036-0.001c-1.158-0.084-28.448-2.161-34.875-10.893
						c-1.238-1.682-1.637-3.52-1.184-5.461c0.061-0.261,0.323-0.425,0.584-0.362c0.261,0.061,0.423,0.322,0.362,0.584
						c-0.391,1.675-0.058,3.2,1.02,4.664c6.163,8.373,33.885,10.48,34.164,10.5c0.268,0.02,0.469,0.252,0.449,0.52
						C207.212,131.893,206.999,132.087,206.747,132.087z"/>
				</g>
				<g>
					<path d="M208.602,132.987c-0.099,0-0.2-0.03-0.286-0.094c-0.937-0.687-22.958-16.937-23.769-27.749
						c-0.156-2.083,0.482-3.851,1.896-5.256c0.19-0.189,0.498-0.188,0.687,0.003c0.189,0.19,0.188,0.498-0.003,0.687
						c-1.221,1.212-1.747,2.682-1.612,4.494c0.777,10.368,23.149,26.873,23.375,27.038c0.216,0.159,0.263,0.463,0.105,0.679
						C208.899,132.918,208.752,132.987,208.602,132.987z"/>
				</g>
			</g>
			<g>
				<g>
					<path d="M193.052,138.936c0,0,0.328,0.053,0.94,0.151c0.309,0.052,0.692,0.044,1.147,0.072c0.452-0.003,0.977-0.02,1.558-0.091
						c1.165-0.128,2.566-0.455,4.086-1.048c0.758-0.298,1.553-0.649,2.362-1.074c0.403-0.215,0.813-0.442,1.225-0.691
						c0.203-0.118,0.422-0.263,0.61-0.38l0.128-0.074l0.071-0.035c0.031,0.019,0.06,0.043,0.087,0.062
						c0.026,0.016-0.003,0.006,0.067,0.043l0.217,0.115c0.29,0.153,0.584,0.308,0.882,0.465c0.597,0.31,1.207,0.628,1.83,0.952
						c1.405,0.718,1.946,1.011,5.22,2.603c0.192-1.119,0.421-2.449,0.652-3.795c0.398-3.74-1.541-4.682-2.203-0.371
						c-0.035,0.208-0.069,0.416-0.104,0.621l-0.043,0.263l0.001,0.001c0,0,0.004,0.008,0.007,0.018
						c0.568,0.29-1.52-0.682-2.645-1.18c-1.456-0.645-2.854-1.265-4.18-1.853l-0.504,0.414l-0.448,0.354
						c-0.186,0.141-0.369,0.281-0.55,0.419c-0.36,0.268-0.723,0.519-1.079,0.76c-0.716,0.479-1.423,0.893-2.101,1.262
						c-1.358,0.734-2.626,1.231-3.706,1.525c-0.538,0.154-1.033,0.252-1.465,0.33c-0.434,0.048-0.809,0.124-1.113,0.129
						C193.381,138.925,193.052,138.936,193.052,138.936z"/>
				</g>
				<g>
					<g>
						<path d="M191.633,147.526c0,0,0.33-0.039,0.945-0.113c0.311-0.035,0.678-0.147,1.123-0.246
							c0.433-0.127,0.934-0.287,1.473-0.515c1.086-0.443,2.343-1.142,3.641-2.129c0.647-0.495,1.315-1.05,1.976-1.682
							c0.329-0.317,0.661-0.648,0.988-1c0.162-0.169,0.333-0.369,0.482-0.533l0.103-0.106l0.059-0.053
							c0.035,0.009,0.07,0.025,0.1,0.036c0.03,0.008-0.001,0.006,0.076,0.023l0.24,0.051c0.321,0.068,0.647,0.136,0.976,0.205
							c0.659,0.134,1.333,0.272,2.021,0.413c1.548,0.305,2.149,0.438,5.734,1.07c-0.123-1.129-0.268-2.471-0.415-3.829
							c-0.875-7.823-3.11-7.703-2.221,0.248c0.024,0.21,0.048,0.419,0.071,0.626l0.031,0.264l0.002,0.001
							c0,0,0.006,0.006,0.012,0.016c0.625,0.123-1.649-0.238-2.868-0.409c-1.577-0.221-3.091-0.432-4.528-0.634l-0.371,0.537
							l-0.334,0.463c-0.139,0.187-0.278,0.372-0.414,0.554c-0.273,0.357-0.553,0.697-0.829,1.027
							c-0.557,0.657-1.123,1.249-1.673,1.791c-1.105,1.079-2.187,1.905-3.145,2.484c-0.475,0.296-0.924,0.526-1.318,0.72
							c-0.404,0.165-0.743,0.341-1.035,0.429C191.947,147.424,191.633,147.526,191.633,147.526z"/>
					</g>
					<g>
						<path d="M236.863,179.507c0,0-0.196-0.143-0.569-0.416c-0.184-0.139-0.422-0.294-0.682-0.507
							c-0.255-0.218-0.549-0.469-0.88-0.752c-1.299-1.154-2.969-3.053-4.568-5.686c-1.56-2.639-3.128-6.019-4.032-9.919
							c-0.026-0.116-0.064-0.277-0.059-0.267c-0.002-0.005,0.003-0.029,0.005-0.019c-0.001,0.02,0.001-0.011,0.006-0.052
							l0.011-0.104c0.027-0.276,0.067-0.558,0.083-0.836c0.027-0.553,0.06-1.116,0.051-1.673c0.007-1.122-0.06-2.252-0.152-3.396
							c-0.194-2.287-0.525-4.626-0.962-7.003c-0.073-0.374-0.144-0.735-0.212-1.084c-0.031-0.136-0.029-0.087-0.044-0.115
							c5.889-2.628,7.81-5.241-2.506-1.341c0.119,0.604,0.242,1.232,0.37,1.883c0.062,0.342,0.127,0.696,0.194,1.062
							c0.427,2.325,0.785,4.606,1.031,6.805c0.118,1.099,0.219,2.179,0.253,3.225c0.03,0.527,0.02,1.036,0.019,1.543
							c-0.003,0.253-0.027,0.495-0.039,0.741l-0.016,0.235c0.005,0.139-0.046,0.249,0.004,0.369l0.135,0.487
							c1.184,4.131,3.072,7.484,4.93,10.077c1.897,2.576,3.826,4.33,5.28,5.339c0.369,0.244,0.696,0.461,0.98,0.648
							c0.287,0.18,0.548,0.306,0.749,0.42C236.65,179.391,236.863,179.507,236.863,179.507z"/>
					</g>
					<g>
						<path d="M203.137,169.407c0,0,0.153-0.066,0.448-0.192c0.148-0.065,0.331-0.146,0.548-0.241
							c0.207-0.117,0.446-0.253,0.715-0.406c1.061-0.636,2.505-1.836,3.763-3.778c0.63-0.968,1.218-2.096,1.673-3.42l0.088-0.28
							c0.046-0.113,0.038-0.292,0.05-0.353c0.016-0.169,0.032-0.339,0.048-0.511c0.032-0.344,0.064-0.693,0.098-1.049
							c0.064-0.711,0.13-1.445,0.197-2.201c0.125-1.512,0.256-3.11,0.394-4.78c0.063-0.835,0.126-1.689,0.191-2.559
							c0.031-0.435,0.062-0.874,0.093-1.318l0.044-0.632l0.013-0.032l0.021-0.002l0.009,0l0.004,0c0,0-0.001,0.001,0.04-0.015
							c0.238-0.093,0.48-0.187,0.726-0.282c0.491-0.193,0.995-0.391,1.51-0.593c1.028-0.411,2.098-0.839,3.182-1.272
							c9.719-3.934,9.041-6.069-0.838-2.071c-1.08,0.442-2.147,0.879-3.171,1.299c-1.241,0.518-2.432,1.014-3.537,1.475
							c-0.027,0.679-0.054,1.353-0.08,2.021c-0.014,0.444-0.027,0.884-0.041,1.32c-0.024,0.872-0.047,1.728-0.069,2.565
							c-0.033,1.676-0.064,3.278-0.093,4.795c-0.009,0.759-0.018,1.496-0.027,2.21c-0.003,0.357-0.006,0.708-0.009,1.053
							c-0.001,0.173-0.003,0.344-0.004,0.513c-0.003,0.108,0.007,0.101-0.002,0.149l-0.044,0.203
							c-0.301,1.229-0.747,2.354-1.24,3.318c-0.983,1.943-2.201,3.254-3.144,4.007c-0.241,0.185-0.455,0.348-0.64,0.49
							c-0.198,0.123-0.366,0.228-0.501,0.312C203.279,169.319,203.137,169.407,203.137,169.407z"/>
					</g>
					<g>
						<path d="M243.387,160.078c0,0-0.112-0.044-0.324-0.127c-0.211-0.083-0.525-0.19-0.906-0.383
							c-0.769-0.356-1.829-0.972-2.932-1.949c-1.108-0.971-2.233-2.321-3.267-3.961c-1.036-1.641-1.974-3.579-2.807-5.68
							c-0.981-2.518-1.781-3.727-2.34-3.616c-0.537,0.099-0.808,1.688,0.262,4.438c0.89,2.244,2.034,4.28,3.345,5.945
							c1.307,1.666,2.769,2.955,4.148,3.776c1.378,0.831,2.624,1.213,3.482,1.379c0.427,0.098,0.767,0.121,0.994,0.145
							C243.268,160.067,243.387,160.078,243.387,160.078z"/>
					</g>
				</g>
			</g>
		</g>
	</g>
	<g>
		<path d="M126.152,108.015c0-15.942-10.097-28.866-22.551-28.866s-22.551,12.924-22.551,28.866c0,0.275,0.01,0.547,0.016,0.82
			c-0.004,0.158-0.012,0.313-0.013,0.472c-0.186,15.941,9.061,29.004,17.732,29.112c1.169,0.015,2.263-0.218,3.287-0.659
			c0.984-0.424,2.076-0.424,3.06,0c1.024,0.441,2.119,0.673,3.287,0.659c8.671-0.108,17.917-13.171,17.732-29.112
			c-0.002-0.159-0.01-0.315-0.013-0.473C126.142,108.561,126.152,108.289,126.152,108.015z"/>
		<path d="M112.021,71.027c0.789-0.609,1.277-1.302,1.277-2.051c0-2.325-4.342-4.21-9.697-4.21c-5.355,0-9.697,1.885-9.697,4.21
			c0,0.749,0.488,1.442,1.277,2.051c-6.317,3.152-10.674,9.4-10.674,14.788c0,7.556,8.549,10.524,19.094,10.524
			s19.094-2.968,19.094-10.524C122.695,80.428,118.338,74.18,112.021,71.027z"/>
		<g>
			<path d="M110.968,61.108"/>
		</g>
		<g>
			<g>
				<path d="M134.647,43.179c0,0-0.876,0.32-2.47,0.903c-0.795,0.3-1.768,0.667-2.902,1.095c-0.283,0.108-0.576,0.221-0.878,0.336
					l-0.512,0.201c-0.205,0.089-0.448,0.146-0.551,0.371c-0.541,0.772-0.837,1.294-1.232,2.038c-1.46,2.813-2.56,6.522-2.859,10.773
					c-0.207,2.132,0.032,4.523,0.492,6.773c0.225,1.145,0.508,2.293,0.834,3.448c0.173,0.574,0.347,1.153,0.523,1.737l0.259,0.788
					l-0.005,0.013l-0.015,0.003c-0.189,0.196-0.385,0.398-0.585,0.604c-0.456,0.475-0.931,0.972-1.41,1.471
					c-8.675,9.099-6.451,11.504,2.367,2.257c1.197-1.266,2.379-2.516,3.374-3.569l-0.64-1.68l-0.323-0.9
					c-0.183-0.547-0.365-1.089-0.546-1.626c-0.347-1.08-0.66-2.148-0.922-3.199c-0.537-2.132-0.87-4.063-0.838-6.033
					c-0.032-3.948,0.614-7.485,1.641-10.26c0.234-0.65,0.59-1.433,0.781-1.823c0.188-0.276,0.955-0.585,1.435-0.887
					c1.056-0.594,1.963-1.104,2.703-1.521C133.839,43.645,134.647,43.179,134.647,43.179z"/>
			</g>
			<g>
				<path d="M139.082,143.797c0,0-0.134-0.216-0.39-0.628c-0.262-0.408-0.635-1.019-1.098-1.817
					c-0.905-1.595-2.242-3.959-3.234-7.057c-0.218-0.759-0.481-1.626-0.467-2.358c-0.023-0.919-0.048-1.877-0.073-2.87
					c-0.066-1.987-0.136-4.118-0.21-6.37c-0.099-2.252-0.204-4.626-0.313-7.1c-0.154-2.661-0.314-5.429-0.479-8.283
					c-1.27-1.311-2.767-2.857-4.288-4.428c-9.951-10.168-12.451-8.048-2.337,2.287c1.247,1.258,2.474,2.495,3.515,3.546
					c0.228,2.444,0.448,4.815,0.661,7.094c0.257,2.463,0.503,4.827,0.737,7.069c0.258,2.239,0.503,4.357,0.73,6.332
					c0.121,0.986,0.238,1.937,0.351,2.849c0.125,1.107,0.505,1.913,0.831,2.728c1.422,3.167,3.079,5.334,4.215,6.805
					c0.577,0.731,1.04,1.28,1.363,1.643C138.916,143.605,139.082,143.797,139.082,143.797z"/>
			</g>
			<g>
				<path d="M116.23,152.216c0,0,0.151-0.174,0.437-0.506c0.279-0.338,0.728-0.819,1.212-1.5c1.03-1.329,2.356-3.374,3.792-6.011
					c1.436-2.637,2.955-5.872,4.396-9.555c0.346-0.927,0.701-1.876,1.064-2.846c0.17-0.49,0.342-0.985,0.516-1.484l0.353-1.107
					l0.446-1.486c-0.139-0.433-0.623-0.789-0.928-1.191l-0.845-0.95c-0.358-0.405-0.719-0.813-1.082-1.224
					c-0.735-0.814-1.481-1.64-2.236-2.476c-7.294-7.957-10.628-5.141-3.214,2.946c0.767,0.825,1.525,1.64,2.273,2.443
					c0.378,0.398,0.753,0.792,1.125,1.184l0.229,0.236l0.016,0.003l0.04,0.015l0.014,0.035c0.002,0.009,0.006,0.011,0.005,0.027
					l-0.097,0.373c-0.132,0.497-0.263,0.989-0.392,1.477c-0.264,0.975-0.523,1.93-0.776,2.861c-1.024,3.726-2.002,7.071-2.908,9.855
					c-0.906,2.783-1.718,5.023-2.379,6.531c-0.301,0.773-0.601,1.336-0.779,1.738C116.327,152.006,116.23,152.216,116.23,152.216z"
					/>
			</g>
		</g>
		<g>
			<g>
				<path d="M72.555,43.179c0,0,0.876,0.32,2.47,0.903c0.795,0.3,1.768,0.667,2.902,1.095c0.283,0.108,0.576,0.221,0.878,0.336
					l0.512,0.201c0.205,0.089,0.448,0.146,0.551,0.371c0.541,0.772,0.837,1.294,1.232,2.038c1.46,2.813,2.56,6.522,2.859,10.773
					c0.207,2.132-0.032,4.523-0.492,6.773c-0.225,1.145-0.508,2.293-0.834,3.448c-0.173,0.574-0.347,1.153-0.522,1.737l-0.259,0.788
					l0.005,0.013l0.014,0.003c0.189,0.196,0.385,0.398,0.585,0.604c0.456,0.475,0.931,0.972,1.41,1.471
					c8.675,9.099,6.451,11.504-2.367,2.257c-1.197-1.266-2.379-2.516-3.375-3.569l0.64-1.68l0.323-0.9
					c0.183-0.547,0.366-1.089,0.546-1.626c0.347-1.08,0.66-2.148,0.922-3.199c0.537-2.132,0.87-4.063,0.837-6.033
					c0.033-3.948-0.614-7.485-1.641-10.26c-0.234-0.65-0.59-1.433-0.781-1.823c-0.188-0.276-0.955-0.585-1.435-0.887
					c-1.056-0.594-1.963-1.104-2.703-1.521C73.363,43.645,72.555,43.179,72.555,43.179z"/>
			</g>
			<g>
				<path d="M68.12,143.797c0,0,0.134-0.216,0.39-0.628c0.262-0.408,0.635-1.019,1.098-1.817c0.905-1.595,2.242-3.959,3.234-7.057
					c0.218-0.759,0.481-1.626,0.467-2.358c0.023-0.919,0.048-1.877,0.073-2.87c0.066-1.987,0.136-4.118,0.21-6.37
					c0.099-2.252,0.204-4.626,0.313-7.1c0.154-2.661,0.314-5.429,0.479-8.283c1.27-1.311,2.767-2.857,4.288-4.428
					c9.951-10.168,12.451-8.048,2.337,2.287c-1.247,1.258-2.474,2.495-3.515,3.546c-0.228,2.444-0.448,4.815-0.66,7.094
					c-0.257,2.463-0.503,4.827-0.737,7.069c-0.258,2.239-0.503,4.357-0.73,6.332c-0.122,0.986-0.238,1.937-0.351,2.849
					c-0.125,1.107-0.506,1.913-0.831,2.728c-1.422,3.167-3.079,5.334-4.215,6.805c-0.577,0.731-1.04,1.28-1.363,1.643
					C68.286,143.605,68.12,143.797,68.12,143.797z"/>
			</g>
			<g>
				<path d="M90.972,152.216c0,0-0.151-0.174-0.437-0.506c-0.279-0.338-0.728-0.819-1.212-1.5c-1.03-1.329-2.356-3.374-3.792-6.011
					c-1.436-2.637-2.955-5.872-4.396-9.555c-0.346-0.927-0.701-1.876-1.064-2.846c-0.17-0.49-0.342-0.985-0.516-1.484l-0.353-1.107
					l-0.446-1.486c0.139-0.433,0.623-0.789,0.928-1.191l0.845-0.95c0.358-0.405,0.719-0.813,1.082-1.224
					c0.736-0.814,1.481-1.64,2.237-2.476c7.294-7.957,10.628-5.141,3.214,2.946c-0.767,0.825-1.525,1.64-2.273,2.443
					c-0.378,0.398-0.753,0.792-1.125,1.184l-0.229,0.236l-0.016,0.003l-0.04,0.015l-0.014,0.035
					c-0.002,0.009-0.006,0.011-0.005,0.027l0.097,0.373c0.132,0.497,0.263,0.989,0.392,1.477c0.264,0.975,0.523,1.93,0.776,2.861
					c1.024,3.726,2.002,7.071,2.908,9.855c0.906,2.783,1.718,5.023,2.379,6.531c0.301,0.773,0.601,1.336,0.779,1.738
					C90.875,152.006,90.972,152.216,90.972,152.216z"/>
			</g>
		</g>
		<g>
			<path d="M103.669,68.689c-0.227,0-0.449-0.114-0.576-0.322c-0.196-0.319-0.097-0.735,0.222-0.93
				c3.14-1.928,7.523-5.013,9.348-9.53c0.296-0.733,0.521-1.483,0.759-2.278c0.206-0.684,0.411-1.367,0.661-2.037
				c0.701-1.868,1.628-3.175,2.833-3.996c0.307-0.204,0.728-0.13,0.941,0.18c0.21,0.308,0.129,0.729-0.18,0.941
				c-0.965,0.657-1.727,1.753-2.326,3.351c-0.241,0.64-0.437,1.295-0.632,1.95c-0.236,0.789-0.481,1.605-0.802,2.396
				c-1.975,4.887-6.593,8.149-9.895,10.175C103.912,68.657,103.79,68.689,103.669,68.689z"/>
		</g>
		<g>
			<path d="M103.533,68.689c-0.122,0-0.243-0.032-0.354-0.1c-3.3-2.026-7.918-5.286-9.895-10.175
				c-0.321-0.791-0.566-1.607-0.802-2.396c-0.195-0.655-0.391-1.311-0.632-1.95c-0.599-1.598-1.36-2.694-2.326-3.351
				c-0.308-0.211-0.389-0.632-0.18-0.941c0.213-0.31,0.632-0.384,0.941-0.18c1.205,0.821,2.132,2.128,2.833,3.996
				c0.25,0.67,0.455,1.353,0.661,2.037c0.238,0.795,0.463,1.545,0.759,2.278c1.827,4.519,6.211,7.602,9.348,9.53
				c0.319,0.195,0.418,0.611,0.222,0.93C103.982,68.574,103.76,68.689,103.533,68.689z"/>
		</g>
		<g>
			<g>
				<path d="M101.77,61.191c0,0-0.494,0.354-0.973,1.198c-0.478,0.824-0.882,2.214-0.535,3.707c0.216,0.901,0.935,1.106,1.423,0.89
					c0.508-0.222,0.853-0.734,0.701-1.379c-0.253-1.082-0.445-2.127-0.528-2.972C101.771,61.796,101.77,61.191,101.77,61.191z"/>
			</g>
			<g>
				<path d="M105.432,61.191c0,0-0.002,0.605-0.089,1.444c-0.083,0.846-0.275,1.891-0.528,2.972
					c-0.148,0.634,0.196,1.151,0.701,1.379c0.485,0.223,1.202,0.026,1.423-0.89c0.348-1.493-0.057-2.884-0.535-3.707
					C105.927,61.545,105.432,61.191,105.432,61.191z"/>
			</g>
		</g>
	</g>
	<g>
		<g>
			<g>
				<g>
					<g>
						<path d="M401.023,76.942c-0.056,0-0.113-0.009-0.169-0.026c-0.289-0.093-0.448-0.403-0.355-0.692
							c2.9-8.999,8.791-16.9,16.588-22.249c0.25-0.172,0.593-0.108,0.764,0.142c0.172,0.25,0.108,0.592-0.142,0.764
							c-7.598,5.212-13.338,12.912-16.163,21.68C401.471,76.794,401.255,76.942,401.023,76.942z"/>
					</g>
				</g>
				<g>
					<g>
						<path d="M392.903,76.942c-0.232,0-0.448-0.148-0.523-0.381c-2.826-8.768-8.566-16.468-16.163-21.68
							c-0.251-0.172-0.314-0.514-0.142-0.764c0.172-0.251,0.515-0.314,0.764-0.142c7.797,5.349,13.688,13.251,16.588,22.249
							c0.093,0.289-0.066,0.599-0.355,0.692C393.016,76.934,392.959,76.942,392.903,76.942z"/>
					</g>
				</g>
			</g>
			<g>
				<path d="M399.113,75.158c-0.045,0-0.09-0.011-0.132-0.034c-0.133-0.073-0.182-0.24-0.109-0.373
					c1.321-2.408,1.766-5.332,1.22-8.023c-0.03-0.149,0.066-0.294,0.215-0.324c0.15-0.03,0.294,0.065,0.324,0.215
					c0.571,2.817,0.106,5.877-1.277,8.396C399.305,75.106,399.21,75.158,399.113,75.158z"/>
			</g>
			<g>
				<path d="M394.813,75.158c-0.097,0-0.191-0.051-0.241-0.143c-1.383-2.52-1.849-5.58-1.277-8.396
					c0.031-0.149,0.173-0.244,0.324-0.215c0.149,0.03,0.245,0.175,0.215,0.324c-0.547,2.691-0.101,5.615,1.22,8.023
					c0.073,0.133,0.024,0.3-0.109,0.373C394.903,75.147,394.858,75.158,394.813,75.158z"/>
			</g>
		</g>
		<path d="M400.164,87.104c0,0-53.32-6.576-60.283,1.963c-6.963,8.539,0.733,32.02,17.957,23.481
			c17.224-8.539,42.326-19.212,42.326-19.212V87.104z"/>
		<path d="M393.762,87.104c0,0,53.32-6.576,60.283,1.963s-0.733,32.02-17.957,23.481s-42.326-19.212-42.326-19.212V87.104z"/>
		<g>
			<g>
				<path d="M371.677,142.587c0,0,0.082-0.287,0.24-0.839c0.168-0.546,0.485-1.334,1.014-2.284c0.541-0.945,1.332-2.031,2.397-3.17
					c0.544-0.56,1.136-1.15,1.818-1.722c0.338-0.289,0.693-0.578,1.067-0.862c0.195-0.154,0.354-0.262,0.597-0.443
					c0.301-0.213,0.613-0.431,0.941-0.647c-0.247-1.369-0.515-2.86-0.803-4.458c-0.267-1.443-0.553-2.982-0.853-4.603
					c-0.572-2.938-1.202-6.17-1.868-9.592l0.037-0.008l0.016-0.003l0.007-0.001l0.004,0l0.061-0.028
					c0.345-0.16,0.695-0.322,1.05-0.486c0.709-0.332,1.438-0.672,2.182-1.02c1.483-0.705,3.027-1.438,4.592-2.181
					c12.584-6.04,11.64-8.535-1.15-2.395c-1.559,0.756-3.096,1.502-4.574,2.219c-1.785,0.879-3.497,1.723-5.093,2.509
					c0.183,0.791,0.365,1.577,0.545,2.357c0.111,0.46,0.22,0.916,0.329,1.369c0.22,0.905,0.437,1.795,0.65,2.669
					c0.436,1.745,0.855,3.425,1.254,5.024c0.411,1.596,0.802,3.112,1.168,4.534c0.187,0.71,0.368,1.396,0.542,2.057
					c0.088,0.33,0.174,0.654,0.259,0.971c0.025,0.097,0.034,0.122,0.046,0.158l0.036,0.112c0.021,0.075,0.056,0.156,0.066,0.23
					c-0.28,0.248-0.553,0.49-0.819,0.726c-0.366,0.331-0.71,0.666-1.034,0.999c-0.655,0.659-1.213,1.332-1.718,1.967
					c-0.989,1.29-1.683,2.5-2.127,3.533c-0.432,1.038-0.652,1.874-0.751,2.443C371.721,142.291,371.677,142.587,371.677,142.587z"/>
			</g>
			<g>
				<path d="M422.249,142.587c0,0-0.044-0.296-0.128-0.867c-0.099-0.569-0.319-1.405-0.751-2.443
					c-0.444-1.032-1.138-2.242-2.127-3.533c-0.505-0.635-1.063-1.308-1.718-1.967c-0.324-0.333-0.668-0.667-1.034-0.999
					c-0.266-0.235-0.539-0.477-0.819-0.726c0.011-0.074,0.046-0.155,0.066-0.23l0.036-0.112c0.012-0.037,0.021-0.061,0.046-0.158
					c0.085-0.317,0.171-0.641,0.259-0.971c0.174-0.661,0.355-1.347,0.542-2.057c0.366-1.421,0.756-2.937,1.168-4.534
					c0.399-1.599,0.818-3.279,1.254-5.024c0.213-0.874,0.43-1.764,0.65-2.669c0.109-0.453,0.219-0.909,0.329-1.369
					c0.18-0.78,0.362-1.566,0.545-2.357c-1.595-0.786-3.308-1.63-5.093-2.509c-1.478-0.717-3.015-1.462-4.574-2.219
					c-12.584-6.04-13.94-3.744-1.15,2.395c1.565,0.743,3.108,1.476,4.592,2.181c0.744,0.348,1.473,0.688,2.182,1.02
					c0.355,0.164,0.705,0.327,1.05,0.486l0.061,0.028l0.004,0l0.007,0.001l0.016,0.003l0.037,0.008
					c-0.666,3.421-1.296,6.654-1.868,9.592c-0.3,1.621-0.586,3.16-0.853,4.603c-0.288,1.598-0.557,3.089-0.803,4.458
					c0.328,0.217,0.64,0.435,0.941,0.647c0.243,0.181,0.401,0.289,0.597,0.443c0.374,0.284,0.729,0.573,1.067,0.862
					c0.682,0.572,1.274,1.162,1.818,1.722c1.065,1.139,1.856,2.225,2.397,3.17c0.529,0.95,0.846,1.738,1.014,2.284
					C422.167,142.301,422.249,142.587,422.249,142.587z"/>
			</g>
		</g>
		<g>
			<g>
				<path d="M434.709,78.303c0,0-0.543-0.124-1.549-0.354c-0.508-0.097-1.142-0.172-1.888-0.264
					c-0.376-0.018-0.78-0.038-1.209-0.058c-0.432-0.028-0.888,0.018-1.374,0.028c-1.931,0.103-4.305,0.574-6.735,1.844
					c-0.606,0.317-1.212,0.684-1.807,1.125c-0.213,0.15-0.441,0.365-0.662,0.553c-0.114,0.096-0.216,0.201-0.325,0.302
					c-0.051,0.051-0.114,0.102-0.158,0.157l0.04,0.215c0.049,0.286,0.11,0.58,0.188,0.883c0.049,0.21,0.098,0.422,0.147,0.635
					c0.159,0.702,0.322,1.421,0.489,2.155c0.042,0.183,0.085,0.368,0.127,0.553l0.064,0.278l0.027,0.12l0.001,0.021
					c0.003,0.056,0.003,0.102,0.001,0.14l-0.158,0.006c-0.396,0.094-0.797,0.189-1.203,0.286c-0.85,0.208-1.719,0.42-2.605,0.637
					c-1.77,0.439-3.602,0.908-5.469,1.401c-10.314,2.727-9.804,5.34,0.679,2.569c1.867-0.494,3.691-0.992,5.447-1.485
					c2.146-0.609,4.213-1.196,6.167-1.751c-0.2-0.708-0.398-1.41-0.595-2.105c-0.123-0.414-0.245-0.824-0.365-1.23
					c-0.219-0.72-0.434-1.424-0.644-2.113l-0.079-0.257l-0.036-0.114l-0.014-0.031l-0.058-0.134
					c-0.043-0.053,0.03-0.077,0.046-0.118c0.036-0.04,0.049-0.065,0.111-0.122c0.47-0.419,0.977-0.795,1.489-1.13
					c2.055-1.346,4.19-2.054,5.997-2.39c0.455-0.068,0.886-0.173,1.299-0.203c0.414-0.039,0.803-0.076,1.166-0.11
					c0.728-0.016,1.357-0.039,1.868-0.024C434.155,78.271,434.709,78.303,434.709,78.303z"/>
			</g>
			<g>
				<path d="M359.217,78.303c0,0,0.553-0.031,1.578-0.09c0.51-0.015,1.14,0.008,1.868,0.024c0.363,0.034,0.752,0.071,1.166,0.11
					c0.413,0.03,0.844,0.135,1.299,0.203c1.807,0.336,3.942,1.044,5.997,2.39c0.511,0.335,1.018,0.71,1.489,1.13
					c0.062,0.057,0.075,0.081,0.111,0.122c0.016,0.04,0.089,0.064,0.046,0.118l-0.058,0.134l-0.014,0.031l-0.036,0.114l-0.079,0.257
					c-0.21,0.689-0.425,1.394-0.644,2.113c-0.12,0.406-0.242,0.816-0.365,1.23c-0.196,0.695-0.395,1.397-0.595,2.105
					c1.955,0.555,4.021,1.142,6.167,1.751c1.756,0.493,3.58,0.992,5.447,1.485c10.314,2.727,11.162,0.203,0.679-2.569
					c-1.866-0.493-3.699-0.962-5.469-1.401c-0.886-0.216-1.755-0.429-2.605-0.637c-0.406-0.096-0.807-0.192-1.203-0.285
					l-0.158-0.006c-0.001-0.038-0.001-0.084,0.002-0.14l0.001-0.021l0.027-0.12l0.064-0.278c0.043-0.185,0.085-0.369,0.127-0.553
					c0.167-0.734,0.33-1.452,0.489-2.155c0.049-0.213,0.098-0.425,0.147-0.635c0.079-0.303,0.139-0.597,0.188-0.883l0.04-0.215
					c-0.044-0.055-0.106-0.105-0.157-0.157c-0.11-0.101-0.211-0.205-0.325-0.302c-0.221-0.188-0.449-0.403-0.662-0.553
					c-0.595-0.442-1.201-0.808-1.807-1.125c-2.43-1.27-4.804-1.741-6.735-1.844c-0.486-0.009-0.942-0.056-1.374-0.028
					c-0.43,0.021-0.833,0.04-1.209,0.058c-0.747,0.092-1.38,0.168-1.888,0.264C359.761,78.179,359.217,78.303,359.217,78.303z"/>
			</g>
		</g>
		<g>
			<path d="M407.327,115.171c0,10.437-4.64,15.241-10.364,15.241c-5.724,0-10.364-4.803-10.364-15.241
				c0-10.437,4.64-22.556,10.364-22.556C402.687,92.615,407.327,104.734,407.327,115.171z"/>
			<g>
				<ellipse cx="396.963" cy="83.227" rx="7.606" ry="7.986"/>
				<path d="M400.811,76.34c0,2.125-1.723,3.848-3.848,3.848c-2.125,0-3.848-1.723-3.848-3.848c0-2.125,1.723-3.848,3.848-3.848
					C399.088,72.492,400.811,74.215,400.811,76.34z"/>
			</g>
			<circle cx="396.963" cy="93.749" r="8.62"/>
		</g>
	</g>
	<g>
		<path d="M252.1,369.789c0,0,25.808-23.907,45.816-28.919c20.008-5.013,20.588-0.771,19.138,10.797
			c-1.45,11.568-0.87,18.508-5.799,24.678c-4.745,5.939-4.067,8.854-13.637,9.24c-9.569,0.386-45.518-8.083-45.518-8.083V369.789z"
			/>
		<path d="M252.1,377.501v24.292c0,0,5.22,4.627,11.889,11.182c6.669,6.555,15.949,14.652,24.068,10.411
			c8.119-4.241,13.339,2.699,15.949-10.025c2.61-12.724,3.77-19.28-5.799-26.22C288.637,380.2,252.1,377.501,252.1,377.501z"/>
		<path d="M248.234,369.789c0,0-25.808-23.907-45.816-28.919c-20.008-5.013-20.588-0.771-19.138,10.797
			c1.45,11.568,0.87,18.508,5.799,24.678c4.745,5.939,4.067,8.854,13.637,9.24c9.569,0.386,45.519-8.083,45.519-8.083V369.789z"/>
		<path d="M248.234,377.501v24.292c0,0-5.22,4.627-11.889,11.182c-6.669,6.555-15.949,14.652-24.068,10.411
			c-8.119-4.241-13.339,2.699-15.949-10.025c-2.61-12.724-3.77-19.28,5.799-26.22C211.697,380.2,248.234,377.501,248.234,377.501z"
			/>
		<g>
			<g>
				<g>
					<path d="M260.678,371.535c0,10.464-4.706,27.802-10.511,27.802c-5.805,0-10.511-17.338-10.511-27.802
						c0-10.464,4.706-10.09,10.511-10.09C255.972,361.444,260.678,361.071,260.678,371.535z"/>
					<path d="M259.054,389.223c-0.343-2.051-0.952-4.041-1.799-5.885l-6.771-1.607l-6.771,1.607
						c-0.848,1.844-1.457,3.835-1.799,5.885c-0.164,0.981-0.266,2.001-0.067,2.972c0.215,1.048,0.772,2.001,0.822,3.077
						c0.072,1.572-0.957,3.116-0.557,4.621c0.195,0.733,0.708,1.318,0.868,2.063c0.289,1.347-0.655,2.732-0.402,4.089
						c0.134,0.721,0.585,1.301,0.861,1.966c0.5,1.207,0.398,2.612,0.394,3.95c-0.017,5.545,1.94,11.051,5.273,15.029
						c0.761,0.908,1.999,0.908,2.76,0c3.332-3.978,5.29-9.484,5.273-15.029c-0.004-1.338-0.106-2.743,0.394-3.95
						c0.276-0.665,0.727-1.245,0.861-1.966c0.253-1.357-0.691-2.742-0.402-4.089c0.16-0.745,0.673-1.329,0.868-2.063
						c0.4-1.505-0.629-3.049-0.557-4.621c0.049-1.076,0.607-2.028,0.822-3.077C259.321,391.223,259.218,390.203,259.054,389.223z"/>
				</g>
				<g>
					<path d="M250.167,360.971c0,1.567-1.271,2.838-2.838,2.838c-1.567,0-2.838-1.271-2.838-2.838c0-1.567,1.271-2.838,2.838-2.838
						C248.896,358.133,250.167,359.404,250.167,360.971z"/>
					<path d="M255.843,360.971c0,1.567-1.271,2.838-2.838,2.838c-1.567,0-2.838-1.271-2.838-2.838c0-1.567,1.271-2.838,2.838-2.838
						C254.572,358.133,255.843,359.404,255.843,360.971z"/>
					<path d="M253.005,360.104c0,2.046-1.271,3.705-2.838,3.705c-1.567,0-2.838-1.659-2.838-3.705c0-2.046,1.271-3.705,2.838-3.705
						C251.734,356.399,253.005,358.058,253.005,360.104z"/>
				</g>
			</g>
			<g>
				<g>
					<path d="M251.439,363.504c-0.308,0-0.576-0.224-0.623-0.535c-0.441-2.885,0.515-6.092,2.695-9.031
						c1.604-2.156,3.639-3.939,5.607-5.664l0.993-0.875c2.064-1.833,4.38-4.02,5.757-6.765c0.158-0.308,0.537-0.431,0.848-0.281
						c0.31,0.158,0.436,0.535,0.281,0.847c-1.478,2.944-3.897,5.23-6.048,7.142l-1,0.879c-1.917,1.683-3.902,3.422-5.425,5.469
						c-1.143,1.542-2.988,4.646-2.461,8.085c0.052,0.345-0.185,0.668-0.527,0.719C251.503,363.501,251.471,363.504,251.439,363.504z
						"/>
				</g>
				<g>
					<path d="M248.894,363.504c-0.032,0-0.064-0.003-0.096-0.007c-0.343-0.052-0.579-0.374-0.527-0.719
						c0.527-3.439-1.318-6.543-2.464-8.085c-1.52-2.047-3.506-3.786-5.422-5.469l-1-0.877c-2.148-1.912-4.565-4.198-6.046-7.144
						c-0.155-0.313-0.029-0.69,0.281-0.847c0.315-0.148,0.692-0.027,0.847,0.281c1.377,2.749,3.693,4.934,5.755,6.767l0.993,0.872
						c1.968,1.724,4.003,3.508,5.604,5.664c2.183,2.939,3.139,6.147,2.698,9.031C249.471,363.28,249.202,363.504,248.894,363.504z"
						/>
				</g>
			</g>
		</g>
	</g>
	<g>
		<g>
			<path d="M63.855,386.884c0,0,0.392-0.136,1.055-0.399c0.664-0.261,1.597-0.644,2.692-1.117c1.095-0.473,2.35-1.038,3.671-1.682
				c1.312-0.638,2.631-1.301,3.861-1.854c0.732-0.328,1.128-0.859,1.411-1.555c0.271-0.692,0.417-1.529,0.313-2.349
				c-0.102-0.807-0.49-1.599-1.264-2.061c-0.76-0.465-1.928-0.572-3.156-0.017c-0.692,0.313-1.35,0.696-1.975,1.127
				c-0.254,0.175-0.488,0.336-0.705,0.557c-0.192,0.195-0.379,0.422-0.664,0.472c-0.084,0.015-0.171,0.012-0.253,0.036
				c-0.171,0.051-0.286,0.206-0.386,0.353c-0.268,0.393-0.487,0.846-0.791,1.207c-0.309,0.365-0.626,0.72-0.91,1.112
				c-0.522,0.724-0.994,1.484-1.41,2.274c-0.594,1.128-0.961,2.109-1.185,2.799C63.937,386.479,63.855,386.884,63.855,386.884z"/>
		</g>
		<path d="M90.445,371.969c1.195,3.754-2.804,8.38-8.933,10.331c-6.129,1.952-13.341,2.23-12.972-1.693
			c0.332-3.532,2.514-9.951,8.643-11.903S89.249,368.215,90.445,371.969z"/>
		<path d="M107.681,382.788c-0.967,2.66-10.079,1.882-14.392,0.313c-4.313-1.569-12.95-3.025-11.983-5.685
			c0.967-2.66,10.216-6.903,14.647-5.715C102.272,373.396,108.648,380.128,107.681,382.788z"/>
		<path d="M149.97,397.908c-1.608,6.705-13.174,7.104-22.149,2.292c-8.974-4.811-13.609-13.638-10.351-19.715
			c3.258-6.077,11.098-8.153,20.072-3.341C146.517,381.954,151.309,392.325,149.97,397.908z"/>
		<path d="M130.164,387.904c-0.428,1.019-2.049,2.496-3.076,2.721c-11.513,2.53-24.472-0.183-26.167-1.951
			c-0.872-0.909-2.273-3.086-2.862-4.306c-0.506-1.046-0.735-2.227-0.444-3.37c0.971-3.812,7.062-5.55,13.604-3.883
			c2.091,0.533,4.145,1.216,6.167,1.968c3.806,1.415,8.014,3.036,11.125,5.728c0.748,0.648,2.112,1.918,1.667,3.058
			C130.174,387.882,130.169,387.893,130.164,387.904z"/>
		<g>
			<path d="M73.36,414.347c0-0.023,0.374,0.191,1.161,0.129c0.783-0.052,1.903-0.429,3.201-1.162
				c0.323-0.186,0.663-0.387,1.008-0.618c0.177-0.117,0.392-0.268,0.603-0.426l0.16-0.121c0.026-0.021,0.056-0.04,0.079-0.063
				l0.024-0.096c0.032-0.131,0.064-0.263,0.097-0.396c0.216-0.888,0.452-1.855,0.706-2.897c0.48-2.017,1.028-4.323,1.639-6.889
				c0.249-0.588,0.508-1.199,0.777-1.831c0.275-0.66,0.56-1.342,0.853-2.046c0.578-1.41,1.191-2.903,1.833-4.467
				c0.63-1.568,1.289-3.208,1.971-4.905c0.336-0.85,0.679-1.716,1.026-2.594l0.13-0.33l0.033-0.083
				c0.007-0.017,0.005-0.009,0.008-0.015l0.01-0.016l0.039-0.059c0.024-0.035,0.045-0.064,0.064-0.085l0.098,0.114
				c0.018,0.02,0.012,0.021,0.045,0.052c0.219,0.169,0.44,0.339,0.662,0.51c0.892,0.681,1.806,1.38,2.739,2.092
				c1.238,0.931,2.5,1.881,3.779,2.843c0.479,0.346,0.993,0.79,1.431,0.957c0.233,0.112,0.406,0.124,0.604,0.176
				c0.165,0.015,0.332,0.026,0.479,0.026c0.269-0.026,0.478-0.033,0.868-0.189c0.374-0.144,0.769-0.435,1.021-0.75
				c0.331-0.429,0.387-0.602,0.498-0.998c0.095-0.355,0.146-0.877-0.085-1.535c-6.339-16.863-7.605-11.515-4.485-1.938
				c-0.015,0-0.028-0.012-0.028-0.012s0.005,0.008-0.001,0.012c0,0-0.004,0.002-0.007,0.002l-0.003,0l-0.166-0.121l-0.363-0.265
				c-0.483-0.352-0.962-0.701-1.437-1.046c-2.53-1.832-4.962-3.592-7.242-5.243c-0.571,1.623-1.136,3.225-1.692,4.804
				c-0.302,0.895-0.599,1.776-0.891,2.643c-0.575,1.737-1.131,3.414-1.662,5.018c-0.52,1.609-1.016,3.145-1.485,4.594
				c-0.468,1.481-0.908,2.874-1.315,4.167c-0.187,1.35-0.364,2.631-0.532,3.84c-0.157,1.185-0.305,2.299-0.442,3.339
				c-0.129,1.017-0.248,1.961-0.358,2.829c-0.009,0.085-0.018,0.169-0.027,0.253l-0.007,0.063c-0.012,0.015-0.028,0.029-0.042,0.043
				l-0.087,0.084c-0.119,0.112-0.232,0.217-0.38,0.343c-0.302,0.26-0.601,0.492-0.887,0.709c-1.149,0.856-2.158,1.357-2.888,1.513
				c-0.092,0.02-0.178,0.039-0.258,0.057c-0.082,0.006-0.158,0.012-0.228,0.018c-0.142,0.013-0.263,0.02-0.357,0
				C73.459,414.358,73.36,414.347,73.36,414.347z"/>
		</g>
		<g>
			<path d="M66.337,402.805c0.005-0.023,0.326,0.268,1.111,0.377c0.779,0.118,1.957-0.011,3.385-0.449
				c0.356-0.112,0.732-0.236,1.12-0.388c0.201-0.078,0.445-0.181,0.687-0.29l0.184-0.085c0.027-0.018,0.07-0.021,0.085-0.051
				l0.044-0.09c0.06-0.122,0.12-0.245,0.181-0.37c0.402-0.821,0.84-1.715,1.311-2.677c0.9-1.865,1.928-3.997,3.07-6.366
				c0.023-0.02,0.157-0.217,0.246-0.34c0.098-0.139,0.197-0.279,0.297-0.42c0.199-0.283,0.402-0.571,0.608-0.864
				c0.41-0.587,0.835-1.194,1.272-1.82c0.867-1.256,1.784-2.586,2.744-3.977c0.949-1.399,1.94-2.861,2.966-4.373
				c0.508-0.759,1.025-1.531,1.549-2.314l0.196-0.295l0.049-0.074c0.005-0.007,0.005-0.005,0.007-0.008l0.011-0.011l0.042-0.038
				c0.026-0.022,0.047-0.038,0.064-0.049l0.046,0.091l0.015,0.035l0.006,0.015l0.182,0.217c0.601,0.706,1.219,1.432,1.85,2.173
				c0.634,0.737,1.281,1.49,1.937,2.252l0.581,0.671c0.329,0.378,0.665,0.782,1.043,1.04c0.378,0.242,0.778,0.445,1.215,0.53
				c0.434,0.084,0.883,0.083,1.319,0.003c0.865-0.167,1.617-0.685,2.084-1.361c0.248-0.33,0.392-0.72,0.489-1.106
				c0.036-0.199,0.079-0.391,0.087-0.599c0.009-0.207-0.021-0.431-0.03-0.642c-2.099-13.252-4.722-11.784-3.619-0.433
				c-0.024,0.017-0.045-0.005-0.041-0.005c-2.694-3.024-5.31-5.96-7.595-8.525c-0.912,1.474-1.812,2.931-2.7,4.366
				c-0.485,0.808-0.963,1.605-1.433,2.388c-0.931,1.572-1.83,3.092-2.692,4.547c-0.85,1.462-1.662,2.858-2.428,4.178
				c-0.772,1.351-1.499,2.624-2.174,3.804c-0.467,1.278-0.911,2.491-1.33,3.637c-0.403,1.124-0.782,2.181-1.135,3.167
				c-0.34,0.967-0.655,1.865-0.945,2.69c-0.036,0.388-0.38,0.457-0.68,0.651c-0.35,0.191-0.691,0.355-1.016,0.507
				c-1.303,0.597-2.395,0.878-3.143,0.878c-0.188,0.007-0.353-0.001-0.492-0.029c-0.142-0.017-0.262-0.035-0.35-0.074
				C66.432,402.837,66.337,402.805,66.337,402.805z"/>
		</g>
		<g>
			<path d="M167.929,412.685c0,0-0.115,0.009-0.34,0.026c-0.112,0.008-0.251,0.019-0.416,0.032
				c-0.165,0.018-0.355,0.029-0.574,0.006c-0.868,0.007-2.147-0.226-3.656-0.843c-1.501-0.639-3.23-1.685-4.984-3.19
				c-0.219-0.187-0.437-0.383-0.653-0.586c-0.107-0.1-0.219-0.206-0.316-0.305c-0.039-0.038-0.071-0.073-0.099-0.117l-0.132-0.18
				c-0.375-0.509-0.762-1.034-1.159-1.574c-0.799-1.078-1.643-2.218-2.529-3.415c-3.554-4.782-7.819-10.448-12.619-16.69
				c-2.4-3.121-4.933-6.385-7.578-9.754c-1.327-1.681-2.678-3.392-4.048-5.128c-0.344-0.433-0.69-0.867-1.036-1.303l-0.522-0.654
				l-0.135-0.168l-0.209-0.233c-0.143-0.152-0.276-0.311-0.446-0.442c-1.266-1.154-3.142-1.57-4.782-1.152
				c-0.99,0.242-1.884,0.766-2.554,1.47c-0.332,0.354-0.611,0.743-0.829,1.153c-0.209,0.396-0.385,0.892-0.451,1.116
				c-0.364,1.136-0.69,2.197-0.978,3.182c-0.576,1.969-1.002,3.635-1.29,4.989c-0.577,2.708-0.605,4.173-0.185,4.342
				c0.42,0.169,1.287-0.959,2.501-3.436c0.607-1.238,1.301-2.814,2.068-4.733c0.384-0.96,0.786-2.005,1.205-3.138l0.079-0.213
				l0.04-0.107c0.013-0.033,0.02-0.039,0.03-0.061c0.039-0.069,0.063-0.148,0.103-0.215c0.048-0.062,0.083-0.132,0.127-0.195
				c0.056-0.054,0.099-0.118,0.152-0.175c0.218-0.219,0.511-0.387,0.847-0.469c0.556-0.133,1.146-0.015,1.547,0.357
				c0.06,0.034,0.099,0.1,0.15,0.148l0.076,0.076l0.129,0.158l0.527,0.65c0.351,0.432,0.701,0.863,1.05,1.292
				c1.401,1.712,2.781,3.398,4.138,5.056c2.722,3.307,5.366,6.483,7.898,9.498c5.064,6.029,9.681,11.413,13.587,15.911
				c0.979,1.123,1.91,2.193,2.792,3.204c0.442,0.505,0.872,0.995,1.288,1.471l0.164,0.188c0.064,0.084,0.146,0.155,0.224,0.22
				c0.132,0.111,0.253,0.207,0.378,0.306c0.249,0.195,0.496,0.381,0.743,0.556c1.974,1.409,3.874,2.318,5.499,2.822
				c1.634,0.481,2.971,0.572,3.852,0.467c0.221-0.003,0.414-0.035,0.578-0.073c0.164-0.032,0.302-0.059,0.413-0.081
				C167.816,412.707,167.929,412.685,167.929,412.685z"/>
		</g>
		<g>
			<path d="M141.669,384.891c0,0-1.587-3.019-4.309-7.801c-0.687-1.191-1.439-2.496-2.247-3.896c-0.41-0.697-0.833-1.417-1.27-2.159
				c-0.22-0.37-0.443-0.745-0.669-1.126c-0.063-0.1-0.1-0.178-0.184-0.298l-0.245-0.348c-0.17-0.228-0.376-0.437-0.59-0.635
				c-0.439-0.393-0.972-0.686-1.541-0.888c-0.575-0.193-1.191-0.261-1.808-0.223c-1.226,0.087-2.49,0.697-3.29,1.75
				c-0.214,0.252-0.367,0.54-0.526,0.827c-0.111,0.227-0.222,0.456-0.334,0.685c-0.218,0.453-0.437,0.909-0.658,1.369
				c-0.436,0.923-0.879,1.859-1.327,2.806c-4.253,9.096-2.14,10.266,2.183,1.021c0.44-0.951,0.874-1.891,1.302-2.817
				c0.211-0.465,0.421-0.926,0.629-1.383c0.102-0.225,0.204-0.45,0.306-0.673c0.084-0.148,0.15-0.308,0.258-0.434
				c0.377-0.547,1.001-0.884,1.658-0.972c0.329-0.034,0.664-0.021,0.979,0.064c0.309,0.095,0.608,0.227,0.861,0.426
				c0.123,0.103,0.247,0.207,0.352,0.331l0.156,0.189c0.052,0.058,0.123,0.173,0.184,0.257c0.253,0.363,0.503,0.722,0.749,1.075
				c0.495,0.704,0.976,1.388,1.441,2.049c0.941,1.314,1.818,2.539,2.619,3.657C139.575,382.198,141.669,384.891,141.669,384.891z"/>
		</g>
		<g>
			<path d="M123.387,416.258c0.003-0.012-0.213-0.02-0.571-0.158c-0.36-0.129-0.85-0.417-1.367-0.916
				c-0.519-0.494-1.079-1.181-1.621-2.042c-0.156-0.245-0.211-0.358-0.288-0.531c0.008-0.091,0.017-0.184,0.026-0.278
				c0.005-0.034,0.008-0.111,0.01-0.187l0.009-0.224c0.02-0.601,0.042-1.236,0.064-1.902c0.16-5.332,0.209-12.689-0.236-20.788
				c-0.04-0.732-0.098-1.409-0.17-2.03c-0.029-0.182-0.094-0.94-0.149-1.438c-0.057-0.537-0.116-1.033-0.175-1.484
				c-7.764-0.881-4.694,1.651-3.036,2.635c-0.031,0.059-0.059,0.102-0.084,0.132c-0.023,0.071-0.055-0.097-0.049,0.344
				c-0.003,0.625,0.014,1.305,0.055,2.039c0.445,8.099,1.298,15.406,2.041,20.689c0.095,0.66,0.186,1.289,0.272,1.884
				c0.05,0.361,0.099,0.711,0.146,1.05c0.215,0.302,0.497,0.625,0.665,0.795c0.762,0.799,1.513,1.393,2.184,1.79
				c0.668,0.401,1.265,0.577,1.667,0.614C123.181,416.297,123.388,416.245,123.387,416.258z"/>
		</g>
		<path d="M105.271,370.636c-0.849,0-1.537,0.967-1.537,2.161v6.648c0,1.193,0.688,2.161,1.537,2.161
			c0.849,0,1.537-0.967,1.537-2.161v-6.648C106.808,371.603,106.12,370.636,105.271,370.636z"/>
		<path d="M111.556,373.877c-0.849,0-1.537,0.967-1.537,2.161v6.648c0,1.193,0.688,2.161,1.537,2.161s1.537-0.967,1.537-2.161
			v-6.648C113.093,374.844,112.405,373.877,111.556,373.877z"/>
		<g>
			<g>
				<path d="M82.861,375.38c0,0-0.23-0.023-0.669-0.067c-0.438-0.051-1.082-0.133-1.904-0.289c-1.641-0.314-4.004-0.924-6.746-2.294
					c-2.745-1.342-5.814-3.633-9.522-5.357c-1.843-0.878-3.788-1.714-5.816-2.571c-2.032-0.843-4.171-1.645-6.438-2.136
					c-2.72-0.591-4.873-0.401-6.278-0.06c-0.352,0.101-0.66,0.196-0.923,0.283c-0.263,0.087-0.479,0.201-0.652,0.283
					c-0.346,0.173-0.515,0.298-0.512,0.372c0.003,0.075,0.178,0.098,0.521,0.068c0.172-0.012,0.385-0.052,0.641-0.08
					c0.257-0.021,0.556-0.053,0.896-0.096c0.341-0.021,0.724-0.043,1.151-0.069c0.426,0.009,0.895-0.024,1.404,0.018
					c1.02,0.04,2.207,0.177,3.551,0.469c2.209,0.478,4.32,1.247,6.347,2.054c2.025,0.821,3.988,1.615,5.827,2.43
					c3.686,1.59,6.804,3.741,9.633,4.963c2.82,1.244,5.226,1.706,6.888,1.91c0.833,0.101,1.484,0.135,1.925,0.154
					C82.629,375.375,82.861,375.38,82.861,375.38z"/>
			</g>
			<g>
				<path d="M85.952,375.056c0,0-0.223-0.068-0.648-0.199c-0.423-0.137-1.046-0.345-1.834-0.663c-1.574-0.636-3.825-1.71-6.369-3.62
					c-2.55-1.882-5.321-4.779-8.775-7.233c-1.715-1.241-3.533-2.459-5.431-3.716c-1.903-1.243-3.914-2.465-6.084-3.402
					c-2.601-1.125-4.728-1.357-6.137-1.29c-0.355,0.032-0.665,0.067-0.931,0.102c-0.266,0.035-0.489,0.108-0.666,0.155
					c-0.356,0.105-0.534,0.198-0.539,0.273c-0.005,0.075,0.165,0.133,0.503,0.17c0.169,0.022,0.382,0.023,0.635,0.046
					c0.254,0.029,0.549,0.056,0.887,0.08c0.335,0.046,0.713,0.099,1.134,0.156c0.416,0.092,0.878,0.151,1.373,0.293
					c0.994,0.241,2.142,0.61,3.427,1.166c2.113,0.912,4.101,2.096,6.002,3.302c1.898,1.22,3.738,2.399,5.456,3.577
					c3.446,2.315,6.279,5.081,8.924,6.86c2.633,1.799,4.941,2.734,6.547,3.263c0.805,0.264,1.438,0.426,1.868,0.531
					C85.726,375.004,85.952,375.056,85.952,375.056z"/>
			</g>
		</g>
	</g>
	<g>
		<path d="M434.124,384.604c1.382,11.886-17.873,15.19-35.975,15.19c-18.103,0-41.971-1.599-37.974-16.789
			c3.652-13.879,18.686-25.982,36.788-25.982C415.066,357.023,432.126,367.416,434.124,384.604z"/>
		<path d="M442.141,371.321c3.596,11.428-16.416,18.409-35.783,21.915c-19.367,3.507-45.189,6.556-43.618-9.164
			c1.435-14.364,15.362-29.186,34.73-32.693C416.837,347.873,436.94,354.795,442.141,371.321z"/>
		<path d="M424.181,355.826c6.859,9.793-7.389,21.389-22.28,29.569c-14.891,8.18-35.295,17.563-39.32,2.444
			c-3.678-13.815,2.861-31.216,17.752-39.396S414.262,341.664,424.181,355.826z"/>
		<path d="M365.212,394.669c-8.042,0.983-14.586,1.585-15.503-5.919c-0.917-7.503,4.749-15.289,12.791-16.272
			c8.042-0.983,15.416,5.208,16.334,12.712C379.75,392.694,373.254,393.686,365.212,394.669z"/>
		<path d="M357.68,385.035c0.334,4.806,2.318,11.334-5.405,11.871c-3.424,0.238-6.661-6.203-6.995-11.009
			c-0.334-4.806,2.362-6.157,5.786-6.395C354.49,379.264,357.346,380.229,357.68,385.035z"/>
		<g>
			<g>
				<path d="M349.051,385.394c-0.189,0-0.358-0.135-0.393-0.328c-0.218-1.195-0.931-2.339-2.007-3.224
					c-0.919-0.757-2.116-1.341-3.56-1.736c-2.475-0.678-5.092-0.683-7.569-0.013c-0.211,0.058-0.432-0.068-0.49-0.281
					c-0.057-0.213,0.069-0.432,0.282-0.49c2.615-0.707,5.378-0.702,7.989,0.013c1.553,0.426,2.85,1.061,3.856,1.889
					c1.222,1.004,2.033,2.317,2.285,3.697c0.04,0.217-0.104,0.426-0.321,0.465C349.099,385.391,349.075,385.394,349.051,385.394z"/>
			</g>
			<g>
				<path d="M350.359,382.496c-0.007,0-0.015,0-0.023-0.001c-0.22-0.013-0.389-0.201-0.377-0.422
					c0.068-1.212-0.357-2.492-1.195-3.605c-0.716-0.95-1.743-1.798-3.053-2.521c-2.246-1.241-4.785-1.874-7.354-1.788
					c-0.206-0.005-0.404-0.168-0.411-0.389c-0.006-0.221,0.168-0.404,0.389-0.411c2.701-0.07,5.391,0.579,7.763,1.888
					c1.409,0.777,2.521,1.699,3.305,2.74c0.952,1.264,1.433,2.731,1.354,4.132C350.745,382.331,350.569,382.496,350.359,382.496z"/>
			</g>
		</g>
		<g>
			<g>
				<path d="M347.25,413.784c0,0,0.122,0.042,0.356,0.122c0.235,0.088,0.587,0.198,1.064,0.292c0.944,0.199,2.413,0.323,4.218-0.087
					c0.449-0.103,0.92-0.231,1.399-0.407c0.401-0.13,1.198-0.493,1.825-0.891l0.251-0.155c0.073-0.058,0.21-0.089,0.171-0.2
					c-0.001-0.19-0.002-0.382-0.003-0.576c0.004-0.382-0.047-0.839-0.067-1.24c-0.023-0.557-0.046-1.133-0.07-1.727
					c-0.063-1.186-0.129-2.441-0.199-3.757c-0.043-0.657-0.088-1.329-0.133-2.015c-0.024-0.333-0.048-0.67-0.072-1.01
					c0.011-0.045,0.023-0.081,0.035-0.11c0.041-0.013,0.076-0.023,0.105-0.029c0.01-0.006-0.007,0.01,0.025-0.013l0.102-0.074
					l0.205-0.148l0.414-0.3c0.552-0.407,1.117-0.824,1.694-1.249c1.148-0.856,2.33-1.758,3.523-2.691
					c7.319-5.728,5.057-8.865-2.382-3.043c-1.193,0.933-2.352,1.864-3.459,2.773c-1.368,1.132-2.683,2.222-3.922,3.248
					c0.099,0.671,0.197,1.336,0.295,1.994c0.061,0.355,0.122,0.706,0.183,1.054c0.123,0.676,0.243,1.339,0.361,1.987
					c0.252,1.293,0.493,2.527,0.721,3.693c0.121,0.582,0.238,1.146,0.352,1.692c0.041,0.129,0.081,0.255,0.12,0.38l0.061,0.199
					c0.02,0.068-0.061,0.093-0.091,0.141c-0.201,0.27-1.176,0.851-1.881,1.174c-1.488,0.7-2.827,0.932-3.752,0.983
					c-0.465,0.032-0.828,0.024-1.073,0.006C347.379,413.789,347.25,413.784,347.25,413.784z"/>
			</g>
			<g>
				<path d="M342.986,399.129c0,0,0.122,0.042,0.356,0.122c0.235,0.088,0.587,0.198,1.064,0.292
					c0.944,0.199,2.413,0.323,4.218-0.087c0.449-0.103,0.92-0.231,1.399-0.407c0.401-0.13,1.198-0.493,1.825-0.891l0.251-0.155
					c0.073-0.058,0.21-0.089,0.171-0.2c-0.001-0.19-0.002-0.382-0.003-0.576c0.005-0.382-0.047-0.839-0.066-1.24
					c-0.023-0.557-0.046-1.133-0.07-1.727c-0.063-1.186-0.129-2.441-0.199-3.757c-0.043-0.657-0.088-1.329-0.133-2.015
					c-0.024-0.333-0.048-0.67-0.072-1.01c0.011-0.045,0.023-0.081,0.035-0.11c0.041-0.013,0.076-0.023,0.105-0.029
					c0.01-0.006-0.007,0.01,0.025-0.013l0.102-0.074l0.205-0.148l0.413-0.3c0.552-0.407,1.118-0.824,1.694-1.249
					c1.148-0.856,2.33-1.758,3.523-2.691c7.319-5.728,5.057-8.865-2.382-3.043c-1.193,0.933-2.352,1.864-3.459,2.773
					c-1.368,1.132-2.683,2.222-3.922,3.248c0.099,0.671,0.197,1.336,0.295,1.994c0.061,0.355,0.122,0.706,0.183,1.054
					c0.123,0.676,0.243,1.339,0.361,1.987c0.252,1.293,0.493,2.527,0.721,3.693c0.121,0.582,0.238,1.146,0.352,1.692
					c0.041,0.129,0.081,0.255,0.12,0.38l0.061,0.199c0.02,0.068-0.061,0.093-0.091,0.141c-0.201,0.27-1.176,0.851-1.881,1.174
					c-1.488,0.7-2.827,0.932-3.752,0.983c-0.465,0.032-0.828,0.024-1.073,0.006C343.115,399.134,342.986,399.129,342.986,399.129z"
					/>
			</g>
			<g>
				<path d="M381.375,427.764c0,0,0.167-0.089,0.489-0.261c0.323-0.172,0.809-0.419,1.386-0.835c1.152-0.799,2.829-2.192,4.08-4.622
					c0.607-1.22,1.119-2.633,1.287-4.345l0.016-0.436c-0.015-0.145-0.058-0.289-0.09-0.434c-0.041-0.191-0.082-0.383-0.124-0.577
					c-0.084-0.388-0.17-0.783-0.258-1.184c-0.178-0.802-0.362-1.631-0.551-2.484c-0.394-1.703-0.811-3.506-1.248-5.395
					c-0.227-0.942-0.46-1.905-0.697-2.888c-0.121-0.491-0.243-0.987-0.367-1.487l-0.047-0.188c-0.016-0.066-0.035-0.138-0.028-0.122
					l0.001-0.039l0.005-0.065c0.053-0.028,0.051-0.011,0.132-0.063c0.34-0.271,0.685-0.547,1.034-0.826
					c0.696-0.562,1.409-1.138,2.137-1.725c1.451-1.18,2.949-2.417,4.463-3.687c10.138-8.504,7.82-11.604-2.483-2.961
					c-1.514,1.27-2.992,2.53-4.407,3.754c-1.712,1.491-3.357,2.923-4.9,4.267c0.262,0.871,0.521,1.734,0.778,2.589
					c0.156,0.491,0.311,0.978,0.464,1.459c0.311,0.962,0.617,1.905,0.915,2.827c0.614,1.839,1.201,3.594,1.755,5.252
					c0.285,0.827,0.561,1.63,0.828,2.406c0.135,0.388,0.268,0.769,0.399,1.144c0.066,0.187,0.131,0.373,0.195,0.557
					c0.044,0.084,0.066,0.167,0.07,0.266c0.047,1.345-0.212,2.694-0.585,3.83c-0.773,2.306-2.082,3.883-3.044,4.852
					c-0.477,0.502-0.898,0.833-1.178,1.064C381.521,427.642,381.375,427.764,381.375,427.764z"/>
			</g>
			<g>
				<path d="M404.558,410.786c0,0-0.146-0.122-0.426-0.356c-0.281-0.231-0.702-0.563-1.178-1.064
					c-0.962-0.969-2.271-2.547-3.043-4.852c-0.373-1.136-0.633-2.486-0.586-3.83c0.004-0.099,0.026-0.182,0.07-0.266
					c0.065-0.184,0.13-0.369,0.195-0.557c0.131-0.375,0.264-0.756,0.399-1.144c0.267-0.777,0.543-1.579,0.828-2.406
					c0.554-1.658,1.14-3.413,1.755-5.252c0.298-0.922,0.604-1.865,0.915-2.827c0.153-0.482,0.308-0.968,0.464-1.459
					c0.257-0.855,0.516-1.718,0.778-2.589c-1.543-1.344-3.189-2.776-4.9-4.267c-1.415-1.223-2.893-2.484-4.407-3.754
					c-10.138-8.504-12.787-5.683-2.483,2.961c1.514,1.27,3.012,2.507,4.463,3.687c0.728,0.587,1.441,1.164,2.137,1.725
					c0.349,0.279,0.694,0.554,1.034,0.825c0.08,0.052,0.078,0.035,0.132,0.063l0.005,0.065l0.001,0.039
					c0.006-0.016-0.012,0.056-0.028,0.122l-0.047,0.188c-0.123,0.5-0.246,0.996-0.367,1.487c-0.237,0.983-0.47,1.946-0.697,2.888
					c-0.437,1.889-0.854,3.692-1.248,5.395c-0.189,0.854-0.373,1.682-0.551,2.484c-0.087,0.402-0.173,0.796-0.258,1.184
					c-0.042,0.194-0.083,0.386-0.124,0.577c-0.032,0.145-0.075,0.289-0.09,0.434l0.016,0.436c0.168,1.713,0.68,3.126,1.287,4.345
					c1.252,2.431,2.928,3.823,4.08,4.622c0.576,0.416,1.062,0.664,1.386,0.836C404.391,410.697,404.558,410.786,404.558,410.786z"/>
			</g>
			<g>
				<path d="M427.129,417.382c0,0-0.502-0.127-1.445-0.365c-0.47-0.104-1.017-0.366-1.668-0.593
					c-0.329-0.104-0.652-0.311-1.01-0.476c-0.353-0.183-0.738-0.344-1.11-0.596c-1.538-0.884-3.259-2.202-4.979-3.968
					c-0.864-0.879-1.727-1.869-2.585-2.951c-0.208-0.276-0.419-0.555-0.632-0.837c-0.109-0.139-0.207-0.288-0.312-0.433
					l-0.156-0.219l-0.05-0.086l-0.134-0.275l-0.051-0.122l-0.022-0.057c-0.016-0.022-0.01-0.036,0.031-0.039
					c0.162-0.04,0.329-0.082,0.5-0.125c0.615-0.28,1.354-0.658,2.026-1.05c1.378-0.791,2.76-1.771,4.05-3.028
					c1.292-1.306,2.316-2.736,3.249-4.261c0.932-1.521,1.769-3.117,2.522-4.766c1.402-3.099,2.038-5.579,2.249-7.296
					c0.208-1.719-0.015-2.684-0.473-2.833c-0.46-0.15-1.146,0.485-2.019,1.911c-0.876,1.424-1.93,3.648-3.27,6.609
					c-0.708,1.55-1.464,3.036-2.264,4.424c-0.79,1.385-1.671,2.688-2.586,3.712c-0.956,1.033-2.062,1.947-3.212,2.725
					c-0.587,0.402-1.12,0.738-1.771,1.106c-1.119,0.609-2.328,1.094-3.445,1.57c0.662,1.092,1.485,2.186,2.262,3.181l0.296,0.356
					l0.191,0.218c0.129,0.144,0.25,0.292,0.383,0.429c0.261,0.277,0.518,0.55,0.772,0.82c1.043,1.053,2.088,1.992,3.124,2.805
					c2.066,1.634,4.097,2.754,5.854,3.415c0.424,0.196,0.862,0.301,1.257,0.427c0.402,0.109,0.76,0.258,1.123,0.307
					c0.717,0.116,1.305,0.273,1.802,0.288C426.608,417.357,427.129,417.382,427.129,417.382z"/>
			</g>
			<g>
				<path d="M438.788,402.996c0,0-0.505,0.113-1.455,0.325c-0.466,0.119-1.073,0.131-1.756,0.222
					c-0.341,0.055-0.722,0.016-1.117,0.03c-0.397-0.005-0.814,0.025-1.259-0.033c-1.771-0.096-3.901-0.498-6.233-1.3
					c-1.167-0.396-2.384-0.891-3.637-1.471c-0.31-0.152-0.624-0.307-0.941-0.463c-0.16-0.075-0.314-0.164-0.473-0.246l-0.238-0.126
					l-0.083-0.054l-0.243-0.185l-0.101-0.086l-0.045-0.041c-0.024-0.012-0.025-0.028,0.01-0.049
					c0.127-0.109,0.257-0.222,0.391-0.337c0.423-0.526,0.912-1.197,1.335-1.85c0.874-1.327,1.666-2.824,2.252-4.527
					c0.565-1.748,0.835-3.486,0.982-5.268c0.147-1.777,0.175-3.579,0.105-5.391c-0.143-3.398-0.693-5.898-1.278-7.527
					c-0.588-1.629-1.222-2.39-1.698-2.316c-0.479,0.074-0.805,0.949-0.942,2.615c-0.14,1.667-0.08,4.126,0.057,7.373
					c0.066,1.703,0.061,3.37-0.028,4.97c-0.082,1.593-0.281,3.153-0.637,4.478c-0.388,1.353-0.965,2.667-1.641,3.88
					c-0.343,0.623-0.667,1.163-1.083,1.785c-0.725,1.048-1.586,2.025-2.369,2.954c1.083,0.676,2.31,1.283,3.452,1.821l0.425,0.184
					l0.269,0.109c0.18,0.07,0.355,0.148,0.535,0.21c0.357,0.13,0.71,0.258,1.059,0.385c1.406,0.471,2.761,0.839,4.053,1.097
					c2.58,0.529,4.898,0.614,6.765,0.412c0.467-0.016,0.905-0.119,1.315-0.185c0.408-0.084,0.795-0.112,1.141-0.231
					c0.692-0.219,1.288-0.344,1.739-0.555C438.311,403.209,438.788,402.996,438.788,402.996z"/>
			</g>
		</g>
		<path d="M348.57,386.103c0,1.318-1.068,2.386-2.386,2.386c-1.318,0-2.386-1.068-2.386-2.386s1.068-2.386,2.386-2.386
			C347.502,383.717,348.57,384.786,348.57,386.103z"/>
	</g>
</g>
<g id="DESIGNED_BY_FREEPIK">
	<g>
		<g id="XMLID_319_">
			<g id="XMLID_338_">
				<path id="XMLID_346_" d="M260.104,471.741c-0.432,0.443-0.803,0.931-1.108,1.453l-0.465-0.241
					c-0.067-0.298-0.349-0.503-0.659-0.466c-0.331,0.039-0.568,0.339-0.529,0.67c0.039,0.331,0.339,0.568,0.67,0.529
					c0.065-0.008,0.127-0.026,0.184-0.052l0.451,0.234c-0.251,0.554-0.433,1.139-0.539,1.744l0.747,0.132
					c0.23-1.306,0.85-2.507,1.792-3.473L260.104,471.741z"/>
				<path id="XMLID_345_" d="M265.592,469.439c-0.171,0-0.341,0.006-0.51,0.017l-0.074-0.626c0.188-0.149,0.296-0.389,0.266-0.645
					c-0.046-0.393-0.402-0.674-0.795-0.628c-0.393,0.046-0.674,0.402-0.628,0.795c0.03,0.254,0.189,0.461,0.404,0.564l0.074,0.624
					c-0.714,0.116-1.403,0.332-2.06,0.646l0.327,0.684c0.934-0.447,1.942-0.673,2.995-0.673c0.496,0,0.993,0.053,1.475,0.158
					l0.161-0.741C266.692,469.498,266.142,469.439,265.592,469.439z"/>
				<path id="XMLID_344_" d="M272.194,471.986c0.331-0.04,0.566-0.341,0.526-0.672c-0.04-0.331-0.341-0.566-0.672-0.526
					c-0.309,0.038-0.535,0.304-0.53,0.609l-0.416,0.363c-0.418-0.43-0.889-0.813-1.408-1.139l-0.404,0.641
					c1.134,0.715,2.021,1.726,2.563,2.925l0.691-0.313c-0.251-0.554-0.568-1.072-0.942-1.545l0.402-0.351
					C272.065,471.991,272.129,471.994,272.194,471.986z"/>
				<path id="XMLID_343_" d="M265.044,479.647c-0.386,0.023-0.775,0.035-1.157,0.035c-0.88,0-1.733-0.061-2.478-0.179
					c-0.39-0.062-0.846-0.155-1.27-0.292c1.046,1.861,3.069,3.125,5.388,3.125c2.855,0,5.262-1.916,5.95-4.504
					c-0.682,0.449-1.505,0.825-2.459,1.123C267.839,479.322,266.463,479.562,265.044,479.647z"/>
				<path id="XMLID_339_" d="M265.592,470.955c-3.352,0-6.08,2.666-6.08,5.944c0,0.426,0.046,0.849,0.137,1.261
					c0.673,0.483,2.706,0.89,5.348,0.731c2.879-0.173,5.297-0.957,6.672-2.158c-0.006-0.195-0.021-0.39-0.045-0.582
					C271.244,473.189,268.65,470.955,265.592,470.955z M263.432,477.47c-1.02,0-1.85-0.83-1.85-1.85c0-1.02,0.83-1.85,1.85-1.85
					c1.02,0,1.85,0.83,1.85,1.85C265.282,476.64,264.452,477.47,263.432,477.47z M268.17,476.561c-0.75,0-1.36-0.61-1.36-1.36
					s0.61-1.361,1.36-1.361c0.75,0,1.361,0.61,1.361,1.361S268.92,476.561,268.17,476.561z"/>
			</g>
			<path id="XMLID_336_" d="M281.595,472.822c-0.295-0.116-0.805-0.309-1.382-0.237c-0.551,0.068-0.844,0.34-0.844,1.007v0.866
				h2.228v1.717h-2.228v5.455h-1.932v-5.455h-1.34v-1.717h1.34v-0.888c0-1.68,0.896-2.783,2.568-2.783
				c0.643,0,1.157,0.122,1.59,0.308L281.595,472.822z"/>
			<path id="XMLID_334_" d="M286.298,476.154c-0.177-0.03-0.358-0.046-0.526-0.046c-0.896,0-1.51,0.548-1.51,1.613v3.908h-1.932
				v-7.172h1.873v0.785c0.451-0.674,1.14-0.977,2.021-0.977c0.414,0,0.848,0.128,1.094,0.337L286.298,476.154z"/>
			<path id="XMLID_331_" d="M293.965,478.032c0,0.222-0.015,0.489-0.037,0.651h-5.085c0.207,1.036,0.933,1.488,1.843,1.488
				c0.622,0,1.295-0.252,1.813-0.688l1.133,1.243c-0.814,0.748-1.85,1.088-3.057,1.088c-2.198,0-3.723-1.495-3.723-3.753
				c0-2.257,1.48-3.797,3.627-3.797C292.544,474.265,293.958,475.797,293.965,478.032z M288.851,477.366h3.175
				c-0.177-0.918-0.733-1.436-1.562-1.436C289.554,475.93,289.021,476.478,288.851,477.366z"/>
			<path id="XMLID_328_" d="M301.618,478.032c0,0.222-0.015,0.489-0.037,0.651h-5.085c0.207,1.036,0.933,1.488,1.843,1.488
				c0.622,0,1.295-0.252,1.814-0.688l1.132,1.243c-0.814,0.748-1.85,1.088-3.057,1.088c-2.198,0-3.723-1.495-3.723-3.753
				c0-2.257,1.48-3.797,3.627-3.797C300.197,474.265,301.611,475.797,301.618,478.032z M296.504,477.366h3.175
				c-0.178-0.918-0.733-1.436-1.562-1.436C297.207,475.93,296.674,476.478,296.504,477.366z"/>
			<path id="XMLID_325_" d="M309.964,478.04c0,2.154-1.495,3.775-3.471,3.775c-0.962,0-1.643-0.378-2.109-0.933v3.708h-1.924
				v-10.133h1.887v0.792c0.466-0.585,1.155-0.984,2.139-0.984C308.469,474.265,309.964,475.886,309.964,478.04z M304.287,478.04
				c0,1.132,0.747,1.976,1.843,1.976c1.14,0,1.85-0.881,1.85-1.976c0-1.095-0.71-1.976-1.85-1.976
				C305.035,476.064,304.287,476.907,304.287,478.04z"/>
			<path id="XMLID_322_" d="M313.068,472.111c0,0.696-0.54,1.229-1.236,1.229c-0.696,0-1.229-0.533-1.229-1.229
				c0-0.696,0.533-1.243,1.229-1.243C312.527,470.868,313.068,471.415,313.068,472.111z M312.809,481.629h-1.932v-7.172h1.932
				V481.629z"/>
			<path id="XMLID_320_" d="M316.032,477.011l2.701-2.554h2.368l-3.479,3.375l3.501,3.797h-2.376l-2.716-2.901v2.901H314.1v-10.658
				h1.932V477.011z"/>
		</g>
		<g>
			<path d="M184.412,481.564v-1.055c-0.527,0.718-1.391,1.23-2.387,1.23c-1.846,0-3.149-1.406-3.149-3.706
				c0-2.256,1.289-3.721,3.149-3.721c0.952,0,1.816,0.469,2.387,1.245v-3.765h1.099v9.77H184.412z M184.412,479.646v-3.208
				c-0.395-0.615-1.245-1.143-2.124-1.143c-1.421,0-2.27,1.172-2.27,2.739c0,1.567,0.85,2.724,2.27,2.724
				C183.168,480.759,184.017,480.261,184.412,479.646z"/>
			<path d="M186.932,478.02c0-2.051,1.465-3.706,3.486-3.706c2.139,0,3.398,1.67,3.398,3.794v0.279h-5.727
				c0.088,1.333,1.025,2.446,2.549,2.446c0.806,0,1.626-0.322,2.182-0.893l0.527,0.718c-0.703,0.703-1.655,1.084-2.812,1.084
				C188.441,481.74,186.932,480.232,186.932,478.02z M190.404,475.222c-1.509,0-2.256,1.274-2.314,2.358h4.643
				C192.718,476.525,192.015,475.222,190.404,475.222z"/>
			<path d="M194.607,480.627l0.571-0.791c0.469,0.542,1.362,1.011,2.329,1.011c1.084,0,1.67-0.513,1.67-1.216
				c0-1.714-4.38-0.659-4.38-3.281c0-1.098,0.952-2.036,2.636-2.036c1.201,0,2.051,0.454,2.622,1.026l-0.513,0.762
				c-0.424-0.513-1.201-0.894-2.109-0.894c-0.967,0-1.567,0.483-1.567,1.113c0,1.552,4.38,0.527,4.38,3.281
				c0,1.187-0.952,2.139-2.783,2.139C196.306,481.74,195.325,481.389,194.607,480.627z"/>
			<path d="M201.477,472.746c0-0.41,0.337-0.747,0.732-0.747c0.41,0,0.747,0.337,0.747,0.747c0,0.41-0.337,0.732-0.747,0.732
				C201.814,473.479,201.477,473.157,201.477,472.746z M201.667,481.564v-7.075h1.099v7.075H201.667z"/>
			<path d="M204.582,483.381l0.556-0.82c0.586,0.703,1.289,0.967,2.3,0.967c1.172,0,2.27-0.571,2.27-2.124v-1.011
				c-0.513,0.718-1.377,1.26-2.373,1.26c-1.845,0-3.149-1.377-3.149-3.662c0-2.27,1.289-3.677,3.149-3.677
				c0.952,0,1.802,0.469,2.373,1.245v-1.069h1.099v6.87c0,2.344-1.641,3.076-3.369,3.076
				C206.237,484.435,205.417,484.201,204.582,483.381z M209.709,479.528v-3.091c-0.381-0.615-1.23-1.143-2.109-1.143
				c-1.421,0-2.27,1.128-2.27,2.695c0,1.553,0.849,2.695,2.27,2.695C208.478,480.685,209.328,480.144,209.709,479.528z"/>
			<path d="M217.413,481.564v-4.629c0-1.245-0.63-1.64-1.582-1.64c-0.865,0-1.685,0.527-2.095,1.099v5.17h-1.099v-7.075h1.099v1.025
				c0.498-0.586,1.464-1.201,2.519-1.201c1.48,0,2.256,0.747,2.256,2.285v4.966H217.413z"/>
			<path d="M219.932,478.02c0-2.051,1.465-3.706,3.486-3.706c2.139,0,3.398,1.67,3.398,3.794v0.279h-5.727
				c0.088,1.333,1.025,2.446,2.549,2.446c0.806,0,1.626-0.322,2.183-0.893l0.527,0.718c-0.703,0.703-1.655,1.084-2.812,1.084
				C221.441,481.74,219.932,480.232,219.932,478.02z M223.404,475.222c-1.509,0-2.256,1.274-2.314,2.358h4.643
				C225.718,476.525,225.015,475.222,223.404,475.222z"/>
			<path d="M233.35,481.564v-1.055c-0.527,0.718-1.392,1.23-2.388,1.23c-1.846,0-3.149-1.406-3.149-3.706
				c0-2.256,1.289-3.721,3.149-3.721c0.952,0,1.817,0.469,2.388,1.245v-3.765h1.098v9.77H233.35z M233.35,479.646v-3.208
				c-0.396-0.615-1.245-1.143-2.124-1.143c-1.421,0-2.27,1.172-2.27,2.739c0,1.567,0.849,2.724,2.27,2.724
				C232.105,480.759,232.954,480.261,233.35,479.646z"/>
			<path d="M239.692,481.564v-9.77h1.098v3.765c0.572-0.776,1.421-1.245,2.388-1.245c1.845,0,3.149,1.465,3.149,3.721
				c0,2.299-1.304,3.706-3.149,3.706c-0.996,0-1.86-0.513-2.388-1.23v1.055H239.692z M242.9,480.759
				c1.436,0,2.285-1.157,2.285-2.724c0-1.568-0.85-2.739-2.285-2.739c-0.864,0-1.728,0.527-2.109,1.143v3.208
				C241.171,480.261,242.036,480.759,242.9,480.759z"/>
			<path d="M247.528,483.337c0.161,0.073,0.425,0.117,0.601,0.117c0.483,0,0.805-0.161,1.055-0.747l0.469-1.069l-2.959-7.148h1.187
				l2.358,5.801l2.344-5.801h1.201l-3.545,8.51c-0.425,1.025-1.143,1.421-2.08,1.435c-0.234,0-0.601-0.044-0.806-0.103
				L247.528,483.337z"/>
		</g>
	</g>
</g>
</svg>
