<?xml version="1.0" encoding="utf-8"?>
<!-- Generator: Adobe Illustrator 27.5.0, SVG Export Plug-In . SVG Version: 6.00 Build 0)  -->
<svg version="1.1" xmlns="http://www.w3.org/2000/svg" xmlns:xlink="http://www.w3.org/1999/xlink" x="0px" y="0px"
	 viewBox="0 0 500 500" style="enable-background:new 0 0 500 500;" xml:space="preserve">
<g id="BACKGROUND">
	<rect style="fill:#FFFFFF;" width="500" height="500"/>
</g>
<g id="OBJECTS">
	<g>
		<path style="fill:#333333;" d="M403.102,108.666c0,0-6.667-3.833-6.833-5.667c-0.167-1.833-1.833-4-3.833-6.667
			c-2-2.667-5.831-5.82-5.831-5.82v0.004c-0.849-1.362-2.169-2.684-2.169-2.684c0.333-1.833-2.833-3.667-2.833-3.667
			c-1.359-3.262-3.271-8.175-4.925-10.966c2.708-1.397,7.611-4.741,8.091-10.867c0,0,1.667-1.667,3.333-2.667
			c1.667-1,2.5-1.667,2.667-3.333c0.167-1.667,1.667-1.5,1.667-2.333c0-0.833-0.667-2-1.167-1.5s-2.833,3.667-4,4.833
			c-1.167,1.167-3.038,2.5-3.602,3.5c-0.454,0.805-5.288,7.755-8.289,10.616c-1.992-1.878-6.775-3.116-6.775-3.116
			s1.667-1,2.333-1.667c0.667-0.667,3.167-0.667,1.667-2.333c-1.5-1.667-3-1-3.167-2.5c-0.065-0.584-0.436-1.318-1.038-1.959l0,0
			c0,0,6.705-6.207,9.205-9.207v-1c0,0,13.167-11.333,14.667-12.167c1.5-0.833,1.833-2.833,0.833-2
			c-1,0.833-3.833,2.167-4.833,2.667s-11.5,10.5-11.5,10.5s-1.833,0.667-3,2.5c-1.167,1.833-7.102,7.523-7.102,7.523
			c-0.747-0.292-1.613-0.401-2.564-0.189c-3,0.667-2.167,1.333-4,1.333h-0.936c-1.833,0-1-0.667-4-1.333
			c-0.951-0.211-1.817-0.103-2.564,0.189c0,0-5.936-5.689-7.103-7.523c-1.167-1.833-3-2.5-3-2.5s-10.5-10-11.5-10.5
			s-3.833-1.833-4.833-2.667c-1-0.833-0.667,1.167,0.833,2c1.5,0.833,14.667,12.167,14.667,12.167v1c2.5,3,9.205,9.207,9.205,9.207
			l0,0c-0.602,0.641-0.974,1.375-1.038,1.959c-0.167,1.5-1.667,0.833-3.167,2.5c-1.5,1.667,1,1.667,1.667,2.333
			c0.667,0.667,2.333,1.667,2.333,1.667s-4.783,1.239-6.775,3.116c-3.001-2.861-7.835-9.812-8.289-10.616
			c-0.564-1-2.436-2.333-3.602-3.5c-1.167-1.167-3.5-4.333-4-4.833s-1.167,0.667-1.167,1.5c0,0.833,1.5,0.667,1.667,2.333
			c0.167,1.667,1,2.333,2.667,3.333c1.667,1,3.333,2.667,3.333,2.667c0.48,6.126,5.383,9.471,8.091,10.867
			c-1.654,2.791-3.566,7.705-4.925,10.966c0,0-3.167,1.833-2.833,3.667c0,0-1.32,1.322-2.169,2.684v-0.004
			c0,0-3.831,3.153-5.831,5.82c-2,2.667-3.667,4.833-3.833,6.667c-0.167,1.833-6.833,5.667-6.833,5.667s-1.667,1.333-0.833,2
			c0.833,0.667,8.431-4,8.549-4.833c0.118-0.833,0.118-0.833,0.118-0.833s1.19,0.5,1.595,0c0.379-0.468,2.447-8.978,6.27-10.876
			c0.034,0.796,0.135,1.376,0.135,1.376s-3.5,3.5-1.5,6.667c0,0-1.568,3.333-0.617,5.667c0.951,2.333,1.784,3.167,1.784,3.167
			s-0.833,3.167,0,5c0.833,1.833,2.167,2.167,2.167,2.167s0.045,0.12,0.126,0.322c-1.822,2.143-6.588,7.924-7.126,10.345
			c-0.667,3-0.167,4,0.667,3c0.833-1,5.665-8.037,7.167-8.5c0.484-0.149,1.033-0.269,1.56-0.366
			c3.245,5.437,9.971,13.59,21.267,13.923l1.673-1.724h0.936l1.673,1.724c11.296-0.332,18.022-8.486,21.267-13.923
			c0.527,0.097,1.076,0.217,1.56,0.366c1.502,0.463,6.333,7.5,7.167,8.5c0.833,1,1.333,0,0.667-3
			c-0.538-2.421-5.305-8.201-7.126-10.345c0.081-0.202,0.126-0.322,0.126-0.322s1.333-0.333,2.167-2.167c0.833-1.833,0-5,0-5
			s0.833-0.833,1.784-3.167c0.951-2.333-0.617-5.667-0.617-5.667c2-3.167-1.5-6.667-1.5-6.667s0.101-0.58,0.135-1.376
			c3.823,1.898,5.891,10.407,6.27,10.876c0.405,0.5,1.595,0,1.595,0s0,0,0.118,0.833c0.118,0.833,7.716,5.5,8.549,4.833
			C404.768,109.999,403.102,108.666,403.102,108.666z"/>
	</g>
	<g>
		<path style="fill:#333333;" d="M133.057,261.999l-5.75-15.25c0,0,0,0,0.75-0.25s0.75-6,0-16.5s-6-13.25-6-13.25s-2.25,0-3.75,0
			s-11,3.977-11,3.977l-0.001,0.002c-1.667-9.067-3.75-14.229-3.75-14.229s3.75-0.5,1.726-7.25c3.226-0.25,8.774-9.25,9.524-11.25
			s0,0-0.768-5.218l0,0c1.301,0.744,2.281,1.218,2.668,1.218c0,0,3.1,0,5.1,7.25s1.75,19.75,3.25,20s1.5-15.75-2-22.75
			s-4.25-5.25-4.25-5.25s0.55-1.5-2.1-2.5c-0.64-0.242-1.987-0.88-3.656-1.705c-1.87-5.499-5.532-12.545-5.532-12.545
			s2.538-6.25,3.038-7.25s-2.632-2.25-2.632-2.25l0.733,1.5l-3.376,9c1.289,0.781,3.275,5.628,4.883,10.096
			c-4.971-2.525-10.787-5.596-10.787-5.596l-5.507,3.07c-1.873-1.727-3.704-3.07-4.564-3.07h-0.808c-0.86,0-2.691,1.343-4.564,3.07
			l-5.507-3.07c0,0-5.816,3.071-10.787,5.596c1.608-4.468,3.594-9.315,4.883-10.096l-3.375-9l0.733-1.5c0,0-3.132,1.25-2.632,2.25
			s3.038,7.25,3.038,7.25s-3.662,7.046-5.532,12.545c-1.669,0.826-3.015,1.464-3.656,1.705c-2.65,1-2.1,2.5-2.1,2.5
			s-0.75-1.75-4.25,5.25s-3.5,23-2,22.75s1.25-12.75,3.25-20s5.1-7.25,5.1-7.25c0.387,0,1.367-0.474,2.668-1.218l0,0
			c-0.768,5.218-1.518,3.218-0.768,5.218s6.299,11,9.524,11.25c-2.024,6.75,1.726,7.25,1.726,7.25s-2.083,5.162-3.75,14.229
			l-0.001-0.002c0,0-9.499-3.977-10.999-3.977s-3.75,0-3.75,0s-5.25,2.75-6,13.25s-0.75,16.25,0,16.5s0.75,0.25,0.75,0.25
			l-5.75,15.25c0,0-3.25,2.25,0,2.25s3.25-0.75,3.5-2.25s4.75-15.75,4.75-15.75s1.75-1.5,1.75-2.5s-2.25-11.75-1.75-13.75
			s2-10.75,2-10.75s8.209,4.708,11.5,5.25c1.209,0.199,2.34,0.386,3.291,0.544c-0.652,4.473-1.153,9.658-1.291,15.456
			c-0.072,3.032-0.089,6.126-0.015,9.202c-3.108,3.796-10.553,12.943-13.485,17.048c-3.75,5.25-3.202,6.75-3.202,6.75
			s0.452,4,4.452,7.5s4.13,9,6.44,10.25c2.31,1.25,6.444,2.5,6.444,2.5s-2.384,6.5-2.384,10.5s-0.25,6.75-0.25,6.75
			s-2.25,1.75-1.5,2.25s3.12,0.25,3.435,0c0.315-0.25,0-1.5,0-1.5s3.065-13.5,2.565-18.25c0,0-0.13-2.75-2.565-4.5
			c-2.435-1.75-10.105-9.5-10.52-10.75c-0.415-1.25-3.915-3.5-3.915-3.5s1.33-4.5,3.915-6c1.834-1.064,7.58-8.671,10.835-13.269
			c1.112,15.99,5.607,30.019,19.75,30.019h0.808c14.143,0,18.639-14.029,19.75-30.019c3.254,4.598,9.001,12.205,10.835,13.269
			c2.585,1.5,3.915,6,3.915,6s-3.5,2.25-3.915,3.5s-8.085,9-10.52,10.75c-2.435,1.75-2.565,4.5-2.565,4.5
			c-0.5,4.75,2.565,18.25,2.565,18.25s-0.315,1.25,0,1.5c0.315,0.25,2.685,0.5,3.435,0s-1.5-2.25-1.5-2.25s-0.25-2.75-0.25-6.75
			s-2.384-10.5-2.384-10.5s4.134-1.25,6.444-2.5c2.31-1.25,2.44-6.75,6.44-10.25s4.452-7.5,4.452-7.5s0.548-1.5-3.202-6.75
			c-2.932-4.105-10.377-13.253-13.485-17.048c0.074-3.076,0.057-6.17-0.015-9.202c-0.138-5.798-0.639-10.983-1.291-15.456
			c0.95-0.158,2.082-0.345,3.291-0.544c3.291-0.542,11.5-5.25,11.5-5.25s1.5,8.75,2,10.75s-1.75,12.75-1.75,13.75s1.75,2.5,1.75,2.5
			s4.5,14.25,4.75,15.75s0.25,2.25,3.5,2.25S133.057,261.999,133.057,261.999z M74.387,194.818l-9.388-9.32
			c0,0,0.557-1.82,1.39-4.301c5.08-3.185,11.86-7.949,11.86-7.949s0,0,0.414,1c0.225,0.542,1.871,1.744,3.333,2.733
			c-1.745,1.834-3.224,3.718-3.569,4.767c-0.821,2.5,2.571,3.5,2.571,3.5S77.075,189.669,74.387,194.818z M96.808,185.249
			c0,0,3.392-1,2.571-3.5c-0.344-1.049-1.824-2.933-3.569-4.767c1.462-0.989,3.109-2.191,3.333-2.733c0.414-1,0.414-1,0.414-1
			s6.78,4.763,11.86,7.949c0.833,2.482,1.39,4.301,1.39,4.301l-9.388,9.32C100.732,189.669,96.808,185.249,96.808,185.249z"/>
	</g>
	<g>
		<path style="fill:#333333;" d="M456.566,282.769c-2.882-1.235-8.236-7.412-8.236-7.412s1.03-0.412,1.03-1.853
			c0-1.441-2.677-3.706-4.324-4.941c-1.647-1.235-9.471-8.647-9.471-8.647s0-0.618,0.206-1.647c0.206-1.029-4.736-4.118-7.206-5.559
			c-2.471-1.441-11.942-7-14.206-7.618c-2.265-0.618-7.005-3.088-7.005-3.088c-1.445-3.294-2.672-5.559-2.672-5.559
			s1.647-0.618,2.672-1.029c0.564-0.227,1.504-1.576,2.202-3.222c2.557-0.258,7.836-0.841,8.302-1.308
			c0.618-0.618,3.5-5.559,4.941-7.206c1.441-1.647,3.088-4.324,3.088-4.324l1.029-0.618c0,0,5.147-7.206,5.971-8.236
			c0.824-1.03-0.206-2.059-0.206-2.059s3.706-3.912,4.735-6.589c1.03-2.677,1.853-2.471,3.294-2.882
			c1.441-0.412,2.059-2.883,1.441-2.383c-0.618,0.5-2.883,0.118-4.118,0.001c-1.235-0.117-6.794,10.823-6.794,10.823
			s-4.736,6.177-6.428,8.03c-1.692,1.853,0,2.883,0,2.883s-3.867,3.088-6.543,5.765c-2.043,2.043-5.59,4.228-7.883,5.222
			c0.062-0.452,0.089-0.894,0.059-1.31c-0.206-2.883-3.092-10.295-3.092-10.295s3.504-0.412,4.74-1.853
			c1.235-1.441-0.412-9.265-4.324-14.824c-0.295-0.42-0.574-0.789-0.843-1.135l0.004,0.001c3.896-3.81,17.723-6.896,18.752-7.514
			c1.03-0.618,0.618-2.471,1.441-4.53s5.147-7.412,7.412-9.059c2.265-1.647,7-5.971,8.853-7c1.853-1.029,2.059-3.294-1.029-2.882
			c-3.088,0.412-10.5,9.471-12.353,11.53c-1.853,2.059-6.589,8.853-6.589,8.853c-4.118,0-9.265,3.706-11.53,4.736
			c-1.647,0.749-4.595,3.234-6.083,4.537c-2.506-2.676-3.594-1.861-3.594-1.861H401.7c0,0-1.087-0.815-3.594,1.861
			c-1.488-1.303-4.436-3.789-6.083-4.537c-2.265-1.029-7.412-4.736-11.53-4.736c0,0-4.735-6.794-6.589-8.853
			c-1.853-2.059-9.265-11.118-12.353-11.53c-3.088-0.412-2.883,1.853-1.029,2.882c1.853,1.029,6.589,5.353,8.853,7
			c2.265,1.647,6.589,7,7.412,9.059s0.412,3.912,1.441,4.53c1.03,0.618,14.856,3.703,18.752,7.514l0.004-0.001
			c-0.27,0.346-0.548,0.715-0.843,1.135c-3.912,5.559-5.559,13.383-4.324,14.824c1.235,1.441,4.74,1.853,4.74,1.853
			s-2.887,7.412-3.092,10.295c-0.03,0.415-0.003,0.858,0.059,1.31c-2.293-0.993-5.84-3.178-7.883-5.222
			c-2.677-2.677-6.543-5.765-6.543-5.765s1.692-1.029,0-2.883c-1.692-1.853-6.428-8.03-6.428-8.03s-5.559-10.94-6.794-10.823
			c-1.235,0.117-3.5,0.499-4.118-0.001c-0.618-0.5,0,1.971,1.441,2.383c1.441,0.412,2.265,0.206,3.294,2.882
			c1.029,2.677,4.736,6.589,4.736,6.589s-1.03,1.029-0.206,2.059c0.823,1.029,5.971,8.236,5.971,8.236l1.029,0.618
			c0,0,1.647,2.677,3.088,4.324c1.441,1.647,4.324,6.589,4.941,7.206c0.467,0.467,5.746,1.05,8.302,1.308
			c0.699,1.646,1.638,2.995,2.202,3.222c1.025,0.412,2.672,1.029,2.672,1.029s-1.227,2.265-2.672,5.559c0,0-4.74,2.471-7.005,3.088
			c-2.265,0.618-11.736,6.177-14.206,7.618c-2.471,1.441-7.412,4.53-7.206,5.559c0.206,1.029,0.206,1.647,0.206,1.647
			s-7.824,7.412-9.471,8.647c-1.647,1.235-4.324,3.5-4.324,4.941c0,1.441,1.03,1.853,1.03,1.853s-5.353,6.177-8.236,7.412
			c-2.883,1.235-4.941,2.471-4.324,4.53c0.618,2.059,2.471,0.618,4.53-0.824c2.059-1.441,8.03-8.236,8.853-10.5
			c0,0,1.647-0.206,2.059-1.235c0.412-1.029,4.529-4.941,6.589-7.412c2.059-2.471,3.912-6.177,3.912-6.177s1.235,0.412,2.265-0.412
			c1.029-0.824,15.03-8.442,18.324-12.559c2.273-2.841,5.035-3.918,6.53-4.312c-0.175,1.348-0.099,2.882,0.095,4.3
			c-2.208,1.702-8.44,6.525-10.125,8.042c-2.059,1.853-1.647,3.5-1.647,3.5s-9.883,10.089-12.765,12.765
			c-2.882,2.677-5.147,7-4.941,8.441c0,0-2.883,4.736-3.088,6.383c-0.206,1.647-1.647,6.177-1.235,6.794
			c0.412,0.618,0.412,0.618,0.412,0.618s-5.765,7.618-8.03,9.471c-2.265,1.853-2.882,3.294-1.441,3.706
			c1.441,0.412,7.618-6.588,10.294-12.353c0,0,1.853-1.029,1.853-2.059c0-1.029,2.882-10.5,3.088-11.118
			c0.206-0.618-0.618-1.235-0.618-1.235s2.471-1.235,3.294-2.265c0.823-1.029,11.736-12.148,14-17.707c0,0,2.883,0,3.5-0.824
			c0.618-0.824,4.118-5.765,5.559-7.206c0.79-0.79,1.641-2.012,2.249-2.956c0.29,1.293,0.626,2.277,0.839,2.557
			c0.618,0.81,2.265,2.252,2.265,2.252s-3.492,0.618-3.084,2.676c0.408,2.059,2.055,3.5,2.055,3.5s-5.748,3.706-7.198,6.383
			c-1.45,2.677-4.332,8.647-1.45,14.824s5.765,12.971,11.736,12.971h0.511c5.971,0,8.853-6.794,11.736-12.971s0-12.148-1.45-14.824
			c-1.45-2.677-7.198-6.383-7.198-6.383s1.647-1.441,2.055-3.5c0.408-2.059-3.084-2.676-3.084-2.676s1.647-1.441,2.265-2.252
			c0.214-0.281,0.55-1.264,0.839-2.557c0.609,0.944,1.459,2.165,2.249,2.956c1.441,1.441,4.941,6.383,5.559,7.206
			c0.618,0.824,3.5,0.824,3.5,0.824c2.265,5.559,13.177,16.677,14.001,17.707c0.824,1.029,3.294,2.265,3.294,2.265
			s-0.824,0.618-0.618,1.235c0.206,0.618,3.088,10.089,3.088,11.118c0,1.029,1.853,2.059,1.853,2.059
			c2.677,5.765,8.853,12.765,10.294,12.353c1.441-0.412,0.824-1.853-1.441-3.706c-2.265-1.853-8.03-9.471-8.03-9.471
			s0,0,0.412-0.618c0.412-0.618-1.029-5.147-1.235-6.794c-0.206-1.647-3.088-6.383-3.088-6.383c0.206-1.441-2.059-5.765-4.941-8.441
			c-2.882-2.677-12.765-12.765-12.765-12.765s0.412-1.647-1.647-3.5c-1.685-1.517-7.917-6.34-10.125-8.042
			c0.194-1.418,0.27-2.952,0.095-4.3c1.495,0.395,4.257,1.471,6.53,4.312c3.294,4.118,17.295,11.736,18.324,12.559
			c1.029,0.824,2.265,0.412,2.265,0.412s1.853,3.706,3.912,6.177c2.059,2.471,6.177,6.383,6.589,7.412
			c0.412,1.029,2.059,1.235,2.059,1.235c0.823,2.265,6.794,9.059,8.853,10.5c2.059,1.441,3.912,2.883,4.53,0.824
			C461.508,285.24,459.449,284.004,456.566,282.769z"/>
	</g>
	<g>
		<path style="fill:#333333;" d="M351.075,375.182c0,0-5.951-3.567-8.083-3.99c-1.157-0.23-6.433-0.311-11.018-0.336
			c-0.031-0.603-0.078-1.221-0.154-1.866c1.515-0.007,2.95,0.005,3.905,0.056c3.014,0.161,9.234,0.347,10.193,0.675
			s4.88,3.174,4.88,3.174s2.742,1.806,2.494,0.244c-0.248-1.562-2.031-3.04-2.467-1.422c0,0-3.373-3.093-4.524-3.284
			c-1.151-0.191-9.262-1.197-11.125-1.167c-0.624,0.01-2.016,0.064-3.586,0.13c-0.134-0.799-0.305-1.633-0.51-2.498
			c0.969-0.093,1.852-0.154,2.494-0.149c2.687,0.02,10.728,0.244,11.862,0.562s2.578,0.846,2.578,0.846s3.946,3.212,3.635,0.481
			c-0.311-2.731-3.195-1.264-3.195-1.264s-2.986-1.572-5.795-1.944c-2.809-0.372-8.701-0.312-10.375-0.365
			c-0.344-0.011-0.931,0.055-1.637,0.164c-0.229-0.808-0.476-1.561-0.736-2.273c2.937-0.306,9.712-1.001,10.557-0.775
			c0.979,0.262,4.383,1.427,4.383,1.427s2.842,1.781,2.387-0.44c-0.456-2.221-2.291-0.556-2.291-0.556s-3.672-1.861-5.663-2.053
			c-1.579-0.152-7.11,0.367-10.021,0.772c-0.414-0.944-0.853-1.804-1.317-2.58c1.247-0.242,2.296-0.428,2.799-0.474
			c1.833-0.167,6.167,0,6.833,0.167c0.667,0.167,3.833,1.167,3.833,1.167s4.167-1,1.667-2.5s-2.667,0.833-2.667,0.833
			s-3-1.5-4.5-1.667c-1.367-0.152-7.015,0.526-9.016,0.9c-0.388-0.526-0.787-1.01-1.195-1.46c0.702-0.097,1.294-0.191,1.662-0.276
			c1.816-0.417,4.616-1.212,5.789-1.098c1.173,0.113,2.52,0.385,2.52,0.385s2.233,1.4,1.801-0.75
			c-0.432-2.149-2.354-0.393-2.354-0.393s-1.559-1.263-4.208-0.809c-2.649,0.455-3.799,0.841-6.281,1.288
			c-0.171,0.031-0.345,0.06-0.518,0.088c-0.784-0.686-1.586-1.282-2.392-1.834c1.129-0.047,2.231-0.102,2.934-0.165
			c1.992-0.177,5.342-0.141,5.342-0.141s3.774-0.838,2.494-2.062c-1.28-1.225-2.778,0.749-2.778,0.749s-2.579-0.775-4.903-0.568
			c-1.646,0.146-4.284,0.381-5.688,0.506c-1.079-0.681-2.129-1.364-3.116-2.146c2.345,0.028,5.598,0.051,6.624-0.021
			c1.662-0.118,3.147-0.391,3.147-0.391s1.413,1.069,1.971-0.474c0.559-1.544-2.054-0.69-2.054-0.69s-2.03-0.357-4.025-0.215
			c-1.455,0.103-5.107,0.451-6.981,0.633c-0.492-0.482-0.959-1.007-1.396-1.592c2.398-0.049,6.534-0.131,7.121-0.131
			c0.833,0,2.5,0.333,2.333-1.167c-0.167-1.5-2.167,0-2.167,0s-2.333-0.333-4.667-0.167c-1.374,0.098-2.619,0.195-3.422,0.26
			c-0.361-0.61-0.696-1.271-0.995-2.01c-0.121-0.3-0.23-0.598-0.332-0.896c1.121,0.206,2.773,0.509,3.504,0.643
			c1.159,0.213,5.27,0.536,5.27,0.536s1.21,1.109,1.477-0.735c0.267-1.844-1.422-0.477-1.422-0.477s-3.266-0.744-4.479-0.798
			c-0.992-0.045-3.815-0.586-4.809-0.782c-0.226-0.962-0.359-1.908-0.414-2.834c1.187-0.254,4.007-0.772,5.198-0.235
			c1.527,0.688,3.158,2.114,3.158,2.114s2.106,1.058,2.267-0.47c0.161-1.528-1.738-0.583-1.738-0.583s-2.736-2.851-4.633-2.96
			c-1.238-0.071-3.123,0.462-4.287,0.841c0.013-0.832,0.087-1.643,0.204-2.433l0.133,0.266c0,0,4.481-0.783,5.324-0.676
			c0.843,0.107,3.739,1.957,3.739,1.957s1.473,1.373,1.844,0.267c0.371-1.106-1.421-1.004-1.421-1.004s-1.946-2.059-3.211-2.483
			c-0.992-0.333-4.668,0.27-6.21,0.545c0.173-0.836,0.392-1.641,0.642-2.411c1.696-0.256,7.044-0.289,7.68-0.239
			c0.685,0.054,1.263,0.951,1.263,0.951s2.21,1.796,2.476,0.479c0.266-1.317-2.158-1.427-2.158-1.427s-0.26-1.845-1.577-2.111
			c-0.965-0.195-5.089,0.621-7.232,1.073c0.461-1.202,0.978-2.298,1.479-3.268c1.235-0.127,2.474-0.23,2.858-0.181
			c0.843,0.107,3.478,0.111,3.9,0.428c0.421,0.317,3.633,2.273,3.161,0.533c-0.471-1.74-2.422-1.164-2.422-1.164
			s-1.42-1.531-2.58-1.744c-0.745-0.137-2.579,0.16-3.991,0.417c0.724-1.287,1.276-2.201,1.339-2.64
			c0.159-1.112,0.415-2.326-0.316-3.64c0.747-0.759,1.797-1.737,3.207-2.832c3.127-2.43,5.413-4.22,6.134-4.731
			c0.722-0.512,3.247-4.603,3.247-4.603s0.962-1.918,0.842-2.43c-0.12-0.511-0.842,0.128-1.443,0.767
			c-0.601,0.639-0.12,1.407-0.12,1.407s-2.285,2.174-2.526,2.557c-0.241,0.384-1.082,1.662-2.646,1.918
			c-1.166,0.191-5.341,4.718-7.389,7.008c-0.425-0.462-0.985-0.935-1.741-1.421c-0.228-0.147-0.466-0.273-0.711-0.384
			c0.806-1.487,1.917-3.591,2.142-4.308c0.361-1.151,0.361-3.58,0.601-4.859c0.241-1.279,3.247-6.138,3.247-6.138
			s0.722-0.384,1.082-0.895c0.361-0.512,0.722-1.79-0.12-1.79c-0.842,0-1.443,2.046-1.443,2.046s-3.849,5.499-4.33,6.01
			s-0.842,2.046-0.962,3.581c-0.079,1.012-1.36,3.965-2.224,5.862c-3.256-0.235-7.211,1.959-10.283,6.376
			c0,0-0.836,1.043-1.862,2.825c-0.427-0.257-0.956-0.567-1.305-0.742c-0.667-0.333-4-2.333-5.167-2.5c-1.167-0.167-3,0.833-3,0.833
			s-1.667-1.167-2.667,0.333s2.667,0.667,3.167,0.5c0.5-0.167,3,0.667,3.833,0.833c0.606,0.121,3.144,1.297,4.487,1.931
			c-0.434,0.837-0.876,1.789-1.286,2.828c-1.824-1.075-5.692-3.299-6.702-3.425c-1.333-0.167-2.167,1.5-2.167,1.5
			s-2.333-0.667-2.5,0.667c-0.167,1.333,2.5,0.333,2.5,0.333s0.833-0.667,1.5-0.5c0.587,0.147,5.182,1.716,6.951,2.543
			c-0.244,0.702-0.464,1.442-0.657,2.208c-1.581-0.839-4.076-2.085-4.96-2.085c-1.333,0-3.833,1.333-3.833,1.333
			s-1.667-0.667-1.667,0.5c0,1.167,1.833,0.333,1.833,0.333s3.333-0.833,4.167-0.667c0.618,0.124,2.974,1.345,4.152,1.97
			c-0.13,0.676-0.232,1.371-0.303,2.081c-0.963-0.674-2.212-1.453-3.183-1.718c-1.833-0.5-5.333,1.333-5.333,1.333s-1.5-1.5-1.833,0
			c-0.333,1.5,2,1.167,2,1.167s2-0.833,3.667-1c1.198-0.12,3.424,1.05,4.584,1.718c-0.03,1.046,0.016,2.12,0.16,3.213
			c-1.228-0.174-2.76-0.412-3.411-0.598c-1.167-0.333-4.5-0.667-4.5-0.667s-1.167-1.833-1.5,0c-0.333,1.833,1.167,1.167,1.167,1.167
			s4,1,5.167,1.167c0.699,0.1,2.232,0.319,3.352,0.479c0.24,1.115,0.585,2.245,1.06,3.381c-0.73-0.057-1.621-0.125-2.579-0.193
			c-2.333-0.167-4.667,0.167-4.667,0.167s-2-1.5-2.167,0c-0.167,1.5,1.5,1.167,2.333,1.167c0.635,0,5.425,0.097,7.671,0.143
			c0.158,0.313,0.317,0.627,0.495,0.941c0.371,0.652,0.765,1.265,1.17,1.857c-1.966-0.048-4.642-0.107-5.837-0.107c-2,0-4,0.5-4,0.5
			s-2.667-0.667-2,0.833s2,0.333,2,0.333s1.5,0.167,3.167,0.167c1.174,0,5.238-0.33,7.54-0.526c0.699,0.907,1.435,1.744,2.197,2.526
			c-1.271,0-2.701,0-3.737,0c-2.333,0-4.833,1-4.833,1s-1.667-1.833-2.833-0.5c-1.167,1.333,2.667,1.833,2.667,1.833
			s3.333-0.333,5.333-0.333c1.215,0,3.595-0.123,5.279-0.219c1.737,1.53,3.546,2.848,5.306,4.093
			c-0.676-0.048-1.393-0.114-2.085-0.207c-2.5-0.333-3.667-0.667-6.333-1c-2.667-0.333-4.167,1-4.167,1s-2-1.667-2.333,0.5
			c-0.333,2.167,1.833,0.667,1.833,0.667s1.333-0.333,2.5-0.5c1.167-0.167,4,0.5,5.833,0.833c1.284,0.233,5.175,0.466,7.397,0.585
			c1.757,1.271,3.382,2.548,4.73,3.99c-1.28-0.341-2.771-0.737-3.461-0.909c-1.333-0.333-8-1.167-9.5-1
			c-1.5,0.167-4.5,1.667-4.5,1.667s-0.167-2.333-2.667-0.833s1.667,2.5,1.667,2.5s3.167-1,3.833-1.167
			c0.667-0.167,5-0.333,6.833-0.167c1.366,0.124,6.708,1.266,9.344,1.84c0.864,1.285,1.514,2.72,1.871,4.392
			c-1.437-0.435-3.54-1.082-4.382-1.398c-1.333-0.5-9.5-2.167-11.5-2.167s-5.833,1.5-5.833,1.5s-1.667-1.833-2.333,0.333
			c-0.667,2.167,2.333,0.667,2.333,0.667s3.5-0.833,4.5-1c1-0.167,9.833,1.667,11.5,2c1.168,0.234,4.214,1.039,5.934,1.501
			c0.023,0.221,0.052,0.438,0.066,0.666c0.059,0.962,0.033,1.876-0.051,2.755c-2.161-0.794-5.946-2.138-7.115-2.255
			c-1.667-0.167-7.5-1-10.333-1c-2.833,0-6,1.167-6,1.167s-2.667-1.833-3.333,0.833c-0.667,2.667,3.667,0,3.667,0
			s1.5-0.333,2.667-0.5c1.167-0.167,9.167,0.667,11.833,1c2.07,0.259,6.538,1.519,8.44,2.071c-0.112,0.634-0.259,1.249-0.435,1.846
			c-2.385-0.512-7.756-1.66-9.171-1.917c-1.833-0.333-10-0.667-11.167-0.667c-1.167,0-5,2.5-5,2.5c-0.167-1.667-2.167-0.5-2.667,1
			s2.5,0.167,2.5,0.167s4.333-2.167,5.333-2.333c1-0.167,7.167,0.667,10.167,1c2.294,0.255,7.308,1.19,9.544,1.617
			c-0.224,0.586-0.474,1.157-0.747,1.714c-3.914-0.478-15.018-1.802-16.797-1.665c-2.167,0.167-8.5,3-8.5,3s-2.833-0.833-3,1.167
			s3.167,0,3.167,0s5.667-2.167,6.5-2.333c0.833-0.167,4.667-0.5,7.333-0.333c2.24,0.14,8.578,1.218,10.555,1.56
			c-0.374,0.656-0.773,1.299-1.191,1.931c-3.742-0.987-13.125-0.944-14.03-0.491c-1,0.5-9,4.167-9,4.167s-1.5-1-2,1s2,0.333,2,0.333
			s1.5-0.667,2.333-0.833c0.833-0.167,6.833-3,6.833-3s1.167-0.333,2.667-0.333c1.232,0,7.624,0.786,9.874,1.067
			c-0.47,0.655-0.949,1.307-1.426,1.96c-3.118-0.212-11.627,1.026-13.115,1.473c-1.667,0.5-7.833,3.667-7.833,3.667
			c-0.5-0.5-3.167,0-2.5,1.667c0.667,1.667,3.167-0.5,3.167-0.5c1.667,0,7.667-4.167,9-4.167c1.333,0,5.167-0.167,7.333-0.5
			c1.153-0.177,2.154-0.165,2.848-0.115c-0.549,0.774-1.083,1.559-1.586,2.363c-2.661,0.007-8.51,1.419-9.095,1.419
			c-0.667,0-2.333,0.333-3.167,0.833c-0.833,0.5-6.833,4.167-6.833,4.167c-0.833-0.667-2.5,0.333-1.667,1.667
			c0.833,1.333,2.167-0.5,2.167-0.5s1.667-0.833,3.5-1.667c1.833-0.833,3.5-2.833,3.5-2.833c1,0.333,4.667,0.333,6.833-0.667
			c1.51-0.697,3.082-0.904,3.908-0.968c-0.545,0.984-1.033,2.004-1.431,3.079c-2.197,0.611-9.821,3.804-11.477,4.557
			c-1.833,0.833-4,3.167-4,3.167c-1.333-0.167-2.167,1.5-1.333,2.333c0.833,0.833,2.167-1.167,2.167-1.167s0.333-1,1.167-1.5
			c0.833-0.5,7.667-3.333,8.833-3.667c0.817-0.233,2.857-1.119,4.008-1.63c-0.141,0.583-0.259,1.179-0.341,1.797
			c-0.079,0.593-0.119,1.152-0.149,1.702c-1.907,1.241-6.67,4.27-8.518,4.798c-2.333,0.667-4.333,3-4.333,3
			c-0.833-0.5-3.167,0.667-2.5,2c0.667,1.333,2.833-0.667,2.833-0.667l1.5-0.833c1.806-0.278,8.231-4.946,10.999-6.785
			c0.02,0.838,0.077,1.638,0.197,2.369c-1.722,1.141-4.836,3.222-5.196,3.582c-0.5,0.5-5.333,4.667-5.333,4.667
			s-0.667,0.667-1.667,0.833c-1,0.167-1.333,1.333-0.167,2c1.167,0.667,2-1.167,2-1.167s3.5-3.333,4.667-4.333
			s0.833-0.5,1.833-0.667c0.738-0.123,3.197-1.787,4.437-2.651c0.294,0.875,0.648,1.653,1.043,2.34
			c-1.487,1.493-4.922,4.957-5.313,5.478c-0.5,0.667-3.833,4.5-3.833,4.5c-1.333-0.333-1.5,1.167-0.667,1.833
			c0.833,0.667,1.333-1,1.333-1s2.5-2.667,4.167-4.167c1.225-1.102,3.795-4,5.075-5.461c1.789,2.437,3.842,3.378,3.842,3.378
			s1.21,2.41,3.001,4.295c-1.594,1.536-4.441,4.264-4.917,4.621c-0.667,0.5-1,1.5-1,1.5s-3.167,0.667-4.5,1.667s-7,5.167-8,6.167
			s-5.167,8.5-4.167,9s5-5.167,5.5-6.5c0.5-1.333,9-7.667,11.667-8.5l6.26-7.154c0.959,0.816,2.034,1.404,3.157,1.404
			c1.468,0,2.626-0.539,3.511-1.252l5.543,6.335c2.667,0.833,11.167,7.167,11.667,8.5c0.5,1.333,4.5,7,5.5,6.5s-3.167-8-4.167-9
			s-6.667-5.167-8-6.167c-1.333-1-4.5-1.667-4.5-1.667s-0.333-1-1-1.5c-0.406-0.304-2.537-2.334-4.145-3.878
			c0.793-0.931,1.227-1.913,1.341-2.372c0.25-1,0-3.5,0-3.5s-0.629-1.199-1.332-3.122c2.063,1.018,4.503,2.223,4.918,2.438
			c0.74,0.383,2.066,1.446,2.608,0.038c0.542-1.408-1.924-0.997-1.924-0.997s-1.918-1.37-4.066-2.296
			c-0.766-0.33-1.49-0.639-2.111-0.902c-0.31-1.006-0.605-2.12-0.839-3.323c2.264,0.881,7.106,2.964,7.797,3.388
			c0.828,0.508,1.152,1.511,1.152,1.511s1.314,2.013,2.155,1.188c0.841-0.825,0.024-2.5-1.311-2.346c0,0-2.144-2.354-3.969-3.205
			c-0.896-0.418-3.553-1.576-6.144-2.648c-0.133-1.142-0.193-2.326-0.152-3.532c1.665,1.162,4.565,3.152,5.929,3.884
			c1.976,1.06,5.04,3.053,5.04,3.053s0.883,1.499,1.533,0.653c0.65-0.846,0.131-2.263-1.085-1.622c0,0-4.151-2.928-4.796-3.457
			c-0.508-0.416-4.73-2.997-6.507-4.078c0.08-0.709,0.185-1.418,0.351-2.126c0.029-0.123,0.066-0.243,0.098-0.365
			c1.159,0.813,3.845,2.652,4.622,2.781c1,0.167,0.667-0.333,1.833,0.667c1.167,1,4.667,4.333,4.667,4.333s0.833,1.833,2,1.167
			c1.167-0.667,0.833-1.833-0.167-2c-1-0.167-1.667-0.833-1.667-0.833s-4.833-4.167-5.333-4.667c-0.36-0.36-3.47-2.438-5.193-3.58
			c0.272-0.608,0.58-1.198,0.914-1.779c2.701,1.783,9.28,6.577,11.112,6.859l1.5,0.833c0,0,2.167,2,2.833,0.667
			c0.667-1.333-1.667-2.5-2.5-2c0,0-2-2.333-4.333-3c-1.687-0.482-5.803-3.049-7.96-4.437c0.403-0.638,0.827-1.273,1.261-1.915
			c1.107,0.506,3.296,1.488,4.15,1.741c1.163,0.345,7.969,3.244,8.797,3.752c0.828,0.508,1.152,1.511,1.152,1.511
			s1.314,2.013,2.155,1.188c0.841-0.825,0.024-2.5-1.311-2.346c0,0-2.144-2.354-3.969-3.205c-1.374-0.641-6.887-3.021-9.955-4.163
			c0.353-0.535,0.701-1.082,1.04-1.647c0.187,0.074,0.375,0.145,0.561,0.233c2.157,1.021,5.823,1.057,6.827,0.733
			c0,0,1.647,2.016,3.472,2.867c1.825,0.851,3.484,1.701,3.484,1.701s1.316,1.846,2.162,0.521c0.846-1.325-0.811-2.341-1.65-1.683
			c0,0-5.964-3.725-6.793-4.233c-0.828-0.508-2.492-0.858-3.159-0.864c-0.307-0.003-2.065-0.409-4.048-0.799
			c0.338-0.648,0.657-1.32,0.943-2.031c2.214,0.273,5.466,0.41,6.673,0.41c1.333,0,7.333,4.167,9,4.167c0,0,2.5,2.167,3.167,0.5
			c0.667-1.667-2-2.167-2.5-1.667c0,0-6.167-3.167-7.833-3.667c-0.928-0.278-4.596-0.866-7.981-1.218
			c0.24-0.759,0.444-1.557,0.599-2.406c2.376-0.277,4.833-0.543,5.548-0.543c1.5,0,2.667,0.333,2.667,0.333s6,2.833,6.833,3
			c0.833,0.167,2.333,0.833,2.333,0.833s2.5,1.667,2-0.333s-2-1-2-1s-8-3.667-9-4.167c-0.562-0.281-4.388-0.404-8.105-0.221
			c0.051-0.63,0.07-1.29,0.067-1.972c2.111-0.075,4.237-0.12,5.342-0.057c2.667,0.152,6.434,0.939,7.242,1.203
			c0.808,0.265,6.176,3.09,6.176,3.09s3.072,2.382,3.144,0.377C353.987,374.692,351.075,375.182,351.075,375.182z"/>
	</g>
	<g>
		<path style="fill:#333333;" d="M338.132,221.016c-7.972-9.085-48.639-43.857-65.572-58.233c-0.022-0.151-0.044-0.301-0.067-0.452
			c2.718-2.309,8.303-7.453,8.659-11.009c0,0,3.061-2.59,3.296-5.651c0.235-3.061,0.471-7.064,0-8.005
			c-0.471-0.942-0.942-2.59-0.942-2.59s4.474-1.413,4.944-3.532c0.471-2.119,0.942-3.767,0.236-4.003
			c-0.706-0.235-3.296,0-4.238,1.177c-0.942,1.177-4.474,3.532-4.003,4.474c0.471,0.942,0.942,2.119,0.942,2.119
			s-2.825,11.537-2.825,12.479s0.471,2.119,0.471,2.119s-4.003,1.413-4.945,3.061c-0.484,0.846-1.711,2.126-2.792,3.172
			c-0.776-3.157-1.699-5.621-2.623-6.468c-2.826-2.59-4.709-6.828-4.709-6.828s4.003-1.648,1.884-4.944
			c-2.119-3.296-4.709-4.603-7.299-8.541c-2.59-3.938-6.122-2.95-7.77-3.091h-1.557c-1.648,0.14-5.18-0.847-7.77,3.091
			c-2.59,3.938-5.18,5.245-7.299,8.541c-2.119,3.296,1.884,4.944,1.884,4.944s-1.884,4.238-4.709,6.828
			c-0.924,0.847-1.847,3.311-2.623,6.468c-1.081-1.046-2.309-2.325-2.792-3.172c-0.942-1.648-4.945-3.061-4.945-3.061
			s0.471-1.177,0.471-2.119s-2.826-12.479-2.826-12.479s0.471-1.177,0.942-2.119c0.471-0.942-3.061-3.296-4.003-4.474
			c-0.942-1.177-3.532-1.413-4.238-1.177c-0.706,0.236-0.235,1.884,0.236,4.003c0.471,2.119,4.945,3.532,4.945,3.532
			s-0.471,1.648-0.942,2.59c-0.471,0.942-0.235,4.945,0,8.005c0.236,3.061,3.296,5.651,3.296,5.651
			c0.356,3.555,5.941,8.7,8.659,11.009c-0.023,0.151-0.045,0.301-0.067,0.452c-16.933,14.376-57.599,49.149-65.572,58.233
			c-10.125,11.537-14.363,20.014-9.183,24.252c5.18,4.238,10.124,1.413,17.895-6.828c5.829-6.183,39.621-46.423,56.137-66.14
			c0.015,1.639,0.13,3.091,0.372,4.215c0.745,3.479,3.531,8.33,7.028,12.626c-3.763-1.306-10.236-3.369-13.15-3.207
			c0,0-1.177,1.648-1.177,2.59c0,0-7.77,10.595-9.889,12.715c-2.119,2.119-3.767,4.003-2.825,5.18
			c0.942,1.177,0.942,1.177,0.942,1.177s-2.355,8.241-3.532,10.595c-1.177,2.354-5.886,14.833-8.006,16.246
			c-2.119,1.413-4.003,4.474-1.884,4.945c2.119,0.471,3.296-2.826,4.709-4.003c1.413-1.177,10.125-26.371,10.125-26.371
			s3.296-0.706,4.003-2.59c0.706-1.884,7.064-15.54,7.064-15.54s4.238,0.471,6.828,2.355c2.59,1.884,3.061,2.826,7.064,3.532
			c2.391,0.422,5.78,1.262,8.13,1.871c-1.91,0.9-4.87,2.769-6.246,6.134c-0.092,0.225-0.194,0.476-0.294,0.723
			c-3.099-1.118-11.144-3.879-13.598-3.313c-3.061,0.706-3.767,15.069-5.415,20.249c-1.648,5.18-3.061,8.241-1.413,9.183
			c1.648,0.942,2.355,1.177,2.355,1.177l0.942,16.011c0,0,4.238,9.889,5.415,16.011c1.177,6.122,2.119,10.36,0.942,12.479
			c-1.177,2.119-0.706,4.709,1.413,4.709s2.354-5.886,2.354-6.828s-7.064-27.077-7.064-27.077l-2.354-15.069
			c0,0,3.061-0.706,2.825-4.238c-0.236-3.532-0.236-21.662-0.236-21.662s5.18,3.296,7.535,4.003c1.148,0.344,2.629,0.688,3.848,0.95
			c-1.693,5.155-3.008,11.13-1.493,14.974c2.354,5.973,10.831,21.277,12.008,23.632c1.177,2.355,1.177,12.008,5.18,12.008h1.557
			c4.003,0,4.003-9.654,5.18-12.008c1.177-2.354,9.654-17.659,12.008-23.632c1.515-3.844,0.2-9.819-1.493-14.974
			c1.219-0.262,2.7-0.606,3.848-0.95c2.354-0.706,7.534-4.003,7.534-4.003s0,18.13-0.236,21.662
			c-0.235,3.532,2.825,4.238,2.825,4.238l-2.354,15.069c0,0-7.064,26.135-7.064,27.077s0.235,6.828,2.354,6.828
			s2.59-2.59,1.413-4.709c-1.177-2.119-0.235-6.357,0.942-12.479c1.177-6.122,5.415-16.011,5.415-16.011l0.942-16.011
			c0,0,0.706-0.236,2.355-1.177c1.648-0.942,0.235-4.003-1.413-9.183c-1.648-5.18-2.354-19.543-5.415-20.249
			c-2.453-0.566-10.499,2.194-13.598,3.313c-0.1-0.247-0.202-0.497-0.294-0.723c-1.377-3.365-4.337-5.234-6.246-6.134
			c2.35-0.61,5.74-1.45,8.13-1.871c4.003-0.706,4.474-1.648,7.064-3.532c2.59-1.884,6.828-2.355,6.828-2.355
			s6.357,13.656,7.064,15.54c0.706,1.884,4.003,2.59,4.003,2.59s8.712,25.194,10.124,26.371c1.413,1.177,2.59,4.474,4.709,4.003
			c2.119-0.471,0.236-3.532-1.884-4.945c-2.119-1.413-6.828-13.892-8.005-16.246c-1.177-2.355-3.532-10.595-3.532-10.595
			s0,0,0.942-1.177c0.942-1.177-0.706-3.061-2.826-5.18c-2.119-2.119-9.889-12.715-9.889-12.715c0-0.942-1.177-2.59-1.177-2.59
			c-2.913-0.162-9.387,1.901-13.15,3.207c3.496-4.296,6.282-9.146,7.028-12.626c0.241-1.125,0.356-2.576,0.371-4.215
			c16.517,19.716,50.308,59.957,56.137,66.14c7.77,8.241,12.715,11.066,17.895,6.828
			C352.494,241.03,348.256,232.553,338.132,221.016z"/>
	</g>
	<g>
		<path style="fill:#333333;" d="M237.3,409.833c-1.5-0.333-9-3.5-12-5.167c-3-1.667-5.167-5-5.167-5c1-1-1.5-3.833-2.833-4.833
			s-6-7-6.833-8c-0.833-1-2.667-1.833-2.667-1.833s0.333-0.5,0.167-1.333c-0.167-0.833-3.833-6.167-5-7.167
			c-1.167-1-8.667-4.833-12-5.167c-1.762-0.176-3.183,0.16-4.145,0.516c0.047-0.352,0.083-0.715,0.106-1.095
			c1.994-1.211,6.57-4.042,8.372-5.587c2.333-2,9.5-4.667,11.333-5.5c1.833-0.833,1.333-2,1.333-2s2.5-4,3.667-5.833
			c1.167-1.833,8.333-15.5,9-17.5c0.667-2-0.333-3.5-0.333-3.5s0-2.5-0.5-4.333c-0.5-1.833-0.333-6-0.667-8
			c-0.333-2-1.667-5.167-2.833-5.167s0.167,3,0.5,7.333c0.333,4.333,2,9.833,2,9.833s-2.167,2.667-2.5,3.833
			c-0.333,1.167-6.667,15.167-8.167,18.333c-1.5,3.167-1.167,4.5-1.167,4.5s-1.167,0.167-2.167,0.167s-3.667,0-8,2.333
			c-3.4,1.831-8.327,5.397-10.296,6.852c-0.232-0.818-0.535-1.579-0.892-2.277c3.563-3.916,14.313-15.741,15.355-16.991
			c1.25-1.5,0.5-3.5,0.5-3.5c1-0.75,1.5-4,1-6.75s1.25-10,2-12s-0.5-4.25-0.5-4.25c0.75-1.25-0.75-3.5-1.75-4.5s-5.25-8-5.25-8.75
			s-1.5-3-2.25-3.25s-0.25,2.25-0.25,3.5s7.75,13.5,7.75,13.5s-3.75,16.75-2.75,18.5s0.25,3.75,0.25,3.75s0,0-0.75,0
			s-3.25,3.75-5,5.75c-1.514,1.73-7.982,10.505-9.701,12.842c-1.786-2.349-3.799-3.592-3.799-3.592s1.057-1.284,1.218-2.664
			c1.426-0.501,3.449-0.924,3.449-2.336c0-1.833-2.5-5.333-3.167-5.833c-0.667-0.5-1.5-1.143-2-0.905
			c-0.5,0.238,0.667,2.405,1.5,3.071c0.833,0.667,2.917,2.333,2.375,3c-0.314,0.387-1.608,1.221-2.639,1.855
			c-1.177-0.873-3.986-1.188-3.986-1.188h-1.467c0,0-2.809,0.315-3.986,1.188c-1.032-0.633-2.325-1.468-2.639-1.855
			c-0.542-0.667,1.542-2.333,2.375-3c0.833-0.667,2-2.833,1.5-3.071c-0.5-0.238-1.333,0.405-2,0.905s-3.167,4-3.167,5.833
			c0,1.411,2.022,1.836,3.449,2.336c0.161,1.38,1.218,2.664,1.218,2.664s-2.013,1.243-3.799,3.592
			c-1.718-2.337-8.187-11.112-9.701-12.842c-1.75-2-4.25-5.75-5-5.75s-0.75,0-0.75,0s-0.75-2,0.25-3.75s-2.75-18.5-2.75-18.5
			s7.75-12.25,7.75-13.5s0.5-3.75-0.25-3.5s-2.25,2.5-2.25,3.25s-4.25,7.75-5.25,8.75s-2.5,3.25-1.75,4.5c0,0-1.25,2.25-0.5,4.25
			s2.5,9.25,2,12s0,6,1,6.75c0,0-0.75,2,0.5,3.5c1.041,1.25,11.792,13.075,15.354,16.991c-0.356,0.699-0.66,1.459-0.892,2.277
			c-1.969-1.455-6.895-5.021-10.296-6.852c-4.333-2.333-7-2.333-8-2.333S146,357.167,146,357.167s0.333-1.333-1.167-4.5
			c-1.5-3.167-7.833-17.167-8.167-18.333c-0.333-1.167-2.5-3.833-2.5-3.833s1.667-5.5,2-9.833c0.333-4.333,1.667-7.333,0.5-7.333
			c-1.167,0-2.5,3.167-2.833,5.167c-0.333,2-0.167,6.167-0.667,8c-0.5,1.833-0.5,4.333-0.5,4.333s-1,1.5-0.333,3.5
			c0.667,2,7.833,15.667,9,17.5c1.167,1.833,3.667,5.833,3.667,5.833s-0.5,1.167,1.333,2c1.833,0.833,9,3.5,11.333,5.5
			c1.802,1.545,6.378,4.376,8.372,5.587c0.023,0.38,0.06,0.744,0.107,1.095c-0.962-0.356-2.384-0.692-4.145-0.516
			c-3.333,0.333-10.833,4.167-12,5.167s-4.833,6.333-5,7.167c-0.167,0.833,0.167,1.333,0.167,1.333s-1.833,0.833-2.667,1.833
			s-5.5,7-6.833,8c-1.333,1-3.833,3.833-2.833,4.833c0,0-2.167,3.333-5.167,5c-3,1.667-10.5,4.833-12,5.167
			c-1.5,0.333-2.333,1.833,0,2.667c2.333,0.833,8.5-2.333,11.167-4.333c2.667-2,7.667-7.833,7.667-7.833s3-0.5,3.833-2
			c0.833-1.5,1-2.5,1-2.5s5-5.333,7.333-10L146.333,385c0,0,3.667-2.5,5.333-4c1.667-1.5,9.667-6.333,11.5-6.5
			c1.017-0.092,2.443-0.185,3.513-0.249c0.172,0.522,0.37,0.992,0.581,1.427c-0.907,0.244-2.383,0.817-3.927,2.155
			c-2.5,2.167-8.667,10.5-9.5,11.833C153,391,153.333,393.5,154.5,394c0,0,0.167,2.333-1.167,3.833c-1.333,1.5-8.333,15.5-9.5,16.5
			c-1.167,1-3.333,3.167-2.333,4c1,0.833,0.5,0.5,0.5,0.5s-2.833,6.167-4.167,7.667c-1.333,1.5-3.167,6.333-5.667,8.333
			s-3.333,3.5-2.167,4s4.167-2.167,5.333-4.167c1.167-2,8.167-15.333,8.167-15.333s2.167-2.667,3.167-4
			c1-1.333,9.833-15.333,10-17.167c0.167-1.833,0-3.667,0-3.667s1-1.667,1.5-2.667s4.333-10,6.667-11.833
			c1.404-1.103,2.679-2.019,3.478-2.578c1.104,1.471,2.189,2.078,2.189,2.078s-8,9.25-8,19.5s6,17.5,13.25,17.5h1.467
			c7.25,0,13.25-7.25,13.25-17.5s-8-19.5-8-19.5s1.084-0.608,2.188-2.078c0.799,0.559,2.074,1.475,3.478,2.578
			c2.333,1.833,6.167,10.833,6.667,11.833s1.5,2.667,1.5,2.667s-0.167,1.833,0,3.667c0.167,1.833,9,15.833,10,17.167
			c1,1.333,3.167,4,3.167,4s7,13.333,8.167,15.333c1.167,2,4.167,4.667,5.333,4.167c1.167-0.5,0.333-2-2.167-4
			s-4.333-6.833-5.667-8.333c-1.333-1.5-4.167-7.667-4.167-7.667s-0.5,0.333,0.5-0.5c1-0.833-1.167-3-2.333-4
			c-1.167-1-8.167-15-9.5-16.5c-1.333-1.5-1.167-3.833-1.167-3.833c1.167-0.5,1.5-3,0.667-4.333c-0.833-1.333-7-9.667-9.5-11.833
			c-1.544-1.338-3.02-1.911-3.927-2.155c0.211-0.435,0.409-0.905,0.581-1.427c1.07,0.064,2.496,0.156,3.513,0.249
			c1.833,0.167,9.833,5,11.5,6.5s5.333,4,5.333,4l-0.333,0.833c2.333,4.667,7.333,10,7.333,10s0.167,1,1,2.5
			c0.833,1.5,3.833,2,3.833,2s5,5.833,7.667,7.833c2.667,2,8.833,5.167,11.167,4.333C239.633,411.667,238.8,410.167,237.3,409.833z"
			/>
	</g>
	<g>
		<path style="fill:#333333;" d="M180.9,127.105c-1.064-0.851-1.926-1.496-2.975-2.069c0.517-0.815,1.185-1.949,0.948-2.028
			c-0.254-0.085-1.25,0.92-1.863,1.572c-0.334-0.153-0.684-0.305-1.075-0.455c-0.485-0.187-1.15-0.572-1.884-1.048
			c0.472-0.288,1.06-0.641,1.595-0.938c1.117-0.621,1.117-1.986,0.124-1.614c-0.779,0.292-2.007,1.34-2.684,1.901
			c-1.231-0.858-2.527-1.852-3.484-2.605c0.72-0.435,2.034-1.187,3.065-1.531c1.49-0.497,1.365-1.117-0.248-0.993
			c-1.365,0.105-3.247,1.355-3.8,1.741c-0.286-0.231-0.462-0.375-0.462-0.375s0.166-0.496,0.331-0.993
			c0.137-0.412-3.132-2.753-4.255-3.542l1.855-2.292l-2.074,0.933c-0.181-0.493-0.663-0.966-1.153-1.554
			c-0.285-0.341-0.786-1.275-1.36-2.394c0.656,0.095,1.475,0.161,2.105,0.035c1.241-0.248,0.869-1.117,0-0.993
			c-0.581,0.083-1.816,0.055-2.579,0.027c-0.277-0.548-0.561-1.111-0.84-1.655c0.776,0.275,1.78,0.562,1.93,0.262
			c0.178-0.356-1.43-0.839-2.355-1.084c-0.551-1.051-1.047-1.933-1.369-2.309c-0.993-1.159-2.317-5.627-2.317-5.627s0,0,0.827-0.827
			c0.828-0.828-1.821-2.814-1.821-2.814c-4.087-9.706-12.308-17.24-15.852-20.176c0.057-0.061,0.113-0.117,0.17-0.181
			c0.179-0.201,0.279-0.502,0.318-0.869c1.049,0.27,2.589,0.705,3.778,1.2c1.986,0.827,5.296,3.807,6.124,4.303
			c0.827,0.497,2.814-1.159,3.476-1.986c0.451-0.564,3.205-3.276,5.543-5.368c0.683,0.064,1.734,0.106,2.732-0.094
			c1.655-0.331,0.745-0.993-0.331-0.828c-0.48,0.074-1.054,0.13-1.547,0.171c0.75-0.648,1.415-1.187,1.878-1.495
			c0.41-0.273,0.804-0.75,1.174-1.325c0.291,0.042,0.645,0.084,0.895,0.084c0.497,0,1.572-0.331,2.069-0.745
			c0.497-0.414-0.165-0.579-1.158-0.331c-0.501,0.125-1.001,0.208-1.374,0.26c1.198-2.217,2.036-5.225,2.036-5.225
			s1.324-0.331,2.317-0.497c0.993-0.165,7.282-2.979,8.441-3.641c1.159-0.662,1.49-0.993,3.476-1.324
			c1.986-0.331,0.331-0.993-0.993-1.49c-1.324-0.497-0.662,0-2.152,0.497c-1.49,0.497-3.31,0-5.131,0.662
			c-1.821,0.662-6.62,5.131-6.62,5.131s-0.094,0.027-0.25,0.073c0.263-1.108,0.72-3.196,0.415-3.135
			c-0.276,0.055-0.773,2.027-1.073,3.332c-0.023,0.007-0.04,0.012-0.064,0.019c-1.424,0.437-3.999,1.274-4.821,1.862
			c-1.158,0.828-5.131,9.434-5.627,10.427c-0.497,0.993-2.317,2.152-2.814,1.986c-0.497-0.166-4.965-3.641-7.117-4.634
			c-1.423-0.657-2.905-0.876-3.754-0.952c-0.236-0.774-0.54-1.571-0.871-2.317c0.91-1.319,2.535-3.664,3.937-5.64
			c0.907,0.188,2.964,0.585,3.109,0.343c0.172-0.286-1.973-0.834-2.699-0.919c0.608-0.851,1.145-1.591,1.529-2.093
			c0.917,0.214,2.528,0.547,2.661,0.281c0.142-0.284-1.299-0.783-2.104-1.032c0.987-1.473,0.676-3.437,0.676-3.437
			c0.977,0,2.363-2.275,3.47-4.292c0.743,0.072,2.096,0.17,2.364-0.053c0.312-0.26-1.329-0.432-2.092-0.445
			c0.208-0.386,0.402-0.749,0.579-1.079c1.057-0.064,3.158-0.215,3.251-0.401c0.099-0.198-1.851-0.396-2.772-0.468
			c0.113-0.196,0.214-0.362,0.29-0.463c0.209-0.279,0.479-0.649,0.767-1.046c0.726-0.102,2.242-0.335,2.709-0.568
			c0.507-0.253-1.218-0.506-1.87-0.591c0.47-0.649,0.9-1.239,1.125-1.519c0.497-0.621-0.496-1.986-0.496-1.986
			s3.6-1.738,4.965-2.607c1.365-0.869,3.6-3.352,3.6-3.352s0.993,0,1.986-0.248c0.993-0.248,0.621-0.869,0-1.241
			c-0.621-0.373-1.738-0.621-2.855,0c-1.117,0.621-3.352,2.234-4.469,2.731c-1.117,0.497-3.6,2.855-4.593,4.096
			c-0.993,1.241-2.234,4.469-2.731,5.214c-0.496,0.745-3.724,4.841-4.593,5.958c-0.869,1.117-0.124,1.614-0.124,1.614
			s-2.607,2.358-3.6,3.972c-0.765,1.243-2.849,4.538-3.77,5.991c-1.115-1.914-2.189-3.633-2.189-3.633
			c2.11-0.372,4.676-3.641,2.938-6.869c-1.738-3.227-6.041-3.807-6.041-3.807s-0.372-2.11-1.614-3.352
			c-0.399-0.399-0.953-0.643-1.52-0.792c0.346-0.586,0.859-1.362,1.334-1.691c0.807-0.559,0.31-1.49,0-1.862
			c-0.31-0.372-0.186-1.117-0.993-0.372c-0.807,0.745-1.241,2.234-1.055,2.607c0.117,0.233,0.014,0.757-0.109,1.163
			c-0.886-0.111-1.629-0.045-1.629-0.045h-0.966c0,0-0.743-0.066-1.629,0.045c-0.123-0.406-0.225-0.93-0.109-1.163
			c0.186-0.372-0.248-1.862-1.055-2.607c-0.807-0.745-0.683,0-0.993,0.372c-0.31,0.372-0.807,1.303,0,1.862
			c0.475,0.329,0.988,1.104,1.334,1.691c-0.567,0.149-1.121,0.393-1.52,0.792c-1.241,1.241-1.614,3.352-1.614,3.352
			s-4.303,0.579-6.041,3.807c-1.738,3.227,0.828,6.496,2.938,6.869c0,0-1.074,1.719-2.189,3.633
			c-0.921-1.454-3.005-4.749-3.77-5.991c-0.993-1.614-3.6-3.972-3.6-3.972s0.745-0.497-0.124-1.614
			c-0.869-1.117-4.096-5.214-4.593-5.958c-0.497-0.745-1.738-3.972-2.731-5.214c-0.993-1.241-3.476-3.6-4.593-4.096
			c-1.117-0.496-3.352-2.11-4.469-2.731c-1.117-0.621-2.234-0.373-2.855,0c-0.621,0.372-0.993,0.993,0,1.241
			c0.993,0.248,1.986,0.248,1.986,0.248s2.234,2.483,3.6,3.352c1.365,0.869,4.965,2.607,4.965,2.607s-0.993,1.366-0.496,1.986
			c0.225,0.281,0.655,0.87,1.125,1.519c-0.652,0.085-2.377,0.338-1.87,0.591c0.466,0.233,1.983,0.466,2.709,0.568
			c0.288,0.397,0.558,0.767,0.767,1.046c0.076,0.101,0.176,0.267,0.29,0.463c-0.921,0.072-2.871,0.27-2.772,0.468
			c0.093,0.186,2.194,0.336,3.251,0.401c0.177,0.329,0.371,0.693,0.579,1.079c-0.763,0.013-2.404,0.185-2.092,0.445
			c0.268,0.223,1.621,0.126,2.364,0.053c1.107,2.016,2.493,4.292,3.47,4.292c0,0-0.311,1.963,0.676,3.437
			c-0.805,0.25-2.246,0.748-2.104,1.032c0.133,0.265,1.744-0.068,2.661-0.281c0.383,0.503,0.921,1.242,1.528,2.093
			c-0.726,0.084-2.871,0.633-2.7,0.919c0.145,0.242,2.202-0.155,3.109-0.343c1.401,1.976,3.026,4.321,3.936,5.64
			c-0.331,0.746-0.635,1.543-0.871,2.317c-0.849,0.075-2.331,0.294-3.754,0.952c-2.152,0.993-6.62,4.469-7.117,4.634
			c-0.496,0.166-2.317-0.993-2.814-1.986c-0.496-0.993-4.469-9.6-5.627-10.427c-0.822-0.587-3.397-1.425-4.821-1.862
			c-0.023-0.007-0.041-0.012-0.064-0.019c-0.3-1.306-0.797-3.277-1.073-3.332c-0.305-0.061,0.152,2.026,0.415,3.135
			c-0.156-0.046-0.25-0.073-0.25-0.073s-4.8-4.469-6.62-5.131c-1.821-0.662-3.641-0.166-5.131-0.662
			c-1.49-0.497-0.827-0.993-2.152-0.497c-1.324,0.497-2.979,1.159-0.993,1.49c1.986,0.331,2.317,0.662,3.476,1.324
			c1.159,0.662,7.448,3.476,8.441,3.641c0.993,0.166,2.317,0.497,2.317,0.497s0.839,3.008,2.036,5.225
			c-0.373-0.052-0.874-0.135-1.375-0.26c-0.993-0.248-1.655-0.083-1.159,0.331c0.497,0.414,1.572,0.745,2.069,0.745
			c0.25,0,0.604-0.042,0.895-0.084c0.37,0.575,0.764,1.052,1.174,1.325c0.463,0.309,1.128,0.848,1.878,1.495
			c-0.494-0.041-1.068-0.097-1.547-0.171c-1.076-0.165-1.986,0.496-0.331,0.828c0.998,0.2,2.049,0.158,2.732,0.094
			c2.339,2.092,5.092,4.804,5.543,5.368c0.662,0.828,2.648,2.483,3.476,1.986c0.827-0.496,4.138-3.476,6.124-4.303
			c1.189-0.495,2.729-0.93,3.778-1.2c0.04,0.368,0.14,0.668,0.318,0.869c0.057,0.064,0.113,0.121,0.17,0.181
			c-3.544,2.937-11.765,10.47-15.852,20.176c0,0-2.648,1.986-1.821,2.814c0.828,0.827,0.828,0.827,0.828,0.827
			s-1.324,4.469-2.317,5.627c-0.322,0.375-0.818,1.257-1.369,2.309c-0.924,0.245-2.533,0.728-2.354,1.084
			c0.149,0.299,1.153,0.013,1.929-0.262c-0.279,0.545-0.563,1.107-0.84,1.655c-0.762,0.028-1.998,0.056-2.579-0.027
			c-0.869-0.124-1.241,0.745,0,0.993c0.63,0.126,1.449,0.06,2.105-0.035c-0.574,1.119-1.075,2.052-1.36,2.394
			c-0.49,0.588-0.972,1.061-1.153,1.554l-2.074-0.933l1.855,2.292c-1.124,0.79-4.393,3.13-4.255,3.542
			c0.165,0.497,0.331,0.993,0.331,0.993s-0.175,0.144-0.462,0.375c-0.553-0.386-2.435-1.636-3.8-1.741
			c-1.614-0.124-1.738,0.496-0.248,0.993c1.031,0.344,2.344,1.096,3.065,1.531c-0.956,0.753-2.253,1.747-3.484,2.605
			c-0.677-0.562-1.905-1.609-2.684-1.901c-0.993-0.372-0.993,0.993,0.124,1.614c0.535,0.297,1.123,0.649,1.595,0.938
			c-0.734,0.477-1.399,0.862-1.884,1.048c-0.391,0.15-0.741,0.302-1.075,0.455c-0.613-0.652-1.609-1.657-1.863-1.572
			c-0.237,0.079,0.43,1.213,0.948,2.028c-1.049,0.573-1.911,1.218-2.975,2.069c-1.655,1.324-1.986,1.986-0.662,1.986
			c1.324,0,4.469-0.331,5.958-1.159c1.49-0.827,8.441-8.606,8.441-8.606s0.827,0.331,1.49-0.166c0.662-0.496,3.31-3.641,3.31-3.641
			s1.324,0.331,1.821-0.166c0.497-0.496,1.324-1.159,1.324-1.159s-3.807,16.882,2.483,18.703
			c5.311,1.537,19.592-14.747,23.906-19.85c1.833,1.837,3.043,3.097,3.114,3.381c0,0,1.366,2.855,3.972,2.855h0.966
			c2.607,0,3.972-2.855,3.972-2.855c0.071-0.284,1.281-1.544,3.114-3.381c4.314,5.103,18.595,21.387,23.906,19.85
			c6.289-1.821,2.483-18.703,2.483-18.703s0.828,0.662,1.324,1.159c0.497,0.497,1.821,0.166,1.821,0.166s2.648,3.145,3.31,3.641
			c0.662,0.497,1.49,0.166,1.49,0.166s6.951,7.779,8.441,8.606c1.489,0.828,4.634,1.159,5.958,1.159S182.555,128.429,180.9,127.105z
			"/>
	</g>
</g>
<g id="DESIGNED_BY_FREEPIK">
	<g>
		<g id="XMLID_319_">
			<g id="XMLID_338_">
				<path id="XMLID_346_" style="fill:#222221;" d="M260.104,465.465c-0.433,0.443-0.804,0.932-1.108,1.453l-0.465-0.241
					c-0.067-0.297-0.35-0.502-0.659-0.466c-0.331,0.039-0.567,0.339-0.529,0.67c0.039,0.331,0.339,0.567,0.67,0.528
					c0.065-0.007,0.127-0.025,0.184-0.052l0.451,0.234c-0.251,0.554-0.433,1.139-0.539,1.743l0.747,0.132
					c0.229-1.306,0.85-2.507,1.792-3.473L260.104,465.465z"/>
				<path id="XMLID_345_" style="fill:#222221;" d="M265.592,463.163c-0.171,0-0.341,0.006-0.509,0.017l-0.074-0.626
					c0.188-0.149,0.296-0.389,0.266-0.645c-0.046-0.393-0.402-0.674-0.795-0.628c-0.393,0.046-0.675,0.402-0.628,0.796
					c0.03,0.254,0.19,0.461,0.404,0.563l0.073,0.624c-0.714,0.116-1.402,0.332-2.06,0.645l0.327,0.685
					c0.935-0.447,1.941-0.674,2.995-0.674c0.497,0,0.993,0.053,1.476,0.158l0.16-0.741
					C266.692,463.222,266.143,463.163,265.592,463.163z"/>
				<path id="XMLID_344_" style="fill:#222221;" d="M272.194,465.71c0.331-0.04,0.566-0.341,0.525-0.672
					c-0.04-0.331-0.341-0.566-0.672-0.525c-0.31,0.038-0.535,0.304-0.53,0.608l-0.416,0.363c-0.418-0.43-0.89-0.813-1.407-1.14
					l-0.404,0.642c1.135,0.715,2.021,1.727,2.564,2.925l0.69-0.313c-0.251-0.554-0.567-1.071-0.942-1.545l0.402-0.351
					C272.065,465.715,272.129,465.719,272.194,465.71z"/>
				<path id="XMLID_343_" style="fill:#222221;" d="M265.045,473.371c-0.386,0.023-0.775,0.035-1.157,0.035
					c-0.88,0-1.733-0.061-2.479-0.18c-0.391-0.061-0.846-0.154-1.27-0.292c1.047,1.861,3.069,3.125,5.389,3.125
					c2.855,0,5.263-1.916,5.949-4.503c-0.682,0.449-1.505,0.825-2.458,1.122C267.839,473.047,266.464,473.286,265.045,473.371z"/>
				<path id="XMLID_339_" style="fill:#222221;" d="M265.592,464.68c-3.352,0-6.079,2.666-6.079,5.943
					c0,0.425,0.046,0.849,0.137,1.261c0.674,0.483,2.706,0.891,5.348,0.731c2.88-0.174,5.297-0.958,6.672-2.159
					c-0.005-0.194-0.021-0.39-0.045-0.581C271.244,466.913,268.65,464.68,265.592,464.68z M263.433,471.194
					c-1.02,0-1.85-0.83-1.85-1.85c0-1.021,0.83-1.85,1.85-1.85c1.02,0,1.85,0.83,1.85,1.85
					C265.282,470.364,264.452,471.194,263.433,471.194z M268.17,470.286c-0.75,0-1.36-0.61-1.36-1.36s0.61-1.36,1.36-1.36
					s1.36,0.61,1.36,1.36S268.92,470.286,268.17,470.286z"/>
			</g>
			<path id="XMLID_336_" style="fill:#222221;" d="M281.596,466.547c-0.295-0.116-0.806-0.31-1.383-0.238
				c-0.551,0.069-0.844,0.341-0.844,1.007v0.866h2.228v1.717h-2.228v5.455h-1.932v-5.455h-1.339v-1.717h1.339v-0.889
				c0-1.68,0.896-2.782,2.568-2.782c0.643,0,1.157,0.121,1.59,0.308V466.547z"/>
			<path id="XMLID_334_" style="fill:#222221;" d="M286.298,469.878c-0.177-0.029-0.357-0.046-0.525-0.046
				c-0.895,0-1.51,0.548-1.51,1.613v3.908h-1.933v-7.172h1.873v0.784c0.451-0.673,1.14-0.977,2.021-0.977
				c0.414,0,0.848,0.128,1.095,0.337L286.298,469.878z"/>
			<path id="XMLID_331_" style="fill:#222221;" d="M293.966,471.757c0,0.222-0.016,0.488-0.037,0.651h-5.085
				c0.207,1.036,0.933,1.487,1.843,1.487c0.622,0,1.295-0.252,1.813-0.689l1.133,1.243c-0.815,0.748-1.851,1.089-3.057,1.089
				c-2.198,0-3.724-1.496-3.724-3.753c0-2.258,1.48-3.797,3.627-3.797C292.544,467.989,293.958,469.522,293.966,471.757z
				 M288.852,471.091h3.175c-0.178-0.918-0.732-1.436-1.561-1.436C289.555,469.654,289.021,470.202,288.852,471.091z"/>
			<path id="XMLID_328_" style="fill:#222221;" d="M301.619,471.757c0,0.222-0.016,0.488-0.037,0.651h-5.085
				c0.207,1.036,0.933,1.487,1.843,1.487c0.622,0,1.296-0.252,1.813-0.689l1.133,1.243c-0.815,0.748-1.851,1.089-3.058,1.089
				c-2.198,0-3.723-1.496-3.723-3.753c0-2.258,1.48-3.797,3.627-3.797C300.197,467.989,301.611,469.522,301.619,471.757z
				 M296.505,471.091h3.175c-0.178-0.918-0.733-1.436-1.561-1.436C297.208,469.654,296.675,470.202,296.505,471.091z"/>
			<path id="XMLID_325_" style="fill:#222221;" d="M309.965,471.764c0,2.154-1.495,3.775-3.472,3.775
				c-0.962,0-1.643-0.378-2.109-0.933v3.708h-1.925v-10.133h1.888v0.792c0.467-0.585,1.154-0.984,2.139-0.984
				C308.47,467.989,309.965,469.61,309.965,471.764z M304.287,471.764c0,1.133,0.748,1.977,1.844,1.977
				c1.14,0,1.85-0.881,1.85-1.977c0-1.095-0.71-1.976-1.85-1.976C305.035,469.788,304.287,470.632,304.287,471.764z"/>
			<path id="XMLID_322_" style="fill:#222221;" d="M313.068,465.835c0,0.696-0.541,1.23-1.236,1.23c-0.696,0-1.228-0.533-1.228-1.23
				c0-0.695,0.532-1.243,1.228-1.243C312.527,464.592,313.068,465.14,313.068,465.835z M312.809,475.353h-1.932v-7.172h1.932
				V475.353z"/>
			<path id="XMLID_320_" style="fill:#222221;" d="M316.032,470.735l2.702-2.554h2.368l-3.479,3.375l3.501,3.797h-2.376
				l-2.717-2.901v2.901h-1.932v-10.658h1.932V470.735z"/>
		</g>
		<g>
			<path style="fill:#222221;" d="M184.413,475.289v-1.055c-0.527,0.718-1.391,1.23-2.387,1.23c-1.846,0-3.149-1.406-3.149-3.706
				c0-2.256,1.289-3.721,3.149-3.721c0.952,0,1.816,0.469,2.387,1.245v-3.765h1.099v9.771H184.413z M184.413,473.37v-3.208
				c-0.395-0.615-1.245-1.143-2.124-1.143c-1.42,0-2.27,1.172-2.27,2.739c0,1.567,0.85,2.725,2.27,2.725
				C183.168,474.483,184.018,473.985,184.413,473.37z"/>
			<path style="fill:#222221;" d="M186.932,471.744c0-2.051,1.465-3.706,3.486-3.706c2.139,0,3.398,1.67,3.398,3.794v0.278h-5.727
				c0.088,1.333,1.025,2.446,2.549,2.446c0.806,0,1.626-0.322,2.182-0.894l0.527,0.718c-0.703,0.703-1.655,1.084-2.812,1.084
				C188.441,475.465,186.932,473.956,186.932,471.744z M190.404,468.946c-1.509,0-2.256,1.274-2.314,2.358h4.644
				C192.718,470.25,192.015,468.946,190.404,468.946z"/>
			<path style="fill:#222221;" d="M194.607,474.352l0.571-0.791c0.469,0.542,1.362,1.011,2.329,1.011c1.084,0,1.67-0.513,1.67-1.216
				c0-1.714-4.38-0.659-4.38-3.281c0-1.099,0.952-2.036,2.636-2.036c1.202,0,2.051,0.454,2.623,1.025l-0.513,0.762
				c-0.424-0.513-1.201-0.893-2.109-0.893c-0.966,0-1.567,0.483-1.567,1.113c0,1.553,4.379,0.527,4.379,3.281
				c0,1.186-0.952,2.139-2.783,2.139C196.307,475.465,195.325,475.113,194.607,474.352z"/>
			<path style="fill:#222221;" d="M201.478,466.471c0-0.41,0.337-0.747,0.732-0.747c0.41,0,0.747,0.337,0.747,0.747
				c0,0.41-0.337,0.732-0.747,0.732C201.814,467.203,201.478,466.881,201.478,466.471z M201.667,475.289v-7.075h1.099v7.075H201.667
				z"/>
			<path style="fill:#222221;" d="M204.583,477.105l0.556-0.82c0.586,0.703,1.289,0.967,2.3,0.967c1.172,0,2.271-0.571,2.271-2.124
				v-1.011c-0.513,0.718-1.377,1.26-2.373,1.26c-1.846,0-3.149-1.377-3.149-3.662c0-2.271,1.289-3.677,3.149-3.677
				c0.952,0,1.802,0.469,2.373,1.245v-1.069h1.099v6.87c0,2.344-1.641,3.076-3.369,3.076
				C206.237,478.16,205.417,477.925,204.583,477.105z M209.709,473.253v-3.091c-0.381-0.615-1.23-1.143-2.109-1.143
				c-1.421,0-2.27,1.128-2.27,2.695c0,1.553,0.849,2.695,2.27,2.695C208.479,474.41,209.328,473.868,209.709,473.253z"/>
			<path style="fill:#222221;" d="M217.414,475.289v-4.629c0-1.245-0.63-1.641-1.582-1.641c-0.864,0-1.685,0.527-2.094,1.099v5.171
				h-1.099v-7.075h1.099v1.025c0.497-0.586,1.464-1.201,2.519-1.201c1.48,0,2.256,0.747,2.256,2.285v4.966H217.414z"/>
			<path style="fill:#222221;" d="M219.933,471.744c0-2.051,1.465-3.706,3.486-3.706c2.139,0,3.398,1.67,3.398,3.794v0.278h-5.727
				c0.088,1.333,1.025,2.446,2.548,2.446c0.806,0,1.626-0.322,2.183-0.894l0.527,0.718c-0.703,0.703-1.655,1.084-2.813,1.084
				C221.442,475.465,219.933,473.956,219.933,471.744z M223.404,468.946c-1.509,0-2.256,1.274-2.314,2.358h4.643
				C225.719,470.25,225.016,468.946,223.404,468.946z"/>
			<path style="fill:#222221;" d="M233.351,475.289v-1.055c-0.527,0.718-1.392,1.23-2.388,1.23c-1.845,0-3.149-1.406-3.149-3.706
				c0-2.256,1.289-3.721,3.149-3.721c0.952,0,1.817,0.469,2.388,1.245v-3.765h1.098v9.771H233.351z M233.351,473.37v-3.208
				c-0.396-0.615-1.245-1.143-2.124-1.143c-1.421,0-2.27,1.172-2.27,2.739c0,1.567,0.85,2.725,2.27,2.725
				C232.105,474.483,232.955,473.985,233.351,473.37z"/>
			<path style="fill:#222221;" d="M239.692,475.289v-9.771h1.099v3.765c0.571-0.776,1.421-1.245,2.388-1.245
				c1.845,0,3.149,1.465,3.149,3.721c0,2.3-1.304,3.706-3.149,3.706c-0.996,0-1.86-0.513-2.388-1.23v1.055H239.692z M242.9,474.483
				c1.436,0,2.285-1.157,2.285-2.725c0-1.567-0.85-2.739-2.285-2.739c-0.864,0-1.729,0.527-2.109,1.143v3.208
				C241.172,473.985,242.036,474.483,242.9,474.483z"/>
			<path style="fill:#222221;" d="M247.529,477.061c0.161,0.073,0.425,0.117,0.6,0.117c0.483,0,0.806-0.161,1.055-0.747l0.469-1.069
				l-2.959-7.148h1.186l2.358,5.801l2.344-5.801h1.2l-3.544,8.511c-0.425,1.024-1.143,1.421-2.08,1.436
				c-0.234,0-0.6-0.044-0.806-0.103L247.529,477.061z"/>
		</g>
	</g>
</g>
</svg>
