<?xml version="1.0" encoding="utf-8"?>
<!-- Generator: Adobe Illustrator 27.5.0, SVG Export Plug-In . SVG Version: 6.00 Build 0)  -->
<svg version="1.1" xmlns="http://www.w3.org/2000/svg" xmlns:xlink="http://www.w3.org/1999/xlink" x="0px" y="0px"
	 viewBox="0 0 500 500" style="enable-background:new 0 0 500 500;" xml:space="preserve">
<g id="BACKGROUND">
</g>
<g id="OBJETCS">
	<text transform="matrix(1 0 0 1 62.6064 54.9872)"><tspan x="0" y="0" style="fill:#606060; font-family:'Montserrat-ExtraLight'; font-size:26px; letter-spacing:5;">Insect silhouettes</tspan><tspan x="110.574" y="30" style="fill:#606060; font-family:'Montserrat-ExtraLight'; font-size:17.8554px; letter-spacing:3;">COLLECTION</tspan></text>
	<path style="fill:#1D262D;" d="M478.132,238.349c-1.115-12.256-9.195-22.636-15.082-32.982
		c-5.803-10.198-10.391-21.589-19.427-29.074c-4.351-3.604-9.45-6.044-14.806-7.919c0.006-0.031,0.012-0.062,0.018-0.093
		c0.083-0.463-0.013-0.886-0.198-1.293c-0.174-0.384-0.533-0.656-0.939-0.77c-5.291-1.486-10.389-3.078-15.663-4.575
		c-0.829-0.235-1.695,0.326-1.789,1.226c-0.023,0.222-0.211,0.361-0.427,0.304c-6.771-1.773-13.439-3.89-19.337-7.59
		c-8.11-5.089-14.614-13.952-13.966-23.504c0.129-1.907,0.527-3.888-0.205-5.671c-0.867-2.112-3.678-2.387-5.053-0.565
		c-4.508,5.975-4.942,14.553-2.043,21.515c3.07,7.374,9.359,13.047,16.386,16.846c6.59,3.563,13.853,5.648,21.111,7.539
		c0.148,0.039,0.205,0.179,0.157,0.324c-0.255,0.772,0.198,1.6,1.004,1.814c0.103,0.027,0.207,0.057,0.31,0.087
		c5.003,1.45,11.1,3.57,16.309,5.145c0.89,0.269,1.828-0.252,2.079-1.168c0.043-0.156,0.213-0.24,0.363-0.18
		c1.343,0.533,2.675,1.096,3.981,1.721c10.74,5.143,17.7,15.403,23.5,25.803c5.259,9.43,11.963,17.725,16.674,27.451
		c0.612,1.264,1.178,2.574,1.377,3.965c0.65,4.55-2.637,6.957-6.56,4.776c-10.18-5.659-17.587-20.036-19.38-31.545
		c-0.379-2.432-0.786-5.315-3.202-6.249c-1.833-0.709-3.905,0.143-4.953,1.805c-1.932,3.064-0.86,6.521,0.389,9.588
		c4.51,11.075,11.56,21.107,20.45,29.104c4.288,3.857,12.387,8.816,17.14,2.716c1.763-2.263,2.04-5.348,1.811-8.207
		C478.152,238.576,478.142,238.462,478.132,238.349z"/>
	<path style="fill:#1D262D;" d="M199.094,216.435c-2.282-5.137-6.185-9.982-11.133-12.682c0.033-0.231,0.04-0.464-0.012-0.692
		c-0.189-0.833-1.306-1.278-1.954-1.706c-0.668-0.44-1.418-0.906-2.229-1.388c-1.537-5.524-4.751-10.945-9.391-14.26
		c0.01-0.098,0.017-0.196,0.006-0.295c-0.074-0.721-0.968-1.212-1.47-1.639c-3.883-3.305-11.506-8.259-15.978-11.419
		c-0.027-0.069-0.046-0.141-0.082-0.206c-0.399-0.729-1.561-0.849-2.282-1.077c-5.402-1.708-6.791-1.464-11.641-2.479
		c-0.301-0.063-0.602-0.073-0.899-0.06c-0.674-0.073-1.473,0.314-2.066,0.486c-3.152,0.909-4.822,1.619-6.561,2.412
		c0.046-0.6,0.076-1.204,0.076-1.816c0-0.145-0.008-0.287-0.011-0.431c0.224,0.021,0.449,0.011,0.659-0.08
		c0.666-0.287,0.905-1,1.319-1.53c0.531-0.68,3.559-3.506,4.174-4.11c1.503-1.474,3.296-2.65,4.643-4.262
		c2.23,2.326,4.696,4.74,5.761,7.445c0.159,0.404,0.824,0.325,1.049-0.046c0.226-0.371,0.144-0.846,0.039-1.267
		c-1.02-4.081-3.417-8.141-6.944-10.431c-0.029-0.022-0.059-0.042-0.089-0.062c-0.064-0.041-0.122-0.092-0.187-0.131l-0.013,0.012
		c-0.156-0.079-0.322-0.132-0.496-0.14c-0.526-0.025-0.975,0.566-1.337,0.881c-2.371,2.068-5.886,5.946-8.579,8.831
		c-0.228-12.802-10.67-23.111-23.526-23.111c-12.925,0-23.412,10.419-23.532,23.316c-2.715-2.903-6.342-6.918-8.771-9.036
		c-0.361-0.315-0.81-0.905-1.337-0.881c-0.174,0.008-0.34,0.062-0.496,0.14l-0.013-0.012c-0.065,0.04-0.123,0.09-0.187,0.132
		c-0.03,0.02-0.059,0.04-0.088,0.062c-3.528,2.29-5.925,6.351-6.945,10.432c-0.105,0.421-0.187,0.896,0.039,1.267
		c0.226,0.371,0.89,0.451,1.049,0.046c1.066-2.706,3.531-5.119,5.761-7.445c1.347,1.612,3.14,2.788,4.643,4.262
		c0.616,0.604,3.643,3.43,4.174,4.11c0.413,0.529,0.653,1.243,1.319,1.53c0.272,0.117,0.569,0.118,0.857,0.055
		c-0.003,0.152-0.011,0.303-0.011,0.456c0,0.643,0.033,1.279,0.084,1.909c-1.816-0.832-3.491-1.561-6.766-2.506
		c-0.594-0.171-1.392-0.559-2.066-0.486c-0.298-0.013-0.598-0.003-0.899,0.06c-4.85,1.014-6.239,0.77-11.641,2.479
		c-0.72,0.228-1.883,0.348-2.282,1.077c-0.036,0.066-0.055,0.137-0.082,0.206c-4.472,3.159-12.094,8.113-15.978,11.419
		c-0.502,0.427-1.397,0.918-1.47,1.639c-0.01,0.099-0.003,0.197,0.007,0.295c-4.64,3.316-7.854,8.736-9.392,14.26
		c-0.811,0.482-1.561,0.948-2.229,1.388c-0.648,0.428-1.765,0.873-1.954,1.706c-0.052,0.229-0.044,0.461-0.012,0.692
		c-4.948,2.699-8.851,7.544-11.133,12.682c-0.262,0.589-0.502,1.262-0.267,1.862c0.235,0.6,1.186,0.886,1.522,0.336
		c2.779-4.549,8.565-7.9,12.953-11.407c0.084,0.019,0.166,0.045,0.252,0.058c0.806,0.114,1.622-0.101,2.387-0.378
		c3.617-1.309,6.493-3.962,9.798-5.875c1.209-0.7,6.933-4.203,8.225-4.738c0.796-0.33,1.723-0.446,2.441-0.932
		c0.22,0.072,0.447,0.127,0.68,0.159c0.866,0.122,1.741-0.042,2.581-0.304c0.384-0.12,0.734-0.331,1.006-0.627
		c0.143-0.156,0.301-0.341,0.44-0.532c0.756-1.045,4.912-3.334,7.945-4.868c-0.567,0.699-1.123,1.408-1.657,2.138
		c-0.236,0.322-0.568,0.688-0.856,1.078c-4.471,4.931-9.436,9.378-13.389,14.785c-0.532,0.728-1.566,1.664-1.435,2.647
		c0.043,0.321,0.168,0.619,0.337,0.895c-4.898,5.222-7.26,12.885-7.371,20.043c-0.012,0.748,0.037,1.577,0.562,2.111
		c0.524,0.534,1.67,0.407,1.779-0.333c0.969-6.592,6.292-13.288,9.329-19.388c0.228-0.005,0.456-0.025,0.682-0.075
		c0.923-0.202,1.723-0.766,2.444-1.377c3.404-2.89,5.459-6.942,8.28-10.362c1.032-1.251,2.124-2.468,3.313-3.573
		c0.346-0.321,0.744-0.602,1.129-0.894c0.548-0.271,1.054-0.637,1.522-1.034c2.79-2.368,4.678-5.514,6.82-8.456
		c2.995-0.023,6.293,0.134,7.325,0.248c1.433,0.159,2.889,0.861,4.327,0.269c0.308-0.127,0.578-0.31,0.817-0.53
		c2.116,1.84,4.561,3.31,7.24,4.304c-0.344,2.827,0.524,5.852,1.998,8.281c0.166,0.274,0.373,0.564,0.685,0.638
		c0.312,0.074,0.699-0.233,0.57-0.527c-0.961-2.181-0.841-5.076-0.941-7.666c0.341,0.088,0.687,0.166,1.034,0.238
		c-0.04,0.161-0.067,0.327-0.067,0.501c0,1.155,0.936,2.091,2.091,2.091c1.155,0,2.091-0.936,2.091-2.091
		c0-0.006-0.002-0.012-0.002-0.018c0.243,0.007,0.486,0.018,0.731,0.018c0.179,0,0.355-0.009,0.533-0.013
		c0,0.005-0.001,0.009-0.001,0.013c0,1.155,0.936,2.091,2.091,2.091s2.091-0.936,2.091-2.091c0-0.16-0.021-0.314-0.055-0.463
		c0.643-0.129,1.274-0.289,1.897-0.469c-0.115,2.638,0.036,5.622-0.949,7.858c-0.129,0.294,0.258,0.601,0.57,0.527
		c0.312-0.074,0.519-0.364,0.685-0.638c1.517-2.501,2.385-5.632,1.956-8.528c2.394-0.968,4.59-2.318,6.517-3.975
		c0.215,0.18,0.449,0.338,0.715,0.448c1.438,0.592,2.894-0.11,4.327-0.269c1.032-0.115,4.33-0.271,7.325-0.248
		c2.142,2.942,4.03,6.087,6.82,8.456c0.468,0.397,0.975,0.763,1.522,1.034c0.385,0.292,0.783,0.572,1.129,0.894
		c1.189,1.105,2.281,2.321,3.313,3.573c2.821,3.421,4.876,7.473,8.281,10.362c0.72,0.611,1.521,1.175,2.444,1.377
		c0.227,0.05,0.455,0.07,0.682,0.075c3.037,6.1,8.36,12.796,9.329,19.388c0.109,0.74,1.255,0.867,1.779,0.333
		c0.525-0.534,0.573-1.362,0.562-2.111c-0.111-7.158-2.473-14.821-7.371-20.043c0.169-0.276,0.294-0.574,0.337-0.895
		c0.131-0.983-0.903-1.919-1.435-2.647c-3.953-5.407-8.918-9.854-13.389-14.785c-0.288-0.391-0.62-0.756-0.856-1.078
		c-0.534-0.73-1.09-1.439-1.657-2.138c3.033,1.534,7.189,3.823,7.945,4.868c0.139,0.191,0.297,0.376,0.44,0.532
		c0.272,0.296,0.623,0.507,1.006,0.627c0.841,0.262,1.715,0.426,2.581,0.304c0.233-0.033,0.46-0.088,0.68-0.159
		c0.718,0.486,1.644,0.602,2.441,0.932c1.292,0.535,7.015,4.038,8.225,4.738c3.305,1.913,6.182,4.566,9.798,5.875
		c0.765,0.277,1.581,0.491,2.387,0.378c0.086-0.012,0.168-0.038,0.252-0.058c4.388,3.507,10.175,6.858,12.953,11.407
		c0.336,0.55,1.287,0.264,1.522-0.336C199.596,217.697,199.356,217.024,199.094,216.435z M56.777,187.666
		c-0.859,0.566-2.338,1.156-2.589,2.259c-0.022,0.096-0.02,0.193-0.029,0.289c-3.596,1.938-8.834,4.56-13.485,7.075
		c2.47-3.03,5.572-5.865,7.959-8.67c0.654-0.014,1.286-0.26,1.872-0.557c2.912-1.477,5.062-4.011,7.65-5.964
		c0.947-0.715,5.407-4.259,6.441-4.843c0.133-0.075,0.272-0.141,0.413-0.206c0.534,0.194,1.111,0.248,1.687,0.234
		c0.295-0.007,0.585-0.086,0.836-0.241c0.132-0.081,0.281-0.18,0.418-0.288c1.055-0.832,7.448-2.06,8.899-2.24
		c0.231,0.203,0.484,0.386,0.747,0.551c0.25,0.157,0.535,0.252,0.83,0.263c0.155,0.006,0.334,0.006,0.507-0.008
		c1.355-0.109,7.488,2.472,8.7,3.09c0.212,0.108,0.417,0.236,0.622,0.368c0.127,0.3,0.263,0.596,0.402,0.89
		c-4.963-0.226-7.158-0.731-13.889-0.191c-0.464,0.037-1.042,0.021-1.605,0.066c-0.701,0.034-1.404,0.199-2.057,0.542
		C65.129,183.22,63.219,183.416,56.777,187.666z M165.524,190.214c-0.009-0.096-0.007-0.193-0.029-0.289
		c-0.251-1.103-1.73-1.693-2.589-2.259c-6.442-4.249-8.352-4.446-14.329-7.58c-0.653-0.342-1.356-0.508-2.057-0.542
		c-0.563-0.046-1.141-0.029-1.605-0.066c-6.636-0.532-8.869-0.049-13.687,0.181c0.163-0.344,0.317-0.693,0.463-1.046
		c0.118-0.072,0.237-0.14,0.358-0.202c1.212-0.618,7.345-3.199,8.7-3.09c0.173,0.014,0.352,0.014,0.507,0.008
		c0.295-0.01,0.58-0.106,0.83-0.263c0.263-0.166,0.516-0.348,0.747-0.551c1.45,0.179,7.843,1.408,8.899,2.24
		c0.136,0.107,0.285,0.206,0.418,0.288c0.251,0.155,0.541,0.234,0.837,0.241c0.576,0.015,1.152-0.04,1.687-0.234
		c0.141,0.064,0.281,0.131,0.413,0.206c1.034,0.584,5.494,4.128,6.441,4.843c2.588,1.954,4.737,4.487,7.65,5.964
		c0.586,0.297,1.217,0.544,1.872,0.557c2.387,2.805,5.488,5.639,7.959,8.67C174.358,194.775,169.12,192.152,165.524,190.214z"/>
	<path style="fill:#1D262D;" d="M337.804,138.338c-2.909,0.027-5.842,0.682-8.555,1.757c-4.648,1.842-8.743,4.834-12.63,7.979
		c-15.242,12.334-38.246,44.145-40.951,47.917l0.133-4.335c0-1.384-0.715-2.598-1.794-3.303c0.371-0.926,0.926-1.853,1.712-2.775
		c0.918-1.078,2.021-2.044,3.089-2.978l0.816-0.718c6.234-5.555,11.375-12.504,14.865-20.096c0.149-0.324,0.008-0.706-0.316-0.855
		c-0.32-0.147-0.706-0.009-0.855,0.316c-3.417,7.431-8.45,14.234-14.553,19.673l-0.806,0.71c-1.103,0.965-2.243,1.962-3.222,3.111
		c-0.868,1.018-1.488,2.056-1.912,3.101c-0.313-0.08-0.634-0.135-0.972-0.135c-0.147,0-0.286,0.027-0.428,0.043
		c-1.184-2.848-2.839-5.53-4.898-7.809c-0.626-0.694-1.288-1.355-1.952-2.016c-0.846-0.844-1.721-1.716-2.488-2.639
		c-3.577-4.306-5.136-10.068-6.512-15.151c-0.093-0.342-0.441-0.545-0.791-0.453c-0.344,0.093-0.547,0.447-0.453,0.791
		c1.41,5.21,3.008,11.116,6.764,15.637c0.806,0.97,1.702,1.865,2.571,2.73c0.646,0.643,1.293,1.288,1.904,1.965
		c1.926,2.132,3.48,4.632,4.604,7.289c-1.338,0.632-2.269,1.983-2.269,3.561l0.132,4.3c-2.836-3.953-25.736-35.59-40.925-47.881
		c-3.886-3.145-7.982-6.137-12.63-7.979c-2.713-1.075-5.646-1.73-8.555-1.757c-3.443-0.032-6.105,3.163-5.535,6.558
		c1.366,8.128,4.914,15.881,8.41,23.421l11.165,24.081c1.383,2.982,4.218,5.038,7.485,5.396c4.016,0.439,8.077,1.009,12.024,1.249
		c-3.358,0.675-5.779,2.785-8.792,4.413c-3.013,1.628-5.62,4.358-6.248,7.725c-0.614,3.29,0.708,6.609,2.123,9.642
		c2.079,4.453,4.771,9.108,9.325,10.956c5.118,2.076,10.961-0.062,15.715-2.875c6.39-3.781,12.501-9.075,16.987-15.009l0.597,19.493
		c0,1.474,1.195,2.669,2.669,2.669c1.474,0,2.669-1.195,2.669-2.669l0.602-19.644c4.486,5.933,10.621,11.38,17.007,15.159
		c4.754,2.813,10.596,4.951,15.714,2.875c4.555-1.847,7.246-6.502,9.325-10.956c1.416-3.033,2.737-6.352,2.124-9.642
		c-0.628-3.367-3.235-6.097-6.248-7.725c-3.013-1.628-5.434-3.738-8.792-4.413c3.947-0.24,8.008-0.809,12.024-1.249
		c3.267-0.358,6.102-2.414,7.485-5.396l11.165-24.081c3.496-7.54,7.044-15.292,8.41-23.421
		C343.909,141.501,341.247,138.305,337.804,138.338z"/>
	<path style="fill:#1D262D;" d="M462.372,384.285c-2.546-2.907-3.132-6.974-3.974-10.745c-0.5-2.252-1.132-4.474-1.849-6.667
		c-1.716-5.246-3.77-10.454-6.501-15.26c-0.82-1.443-1.728-3.744-3.681-3.809c-0.174-0.006-0.346,0.019-0.517,0.044
		c-0.04-0.586-0.084-1.175-0.124-1.76c-0.217-3.21-0.409-6.421-0.624-9.631c-0.085-1.268-0.241-2.546-0.554-3.775
		c1.495-0.503,2.281-2.423,2.999-3.686c2.731-4.806,4.785-10.014,6.501-15.26c0.717-2.192,1.348-4.415,1.849-6.667
		c0.841-3.771,1.428-7.839,3.974-10.745c0.197-0.225,0.386-0.615,0.129-0.767c-0.156-0.092-0.35,0.004-0.53,0.02
		c-0.376,0.033-0.697-0.315-0.779-0.683c-0.082-0.368,0.01-0.75,0.086-1.12c0.281-1.378,0.33-2.803,0.143-4.197
		c-0.041-0.308-0.298-0.714-0.554-0.537c-0.092,0.063-0.125,0.181-0.152,0.289c-2.242,8.989-3.55,18.289-6.72,27.022
		c-0.757,2.085-1.614,4.133-2.567,6.135c-0.477,1.001-0.978,1.99-1.502,2.967c-0.346,0.644-0.958,2.024-1.836,2.018
		c-0.17-0.001-0.329-0.076-0.488-0.137c-1.072-0.415-2.361-0.242-3.213,0.521c-1.144-1.107-2.575-1.923-4.081-2.46
		c-1.238-0.441-2.539-0.71-3.861-0.886c0.1-1.015,0.12-2.059,0.099-2.913c1.104-0.328,2.139-0.845,3.015-1.644
		c2.133-1.945,3.162-4.987,2.423-7.806c-0.933-3.558-1.754-7.146-2.691-10.702c0.023-0.012,0.048-0.015,0.071-0.029
		c0.613-0.377,1.168-0.876,1.509-1.51c0.341-0.634,0.448-1.414,0.187-2.084c-0.146-0.375-0.398-0.7-0.581-1.059
		c-0.217-0.427-0.335-0.896-0.481-1.352c-0.145-0.457-0.325-0.915-0.642-1.274c-0.317-0.359-0.795-0.607-1.269-0.539
		c-0.474,0.068-0.895,0.521-0.827,0.995c-0.014,0.01-0.03,0.022-0.044,0.033c-1.096-2.718-2.745-5.207-5.165-6.867
		c1.981-0.786,3.794-2.017,5.244-3.579c0.312-0.336,0.586-0.696,0.863-1.058c1.257-1.644,1.294-4.015,0.08-5.684
		c-0.282-0.387-0.711-0.693-1.189-0.719c-0.283-0.016-0.564,0.084-0.685,0.359c-0.081,0.184-0.081,0.394-0.06,0.594
		c0.096,0.889,0.594,1.618,1.281,2.164c0.181,0.144,0.432,0.247,0.558,0.447c0.234,0.371,0.054,0.883-0.11,1.246
		c-0.21,0.465-0.489,0.896-0.803,1.298c-1.362,1.738-4.068,3.472-6.197,4.366c-0.046-0.053-0.081-0.106-0.177-0.155
		c-1.73-0.897-3.645-1.393-5.553-1.432c-1.908,0.038-3.822,0.534-5.553,1.432c-0.095,0.049-0.131,0.102-0.177,0.155
		c-2.129-0.894-4.835-2.629-6.197-4.366c-0.314-0.401-0.592-0.833-0.803-1.298c-0.164-0.363-0.344-0.874-0.11-1.246
		c0.126-0.201,0.378-0.304,0.558-0.447c0.687-0.546,1.185-1.275,1.281-2.164c0.022-0.2,0.021-0.41-0.06-0.594
		c-0.121-0.275-0.402-0.375-0.685-0.359c-0.478,0.026-0.908,0.332-1.189,0.719c-1.214,1.669-1.177,4.04,0.08,5.684
		c0.277,0.363,0.551,0.723,0.863,1.058c1.45,1.563,3.263,2.793,5.244,3.579c-2.419,1.66-4.069,4.148-5.165,6.867
		c-0.015-0.01-0.03-0.022-0.044-0.033c0.067-0.474-0.353-0.927-0.827-0.995c-0.474-0.068-0.952,0.18-1.269,0.539
		c-0.317,0.359-0.497,0.817-0.642,1.274c-0.145,0.456-0.263,0.925-0.481,1.352c-0.183,0.359-0.434,0.683-0.581,1.059
		c-0.262,0.671-0.154,1.45,0.187,2.084c0.341,0.634,0.896,1.133,1.509,1.51c0.023,0.014,0.048,0.017,0.071,0.029
		c-0.937,3.556-1.758,7.143-2.691,10.702c-0.739,2.819,0.289,5.86,2.422,7.806c0.769,0.701,1.661,1.186,2.614,1.516
		c-0.185,1.028-0.214,2.083-0.082,3.119c-1.121,0.178-2.222,0.432-3.279,0.808c-1.507,0.536-2.937,1.353-4.081,2.46
		c-0.851-0.763-2.141-0.936-3.213-0.521c-0.158,0.061-0.318,0.136-0.488,0.137c-0.878,0.007-1.49-1.374-1.836-2.018
		c-0.524-0.977-1.026-1.966-1.503-2.967c-0.954-2.002-1.811-4.05-2.567-6.135c-3.17-8.732-4.478-18.033-6.72-27.022
		c-0.027-0.108-0.061-0.226-0.152-0.289c-0.256-0.177-0.512,0.229-0.554,0.537c-0.187,1.394-0.138,2.819,0.143,4.197
		c0.076,0.37,0.168,0.751,0.086,1.12c-0.082,0.368-0.403,0.716-0.779,0.683c-0.18-0.016-0.374-0.113-0.53-0.02
		c-0.257,0.152-0.067,0.543,0.129,0.767c2.546,2.906,3.132,6.974,3.974,10.745c0.5,2.252,1.132,4.475,1.849,6.667
		c1.716,5.246,3.769,10.454,6.501,15.26c0.718,1.263,1.504,3.184,2.999,3.686c-0.313,1.229-0.469,2.507-0.554,3.775
		c-0.215,3.21-0.407,6.421-0.624,9.631c-0.04,0.585-0.083,1.174-0.124,1.76c-0.171-0.025-0.343-0.05-0.517-0.044
		c-1.953,0.066-2.861,2.366-3.681,3.809c-2.731,4.806-4.785,10.014-6.501,15.26c-0.717,2.192-1.348,4.415-1.849,6.667
		c-0.842,3.771-1.428,7.839-3.974,10.745c-0.197,0.224-0.386,0.615-0.129,0.767c0.156,0.092,0.35-0.004,0.53-0.02
		c0.376-0.033,0.697,0.315,0.779,0.683c0.082,0.368-0.01,0.75-0.086,1.12c-0.281,1.378-0.33,2.803-0.143,4.197
		c0.041,0.308,0.298,0.714,0.554,0.537c0.092-0.064,0.125-0.181,0.152-0.29c2.242-8.989,3.55-18.289,6.72-27.022
		c0.757-2.085,1.614-4.133,2.567-6.135c0.477-1.001,0.978-1.99,1.502-2.967c0.346-0.644,0.957-2.024,1.836-2.018
		c0.17,0.001,0.329,0.076,0.488,0.137c0.43,0.167,0.896,0.231,1.356,0.21c-0.274,3.826-0.555,7.649-0.848,11.427
		c-0.23,2.968-0.46,5.936-0.689,8.905c-0.099-0.035-0.194-0.08-0.298-0.102c-0.458-0.099-0.93-0.065-1.374,0.074
		c-1.865,0.582-2.13,3.041-2.538,4.65c-1.358,5.359-1.956,10.925-2.219,16.438c-0.11,2.304-0.129,4.614-0.014,6.918
		c0.189,3.859,0.703,7.936-0.98,11.414c-0.13,0.269-0.209,0.695,0.079,0.774c0.175,0.048,0.336-0.097,0.506-0.16
		c0.354-0.132,0.756,0.118,0.932,0.452c0.177,0.334,0.189,0.726,0.214,1.102c0.094,1.403,0.426,2.791,0.976,4.085
		c0.121,0.286,0.477,0.609,0.676,0.371c0.072-0.086,0.073-0.208,0.07-0.319c-0.223-9.262-1.43-18.576-0.691-27.836
		c0.176-2.211,0.459-4.413,0.848-6.596c0.194-1.092,0.415-2.179,0.661-3.26c0.162-0.713,0.386-2.206,1.234-2.433
		c0.164-0.044,0.338-0.014,0.507,0.003c0.328,0.033,0.66,0.012,0.983-0.052c-0.111,1.437-0.222,2.873-0.333,4.309
		c-0.215,2.772-0.429,5.545-0.644,8.317c-1.049,13.557,8.278,25.37,21.071,27.972c0.93,0.189,1.82-0.478,1.896-1.424l2.529-15.624
		c0.163-1.007,1.612-1.007,1.775,0l2.529,15.624c0.075,0.946,0.965,1.613,1.896,1.424c12.793-2.602,22.12-14.415,21.071-27.972
		c-0.215-2.772-0.429-5.545-0.644-8.317c-0.111-1.436-0.222-2.873-0.333-4.309c0.323,0.065,0.655,0.085,0.983,0.052
		c0.169-0.017,0.342-0.046,0.507-0.003c0.848,0.227,1.072,1.72,1.234,2.433c0.246,1.081,0.467,2.168,0.661,3.26
		c0.388,2.183,0.671,4.385,0.848,6.596c0.739,9.261-0.468,18.575-0.691,27.836c-0.003,0.111-0.002,0.234,0.07,0.319
		c0.199,0.238,0.555-0.085,0.676-0.371c0.55-1.294,0.881-2.682,0.976-4.085c0.025-0.377,0.038-0.769,0.214-1.102
		c0.177-0.333,0.579-0.584,0.932-0.452c0.17,0.063,0.331,0.208,0.506,0.16c0.288-0.079,0.209-0.506,0.079-0.774
		c-1.684-3.478-1.169-7.555-0.98-11.414c0.115-2.304,0.096-4.615-0.014-6.918c-0.263-5.514-0.861-11.08-2.219-16.438
		c-0.408-1.609-0.673-4.068-2.538-4.65c-0.443-0.138-0.915-0.173-1.374-0.074c-0.104,0.023-0.199,0.067-0.298,0.102
		c-0.23-2.968-0.46-5.936-0.689-8.905c-0.293-3.777-0.574-7.6-0.848-11.427c0.459,0.021,0.925-0.043,1.356-0.21
		c0.158-0.061,0.318-0.136,0.488-0.137c0.878-0.007,1.49,1.374,1.836,2.018c0.524,0.977,1.026,1.966,1.502,2.967
		c0.954,2.002,1.811,4.05,2.567,6.135c3.17,8.733,4.478,18.033,6.72,27.022c0.027,0.108,0.06,0.226,0.152,0.29
		c0.256,0.177,0.513-0.229,0.554-0.537c0.187-1.394,0.138-2.819-0.143-4.197c-0.076-0.37-0.168-0.751-0.086-1.12
		c0.082-0.368,0.403-0.716,0.779-0.683c0.18,0.016,0.375,0.113,0.53,0.02C462.758,384.9,462.569,384.509,462.372,384.285z"/>
	<path style="fill:#1D262D;" d="M336.829,327.977c-2.391,0-4.671,0.257-6.773,0.714c-2.83,0.267-5.655,0.588-8.477,0.936
		c-3.651,0.451-7.299,0.929-10.958,1.318c-5.161,0.55-10.379,0.923-15.564,0.806c1.845-3.212,3.817-6.351,5.94-9.386
		c1.894-2.708,1.41-5.733,2.291-8.79c0.119-0.414-0.012-0.859-0.359-1.114c-0.58-0.426-1.425-0.133-1.582,0.569
		c-0.907,4.05-3.577,7.582-5.99,11.031c-1.695,2.424-3.299,4.912-4.818,7.451c-0.761-0.063-1.522-0.136-2.28-0.225
		c-0.758-5.901-4.124-10.893-8.797-13.567c2.23-0.381,3.959-3.065,3.959-6.325c0-3.521-2.016-6.376-4.503-6.376
		c-0.104,0-0.206,0.012-0.309,0.022c-0.42-0.637-0.962-1.186-1.579-1.642c0.252-0.225,0.5-0.453,0.744-0.681
		c0.841-0.784,1.636-1.524,2.534-2.013c0.147-0.079,0.249-0.222,0.278-0.385c0.468-2.631,0.938-5.451,1.202-8.238
		c0.029-0.302-0.193-0.57-0.495-0.598c-0.304-0.023-0.57,0.193-0.598,0.496c-0.189,1.994-0.486,4.012-0.812,5.966
		c-0.001,0.007-0.003,0.015-0.004,0.022c-0.107,0.641-0.217,1.276-0.328,1.901l-4.532,2.473c-1.01-0.355-2.079-0.505-3.153-0.524
		c-1.074,0.019-2.143,0.169-3.153,0.524l-4.532-2.473c-0.111-0.625-0.221-1.259-0.328-1.901c-0.001-0.007-0.003-0.015-0.004-0.022
		c-0.326-1.954-0.623-3.972-0.812-5.966c-0.029-0.302-0.295-0.518-0.598-0.496c-0.302,0.029-0.523,0.297-0.495,0.598
		c0.264,2.788,0.734,5.607,1.202,8.238c0.029,0.164,0.131,0.306,0.278,0.385c0.898,0.49,1.693,1.23,2.534,2.013
		c0.244,0.228,0.493,0.456,0.744,0.681c-0.617,0.455-1.159,1.005-1.579,1.642c-0.102-0.01-0.205-0.022-0.309-0.022
		c-2.487,0-4.503,2.855-4.503,6.376c0,3.26,1.729,5.944,3.959,6.325c-4.673,2.673-8.039,7.666-8.797,13.567
		c-0.758,0.09-1.519,0.162-2.28,0.225c-1.519-2.539-3.122-5.027-4.818-7.451c-2.412-3.449-5.082-6.981-5.99-11.031
		c-0.157-0.702-1.002-0.994-1.582-0.569c-0.347,0.255-0.479,0.7-0.359,1.114c0.881,3.057,0.397,6.082,2.291,8.79
		c2.123,3.035,4.095,6.174,5.94,9.386c-5.185,0.117-10.403-0.256-15.564-0.806c-3.658-0.39-7.307-0.867-10.958-1.318
		c-2.821-0.349-5.646-0.669-8.477-0.936c-2.102-0.457-4.383-0.714-6.773-0.714c-10.359,0-18.757,4.712-18.757,10.525
		c0,3.21,2.563,6.081,6.601,8.012c0.232,0.19,0.482,0.376,0.731,0.563c1.431,1.074,2.945,2.038,4.521,2.883
		c3.179,1.705,6.615,2.931,10.157,3.619c1.391,0.27,2.799,0.453,4.212,0.554c2.29,3.777,6.778,6.344,11.941,6.344
		c0.368,0,0.729-0.023,1.09-0.049c1.271,0.204,2.583,0.022,3.847-0.247c6.91-1.469,13.127-5.314,18.432-9.979
		c2.79-2.453,5.379-5.175,7.374-8.305c0.829,1.811,1.926,3.451,3.238,4.857c-0.511,1.438-0.973,2.973-1.383,4.587
		c-0.758-0.435-1.522-0.858-2.298-1.259c-1.104-0.57-2.459-1.103-3.534-0.479c-0.592,0.343-0.954,0.969-1.284,1.569
		c-4.644,8.447-8.304,17.435-10.885,26.722c-1.127,4.056-2.153,8.362-4.701,11.639c-0.442,0.568-0.13,1.406,0.568,1.582
		c0.418,0.106,0.844-0.076,1.088-0.431c1.799-2.625,3.776-5.933,4.661-9.117c2.58-9.288,6.905-16.517,11.549-24.964
		c0.33-0.6,0.692-1.226,1.284-1.569c0.822-0.477,1.806-0.277,2.717,0.098c-0.833,4.402-1.299,9.267-1.299,14.387
		c0,19.544,6.738,35.41,15.094,35.686c8.356-0.277,15.094-16.143,15.094-35.686c0-5.12-0.466-9.985-1.299-14.387
		c0.911-0.375,1.895-0.574,2.717-0.098c0.592,0.344,0.954,0.969,1.284,1.569c4.644,8.447,8.969,15.676,11.549,24.964
		c0.885,3.184,2.862,6.493,4.661,9.117c0.244,0.355,0.671,0.537,1.088,0.431c0.697-0.177,1.009-1.015,0.568-1.582
		c-2.548-3.277-3.574-7.583-4.701-11.639c-2.58-9.288-6.241-18.275-10.885-26.722c-0.33-0.6-0.692-1.226-1.284-1.569
		c-1.075-0.624-2.43-0.091-3.534,0.479c-0.776,0.401-1.541,0.824-2.298,1.259c-0.411-1.614-0.872-3.15-1.383-4.587
		c1.312-1.407,2.409-3.047,3.238-4.857c1.996,3.13,4.584,5.852,7.374,8.305c5.305,4.665,11.522,8.51,18.432,9.979
		c1.264,0.269,2.576,0.451,3.847,0.247c0.361,0.026,0.722,0.049,1.09,0.049c5.163,0,9.651-2.567,11.941-6.344
		c1.413-0.1,2.821-0.283,4.212-0.554c3.541-0.688,6.978-1.914,10.157-3.619c1.577-0.846,3.09-1.809,4.521-2.883
		c0.249-0.187,0.498-0.373,0.731-0.563c4.037-1.931,6.6-4.802,6.6-8.012C355.585,332.689,347.188,327.977,336.829,327.977z"/>
	<path style="fill:#1D262D;" d="M152.358,298.422c-0.357-6.03-2.569-11.778-4.841-17.375c-1.926-4.745-4.025-9.624-7.815-13.068
		c-2.351-2.137-5.703-3.276-8.817-3.903c5.761,5.626,9.761,12.855,11.87,20.632c-0.912-1.691-1.917-3.33-3.07-4.875
		c-1.867-2.501-5.364-5.434-8.623-3.609c0.465-0.26,3.41,2.298,3.856,2.681c3.14,2.696,5.119,6.639,6.234,10.566
		c0.696,2.451,1.462,4.882,2.238,7.311c0.738,2.31,1.016,4.754,0.706,7.159c-0.002,0.013-0.003,0.026-0.005,0.04
		c-1.645,12.643-8.079,24.423-17.237,33.326c-2.647-1.233-5.444-2.151-8.234-3.032c-0.168-0.053-0.339-0.105-0.508-0.157
		c0.105-0.533,0.163-1.082,0.163-1.646c0-1.068-0.207-2.086-0.569-3.026c0.922-0.948,1.669-2.059,2.141-3.292
		c0.779-2.034,0.778-4.39-0.166-6.354c-0.943-1.963-2.999-3.147-5.159-3.433c1.273,0.478,2.128,1.751,2.401,3.083
		c0.273,1.332,0.043,2.718-0.323,4.027c-0.209,0.748-0.837,1.568-1.62,2.318c-1.424-1.098-3.203-1.758-5.14-1.758
		c-2.181,0-4.162,0.835-5.659,2.193c-0.998-0.858-1.847-1.858-2.098-2.753c-0.367-1.309-0.596-2.695-0.323-4.027
		c0.273-1.332,1.128-2.605,2.401-3.083c-2.159,0.287-4.215,1.47-5.159,3.433c-0.943,1.963-0.945,4.319-0.166,6.354
		c0.596,1.556,1.627,2.92,2.899,4.001c-0.21,0.737-0.33,1.512-0.33,2.317c0,0.564,0.058,1.113,0.163,1.646
		c-0.169,0.052-0.34,0.104-0.508,0.157c-2.79,0.881-5.587,1.798-8.234,3.032c-9.158-8.903-15.592-20.683-17.237-33.326
		c-0.002-0.013-0.003-0.026-0.005-0.04c-0.31-2.405-0.032-4.85,0.706-7.159c0.776-2.429,1.542-4.86,2.238-7.311
		c1.116-3.928,3.094-7.871,6.234-10.566c0.446-0.383,3.392-2.941,3.856-2.681c-3.259-1.825-6.756,1.108-8.623,3.609
		c-1.153,1.545-2.158,3.184-3.07,4.875c2.109-7.777,6.109-15.005,11.87-20.632c-3.115,0.627-6.466,1.766-8.817,3.903
		c-3.789,3.444-5.889,8.323-7.815,13.068c-2.272,5.597-4.484,11.345-4.841,17.375c-0.499,8.437,2.661,16.62,5.933,24.412
		c3.042,7.246,6.382,14.615,10.981,20.915c-0.652,0.829-1.232,1.711-1.705,2.659c-1.695,3.399-1.956,7.629-0.119,10.953
		c0.322,0.584,0.719,1.126,1.167,1.623c-1.274,1.241-2.081,2.935-2.507,4.675c-0.491,2.008-0.524,4.096-0.554,6.163
		c-0.107,7.349-0.199,14.748,1.003,21.996c-0.067,0.145-0.142,0.285-0.208,0.43c-1.367,3.02-2.374,6.125-3.247,9.313
		c-0.804,2.935-1.537,5.929-1.591,8.987c-0.035,1.973,0.577,4.793,2.914,5.143c-0.333-0.05-0.815-2.469-0.89-2.833
		c-0.401-1.957-0.181-4.013,0.373-5.943c0.195,1.774,0.952,3.707,2.86,3.993c-0.333-0.05-0.815-2.469-0.89-2.833
		c-0.526-2.563,0.012-5.301,0.975-7.696c0.368-0.916,0.718-1.839,1.062-2.765c0.382,1.322,0.804,2.671,1.227,3.965
		c-0.011,0.047-0.025,0.093-0.036,0.14c-0.241,0.981-0.454,1.969-0.639,2.962c-0.371,1.982-0.633,3.984-0.787,5.995
		c-0.429,5.577-0.16,11.395,1.198,16.837c0.324,1.299,0.675,2.681,1.567,3.72c0.783,0.911,1.975,1.45,3.182,1.37
		c-0.433,0.029-1.366-1.247-1.601-1.56c-0.426-0.567-0.763-1.201-1.029-1.857c-1.11-2.74-0.823-5.898-0.844-8.785
		c0.17-0.06,0.033-0.012,0.203-0.071c0.443,0.602,1.053,1.043,1.886,1.167c-0.333-0.05-0.815-2.469-0.89-2.833
		c-0.526-2.563,0.012-5.301,0.975-7.696c0.041-0.102,0.079-0.204,0.119-0.306c3.821,8.596,12.415,14.601,22.429,14.601
		s18.608-6.005,22.429-14.601c0.041,0.102,0.078,0.205,0.119,0.306c0.963,2.396,1.501,5.133,0.975,7.696
		c-0.075,0.364-0.557,2.784-0.89,2.833c0.832-0.124,1.443-0.565,1.886-1.167c0.17,0.06,0.033,0.012,0.203,0.071
		c-0.021,2.886,0.266,6.045-0.844,8.785c-0.266,0.656-0.603,1.29-1.029,1.857c-0.235,0.313-1.167,1.589-1.601,1.56
		c1.206,0.081,2.399-0.458,3.182-1.37c0.892-1.039,1.243-2.421,1.567-3.72c1.359-5.441,1.627-11.259,1.198-16.837
		c-0.155-2.01-0.417-4.013-0.787-5.995c-0.186-0.993-0.399-1.981-0.64-2.962c-0.011-0.047-0.025-0.093-0.036-0.14
		c0.423-1.295,0.845-2.644,1.227-3.965c0.344,0.926,0.694,1.849,1.062,2.765c0.963,2.396,1.501,5.133,0.975,7.696
		c-0.075,0.364-0.557,2.784-0.89,2.833c1.908-0.285,2.665-2.219,2.86-3.993c0.554,1.93,0.775,3.987,0.373,5.943
		c-0.075,0.364-0.557,2.784-0.89,2.833c2.336-0.35,2.949-3.17,2.913-5.143c-0.054-3.058-0.787-6.052-1.591-8.987
		c-0.873-3.187-1.88-6.293-3.247-9.313c-0.066-0.145-0.141-0.286-0.208-0.43c1.202-7.248,1.109-14.647,1.003-21.996
		c-0.03-2.067-0.063-4.155-0.554-6.163c-0.426-1.74-1.233-3.434-2.507-4.675c0.448-0.497,0.844-1.039,1.167-1.623
		c1.837-3.324,1.576-7.554-0.12-10.953c-0.473-0.948-1.054-1.83-1.705-2.659c4.599-6.299,7.939-13.669,10.981-20.915
		C149.697,315.041,152.857,306.858,152.358,298.422z"/>
</g>
<g id="DESIGNED_BY_FREEPIK">
	<g>
		<g id="XMLID_29_">
			<g id="XMLID_48_">
				<path id="XMLID_56_" style="fill:#1D262D;" d="M260.104,465.465c-0.432,0.443-0.803,0.931-1.108,1.453l-0.465-0.241
					c-0.067-0.298-0.349-0.503-0.659-0.466c-0.331,0.039-0.568,0.339-0.529,0.67s0.339,0.568,0.67,0.529
					c0.065-0.008,0.127-0.026,0.184-0.052l0.451,0.234c-0.251,0.554-0.433,1.139-0.539,1.744l0.746,0.132
					c0.23-1.306,0.85-2.507,1.792-3.473L260.104,465.465z"/>
				<path id="XMLID_55_" style="fill:#1D262D;" d="M265.592,463.163c-0.171,0-0.341,0.006-0.51,0.017l-0.074-0.626
					c0.188-0.149,0.296-0.389,0.266-0.645c-0.046-0.393-0.402-0.674-0.795-0.628s-0.674,0.402-0.628,0.795
					c0.03,0.254,0.189,0.461,0.405,0.564l0.073,0.624c-0.714,0.116-1.403,0.332-2.06,0.646l0.327,0.684
					c0.934-0.447,1.942-0.673,2.995-0.673c0.496,0,0.993,0.053,1.475,0.158l0.161-0.741
					C266.693,463.222,266.142,463.163,265.592,463.163z"/>
				<path id="XMLID_54_" style="fill:#1D262D;" d="M272.194,465.711c0.331-0.04,0.566-0.341,0.525-0.672
					c-0.04-0.331-0.341-0.566-0.672-0.526c-0.309,0.038-0.535,0.304-0.53,0.609l-0.416,0.363c-0.418-0.43-0.89-0.813-1.408-1.139
					l-0.404,0.641c1.134,0.715,2.021,1.726,2.563,2.925l0.691-0.313c-0.251-0.554-0.568-1.072-0.942-1.545l0.402-0.351
					C272.065,465.716,272.129,465.719,272.194,465.711z"/>
				<path id="XMLID_53_" style="fill:#1D262D;" d="M265.044,473.372c-0.386,0.023-0.775,0.035-1.157,0.035
					c-0.88,0-1.733-0.061-2.478-0.179c-0.39-0.062-0.846-0.155-1.27-0.292c1.046,1.861,3.069,3.125,5.388,3.125
					c2.855,0,5.262-1.916,5.95-4.504c-0.682,0.449-1.505,0.825-2.459,1.123C267.839,473.047,266.464,473.286,265.044,473.372z"/>
				<path id="XMLID_49_" style="fill:#1D262D;" d="M265.592,464.68c-3.352,0-6.08,2.666-6.08,5.943c0,0.426,0.046,0.849,0.137,1.261
					c0.674,0.483,2.706,0.89,5.348,0.731c2.879-0.173,5.297-0.957,6.672-2.159c-0.005-0.195-0.021-0.39-0.045-0.582
					C271.244,466.913,268.65,464.68,265.592,464.68z M263.432,471.194c-1.02,0-1.85-0.83-1.85-1.85c0-1.02,0.83-1.85,1.85-1.85
					c1.02,0,1.85,0.83,1.85,1.85C265.282,470.365,264.452,471.194,263.432,471.194z M268.17,470.286c-0.75,0-1.36-0.61-1.36-1.36
					s0.61-1.361,1.36-1.361c0.75,0,1.361,0.61,1.361,1.361S268.92,470.286,268.17,470.286z"/>
			</g>
			<path id="XMLID_46_" style="fill:#1D262D;" d="M281.595,466.547c-0.295-0.116-0.806-0.309-1.382-0.237
				c-0.551,0.069-0.844,0.341-0.844,1.007v0.866h2.228v1.717h-2.228v5.455h-1.932v-5.455h-1.34v-1.717h1.34v-0.888
				c0-1.68,0.896-2.783,2.568-2.783c0.642,0,1.157,0.122,1.59,0.308L281.595,466.547z"/>
			<path id="XMLID_44_" style="fill:#1D262D;" d="M286.298,469.879c-0.177-0.03-0.358-0.046-0.526-0.046
				c-0.896,0-1.51,0.548-1.51,1.614v3.908h-1.932v-7.172h1.873v0.785c0.451-0.673,1.14-0.977,2.021-0.977
				c0.414,0,0.848,0.128,1.094,0.337L286.298,469.879z"/>
			<path id="XMLID_41_" style="fill:#1D262D;" d="M293.965,471.757c0,0.222-0.015,0.489-0.037,0.651h-5.085
				c0.207,1.036,0.933,1.488,1.843,1.488c0.622,0,1.295-0.252,1.813-0.688l1.132,1.243c-0.814,0.748-1.85,1.088-3.057,1.088
				c-2.198,0-3.723-1.495-3.723-3.753c0-2.258,1.48-3.797,3.627-3.797C292.544,467.99,293.958,469.522,293.965,471.757z
				 M288.851,471.091h3.175c-0.177-0.918-0.733-1.436-1.562-1.436C289.554,469.655,289.021,470.203,288.851,471.091z"/>
			<path id="XMLID_38_" style="fill:#1D262D;" d="M301.618,471.757c0,0.222-0.015,0.489-0.037,0.651h-5.085
				c0.207,1.036,0.932,1.488,1.843,1.488c0.622,0,1.295-0.252,1.813-0.688l1.132,1.243c-0.814,0.748-1.85,1.088-3.057,1.088
				c-2.198,0-3.723-1.495-3.723-3.753c0-2.258,1.48-3.797,3.627-3.797C300.197,467.99,301.611,469.522,301.618,471.757z
				 M296.504,471.091h3.175c-0.178-0.918-0.733-1.436-1.562-1.436C297.207,469.655,296.674,470.203,296.504,471.091z"/>
			<path id="XMLID_35_" style="fill:#1D262D;" d="M309.964,471.764c0,2.154-1.495,3.775-3.471,3.775
				c-0.962,0-1.643-0.378-2.109-0.933v3.708h-1.924v-10.133h1.887v0.792c0.466-0.585,1.155-0.984,2.139-0.984
				C308.469,467.99,309.964,469.61,309.964,471.764z M304.287,471.764c0,1.132,0.747,1.976,1.843,1.976
				c1.14,0,1.85-0.881,1.85-1.976c0-1.095-0.71-1.976-1.85-1.976C305.035,469.788,304.287,470.632,304.287,471.764z"/>
			<path id="XMLID_32_" style="fill:#1D262D;" d="M313.068,465.836c0,0.696-0.54,1.229-1.236,1.229
				c-0.696,0-1.229-0.533-1.229-1.229c0-0.696,0.533-1.243,1.229-1.243C312.527,464.592,313.068,465.14,313.068,465.836z
				 M312.809,475.354h-1.932v-7.172h1.932V475.354z"/>
			<path id="XMLID_30_" style="fill:#1D262D;" d="M316.032,470.736l2.702-2.554h2.368l-3.479,3.375l3.501,3.797h-2.376l-2.716-2.901
				v2.901H314.1v-10.658h1.932V470.736z"/>
		</g>
		<g>
			<path style="fill:#1D262D;" d="M184.412,475.289v-1.055c-0.527,0.718-1.391,1.23-2.387,1.23c-1.846,0-3.149-1.406-3.149-3.706
				c0-2.256,1.289-3.721,3.149-3.721c0.952,0,1.816,0.469,2.387,1.245v-3.765h1.099v9.77H184.412z M184.412,473.37v-3.208
				c-0.395-0.615-1.245-1.143-2.124-1.143c-1.421,0-2.27,1.172-2.27,2.739c0,1.567,0.85,2.724,2.27,2.724
				C183.168,474.483,184.017,473.986,184.412,473.37z"/>
			<path style="fill:#1D262D;" d="M186.932,471.744c0-2.051,1.465-3.706,3.486-3.706c2.139,0,3.398,1.67,3.398,3.794v0.279h-5.727
				c0.088,1.333,1.025,2.446,2.549,2.446c0.805,0,1.626-0.322,2.182-0.894l0.527,0.718c-0.703,0.703-1.655,1.084-2.812,1.084
				C188.44,475.465,186.932,473.956,186.932,471.744z M190.403,468.947c-1.509,0-2.256,1.274-2.314,2.358h4.643
				C192.718,470.25,192.015,468.947,190.403,468.947z"/>
			<path style="fill:#1D262D;" d="M194.607,474.351l0.571-0.791c0.469,0.542,1.362,1.011,2.329,1.011c1.084,0,1.67-0.513,1.67-1.216
				c0-1.714-4.38-0.659-4.38-3.281c0-1.098,0.952-2.036,2.636-2.036c1.201,0,2.051,0.454,2.622,1.026l-0.513,0.762
				c-0.424-0.513-1.201-0.894-2.109-0.894c-0.967,0-1.567,0.483-1.567,1.113c0,1.552,4.38,0.527,4.38,3.281
				c0,1.187-0.952,2.138-2.783,2.138C196.306,475.465,195.325,475.113,194.607,474.351z"/>
			<path style="fill:#1D262D;" d="M201.477,466.471c0-0.41,0.337-0.747,0.732-0.747c0.41,0,0.747,0.337,0.747,0.747
				c0,0.41-0.337,0.732-0.747,0.732C201.814,467.203,201.477,466.881,201.477,466.471z M201.667,475.289v-7.075h1.099v7.075H201.667
				z"/>
			<path style="fill:#1D262D;" d="M204.582,477.105l0.556-0.82c0.586,0.703,1.289,0.967,2.3,0.967c1.172,0,2.27-0.571,2.27-2.124
				v-1.011c-0.513,0.718-1.377,1.26-2.373,1.26c-1.845,0-3.149-1.377-3.149-3.662c0-2.27,1.289-3.677,3.149-3.677
				c0.952,0,1.802,0.469,2.373,1.245v-1.069h1.098v6.87c0,2.344-1.641,3.076-3.369,3.076
				C206.237,478.16,205.417,477.926,204.582,477.105z M209.709,473.253v-3.091c-0.381-0.615-1.23-1.143-2.109-1.143
				c-1.421,0-2.27,1.128-2.27,2.695c0,1.553,0.849,2.695,2.27,2.695C208.478,474.41,209.328,473.868,209.709,473.253z"/>
			<path style="fill:#1D262D;" d="M217.413,475.289v-4.629c0-1.245-0.63-1.641-1.582-1.641c-0.865,0-1.685,0.527-2.095,1.099v5.17
				h-1.099v-7.075h1.099v1.025c0.498-0.586,1.464-1.201,2.519-1.201c1.48,0,2.256,0.747,2.256,2.285v4.966H217.413z"/>
			<path style="fill:#1D262D;" d="M219.932,471.744c0-2.051,1.465-3.706,3.486-3.706c2.139,0,3.398,1.67,3.398,3.794v0.279h-5.727
				c0.088,1.333,1.025,2.446,2.549,2.446c0.806,0,1.626-0.322,2.183-0.894l0.527,0.718c-0.703,0.703-1.655,1.084-2.812,1.084
				C221.441,475.465,219.932,473.956,219.932,471.744z M223.404,468.947c-1.509,0-2.256,1.274-2.314,2.358h4.643
				C225.718,470.25,225.015,468.947,223.404,468.947z"/>
			<path style="fill:#1D262D;" d="M233.35,475.289v-1.055c-0.527,0.718-1.392,1.23-2.388,1.23c-1.846,0-3.149-1.406-3.149-3.706
				c0-2.256,1.289-3.721,3.149-3.721c0.952,0,1.817,0.469,2.388,1.245v-3.765h1.098v9.77H233.35z M233.35,473.37v-3.208
				c-0.396-0.615-1.245-1.143-2.124-1.143c-1.421,0-2.27,1.172-2.27,2.739c0,1.567,0.849,2.724,2.27,2.724
				C232.105,474.483,232.954,473.986,233.35,473.37z"/>
			<path style="fill:#1D262D;" d="M239.692,475.289v-9.77h1.098v3.765c0.572-0.776,1.421-1.245,2.388-1.245
				c1.845,0,3.149,1.465,3.149,3.721c0,2.299-1.304,3.706-3.149,3.706c-0.996,0-1.86-0.513-2.388-1.23v1.055H239.692z
				 M242.9,474.483c1.436,0,2.285-1.157,2.285-2.724c0-1.568-0.85-2.739-2.285-2.739c-0.864,0-1.728,0.527-2.109,1.143v3.208
				C241.171,473.986,242.036,474.483,242.9,474.483z"/>
			<path style="fill:#1D262D;" d="M247.528,477.061c0.161,0.073,0.425,0.117,0.601,0.117c0.483,0,0.805-0.161,1.055-0.747
				l0.469-1.069l-2.959-7.148h1.187l2.358,5.8l2.344-5.8h1.201l-3.545,8.51c-0.425,1.025-1.143,1.421-2.08,1.435
				c-0.234,0-0.601-0.044-0.805-0.103L247.528,477.061z"/>
		</g>
	</g>
</g>
</svg>
