<?xml version="1.0" encoding="utf-8"?>
<!-- Generator: Adobe Illustrator 27.5.0, SVG Export Plug-In . SVG Version: 6.00 Build 0)  -->
<svg version="1.1" xmlns="http://www.w3.org/2000/svg" xmlns:xlink="http://www.w3.org/1999/xlink" x="0px" y="0px"
	 viewBox="0 0 500 500" style="enable-background:new 0 0 500 500;" xml:space="preserve">
<g id="BACKGROUND">
</g>
<g id="OBJECTS">
	<path style="fill:#ECFFCC;" d="M284.769,424.868c-0.167,0-0.167,0.258,0,0.258C284.935,425.126,284.935,424.868,284.769,424.868z"
		/>
	
		<text transform="matrix(1 0 0 1 132.456 65.228)" style="fill:#595959; font-family:'Poppins-SemiBold'; font-size:20.9902px; letter-spacing:2;">Insect Silhouette</text>
	<path style="fill:#595959;" d="M329.422,412.052c1.578-0.198-0.889-9.175-1.677-10.358l-0.789,0.888
		c-0.494,1.874-0.69,3.453,0.295,5.229c0.395,0.591,1.678,1.479,1.875,2.17C329.224,410.375,327.941,412.346,329.422,412.052z
		 M283.399,401.693c-0.789,1.184-3.256,10.16-1.676,10.358c1.478,0.294,0.198-1.677,0.295-2.072c0.197-0.69,1.479-1.579,1.875-2.17
		c0.985-1.775,0.788-3.354,0.296-5.229L283.399,401.693z M303.167,414.248c0.919,0.823,1.713,1.395,2.405,1.756
		c0.691-0.361,1.486-0.933,2.405-1.756c4.171-3.527,7.699-8.661,10.267-13.473c7.119-13.623,11.548-35.308-7.182-40.266
		c0.821-0.534,1.577-1.188,2.209-1.919c1.286-1.557,2.598-3.486,3.677-5.557c1.746,1.109,2.069-0.917,3.202-2.142
		c0.887,0.393,1.479,1.381,2.169,1.973c0.142-0.305,0.235-0.633,0.303-0.975l-0.105,0.777c2.171,2.467,4.045,4.933,5.624,7.89
		c0.515,1.034,1.857,4.374,3.242,5.259c-1.569,3.94-2.355,8.958-2.946,13.09c-0.057,0.515-0.375,2.704-0.179,4.138l-0.02,0.01
		c-0.492,2.268-0.689,4.438-1.48,6.509c-0.395,1.086-1.392,3.639-0.897,4.723c0.321,0.833,0.718,1.002,1.127,0.801l-0.13,0.392
		c-0.1,1.382-0.592,2.861-0.69,4.342c-0.196,2.07,1.578,3.255,1.873,0.492c0.197-1.38-0.295-2.664,0-4.044
		c0.155-0.928,0.6-1.912,0.22-2.773c0.603-1.154,1.075-2.577,1.162-3.143c0.227-1.373,0.23-4.156,0.221-6.218
		c0.059-0.034,0.11-0.054,0.175-0.099c1.183-0.789,0.986-6.411,1.183-7.791c0.296-1.973,0.789-3.946,1.085-5.919
		c0.173-1.109,1.003-3.325,0.647-4.605c0.015-0.013,0.03-0.017,0.044-0.031c1.479-1.282-0.593-5.228-1.282-6.806
		c-0.888-2.564-2.565-5.721-4.835-7.201c-1.184-0.789-2.466-1.086-3.847-1.185l-0.076,0.559c0.076-0.854,0.063-1.74,0.176-2.53
		c-1.685,0-2.922,1.501-4.057-0.274c0.358-1.342,0.552-2.671,0.511-3.934c-0.063-1.266-0.231-2.806-0.514-4.374
		c1.082-0.376,1.702-1.313,1.155-3.008c1.283-0.157,2.727-0.48,2.086-2.083c1.764-0.158,3.688-0.321,5.453-0.158
		c1.935,0.138,4.348,1.342,6.416,1.362v0.562c1.122,2.405,2.727,4.331,4.17,6.415c0.802,1.12,1.604,2.083,2.086,3.367
		c0.319,0.641,0.48,3.37,1.121,3.851c0.54,0.376,0.905,0.499,1.154,0.462c2.664,3.212,4.523,9.35,5.744,13.013
		c0.155-0.061,0.268-0.164,0.371-0.277c1.248,0.983,1.878,3.187,2.195,4.766c0.245-0.132,0.438-0.284,0.598-0.443l0.044,0.607
		c1.282,3.047,4.973,3.206,7.057,5.294c0.447-3.288-3.688-6.289-6.591-7.339c-0.135-1.191-1.343-2.406-2.552-2.606l-0.729-0.294
		c1.677-1.99-4.015-11.201-5.732-13.257c0.151-1.255-1.131-4.251-1.56-4.895c-0.944-1.62-4.272-7.209-6.354-9.706
		c0.778-5.754-8.173-5.655-12.781-4.284c1.5-2.409,1.172-5.376,2.135-7.986c0.481-1.284,1.282-1.121,0.32-2.406
		c-0.022-0.026-0.044-0.049-0.066-0.074c1.055-1.517,1.933-3.123,2.793-4.737c0.963-1.765,4.813-6.414,4.331-8.021
		c-0.172-0.438-0.382-0.73-0.617-0.914c1.264-0.488,4.295-2.185,5.439-3.727c1.606,0.544,4.238-0.217,4.478-1.679
		c0.612,0.109,1.214,0.227,1.768,0.227c0-0.162,0-1.282,0-1.442c-0.528,0.132-1.268,0.264-1.873,0.396
		c-0.613-1.685-2.896-0.252-4.214,0.735c-0.004-0.002-0.004-0.008-0.007-0.01c-2.086-2.247-5.774,4.171-6.897,5.294l0.154,0.05
		c-1.727,0.567-3.87,3.944-4.325,5.082c-1.022,2.631-0.597,5.523-1.48,8.324c-0.487-0.331-1.02-0.294-1.727,0.176
		c-0.642,0.48-0.642,2.568-0.802,3.208c-0.892,4.162-2.356,6.533-5.5,8.902c-2.23-2.647-6.134-2.38-9.184-3.861
		c0.455-0.922,0.987-1.809,1.852-2.473c1.925-1.282,5.293-1.443,5.934-3.85c0.589-1.932-1.026-4.557-3.2-6.468
		c0.497-0.791,1.284-0.998,2.119-1.577c0.921-0.639-0.117-2.006,1.743-2.243c0.519-0.069,1.151-0.439,1.431-0.891
		c0.873-1.41,1.868-2.482,3.202-3.483c0.189-0.141,0.262-0.308,0.221-0.543c-0.333-1.98,1.71-1.136,2.525-2.42
		c0.579-0.911-0.317-1.456-1.062-1.839c-0.551-0.28-1.039,0.55-0.486,0.833c1.533,0.781-1.647,1.218-2.098,1.987
		c-0.298,0.511,0.324,1.218-0.067,1.511c-0.775,0.582-1.863,1.225-2.339,2.099c-0.877,1.616-3.096,1.577-3.564,3.305
		c-0.327,1.213-1.542,1.744-2.317,2.695c-0.438-0.336-0.884-0.647-1.339-0.907c-0.267-1.855-1.141-3.946-2.348-4.369
		c0.394,1.184,0.94,2.371,0.861,3.686c-0.875-0.305-1.712-0.416-2.426-0.235c-0.713-0.181-1.552-0.069-2.426,0.235
		c-0.078-1.315,0.467-2.503,0.862-3.686c-1.209,0.423-2.083,2.514-2.349,4.369c-0.476,0.275-0.944,0.6-1.4,0.954
		c-0.859-0.924-2.258-1.8-2.24-2.614c0.015-0.674-0.385-1.06-0.926-1.379c-1.09-0.639-1.985-0.822-2.654-2.054
		c-0.314-0.579-1.434-1.418-1.857-1.737c-0.986-0.74-0.228-0.764-0.501-1.757c-0.257-0.936-3.775-1.271-2.145-2.103
		c0.553-0.283,0.065-1.113-0.486-0.833c-0.745,0.383-1.642,0.928-1.061,1.839c0.815,1.284,2.857,0.439,2.524,2.42
		c-0.04,0.235,0.031,0.402,0.221,0.543c1.086,0.815,2.392,1.799,2.94,3.062c0.308,0.709,0.896,1.026,1.565,1.294
		c1.766,0.705,0.928,1.341,1.773,2.186c0.783,0.785,1.661,0.806,2.214,1.659c-2.171,1.909-3.785,4.532-3.197,6.462
		c0.642,2.407,4.011,2.568,5.935,3.85c0.864,0.664,1.397,1.551,1.852,2.473c-3.049,1.481-6.953,1.214-9.183,3.861
		c-3.144-2.369-4.609-4.74-5.501-8.902c-0.16-0.64-0.16-2.728-0.801-3.208c-0.707-0.47-1.241-0.507-1.728-0.176
		c-0.883-2.801-0.459-5.693-1.48-8.324c-0.456-1.138-2.6-4.515-4.325-5.082l0.154-0.05c-1.123-1.123-4.812-7.541-6.897-5.294
		c-0.003,0.002-0.003,0.008-0.006,0.01c-1.318-0.987-3.603-2.42-4.215-0.735c-0.607-0.132-1.345-0.264-1.874-0.396
		c0,0.16,0,1.28,0,1.442c0.555,0,1.156-0.117,1.77-0.227c0.238,1.462,2.869,2.223,4.477,1.679c1.143,1.542,4.175,3.238,5.438,3.727
		c-0.234,0.184-0.444,0.477-0.616,0.914c-0.481,1.607,3.368,6.257,4.331,8.021c0.859,1.614,1.738,3.221,2.793,4.737
		c-0.023,0.025-0.045,0.048-0.066,0.074c-0.962,1.285-0.161,1.122,0.32,2.406c0.963,2.61,0.634,5.577,2.134,7.986
		c-4.607-1.371-13.56-1.47-12.78,4.284c-2.083,2.497-5.409,8.086-6.355,9.706c-0.429,0.643-1.71,3.64-1.56,4.895
		c-1.716,2.056-7.408,11.267-5.731,13.257l-0.729,0.294c-1.21,0.2-2.416,1.415-2.553,2.608c-2.902,1.048-7.039,4.049-6.591,7.337
		c2.086-2.088,5.774-2.247,7.058-5.294l0.044-0.607c0.16,0.159,0.352,0.311,0.599,0.443c0.316-1.579,0.947-3.782,2.194-4.766
		c0.102,0.113,0.217,0.216,0.372,0.277c1.221-3.663,3.079-9.801,5.743-13.013c0.249,0.037,0.614-0.086,1.153-0.462
		c0.642-0.48,0.802-3.21,1.123-3.851c0.48-1.284,1.283-2.247,2.086-3.367c1.442-2.084,3.047-4.01,4.17-6.415v-0.562
		c2.067-0.021,4.479-1.225,6.415-1.362c1.765-0.163,3.689,0,5.453,0.158c-0.642,1.603,0.803,1.926,2.086,2.083
		c-0.547,1.694,0.072,2.632,1.155,3.008c-0.283,1.568-0.45,3.108-0.515,4.374c-0.041,1.263,0.153,2.592,0.511,3.934
		c-1.133,1.773-2.372,0.274-4.056,0.274c0.114,0.794,0.1,1.687,0.177,2.544l-0.077-0.572c-1.38,0.099-2.664,0.396-3.847,1.185
		c-2.27,1.48-3.948,4.637-4.834,7.201c-0.69,1.578-2.762,5.523-1.283,6.806c0.015,0.013,0.03,0.018,0.045,0.031
		c-0.355,1.28,0.475,3.496,0.647,4.605c0.296,1.973,0.788,3.946,1.084,5.919c0.199,1.38,0,7.002,1.185,7.791
		c0.063,0.045,0.115,0.064,0.175,0.099c-0.011,2.062-0.008,4.845,0.221,6.218c0.087,0.565,0.559,1.988,1.161,3.143
		c-0.38,0.859,0.063,1.846,0.22,2.773c0.295,1.38-0.198,2.664,0,4.044c0.295,2.763,2.069,1.578,1.874-0.492
		c-0.1-1.48-0.591-2.96-0.691-4.342l-0.131-0.392c0.41,0.201,0.808,0.033,1.129-0.801c0.494-1.084-0.504-3.637-0.897-4.723
		c-0.79-2.07-0.988-4.241-1.481-6.509l-0.021-0.01c0.197-1.434-0.12-3.623-0.178-4.138c-0.59-4.132-1.378-9.15-2.946-13.088
		c1.386-0.886,2.727-4.227,3.241-5.261c1.58-2.957,3.454-5.423,5.625-7.89l-0.106-0.78c0.067,0.341,0.161,0.671,0.304,0.978
		c0.689-0.592,1.281-1.579,2.17-1.973c1.131,1.225,1.455,3.251,3.201,2.142c1.078,2.07,2.391,4,3.677,5.557
		c0.632,0.732,1.389,1.385,2.208,1.919c-18.729,4.958-14.301,26.643-7.18,40.266C295.468,405.587,298.996,410.721,303.167,414.248z"
		/>
	<path style="fill:#595959;" d="M167.482,355.137c0.589,0.518,1.849,0.672,3.109,0.23c1.654-0.709,3.625-2.064,5.22-3.068
		c1.292,1.73,9.465,5.507,11.719,4.564c0.391,0.06,0.797,0.083,1.191,0.098c0.122,0.948,1.668,1.613,1.668,2.587
		c0.336,1.351-1.353,2.025-1.353,3.377c0.241,1.911,0.806,2.647,0.764,3.746c-2.585,1.702-5.264,3.242-7.687,5.033
		c-2.912,2.025-4.178,4.432-6.078,7.218c-0.507,1.013-2.28,2.532-2.153,3.673c0.009,0.198,0.026,0.369,0.05,0.516
		c-2.79,3.246-4.183,15.801-1.757,18.963c-3.839,7.072-2.357,16.721-8.781,22.33c-0.493,0.432,0.227,1.145,0.717,0.717
		c6.715-5.863,4.948-15.805,9.196-23.023c0.124-0.209,0.08-0.412-0.041-0.555c1.077-2.689,0.505-5.789,0.617-8.691
		c0-1.139,0-2.406,0.253-3.545c0.507-2.406,2.153-3.293,1.14-5.699l0.018-0.186c0.588-0.529,1.226-1.367,1.628-1.713
		c1.21-1.346,2.567-2.291,4.025-3.06c-0.266,0.565-0.503,1.167-0.688,1.835c-1.691,8.104,0.673,23.637,10.13,26.676
		c0.784,0.262,1.512,0.42,2.206,0.518c0.694-0.098,1.422-0.256,2.206-0.518c9.455-3.039,11.819-18.572,10.13-26.676
		c-0.185-0.668-0.422-1.27-0.688-1.834c1.457,0.769,2.813,1.715,4.022,3.059c0.402,0.346,1.04,1.184,1.628,1.713l0.018,0.186
		c-1.013,2.406,0.633,3.293,1.14,5.699c0.253,1.139,0.253,2.406,0.253,3.545c0.111,2.902-0.46,6.002,0.617,8.691
		c-0.121,0.143-0.166,0.346-0.042,0.555c4.248,7.219,2.481,17.16,9.196,23.023c0.49,0.428,1.21-0.285,0.716-0.717
		c-6.424-5.609-4.941-15.258-8.781-22.33c2.425-3.162,1.032-15.717-1.757-18.963c0.024-0.147,0.041-0.317,0.05-0.516
		c0.127-1.141-1.646-2.66-2.153-3.673c-1.899-2.786-3.166-5.192-6.078-7.218c-2.422-1.79-5.1-3.33-7.684-5.031
		c-0.042-1.102,0.523-1.836,0.762-3.748c0-1.352-1.689-2.026-1.351-3.377c0-0.974,1.544-1.639,1.666-2.587
		c0.394-0.015,0.8-0.038,1.191-0.098c2.253,0.943,10.428-2.833,11.719-4.564c1.595,1.004,3.566,2.359,5.22,3.068
		c1.26,0.441,2.52,0.287,3.109-0.23c4.278,0.178,9.386,1.238,12.699-2.069c0.461-0.463-0.254-1.179-0.718-0.718
		c-2.968,2.967-7.76,2.014-11.682,1.791c-0.12-0.422-0.503-0.909-1.254-1.432c-1.211-0.951-4.782-2.372-7.208-2.172
		c-0.965-0.955-4.822,0.694-5.708,1.285c-1.778,0.948-3.651,2.238-5.132,3.748c-0.732-0.305-1.567-0.265-2.404-0.085
		c-0.427-1.862-1.428-4.052-1.159-5.394c0-2.025,2.701-3.715,3.039-5.74c0.036-0.182,0.059-0.359,0.085-0.537
		c3.608-1.238,7.469-7.596,8.99-10.1c0.467-0.701,1.028-0.979,0.518-1.812c1.88-2.621,4.923-8.618,4.751-11.148
		c1.849-1.294,3.975-2.083,5.877-3.317c2.487-1.615,4.91-3.314,7.471-4.813c0.563-0.33,0.054-1.205-0.512-0.875
		c-2.56,1.498-4.993,3.185-7.471,4.811c-1.861,1.223-3.918,2.032-5.753,3.255c-0.065-0.054-0.114-0.125-0.195-0.158
		c-3.808-1.456-4.645,7.881-5.487,11.461c-0.244,0.004-0.489,0.053-0.717,0.189c-0.634,0.38-1.14,2.912-1.773,3.672
		c-1.645,2.084-3.849,3.599-5.893,5.118c-0.691-2.588-2.485-4.722-4.646-6.472c0.831-0.949,1.021-1.793,0.778-2.472
		c1.717,0.467,3.654,0.073,5.667-1.661c5.912-4.681,1.942-11.689-3.521-14.879c2.445-1.7,6.645-2.317,9.009-2.934
		c1.899-0.381,4.558-0.76,6.204-1.646c1.686-0.948,2.399-2.941,0.918-3.369c0.434-2.403,0.218-4.844,0.711-7.26
		c0.659-3.237,2.869-5.83,5.592-7.549c0.551-0.348,0.043-1.225-0.512-0.875c-2.207,1.393-3.831,3.096-5.053,5.408
		c-1.717,3.25-1.079,6.774-1.766,10.215c-0.05,0.005-0.092,0.004-0.144,0.01c-2.153,0.254-5.065,2.406-6.964,3.293
		c-2.798,1.217-6.283,2.441-8.463,4.443c-1.068-0.572-2.182-0.996-3.282-1.228c-1.102,0.232-2.216,0.656-3.284,1.229
		c-2.18-2.003-5.665-3.228-8.463-4.444c-1.899-0.887-4.812-3.039-6.964-3.293c-0.052-0.006-0.094-0.005-0.144-0.01
		c-0.617-3.139-0.063-6.358-1.396-9.379c-1.192-2.7-2.933-4.674-5.422-6.244c-0.555-0.35-1.063,0.527-0.512,0.875
		c2.598,1.641,4.282,3.76,5.326,6.636c0.949,2.612,0.521,5.46,0.985,8.171c-1.492,0.422-0.779,2.421,0.91,3.371
		c1.646,0.887,4.305,1.266,6.204,1.646c2.364,0.616,6.565,1.233,9.01,2.934c-5.463,3.19-9.432,10.198-3.52,14.879
		c2.013,1.734,3.949,2.128,5.664,1.661c-0.243,0.679-0.05,1.522,0.781,2.472c-2.161,1.75-3.956,3.884-4.647,6.473
		c-2.045-1.521-4.25-3.035-5.895-5.119c-0.633-0.76-1.14-3.292-1.773-3.672c-0.229-0.137-0.473-0.186-0.717-0.189
		c-0.843-3.58-1.68-12.917-5.487-11.461c-0.083,0.033-0.135,0.106-0.2,0.162c-1.587-1.066-3.328-1.834-5.015-2.781
		c-2.828-1.59-5.4-3.647-8.205-5.289c-0.565-0.33-1.075,0.545-0.512,0.875c2.273,1.33,4.445,2.805,6.636,4.264
		c2.148,1.43,4.616,2.364,6.713,3.857c-0.18,2.525,2.868,8.533,4.751,11.157c-0.511,0.832,0.05,1.11,0.518,1.812
		c1.52,2.506,5.382,8.861,8.99,10.1c0.026,0.178,0.048,0.355,0.084,0.537c0.34,2.025,3.039,3.715,3.039,5.74
		c0.271,1.342-0.732,3.531-1.159,5.394c-0.837-0.18-1.672-0.22-2.404,0.085c-1.481-1.51-3.354-2.8-5.132-3.748
		c-0.886-0.591-4.744-2.24-5.708-1.285c-2.426-0.2-5.997,1.221-7.208,2.172c-0.751,0.522-1.135,1.01-1.254,1.432
		c-3.922,0.223-8.714,1.176-11.683-1.791c-0.462-0.461-1.179,0.255-0.716,0.718C158.097,356.375,163.204,355.315,167.482,355.137z"
		/>
	<path style="fill:#595959;" d="M454.032,372.638c-1.302-5.346-4.678-10.369-7.974-15.24c-4.712-6.959-9.327-14.955-16.511-19.674
		c2.223,0.096,4.603-0.232,6.154-0.984c0.92,0.559,2.041,0.934,2.843,1.734c2.113,1.627,3.252,4.064,5.039,6.012
		c0.773,0.904,3.189,2.623,4.884,2.314l0.152,0.123c1.787,2.113,3.575,4.227,5.363,6.5c2.11,2.438,2.11,4.063,2.11,7.475
		c0.164-0.324,0.488-0.813,0.65-1.299c0.65,0.648,1.623,0.975,2.437,0.975c-1.298-2.438-2.762-5.525-4.386-7.963
		c-0.956-1.434-3.571-4.346-5.797-5.99c0.224-0.117,0.426-0.281,0.597-0.51c2.381-3.123-8.72-8.971-12.731-10.182
		c0.16-0.17,0.291-0.35,0.382-0.541c-3.533-2.25-8.023-0.057-11.735-1.264c-0.007-1.434-0.302-2.877-0.821-4.289
		c1.592-0.91,3.22-2.457,4.597-3.223c0.616-0.352,2.847-1.182,4.303-2.049c2.896,0.471,7.221-8.793,8.37-10.949
		c1.685-2.807,6.147-5.49,7.859-8.264c1.277-0.402,2.602-1.447,3.026-2.297c-2.923,0.975-2.599,0.164-4.062-1.949
		c-1.186,0.592-1.284,2.264-0.922,3.664c-2.548,1.648-5.095,5.521-6.553,7.223c-2.699,3.176-4.166,7.43-6.961,10.656
		c-0.064-0.031-0.109-0.064-0.188-0.096c-2.482-0.965-8.224,1.92-11.6,3.219c-0.864-1.258-1.863-2.445-2.948-3.508
		c3.363-1.424,6.252-4.258,5.741-7.451c-0.533-3.555-4.408-4.338-8.113-3.928c0.181-0.184,0.35-0.361,0.51-0.518
		c1.949-1.789,4.224-3.412,6.661-4.387c0.975-0.326,2.273-0.162,3.25-0.652c0.975-0.486,1.625-1.623,2.763-1.949
		c0.324,0,7.311,1.463,4.549-1.299c-1.624-1.625-7.963,1.787-9.913,2.6c-3.694,1.693-6.949,3.697-10.186,6.252
		c-3.235-2.555-6.49-4.559-10.185-6.252c-1.949-0.813-8.287-4.225-9.911-2.6c-2.763,2.762,4.224,1.299,4.55,1.299
		c1.135,0.326,1.785,1.463,2.761,1.949c0.976,0.49,2.273,0.326,3.25,0.652c2.438,0.975,4.711,2.598,6.661,4.387
		c0.158,0.156,0.33,0.334,0.509,0.518c-3.703-0.408-7.579,0.373-8.111,3.928c-0.513,3.193,2.376,6.027,5.741,7.451
		c-1.085,1.063-2.086,2.25-2.949,3.508c-3.375-1.299-9.118-4.184-11.601-3.219c-0.077,0.031-0.122,0.064-0.186,0.096
		c-2.795-3.227-4.262-7.48-6.96-10.656c-1.458-1.701-4.003-5.574-6.553-7.223c0.363-1.4,0.264-3.072-0.923-3.664
		c-1.463,2.113-1.137,2.924-4.061,1.949c0.425,0.85,1.75,1.895,3.026,2.297c1.712,2.773,6.176,5.457,7.86,8.264
		c1.148,2.156,5.476,11.42,8.368,10.949c1.457,0.867,3.688,1.697,4.303,2.049c1.378,0.766,3.006,2.313,4.599,3.223
		c-0.52,1.412-0.815,2.855-0.823,4.289c-3.712,1.209-8.199-0.986-11.735,1.264c0.091,0.191,0.224,0.371,0.383,0.541
		c-4.011,1.211-15.112,7.059-12.732,10.182c0.171,0.228,0.373,0.392,0.596,0.51c-2.225,1.645-4.841,4.557-5.794,5.99
		c-1.625,2.438-3.089,5.525-4.388,7.963c0.813,0,1.788-0.326,2.439-0.975c0.161,0.486,0.484,0.975,0.648,1.299
		c0-3.412,0-5.037,2.113-7.475c1.786-2.273,3.573-4.387,5.36-6.5l0.153-0.123c1.693,0.309,4.11-1.41,4.883-2.314
		c1.788-1.947,2.926-4.385,5.039-6.012c0.802-0.801,1.923-1.176,2.844-1.734c1.553,0.752,3.931,1.08,6.153,0.984
		c-7.178,4.715-11.817,12.711-16.511,19.674c-3.288,4.881-6.666,9.898-7.973,15.238c-4.063,2.977-8.431,6.533-12.354,8.137
		c3.59-0.635,2.112,2.322,2.956,4.434c1.901-3.166,1.901-5.912,5.7-8.023c0.968-0.521,2.092-0.916,3.182-1.367
		c-0.207,2.813,0.261,5.723,1.683,8.752c-1.543,3.31-3.281,6.514-4.681,9.883c-0.402,0.967-1.924,4.188-0.483,5.082
		c4.14,2.574,10.464,0.807,14.337-1.391c9.326-5.297,14.607-17.02,17.439-27.219c0.972,5.141,2.27,10.139,2.27,15.627
		c0,5.75,2.737,10.678,4.108,16.428c0.701,3.865,2.417,10.992,5.001,12.07c2.586-1.078,4.301-8.205,5.004-12.07
		c1.369-5.75,4.105-10.678,4.105-16.428c0-5.672,1.385-10.826,2.365-16.15c0.498,2.08,1.023,4.154,1.779,6.18
		c2.123,5.682,5.024,11.121,8.913,15.791c3.333,4.002,8.038,7.543,13.355,8.135c2.103,0.232,5.385,0.426,7.285-0.756
		c1.625-1.01,0.617-2.896,0.184-4.375c-1.1-3.744-3.44-7.17-5.026-10.742c1.443-3.051,1.918-5.982,1.71-8.816
		c1.09,0.451,2.213,0.846,3.182,1.367c3.799,2.111,3.799,4.857,5.699,8.023c0.845-2.111-0.633-5.068,2.956-4.434
		C462.464,379.169,458.096,375.612,454.032,372.638z M385.797,356.001c4.008-6.004,8.149-12.65,14.132-16.916
		c-3.782,4.943-6.242,11.137-9.652,16.225c-4.095,6.105-6.813,12.934-9.484,19.758c-1.041,2.609-2.078,5.221-3.155,7.816
		c-0.068,0.16-0.143,0.316-0.212,0.473C373.191,373.198,380.29,364.253,385.797,356.001z M402.751,366.288
		c0.093,0.772,0.208,1.533,0.33,2.291c-0.058,0.273-0.107,0.551-0.177,0.816c-0.851,3.307-2.003,6.537-3.34,9.678
		c-2.583,6.07-6.149,11.945-11.209,16.258c-2.429,2.066-5.326,3.48-8.447,4.109c-1.799,0.361-3.675,0.262-5.476-0.017
		c-2.963-0.463-2.008-2.627-1.291-4.713c1.129-3.293,2.96-6.449,4.535-9.645c0.079-0.041,0.145-0.1,0.181-0.185
		c0.224-0.527,0.436-1.061,0.656-1.59c0.14-0.311,0.284-0.619,0.415-0.932c1.317-3.143,2.538-6.328,3.792-9.498
		c2.447-6.023,5.094-11.943,8.669-17.42c0.311-0.451,0.604-0.914,0.929-1.353c2.431-3.279,4.086-7.127,6.06-10.693
		c1.141-1.996,2.397-3.912,3.928-5.652c0.099-0.109,0.209-0.207,0.311-0.314c0.571-0.121,1.093-0.281,1.549-0.475
		c0.173,0.076,0.346,0.154,0.52,0.233c0.557,1.723,1.635,3.373,3.375,4.859c-1.697,1.398-2.085,3.322,0.716,4.258
		C405.49,352.87,401.931,358.075,402.751,366.288z M457.544,397.794c0.829,3.125-9.157,1.34-10.358,0.932
		c-6.446-2.174-10.982-8.338-14.21-13.99c-2.956-5.178-4.692-10.736-6.279-16.361c0.109-0.691,0.215-1.385,0.299-2.086
		c0.82-8.213-2.738-13.418-6.022-19.986c2.8-0.936,2.413-2.859,0.714-4.258c1.739-1.486,2.818-3.137,3.375-4.859
		c0.175-0.078,0.346-0.156,0.521-0.233c0.464,0.197,0.996,0.358,1.58,0.483c0.135,0.142,0.26,0.295,0.39,0.441
		c0.385,0.443,0.766,0.893,1.119,1.357c0.067,0.088,0.136,0.176,0.203,0.268c0.472,0.641,0.92,1.297,1.347,1.967
		c0.023,0.035,0.042,0.068,0.064,0.102c0.38,0.604,0.74,1.219,1.094,1.836c0.581,1.027,1.138,2.07,1.689,3.113
		c0.069,0.131,0.147,0.256,0.218,0.389c1.431,2.713,2.853,5.436,4.679,7.9c6.208,9.264,9.601,19.877,13.926,30.072
		c0.003,0.008,0.01,0.008,0.013,0.014c0.142,0.338,0.276,0.68,0.42,1.016C454.04,389.923,456.414,393.538,457.544,397.794z
		 M452.314,383.376c-1.331-3.184-2.59-6.397-3.874-9.596c-0.741-1.879-1.487-3.758-2.262-5.625
		c-0.809-1.945-1.725-3.822-2.699-5.666c-1.393-2.803-2.912-5.547-4.674-8.176c-0.131-0.178-0.245-0.365-0.371-0.543
		c-1.717-2.842-3.438-5.686-4.998-8.639c-1.109-2.102-2.275-4.182-3.674-6.086c6.002,4.254,10.222,10.924,14.186,16.955
		C449.414,364.314,456.586,373.171,452.314,383.376z"/>
	<path style="fill:#595959;" d="M40.743,362.137c1.468-0.224,2.949-0.01,4.422,0.006c0.148,0.002,0.213-0.117,0.206-0.232
		c0.039,0.01,0.078,0.022,0.126,0.014c0.665-0.083,0.997-2.656,1.079-3.236c0.802-3.202,1.234-5.941,3.498-8.436
		c1.964,0.803,5.07,0.693,6.847,1.05c3.933,0.926,7.775,2.49,11.745,2.436c0.12,3.169-0.159,6.832-1.853,9.491
		c-0.064,0.112-0.115,0.209-0.176,0.317c-4.686-0.145-10.052,0.828-14.08,2.012c-2.036,0.727-7.564,1.454-8.436,3.491
		c-0.263,0.657-0.266,1.068-0.113,1.318c-2.561,0.939,1.301,4.744,2.235,5.912c1.493,1.91,2.823,3.981,4.397,5.807
		c1.661,1.91,1.769,2.008,3.511,3.833c0.829,0.994,1.741,2.406,2.739,3.152c0.194,0.145,0.357,0.244,0.501,0.315
		c-1.104,1.207-3.049,1.521-3.813,3.057c-0.124,0.251,0.252,0.473,0.377,0.222c0.745-1.5,2.744-1.805,3.805-3.028
		c0.035-0.039,0.037-0.082,0.041-0.125c0.581,0,0.264-1.119-0.498-1.849c-4.146-3.983-6.249-7.732-7.244-8.896
		c-0.663-0.746-1.327-1.492-1.992-2.239c-1.242-1.493-2.572-3.07-3.069-4.979c-0.097-0.289-0.14-0.579-0.175-0.859
		c0.934-0.033,2.306-0.673,2.789-0.913c3.054-1.019,6.4-2.185,9.6-2.619c1.839-0.265,4.886,0.312,7.468,0.213
		c-0.884,1.941-1.59,3.817-2.815,6.695c-4.945,11.638-0.969,35.132,5.139,41.239c4.928,4.931,9.13,6.627,14.452,7.497
		c5.32-0.87,9.522-2.566,14.452-7.497c6.107-6.107,10.082-29.602,5.137-41.239c-1.224-2.878-1.929-4.754-2.813-6.695
		c2.581,0.099,5.629-0.477,7.468-0.213c3.2,0.435,6.545,1.601,9.6,2.619c0.483,0.24,1.854,0.88,2.787,0.913
		c-0.035,0.28-0.079,0.57-0.174,0.859c-0.499,1.908-1.826,3.485-3.069,4.979c-0.665,0.747-1.329,1.493-1.992,2.239
		c-0.995,1.164-3.096,4.913-7.246,8.896c-0.761,0.73-1.077,1.849-0.497,1.849c0.004,0.043,0.007,0.086,0.042,0.125
		c1.061,1.224,3.06,1.528,3.804,3.028c0.125,0.251,0.501,0.029,0.377-0.222c-0.762-1.537-2.707-1.851-3.812-3.056
		c0.145-0.072,0.308-0.172,0.503-0.316c0.995-0.746,1.909-2.158,2.739-3.152c1.741-1.825,1.849-1.923,3.51-3.833
		c1.576-1.825,2.903-3.896,4.398-5.807c0.935-1.168,4.796-4.973,2.235-5.912c0.152-0.25,0.15-0.661-0.113-1.318
		c-0.872-2.037-6.4-2.765-8.437-3.491c-4.026-1.184-9.393-2.156-14.08-2.012c-0.061-0.108-0.111-0.205-0.175-0.317
		c-1.693-2.659-1.971-6.322-1.852-9.491c3.969,0.055,7.811-1.51,11.743-2.436c1.777-0.356,4.884-0.247,6.848-1.05
		c2.266,2.496,2.697,5.234,3.499,8.436c0.082,0.58,0.414,3.153,1.076,3.236c0.049,0.009,0.088-0.003,0.127-0.014
		c-0.008,0.114,0.057,0.233,0.205,0.232c1.475-0.016,2.956-0.23,4.424-0.006c0.275,0.041,0.393-0.38,0.116-0.422
		c-1.507-0.227-3.014-0.025-4.528-0.009c0.401-0.858-0.439-4.044-0.51-4.68c-0.41-1.709-1.446-6.184-3.334-7.415
		c0.022-0.021,0.055-0.034,0.076-0.057c-5.022-4.88-13.916,0.127-19.642,1.701c-0.052-4.394-0.692-5.398-3.195-9.847
		c-0.316-0.587-0.604-1.194-0.884-1.797c4.27-1.445,11.086-8.04,13.381-10.118c0.586,0.745,1.902,1.816,2.729,2.229
		c0.512,0.294,0.96,0.777,0.999,0.137c1.104-1.104,2.213-2.219,3.508-3.102c0.231-0.157,0.012-0.536-0.221-0.377
		c-1.233,0.843-2.305,1.885-3.36,2.938c-0.29-1.126-2.062-1.876-3.314-2.178c2.131-2.336-0.871-2.951-3.093-1.841
		c-4.102,2.052-8.429,6.25-11.987,9.607c-1.179-1.99-2.722-3.314-5.783-2.51c0.25-0.23,0.501-0.51,0.752-0.842
		c0.443-0.533,0.695-1.309,0.835-2.188c0.975-0.103,1.86-0.783,2.075-2.177c0.177-1.422-0.839-2.186-1.988-2.309
		c-0.025-0.558-0.049-1.063-0.049-1.474c0-1.631,0.557-6.238,0.033-8.909c1.839-6.327,4.619-12.269,7.82-18.025
		c0.96-1.73,1.823-3.841,3.076-5.375c1.856-2.271,1.235-4.772,2.082-7.488c0.083-0.27-0.338-0.385-0.422-0.117
		c-0.571,1.836-0.461,3.651-0.874,5.527c-0.229,1.05-1.64,2.352-2.147,3.435c-0.826,1.762-1.892,3.427-2.829,5.129
		c-2.829,5.139-5.237,10.483-6.931,16.094c-0.107-0.295-0.234-0.553-0.392-0.743c-0.866-0.952-1.81-1.308-2.715-1.259
		c-0.906-0.049-1.85,0.307-2.717,1.259c-0.159,0.191-0.285,0.448-0.393,0.745c-1.699-5.615-4.124-10.932-6.928-16.096
		c-0.932-1.715-1.948-3.386-2.828-5.129c-0.583-1.154-1.732-2.261-2.147-3.435c-0.617-1.738-0.315-3.733-0.875-5.527
		c-0.084-0.268-0.504-0.152-0.42,0.117c0.818,2.624,0.144,5.342,2.081,7.488c1.286,1.428,2.141,3.705,3.076,5.375
		c3.217,5.742,5.984,11.703,7.819,18.027c-0.522,2.671,0.034,7.276,0.034,8.907c0,0.411-0.024,0.916-0.05,1.474
		c-1.148,0.123-2.165,0.887-1.986,2.309c0.213,1.394,1.1,2.074,2.073,2.177c0.14,0.879,0.392,1.654,0.836,2.188
		c0.251,0.332,0.501,0.611,0.752,0.842c-3.062-0.805-4.604,0.52-5.783,2.511c-3.558-3.358-7.885-7.557-11.987-9.608
		c-2.223-1.11-5.226-0.495-3.093,1.841c-1.252,0.302-3.026,1.052-3.315,2.178c-1.055-1.053-2.126-2.095-3.361-2.938
		c-0.232-0.159-0.451,0.22-0.219,0.377c1.294,0.883,2.402,1.998,3.507,3.102c0.039,0.641,0.485,0.157,0.999-0.137
		c0.827-0.412,2.144-1.483,2.729-2.229c2.294,2.078,9.111,8.674,13.383,10.119c-0.281,0.603-0.569,1.211-0.885,1.797
		c-2.503,4.448-3.143,5.453-3.195,9.848c-5.724-1.572-14.62-6.583-19.643-1.702c0.021,0.022,0.054,0.035,0.076,0.057
		c-1.887,1.232-2.923,5.706-3.334,7.415c-0.069,0.636-0.911,3.821-0.51,4.68c-1.513-0.017-3.02-0.218-4.526,0.009
		C40.349,361.757,40.467,362.178,40.743,362.137z"/>
	<path style="fill:#595959;" d="M250.416,133.326c12.043,3.588,23.97,8.257,34.965,14.375c8.202,4.564,12.512,11.421,16.488,19.444
		c1.093-1.397,2.312-2.693,3.375-3.876l0.371,1.798l0.37-1.798c1.061,1.178,2.273,2.468,3.361,3.858
		c1.8-3.78,3.652-7.604,6.252-10.885c3.077-3.881,6.901-6.766,11.255-9.088c10.796-5.76,22.237-10.336,33.96-13.829
		c0.837-0.249,1.192,1.056,0.359,1.303c-11.584,3.451-23.014,7.904-33.638,13.692c-4.65,2.532-8.883,5.665-11.872,10.107
		c-2.113,3.143-3.775,6.535-5.411,9.939c0.892,1.316,1.618,2.715,1.937,4.207c3.307,0.45,0.144,5.268-3.488,8.003l0.966,0.251
		c1.32,0.293,2.086,0.851,2.61,1.529c1.34-2.672,3.06-5.198,4.948-7.496c1.205-1.484,2.874-3.803,4.635-4.729
		c0.555,0.906,0.361,1.674-0.056,2.41c0.142,1.498,0.311,2.989,0.534,4.475c0.792-0.761,1.568-1.541,2.438-2.209
		c1.4-1.077,2.987-1.797,4.208-3.113c0.593-0.641,1.546,0.316,0.954,0.955c-1.039,1.122-2.303,1.89-3.589,2.699
		c-1.506,0.949-2.686,2.339-4.012,3.511c-0.348,0.306-1.032,0.237-1.13-0.298c-0.256-1.418-0.424-2.846-0.574-4.275
		c-0.023,0.037-0.05,0.072-0.072,0.109c-1.02,1.761-1.669,3.8-2.689,5.563c-1.114,1.801-2.633,3.663-4.247,5.109
		c0.324,0.678,0.733,1.323,1.442,1.838c2.926,2.25,5.628,0.225,6.078,5.178c0.039,0.257,0.04,0.584,0.027,0.938
		c2.568-1.757,5.673-4.583,8.474-5.093c1.315-0.264,5.852-0.109,4.07,1.555c3.533,1.955,6.153,6.154,8.643,9.184
		c2.072,2.523,2.816,1.624,5.361,1.186c1.88-0.322,3.755-0.561,5.654-0.734c0.868-0.078,0.86,1.271,0,1.352
		c-2.862,0.262-5.477,0.93-8.243,1.516c-0.821,0.176-1.677,0.357-2.294-0.407c-1.511-1.873-2.973-3.761-4.537-5.594
		c-1.757-2.061-3.245-4.415-5.752-5.618c-0.032-0.016-0.047-0.039-0.074-0.057c-1.091,0.547-2.374,0.884-3.385,1.605
		c-1.854,1.111-3.708,2.317-5.563,3.43c-0.808,0.479-1.838,1.004-2.85,1.344c-0.765,4.285-2.024,10.314-1.108,15.205
		c0.036,0.189,0.092,0.391,0.133,0.583c6.984,2.935,12.319,9.824,17.055,15.409c0.533,0.684,2.977,3.423,4.18,5.518
		c1.648,0.846,2.875,3.938,3.236,5.113c1.484,4.08,1.484,9.27-0.741,13.221c-0.732,1.199-2.252,2.137-3.809,2.352
		c-0.453,1.461-0.972,2.904-1.381,4.379c-0.669,2.408-0.438,2.561,1.461,3.971c2.211,1.641,4.102,3.5,5.672,5.766
		c0.497,0.719-0.675,1.393-1.167,0.682c-2-2.887-4.597-5.109-7.667-6.801c-0.286-0.158-0.359-0.467-0.312-0.764
		c0.402-2.496,1.258-4.85,1.997-7.252c-0.839-0.15-1.619-0.566-2.211-1.342c-3.757-4.969,4.472-11.598,4.207-16.984
		c-1.221-0.49-3.215-1.923-3.712-2.421c-1.606-1.235-2.967-2.842-4.325-4.324c-3.091-3.338-6.181-6.428-9.642-9.395
		c-0.283-0.227-0.648-0.527-1.051-0.872c0.974,3.102,1.904,6.318,1.904,9.37c0,6.527-4.497,7.477-6.754,13.281
		c-1.966,5.052-6.874,13.754-11.03,15.702c-4.156-1.947-9.064-10.65-11.03-15.702c-2.257-5.805-6.755-6.754-6.755-13.281
		c0-3.052,0.932-6.268,1.905-9.37c-0.402,0.345-0.768,0.645-1.052,0.872c-3.461,2.967-6.55,6.057-9.642,9.395
		c-1.358,1.482-2.718,3.089-4.324,4.324c-0.497,0.498-2.491,1.931-3.712,2.421c-0.265,5.386,7.964,12.015,4.206,16.984
		c-0.592,0.775-1.372,1.191-2.211,1.342c0.739,2.402,1.596,4.756,1.998,7.252c0.047,0.297-0.025,0.605-0.311,0.764
		c-3.07,1.691-5.666,3.914-7.668,6.801c-0.491,0.711-1.663,0.037-1.165-0.682c1.541-2.227,3.417-4.242,5.672-5.766
		c1.903-1.289,2.182-1.666,1.459-3.971c-0.458-1.463-0.946-2.914-1.388-4.381c-1.555-0.215-3.07-1.154-3.801-2.35
		c-2.226-3.951-2.226-9.141-0.741-13.221c0.361-1.176,1.587-4.268,3.236-5.113c1.204-2.095,3.647-4.834,4.179-5.518
		c4.735-5.585,10.07-12.475,17.055-15.409c0.042-0.192,0.098-0.393,0.133-0.583c0.916-4.891-0.344-10.92-1.107-15.205
		c-1.012-0.34-2.042-0.865-2.85-1.344c-1.855-1.112-3.71-2.318-5.563-3.43c-1.01-0.722-2.294-1.059-3.385-1.605
		c-0.027,0.018-0.043,0.041-0.075,0.057c-2.799,1.344-4.548,4.232-6.537,6.521c-1.238,1.426-2.351,3.712-3.889,4.796
		c-0.965,0.683-1.763,0.472-2.874,0.083c-2.413-0.84-4.99-1.065-7.525-1.297c-0.859-0.08-0.868-1.43,0-1.352
		c2.122,0.193,4.737,0.233,6.76,0.951c2.001,0.711,2.772,0.406,4.257-1.402c2.488-3.029,5.108-7.229,8.642-9.184
		c-1.782-1.664,2.756-1.818,4.07-1.555c2.8,0.51,5.905,3.336,8.474,5.093c-0.014-0.354-0.012-0.682,0.027-0.938
		c0.449-4.953,3.151-2.928,6.078-5.178c0.708-0.515,1.118-1.16,1.441-1.838c-1.612-1.446-3.132-3.309-4.246-5.109
		c-1.02-1.763-1.669-3.802-2.688-5.563c-0.023-0.037-0.049-0.072-0.072-0.109c-0.15,1.43-0.318,2.857-0.574,4.275
		c-0.098,0.535-0.782,0.604-1.129,0.298c-1.323-1.169-2.504-2.577-4.013-3.511c-1.291-0.797-2.553-1.581-3.59-2.699
		c-0.591-0.639,0.362-1.596,0.955-0.955c1.22,1.316,2.808,2.036,4.208,3.113c0.869,0.668,1.646,1.448,2.439,2.209
		c0.223-1.485,0.393-2.977,0.534-4.475c-0.418-0.736-0.61-1.504-0.056-2.41c1.761,0.926,3.43,3.244,4.635,4.729
		c1.889,2.298,3.608,4.824,4.948,7.496c0.523-0.679,1.29-1.236,2.609-1.529l0.967-0.251c-3.632-2.735-6.795-7.553-3.488-8.003
		c0.32-1.494,1.047-2.895,1.941-4.213c-1.735-3.654-3.479-7.385-5.904-10.623c-3.294-4.395-7.566-7.435-12.4-9.96
		c-10.406-5.44-21.369-9.8-32.621-13.15C249.225,134.381,249.58,133.077,250.416,133.326z"/>
	<path style="fill:#595959;" d="M171.631,229.843l0.06-0.392c1.06,1.059,2.25,1.87,3.548,2.194
		c-1.414-4.992-3.608-8.816-4.41-11.422c-0.801-3.006-2.806-6.214-2.405-9.42l-1.18-1.313c3.025-0.777,8,2.318,11.646,3.396
		c-0.466,1.071,0.026,2.043,2.361,1.927c1.402-0.202,2.002-1.405,3.205-1.806c1.166-0.334,2.739-0.122,3.814-0.614
		c0.068,0.642,0.119,1.245,0.183,1.808c-7.987,2.061-11.37,13.539-6.489,20.332c2.64,3.6,7.438,10.795,12.236,11.278
		c0.098,0.008,0.183,0,0.276,0.004c0.095-0.004,0.179,0.004,0.275-0.004c4.8-0.482,9.599-7.678,12.238-11.278
		c4.882-6.793,1.499-18.271-6.49-20.332c0.064-0.563,0.114-1.166,0.183-1.808c1.076,0.492,2.65,0.28,3.815,0.614
		c1.202,0.4,1.803,1.604,3.206,1.806c2.335,0.116,2.826-0.855,2.359-1.927c3.645-1.077,8.62-4.173,11.647-3.396l-1.181,1.313
		c0.399,3.206-1.603,6.414-2.405,9.42c-0.802,2.605-2.997,6.43-4.409,11.422c1.297-0.324,2.487-1.135,3.546-2.192l0.06,0.39
		c0.802,5.21,0.802,10.42,2.205,15.23c0.802,2.805,1.203,11.221,2.805,12.623c3.608,3.006,2.206-3.408,1.604-4.809
		c-1.002-2.805-2.005-5.01-2.406-8.014c-0.801-4.61-2.003-9.22-2.003-14.028c0-0.653-0.133-2.344-0.474-3.564
		c1.312-1.893,2.304-4.025,2.879-5.654c0.711-1.775,3.936-11.263,1.589-12.696c-1.572-4.949-10.773,0.078-14.799,2.38
		c-0.253-0.189-0.528-0.359-0.817-0.506c-2.406-1.202-5.01-1.002-6.213-4.208l-0.27-0.54c0.055-0.628,0.112-1.249,0.165-1.891
		c4.853-0.758,12.559-5.77,14.733-7.79c0.201-0.192,0.371-0.367,0.528-0.538c1.701,2.323,5.928,4.945,7.489,6.35
		c2.002,1.804,3.005,3.808,4.609,6.012c1.265,1.808,2.041,3.115,2.769,1.297c1.954,2.047,4.83,3.754,7.251,5.116
		c2.806,1.603,8.016,2.204,8.217,5.813c0.801-1.605,1.603-3.206,2.605-4.61c-2.605,2.404-6.213-2.004-8.817-3.407
		c-2.67-1.246-5.813-4.225-8.868-5.017c-0.217-3.596-4.839-7.287-6.964-9.411c-2.605-2.806-5.21-5.812-9.419-4.21l0.049,0.025
		c-1.654,0.3-3.856,1.143-4.858,1.781c-3.187,1.686-5.499,5.128-9.066,5.564c0.105-1.191,0.217-2.381,0.347-3.556
		c0.047-0.4,0.099-0.823,0.149-1.256c4.138-1.88,9.074-6.771,8.969-10.89c3.537-3.115,3.41-8.422,3.41-13.314
		c0-0.396-0.003-1.146-0.075-1.928c2.308-1.804,4.087-4.254,6.286-6.286c2.406-2.006,6.213-2.406,8.018-4.008
		c-4.831-4.459-10.866,5.201-14.435,9.348c-0.232-1.215-0.728-2.176-1.798-1.532c-0.602,0.4-1.203,4.008-1.403,4.608
		c-0.911,3.642-1.004,7.448-1.913,11.12c-0.59,0.699-1.208,1.814-1.694,2.707c-1.296,2.591-3.106,4.496-5.11,6.354
		c-0.025-2.488-0.574-4.884-2.593-6.279c1.968-0.773,3.657-2.124,4.11-4.237c0.74-4.313-1.242-6.663-4.059-7.865
		c1.652-1.266,3.231-2.713,4.045-3.201c3.808-2.204,6.011-4.208,7.414-8.416c1.404-3.81,2.205-7.415,4.008-11.023
		c1.804-3.206,5.211-4.81,6.814-7.415c-7.615-1.202-9.819,12.625-11.624,17.637c-1.602,4.008-2.604,5.208-6.412,6.814
		c-2.681,1.07-6.304,2.154-8.055,4.647c-0.591-0.072-1.183-0.117-1.766-0.139c-0.582,0.021-1.174,0.066-1.765,0.139
		c-1.751-2.493-5.374-3.577-8.055-4.647c-3.806-1.605-4.809-2.806-6.413-6.814c-1.804-5.012-4.008-18.839-11.623-17.637
		c1.602,2.605,5.01,4.209,6.813,7.415c1.805,3.608,2.606,7.214,4.009,11.023c1.402,4.208,3.607,6.212,7.414,8.416
		c0.815,0.488,2.393,1.936,4.045,3.201c-2.818,1.202-4.799,3.553-4.059,7.865c0.453,2.113,2.142,3.464,4.109,4.237
		c-2.02,1.396-2.568,3.789-2.592,6.277c-2.005-1.855-3.814-3.761-5.109-6.352c-0.487-0.893-1.105-2.008-1.696-2.707
		c-0.91-3.674-1.003-7.478-1.914-11.12c-0.199-0.601-0.801-4.208-1.402-4.608c-1.07-0.644-1.566,0.317-1.798,1.532
		c-3.57-4.146-9.602-13.807-14.435-9.348c1.803,1.602,5.612,2.002,8.016,4.008c2.202,2.032,3.978,4.482,6.288,6.286
		c-0.073,0.781-0.075,1.531-0.075,1.928c0,4.892-0.127,10.196,3.408,13.312c-0.105,4.119,4.832,9.012,8.97,10.892
		c0.05,0.433,0.101,0.855,0.148,1.256c0.13,1.175,0.242,2.364,0.347,3.556c-3.567-0.437-5.877-3.878-9.066-5.564
		c-1.003-0.639-3.204-1.481-4.858-1.781l0.049-0.025c-4.208-1.602-6.813,1.404-9.418,4.21c-2.127,2.124-6.747,5.815-6.965,9.411
		c-3.055,0.794-6.199,3.77-8.867,5.017c-2.606,1.403-6.213,5.812-8.818,3.407c1.001,1.404,1.803,3.006,2.605,4.61
		c0.201-3.608,5.411-4.21,8.216-5.813c2.421-1.362,5.296-3.067,7.251-5.114c0.729,1.816,1.505,0.509,2.769-1.299
		c1.603-2.204,2.606-4.208,4.61-6.012c1.561-1.404,5.787-4.026,7.487-6.35c0.158,0.171,0.328,0.346,0.528,0.538
		c2.177,2.02,9.883,7.034,14.735,7.79c0.054,0.642,0.11,1.262,0.165,1.891l-0.27,0.54c-1.202,3.206-3.809,3.006-6.212,4.208
		c-0.289,0.146-0.564,0.317-0.817,0.506c-4.027-2.302-13.226-7.327-14.799-2.382c-2.35,1.431,0.877,10.921,1.586,12.698
		c0.576,1.63,1.568,3.762,2.881,5.654c-0.341,1.221-0.475,2.911-0.475,3.564c0,4.809-1.203,9.419-2.005,14.028
		c-0.401,3.004-1.402,5.209-2.403,8.014c-0.602,1.4-2.005,7.814,1.603,4.809c1.602-1.402,2.004-9.818,2.806-12.623
		C170.829,240.264,170.829,235.053,171.631,229.843z"/>
	<g>
		<path style="fill:#595959;" d="M44.512,206.136c-0.144-6.512,6.664-11.913,11.059-15.774c2.629-2.309,5.325-4.576,7.663-7.187
			c-2.89-1.768-5.22-3.912-5.575-6.161c0.06-0.005,0.128,0.007,0.19,0.005c-1.558-4.723,2.3-10.895,1.159-15.916
			c-0.54-2.155-0.54-5.122-1.349-6.471c-1.077-2.155-3.773-2.965-3.235-5.661c0.812,0.442,1.601,0.6,2.344,0.682
			c-0.726-2.521-1.741-6.722,1.431-4.457c-1.136,1.364-1.121,2.92-0.928,4.504c1.747,0.138,3.177,0.092,3.895,2.777
			c0.538,2.427-0.271,6.74-0.54,8.898c-0.269,5.124-2.158,9.976-1.348,15.099v0.757c1.803,0.511,4.042,1.84,6.223,3.243
			c2.304-2.913,4.544-5.87,7.421-8.255c-2.018-1.111,1.267-2.927,3.572-2.262c-6.94-8.222-8.862-24.55-1.308-30.424
			c-2.696,3.234-2.965,11.593,1.617,13.212c-3.357,5.754,1.604,11.935,6.538,15.509c4.932-3.574,9.891-9.755,6.534-15.509
			c4.585-1.618,4.315-9.977,1.617-13.212c7.556,5.875,5.635,22.203-1.308,30.424c2.305-0.667,5.592,1.15,3.573,2.262
			c2.888,2.399,5.064,5.385,7.388,8.276c2.191-1.412,4.445-2.752,6.258-3.265v-0.757c0.81-5.123-1.079-9.976-1.35-15.099
			c-0.268-2.158-1.078-6.471-0.54-8.898c0.717-2.684,2.146-2.639,3.894-2.777c0.194-1.585,0.211-3.141-0.927-4.504
			c3.174-2.265,2.158,1.936,1.432,4.457c0.743-0.082,1.533-0.239,2.345-0.682c0.538,2.696-2.158,3.506-3.237,5.661
			c-0.807,1.35-0.807,4.316-1.348,6.471c-1.141,5.02,2.715,11.193,1.159,15.916c0.062,0.002,0.129-0.01,0.188-0.005
			c-0.355,2.253-2.692,4.4-5.59,6.17c2.372,2.598,5.05,4.848,7.679,7.177c4.388,3.885,11.205,9.246,11.057,15.774
			c-0.005,0.261-0.411,0.261-0.404,0c0.16-7.13-8.067-12.98-12.881-17.188c-2.027-1.771-3.999-3.576-5.798-5.562
			c-2.438,1.443-5.213,2.618-7.533,3.366c-0.271,1.915,0.324,3.893,1.605,6.172c-1.886,0-4.313-0.271-5.122,1.887
			c0.809,0.269,1.348,0.538,2.157,0.809c-1.568,0.348-2.687,1.26-3.863,2.153c6.845,2.546,9.587,7.466,10.605,13.376
			c2.678,0.65,5.412,2.448,5.93,4.693c-0.022,0.013-0.044,0.019-0.067,0.032c1.664,2.278,2.502,5.115,3.859,7.83
			c1.619,2.696,5.584,10.164,5.853,12.861c-0.483-0.242-0.964-0.275-1.426-0.197c0.539,0.692,0.885,1.865,1.112,2.373
			c0.232,0.374,0.511,0.515,0.185,0.934c-0.092,0.188-0.604,0.28-0.792,0.372c-0.419,0.28-0.56,0.747-0.747,0.188
			c-0.14-0.372,0.14-1.119,0.14-1.538c-0.045-0.747-0.325-1.493-0.744-2.053h0c-0.73,0.367-1.358,0.987-1.772,1.538
			c0.705-6.115-2.776-15.792-6.182-22.102c-1.728,0.515-3.628-0.729-4.995-2.224c0.44,4.895,0.018,10.282-0.085,15.47
			c-0.015,0.369-0.028,0.736-0.042,1.103c2.243,0.637,4.09,1.853,3.548,3.751c-0.093,0.369-0.228,0.626-0.389,0.81
			c2.92,3.469,2.825,11.501,2.949,15.096c0.136,0.675,0.809,4.18,0.54,4.853c-0.164,0.383-0.484,0.629-0.868,0.818
			c0.567,0.712,0.839,2.042,1.274,2.822c0.404,0.808,1.751,1.617,0.538,2.696c-0.055,0.056-0.647,0.133-1.362,0.203
			c0.597,0.887,0.722,2.309,1.631,2.762c-0.54,0.541-1.348,0.811-2.021,0.676c0.391-1.174,0.771-2.225-0.064-3.393
			c-0.943,0.087-1.954,0.155-2.229,0.155c0.133-0.537,0-1.348,0.269-1.886c-0.269,0-0.54-0.27-0.808-0.406
			c0.135-1.076,1.078-2.02,1.481-3.1v-0.061c-0.186,0.061-0.37,0.124-0.538,0.194c-0.801-7.079,1.04-14.159-1.42-21.11
			c-0.78,0.058-1.808-0.743-2.651-1.587c-0.177,4.92-0.415,9.754-1.456,14.744c-1.078,5.933-8.359,12.132-14.83,11.325
			c-0.504-0.074-0.974-0.222-1.411-0.423c-0.439,0.201-0.908,0.349-1.413,0.423c-6.471,0.808-13.751-5.392-14.83-11.325
			c-1.04-4.991-1.277-9.825-1.455-14.745c-0.844,0.845-1.873,1.646-2.653,1.588c-2.458,6.951-0.619,14.031-1.419,21.11
			c-0.169-0.07-0.354-0.134-0.541-0.194v0.061c0.404,1.079,1.349,2.023,1.483,3.1c-0.269,0.137-0.538,0.406-0.809,0.406
			c0.271,0.538,0.135,1.349,0.271,1.886c-0.276,0-1.287-0.069-2.231-0.155c-0.834,1.168-0.453,2.219-0.062,3.393
			c-0.675,0.135-1.483-0.135-2.023-0.676c0.909-0.453,1.033-1.875,1.63-2.762c-0.713-0.07-1.305-0.147-1.359-0.203
			c-1.213-1.079,0.135-1.889,0.539-2.696c0.434-0.78,0.705-2.11,1.272-2.822c-0.383-0.189-0.704-0.436-0.867-0.818
			c-0.271-0.673,0.405-4.178,0.539-4.853c0.124-3.595,0.029-11.627,2.95-15.096c-0.16-0.184-0.295-0.441-0.388-0.81
			c-0.543-1.899,1.304-3.114,3.547-3.751c-0.014-0.366-0.026-0.733-0.041-1.103c-0.104-5.189-0.526-10.576-0.085-15.471
			c-1.369,1.495-3.269,2.737-4.997,2.225c-3.406,6.311-6.888,15.987-6.183,22.102c-0.414-0.551-1.041-1.17-1.771-1.538h0
			c-0.419,0.56-0.699,1.306-0.745,2.053c0,0.419,0.279,1.166,0.138,1.538c-0.186,0.56-0.324,0.092-0.746-0.188
			c-0.186-0.092-0.699-0.185-0.792-0.372c-0.326-0.419-0.046-0.559,0.188-0.934c0.226-0.508,0.572-1.681,1.11-2.373
			c-0.462-0.078-0.943-0.045-1.427,0.197c0.271-2.697,4.237-10.165,5.854-12.861c1.358-2.715,2.195-5.551,3.86-7.83
			c-0.023-0.012-0.047-0.019-0.069-0.032c0.519-2.245,3.254-4.041,5.932-4.693c1.019-5.91,3.761-10.83,10.605-13.376
			c-1.176-0.893-2.294-1.805-3.864-2.153c0.81-0.271,1.349-0.54,2.158-0.809c-0.81-2.158-3.237-1.887-5.123-1.887
			c1.282-2.279,1.877-4.257,1.606-6.172c-2.325-0.75-5.107-1.927-7.549-3.375c-1.805,1.981-3.748,3.796-5.784,5.571
			c-4.816,4.203-13.04,10.062-12.88,17.188C44.922,206.398,44.518,206.398,44.512,206.136z"/>
		<path style="fill:#595959;" d="M89.51,182.117c3.104-0.068,6.049-0.292,8.993-0.518c-0.487,0.488-0.91,0.966-1.274,1.439
			c1.105-0.69,2.341-1.519,3.607-2.34c-2.315-2.938-4.568-5.909-7.482-8.294c-0.505,0.195-1.229,0.354-2.192,0.461
			C91.995,176.143,91.845,179.855,89.51,182.117z"/>
		<path style="fill:#595959;" d="M65.852,180.704c1.264,0.82,2.496,1.646,3.598,2.335c-0.365-0.474-0.787-0.952-1.275-1.439
			c2.942,0.226,5.888,0.45,8.991,0.518c-2.336-2.262-2.485-5.974-1.651-9.252c-0.962-0.107-1.685-0.266-2.19-0.46
			C70.4,174.799,68.195,177.783,65.852,180.704z"/>
	</g>
	<path style="fill:#595959;" d="M459.642,215.275c-0.572-1.71-4.95-5.89-7.785-7.896c0.571-0.375,0.832-1.047,0.614-1.844
		c-0.947-3.112-4.463-5.413-6.493-7.576c-2.52-2.75-4.281-4.812-7.386-6.038c-1.15-2.742-2.935-4.955-5.859-6.151
		c0.266-0.17,0.53-0.343,0.796-0.529c2.229-1.561,2.988-1.107,2.884-3.164c2.4-0.78,5.194-3.795,6.182-5.359
		c0.541-0.947,0.677-2.164,1.353-2.976c0.407-0.812,1.353-1.218,1.761-1.893c0.132-0.406-0.542-0.812-0.272-1.353
		c0.272-0.542,0.947-0.812,1.08-1.354c0.407-0.812,1.492-0.812,0.273-1.624c1.219-1.893,1.486-2.434-0.95-2.028
		c-0.296,0.054-0.691,0.153-1.118,0.272c2.281-3.788,5.978-6.655,6.803-11.367c-2.706-1.488-3.11,2.707-3.516,4.194
		c-0.616,1.743-4.801,5.66-5.675,7.985c-1.063,0.43-2,0.917-2.311,1.349c-1.19,1.311-2.383,9.013-4.498,9.912
		c-0.469-1.425-1.036-2.753-1.725-3.958c-2.05-3.189-4.87-5.8-8.294-7.353c0.206-0.999,0.046-2.245-0.633-3.741
		c-0.088-0.174-0.181-0.356-0.276-0.546c1.722-0.617,3.462-2.196,5.146-1.753c2.162,0.675,2.435,2.299,4.058-0.543
		c0.405-0.811,1.805-3.08,1.48-4.543c-0.733,0.457-2.707,2.955-2.807,4.843c-2.688-0.855-6.283-1.833-8.746,0.38
		c-1.534-2.686-3.829-5.713-6.975-5.585c-3.145-0.129-5.441,2.898-6.972,5.585c-2.464-2.214-6.058-1.236-8.747-0.381
		c-0.1-1.888-2.072-4.386-2.807-4.843c-0.323,1.463,1.075,3.732,1.482,4.543c1.623,2.842,1.892,1.218,4.056,0.543
		c1.683-0.443,3.424,1.136,5.147,1.753c-0.095,0.19-0.188,0.373-0.275,0.546c-0.681,1.496-0.84,2.742-0.635,3.741
		c-3.424,1.553-6.243,4.164-8.292,7.353c-0.69,1.205-1.257,2.532-1.728,3.958c-2.115-0.9-3.309-8.601-4.499-9.912
		c-0.309-0.432-1.249-0.919-2.31-1.349c-0.873-2.326-5.056-6.242-5.673-7.985c-0.406-1.487-0.81-5.683-3.516-4.194
		c0.824,4.712,4.519,7.579,6.801,11.367c-0.429-0.119-0.824-0.218-1.119-0.272c-2.436-0.406-2.166,0.135-0.947,2.028
		c-1.219,0.812-0.136,0.812,0.27,1.624c0.136,0.542,0.813,0.812,1.084,1.354c0.27,0.542-0.406,0.947-0.272,1.353
		c0.406,0.675,1.354,1.081,1.76,1.893c0.676,0.812,0.812,2.029,1.354,2.976c0.986,1.565,3.779,4.58,6.181,5.359
		c-0.104,2.057,0.653,1.604,2.884,3.164c0.266,0.186,0.531,0.359,0.797,0.529c-2.926,1.197-4.71,3.41-5.86,6.151
		c-3.105,1.226-4.863,3.288-7.385,6.038c-2.03,2.163-5.546,4.464-6.493,7.576c-0.218,0.796,0.041,1.469,0.611,1.844
		c-2.834,2.006-7.211,6.186-7.782,7.896c-0.811,2.436-0.406,6.629,0.813,8.93c-0.813-2.976,1.354-5.682,2.434-8.388
		c1.2-2.799,5.408-5.333,5.924-8.124c0.224-0.018,0.459-0.057,0.707-0.129c1.486-0.406,2.976-2.976,3.923-4.057
		c0.947-1.218,1.624-2.436,2.706-3.384c0.806-0.805,1.864-1.439,2.931-2.052c-0.271,1.73-0.457,3.521-0.629,5.301
		c-0.289,2.733-0.272,9.136,0.054,15.306c-0.947,0.66-1.882,1.895-2.626,3.633c-1.624,3.654-2.301,7.711-3.113,11.636
		c-0.675,2.976-0.541,5.817-2.027,8.659c-0.811,1.622-2.165,2.705-0.27,3.922c0.277,0.139,0.587,0.182,0.907,0.205
		c-0.386,4.045-3.773,6.799-4.155,10.755c-0.136,3.248,0.272,8.388,4.328,8.931c-0.81-2.571-1.216-3.654-1.351-6.359
		c0-1.354-1.76-5.144,0.945-4.736c0.27-2.164,0.948-2.57,2.029-4.464c0.353-0.531,0.811-1.522,1-2.473
		c0.262,0.43,0.494,0.855,0.76,1.12c1.873-6.953,0.185-15.487,4.324-21.953c0.232,1.767,0.505,3.24,0.815,4.229
		c0.814,2.977,4.602,10.011,6.226,12.446c2.704,4.331,5.141,2.977,9.197,4.331c2.678,0.67,4.62,2.99,7.035,3.331
		c2.42-0.341,4.362-2.661,7.036-3.331c4.06-1.354,6.492,0,9.199-4.331c1.625-2.435,5.414-9.468,6.224-12.446
		c0.313-0.989,0.584-2.462,0.817-4.229c4.137,6.466,2.452,15,4.325,21.953c0.263-0.265,0.496-0.69,0.76-1.12
		c0.189,0.951,0.645,1.942,0.997,2.473c1.085,1.894,1.759,2.3,2.029,4.464c2.707-0.407,0.947,3.382,0.947,4.736
		c-0.135,2.705-0.54,3.788-1.353,6.359c4.06-0.543,4.467-5.683,4.332-8.931c-0.383-3.956-3.772-6.71-4.156-10.755
		c0.319-0.023,0.63-0.066,0.908-0.205c1.895-1.217,0.541-2.3-0.271-3.922c-1.489-2.842-1.352-5.684-2.031-8.659
		c-0.809-3.925-1.486-7.982-3.109-11.636c-0.744-1.738-1.68-2.974-2.627-3.633c0.325-6.17,0.344-12.573,0.055-15.306
		c-0.173-1.779-0.358-3.57-0.628-5.301c1.064,0.614,2.122,1.247,2.929,2.052c1.084,0.948,1.76,2.166,2.704,3.384
		c0.95,1.082,2.436,3.651,3.925,4.057c0.249,0.072,0.482,0.111,0.706,0.129c0.515,2.791,4.726,5.326,5.924,8.124
		c1.082,2.706,3.248,5.412,2.435,8.388C460.047,221.904,460.454,217.711,459.642,215.275z"/>
	
		<text transform="matrix(1 0 0 1 196.9981 90.0965)" style="fill:#595959; font-family:'Poppins-MediumItalic'; font-size:14.9831px; letter-spacing:1;">Collection</text>
</g>
<g id="DESIGNED_BY_FREEPIK">
	<g>
		<g id="XMLID_1_">
			<g id="XMLID_20_">
				<path id="XMLID_28_" style="fill:#A5B7C6;" d="M260.104,467.455c-0.434,0.443-0.805,0.932-1.109,1.453l-0.465-0.241
					c-0.066-0.297-0.35-0.502-0.658-0.466c-0.332,0.039-0.568,0.339-0.529,0.67c0.039,0.331,0.338,0.567,0.67,0.528
					c0.064-0.007,0.127-0.025,0.184-0.052l0.451,0.234c-0.252,0.554-0.434,1.139-0.539,1.743l0.746,0.132
					c0.23-1.306,0.85-2.507,1.793-3.473L260.104,467.455z"/>
				<path id="XMLID_27_" style="fill:#A5B7C6;" d="M265.591,465.153c-0.17,0-0.34,0.006-0.508,0.017l-0.074-0.626
					c0.188-0.149,0.295-0.389,0.266-0.645c-0.047-0.393-0.402-0.674-0.795-0.628c-0.395,0.046-0.676,0.402-0.629,0.796
					c0.031,0.254,0.189,0.461,0.404,0.563l0.074,0.624c-0.715,0.116-1.402,0.332-2.061,0.645l0.328,0.685
					c0.934-0.447,1.941-0.674,2.994-0.674c0.498,0,0.994,0.053,1.477,0.158l0.16-0.741
					C266.692,465.212,266.142,465.153,265.591,465.153z"/>
				<path id="XMLID_26_" style="fill:#A5B7C6;" d="M272.194,467.7c0.33-0.04,0.566-0.341,0.525-0.672
					c-0.041-0.331-0.342-0.566-0.672-0.525c-0.311,0.038-0.535,0.304-0.531,0.608l-0.416,0.363c-0.418-0.43-0.889-0.813-1.406-1.14
					l-0.404,0.642c1.135,0.715,2.02,1.727,2.562,2.925l0.691-0.313c-0.252-0.554-0.568-1.071-0.943-1.545l0.402-0.351
					C272.065,467.705,272.128,467.709,272.194,467.7z"/>
				<path id="XMLID_25_" style="fill:#A5B7C6;" d="M265.044,475.361c-0.385,0.023-0.775,0.035-1.156,0.035
					c-0.881,0-1.734-0.061-2.479-0.18c-0.391-0.061-0.846-0.154-1.271-0.292c1.047,1.861,3.07,3.125,5.389,3.125
					c2.855,0,5.264-1.916,5.949-4.503c-0.682,0.449-1.504,0.825-2.457,1.122C267.839,475.037,266.464,475.276,265.044,475.361z"/>
				<path id="XMLID_21_" style="fill:#A5B7C6;" d="M265.591,466.67c-3.352,0-6.078,2.666-6.078,5.943
					c0,0.425,0.045,0.849,0.137,1.261c0.674,0.483,2.705,0.891,5.348,0.732c2.879-0.174,5.297-0.958,6.672-2.159
					c-0.006-0.194-0.021-0.39-0.045-0.581C271.243,468.903,268.649,466.67,265.591,466.67z M263.433,473.185
					c-1.02,0-1.85-0.83-1.85-1.85c0-1.02,0.83-1.851,1.85-1.851s1.85,0.83,1.85,1.851
					C265.282,472.354,264.452,473.185,263.433,473.185z M268.169,472.276c-0.75,0-1.359-0.61-1.359-1.36s0.609-1.36,1.359-1.36
					s1.361,0.61,1.361,1.36S268.919,472.276,268.169,472.276z"/>
			</g>
			<path id="XMLID_18_" style="fill:#A5B7C6;" d="M281.595,468.537c-0.295-0.116-0.805-0.31-1.383-0.238
				c-0.551,0.069-0.844,0.341-0.844,1.007v0.866h2.228v1.717h-2.228v5.455h-1.932v-5.455h-1.338v-1.717h1.338v-0.889
				c0-1.68,0.897-2.782,2.568-2.782c0.643,0,1.158,0.121,1.59,0.308V468.537z"/>
			<path id="XMLID_16_" style="fill:#A5B7C6;" d="M286.298,471.868c-0.178-0.029-0.357-0.046-0.525-0.046
				c-0.896,0-1.51,0.548-1.51,1.613v3.908h-1.934v-7.172h1.873v0.784c0.451-0.673,1.141-0.977,2.022-0.977
				c0.414,0,0.848,0.128,1.094,0.337L286.298,471.868z"/>
			<path id="XMLID_13_" style="fill:#A5B7C6;" d="M293.966,473.747c0,0.222-0.016,0.488-0.037,0.651h-5.086
				c0.207,1.036,0.934,1.487,1.844,1.487c0.621,0,1.295-0.252,1.813-0.688l1.133,1.243c-0.814,0.748-1.85,1.089-3.057,1.089
				c-2.197,0-3.723-1.496-3.723-3.753c0-2.258,1.481-3.797,3.627-3.797C292.544,469.979,293.958,471.512,293.966,473.747z
				 M288.851,473.081h3.176c-0.178-0.918-0.733-1.437-1.563-1.437C289.554,471.645,289.02,472.192,288.851,473.081z"/>
			<path id="XMLID_10_" style="fill:#A5B7C6;" d="M301.618,473.747c0,0.222-0.016,0.488-0.037,0.651h-5.084
				c0.207,1.036,0.932,1.487,1.842,1.487c0.623,0,1.297-0.252,1.814-0.688l1.133,1.243c-0.814,0.748-1.852,1.089-3.059,1.089
				c-2.197,0-3.723-1.496-3.723-3.753c0-2.258,1.48-3.797,3.627-3.797C300.196,469.979,301.61,471.512,301.618,473.747z
				 M296.505,473.081h3.174c-0.178-0.918-0.732-1.437-1.56-1.437C297.208,471.645,296.675,472.192,296.505,473.081z"/>
			<path id="XMLID_7_" style="fill:#A5B7C6;" d="M309.964,473.754c0,2.154-1.494,3.775-3.471,3.775
				c-0.963,0-1.645-0.378-2.109-0.933v3.708h-1.926v-10.133h1.889v0.792c0.467-0.585,1.154-0.984,2.139-0.984
				C308.47,469.979,309.964,471.601,309.964,473.754z M304.286,473.754c0,1.133,0.748,1.977,1.844,1.977
				c1.141,0,1.85-0.881,1.85-1.977c0-1.095-0.709-1.976-1.85-1.976C305.034,471.778,304.286,472.622,304.286,473.754z"/>
			<path id="XMLID_4_" style="fill:#A5B7C6;" d="M313.067,467.825c0,0.696-0.541,1.229-1.236,1.229
				c-0.695,0-1.229-0.533-1.229-1.229c0-0.695,0.533-1.243,1.229-1.243C312.526,466.582,313.067,467.13,313.067,467.825z
				 M312.808,477.344h-1.932v-7.172h1.932V477.344z"/>
			<path id="XMLID_2_" style="fill:#A5B7C6;" d="M316.032,472.726l2.701-2.554h2.369l-3.478,3.375l3.5,3.797h-2.375l-2.717-2.901
				v2.901h-1.932v-10.658h1.932V472.726z"/>
		</g>
		<g>
			<path style="fill:#A5B7C6;" d="M184.412,477.279v-1.055c-0.527,0.718-1.391,1.23-2.387,1.23c-1.846,0-3.149-1.406-3.149-3.706
				c0-2.256,1.289-3.721,3.149-3.721c0.952,0,1.816,0.469,2.387,1.245v-3.765h1.1v9.771H184.412z M184.412,475.36v-3.208
				c-0.395-0.615-1.244-1.143-2.124-1.143c-1.42,0-2.27,1.172-2.27,2.739c0,1.567,0.85,2.725,2.27,2.725
				C183.168,476.474,184.018,475.976,184.412,475.36z"/>
			<path style="fill:#A5B7C6;" d="M186.932,473.734c0-2.051,1.465-3.706,3.486-3.706c2.139,0,3.398,1.67,3.398,3.794v0.278h-5.727
				c0.088,1.333,1.025,2.446,2.549,2.446c0.806,0,1.626-0.322,2.183-0.894l0.527,0.718c-0.703,0.703-1.655,1.084-2.813,1.084
				C188.44,477.455,186.932,475.946,186.932,473.734z M190.403,470.936c-1.509,0-2.256,1.274-2.314,2.358h4.643
				C192.718,472.24,192.015,470.936,190.403,470.936z"/>
			<path style="fill:#A5B7C6;" d="M194.607,476.342l0.571-0.791c0.469,0.542,1.362,1.011,2.328,1.011
				c1.085,0,1.671-0.513,1.671-1.216c0-1.714-4.38-0.659-4.38-3.281c0-1.099,0.951-2.036,2.636-2.036
				c1.202,0,2.052,0.454,2.623,1.025l-0.514,0.762c-0.424-0.513-1.2-0.893-2.109-0.893c-0.966,0-1.566,0.483-1.566,1.113
				c0,1.553,4.379,0.527,4.379,3.281c0,1.186-0.951,2.139-2.782,2.139C196.307,477.455,195.325,477.103,194.607,476.342z"/>
			<path style="fill:#A5B7C6;" d="M201.477,468.461c0-0.41,0.337-0.747,0.732-0.747c0.41,0,0.747,0.337,0.747,0.747
				c0,0.41-0.337,0.732-0.747,0.732C201.814,469.193,201.477,468.871,201.477,468.461z M201.667,477.279v-7.075h1.1v7.075H201.667z"
				/>
			<path style="fill:#A5B7C6;" d="M204.582,479.096l0.557-0.82c0.586,0.703,1.289,0.967,2.3,0.967c1.172,0,2.271-0.571,2.271-2.124
				v-1.011c-0.513,0.718-1.377,1.26-2.373,1.26c-1.846,0-3.149-1.377-3.149-3.662c0-2.271,1.289-3.677,3.149-3.677
				c0.952,0,1.802,0.469,2.373,1.245v-1.069h1.099v6.87c0,2.344-1.641,3.076-3.369,3.076
				C206.237,480.15,205.417,479.915,204.582,479.096z M209.709,475.243v-3.091c-0.381-0.615-1.23-1.143-2.109-1.143
				c-1.421,0-2.271,1.128-2.271,2.695c0,1.553,0.85,2.695,2.271,2.695C208.479,476.4,209.328,475.858,209.709,475.243z"/>
			<path style="fill:#A5B7C6;" d="M217.413,477.279v-4.629c0-1.245-0.63-1.641-1.582-1.641c-0.864,0-1.685,0.527-2.094,1.099v5.171
				h-1.1v-7.075h1.1v1.025c0.497-0.586,1.464-1.201,2.519-1.201c1.48,0,2.256,0.747,2.256,2.285v4.966H217.413z"/>
			<path style="fill:#A5B7C6;" d="M219.933,473.734c0-2.051,1.465-3.706,3.486-3.706c2.139,0,3.398,1.67,3.398,3.794v0.278h-5.728
				c0.088,1.333,1.025,2.446,2.549,2.446c0.806,0,1.626-0.322,2.183-0.894l0.527,0.718c-0.703,0.703-1.655,1.084-2.813,1.084
				C221.441,477.455,219.933,475.946,219.933,473.734z M223.404,470.936c-1.509,0-2.256,1.274-2.314,2.358h4.644
				C225.719,472.24,225.016,470.936,223.404,470.936z"/>
			<path style="fill:#A5B7C6;" d="M233.351,477.279v-1.055c-0.527,0.718-1.392,1.23-2.389,1.23c-1.845,0-3.148-1.406-3.148-3.706
				c0-2.256,1.288-3.721,3.148-3.721c0.952,0,1.817,0.469,2.389,1.245v-3.765h1.098v9.771H233.351z M233.351,475.36v-3.208
				c-0.396-0.615-1.245-1.143-2.124-1.143c-1.421,0-2.271,1.172-2.271,2.739c0,1.567,0.85,2.725,2.271,2.725
				C232.105,476.474,232.954,475.976,233.351,475.36z"/>
			<path style="fill:#A5B7C6;" d="M239.692,477.279v-9.771h1.099v3.765c0.571-0.776,1.421-1.245,2.388-1.245
				c1.845,0,3.149,1.465,3.149,3.721c0,2.3-1.305,3.706-3.149,3.706c-0.996,0-1.86-0.513-2.388-1.23v1.055H239.692z M242.9,476.474
				c1.436,0,2.285-1.157,2.285-2.725c0-1.567-0.85-2.739-2.285-2.739c-0.864,0-1.729,0.527-2.109,1.143v3.208
				C241.172,475.976,242.036,476.474,242.9,476.474z"/>
			<path style="fill:#A5B7C6;" d="M247.528,479.052c0.161,0.073,0.426,0.117,0.601,0.117c0.483,0,0.806-0.161,1.055-0.747
				l0.469-1.069l-2.959-7.148h1.187l2.358,5.801l2.345-5.801h1.199l-3.544,8.511c-0.425,1.024-1.143,1.421-2.08,1.436
				c-0.234,0-0.601-0.044-0.806-0.103L247.528,479.052z"/>
		</g>
	</g>
</g>
</svg>
