<?xml version="1.0" encoding="UTF-8" standalone="no"?>
<!-- Created with Inkscape (http://www.inkscape.org/) -->

<svg
   width="18.219999mm"
   height="28.49mm"
   viewBox="0 0 18.219999 28.49"
   version="1.1"
   id="svg1"
   inkscape:version="1.4.3 (0d15f75, 2025-12-25)"
   sodipodi:docname="ant.svg"
   xmlns:inkscape="http://www.inkscape.org/namespaces/inkscape"
   xmlns:sodipodi="http://sodipodi.sourceforge.net/DTD/sodipodi-0.dtd"
   xmlns="http://www.w3.org/2000/svg"
   xmlns:svg="http://www.w3.org/2000/svg">
  <sodipodi:namedview
     id="namedview1"
     pagecolor="#ffffff"
     bordercolor="#000000"
     borderopacity="0.25"
     inkscape:showpageshadow="2"
     inkscape:pageopacity="0.0"
     inkscape:pagecheckerboard="0"
     inkscape:deskcolor="#d1d1d1"
     inkscape:document-units="mm"
     inkscape:zoom="0.72604517"
     inkscape:cx="396.66953"
     inkscape:cy="561.25984"
     inkscape:window-width="1920"
     inkscape:window-height="1017"
     inkscape:window-x="-8"
     inkscape:window-y="-8"
     inkscape:window-maximized="1"
     inkscape:current-layer="layer1" />
  <defs
     id="defs1" />
  <g
     inkscape:label="Layer 1"
     inkscape:groupmode="layer"
     id="layer1">
    <path
       d="m 18.196065,21.109363 c -0.164839,-0.383124 -0.422811,-0.668879 -0.567806,-0.713595 -0.125944,-0.03651 -0.19262,-0.06059 -0.216169,-0.146845 -0.03784,-0.13891 -0.09922,-0.3056 -0.233102,-0.363016 -0.143935,-0.0598 -0.228339,-0.151874 -0.248183,-0.271996 -0.01667,-0.09895 -0.142613,-0.237071 -0.287871,-0.396618 -0.129649,-0.142877 -0.277553,-0.30454 -0.332058,-0.42678 -0.265912,-0.753018 -0.50113,-1.635947 -0.727353,-2.490303 -0.339996,-1.282722 -0.661735,-2.494271 -1.058617,-3.142247 -0.01164,-0.0209 -0.0217,-0.0545 -0.03281,-0.08705 -0.0098,-0.03281 -0.0209,-0.06747 -0.0344,-0.09446 -0.01879,-0.03545 -0.04868,-0.0672 -0.09049,-0.09313 -0.04948,-0.03175 -0.133881,-0.04762 -0.25612,-0.04762 -0.598234,0 -2.155864,0.408788 -2.906765,1.075286 -0.03545,0.03175 -0.0635,0.05371 -0.07832,0.0635 -0.0093,-0.0032 -0.02699,-0.01085 -0.06165,-0.02884 -0.02355,-0.01191 -0.04736,-0.04868 -0.04736,-0.08731 0.0021,-0.254004 -0.03387,-0.387886 -0.08837,-0.510919 -0.0011,-0.0029 -0.0021,-0.0048 -0.0026,-0.0058 0.0048,0 0.0079,-0.0011 0.0079,-0.0011 0.262736,0.02302 0.413816,-0.06456 0.49187,-0.137851 0.05768,-0.05371 0.110333,-0.09419 0.144993,-0.111921 1.036921,-0.537907 2.894858,-3.6203568 3.114202,-4.416238 0.01085,-0.039691 0.04789,-0.081231 0.08334,-0.093132 0.180713,-0.059531 0.463559,-0.1926204 0.778947,-0.4849906 0.01085,-0.01005 0.02275,-0.035721 0.02196,-0.051861 -0.0021,-0.01587 -0.0079,-0.02778 -0.01799,-0.037571 0.0545,-0.042601 0.14182,-0.1021308 0.226223,-0.1608699 0.13203,-0.091282 0.256915,-0.1775381 0.309568,-0.2301911 0.01297,-0.01296 0.0209,-0.040751 0.01667,-0.058471 -0.009,-0.03096 -0.03651,-0.044721 -0.0672,-0.053711 0.112979,-0.110334 0.236012,-0.2153749 0.336291,-0.3016304 0.196324,-0.17066 0.221196,-0.1936784 0.214317,-0.2362772 0,-0.0026 -0.0011,-0.0048 -0.0021,-0.0079 0.0545,-0.042601 0.06826,-0.057411 0.0725,-0.091022 0.0029,-0.02805 0.06138,-0.1092749 0.168542,-0.2352191 0.04154,-0.050531 0.08123,-0.093132 0.118006,-0.1280603 0.05054,-0.047631 0.07646,-0.071441 0.06138,-0.110334 -0.0029,-0.009 -0.0098,-0.01667 -0.01773,-0.02249 0.0011,-0.0082 0.0048,-0.01799 0.01296,-0.029901 0.101073,-0.1418195 0.339202,-0.1746281 0.511713,-0.1984415 0.139967,-0.01879 0.224371,-0.030691 0.239188,-0.097372 0.0127,-0.057411 -0.04366,-0.1042479 -0.107158,-0.1468467 -0.128061,-0.084402 -0.277818,-0.1307063 -0.422547,-0.1307063 -0.248184,0 -0.451652,0.1307063 -0.559868,0.3590454 -0.01376,-0.01191 -0.03069,-0.01799 -0.04842,-0.01799 -0.05054,0 -0.09419,0.044711 -0.143672,0.1508147 -0.01905,0.039691 -0.116154,0.2500354 -0.15981,0.4336597 -0.0061,0.02275 -0.0098,0.02699 -0.01984,0.039691 -0.009,0.01085 -0.02011,0.02381 -0.03281,0.046831 -0.0082,0.01614 -0.01799,0.034921 -0.02963,0.056621 -0.04577,0.086252 -0.112185,0.2121998 -0.19553,0.3124786 -0.01667,-0.039691 -0.03678,-0.082292 -0.08123,-0.082292 -0.01296,0 -0.03493,0.009 -0.04366,0.01773 -0.07064,0.067471 -0.141025,0.1717181 -0.216432,0.282845 -0.05159,0.077261 -0.104248,0.1566358 -0.158753,0.225164 -0.0021,-0.0079 -0.0058,-0.01587 -0.01191,-0.02196 -0.01773,-0.0209 -0.06059,-0.0209 -0.08123,-0.0048 -0.07541,0.062441 -0.16087,0.1399664 -0.248977,0.2182848 -0.130972,0.1180061 -0.264853,0.2391873 -0.381007,0.3225328 -0.0426,0.030691 -0.12224,0.070381 -0.169601,0.095252 -0.379155,0.1905034 -0.517799,0.4445079 -0.975271,1.2877499 -0.124887,0.2301911 -0.274908,0.505892 -0.460384,0.8374202 -1.096188,1.956364 -1.631185,2.248999 -1.851322,2.248999 -0.02566,0 -0.04948,-0.0037 -0.0725,-0.01085 -0.05477,-0.01773 -0.107158,-0.02778 -0.156635,-0.02778 -0.183625,0 -0.300837,0.116154 -0.393972,0.209289 l -0.03757,0.03572 c -0.0011,-0.0011 -0.0071,-0.005 -0.01085,-0.01879 -0.212464,-0.67761 -0.825515,-1.272933 -1.1835023,-1.57377 0.7220603,-0.08916 1.0369203,-0.408789 1.4314213,-0.883988 0.64586,-0.7818576 0.05371,-2.382086 -0.235219,-3.0419687 l -0.01482,-0.027781 c 0,-0.004 0.0032,-0.02381 0.03651,-0.086251 0.02699,-0.051591 0.04101,-0.1042479 0.04101,-0.1547848 v -0.113223 c 7.93e-4,-0.047631 0.01773,-0.1270022 0.03863,-0.1735701 0.08731,-0.1955304 0.171717,-0.3907969 0.254004,-0.5834163 0.339466,-0.7905891 0.659883,-1.5380504 1.135082,-2.0489704 0.0217,-0.02355 0.04842,-0.066411 0.08017,-0.1317644 0.02593,-0.054501 0.05556,-0.1457876 0.06932,-0.2013515 0.132029,-0.560662 0.527059,-2.4664898 0.06959,-3.45075732 C 12.285161,0.03757167 12.134081,0 12.053911,0 c -0.09234,0 -0.18574,0.04948088 -0.255062,0.1349404 -0.09128,0.11192098 -0.12912,0.26882177 -0.09922,0.40878826 0.312743,1.51212084 0.420959,2.54401414 0.32068,3.06392944 -0.0098,0.049481 -0.0426,0.1280602 -0.06826,0.169601 -0.0545,0.091282 -0.133088,0.2172268 -0.200557,0.3045404 -0.444508,0.5844754 -0.759104,1.3970248 -1.15678,2.4249501 -0.01191,0.02963 -0.0545,0.057411 -0.09525,0.059531 -0.03281,0.0032 -0.0635,0.0079 -0.09234,0.01614 -0.03889,0.01085 -0.0717,0.0037 -0.08731,-0.01905 -0.109275,-0.16669 -0.221195,-0.2995134 -0.3434348,-0.4077293 -0.031751,-0.027781 -0.056361,-0.085462 -0.053711,-0.1248862 0.0071,-0.1190641 0.0032,-0.2063787 -0.0127,-0.2611476 -0.0082,-0.025671 -0.029901,-0.1050419 -0.2849621,-0.2757009 -0.050541,-0.032811 -0.093132,-0.029901 -0.1188001,7.93e-4 -0.01693,0.02196 -0.02196,0.051861 -0.01402,0.093402 0.01085,0.053711 0.01508,0.1378505 -0.02275,0.2338962 -0.01005,0.02487 -0.051591,0.043661 -0.089162,0.037841 -0.075411,-0.01191 -0.1558428,-0.01879 -0.2331022,-0.01191 -0.0209,0.0021 -0.053451,0.0021 -0.073291,0 -0.078581,-0.0069 -0.1579588,0 -0.2341601,0.01191 -0.035721,0.0058 -0.079371,-0.01191 -0.088372,-0.037841 -0.037571,-0.096042 -0.033871,-0.1801842 -0.02275,-0.2338962 0.0079,-0.041541 0.0029,-0.071701 -0.01402,-0.093402 -0.02566,-0.030691 -0.069321,-0.033601 -0.1188001,0 -0.2561206,0.169601 -0.277817,0.2492424 -0.2846961,0.2749079 -0.01588,0.054501 -0.01984,0.1428775 -0.01296,0.2611476 0.0021,0.040751 -0.02196,0.097372 -0.053711,0.1248862 -0.1222402,0.1082159 -0.2341611,0.2410393 -0.3444941,0.4077293 -0.01482,0.02381 -0.048421,0.029901 -0.087052,0.01905 -0.02805,-0.0082 -0.058741,-0.01296 -0.092602,-0.01508 -0.039691,-0.0032 -0.082281,-0.02963 -0.094192,-0.059531 C 7.2283864,5.4788263 6.9129968,4.6673349 6.4684889,4.0820665 6.4018077,3.995815 6.3227013,3.8688087 6.2681963,3.7785841 6.2433259,3.7359833 6.2094553,3.658461 6.2007251,3.6089831 6.1007103,3.0880088 6.2086253,2.0571745 6.5214058,0.54505368 6.5510363,0.40402818 6.5124057,0.24739239 6.4221841,0.13547141 6.3528628,0.05000989 6.2597272,5.3200945e-4 6.1660635,5.3200945e-4 c -0.079111,0 -0.2301921,0.0386306905 -0.3481982,0.29157518055 -0.4574731,0.98426751 -0.062441,2.89009531 0.069581,3.45075731 0.0127,0.056621 0.042601,0.1468466 0.069321,0.2024096 0.031751,0.064561 0.057681,0.1082169 0.080431,0.1317653 0.4752005,0.5109191 0.7956171,1.2573223 1.1348182,2.0479114 0.082291,0.1926204 0.1658969,0.3878859 0.2540045,0.5834163 0.01984,0.046571 0.037841,0.1259443 0.037841,0.1735701 v 0.112185 c 0,0.051591 0.01376,0.1042479 0.041801,0.1547838 0.031751,0.059801 0.035451,0.080431 0.037571,0.080431 l -0.01984,0.042601 c -0.284697,0.6516796 -0.8781676,2.252173 -0.2312501,3.033766 0.39503,0.4752 0.7093606,0.794822 1.4306274,0.883989 -0.3571933,0.300836 -0.9705082,0.89616 -1.182444,1.574828 -0.004,0.01164 -0.01005,0.01667 -0.02117,0.01058 L 7.490576,12.74732 C 7.396384,12.65419 7.2812863,12.538032 7.096604,12.538032 c -0.049481,0 -0.1031888,0.009 -0.1576948,0.02672 -0.02196,0.0082 -0.045511,0.01191 -0.071441,0.01191 -0.220137,0 -0.7551345,-0.292634 -1.8513229,-2.250057 C 4.8306688,9.9961355 4.6819711,9.7204346 4.5557619,9.4902425 4.0982898,8.6470006 3.9593813,8.391938 3.5804906,8.2014346 3.5328697,8.1776242 3.4534883,8.1368735 3.4108896,8.106183 3.2947355,8.0236315 3.1608541,7.9016563 3.0298828,7.7847082 2.9415112,7.7055968 2.8560487,7.6280725 2.7795824,7.5664234 c -0.01984,-0.01693 -0.063501,-0.01587 -0.080171,0.0037 -0.0061,0.0071 -0.0098,0.01402 -0.01191,0.02196 C 2.6329998,7.5248826 2.5803428,7.4452382 2.5276899,7.3677138 2.4533386,7.2565869 2.3829603,7.151545 2.3123151,7.0840748 c -0.0098,-0.009 -0.030691,-0.01667 -0.042331,-0.01667 -0.045771,0 -0.065621,0.041801 -0.082552,0.081231 C 2.1040914,7.0486212 2.0376762,6.9232069 1.9921674,6.8361574 c -0.01191,-0.0209 -0.0217,-0.040751 -0.030691,-0.055561 -0.01191,-0.02275 -0.02275,-0.035721 -0.031751,-0.046831 -0.0098,-0.0127 -0.01402,-0.01773 -0.01984,-0.039691 C 1.8662251,6.5096566 1.7688604,6.3001029 1.7500751,6.2593562 1.7003342,6.1543153 1.6566734,6.1085415 1.6061385,6.1085415 c -0.01773,0 -0.034401,0.0061 -0.048421,0.01799 C 1.4495007,5.8981927 1.2460331,5.7674864 0.99811371,5.7674864 c -0.14499458,0 -0.29475124,0.046571 -0.42254751,0.1317644 -0.0635011,0.041811 -0.12012213,0.088372 -0.1071579,0.1457886 0.0148203,0.067471 0.0989518,0.078581 0.23892324,0.098162 0.17383409,0.02381 0.41064036,0.056621 0.51197816,0.1984415 0.0079,0.01085 0.01191,0.02196 0.01296,0.029901 -0.0082,0.0058 -0.01508,0.01376 -0.01799,0.02249 -0.01482,0.038891 0.01085,0.062441 0.063501,0.1121849 0.034931,0.032811 0.074351,0.075411 0.1161541,0.1259443 0.1071579,0.1259442 0.1658959,0.2071727 0.1685419,0.2352192 0.005,0.032811 0.01693,0.047361 0.072761,0.091282 -0.0011,0.0021 -0.0021,0.005 -0.0021,0.0079 -0.0071,0.041541 0.01773,0.065621 0.2140518,0.2352192 0.1013368,0.087311 0.223312,0.1926204 0.336556,0.3016304 -0.030691,0.0098 -0.058741,0.02355 -0.067471,0.054241 -0.004,0.01799 0.004,0.045771 0.01667,0.058741 0.052651,0.052651 0.1778031,0.1378504 0.3095675,0.229133 0.084401,0.058741 0.171718,0.1190651 0.226223,0.1616639 -0.009,0.009 -0.01587,0.0209 -0.01693,0.037571 -0.0019,0.01587 0.0098,0.040741 0.0209,0.051861 0.3167116,0.2926342 0.5984976,0.4254575 0.7789468,0.4849896 0.035721,0.01191 0.072501,0.053711 0.083341,0.093132 0.2201369,0.7966751 2.0786039,3.8791256 3.1144653,4.4162386 0.034661,0.01667 0.087052,0.05847 0.1457886,0.111921 0.077521,0.07329 0.228075,0.161663 0.4910747,0.13785 l 0.0058,-0.04948 0.0032,0.04154 c 0,0 0,0.0037 -0.0042,0.01482 -0.054501,0.122239 -0.090222,0.256915 -0.088372,0.510919 0,0.03863 -0.02355,0.07541 -0.046571,0.08731 -0.035721,0.01773 -0.054501,0.02566 -0.062441,0.02858 -0.01402,-0.009 -0.042601,-0.03175 -0.078321,-0.0635 -0.7511654,-0.666762 -2.308795,-1.075286 -2.9070286,-1.075286 -0.1222402,0 -0.2055847,0.01561 -0.2561216,0.04762 -0.041541,0.02593 -0.071441,0.05768 -0.090492,0.09313 -0.01376,0.02699 -0.02461,0.06059 -0.034401,0.09419 -0.0098,0.03281 -0.0209,0.06641 -0.032811,0.08731 -0.397147,0.647976 -0.7183567,1.859525 -1.0586168,3.141982 -0.226223,0.854356 -0.4603832,1.737286 -0.7260299,2.486335 -0.055561,0.125944 -0.2034676,0.287872 -0.3333809,0.430749 -0.1447296,0.159811 -0.2706738,0.296604 -0.2868131,0.395823 -0.0209,0.121181 -0.1042478,0.212465 -0.2489774,0.272791 -0.13414642,0.05662 -0.19553051,0.22437 -0.23310218,0.36328 -0.0238104,0.08519 -0.0904916,0.109275 -0.21643284,0.146845 -0.14472957,0.04471 -0.40270315,0.330471 -0.56727707,0.712536 -0.04260076,0.09816 -0.0238104263,0.265912 0.02090037,0.334175 0.02302041,0.03493 0.04948087,0.04154 0.06826121,0.04154 0.0616511,0 0.0852015,-0.07514 0.0931316,-0.100015 0.0656212,-0.215375 0.19050339,-0.276759 0.31168454,-0.33735 0.0386307,-0.01984 0.0754113,-0.03784 0.11033296,-0.06244 0.0158803,0.05636 0.056361,0.07832 0.0952517,0.07832 0.13070732,0 0.33946711,-0.261942 0.34528821,-0.488165 0.0021,-0.06641 0.02487,-0.07911 0.1222392,-0.123827 0.0209,-0.0098 0.043391,-0.0209 0.068261,-0.03281 0.1547837,-0.07726 0.168542,-0.107158 0.284696,-0.343171 0.068531,-0.141026 0.088372,-0.144994 0.1240922,-0.151874 0.02275,-0.004 0.054501,-0.01085 0.096312,-0.03281 0.1320294,-0.07038 0.1627219,-0.134939 0.2698798,-0.393971 0.058471,-0.142613 0.036511,-0.2249 0.02196,-0.278612 -0.01191,-0.04366 -0.01191,-0.04577 0.038631,-0.07858 0.03069,-0.01879 0.053451,-0.0209 0.081231,-0.02196 0.1309714,-0.0079 0.1875934,-0.06059 0.2997784,-0.625222 0.1222391,-0.618871 0.4574721,-1.507886 0.7829159,-2.367269 0.3762437,-0.996173 0.7659826,-2.027009 0.8305417,-2.659903 0.0019,-0.0209 0.01005,-0.0209 0.01376,-0.0209 0.0029,0 0.0082,0.0011 0.01587,0.004 0.01402,0.0058 0.028841,0.01191 0.043661,0.01667 0.063501,0.02275 0.1616629,0.03784 0.2103468,0.0426 0.4365707,0.04577 0.5733621,0.143936 0.7641305,0.279934 0.2129938,0.152668 0.4781105,0.342113 1.238272,0.551667 0.1963245,0.03757 0.3503142,0.127002 0.4889587,0.215109 0.034661,0.02196 0.079381,0.07435 0.111127,0.113244 l 0.01561,0.01773 c 0.048681,0.05662 0.1399674,0.127002 0.2958102,0.141025 0.037571,0.0026 0.072491,0.02963 0.079371,0.06032 0.02487,0.103189 0.050531,0.190504 0.071441,0.260884 0.0098,0.03175 -0.0069,0.07646 -0.036511,0.09737 -0.1042478,0.07435 -0.1994995,0.164574 -0.2550635,0.238923 -0.01508,0.0209 -0.02884,0.0418 -0.039691,0.0598 -0.004,0.0069 -0.0082,0.01402 -0.01191,0.01878 -0.0029,0.0011 -0.0061,0.0021 -0.0087,0.0032 -1.4187212,0.553519 -2.6879497,1.792584 -2.6919188,2.382087 0,0.04657 0.0011,0.08625 0.0048,0.119858 0.0029,0.02275 0.0098,0.0508 0.01693,0.07937 0.0079,0.03651 0.01773,0.07832 0.01773,0.1061 -0.01085,0.456415 0.038631,1.010727 0.096312,1.652881 0.094192,1.067613 0.2121988,2.394787 0.1201222,3.960355 -0.0021,0.04101 -0.033871,0.101337 -0.067471,0.134145 -0.2172269,0.206379 -0.3976761,0.522826 -0.4037612,0.706451 -0.0026,0.13785 -0.079111,0.251887 -0.228075,0.34026 -0.1367925,0.08123 -0.1767452,0.271732 -0.1965895,0.428632 -0.0127,0.100279 -0.086252,0.138909 -0.2151099,0.1995 -0.1486986,0.06958 -0.3849758,0.417784 -0.5040399,0.860175 -0.029631,0.108217 0.01191,0.274907 0.066411,0.34714 0.02196,0.02884 0.046831,0.0426 0.073291,0.0426 0.047631,0 0.078581,-0.04075 0.091282,-0.119858 0.037841,-0.246066 0.171718,-0.338408 0.2889301,-0.419901 0.041541,-0.02884 0.082282,-0.05636 0.1161541,-0.09022 0.02593,0.06668 0.074351,0.07541 0.097372,0.07541 0.045771,0 0.093132,-0.02805 0.1420835,-0.08334 0.1000148,-0.113244 0.1905034,-0.320416 0.1696011,-0.497955 -0.0093,-0.07541 0.01482,-0.09419 0.115096,-0.158753 0.0209,-0.01402 0.044711,-0.02884 0.069321,-0.04683 0.1550478,-0.108217 0.165896,-0.142612 0.2540045,-0.414874 0.054501,-0.167748 0.076461,-0.175421 0.1161541,-0.189444 0.02381,-0.009 0.056621,-0.01984 0.097372,-0.05054 0.1328234,-0.09842 0.1555778,-0.172776 0.2312501,-0.468321 0.027781,-0.109011 0.029631,-0.188387 0.032811,-0.245008 0.0032,-0.100015 0.004,-0.127002 0.1291193,-0.196324 0.050541,-0.02778 0.081231,-0.03281 0.1000148,-0.03493 0.01693,-0.0032 0.041801,-0.0069 0.056621,-0.03069 0.01588,-0.02566 0.0079,-0.04948 -0.0048,-0.08837 -0.02011,-0.05953 -0.067471,-0.197383 -0.1190651,-0.51965 -0.093132,-0.579713 -0.070641,-1.41687 -0.046831,-2.304033 0.032811,-1.18165 0.065621,-2.404841 -0.1963245,-3.011012 -0.01614,-0.03678 -0.01085,-0.09155 0.01085,-0.118006 0.3013663,-0.360104 0.678669,-0.545581 1.0784611,-0.741111 0.4326017,-0.211406 0.9236764,-0.451388 1.3980829,-0.955428 0.02567,-0.02858 0.047631,-0.05636 0.066411,-0.08334 0.02381,-0.03493 0.076461,-0.06826 0.1161541,-0.07541 0.02487,-0.0037 0.050801,-0.0098 0.075411,-0.01667 0.0071,-0.0021 0.01402,-0.0032 0.0209,-0.0032 0.01297,0 0.035721,0.004 0.044721,0.02858 0.1367914,0.402703 0.2518875,0.67179 0.3442291,0.799851 0.02196,0.03175 0.040751,0.07646 0.02672,0.110068 -0.036511,0.0934 -0.093132,0.252152 -0.1489637,0.479169 -0.043661,0.170659 -0.032811,0.330471 0.036781,0.50113 0.01085,0.02778 0.0011,0.05953 -0.02487,0.07144 -1.2848389,0.637922 -1.9923474,1.694686 -2.1042684,3.140131 -0.111391,1.438565 0.4085242,2.857287 0.7281459,3.575642 0.051591,0.116419 0.1002798,0.238395 0.1489637,0.359312 0.1447295,0.357193 0.2936922,0.727088 0.510919,0.948283 0.02672,0.02778 0.066411,0.08731 0.110863,0.164574 0.01984,0.03466 0.039691,0.07858 0.063501,0.132029 0.050541,0.111127 0.1201232,0.264853 0.2481834,0.471231 0.0209,0.03572 0.076461,0.103454 0.1338814,0.175686 0.048681,0.05847 0.098162,0.11986 0.112979,0.14473 0.054501,0.08837 0.081491,0.153991 0.1082169,0.216434 0.02593,0.05953 0.049741,0.116154 0.093132,0.186534 0.029901,0.04789 0.088372,0.09922 0.1460526,0.148963 0.038631,0.03387 0.078321,0.06826 0.094192,0.09022 0.1775381,0.245009 0.2706728,0.356401 0.3799477,0.48552 0.031751,0.03757 0.065621,0.07832 0.1031898,0.123827 0.035721,0.0426 0.094192,0.07329 0.164838,0.08625 0.02963,0.0048 0.068261,0.009 0.1100689,0.009 0.041801,0 0.081231,-0.004 0.111391,-0.009 0.069321,-0.01296 0.1277963,-0.04366 0.1635159,-0.08625 0.037831,-0.04577 0.071441,-0.08626 0.1042479,-0.123827 0.1082159,-0.129119 0.2024096,-0.240246 0.3788897,-0.48552 0.01693,-0.0217 0.056621,-0.05636 0.095252,-0.09022 0.056621,-0.04948 0.1164187,-0.102131 0.1460527,-0.149757 0.0426,-0.06932 0.06641,-0.125944 0.09207,-0.18627 0.02672,-0.06244 0.0545,-0.127002 0.108217,-0.215374 0.01482,-0.02566 0.06456,-0.08625 0.112979,-0.145789 0.05874,-0.07144 0.112979,-0.138908 0.133882,-0.17357 0.129119,-0.207171 0.197647,-0.361162 0.248183,-0.473083 0.02487,-0.05371 0.04366,-0.09737 0.0635,-0.13097 0.04471,-0.07726 0.0852,-0.137851 0.110863,-0.164574 0.217491,-0.222254 0.367248,-0.591355 0.510919,-0.948284 0.04868,-0.121181 0.0971,-0.243157 0.149757,-0.360105 0.319622,-0.717562 0.83848,-2.136283 0.727088,-3.574848 -0.111921,-1.445445 -0.819429,-2.501945 -2.103211,-3.140131 -0.02593,-0.01297 -0.03651,-0.04366 -0.02487,-0.0725 0.06853,-0.170659 0.08043,-0.329412 0.03572,-0.500071 -0.05556,-0.227017 -0.111921,-0.38577 -0.148963,-0.47917 -0.01402,-0.0336 0.005,-0.07911 0.02778,-0.110067 0.09155,-0.12912 0.207437,-0.397942 0.344493,-0.799851 0.009,-0.02566 0.03069,-0.02963 0.04471,-0.02963 0.0058,0 0.0127,0.0011 0.01984,0.0032 0.02566,0.0079 0.05053,0.01296 0.07541,0.01773 0.03969,0.0061 0.09234,0.04075 0.116154,0.07541 0.01879,0.02699 0.04075,0.05371 0.0672,0.08334 0.474407,0.50404 0.964424,0.744286 1.397025,0.955427 0.400057,0.19553 0.776831,0.379949 1.078461,0.741111 0.02196,0.02593 0.02805,0.08123 0.01191,0.118006 -0.263,0.606172 -0.229133,1.828569 -0.197382,3.011013 0.02381,0.886898 0.04683,1.724319 -0.04657,2.304032 -0.05159,0.32121 -0.09816,0.460119 -0.1188,0.519651 -0.01296,0.03889 -0.0209,0.06165 -0.005,0.08837 0.01508,0.02381 0.03969,0.02778 0.05662,0.02963 0.01879,0.0032 0.04948,0.0082 0.100015,0.03572 0.124885,0.06932 0.125943,0.09631 0.129912,0.195265 0.0021,0.05768 0.005,0.136263 0.03281,0.246067 0.07435,0.295546 0.09737,0.369101 0.230986,0.468321 0.04075,0.02963 0.07355,0.04154 0.09737,0.05054 0.03969,0.01402 0.06138,0.0209 0.115096,0.189445 0.08837,0.271996 0.09922,0.306657 0.254005,0.414873 0.02593,0.01773 0.04842,0.03281 0.06932,0.04577 0.101337,0.06562 0.124092,0.08334 0.116419,0.158753 -0.02196,0.178597 0.06826,0.38577 0.168542,0.497955 0.04948,0.0553 0.0971,0.0844 0.141555,0.0844 0.02275,0 0.07144,-0.009 0.09737,-0.07541 0.03387,0.03281 0.07435,0.06059 0.116155,0.09022 0.117212,0.08043 0.251094,0.172776 0.289724,0.4199 0.01191,0.07911 0.0426,0.119859 0.09022,0.119859 0.02699,0 0.05159,-0.01482 0.07329,-0.0426 0.05477,-0.0725 0.09631,-0.238923 0.06747,-0.34714 -0.120123,-0.442391 -0.356401,-0.791647 -0.505099,-0.860175 -0.128855,-0.06059 -0.202145,-0.09895 -0.21511,-0.1995 -0.01984,-0.156635 -0.05953,-0.347139 -0.196589,-0.428632 -0.147904,-0.08837 -0.225165,-0.20241 -0.228075,-0.34026 -0.005,-0.183625 -0.186534,-0.500071 -0.403761,-0.70645 -0.03387,-0.03281 -0.06456,-0.09313 -0.06641,-0.134146 -0.09313,-1.565568 0.02487,-2.893006 0.120123,-3.960355 0.05662,-0.643213 0.1061,-1.197525 0.09631,-1.653939 -0.0011,-0.02699 0.009,-0.06853 0.01773,-0.1061 0.0061,-0.02778 0.01296,-0.05556 0.01587,-0.07937 0.0037,-0.03254 0.0058,-0.0725 0.0058,-0.1188 -0.0048,-0.589502 -1.272668,-1.828833 -2.693506,-2.383145 -0.0029,-0.0011 -0.005,-0.0021 -0.0082,-0.0021 -0.0026,-0.0048 -0.0069,-0.01191 -0.01164,-0.01984 -0.01085,-0.01667 -0.02381,-0.03784 -0.03995,-0.05874 -0.0553,-0.07514 -0.150551,-0.164574 -0.255063,-0.238922 -0.02963,-0.02196 -0.04657,-0.06667 -0.03651,-0.09737 0.0209,-0.07144 0.04736,-0.158753 0.07144,-0.261943 0.0079,-0.03069 0.0426,-0.05662 0.07964,-0.06059 0.156636,-0.01297 0.246861,-0.08334 0.295544,-0.139967 l 0.01561,-0.01878 c 0.03281,-0.03784 0.07646,-0.09049 0.111127,-0.112186 0.139966,-0.08811 0.292634,-0.178596 0.493985,-0.217225 0.756193,-0.208232 1.019987,-0.397941 1.233245,-0.54955 0.190504,-0.135999 0.327295,-0.23416 0.764659,-0.280993 0.04762,-0.0048 0.145789,-0.01879 0.20929,-0.0426 0.01482,-0.0048 0.0299,-0.01085 0.04366,-0.01667 0.0082,-0.0032 0.01297,-0.004 0.01693,-0.004 0.0037,0 0.01085,0 0.01296,0.0209 0.06535,0.633953 0.454298,1.663995 0.830277,2.659903 0.325444,0.859118 0.660941,1.748133 0.782916,2.367269 0.112186,0.564631 0.168543,0.618343 0.300837,0.624957 0.02672,0.0021 0.05054,0.0032 0.08123,0.02275 0.05054,0.03175 0.04948,0.03466 0.03757,0.07752 -0.01587,0.0545 -0.03757,0.135999 0.02196,0.27967 0.1061,0.257974 0.136793,0.322533 0.269086,0.392913 0.04154,0.02275 0.07329,0.02858 0.09631,0.03281 0.03545,0.0079 0.05556,0.01085 0.124885,0.152932 0.115096,0.234955 0.129913,0.265911 0.283638,0.342113 0.02487,0.01296 0.04762,0.02275 0.06853,0.03281 0.09737,0.04471 0.11986,0.05768 0.121976,0.124092 0.0061,0.225958 0.214316,0.4879 0.346346,0.4879 0.03757,0 0.07832,-0.0209 0.09419,-0.07726 0.0336,0.02275 0.07144,0.04154 0.110068,0.06138 0.121182,0.06032 0.247126,0.123034 0.311685,0.33735 0.0079,0.02487 0.03175,0.101073 0.0934,0.101073 0.01879,0 0.04577,-0.0079 0.06826,-0.0426 0.0426,-0.06694 0.06138,-0.234425 0.01905,-0.331793 z"
       id="path7"
       style="stroke-width:0.264588" />
  </g>
</svg>
