<?xml version="1.0" encoding="UTF-8" standalone="no"?>
<!-- Created with Inkscape (http://www.inkscape.org/) -->

<svg
   width="63.049999mm"
   height="45.419998mm"
   viewBox="0 0 63.049999 45.419998"
   version="1.1"
   id="svg1"
   inkscape:version="1.4.3 (0d15f75, 2025-12-25)"
   sodipodi:docname="butterfly.svg"
   xmlns:inkscape="http://www.inkscape.org/namespaces/inkscape"
   xmlns:sodipodi="http://sodipodi.sourceforge.net/DTD/sodipodi-0.dtd"
   xmlns="http://www.w3.org/2000/svg"
   xmlns:svg="http://www.w3.org/2000/svg">
  <sodipodi:namedview
     id="namedview1"
     pagecolor="#ffffff"
     bordercolor="#000000"
     borderopacity="0.25"
     inkscape:showpageshadow="2"
     inkscape:pageopacity="0.0"
     inkscape:pagecheckerboard="0"
     inkscape:deskcolor="#d1d1d1"
     inkscape:document-units="mm"
     inkscape:zoom="0.72604517"
     inkscape:cx="396.66953"
     inkscape:cy="561.25984"
     inkscape:window-width="1920"
     inkscape:window-height="1017"
     inkscape:window-x="-8"
     inkscape:window-y="-8"
     inkscape:window-maximized="1"
     inkscape:current-layer="layer1" />
  <defs
     id="defs1" />
  <g
     inkscape:label="Layer 1"
     inkscape:groupmode="layer"
     id="layer1">
    <g
       id="g34"
       transform="matrix(0.26458333,0,0,0.26458333,-34.621119,-34.059188)">
		<path
   d="m 361.734,183.794 c -17.337,-17.256 -44.288,-20.199 -67.571,-20.182 -11.548,0.008 -23.283,0.732 -34.787,2.434 -0.184,-1.096 -0.551,-2.193 -1.018,-3.289 0.557,-0.52 1.032,-1.137 1.479,-1.788 0.533,-0.799 1.07,-1.595 1.74,-2.234 1.337,-1.28 2.729,-2.496 4.353,-3.437 0.127,-0.074 0.203,-0.22 0.18,-0.373 l -0.004,-0.027 c -0.109,-0.747 -0.231,-1.493 -0.308,-2.242 -0.014,-0.135 -0.126,-0.243 -0.266,-0.247 -0.152,-0.005 -0.279,0.115 -0.284,0.267 -0.02,0.678 -0.075,1.357 -0.125,2.036 -1.163,1.363 -2.526,2.491 -3.945,3.552 -0.74,0.556 -1.613,0.954 -2.489,1.349 -0.485,0.227 -0.957,0.47 -1.401,0.746 -0.465,-1.016 -0.926,-2.032 -1.325,-3.047 -0.327,-0.83 -0.702,-1.66 -1.234,-2.49 -0.455,-0.743 -1.004,-1.486 -1.742,-2.229 2.723,-3.501 5.773,-6.749 9.057,-9.73 3.502,-3.201 7.229,-6.151 11.139,-8.83 0.178,-0.122 0.262,-0.353 0.188,-0.567 l -0.008,-0.023 c -0.21,-0.612 -0.505,-1.261 -0.436,-1.95 0.061,-0.673 0.277,-1.345 0.699,-1.865 0.039,-0.049 0.072,-0.106 0.094,-0.169 0.099,-0.288 -0.055,-0.602 -0.343,-0.701 -0.288,-0.099 -0.602,0.055 -0.701,0.343 l -0.006,0.018 c -0.264,0.772 -0.457,1.542 -0.479,2.33 -0.016,0.647 -0.046,1.332 0.128,1.981 -3.795,2.711 -7.406,5.674 -10.798,8.869 -3.241,3.071 -6.299,6.321 -9.254,9.674 -1.192,-0.762 -2.795,-0.655 -3.869,0.359 -0.056,0.053 -0.103,0.107 -0.157,0.16 -3.097,-3.537 -6.307,-6.963 -9.716,-10.193 -3.391,-3.194 -7.003,-6.158 -10.798,-8.869 0.175,-0.648 0.144,-1.334 0.128,-1.981 -0.023,-0.789 -0.215,-1.558 -0.479,-2.33 l -0.006,-0.02 c -0.021,-0.059 -0.051,-0.116 -0.093,-0.167 -0.192,-0.237 -0.539,-0.273 -0.776,-0.081 -0.236,0.192 -0.273,0.539 -0.081,0.776 0.422,0.52 0.639,1.192 0.699,1.865 0.069,0.689 -0.225,1.337 -0.436,1.95 l -0.008,0.023 c -0.07,0.204 10e-4,0.439 0.188,0.567 3.91,2.678 7.637,5.628 11.139,8.83 3.483,3.161 6.715,6.613 9.559,10.359 -0.455,0.533 -0.834,1.067 -1.161,1.6 -0.531,0.83 -0.907,1.66 -1.234,2.49 -0.423,1.079 -0.916,2.157 -1.411,3.236 -0.524,-0.357 -1.097,-0.658 -1.69,-0.934 -0.876,-0.395 -1.749,-0.794 -2.489,-1.349 -1.419,-1.062 -2.782,-2.189 -3.945,-3.552 -0.05,-0.679 -0.106,-1.358 -0.126,-2.036 -0.004,-0.136 -0.108,-0.251 -0.247,-0.266 -0.151,-0.016 -0.287,0.094 -0.302,0.245 -0.077,0.748 -0.199,1.495 -0.308,2.242 l -0.004,0.028 c -0.021,0.145 0.046,0.295 0.181,0.372 1.624,0.941 3.016,2.157 4.353,3.437 0.67,0.639 1.206,1.434 1.74,2.234 0.518,0.755 1.071,1.469 1.752,2.031 -0.44,1.072 -0.773,2.144 -0.935,3.215 -11.858,-1.823 -23.978,-2.595 -35.898,-2.603 -23.283,-0.017 -50.234,2.927 -67.571,20.182 -3.648,3.631 -8.819,10.494 -7.06,15.891 0.556,1.706 1.582,3.23 2.726,4.594 4.51,5.376 11.412,8.747 17.712,11.483 9.157,3.977 18.836,6.697 28.529,9.278 17.423,4.639 17.268,13.619 16.573,19.751 -0.215,1.899 1.067,3.629 2.938,4.021 6.147,1.288 11.213,6.19 10.838,12.313 -0.18,2.935 2.444,3.11 4.517,3.507 4.584,0.878 8.158,5.022 7.004,9.809 -0.387,1.607 -1.141,3.097 -1.754,4.631 -2.719,6.799 -1.614,13.317 -0.992,20.249 0.058,0.645 0.63,1.12 1.274,1.048 0.605,-0.067 1.054,-0.593 1.025,-1.201 0,0 -0.487,-10.221 -0.487,-10.223 -0.242,-5.087 3.155,-9.933 6.198,-13.738 0.88,-1.1 2.033,-2.07 3.418,-2.329 1.178,-0.221 2.811,0.286 3.46,1.371 0.55,0.92 0.48,2.221 1.275,3.001 0.837,0.821 2.429,0.537 2.957,-0.51 0.364,-0.723 0.299,-1.578 0.215,-2.383 -0.084,-0.805 -0.169,-1.654 0.162,-2.392 0.32,-0.711 0.993,-1.215 1.719,-1.499 1.679,-0.657 3.794,-0.876 5.581,-1.038 0.296,-0.027 2.285,-0.116 3.904,-0.167 1.619,0.051 3.609,0.14 3.904,0.167 1.788,0.161 3.902,0.381 5.581,1.038 0.726,0.284 1.399,0.788 1.719,1.499 0.332,0.738 0.246,1.587 0.163,2.392 -0.083,0.805 -0.149,1.661 0.215,2.383 0.528,1.047 2.12,1.331 2.957,0.51 0.795,-0.78 0.725,-2.081 1.275,-3.001 0.648,-1.085 2.282,-1.591 3.46,-1.371 1.384,0.259 2.538,1.229 3.418,2.329 3.043,3.805 6.44,8.651 6.198,13.738 0,0.002 -0.487,10.223 -0.487,10.223 -0.029,0.608 0.42,1.134 1.025,1.201 0.644,0.072 1.216,-0.403 1.274,-1.048 0.622,-6.932 1.727,-13.449 -0.992,-20.249 -0.614,-1.534 -1.367,-3.025 -1.754,-4.631 -1.154,-4.787 2.42,-8.931 7.004,-9.809 2.073,-0.397 4.697,-0.573 4.517,-3.507 -0.375,-6.123 4.692,-11.025 10.838,-12.313 1.871,-0.392 3.154,-2.122 2.938,-4.021 -0.695,-6.132 -0.85,-15.112 16.573,-19.751 9.693,-2.581 19.371,-5.301 28.528,-9.278 6.301,-2.736 13.203,-6.107 17.713,-11.483 1.144,-1.364 2.17,-2.888 2.726,-4.594 1.761,-5.396 -3.409,-12.258 -7.057,-15.89 z"
   id="path12" />

		<path
   style="fill:#ffffff"
   d="m 226.663,268.545 c 0.111,-0.898 0.596,-1.639 1.208,-2.211 0.618,-0.572 1.386,-0.97 2.2,-1.166 0.813,-0.2 1.675,-0.207 2.489,10e-4 0.808,0.217 1.584,0.634 2.113,1.354 0.198,0.27 0.14,0.649 -0.13,0.847 -0.046,0.034 -0.096,0.061 -0.148,0.08 l -0.05,0.018 c -0.753,0.276 -1.33,0.453 -1.878,0.628 -0.543,0.165 -1.043,0.31 -1.546,0.442 -0.502,0.136 -1.005,0.25 -1.561,0.36 -0.561,0.109 -1.153,0.22 -1.96,0.322 l -0.051,0.007 c -0.336,0.043 -0.642,-0.195 -0.685,-0.531 -0.007,-0.05 -0.006,-0.103 -10e-4,-0.151 z"
   id="path13" />

		<path
   style="fill:#ffffff"
   d="m 240.145,265.664 c 0.194,-0.884 0.746,-1.577 1.409,-2.088 0.669,-0.511 1.47,-0.836 2.299,-0.955 0.828,-0.123 1.687,-0.049 2.478,0.234 0.784,0.292 1.518,0.779 1.977,1.546 0.172,0.287 0.079,0.659 -0.208,0.831 -0.049,0.03 -0.102,0.051 -0.154,0.066 l -0.052,0.013 c -0.776,0.204 -1.366,0.327 -1.928,0.449 -0.556,0.114 -1.067,0.211 -1.58,0.296 -0.512,0.089 -1.024,0.155 -1.588,0.213 -0.569,0.056 -1.168,0.111 -1.982,0.138 l -0.052,0.002 c -0.338,0.011 -0.621,-0.254 -0.632,-0.592 -0.003,-0.052 0.003,-0.105 0.013,-0.153 z"
   id="path14" />

		<path
   style="fill:#ffffff"
   d="m 203.025,243.368 c 1.363,-0.691 2.914,-0.86 4.442,-0.671 1.531,0.19 3.042,0.822 4.319,1.763 1.27,0.948 2.303,2.228 2.899,3.67 0.599,1.433 0.823,3.009 0.442,4.503 -0.067,0.264 -0.336,0.424 -0.601,0.357 -0.115,-0.029 -0.21,-0.097 -0.276,-0.186 l -0.013,-0.018 c -0.844,-1.147 -1.572,-2.125 -2.342,-2.997 -0.769,-0.867 -1.555,-1.62 -2.415,-2.304 -0.868,-0.662 -1.795,-1.261 -2.855,-1.767 -1.053,-0.534 -2.213,-0.975 -3.523,-1.453 l -0.025,-0.009 c -0.252,-0.092 -0.382,-0.371 -0.29,-0.623 0.046,-0.118 0.133,-0.211 0.238,-0.265 z"
   id="path15" />

		<path
   style="fill:#ffffff"
   d="m 218.032,257.554 c 0.696,-0.194 1.366,-0.125 2.005,0.028 0.635,0.167 1.223,0.463 1.744,0.844 0.521,0.38 0.975,0.852 1.3,1.417 0.322,0.564 0.547,1.199 0.514,1.945 -0.019,0.434 -0.387,0.77 -0.821,0.751 -0.052,-0.002 -0.102,-0.01 -0.151,-0.021 l -0.048,-0.012 c -0.677,-0.168 -1.163,-0.4 -1.613,-0.647 -0.447,-0.245 -0.825,-0.526 -1.19,-0.829 -0.365,-0.303 -0.715,-0.621 -1.065,-0.985 -0.344,-0.379 -0.704,-0.759 -1.069,-1.306 l -0.03,-0.044 c -0.23,-0.344 -0.138,-0.81 0.207,-1.04 0.068,-0.047 0.143,-0.08 0.217,-0.101 z"
   id="path16" />

		<path
   style="fill:#ffffff"
   d="m 143.695,204.395 c 0.693,0.063 1.248,0.253 1.789,0.452 0.531,0.209 1.012,0.47 1.471,0.76 0.459,0.29 0.885,0.623 1.268,1.041 0.379,0.427 0.735,0.9 0.998,1.595 l 0.004,0.011 c 0.127,0.336 -0.042,0.712 -0.378,0.839 -0.032,0.012 -0.068,0.022 -0.1,0.029 -0.743,0.154 -1.379,0.054 -1.974,-0.119 -0.591,-0.181 -1.121,-0.475 -1.601,-0.839 -0.48,-0.363 -0.92,-0.783 -1.288,-1.28 -0.359,-0.507 -0.684,-1.048 -0.849,-1.742 -0.078,-0.328 0.125,-0.658 0.453,-0.736 0.065,-0.016 0.131,-0.02 0.194,-0.014 z"
   id="path17" />

		<path
   style="fill:#ffffff"
   d="m 153.398,210.081 c 0.693,-0.055 1.272,0.039 1.837,0.144 0.559,0.116 1.076,0.292 1.576,0.501 0.501,0.208 0.977,0.464 1.425,0.812 0.445,0.356 0.876,0.763 1.252,1.403 l 0.006,0.01 c 0.182,0.309 0.079,0.708 -0.231,0.89 -0.029,0.017 -0.063,0.033 -0.094,0.045 -0.706,0.277 -1.348,0.285 -1.964,0.216 -0.612,-0.079 -1.184,-0.279 -1.718,-0.556 -0.534,-0.277 -1.037,-0.616 -1.484,-1.043 -0.439,-0.439 -0.85,-0.917 -1.13,-1.572 -0.132,-0.31 0.012,-0.669 0.322,-0.801 0.061,-0.026 0.125,-0.042 0.188,-0.047 z"
   id="path18" />

		<path
   style="fill:#ffffff"
   d="m 164.198,213.843 c 0.693,-0.061 1.272,0.027 1.838,0.127 0.559,0.111 1.078,0.282 1.58,0.486 0.503,0.204 0.981,0.455 1.432,0.799 0.448,0.352 0.882,0.755 1.264,1.391 l 0.006,0.01 c 0.185,0.308 0.085,0.707 -0.223,0.891 -0.029,0.018 -0.063,0.034 -0.093,0.046 -0.703,0.283 -1.345,0.298 -1.961,0.234 -0.613,-0.073 -1.187,-0.268 -1.723,-0.54 -0.536,-0.272 -1.043,-0.606 -1.493,-1.029 -0.443,-0.434 -0.859,-0.909 -1.144,-1.561 -0.135,-0.309 0.006,-0.669 0.315,-0.804 0.061,-0.027 0.125,-0.043 0.188,-0.049 z"
   id="path19" />

		<path
   style="fill:#ffffff"
   d="m 174.699,217.429 c 0.69,-0.086 1.272,-0.017 1.842,0.063 0.563,0.092 1.087,0.244 1.597,0.431 0.51,0.186 0.996,0.421 1.459,0.748 0.46,0.337 0.908,0.723 1.313,1.346 l 0.006,0.01 c 0.196,0.301 0.11,0.704 -0.191,0.899 -0.028,0.019 -0.061,0.036 -0.092,0.049 -0.693,0.308 -1.335,0.345 -1.952,0.302 -0.615,-0.052 -1.196,-0.227 -1.741,-0.48 -0.545,-0.253 -1.063,-0.57 -1.528,-0.977 -0.458,-0.419 -0.89,-0.878 -1.198,-1.521 -0.146,-0.304 -0.017,-0.669 0.287,-0.814 0.06,-0.029 0.123,-0.047 0.186,-0.055 z"
   id="path20" />

		<path
   style="fill:#ffffff"
   d="m 186.378,220.936 c 0.695,0.036 1.257,0.205 1.805,0.383 0.539,0.188 1.029,0.43 1.499,0.703 0.47,0.272 0.909,0.589 1.308,0.992 0.395,0.412 0.769,0.871 1.059,1.556 l 0.004,0.011 c 0.14,0.331 -0.014,0.713 -0.345,0.853 -0.031,0.013 -0.067,0.025 -0.099,0.033 -0.736,0.183 -1.376,0.107 -1.977,-0.043 -0.598,-0.158 -1.139,-0.432 -1.632,-0.777 -0.493,-0.344 -0.949,-0.747 -1.336,-1.229 -0.379,-0.493 -0.724,-1.021 -0.915,-1.708 -0.091,-0.325 0.099,-0.662 0.424,-0.753 0.065,-0.018 0.13,-0.025 0.193,-0.022 z"
   id="path21" />

		<path
   style="fill:#ffffff"
   d="m 198.165,227.541 c 0.639,0.28 1.105,0.637 1.555,0.998 0.438,0.368 0.812,0.768 1.155,1.19 0.344,0.422 0.643,0.873 0.873,1.393 0.224,0.526 0.411,1.089 0.441,1.833 v 0.012 c 0.014,0.36 -0.266,0.662 -0.626,0.676 -0.034,0.001 -0.071,-0.001 -0.104,-0.004 -0.754,-0.092 -1.327,-0.387 -1.837,-0.741 -0.504,-0.36 -0.914,-0.808 -1.254,-1.306 -0.34,-0.497 -0.624,-1.036 -0.816,-1.625 -0.18,-0.596 -0.316,-1.213 -0.252,-1.924 0.03,-0.337 0.328,-0.585 0.665,-0.555 0.067,0.006 0.13,0.023 0.189,0.048 z"
   id="path22" />

		<path
   style="fill:#ffffff"
   d="m 274.964,269.536 c -0.037,-0.904 -0.461,-1.682 -1.025,-2.302 -0.57,-0.62 -1.302,-1.079 -2.098,-1.34 -0.794,-0.265 -1.653,-0.342 -2.481,-0.201 -0.823,0.151 -1.63,0.503 -2.216,1.179 -0.219,0.253 -0.192,0.635 0.061,0.855 0.044,0.038 0.091,0.068 0.141,0.091 l 0.049,0.022 c 0.729,0.336 1.289,0.559 1.821,0.778 0.528,0.209 1.014,0.394 1.505,0.566 0.489,0.176 0.982,0.331 1.527,0.486 0.551,0.155 1.131,0.313 1.927,0.48 l 0.051,0.011 c 0.331,0.07 0.656,-0.142 0.726,-0.473 0.01,-0.05 0.014,-0.103 0.012,-0.152 z"
   id="path23" />

		<path
   style="fill:#ffffff"
   d="m 261.694,265.664 c -0.194,-0.884 -0.746,-1.577 -1.409,-2.088 -0.669,-0.511 -1.47,-0.836 -2.299,-0.955 -0.828,-0.123 -1.687,-0.049 -2.478,0.234 -0.784,0.292 -1.518,0.779 -1.977,1.546 -0.172,0.287 -0.079,0.659 0.208,0.831 0.049,0.03 0.101,0.051 0.154,0.066 l 0.052,0.013 c 0.776,0.204 1.366,0.327 1.928,0.449 0.556,0.114 1.067,0.211 1.58,0.296 0.512,0.089 1.024,0.155 1.588,0.213 0.569,0.056 1.168,0.111 1.981,0.138 l 0.052,0.002 c 0.338,0.011 0.621,-0.254 0.632,-0.592 0.004,-0.052 -0.001,-0.105 -0.012,-0.153 z"
   id="path24" />

		<path
   style="fill:#ffffff"
   d="m 298.314,242.285 c -1.363,-0.691 -2.914,-0.86 -4.442,-0.671 -1.531,0.19 -3.042,0.822 -4.319,1.763 -1.27,0.948 -2.303,2.228 -2.899,3.67 -0.599,1.433 -0.822,3.009 -0.442,4.503 0.067,0.264 0.336,0.424 0.6,0.357 0.115,-0.029 0.211,-0.097 0.276,-0.186 l 0.013,-0.018 c 0.844,-1.147 1.572,-2.125 2.342,-2.997 0.769,-0.866 1.555,-1.62 2.415,-2.303 0.868,-0.662 1.795,-1.261 2.855,-1.767 1.053,-0.534 2.213,-0.975 3.523,-1.453 l 0.025,-0.009 c 0.252,-0.092 0.382,-0.371 0.29,-0.623 -0.044,-0.12 -0.132,-0.212 -0.237,-0.266 z"
   id="path25" />

		<path
   style="fill:#ffffff"
   d="m 284.45,258.738 c -0.366,0.547 -0.725,0.927 -1.069,1.306 -0.349,0.364 -0.701,0.682 -1.065,0.985 -0.365,0.303 -0.743,0.584 -1.19,0.829 -0.449,0.246 -0.935,0.478 -1.612,0.647 l -0.044,0.011 c -0.422,0.105 -0.848,-0.152 -0.953,-0.574 -0.013,-0.05 -0.02,-0.105 -0.022,-0.155 -0.033,-0.746 0.192,-1.381 0.514,-1.945 0.324,-0.565 0.779,-1.036 1.299,-1.417 0.521,-0.38 1.11,-0.676 1.744,-0.844 0.64,-0.153 1.309,-0.221 2.005,-0.028 0.399,0.111 0.633,0.525 0.522,0.924 -0.022,0.078 -0.055,0.149 -0.097,0.213 z"
   id="path26" />

		<path
   style="fill:#ffffff"
   d="m 364.759,197.874 c -0.573,0.181 -1.005,0.445 -1.424,0.715 -0.41,0.277 -0.766,0.588 -1.1,0.922 -0.334,0.333 -0.632,0.697 -0.878,1.126 -0.241,0.436 -0.454,0.908 -0.549,1.553 l -10e-4,0.01 c -0.046,0.312 0.166,0.603 0.472,0.651 0.029,0.005 0.061,0.007 0.09,0.007 0.654,-0.005 1.172,-0.206 1.642,-0.463 0.465,-0.264 0.858,-0.613 1.195,-1.013 0.338,-0.4 0.631,-0.84 0.851,-1.335 0.21,-0.501 0.384,-1.025 0.396,-1.651 0.006,-0.296 -0.226,-0.542 -0.517,-0.549 -0.058,-0.001 -0.114,0.007 -0.166,0.023 z"
   id="path27" />

		<path
   style="fill:#ffffff"
   d="m 136.244,197.749 c 0.573,0.181 1.005,0.445 1.424,0.715 0.41,0.277 0.767,0.588 1.1,0.922 0.334,0.333 0.632,0.697 0.878,1.126 0.241,0.436 0.454,0.908 0.549,1.553 l 0.001,0.01 c 0.046,0.312 -0.166,0.603 -0.472,0.651 -0.029,0.005 -0.061,0.007 -0.09,0.007 -0.654,-0.005 -1.172,-0.206 -1.642,-0.463 -0.465,-0.264 -0.858,-0.613 -1.195,-1.013 -0.338,-0.4 -0.631,-0.84 -0.851,-1.335 -0.21,-0.501 -0.384,-1.025 -0.396,-1.651 -0.006,-0.296 0.226,-0.542 0.517,-0.549 0.058,-0.001 0.114,0.007 0.166,0.023 z"
   id="path28" />

		<path
   style="fill:#ffffff"
   d="m 357.031,204.121 c -0.688,0.106 -1.23,0.331 -1.757,0.564 -0.517,0.242 -0.98,0.532 -1.42,0.851 -0.44,0.318 -0.845,0.677 -1.201,1.119 -0.352,0.45 -0.677,0.945 -0.896,1.655 l -0.003,0.011 c -0.106,0.343 0.086,0.708 0.43,0.814 0.033,0.01 0.069,0.018 0.102,0.023 0.751,0.107 1.379,-0.033 1.962,-0.243 0.578,-0.218 1.089,-0.545 1.545,-0.938 0.456,-0.393 0.868,-0.839 1.205,-1.358 0.327,-0.529 0.617,-1.089 0.738,-1.792 0.057,-0.333 -0.166,-0.649 -0.499,-0.706 -0.066,-0.011 -0.132,-0.012 -0.194,-0.002 z"
   id="path29" />

		<path
   style="fill:#ffffff"
   d="m 347.52,209.178 c -0.695,0.016 -1.261,0.169 -1.813,0.331 -0.544,0.173 -1.04,0.4 -1.517,0.66 -0.477,0.259 -0.924,0.562 -1.334,0.953 -0.406,0.4 -0.793,0.848 -1.102,1.524 l -0.005,0.011 c -0.149,0.326 -0.006,0.712 0.32,0.861 0.031,0.014 0.066,0.027 0.098,0.036 0.73,0.204 1.371,0.146 1.975,0.014 0.601,-0.141 1.15,-0.399 1.652,-0.729 0.503,-0.33 0.969,-0.719 1.369,-1.19 0.392,-0.481 0.752,-0.999 0.963,-1.679 0.1,-0.322 -0.08,-0.664 -0.402,-0.764 -0.064,-0.02 -0.129,-0.029 -0.192,-0.027 z"
   id="path30" />

		<path
   style="fill:#ffffff"
   d="m 337.558,213.593 c -0.693,-0.061 -1.272,0.027 -1.838,0.127 -0.559,0.111 -1.078,0.282 -1.58,0.486 -0.503,0.204 -0.981,0.455 -1.432,0.799 -0.448,0.352 -0.882,0.755 -1.264,1.391 l -0.006,0.01 c -0.185,0.308 -0.085,0.707 0.223,0.891 0.029,0.018 0.063,0.034 0.093,0.046 0.703,0.283 1.345,0.298 1.961,0.234 0.613,-0.073 1.187,-0.268 1.722,-0.54 0.536,-0.272 1.043,-0.606 1.493,-1.029 0.443,-0.434 0.858,-0.909 1.144,-1.561 0.135,-0.309 -0.006,-0.669 -0.315,-0.804 -0.061,-0.027 -0.125,-0.043 -0.188,-0.049 z"
   id="path31" />

		<path
   style="fill:#ffffff"
   d="m 327.128,216.629 c -0.686,-0.113 -1.271,-0.068 -1.843,-0.011 -0.566,0.069 -1.096,0.201 -1.613,0.367 -0.517,0.166 -1.012,0.381 -1.488,0.689 -0.473,0.318 -0.936,0.687 -1.365,1.293 l -0.007,0.01 c -0.207,0.293 -0.138,0.699 0.155,0.906 0.028,0.02 0.06,0.038 0.09,0.053 0.68,0.335 1.32,0.397 1.939,0.38 0.617,-0.027 1.204,-0.179 1.759,-0.41 0.555,-0.231 1.085,-0.527 1.566,-0.915 0.475,-0.4 0.924,-0.842 1.258,-1.472 0.158,-0.298 0.044,-0.668 -0.254,-0.825 -0.059,-0.031 -0.121,-0.052 -0.184,-0.063 z"
   id="path32" />

		<path
   style="fill:#ffffff"
   d="m 315.351,220.015 c -0.696,-0.007 -1.267,0.126 -1.825,0.27 -0.55,0.154 -1.054,0.365 -1.54,0.609 -0.486,0.243 -0.944,0.531 -1.367,0.908 -0.42,0.387 -0.822,0.822 -1.154,1.487 l -0.005,0.01 c -0.161,0.322 -0.03,0.712 0.292,0.873 0.03,0.015 0.065,0.029 0.097,0.039 0.724,0.228 1.366,0.192 1.976,0.081 0.606,-0.121 1.164,-0.36 1.677,-0.673 0.514,-0.313 0.994,-0.686 1.41,-1.144 0.409,-0.468 0.786,-0.974 1.02,-1.647 0.111,-0.319 -0.058,-0.667 -0.377,-0.778 -0.063,-0.022 -0.128,-0.033 -0.191,-0.034 z"
   id="path33" />

		<path
   style="fill:#ffffff"
   d="m 303.841,226.458 c -0.638,0.28 -1.105,0.637 -1.555,0.998 -0.438,0.368 -0.812,0.768 -1.155,1.19 -0.344,0.422 -0.643,0.874 -0.874,1.393 -0.224,0.526 -0.411,1.089 -0.44,1.833 v 0.012 c -0.014,0.359 0.266,0.662 0.626,0.676 0.034,0.001 0.071,-0.001 0.104,-0.004 0.754,-0.092 1.327,-0.387 1.837,-0.741 0.504,-0.36 0.914,-0.808 1.254,-1.306 0.34,-0.497 0.624,-1.036 0.816,-1.625 0.18,-0.596 0.316,-1.213 0.252,-1.924 -0.03,-0.337 -0.328,-0.585 -0.664,-0.555 -0.067,0.006 -0.13,0.023 -0.189,0.048 z"
   id="path34" />

	</g>
  </g>
</svg>
