<?xml version="1.0" encoding="UTF-8" standalone="no"?>
<!-- Created with Inkscape (http://www.inkscape.org/) -->

<svg
   width="16.940001mm"
   height="63.119999mm"
   viewBox="0 0 16.940001 63.119999"
   version="1.1"
   id="svg1"
   inkscape:version="1.4.3 (0d15f75, 2025-12-25)"
   sodipodi:docname="centipede.svg"
   xmlns:inkscape="http://www.inkscape.org/namespaces/inkscape"
   xmlns:sodipodi="http://sodipodi.sourceforge.net/DTD/sodipodi-0.dtd"
   xmlns="http://www.w3.org/2000/svg"
   xmlns:svg="http://www.w3.org/2000/svg">
  <sodipodi:namedview
     id="namedview1"
     pagecolor="#ffffff"
     bordercolor="#000000"
     borderopacity="0.25"
     inkscape:showpageshadow="2"
     inkscape:pageopacity="0.0"
     inkscape:pagecheckerboard="0"
     inkscape:deskcolor="#d1d1d1"
     inkscape:document-units="mm"
     inkscape:zoom="0.72604517"
     inkscape:cx="396.66953"
     inkscape:cy="561.25984"
     inkscape:window-width="1920"
     inkscape:window-height="1017"
     inkscape:window-x="-8"
     inkscape:window-y="-8"
     inkscape:window-maximized="1"
     inkscape:current-layer="layer1" />
  <defs
     id="defs1" />
  <g
     inkscape:label="Layer 1"
     inkscape:groupmode="layer"
     id="layer1">
    <path
       d="m 16.800212,16.923605 c 0.0691,0.004 0.13018,-0.0463 0.13864,-0.116152 0.009,-0.0725 -0.0429,-0.138377 -0.11536,-0.147373 l -5.7912,-0.705379 c -0.023,-0.33655 -0.0492,-0.6731 -0.0749,-1.00965 0.94774,0.01244 1.89574,0.0071 2.84321,-0.02249 0.95647,-0.03175 1.91373,-0.08599 2.86676,-0.203993 0.0685,-0.0093 0.12039,-0.07038 0.11589,-0.140229 -0.005,-0.07303 -0.068,-0.128059 -0.14102,-0.123032 -0.9443,0.05636 -1.89363,0.04974 -2.84163,0.02064 -0.94827,-0.03069 -1.89574,-0.08599 -2.84215,-0.159015 -0.006,-5.29e-4 -0.0138,-7.94e-4 -0.0201,-7.94e-4 -0.0101,0 -0.0188,0.0045 -0.0286,0.0053 -0.0275,-0.339725 -0.0572,-0.679185 -0.0876,-1.01891 0.89058,0.01005 1.78302,-0.01217 2.67202,-0.08017 0.89668,-0.07012 1.79308,-0.186796 2.67071,-0.402431 0.0669,-0.01667 0.11086,-0.08229 0.0987,-0.151342 -0.0124,-0.07197 -0.081,-0.120121 -0.1532,-0.107685 l -0.002,2.64e-4 c -0.86757,0.151342 -1.75128,0.206111 -2.6342,0.214842 -0.8837,0.0071 -1.76688,-0.03122 -2.64848,-0.101865 -0.007,-5.29e-4 -0.0151,-0.0011 -0.022,-0.0011 -0.0137,-2.65e-4 -0.0257,0.0058 -0.0392,0.0074 -0.0169,-0.18071 -0.0352,-0.36142 -0.0532,-0.541866 0.003,0 0.005,0.0013 0.007,0.0013 0.49372,-0.01006 0.91414,-0.0971 1.35017,-0.189707 0.43127,-0.09551 0.85513,-0.212195 1.27344,-0.347662 0.41804,-0.135996 0.83053,-0.290513 1.23217,-0.474133 0.40057,-0.18415 0.79322,-0.397934 1.14538,-0.680773 0.0534,-0.04313 0.0656,-0.12118 0.0259,-0.178594 -0.0418,-0.06006 -0.12409,-0.07488 -0.18415,-0.03334 l -0.002,0.0016 c -0.34052,0.236537 -0.72681,0.414337 -1.12263,0.563298 -0.39661,0.148696 -0.80486,0.26961 -1.21735,0.372533 -0.41248,0.102394 -0.83052,0.186267 -1.24909,0.248708 -0.41328,0.06059 -0.8517,0.110332 -1.22344,0.09022 l -0.0185,-0.0011 c -0.007,-2.65e-4 -0.0148,-5.29e-4 -0.0225,-2.65e-4 -0.0196,2.65e-4 -0.0365,0.0085 -0.055,0.01217 -7.9e-4,-0.0077 -0.001,-0.01508 -0.002,-0.02275 -0.0365,-0.343164 -0.0757,-0.686329 -0.1143,-1.029229 0.0238,0.0058 0.0463,0.01482 0.0717,0.01482 0.45429,0.0021 0.8091,-0.09419 1.18269,-0.190236 0.36698,-0.101335 0.72443,-0.223573 1.07527,-0.362744 0.35084,-0.138641 0.69374,-0.299772 1.0242,-0.489743 0.32623,-0.194469 0.65537,-0.406136 0.90011,-0.743215 0.0397,-0.05503 0.0315,-0.132821 -0.0209,-0.1778 -0.0553,-0.04736 -0.13864,-0.04101 -0.186,0.01429 l -0.008,0.0098 c -0.21272,0.247915 -0.53181,0.429154 -0.85063,0.582348 -0.32332,0.151871 -0.66225,0.278606 -1.00754,0.383117 -0.34501,0.105039 -0.69611,0.19341 -1.04748,0.260085 -0.34422,0.06403 -0.72152,0.115094 -1.00621,0.08784 l -0.0241,-0.0024 c -0.009,-7.94e-4 -0.0185,-0.0013 -0.028,-0.0013 -0.0513,-2.65e-4 -0.0979,0.01482 -0.14103,0.03625 -0.0273,-0.229394 -0.0574,-0.458523 -0.0863,-0.687917 0.55298,-0.105304 1.07553,-0.288131 1.56421,-0.547158 0.48578,-0.261144 0.9443,-0.609865 1.25413,-1.080294 0.0365,-0.05556 0.0267,-0.130704 -0.0257,-0.174361 -0.0561,-0.04709 -0.1397,-0.03969 -0.18654,0.0164 l -10e-4,0.0013 c -0.3212,0.383381 -0.76438,0.64717 -1.23005,0.832114 -0.46513,0.182563 -0.96467,0.293423 -1.45309,0.328613 -0.041,-0.306652 -0.0881,-0.613569 -0.13335,-0.920221 0.20003,-0.04974 0.38947,-0.123561 0.56277,-0.217752 0.39079,-0.213254 0.71358,-0.532342 0.91123,-0.917046 0.38946,-0.773906 0.23283,-1.656821 -0.25268,-2.199746 -0.0378,-0.04207 -0.0998,-0.05715 -0.15399,-0.03307 -0.0675,0.03016 -0.0976,0.109009 -0.0675,0.176477 l 0.002,0.0034 c 0.25109,0.562239 0.0884,1.224756 -0.26723,1.550458 -0.17436,0.163777 -0.39952,0.264583 -0.62177,0.297127 -0.11351,0.0172 -0.22516,0.01482 -0.3275496,-0.0026 -0.0415,-0.242358 -0.0796,-0.484452 -0.12489,-0.72681 -0.036,-0.189177 -0.11165,-0.366448 -0.21431,-0.525992 0.0169,-0.02408 0.0347,-0.04763 0.054,-0.06959 L 9.8716924,4.683087 10.054522,4.36056 c 0.22886,-0.437886 0.40455,-0.9017 0.5244,-1.377686 0.11907,-0.476514 0.18098,-0.964935 0.1823,-1.452033 -0.002,-0.486569 -0.0574,-0.97207897 -0.19103,-1.43430597 -0.0167,-0.05689 -0.0704,-0.09816 -0.13255,-0.0963099953 -0.0736,0.002399995 -0.13124,0.0640299953 -0.12886,0.1375839953 0.0124,0.459845 -0.004,0.91281197 -0.0698,1.35757697 -0.0622,0.444235 -0.16483,0.880004 -0.3061196,1.299898 -0.14023,0.420422 -0.32014,0.8255 -0.53631,1.208087 l -0.16774,0.283633 -0.17489,0.261673 c -0.12515,-0.06482 -0.26035,-0.114035 -0.40561,-0.141023 -0.28443,-0.05318 -0.56436,-0.01984 -0.81492,0.07937 l -0.13361,-0.200025 -0.16775,-0.283633 c -0.21643,-0.382587 -0.39608,-0.787665 -0.53631,-1.208087 -0.14129,-0.420159 -0.24394,-0.855663 -0.30612,-1.299898 -0.0653,-0.444765 -0.0823,-0.89773197 -0.0699,-1.35757697 0.002,-0.05927 -0.0368,-0.115359 -0.0963,-0.132557 -0.0706,-0.02037 -0.14473,0.02037 -0.1651,0.09102 -0.13361,0.462227 -0.18918,0.94773697 -0.19103,1.43430597 0.001,0.487098 0.0632,0.975784 0.1823,1.452034 0.11986,0.475985 0.2958,0.9398 0.5244,1.377685 l 0.18283,0.322527 0.16378,0.254794 c -0.14737,0.183885 -0.25321,0.405077 -0.29951,0.652991 -0.046,0.246328 -0.0847,0.492919 -0.127,0.739246 -0.0455,-7.94e-4 -0.0913,-0.0029 -0.13785,-0.01005 -0.22225,-0.03254 -0.44741,-0.133085 -0.62177,-0.297127 -0.35586,-0.325437 -0.51858,-0.987954 -0.26723,-1.550458 l 0.002,-0.0034 c 0.023,-0.05159 0.0114,-0.1143 -0.0331,-0.153987 -0.055,-0.04921 -0.13944,-0.04445 -0.18865,0.01058 -0.48551,0.542925 -0.64215,1.425575 -0.25268,2.199746 0.19765,0.384704 0.52044,0.703527 0.91123,0.917046 0.12038,0.06562 0.24897,0.120385 0.38285,0.165364 -0.0471,0.3175 -0.0958,0.635 -0.13838,0.9525 -0.42889,-0.04736 -0.86148,-0.148696 -1.26815,-0.308504 -0.46566,-0.184944 -0.90884,-0.448998 -1.23004,-0.832115 l -0.001,-0.0013 c -0.0426,-0.05106 -0.11747,-0.06297 -0.17436,-0.0254 -0.0611,0.04022 -0.078,0.122238 -0.0378,0.183357 0.30982,0.470429 0.76835,0.81915 1.25412,1.080293 0.43418,0.230188 0.89641,0.396875 1.38192,0.505619 -0.0294,0.231775 -0.0598,0.463815 -0.0873,0.69559 l -0.01,0.0011 c -0.28496,0.02725 -0.66199,-0.02381 -1.00621,-0.08784 -0.35137,-0.06668 -0.70221,-0.154781 -1.04749,-0.260085 -0.34554,-0.10451 -0.68421,-0.231246 -1.00753,-0.383117 -0.31882,-0.153193 -0.63791,-0.334433 -0.85064,-0.582348 l -0.009,-0.01032 c -0.0445,-0.05133 -0.12144,-0.06112 -0.17727,-0.02037 -0.059,0.04286 -0.072,0.125412 -0.0294,0.184414 0.24474,0.33708 0.57415,0.548746 0.90012,0.743215 0.33046,0.189971 0.67336,0.350837 1.0242,0.489744 0.35084,0.139171 0.70829,0.261408 1.07526,0.362743 0.33999,0.08758 0.66808,0.171186 1.06601,0.18468 -0.0386,0.339989 -0.0773,0.679979 -0.11351,1.019968 -5.2e-4,0.0042 -7.9e-4,0.0085 -0.001,0.0127 -0.35189,0.0087 -0.75194,-0.03519 -1.13321,-0.09128 -0.41883,-0.06218 -0.83661,-0.14605 -1.2491,-0.248708 -0.41248,-0.102923 -0.82073,-0.223838 -1.21734,-0.372534 -0.39582,-0.148695 -0.78211,-0.32676 -1.12263,-0.563297 l -0.003,-0.0019 c -0.0566,-0.03916 -0.13441,-0.02831 -0.17833,0.02619 -0.0458,0.05689 -0.0368,0.140229 0.0204,0.186002 0.35216,0.28284 0.7448,0.496623 1.14538,0.680773 0.40163,0.183621 0.81412,0.337873 1.23216,0.474134 0.41831,0.135731 0.84244,0.252412 1.27344,0.347662 0.38153,0.08123 0.75406,0.154781 1.17131,0.179388 -0.0182,0.184414 -0.0368,0.369093 -0.0542,0.553508 -0.83952,0.06429 -1.68063,0.09975 -2.52201,0.09287 -0.88291,-0.0085 -1.76662,-0.06324 -2.63418996,-0.214842 l -0.002,-2.65e-4 c -0.0677,-0.01164 -0.13415,0.03096 -0.15082,0.09895 -0.0175,0.07091 0.0259,0.142611 0.0971,0.160073 0.87734996,0.215636 1.77402996,0.332582 2.67069996,0.402432 0.82682,0.06323 1.65629,0.08572 2.4847,0.08043 -0.0304,0.341048 -0.0603,0.682096 -0.0878,1.023144 -0.90011,0.068 -1.80128,0.12065 -2.70298,0.149754 -0.94801,0.02884 -1.89733,0.03545 -2.84162996,-0.02064 -0.0691,-0.004 -0.13176,0.0463 -0.14023,0.115888 -0.009,0.0725 0.0426,0.138642 0.1151,0.147637 0.95302996,0.118005 1.91028996,0.172244 2.86675996,0.203994 0.88503,0.02778 1.77059,0.03254 2.65562,0.02328 -0.0262,0.343959 -0.0526,0.687917 -0.0762,1.031875 l -5.60228996,0.682361 c -0.0685,0.0085 -0.12012,0.06906 -0.11588999988,0.139171 0.004,0.07303 0.0668999999,0.128587 0.13996999988,0.124089 l 0.004,-2.64e-4 5.53507996,-0.328348 c -0.0143,0.22516 -0.0294,0.450321 -0.0426,0.675481 -0.381,0.08123 -0.72416,0.198438 -1.07606,0.315119 -0.45667,0.156633 -0.90514,0.325966 -1.35017,0.502708 -0.88953,0.354277 -1.76688,0.731044 -2.63550996,1.127919 -0.0627,0.0291 -0.0937,0.102394 -0.0685,0.16801 0.0262,0.06826 0.10292,0.102129 0.17092,0.07594 0.88740996,-0.339196 1.78328996,-0.657754 2.68445996,-0.951707 0.45059,-0.146579 0.90329,-0.28522 1.35652,-0.409045 0.29237,-0.07858 0.59373,-0.154252 0.88265,-0.206375 -0.0241,0.421745 -0.0471,0.843227 -0.0675,1.264972 -0.3339,0.119328 -0.63711,0.262467 -0.94667,0.406665 -0.43551,0.208492 -0.86122,0.42889 -1.2827,0.655902 -0.84244,0.455083 -1.67032,0.930804 -2.48708996,1.426104 -0.059,0.03598 -0.0812,0.112713 -0.0487,0.174625 0.0339,0.06482 0.11403,0.08969 0.17859,0.05556 0.84216996,-0.439738 1.69491996,-0.860161 2.55587996,-1.256506 0.43047,-0.197909 0.86413,-0.388144 1.2999,-0.563563 0.23071,-0.09181 0.46831,-0.183092 0.70141,-0.26035 -0.0199,0.446617 -0.0376,0.893233 -0.0532,1.339585 -5.2e-4,0 -10e-4,0 -0.002,0 -0.52599,0.133615 -0.95092,0.339461 -1.39198,0.545042 -0.4355,0.208492 -0.86121,0.42889 -1.2827,0.655902 -0.84243,0.455084 -1.67031,0.930804 -2.48707996,1.426104 -0.059,0.03598 -0.0812,0.112713 -0.0487,0.174625 0.0339,0.06482 0.11403,0.08969 0.17859,0.05556 0.84216996,-0.439738 1.69491996,-0.860161 2.55587996,-1.256506 0.43047,-0.197909 0.86413,-0.388144 1.29989,-0.563563 0.38365,-0.152664 0.78476,-0.303212 1.15412,-0.38735 -0.0143,0.456936 -0.0265,0.913606 -0.037,1.370542 -0.38048,0.154252 -0.70777,0.343694 -1.03744,0.537898 -0.38867,0.233627 -0.76544,0.47916 -1.13744,0.729985 -0.74321,0.502444 -1.46897,1.024202 -2.19022,1.550988 -0.0556,0.04075 -0.0712,0.118533 -0.0339,0.177535 0.0392,0.06191 0.12092,0.08017 0.18257,0.04128 0.75406,-0.475456 1.5113,-0.945356 2.27859,-1.391179 0.38391,-0.222515 0.77073,-0.43815 1.16125,-0.638175 0.25109,-0.127794 0.51012,-0.251619 0.76306,-0.351367 -0.013,0.656961 -0.0225,1.314186 -0.0286,1.971146 -0.37571,0.117475 -0.72205,0.281781 -1.05252,0.460375 -0.43312,0.236802 -0.84005,0.503767 -1.23639,0.780521 -0.79217,0.554037 -1.53909,1.153583 -2.30823,1.714764 -0.0558,0.04075 -0.0717,0.119063 -0.0339,0.17833 0.0392,0.06165 0.12118,0.0799 0.18283,0.04048 0.81095,-0.516467 1.59438,-1.067065 2.40401,-1.559719 0.40428,-0.245798 0.81465,-0.478631 1.23454,-0.674423 0.26432,-0.122767 0.53446,-0.228335 0.80407,-0.307446 -0.005,0.808567 -0.005,1.617134 -0.002,2.425965 -0.48683,0.180181 -0.90593,0.406664 -1.33217,0.641614 -0.47017,0.265378 -0.92843,0.546365 -1.37557,0.843492 -0.89112,0.597694 -1.75948,1.235075 -2.53048,1.993106 -0.0513,0.05054 -0.0553,0.13335 -0.007,0.188648 0.05,0.05715 0.13679,0.06324 0.1942,0.01323 l 0.002,-0.0016 c 0.78952,-0.68924 1.6801,-1.265767 2.58683,-1.798638 0.45482,-0.265112 0.91969,-0.513291 1.39012,-0.74295 0.35322,-0.170656 0.72152,-0.340254 1.07712,-0.465137 0.005,0.681567 0.0143,1.363133 0.0249,2.0447 -0.40455,0.177006 -0.74983,0.394494 -1.10172,0.615685 -0.44001,0.284163 -0.86387,0.585259 -1.27794,0.898525 -0.8255,0.628915 -1.62163,1.294077 -2.35903,2.02565 -0.0505,0.05133 -0.0542,0.134938 -0.006,0.189442 0.0505,0.05662 0.13758,0.06165 0.1942,0.01085 0.76624,-0.672571 1.59174,-1.280319 2.43893,-1.847056 0.42466,-0.281782 0.85752,-0.550598 1.29778,-0.798248 0.26829,-0.14949 0.54795,-0.29554 0.82233,-0.414867 0.0135,0.733425 0.0336,1.46685 0.054,2.200275 -0.46619,0.156898 -0.89244,0.347927 -1.31736,0.552979 -0.4564,0.222515 -0.90302,0.461963 -1.33853,0.720196 -0.8673,0.519906 -1.70788,1.097492 -2.43416,1.813983 -0.0511,0.05054 -0.055,0.133086 -0.007,0.188119 0.0498,0.05741 0.13679,0.0635 0.19394,0.01349 l 0.002,-0.0016 c 0.74109,-0.643995 1.59464,-1.155435 2.46962,-1.607343 0.43921,-0.224367 0.88847,-0.429684 1.34302,-0.616744 0.36433,-0.149225 0.73845,-0.288661 1.10517,-0.396611 0.0198,0.63844 0.0468,1.27688 0.0725,1.915319 -0.46143,0.182298 -0.87206,0.415131 -1.26973,0.66675 -0.44662,0.286809 -0.87048,0.601398 -1.27635,0.936625 -0.80725,0.673365 -1.55813,1.4224 -2.15423996,2.295525 -0.0405,0.05953 -0.0283,0.141552 0.0294,0.186267 0.0601,0.04657 0.14658,0.03572 0.19313996,-0.02434 l 0.001,-0.0016 c 0.62362,-0.80354 1.39647,-1.486694 2.21535,-2.088886 0.41143,-0.299773 0.83847,-0.57785 1.27926,-0.824177 0.32809,-0.182298 0.66887,-0.351366 1.00727,-0.478366 0.0323,0.746654 0.0714,1.493572 0.11192,2.240227 -0.49186,0.186266 -0.92736,0.428889 -1.3499,0.69162 -0.45747,0.288396 -0.89218,0.604838 -1.30916,0.942182 -0.82947,0.677598 -1.60391,1.431395 -2.22223996,2.313781 -0.0418,0.0598 -0.0304,0.142875 0.0275,0.188912 0.0603,0.04789 0.1479,0.03784 0.19552996,-0.02223 l 10e-4,-0.0016 c 0.64532,-0.811742 1.44145,-1.4986 2.28256,-2.104496 0.42254,-0.30136 0.86043,-0.581025 1.31207,-0.828675 0.35798,-0.195262 0.72946,-0.373327 1.09802,-0.503767 0.008,0.14658 0.0143,0.292894 0.023,0.439473 0.037,0.607484 0.0831,1.214702 0.1262,1.822186 -0.44132,0.179387 -0.83925,0.402431 -1.22607,0.642937 -0.45747,0.288396 -0.89218,0.604838 -1.30916,0.942181 -0.82947,0.677598 -1.60391,1.431396 -2.22224,2.313782 -0.0418,0.05979 -0.0304,0.142875 0.0275,0.188912 0.0601,0.04789 0.14764,0.03784 0.19553,-0.02249 l 10e-4,-0.0016 c 0.64532,-0.811742 1.44145,-1.4986 2.28256,-2.104496 0.42254,-0.30136 0.86042,-0.581025 1.31207,-0.828675 0.3212,-0.175154 0.65378,-0.336814 0.98478,-0.462756 0.0466,0.621242 0.10027,1.242483 0.15398,1.86399 -0.47016,0.170656 -0.85857,0.445822 -1.21496,0.734747 -0.4527,0.377561 -0.84773,0.805392 -1.20544,1.25783 -0.35693,0.453495 -0.67522,0.934508 -0.95118,1.438804 -0.2749,0.50456 -0.50906,1.032933 -0.67019,1.5875 -0.0198,0.07038 0.0183,0.146314 0.0881,0.170391 0.0728,0.02514 0.15213,-0.01349 0.17727,-0.08599 0.18335,-0.519906 0.43709,-1.014677 0.72839,-1.483783 0.2921,-0.468842 0.62416,-0.912813 0.98822,-1.325298 0.3646,-0.411427 0.762,-0.794015 1.1946,-1.11469 0.29051,-0.215106 0.60722,-0.403754 0.92233,-0.523081 0.0273,0.299508 0.0495,0.599016 0.0783,0.898789 0.0622,0.629444 0.12912,1.258623 0.19923,1.888067 -0.0802,0.07699 -0.16007,0.154252 -0.23945,0.23151 -0.42068,0.443178 -0.77417,0.928688 -1.09405,1.430867 -0.31882,0.502973 -0.60245,1.024996 -0.85354,1.561306 -0.25003,0.53684 -0.46964,1.088232 -0.63527,1.658938 -0.0201,0.07038 0.018,0.14605 0.0881,0.170391 0.0728,0.02514 0.15213,-0.01323 0.17727,-0.08599 0.19023,-0.542661 0.43339,-1.068123 0.70485,-1.576123 0.27252,-0.507735 0.57547,-0.998802 0.90831,-1.465527 0.31115,-0.43471 0.65061,-0.849048 1.02526,-1.214438 0.1233,1.042194 0.26326,2.084653 0.43127,3.126846 -0.1217,0.280988 -0.26114,0.556684 -0.41063,0.830792 -0.39634,0.740039 -0.90302,1.452033 -1.29593,2.258748 -0.4056,0.805656 -0.63235,1.700741 -0.68791,2.59371 -0.031,0.447146 -0.014,0.896408 0.0508,1.337733 0.0622,0.441325 0.1651,0.876036 0.31882,1.291432 0.0233,0.06165 0.0894,0.09842 0.15504,0.08281 0.0712,-0.01693 0.1151,-0.08837 0.0982,-0.159808 -0.0963,-0.413808 -0.16113,-0.832908 -0.18441,-1.253331 -0.0209,-0.420423 -0.008,-0.840846 0.0384,-1.256242 0.0942,-0.833173 0.35455,-1.633008 0.73925,-2.369344 0.3892,-0.740833 0.89138,-1.446477 1.31445,-2.233083 0.054,-0.102658 0.10583,-0.207433 0.15505,-0.313531 0.20425,0.280987 0.50826,0.487098 0.86889,0.568325 -0.01,0.433123 0.0214,0.862541 0.054,1.294606 l 0.0717,1.273175 0.0812,1.276085 c 0.0572,0.85143 0.12065,1.704711 0.21246,2.556934 0.0897,0.852223 0.20082,1.704446 0.36751,2.548202 0.0122,0.06138 0.0661,0.107685 0.13097,0.107421 0.0733,-2.65e-4 0.13282,-0.06006 0.13229,-0.13335 l -0.01,-2.55614 c -10e-4,-0.851429 -0.008,-1.703123 -0.0206,-2.556404 l -0.0267,-1.281113 -0.0534,-1.283229 c -0.0148,-0.432329 -0.037,-0.866775 -0.10848,-1.296987 0.4445,-0.163777 0.79798,-0.537104 0.92022,-1.020234 0.0998,0.282575 0.2217196,0.555625 0.3587696,0.81624 0.42307,0.786606 0.92525,1.49225 1.31445,2.233083 0.38497,0.736336 0.64506,1.536171 0.73925,2.369344 0.046,0.415396 0.059,0.835819 0.0381,1.256242 -0.0233,0.420423 -0.0881,0.839523 -0.18441,1.253331 -0.0151,0.06403 0.0196,0.131498 0.0828,0.155046 0.0685,0.0254 0.14499,-0.0095 0.17039,-0.07832 0.15399,-0.415396 0.25665,-0.850371 0.31883,-1.291431 0.0648,-0.441325 0.0817,-0.890588 0.0508,-1.337733 -0.0556,-0.892969 -0.28232,-1.788055 -0.68792,-2.593711 -0.39291,-0.806714 -0.89958,-1.518708 -1.29593,-2.258748 -0.30083,-0.550598 -0.56039,-1.108604 -0.7178196,-1.703387 0.1182696,-0.805127 0.2230496,-1.60999 0.3169796,-2.415117 0.0304,0.02725 0.0611,0.05424 0.0908,0.08229 0.40666,0.383381 0.77046,0.827616 1.10357,1.293018 0.33285,0.466461 0.6358,0.957792 0.90832,1.465527 0.27146,0.508 0.51461,1.033463 0.70485,1.576123 0.0243,0.06906 0.0992,0.108744 0.17039,0.08811 0.0738,-0.02143 0.11642,-0.09869 0.095,-0.172509 -0.16563,-0.570706 -0.38524,-1.122098 -0.63527,-1.658937 -0.25109,-0.536575 -0.53472,-1.058334 -0.85354,-1.561306 -0.31989,-0.50218 -0.67337,-0.98769 -1.09379,-1.430867 -0.1098,-0.107156 -0.21828,-0.2159 -0.33205,-0.321204 -0.0265,-0.02064 -0.0516,-0.0426 -0.0773,-0.06377 0.0638,-0.578114 0.12462,-1.156494 0.18177,-1.734608 0.0307,-0.319881 0.0545,-0.639498 0.0836,-0.959379 0.37385,0.10742 0.75776,0.327025 1.10437,0.58367 0.43259,0.320675 0.83026,0.703263 1.19459,1.11469 0.36433,0.412485 0.69612,0.856456 0.98822,1.325298 0.2913,0.469106 0.54478,0.963877 0.7284,1.483783 0.0246,0.06906 0.0992,0.108744 0.17039,0.08811 0.0738,-0.02143 0.11641,-0.09869 0.095,-0.172509 -0.16086,-0.554302 -0.39528,-1.082939 -0.66992,-1.5875 -0.27596,-0.504296 -0.59452,-0.985044 -0.95118,-1.438804 -0.35772,-0.452702 -0.75274,-0.880269 -1.20544,-1.257829 -0.40164,-0.325702 -0.8427,-0.635265 -1.39726,-0.795602 0.0537,-0.6223 0.10662,-1.2446 0.15319,-1.8669 0.39132,0.131762 0.78713,0.318823 1.16787,0.526521 0.45138,0.24765 0.88953,0.527314 1.31207,0.828675 0.84111,0.605896 1.63724,1.292754 2.28256,2.104495 l 0.002,0.0019 c 0.0455,0.05689 0.12805,0.06959 0.18864,0.02699 0.063,-0.04418 0.0783,-0.130969 0.0341,-0.19394 -0.61834,-0.882385 -1.39277,-1.636183 -2.22224,-2.313781 -0.41698,-0.337343 -0.85196,-0.653785 -1.30916,-0.942181 -0.43947,-0.273315 -0.89164,-0.525992 -1.40838,-0.71464 0.0413,-0.583406 0.0857,-1.166812 0.12118,-1.750483 0.0101,-0.166423 0.0167,-0.33311 0.0262,-0.499533 0.42809,0.131498 0.86439,0.336021 1.28217,0.563827 0.45138,0.24765 0.88953,0.527314 1.31207,0.828675 0.84111,0.605896 1.63724,1.292754 2.28256,2.104496 l 0.002,0.0019 c 0.0455,0.05688 0.12805,0.06958 0.18864,0.02699 0.063,-0.04418 0.0783,-0.130968 0.0341,-0.193939 -0.61833,-0.882386 -1.39276,-1.636184 -2.22223,-2.313782 -0.41698,-0.337343 -0.85196,-0.653785 -1.30916,-0.942181 -0.46011,-0.286279 -0.93239,-0.551921 -1.48034,-0.74295 -0.006,-0.0021 -0.0132,-0.0045 -0.0196,-0.0061 -0.0114,-0.0032 -0.0228,-5.29e-4 -0.0341,-0.0026 0.0405,-0.747183 0.0791,-1.494367 0.11112,-2.24155 0.39873,0.13044 0.80407,0.324115 1.19248,0.539485 0.44079,0.246328 0.86783,0.524405 1.27926,0.824177 0.81915,0.602192 1.592,1.285346 2.21536,2.088886 l 0.002,0.0021 c 0.0442,0.05688 0.12568,0.07011 0.186,0.02884 0.0627,-0.04286 0.0788,-0.128587 0.036,-0.191294 -0.59611,-0.87286 -1.347,-1.62216 -2.15424,-2.295525 -0.40587,-0.335227 -0.82973,-0.649816 -1.27635,-0.936625 -0.44953,-0.284691 -0.91122,-0.54901 -1.44992,-0.738452 -10e-4,-5.29e-4 -0.003,-0.0011 -0.004,-0.0013 0.0249,-0.631295 0.0516,-1.262591 0.0709,-1.894152 0.42545,0.112184 0.86493,0.274109 1.29117,0.448469 0.45456,0.187061 0.90382,0.392377 1.34303,0.616744 0.87524,0.451908 1.72852,0.963348 2.46962,1.607344 l 0.002,0.0019 c 0.0542,0.0471 0.13679,0.04445 0.18786,-0.0077 0.0534,-0.05398 0.0526,-0.141288 -0.001,-0.194469 -0.72628,-0.716492 -1.56686,-1.294077 -2.43416,-1.813983 -0.43551,-0.258234 -0.88186,-0.497682 -1.33853,-0.720196 -0.45905,-0.221456 -0.91784,-0.428625 -1.42928,-0.591873 -0.006,-0.0021 -0.0138,-0.0042 -0.0201,-0.0058 -0.0182,-0.0045 -0.036,-0.0011 -0.0542,-0.0024 0.0206,-0.744273 0.041,-1.488281 0.0545,-2.232554 0.33205,0.127529 0.67918,0.310885 1.00806,0.494241 0.44027,0.24765 0.87313,0.516467 1.29778,0.798248 0.8472,0.566738 1.6727,1.174486 2.43893,1.847057 0.0542,0.04736 0.13785,0.04604 0.18944,-0.0056 0.0534,-0.05398 0.0532,-0.141023 -7.9e-4,-0.194468 -0.73739,-0.731838 -1.53326,-1.396736 -2.35876,-2.02565 -0.41407,-0.313003 -0.8382,-0.614098 -1.27794,-0.898525 -0.40402,-0.254 -0.80063,-0.50165 -1.28826,-0.689769 0.0103,-0.676275 0.0198,-1.35255 0.0249,-2.028825 0.41222,0.126206 0.84772,0.322527 1.26391,0.523346 0.47043,0.229658 0.9353,0.477837 1.39012,0.74295 0.90673,0.532871 1.79732,1.109398 2.58683,1.798637 l 0.002,0.0019 c 0.0545,0.04736 0.13705,0.04472 0.18838,-0.0074 0.0532,-0.05424 0.0524,-0.141288 -0.002,-0.194469 -0.77099,-0.758031 -1.63935,-1.395148 -2.53047,-1.993106 -0.44715,-0.297392 -0.9054,-0.578379 -1.37557,-0.843492 -0.47625,-0.262731 -0.93927,-0.518318 -1.50363,-0.706173 -0.005,-0.0016 -0.0103,-0.0032 -0.0156,-0.0048 0.003,-0.802746 0.003,-1.605756 -0.002,-2.408502 0.33179,0.07937 0.66596,0.207962 0.99166,0.359304 0.41989,0.195792 0.83026,0.428625 1.23455,0.674423 0.80962,0.492654 1.59305,1.043252 2.404,1.559719 0.0585,0.03678 0.13705,0.02275 0.17833,-0.03413 0.0429,-0.05927 0.0296,-0.141816 -0.0296,-0.184679 -0.76915,-0.561446 -1.51607,-1.160991 -2.30823,-1.714764 -0.39635,-0.276755 -0.80327,-0.543719 -1.2364,-0.780521 -0.38444,-0.207698 -0.7919,-0.392906 -1.24036,-0.510117 -0.006,-0.663575 -0.0161,-1.327414 -0.0294,-1.990989 0.31088,0.106098 0.63764,0.261408 0.9517,0.420952 0.39079,0.200025 0.77735,0.415925 1.16126,0.638175 0.76729,0.445823 1.52453,0.915723 2.27859,1.391179 0.0582,0.03651 0.13626,0.02249 0.17754,-0.03387 0.0431,-0.059 0.0302,-0.141817 -0.0288,-0.184944 -0.72126,-0.52652 -1.44701,-1.048543 -2.19022,-1.550987 -0.37201,-0.250825 -0.74877,-0.496358 -1.13745,-0.729985 -0.38364,-0.225955 -0.76067,-0.44794 -1.22661,-0.611717 -0.0106,-0.448469 -0.0228,-0.896938 -0.0368,-1.345406 0.0116,0.0037 0.0212,0.01111 0.0336,0.01349 l 0.0183,0.0034 c 0.40481,0.07382 0.86042,0.24765 1.29143,0.419365 0.43577,0.175418 0.86942,0.365654 1.29989,0.563562 0.86096,0.396346 1.71371,0.816769 2.55588,1.256506 0.0614,0.03175 0.13838,0.01138 0.17462,-0.04868 0.0378,-0.06244 0.018,-0.143933 -0.0444,-0.181769 -0.81676,-0.495035 -1.64465,-0.971021 -2.48708,-1.426104 -0.42148,-0.227277 -0.84719,-0.447675 -1.2827,-0.655902 -0.44132,-0.205581 -0.86598,-0.411427 -1.39197,-0.545042 -0.007,-0.0016 -0.014,-0.0032 -0.0209,-0.0045 -0.0593,-0.01085 -0.1151,7.94e-4 -0.16748,0.0209 -0.0167,-0.471752 -0.0355,-0.943504 -0.0566,-1.414991 0.2929,0.08678 0.59743,0.202406 0.89165,0.319352 0.43577,0.175419 0.86942,0.365654 1.2999,0.563562 0.86095,0.396346 1.7137,0.816769 2.55587,1.256507 0.0614,0.03175 0.13838,0.01138 0.17463,-0.04868 0.0378,-0.06244 0.018,-0.143933 -0.0445,-0.181768 -0.81677,-0.495036 -1.64465,-0.971021 -2.48709,-1.426105 -0.42148,-0.227277 -0.84719,-0.447675 -1.2827,-0.655902 -0.36671,-0.170921 -0.72548,-0.339196 -1.13691,-0.468841 -0.0201,-0.411163 -0.0429,-0.822325 -0.0664,-1.233752 0.34422,0.04815 0.71517,0.141552 1.07183,0.237331 0.45323,0.123825 0.90593,0.262467 1.35652,0.409046 0.90117,0.293952 1.79705,0.61251 2.68446,0.951706 0.0646,0.02461 0.13864,-0.0048 0.16774,-0.06853 0.0304,-0.06641 0.001,-0.144992 -0.0653,-0.175419 -0.86863,-0.397139 -1.74598,-0.773906 -2.63551,-1.127919 -0.44503,-0.176741 -0.8935,-0.346339 -1.35017,-0.502708 -0.40852,-0.135202 -0.80777,-0.268817 -1.26577,-0.348192 -0.0127,-0.217752 -0.0273,-0.435504 -0.041,-0.65352 l 5.7232,0.33946 z"
       id="path9"
       style="stroke-width:0.264583" />
  </g>
</svg>
