<?xml version="1.0" encoding="UTF-8" standalone="no"?>
<!-- Created with Inkscape (http://www.inkscape.org/) -->

<svg
   width="24mm"
   height="40mm"
   viewBox="0 0 24 40"
   version="1.1"
   id="svg1"
   xmlns="http://www.w3.org/2000/svg"
   xmlns:svg="http://www.w3.org/2000/svg">
  <defs
     id="defs1" />
  <g
     id="layer1">
    <g
       id="g26"
       transform="matrix(0.26458333,0,0,0.26458333,-51.383141,-33.214997)">
		<g
   id="g17">
			<path
   d="m 257.138,215.625 c 0,-8.502 -1.827,-16.827 -3.301,-25.158 -1.131,-6.396 -2.173,-12.809 -3.264,-19.212 -0.085,-0.497 -0.169,-0.994 -0.254,-1.491 h -15.046 c -0.261,0 -1.713,4.619 -1.915,5.153 -0.714,1.877 -1.438,3.751 -2.149,5.629 -1.421,3.756 -2.798,7.532 -3.95,11.38 -2.311,7.72 -3.344,15.646 -3.344,23.699 0,21.973 7.437,39.785 16.611,39.785 9.175,0 16.612,-17.812 16.612,-39.785 z"
   id="path16" />

		</g>

		<g
   id="g18">
			<path
   d="m 274.577,273.996 -8.959,-8.609 c -0.905,-0.87 -1.897,-1.726 -2.857,-2.554 -1.145,-0.988 -2.328,-2.009 -3.388,-3.073 -1.929,-1.936 -1.679,-4.746 -1.478,-7.003 0.031,-0.348 0.062,-0.69 0.083,-1.02 0.302,-4.537 0.555,-8.973 0.754,-13.185 0.021,-0.449 0.084,-0.965 0.152,-1.509 0.193,-1.559 0.434,-3.5 -0.481,-4.055 -0.649,-0.394 -1.662,-0.61 -2.642,-0.818 -0.517,-0.11 -1.018,-0.217 -1.459,-0.346 l 0.502,-1.724 c 0.402,0.117 0.859,0.213 1.33,0.313 1.127,0.24 2.292,0.487 3.201,1.04 1.906,1.158 1.587,3.738 1.33,5.81 -0.061,0.495 -0.121,0.964 -0.14,1.372 -0.199,4.224 -0.453,8.672 -0.756,13.22 -0.022,0.342 -0.054,0.697 -0.086,1.06 -0.185,2.081 -0.377,4.233 0.962,5.577 1.012,1.016 2.169,2.015 3.289,2.98 0.978,0.844 1.988,1.717 2.928,2.62 l 8.96,8.609 z"
   id="path17" />

		</g>

		<g
   id="g19">
			<path
   d="m 207.015,274.781 -1.244,-1.294 8.959,-8.609 c 0.94,-0.904 1.952,-1.777 2.93,-2.621 1.119,-0.966 2.275,-1.964 3.286,-2.979 1.338,-1.343 1.147,-3.495 0.961,-5.576 -0.033,-0.363 -0.064,-0.718 -0.087,-1.06 -0.303,-4.572 -0.558,-9.02 -0.755,-13.22 -0.019,-0.408 -0.078,-0.877 -0.139,-1.372 -0.257,-2.073 -0.576,-4.653 1.33,-5.811 0.91,-0.553 2.075,-0.8 3.202,-1.04 0.471,-0.1 0.928,-0.196 1.33,-0.313 l 0.502,1.724 c -0.441,0.129 -0.942,0.236 -1.459,0.346 -0.98,0.209 -1.994,0.424 -2.642,0.818 -0.914,0.555 -0.674,2.496 -0.481,4.056 0.067,0.544 0.13,1.06 0.151,1.508 0.197,4.189 0.451,8.625 0.753,13.185 0.022,0.33 0.053,0.672 0.084,1.02 0.201,2.258 0.451,5.066 -1.478,7.003 -1.059,1.063 -2.242,2.083 -3.385,3.07 -0.96,0.829 -1.954,1.687 -2.859,2.556 z"
   id="path18" />

		</g>

		<g
   id="g20">
			<path
   d="m 279.35,224.888 c -0.913,-0.468 -1.886,-0.912 -2.826,-1.341 -1.304,-0.594 -2.652,-1.21 -3.909,-1.917 -2.506,-1.409 -3.925,-4.008 -5.274,-6.773 l -6.059,-12.409 c -0.525,-1.075 -1.068,-2.187 -1.892,-2.978 -0.947,-0.909 -2.54,-1.057 -4.081,-1.2 -0.58,-0.054 -1.18,-0.11 -1.742,-0.206 l 0.305,-1.769 c 0.492,0.085 1.031,0.135 1.603,0.188 1.762,0.163 3.758,0.349 5.158,1.693 1.054,1.011 1.696,2.326 2.262,3.484 l 6.059,12.409 c 1.22,2.5 2.486,4.84 4.541,5.996 1.191,0.67 2.504,1.269 3.774,1.848 0.958,0.438 1.95,0.889 2.9,1.376 z"
   id="path19" />

		</g>

		<g
   id="g21">
			<path
   d="m 195.615,227.466 -1.411,-1.112 3.673,-4.66 c 6.562,-8.325 13.348,-16.932 19.979,-25.432 0.663,-0.849 1.413,-1.81 2.498,-2.421 1.798,-1.012 4.165,-0.843 6.253,-0.695 0.695,0.049 1.351,0.096 1.936,0.096 0.001,0 0.001,0 0.002,0 v 1.796 c -10e-4,0 -10e-4,0 -0.002,0 -0.649,0 -1.336,-0.049 -2.064,-0.101 -1.835,-0.132 -3.916,-0.28 -5.245,0.469 -0.771,0.434 -1.376,1.21 -1.963,1.96 -6.634,8.502 -13.421,17.112 -19.984,25.438 z"
   id="path20" />

		</g>

		<g
   id="g22">
			<path
   d="m 252.309,180.994 -0.485,-1.729 c 0.333,-0.093 0.695,-0.181 1.071,-0.271 1.253,-0.3 2.674,-0.641 3.406,-1.371 0.477,-0.476 0.759,-1.198 1.032,-1.896 2.457,-6.298 5.002,-12.68 7.464,-18.852 l 1.108,-2.778 1.668,0.664 -1.108,2.778 c -2.46,6.169 -5.004,12.548 -7.459,18.84 -0.308,0.79 -0.692,1.773 -1.437,2.516 -1.09,1.086 -2.771,1.489 -4.255,1.845 -0.352,0.085 -0.692,0.166 -1.005,0.254 z"
   id="path21" />

		</g>

		<g
   id="g23">
			<path
   d="m 232.612,180.994 c -0.312,-0.088 -0.652,-0.169 -1.005,-0.253 -1.484,-0.356 -3.165,-0.759 -4.255,-1.845 -0.746,-0.743 -1.13,-1.726 -1.438,-2.516 -2.445,-6.269 -4.98,-12.624 -7.431,-18.77 l -1.135,-2.848 1.667,-0.664 1.135,2.847 c 2.453,6.149 4.989,12.508 7.436,18.783 0.272,0.698 0.554,1.42 1.032,1.896 0.732,0.729 2.153,1.07 3.407,1.371 0.376,0.09 0.738,0.177 1.071,0.27 z"
   id="path22" />

		</g>

		<g
   id="g24">
			<path
   d="m 249.483,171.514 -1.609,-0.652 c 3.814,-9.406 7.758,-19.133 14.349,-27.215 6.083,-7.459 14.128,-13.087 21.227,-18.054 l 0.996,1.423 c -7.007,4.901 -14.948,10.456 -20.877,17.727 -6.426,7.88 -10.321,17.484 -14.086,26.771 z"
   id="path23" />

		</g>

		<g
   id="g25">
			<path
   d="m 238.974,173.518 c -3.072,-10.613 -6.882,-19.332 -11.647,-26.655 -5.648,-8.68 -12.84,-15.526 -20.796,-19.796 l 0.821,-1.53 c 8.213,4.408 15.623,11.455 21.43,20.38 4.86,7.469 8.739,16.34 11.859,27.119 z"
   id="path24" />

		</g>

	</g>
  </g>
</svg>
