<?xml version="1.0" encoding="UTF-8" standalone="no"?>
<!-- Created with Inkscape (http://www.inkscape.org/) -->

<svg
   width="65.400002mm"
   height="42.400002mm"
   viewBox="0 0 65.400002 42.400002"
   version="1.1"
   id="svg1"
   inkscape:version="1.4.3 (0d15f75, 2025-12-25)"
   sodipodi:docname="drawgonfly.svg"
   xmlns:inkscape="http://www.inkscape.org/namespaces/inkscape"
   xmlns:sodipodi="http://sodipodi.sourceforge.net/DTD/sodipodi-0.dtd"
   xmlns="http://www.w3.org/2000/svg"
   xmlns:svg="http://www.w3.org/2000/svg">
  <sodipodi:namedview
     id="namedview1"
     pagecolor="#ffffff"
     bordercolor="#000000"
     borderopacity="0.25"
     inkscape:showpageshadow="2"
     inkscape:pageopacity="0.0"
     inkscape:pagecheckerboard="0"
     inkscape:deskcolor="#d1d1d1"
     inkscape:document-units="mm"
     inkscape:zoom="0.72604517"
     inkscape:cx="396.66953"
     inkscape:cy="561.25984"
     inkscape:window-width="1920"
     inkscape:window-height="1017"
     inkscape:window-x="-8"
     inkscape:window-y="-8"
     inkscape:window-maximized="1"
     inkscape:current-layer="layer1" />
  <defs
     id="defs1" />
  <g
     inkscape:label="Layer 1"
     inkscape:groupmode="layer"
     id="layer1">
    <g
       id="g107"
       transform="matrix(0.26458333,0,0,0.26458333,-11.150628,-8.0338082)">
		<path
   d="m 147.565,112.312 c -0.002,0.062 -0.018,0.123 -0.048,0.178 l -2.412,4.421 4.01,-4.447 V 98.751 c -0.378,0.235 -0.764,0.468 -1.163,0.699 z"
   id="path96" />

		<path
   d="m 176.296,47.469 c -3.258,-0.032 -5.898,-2.689 -5.898,-5.954 0,-2.134 1.17,-4.103 3,-5.15 -2.222,-3.816 -5.025,-6.001 -7.735,-6.001 -2.71,0 -5.514,2.185 -7.735,6.001 1.83,1.047 3,3.015 3,5.15 0,3.264 -2.64,5.922 -5.898,5.954 0.601,4.731 4.714,7.762 10.633,7.762 5.92,0 10.034,-3.033 10.633,-7.762 z"
   id="path97" />

		<path
   d="m 163.066,65.182 c 0,2.297 -1.59,4.532 -4.46,6.608 0.932,0.368 1.678,0.829 2.21,1.382 1.09,1.13 1.707,2.856 1.843,4.878 0.649,0.231 2.254,1.038 3.003,3.443 0.749,-2.404 2.354,-3.212 3.003,-3.443 0.137,-2.022 0.754,-3.749 1.844,-4.879 0.532,-0.553 1.278,-1.014 2.209,-1.382 -2.87,-2.076 -4.459,-4.311 -4.459,-6.608 0,-0.961 1.544,-2.053 8.464,-3.501 l 8.594,-3.7 -0.449,-8.531 c -0.005,-0.089 0.021,-0.176 0.071,-0.248 l 2.63,-3.764 -3.903,3.526 v 7.522 c 0,0.167 -0.105,0.317 -0.262,0.373 -1.557,0.563 -9.365,3.374 -10.186,3.374 -0.964,0 -4.603,-1.168 -4.928,-4.417 -0.834,0.134 -1.708,0.21 -2.629,0.21 -0.92,0 -1.795,-0.076 -2.629,-0.21 -0.325,3.249 -3.963,4.417 -4.927,4.417 -0.821,0 -8.629,-2.811 -10.186,-3.374 -0.157,-0.057 -0.262,-0.206 -0.262,-0.373 v -7.522 l -3.903,-3.526 2.63,3.764 c 0.051,0.072 0.076,0.16 0.071,0.248 l -0.449,8.531 8.594,3.7 c 6.921,1.449 8.466,2.541 8.466,3.502 z"
   id="path98" />

		<path
   d="m 169.053,65.182 c 0,7.08 19.111,15.48 51.091,17.281 2.429,0.137 5.004,0.206 7.652,0.206 24.572,0 55.673,-6.179 60.516,-14.449 0.836,-1.428 0.849,-2.825 0.038,-4.271 -3.73,-6.649 -14.522,-9.882 -32.992,-9.882 -8.224,0 -18.197,0.64 -30.489,1.955 -17.513,1.874 -30.453,3.488 -39.56,4.935 -15.083,2.397 -16.256,3.84 -16.256,4.225 z"
   id="path99" />

		<path
   d="m 171.192,41.515 c 0,2.847 2.316,5.162 5.163,5.162 0.004,0 0.008,0 0.012,0 0.007,-0.153 0.019,-0.305 0.019,-0.458 0,-2.69 -0.996,-6.163 -2.605,-9.161 -1.58,0.908 -2.589,2.611 -2.589,4.457 z"
   id="path100" />

		<path
   d="m 160.133,41.515 c 0,-1.846 -1.009,-3.549 -2.589,-4.457 -1.608,2.998 -2.605,6.471 -2.605,9.161 0,0.154 0.012,0.305 0.019,0.458 0.004,0 0.008,0 0.012,0 2.847,0 5.163,-2.315 5.163,-5.162 z"
   id="path101" />

		<path
   d="m 111.18,82.463 c 31.98,-1.801 51.091,-10.202 51.091,-17.281 0,-0.385 -1.172,-1.828 -16.256,-4.223 -9.107,-1.447 -22.047,-3.061 -39.559,-4.935 -12.293,-1.315 -22.266,-1.955 -30.489,-1.955 -18.47,0 -29.262,3.233 -32.992,9.882 -0.811,1.445 -0.799,2.843 0.038,4.271 4.843,8.27 35.944,14.449 60.516,14.449 2.647,-0.002 5.222,-0.071 7.651,-0.208 z"
   id="path102" />

		<path
   d="m 237.838,83.154 c -3.408,0.202 -6.78,0.31 -10.041,0.31 -2.663,0 -5.253,-0.069 -7.697,-0.207 -20.988,-1.182 -38.3,-5.445 -46.579,-10.91 -1.07,0.353 -1.897,0.812 -2.44,1.377 -1.685,1.747 -2.133,5.144 -1.168,8.864 0.875,3.371 5.228,14.829 24.521,20.71 25.287,7.699 88.736,14.617 94.567,4.594 0.227,-0.389 0.24,-0.827 0.041,-1.338 -1.971,-5.057 -23.023,-14.677 -51.204,-23.4 z"
   id="path103" />

		<path
   d="M 183.76,112.312 183.373,99.45 c -0.399,-0.23 -0.785,-0.464 -1.163,-0.699 v 13.712 l 4.01,4.447 -2.412,-4.421 c -0.03,-0.054 -0.047,-0.115 -0.048,-0.177 z"
   id="path104" />

		<path
   d="m 171.85,88.804 c -1.652,-2.613 -2.394,-4.815 -2.706,-6.018 -0.348,-1.343 -0.505,-2.644 -0.508,-3.864 -0.861,0.416 -2.577,1.707 -2.577,5.414 0,0.22 -0.178,0.398 -0.397,0.398 -0.219,0 -0.397,-0.178 -0.397,-0.398 0,-3.707 -1.716,-4.998 -2.577,-5.414 -0.003,1.219 -0.16,2.521 -0.508,3.864 -0.312,1.202 -1.054,3.405 -2.706,6.018 -10e-4,0.005 0.001,0.011 0,0.016 -1.755,9.773 3.887,17.822 3.944,17.902 0.054,0.075 0.079,0.167 0.073,0.259 -0.025,0.359 -2.565,36.177 -2.565,58.994 0,2.352 0.056,4.467 0.153,6.392 0.089,0.472 1.357,6.898 4.582,6.898 3.225,0 4.493,-6.424 4.582,-6.897 0.096,-1.924 0.153,-4.039 0.153,-6.392 0,-22.818 -2.539,-58.635 -2.565,-58.994 -0.007,-0.092 0.019,-0.184 0.073,-0.259 0.057,-0.08 5.697,-8.141 3.944,-17.902 0,-0.006 0.002,-0.011 0.002,-0.017 z"
   id="path105" />

		<path
   d="m 160.244,73.723 c -0.543,-0.565 -1.37,-1.024 -2.44,-1.377 -8.279,5.465 -25.591,9.728 -46.579,10.91 -2.444,0.138 -5.033,0.207 -7.697,0.207 -3.261,0 -6.633,-0.107 -10.041,-0.31 -28.181,8.724 -49.233,18.344 -51.203,23.399 -0.199,0.512 -0.186,0.949 0.041,1.338 5.831,10.023 69.28,3.106 94.567,-4.594 19.294,-5.881 23.647,-17.339 24.521,-20.71 0.964,-3.72 0.516,-7.116 -1.169,-8.863 z"
   id="path106" />

		<path
   d="m 165.662,180.059 c -2.144,0 -3.514,-2.1 -4.336,-4.094 1.022,11.463 3.703,13.938 4.336,14.364 0.633,-0.426 3.314,-2.898 4.336,-14.365 -0.822,1.995 -2.191,4.095 -4.336,4.095 z"
   id="path107" />

	</g>
  </g>
</svg>
