<?xml version="1.0" encoding="UTF-8" standalone="no"?>
<!-- Created with Inkscape (http://www.inkscape.org/) -->

<svg
   width="29.209999mm"
   height="32.650002mm"
   viewBox="0 0 29.209999 32.650002"
   version="1.1"
   id="svg1"
   inkscape:version="1.4.3 (0d15f75, 2025-12-25)"
   sodipodi:docname="ladybug.svg"
   xmlns:inkscape="http://www.inkscape.org/namespaces/inkscape"
   xmlns:sodipodi="http://sodipodi.sourceforge.net/DTD/sodipodi-0.dtd"
   xmlns="http://www.w3.org/2000/svg"
   xmlns:svg="http://www.w3.org/2000/svg">
  <sodipodi:namedview
     id="namedview1"
     pagecolor="#ffffff"
     bordercolor="#000000"
     borderopacity="0.25"
     inkscape:showpageshadow="2"
     inkscape:pageopacity="0.0"
     inkscape:pagecheckerboard="0"
     inkscape:deskcolor="#d1d1d1"
     inkscape:document-units="mm"
     inkscape:zoom="0.72604517"
     inkscape:cx="397.3582"
     inkscape:cy="339.51056"
     inkscape:window-width="1920"
     inkscape:window-height="1017"
     inkscape:window-x="-8"
     inkscape:window-y="-8"
     inkscape:window-maximized="1"
     inkscape:current-layer="layer1" />
  <defs
     id="defs1" />
  <g
     inkscape:label="Layer 1"
     inkscape:groupmode="layer"
     id="layer1">
    <g
       id="g1151"
       transform="matrix(0.26458333,0,0,0.26458333,-3.6456779,-4.6991686)">
		<g
   id="g1001">
			<g
   id="g983">
				<path
   style="fill:#36362c"
   d="m 103.22,25.76 c 0,0 -0.273,-2.436 0.309,-2 0.58,0.436 5.779,0.615 7.711,0.631 1.933,0.015 3.324,-1.728 3.636,-0.394 0.312,1.334 -0.538,2.647 0.465,2.183 1.005,-0.463 3.012,-3.066 3.089,-2.42 0.077,0.645 -2.471,5.586 -3.861,4.659 -1.389,-0.926 -2.084,-1.157 -2.393,-1.621 -0.31,-0.463 -0.154,1.777 -3.088,1.12 -2.933,-0.656 -5.868,-2.158 -5.868,-2.158 z"
   id="path975" />

				
				
				<path
   style="fill:#36362c"
   d="m 115.143,27.255 c -0.066,0.04 -0.181,0.006 -0.194,-0.079 -0.045,-0.313 -0.041,-0.617 -0.01,-0.919 -0.304,-0.143 0.185,-1.192 -0.063,-2.259 -0.022,-0.095 -0.052,-0.17 -0.084,-0.235 -0.063,0.992 -0.373,1.966 -1.008,2.746 -0.026,0.033 -0.09,0.049 -0.128,0.034 -0.442,-0.178 -1.011,-0.439 -1.054,-0.989 -0.041,-0.521 0.188,-0.984 0.104,-1.45 -0.072,0.026 -0.145,0.053 -0.22,0.077 -0.224,0.599 -0.548,1.167 -1.079,1.514 -0.72,0.471 -1.6,0.507 -2.432,0.41 -1.1,-0.127 -2.351,-0.034 -3.386,-0.481 -0.76,-0.329 -1.14,-1.152 -1.684,-1.722 -0.178,-0.043 -0.309,-0.09 -0.375,-0.14 -0.581,-0.436 -0.309,2 -0.309,2 0,0 2.934,1.502 5.868,2.159 2.934,0.656 2.778,-1.584 3.088,-1.12 0.309,0.463 1.004,0.695 2.393,1.621 1.39,0.927 3.938,-4.014 3.861,-4.659 -0.003,-0.023 -0.008,-0.041 -0.016,-0.056 -0.871,1.377 -1.835,2.675 -3.272,3.548 z"
   id="path978" />

				<path
   style="fill:#36362c"
   d="m 97.501,50.87 c 0,0 5.062,-2.649 5.989,-7.57 0.927,-4.921 1.933,-14.758 0.619,-19.104 0,0 -1.302,-0.982 -1.455,0 -0.154,0.98 -3.274,7.713 -2.261,20.097 0,0 0.633,1.503 -0.789,1.729 -1.421,0.226 -2.831,1.158 -2.831,1.158 z"
   id="path979" />

				
				
				<path
   style="fill:#36362c"
   d="m 93.415,44.864 c 0,0 3.158,-1.303 3.963,0.041 0.806,1.344 3.035,6.781 0.123,7.371 -2.912,0.59 -4.086,-7.412 -4.086,-7.412 z"
   id="path982" />

				
			</g>

			<g
   id="g991">
				<path
   style="fill:#36362c"
   d="m 122.946,88.932 c -1.665,-1.739 -6.36,0 -6.36,0 l -0.357,-0.059 c 0,0 -0.621,1.519 0.748,1.045 3.811,-1.321 9.775,2.988 5.969,-0.986 z"
   id="path984" />

				
				<path
   style="fill:#36362c"
   d="m 117.724,89.604 c 0,0 -0.151,-1.253 -2.653,-0.963 -2.503,0.291 -7.875,5.327 -7.18,6.253 0.695,0.928 4.728,-3.286 9.833,-5.29 z"
   id="path986" />

				
				
				<path
   style="fill:#36362c"
   d="m 100.132,68.644 c 0,0 9.73,10.054 8.88,25.102 0,0 0.561,1.662 -1.352,1.39 -1.913,-0.272 -5.149,-9.297 -7.064,-15.76 -1.917,-6.462 -0.464,-10.732 -0.464,-10.732 z"
   id="path989" />

				
				
			</g>

			<g
   id="g1000">
				<path
   style="fill:#36362c"
   d="m 114.242,130.642 c 0,0 1.918,-0.785 2.663,1.133 0.745,1.918 2.771,5.753 2.126,7.41 -0.645,1.657 -0.369,2.441 -0.645,1.657 -0.277,-0.785 0,-1.047 -0.553,-3.487 -0.553,-2.441 -3.592,-5.58 -3.592,-5.58 v -1.133 z"
   id="path992" />

				<path
   style="fill:#36362c"
   d="m 116.299,131.072 c 0.117,0.389 0.128,0.8 0.265,1.183 0.185,0.513 0.459,0.98 0.752,1.444 0.476,0.754 0.918,1.53 1.329,2.322 -0.527,-1.54 -1.329,-3.186 -1.741,-4.245 -0.187,-0.48 -0.446,-0.791 -0.732,-0.987 0.052,0.087 0.096,0.18 0.127,0.283 z"
   id="path993" />

				<path
   style="fill:#36362c"
   d="m 119.085,139.017 c -0.061,-0.311 -0.147,-0.609 -0.228,-0.863 -0.29,-0.928 -0.732,-1.79 -1.231,-2.634 -0.324,-0.549 -0.664,-1.09 -0.987,-1.64 -0.244,-0.414 -0.622,-0.811 -0.788,-1.26 -0.157,-0.429 -0.06,-0.637 0.162,-1.021 0.165,-0.286 0.192,-0.559 0.14,-0.824 -0.85,-0.568 -1.912,-0.134 -1.912,-0.134 v 1.133 c 0,0 3.039,3.138 3.592,5.58 0.553,2.44 0.276,2.702 0.553,3.487 0.276,0.785 0,0 0.645,-1.657 0.021,-0.052 0.039,-0.108 0.054,-0.167 z"
   id="path994" />

				<path
   style="fill:#36362c"
   d="m 115.668,130.418 c -1.426,-3.485 -14.28,-10.03 -19.608,-9.034 0,0 -0.672,1.684 1.165,2.77 0.045,0.046 0.093,0.094 0.142,0.144 0.638,0.647 1.467,1.033 2.32,1.31 1.151,0.373 2.347,0.562 3.509,0.898 1.297,0.374 2.676,1.255 3.692,2.142 0.41,0.358 2.599,2.594 2.825,0.934 0.072,-0.531 -0.575,-1.155 -0.947,-1.569 0.2,0.085 0.398,0.174 0.595,0.261 0.706,0.563 1.361,1.185 2.037,1.786 0.723,0.645 1.491,1.241 2.196,1.904 0.395,0.373 0.86,0.678 1.413,0.566 0.901,-0.182 0.905,-1.514 0.661,-2.112 z"
   id="path995" />

				<path
   style="fill:#36362c"
   d="m 102.005,122.533 c 2.03,0.572 4.017,1.333 5.945,2.187 1.175,0.521 2.372,1.105 3.504,1.789 -4.335,-2.79 -10.88,-5.451 -14.676,-5.211 1.672,0.627 3.481,0.743 5.227,1.235 z"
   id="path996" />

				<path
   style="fill:#36362c"
   d="m 113.741,131.509 c -0.646,-0.486 -1.153,-1.103 -1.656,-1.728 -0.502,-0.626 -1.071,-1.196 -1.683,-1.716 -1.314,-1.114 -2.787,-1.97 -4.424,-2.486 0.806,0.919 1.608,1.841 2.219,2.907 0.062,0.107 -0.069,0.263 -0.18,0.181 -1.209,-0.903 -2.466,-1.76 -3.831,-2.411 -1.223,-0.582 -2.494,-0.951 -3.782,-1.348 -0.833,-0.258 -1.813,-0.583 -2.201,-1.439 -0.343,-0.762 0.173,-1.428 0.599,-2.074 -1.034,-0.141 -1.968,-0.156 -2.742,-0.012 0,0 -0.672,1.684 1.165,2.77 0.045,0.046 0.093,0.094 0.142,0.144 0.638,0.647 1.467,1.033 2.32,1.31 1.151,0.373 2.347,0.562 3.509,0.898 1.297,0.374 2.676,1.255 3.692,2.142 0.41,0.358 2.599,2.594 2.825,0.934 0.072,-0.531 -0.575,-1.155 -0.947,-1.569 0.2,0.085 0.398,0.174 0.595,0.261 0.706,0.563 1.361,1.185 2.037,1.786 0.723,0.645 1.491,1.241 2.196,1.904 0.395,0.373 0.86,0.678 1.413,0.566 0.459,-0.094 0.684,-0.484 0.763,-0.926 -0.547,0.525 -1.391,0.386 -2.029,-0.094 z"
   id="path997" />

				<path
   style="fill:#36362c"
   d="m 101.232,101.689 c 0,0 1.772,0.309 1.35,3.706 -0.423,3.397 -4.593,18.067 -6.445,18.067 -1.854,0 -2.455,-2.473 -1.827,-3.011 0.385,-0.33 4.049,-5.484 4.603,-11.62 0.281,-3.101 0.05,-2.9 2.319,-7.142 z"
   id="path998" />

				<path
   style="fill:#36362c"
   d="m 101.711,101.921 c 0.168,0.814 0.268,1.651 0.294,2.481 0.043,1.413 -0.271,2.848 -0.61,4.21 -0.402,1.62 -0.8,3.244 -1.3,4.837 -0.503,1.607 -1.064,3.196 -1.587,4.797 -0.425,1.302 -0.743,2.789 -1.495,3.95 -0.277,0.426 -0.64,0.898 -1.075,1.248 0.065,0.007 0.13,0.017 0.199,0.017 1.853,0 6.022,-14.669 6.445,-18.067 0.275,-2.211 -0.38,-3.113 -0.871,-3.473 z"
   id="path999" />

				<path
   style="fill:#36362c"
   d="m 95.641,121.814 c -0.161,-0.971 0.434,-1.712 0.939,-2.485 1.549,-2.371 2.695,-5.189 3.405,-7.923 0.395,-1.524 0.541,-3.082 0.743,-4.64 0.141,-1.091 0.173,-2.589 0.85,-3.51 0.19,-0.258 0.457,-0.484 0.757,-0.536 -0.417,-0.91 -1.104,-1.031 -1.104,-1.031 -2.27,4.242 -2.038,4.041 -2.319,7.141 -0.554,6.137 -4.218,11.291 -4.603,11.62 -0.628,0.538 -0.026,3.011 1.827,3.011 0.219,0 0.471,-0.206 0.744,-0.574 -0.673,0.145 -1.132,-0.426 -1.239,-1.073 z"
   id="path1000" />

			</g>

		</g>

		<g
   id="g1027">
			<g
   id="g1009">
				<path
   style="fill:#36362c"
   d="m 34.726,25.76 c 0,0 0.272,-2.436 -0.308,-2 -0.58,0.436 -5.78,0.615 -7.711,0.631 -1.932,0.015 -3.325,-1.728 -3.636,-0.394 -0.311,1.334 0.539,2.647 -0.465,2.183 -1.004,-0.463 -3.011,-3.066 -3.088,-2.42 -0.078,0.645 2.471,5.586 3.861,4.659 1.389,-0.926 2.083,-1.157 2.393,-1.621 0.309,-0.463 0.154,1.777 3.088,1.12 2.932,-0.656 5.866,-2.158 5.866,-2.158 z"
   id="path1001" />

				<path
   style="fill:#36362c"
   d="M 28.282,24.791 C 27.491,24.742 26.65,24.757 25.886,24.516 25.433,24.373 24.813,23.85 24.315,23.88 c -0.331,0.019 -0.666,0.2 -0.756,0.548 -0.143,0.54 -0.063,1.15 -0.453,1.441 -0.032,-0.431 -0.204,-1.147 -0.036,-1.871 0.312,-1.334 1.704,0.409 3.636,0.394 1.931,-0.016 7.131,-0.195 7.711,-0.631 0.005,-0.004 0.009,-0.006 0.015,-0.009 -1.487,1.569 -4.188,1.159 -6.15,1.039 z"
   id="path1002" />

				<path
   style="fill:#36362c"
   d="m 19.703,23.684 c 0.495,0.223 1.851,1.85 2.712,2.391 -0.556,0.096 -1.883,-1.408 -2.712,-2.391 z"
   id="path1003" />

				<path
   style="fill:#36362c"
   d="m 22.803,27.255 c 0.066,0.04 0.181,0.006 0.194,-0.079 0.045,-0.313 0.04,-0.617 0.01,-0.919 0.305,-0.143 -0.185,-1.192 0.063,-2.259 0.023,-0.095 0.053,-0.17 0.085,-0.235 0.062,0.992 0.372,1.966 1.008,2.746 0.026,0.033 0.088,0.049 0.128,0.034 0.442,-0.178 1.011,-0.439 1.053,-0.989 0.042,-0.521 -0.186,-0.984 -0.103,-1.45 0.072,0.026 0.145,0.053 0.219,0.077 0.225,0.599 0.549,1.167 1.081,1.514 0.72,0.471 1.599,0.507 2.432,0.41 1.098,-0.127 2.351,-0.034 3.385,-0.481 0.761,-0.329 1.14,-1.152 1.685,-1.722 0.177,-0.043 0.308,-0.09 0.375,-0.14 0.58,-0.436 0.308,2 0.308,2 0,0 -2.934,1.502 -5.868,2.159 -2.934,0.656 -2.779,-1.584 -3.088,-1.12 -0.31,0.463 -1.004,0.695 -2.393,1.621 -1.39,0.927 -3.939,-4.014 -3.861,-4.659 0.003,-0.023 0.008,-0.041 0.016,-0.056 0.869,1.377 1.835,2.675 3.271,3.548 z"
   id="path1004" />

				<path
   style="fill:#36362c"
   d="m 40.445,50.87 c 0,0 -5.062,-2.649 -5.989,-7.57 -0.927,-4.921 -1.934,-14.758 -0.619,-19.104 0,0 1.302,-0.982 1.455,0 0.154,0.98 3.273,7.713 2.26,20.097 0,0 -0.632,1.503 0.79,1.729 1.421,0.226 2.831,1.158 2.831,1.158 z"
   id="path1005" />

				<path
   style="fill:#36362c"
   d="m 37.628,46.125 c -1.083,-0.827 -0.952,-2.112 -0.802,-3.336 0.158,-1.292 0.234,-2.58 0.274,-3.882 0.094,-3.018 -0.027,-6.09 -0.541,-9.07 -0.179,-1.032 -0.32,-2.093 -0.5,-3.145 0.905,3.112 2.2,8.989 1.494,17.601 0,0 -0.632,1.503 0.79,1.729 1.421,0.226 2.831,1.158 2.831,1.158 l -0.13,0.663 c -0.981,-0.758 -2.442,-0.978 -3.416,-1.718 z"
   id="path1006" />

				<path
   style="fill:#36362c"
   d="m 33.837,24.196 c 0,0 0.811,-0.61 1.228,-0.382 -0.305,0.127 -0.581,0.548 -0.685,0.854 -0.306,0.904 -0.299,1.911 -0.268,2.854 0.082,2.612 0.206,5.264 0.537,7.854 0.41,3.21 1.079,6.379 1.957,9.493 0.027,0.096 0.151,0.13 0.221,0.059 0.324,-0.325 0.569,-0.707 0.76,-1.118 -0.012,0.161 -0.021,0.319 -0.036,0.483 0,0 -0.377,0.906 0.12,1.416 -0.302,0.601 -0.454,1.25 0.25,1.682 0.066,0.04 0.138,0.01 0.18,-0.047 0.293,-0.391 0.586,-0.783 0.874,-1.177 1.177,0.341 2.197,1.013 2.197,1.013 l -0.728,3.689 c 0,0 -5.062,-2.649 -5.989,-7.57 -0.926,-4.92 -1.932,-14.756 -0.618,-19.103 z"
   id="path1007" />

				<path
   style="fill:#36362c"
   d="m 44.531,44.864 c 0,0 -3.157,-1.303 -3.962,0.041 -0.806,1.344 -3.035,6.781 -0.123,7.371 2.911,0.59 4.085,-7.412 4.085,-7.412 z"
   id="path1008" />

				<path
   style="fill:#36362c"
   d="m 40.777,46.754 c 0.394,-0.639 0.798,-1.281 1.276,-1.861 0.113,-0.137 0.281,-0.361 0.476,-0.56 1.012,0.124 2.001,0.532 2.001,0.532 0,0 -1.173,8.002 -4.085,7.412 -0.974,-0.197 -1.371,-0.937 -1.44,-1.885 0.483,-1.262 1.062,-2.483 1.772,-3.638 z"
   id="path1009" />

			</g>

			<g
   id="g1017">
				<path
   style="fill:#36362c"
   d="m 15,88.932 c 1.665,-1.739 6.359,0 6.359,0 l 0.357,-0.059 c 0,0 0.621,1.519 -0.747,1.045 C 17.158,88.597 11.194,92.906 15,88.932 Z"
   id="path1010" />

				<path
   style="fill:#36362c"
   d="m 20.397,88.63 c 0.581,0.162 0.963,0.302 0.963,0.302 l 0.357,-0.059 c 0,0 0.621,1.519 -0.747,1.045 -2.381,-0.825 -5.603,0.547 -6.757,0.724 1.55,-1.501 4.056,-1.546 6.184,-2.012 z"
   id="path1011" />

				<path
   style="fill:#36362c"
   d="m 20.222,89.604 c 0,0 0.15,-1.253 2.653,-0.963 2.502,0.291 7.874,5.327 7.18,6.253 -0.694,0.928 -4.727,-3.286 -9.833,-5.29 z"
   id="path1012" />

				<path
   style="fill:#36362c"
   d="m 23.521,90.531 c 0.944,0.477 1.758,0.998 2.613,1.613 0.365,0.262 1.359,1.088 1.86,0.655 0.19,-0.164 0.28,-0.396 0.323,-0.653 1.222,1.206 2.035,2.353 1.738,2.749 -0.694,0.927 -4.727,-3.287 -9.833,-5.291 0,0 0.008,-0.059 0.042,-0.144 1.14,0.043 2.269,0.571 3.257,1.071 z"
   id="path1013" />

				<path
   style="fill:#36362c"
   d="m 27.083,91.877 c -1,-0.945 -2.119,-1.904 -3.325,-2.578 -0.423,-0.237 -1.026,-0.503 -1.682,-0.699 0.235,-0.004 0.499,0.007 0.798,0.042 2.231,0.259 6.739,4.287 7.2,5.815 -1.189,-0.453 -2.126,-1.764 -2.991,-2.58 z"
   id="path1014" />

				<path
   style="fill:#36362c"
   d="m 37.815,68.644 c 0,0 -9.73,10.054 -8.879,25.102 0,0 -0.562,1.662 1.351,1.39 1.914,-0.272 5.149,-9.297 7.064,-15.76 1.916,-6.462 0.464,-10.732 0.464,-10.732 z"
   id="path1015" />

				<path
   style="fill:#36362c"
   d="m 30.701,81.01 c -0.259,1.205 -0.441,2.422 -0.552,3.629 -0.195,2.146 -0.228,4.314 -0.356,6.465 -0.067,1.122 -0.129,2.615 -0.851,3.576 -0.184,-0.411 -0.006,-0.935 -0.006,-0.935 -0.273,-4.81 0.537,-9.11 1.765,-12.735 z"
   id="path1016" />

				<path
   style="fill:#36362c"
   d="m 31.135,89.205 c -0.152,-2.436 -0.063,-4.885 0.234,-7.307 0.171,-1.386 0.436,-2.76 0.786,-4.113 0.086,-0.339 0.181,-0.678 0.284,-1.014 2.492,-5.145 5.376,-8.127 5.376,-8.127 0,0 1.452,4.27 -0.463,10.732 -1.916,6.463 -5.151,15.489 -7.064,15.76 -0.684,0.097 -1.048,-0.054 -1.237,-0.285 2.47,0.005 2.195,-3.859 2.084,-5.646 z"
   id="path1017" />

			</g>

			<g
   id="g1026">
				<path
   style="fill:#36362c"
   d="m 23.704,130.642 c 0,0 -1.917,-0.785 -2.662,1.133 -0.746,1.918 -2.772,5.753 -2.126,7.41 0.644,1.657 0.368,2.441 0.644,1.657 0.277,-0.785 0,-1.047 0.553,-3.487 0.552,-2.441 3.591,-5.58 3.591,-5.58 z"
   id="path1018" />

				<path
   style="fill:#36362c"
   d="m 21.647,131.072 c -0.117,0.389 -0.128,0.8 -0.267,1.183 -0.184,0.513 -0.459,0.98 -0.751,1.444 -0.476,0.754 -0.919,1.53 -1.33,2.322 0.528,-1.54 1.33,-3.186 1.742,-4.245 0.186,-0.48 0.447,-0.791 0.732,-0.987 -0.05,0.087 -0.096,0.18 -0.126,0.283 z"
   id="path1019" />

				<path
   style="fill:#36362c"
   d="m 18.861,139.017 c 0.061,-0.311 0.148,-0.609 0.228,-0.863 0.29,-0.928 0.732,-1.79 1.23,-2.634 0.326,-0.549 0.664,-1.09 0.988,-1.64 0.244,-0.414 0.621,-0.811 0.788,-1.26 0.157,-0.429 0.06,-0.637 -0.162,-1.021 -0.165,-0.286 -0.192,-0.559 -0.141,-0.824 0.851,-0.568 1.912,-0.134 1.912,-0.134 v 1.133 c 0,0 -3.039,3.138 -3.591,5.58 -0.553,2.44 -0.276,2.702 -0.553,3.487 -0.277,0.785 0,0 -0.644,-1.657 -0.022,-0.052 -0.04,-0.108 -0.055,-0.167 z"
   id="path1020" />

				<path
   style="fill:#36362c"
   d="m 22.939,132.531 c 0.553,0.112 1.018,-0.194 1.413,-0.566 0.704,-0.663 1.472,-1.26 2.195,-1.904 0.676,-0.601 1.331,-1.223 2.038,-1.786 0.197,-0.088 0.395,-0.176 0.594,-0.261 -0.372,0.414 -1.018,1.038 -0.946,1.569 0.225,1.66 2.415,-0.576 2.825,-0.934 1.016,-0.887 2.396,-1.768 3.692,-2.142 1.162,-0.336 2.358,-0.526 3.508,-0.898 0.853,-0.277 1.683,-0.664 2.321,-1.31 0.049,-0.051 0.097,-0.098 0.142,-0.144 1.836,-1.086 1.164,-2.77 1.164,-2.77 -5.327,-0.996 -18.182,5.549 -19.607,9.034 -0.245,0.597 -0.24,1.929 0.661,2.112 z"
   id="path1021" />

				<path
   style="fill:#36362c"
   d="m 35.941,122.533 c -2.031,0.572 -4.017,1.333 -5.944,2.187 -1.177,0.521 -2.373,1.105 -3.505,1.789 4.335,-2.79 10.88,-5.451 14.676,-5.211 -1.672,0.627 -3.481,0.743 -5.227,1.235 z"
   id="path1022" />

				<path
   style="fill:#36362c"
   d="m 24.205,131.509 c 0.645,-0.486 1.152,-1.103 1.656,-1.728 0.502,-0.626 1.071,-1.196 1.683,-1.716 1.314,-1.114 2.787,-1.97 4.424,-2.486 -0.806,0.919 -1.608,1.841 -2.22,2.907 -0.061,0.107 0.07,0.263 0.18,0.181 1.21,-0.903 2.466,-1.76 3.832,-2.411 1.223,-0.582 2.494,-0.951 3.782,-1.348 0.832,-0.258 1.814,-0.583 2.2,-1.439 0.344,-0.762 -0.172,-1.428 -0.598,-2.074 1.034,-0.141 1.968,-0.156 2.741,-0.012 0,0 0.672,1.684 -1.164,2.77 -0.045,0.046 -0.094,0.094 -0.142,0.144 -0.638,0.647 -1.468,1.033 -2.321,1.31 -1.15,0.373 -2.347,0.562 -3.508,0.898 -1.296,0.374 -2.676,1.255 -3.692,2.142 -0.41,0.358 -2.599,2.594 -2.825,0.934 -0.073,-0.531 0.574,-1.155 0.946,-1.569 -0.199,0.085 -0.397,0.174 -0.594,0.261 -0.707,0.563 -1.362,1.185 -2.038,1.786 -0.722,0.645 -1.491,1.241 -2.195,1.904 -0.395,0.373 -0.86,0.678 -1.413,0.566 -0.459,-0.094 -0.685,-0.484 -0.764,-0.926 0.547,0.525 1.393,0.386 2.03,-0.094 z"
   id="path1023" />

				<path
   style="fill:#36362c"
   d="m 36.714,101.689 c 0,0 -1.774,0.309 -1.35,3.706 0.423,3.397 4.592,18.067 6.445,18.067 1.852,0 2.455,-2.473 1.827,-3.011 -0.385,-0.33 -4.049,-5.484 -4.603,-11.62 -0.281,-3.101 -0.05,-2.9 -2.319,-7.142 z"
   id="path1024" />

				<path
   style="fill:#36362c"
   d="m 36.235,101.921 c -0.17,0.814 -0.269,1.651 -0.294,2.481 -0.043,1.413 0.271,2.848 0.609,4.21 0.404,1.62 0.801,3.244 1.301,4.837 0.503,1.607 1.064,3.196 1.587,4.797 0.426,1.302 0.743,2.789 1.496,3.95 0.276,0.426 0.639,0.898 1.074,1.248 -0.065,0.007 -0.129,0.017 -0.198,0.017 -1.854,0 -6.022,-14.669 -6.445,-18.067 -0.277,-2.211 0.378,-3.113 0.87,-3.473 z"
   id="path1025" />

				<path
   style="fill:#36362c"
   d="m 42.305,121.814 c 0.161,-0.971 -0.435,-1.712 -0.939,-2.485 -1.549,-2.371 -2.695,-5.189 -3.405,-7.923 -0.396,-1.524 -0.541,-3.082 -0.744,-4.64 -0.141,-1.091 -0.173,-2.589 -0.85,-3.51 -0.191,-0.258 -0.458,-0.484 -0.757,-0.536 0.416,-0.91 1.104,-1.031 1.104,-1.031 2.269,4.242 2.038,4.041 2.319,7.141 0.554,6.137 4.218,11.291 4.603,11.62 0.628,0.538 0.025,3.011 -1.827,3.011 -0.219,0 -0.471,-0.206 -0.745,-0.574 0.676,0.145 1.134,-0.426 1.241,-1.073 z"
   id="path1026" />

			</g>

		</g>

		<g
   id="g1150">
			<path
   style="fill:#151612"
   d="M 93.726,53.946 67.927,55.467 44.528,53.946 c -0.351,0 -2.517,1.329 -2.517,1.329 0,0 8.316,3.293 10.932,5.933 h 14.521 1.452 16.395 c 2.616,-2.64 10.931,-5.933 10.931,-5.933 0,0 -2.165,-1.329 -2.516,-1.329 z"
   id="path1027" />

			<g
   id="g1052">
				<g
   id="g1046">
					<path
   style="fill:#36362c"
   d="m 78.653,31.227 c 0,0 0.573,-1.098 1.035,-2.951 0.463,-1.852 -0.384,-2.144 -1.73,-0.639 -1.346,1.506 -4.7,1.313 -4.7,1.313 z"
   id="path1028" />

					<path
   style="fill:#36362c"
   d="m 74.894,29.376 c 0,0 -0.698,-3.361 -4.287,-3.476 h -1.021 -1.013 -1.02 c -3.59,0.116 -4.288,3.476 -4.288,3.476 l 5.815,-0.428 z"
   id="path1029" />

					<path
   style="fill:#484a3d"
   d="m 74.085,27.665 c -1.03,-0.47 -2.169,-0.598 -3.304,-0.635 -1.244,-0.04 -2.501,-0.08 -3.742,0.028 -0.762,0.066 -1.538,0.163 -2.274,0.383 -0.209,0.063 -0.458,0.187 -0.692,0.223 -0.633,0.859 -0.81,1.71 -0.81,1.71 l 5.815,-0.428 5.814,0.428 c 0.002,0.002 -0.175,-0.849 -0.807,-1.709 z"
   id="path1030" />

					<path
   style="fill:#722714"
   d="m 76.298,28.537 c 0,0 6.311,-6.799 6.87,-8.103 0,0 0.471,-2.945 1.913,-2.653 1.442,0.291 0.376,1.671 -1.449,3.572 -2.074,2.162 -6.191,7.596 -6.191,7.596 z"
   id="path1031" />

					<path
   style="opacity:0.6;fill:#932c1e"
   d="m 85.627,18.046 c -0.096,0.393 -0.278,0.776 -0.449,1.072 -0.254,0.437 -0.842,1.327 -1.477,1.034 -0.201,-0.094 -0.32,-0.234 -0.377,-0.405 -0.111,0.394 -0.157,0.688 -0.157,0.688 -0.559,1.304 -6.87,8.103 -6.87,8.103 l 1.142,0.413 c 0,0 4.118,-5.434 6.191,-7.596 1.494,-1.556 2.477,-2.761 1.997,-3.309 z"
   id="path1032" />

					<path
   style="fill:#36362c"
   d="m 58.944,31.227 c 0,0 -0.573,-1.098 -1.036,-2.951 -0.463,-1.852 0.384,-2.144 1.73,-0.639 1.346,1.506 4.701,1.313 4.701,1.313 z"
   id="path1033" />

					<path
   style="fill:#36362c"
   d="m 56.511,37.906 c 0,0 -0.921,-10.289 12.563,-10.269 13.484,0.02 12.607,10.269 12.607,10.269 H 56.466 Z"
   id="path1034" />

					<path
   style="opacity:0.5;fill:#9d9e9f"
   d="m 72.761,27.942 c -0.415,0.358 -0.643,0.843 -0.423,1.541 0.29,0.913 0.922,1.708 1.557,2.41 0.597,0.659 1.233,1.306 1.941,1.848 0.364,0.28 0.772,0.581 0.867,1.056 0.015,0.074 -6.293,-1.498 -8.16,-1.494 -1.167,0.002 -2.355,0.009 -3.505,0.229 -1.12,0.214 -3.33,1.106 -3.255,0.981 0.991,-1.643 2.828,-2.709 3.653,-4.446 0.341,-0.719 0.401,-1.631 -0.299,-2.09 -9.355,1.774 -8.625,9.93 -8.625,9.93 h 25.17 c 0,-10e-4 0.704,-8.265 -8.921,-9.965 z"
   id="path1035" />

					<path
   style="opacity:0.5;fill:#393939"
   d="m 76.991,34.941 c -2.382,-0.546 -4.824,-0.864 -7.269,-0.924 -2.514,-0.06 -4.987,0.231 -7.415,0.895 -1.973,0.54 -3.888,1.252 -5.788,2.001 -0.041,0.613 -0.007,0.993 -0.007,0.993 h 25.17 c 0,0 0.049,-0.586 -0.059,-1.476 -1.506,-0.603 -3.04,-1.125 -4.632,-1.489 z"
   id="path1036" />

					<path
   style="fill:#484a3d"
   d="m 56.614,36.047 c 0,0 0.693,1.301 5.433,-2.899 4.739,-4.199 3.24,-6.309 -0.75,-4.611 -3.99,1.7 -4.56,4.975 -4.683,7.51 z"
   id="path1037" />

					<path
   style="fill:#484a3d"
   d="m 57.929,32.984 c 0.75,-0.713 1.241,-1.607 1.912,-2.396 0.499,-0.589 1.071,-1.095 1.665,-1.579 -1.674,0.652 -3.297,2.165 -3.577,3.975 z"
   id="path1038" />

					<path
   style="fill:#722714"
   d="m 61.298,28.537 c 0,0 -6.311,-6.799 -6.87,-8.103 0,0 -0.471,-2.945 -1.912,-2.653 -1.442,0.291 -0.376,1.671 1.449,3.572 2.074,2.162 6.193,7.596 6.193,7.596 z"
   id="path1039" />

					<path
   style="fill:#484a3d"
   d="m 63.135,27.99 c 0.101,0.073 0.19,0.171 0.262,0.3 0.309,0.559 -0.052,1.367 -0.334,1.858 -0.997,1.738 -2.727,3.592 -4.803,3.92 -1.449,0.228 -0.786,-1.682 -0.395,-2.328 0.743,-1.23 1.79,-2.244 2.999,-3.003 -3.597,1.746 -4.132,4.872 -4.25,7.311 0,0 0.693,1.301 5.433,-2.899 3.914,-3.469 3.571,-5.509 1.088,-5.159 z"
   id="path1040" />

					<path
   style="fill:#484a3d"
   d="m 81.213,36.047 c 0,0 -0.693,1.301 -5.433,-2.899 -4.739,-4.199 -3.241,-6.309 0.75,-4.611 3.99,1.7 4.561,4.975 4.683,7.51 z"
   id="path1041" />

					<path
   style="fill:#484a3d"
   d="m 80.589,32.605 c 0.095,0.36 0.124,0.77 -0.138,1.044 -0.49,0.508 -1.213,0.301 -1.77,0.023 -1.056,-0.528 -2,-1.262 -2.748,-2.178 -0.551,-0.674 -1.226,-1.502 -1.411,-2.379 -0.127,-0.601 0.058,-0.941 0.389,-1.089 -2.68,-0.502 -3.156,1.556 0.869,5.123 4.74,4.2 5.433,2.899 5.433,2.899 -0.052,-1.074 -0.186,-2.281 -0.624,-3.443 z"
   id="path1042" />

					<path
   style="opacity:0.6;fill:#932c1e"
   d="m 54.428,20.434 c 0,0 -0.095,-0.592 -0.33,-1.218 0.076,0.279 0.094,0.57 -0.089,0.746 -0.392,0.375 -0.989,-0.024 -1.279,-0.337 -0.355,-0.383 -0.637,-0.827 -0.882,-1.29 -0.054,0.628 0.847,1.697 2.116,3.019 2.074,2.162 6.193,7.596 6.193,7.596 l 1.141,-0.413 c 0,0 -6.311,-6.799 -6.87,-8.103 z"
   id="path1043" />

					<path
   style="fill:#484a3d"
   d="m 79.875,32.984 c -0.75,-0.713 -1.242,-1.607 -1.911,-2.396 -0.5,-0.589 -1.072,-1.095 -1.666,-1.579 1.673,0.652 3.297,2.165 3.577,3.975 z"
   id="path1044" />

					<path
   style="opacity:0.4;fill:#484a3d"
   d="m 65.444,30.271 c -0.574,0.286 -1.007,0.813 -1.291,1.389 -0.315,0.313 -0.632,0.685 -0.692,1.114 -0.11,0.787 1.117,0.359 1.438,0.212 0.717,-0.329 1.432,-1.037 1.66,-1.804 0.226,-0.761 -0.431,-1.251 -1.115,-0.911 z"
   id="path1045" />

					<path
   style="opacity:0.4;fill:#484a3d"
   d="m 72.413,30.271 c 0.575,0.286 1.007,0.813 1.292,1.389 0.314,0.313 0.632,0.685 0.691,1.114 0.109,0.787 -1.116,0.359 -1.438,0.212 -0.717,-0.329 -1.431,-1.037 -1.66,-1.804 -0.226,-0.761 0.431,-1.251 1.115,-0.911 z"
   id="path1046" />

				</g>

				<path
   style="fill:#36362c"
   d="m 84.252,36.522 c -1.145,1.122 -4.803,-0.287 -4.803,-0.287 -3.27,-0.613 -7.014,-1.31 -9.275,-1.73 H 68.08 c -2.26,0.42 -6.004,1.117 -9.274,1.73 0,0 -3.659,1.409 -4.803,0.287 -1.019,-1 -15.359,10.089 -13.025,17.953 0,0 2.487,4.062 24.775,4.288 l 3.374,0.039 3.375,-0.039 C 94.79,58.537 97.277,54.475 97.277,54.475 99.61,46.611 85.272,35.523 84.252,36.522 Z"
   id="path1047" />

				<path
   style="fill:#8a8461"
   d="m 43.056,50.131 c 1.569,0.793 6.833,-3.738 7.567,-4.356 0.085,-0.072 0.227,-0.006 0.194,0.113 -0.077,0.278 -0.101,0.557 -0.108,0.841 1.556,-0.609 2.691,-2.005 3.637,-3.327 0.94,-1.313 1.763,-2.716 2.76,-3.987 1.101,-1.403 2.566,-2.53 4.108,-3.412 0.199,-0.114 0.4,-0.224 0.602,-0.332 -1.01,0.19 -2.032,0.38 -3.01,0.563 0,0 -3.659,1.409 -4.803,0.287 -0.758,-0.744 -8.872,5.192 -12.031,11.516 0.11,0.835 0.381,1.739 1.084,2.094 z"
   id="path1048" />

				
				<path
   style="fill:#9d9e9f"
   d="m 84.252,36.522 c -1.145,1.122 -4.803,-0.287 -4.803,-0.287 -3.27,-0.613 -7.014,-1.31 -9.275,-1.73 H 68.08 c -2.26,0.42 -6.004,1.117 -9.274,1.73 0,0 -3.659,1.409 -4.803,0.287 -1.019,-1 -15.359,10.089 -13.025,17.953 0,0 2.487,4.062 24.775,4.288 l 3.374,0.039 3.375,-0.039 C 94.79,58.537 97.277,54.475 97.277,54.475 99.61,46.611 85.272,35.523 84.252,36.522 Z m 3.305,13.355 c -0.093,2.725 -1.914,4.444 -4.333,5.406 -2.675,1.063 -5.542,1.304 -8.381,1.549 -2.816,0.244 -5.666,0.392 -8.461,0.044 -1.392,0.17 -2.872,0.082 -4.047,0.09 -3.838,0.024 -7.705,-0.274 -11.459,-1.094 -1.764,-0.385 -3.507,-0.87 -5.189,-1.529 -1.064,-0.417 -2.448,-0.907 -3.048,-1.962 -0.63,-1.103 -0.152,-2.293 0.381,-3.336 0.697,-1.365 1.467,-2.711 2.413,-3.919 0.295,-0.377 0.601,-0.741 0.916,-1.098 1.143,-1.765 2.576,-3.329 4.207,-4.744 0.4,-0.348 0.77,-0.731 1.183,-1.065 0.719,-0.583 1.247,-1.001 2.201,-0.721 1.059,0.312 2.069,0.495 3.181,0.363 1.186,-0.142 2.352,-0.44 3.49,-0.795 1.694,-0.528 3.385,-1.182 5.158,-1.382 0.333,-0.038 0.687,-0.067 1.045,-0.074 2.642,-0.379 5.457,0.597 7.992,1.288 0.929,0.253 1.866,0.501 2.819,0.641 0.848,0.125 1.741,0.066 2.563,0.331 1.511,0.488 2.554,1.649 3.396,2.948 0.898,1.384 1.804,2.809 2.569,4.273 0.764,1.458 1.462,3.105 1.404,4.786 z"
   id="path1050" />

				<path
   style="fill:#9d9e9f"
   d="m 84.252,36.522 c -1.145,1.122 -4.803,-0.287 -4.803,-0.287 -1.112,-0.209 -2.279,-0.427 -3.425,-0.64 1.853,0.887 3.661,1.89 5.752,1.895 1.618,0.004 3.384,-0.241 4.785,0.753 0.821,0.583 1.573,1.263 2.275,1.984 1.778,1.829 3.384,3.938 4.455,6.263 0.865,1.879 1.579,4.237 0.675,6.238 -1.194,2.646 -4.54,3.556 -7.158,3.943 -3.806,0.561 -7.696,0.815 -11.534,1.037 -8.335,0.485 -16.779,0.661 -25.05,-0.636 -1.88,-0.295 -3.773,-0.672 -5.552,-1.363 -1.205,-0.469 -2.374,-1.145 -2.926,-2.378 -0.58,-1.296 -0.546,-2.716 -0.299,-4.12 -0.71,1.803 -0.962,3.606 -0.47,5.265 0,0 2.487,4.062 24.775,4.288 l 3.374,0.039 3.375,-0.039 C 94.789,58.538 97.276,54.476 97.276,54.476 99.61,46.611 85.272,35.523 84.252,36.522 Z"
   id="path1051" />

				
			</g>

			
			
			
			<g
   id="g1131">
				<path
   style="fill:#ff4422"
   d="M 99.089,61.786 C 97.995,58.238 73.614,59.02 73.614,59.02 h -2.947 -3.08 -2.947 c 0,0 -24.381,-0.783 -25.475,2.766 -0.561,1.824 -6.499,16.198 -4.274,31.96 2.102,14.887 11.842,31.164 28.511,34.3 0,0 0.867,0.235 4.184,0.395 0,0 1.065,0.078 1.54,0.062 0.476,0.016 1.541,-0.062 1.541,-0.062 3.316,-0.16 4.184,-0.395 4.184,-0.395 16.669,-3.136 26.409,-19.413 28.51,-34.3 2.227,-15.761 -3.711,-30.136 -4.272,-31.96 z"
   id="path1117" />

				<path
   style="fill:#e7dfb7"
   d="m 52.016,59.53 c 1.877,1.648 8.008,7.63 16.36,7.048 3.758,-0.262 6.069,0.143 9.331,-1.779 2.684,-1.583 4.941,-3.807 7.735,-5.224 0.348,-0.176 0.698,-0.334 1.052,-0.479 C 80.075,58.813 73.614,59.02 73.614,59.02 H 64.64 c 0,0 -6.65,-0.213 -13.159,0.088 0.182,0.132 0.361,0.269 0.535,0.422 z"
   id="path1118" />

				<path
   style="fill:#393827"
   d="m 77.226,68.346 c -0.116,-1.44 0.201,-2.833 -0.385,-4.204 -0.509,-1.192 -1.507,-1.817 -2.524,-2.511 -0.133,-0.091 -0.315,-0.225 -0.523,-0.373 -0.314,-0.32 -0.641,-0.625 -1.021,-0.869 -0.29,-0.187 -0.62,-0.152 -0.954,-0.105 -0.014,0 -0.027,0.002 -0.04,0.005 -0.065,0.01 -0.132,0.019 -0.197,0.026 -0.179,-0.011 -0.356,-0.03 -0.522,-0.083 -0.713,-0.229 -1.235,-0.434 -1.991,-0.308 -0.731,0.121 -1.224,0.257 -1.976,0.069 -0.666,-0.166 -1.156,-0.094 -1.773,0.203 -0.077,0.037 -0.151,0.073 -0.224,0.109 -0.04,-0.005 -0.081,-0.011 -0.121,-0.016 -0.013,-0.003 -0.025,-0.005 -0.039,-0.005 -0.334,-0.046 -0.665,-0.082 -0.955,0.105 -0.378,0.244 -0.706,0.549 -1.019,0.869 -0.209,0.147 -0.392,0.282 -0.525,0.373 -1.016,0.694 -2.016,1.319 -2.524,2.511 -0.586,1.371 -0.269,2.765 -0.384,4.204 -0.092,1.142 0.751,2.634 1.516,3.42 0.324,0.333 0.933,0.416 1.362,0.497 0.942,0.177 1.407,0.3 1.898,1.212 0.646,1.199 1.73,1.071 2.881,0.705 0.48,-0.153 0.816,-0.318 1.192,-0.356 0.376,0.038 0.711,0.203 1.191,0.356 1.152,0.367 2.237,0.494 2.882,-0.705 0.492,-0.912 0.955,-1.035 1.899,-1.212 0.428,-0.081 1.036,-0.164 1.362,-0.497 0.763,-0.786 1.604,-2.278 1.514,-3.42 z"
   id="path1119" />

				<path
   style="fill:#393827"
   d="m 64.179,89.513 c -0.196,-0.631 -0.87,-1.186 -1.322,-1.624 -0.415,-0.403 -0.691,-0.612 -0.567,-1.215 0.074,-0.362 0.092,-0.698 0.025,-1.061 -0.242,-1.309 -1.371,-2.077 -2.543,-2.492 -1.205,-0.428 -2.625,-0.453 -3.879,-0.276 -1.573,0.222 -3.396,0.025 -4.756,0.971 -1.103,0.768 -1.599,2.212 -2.22,3.435 -0.298,0.266 -0.581,0.553 -0.836,0.876 -0.664,0.839 -1.064,1.661 -1.303,2.709 -0.32,1.41 -1.842,2.54 -1.634,4.047 0.12,0.869 0.914,1.345 0.971,2.259 0.194,3.233 2.605,7.705 6.532,6.41 1.051,-0.347 2.238,-0.361 3.248,-0.827 0.835,-0.386 1.374,-1.219 2.133,-1.725 2.365,-1.577 4.747,-3.619 5.631,-6.423 0.269,-0.854 0.005,-1.784 0.178,-2.652 0.18,-0.891 0.646,-1.433 0.342,-2.412 z"
   id="path1120" />

				<path
   style="fill:#393827"
   d="m 43.725,76.707 c -0.264,-1.143 0.37,-1.756 -0.776,-2.578 -0.603,-0.434 -0.685,-0.431 -0.794,-1.326 -0.048,-0.394 -0.428,-0.658 -0.732,-0.841 -0.519,-0.315 -1.12,-0.252 -1.66,-0.037 -0.553,0.178 -1.098,0.544 -1.402,0.868 -0.973,1.04 -1.591,2.3 -1.887,3.616 -0.086,0.378 -0.236,1.119 0.154,1.416 0.076,0.057 0.156,0.101 0.237,0.14 -0.037,1.247 -1.016,2.417 -0.568,3.71 0.087,0.252 0.345,0.415 0.64,0.493 0.067,0.234 0.237,0.421 0.533,0.368 1.095,-0.196 2.129,0.059 3.13,-0.53 1.017,-0.599 1.156,-1.728 1.832,-2.567 0.553,-0.684 1.523,-1.737 1.293,-2.732 z"
   id="path1121" />

				<path
   style="fill:#393827"
   d="m 93.909,76.707 c 0.263,-1.143 -0.37,-1.756 0.775,-2.578 0.604,-0.434 0.685,-0.431 0.795,-1.326 0.049,-0.394 0.429,-0.658 0.732,-0.841 0.518,-0.315 1.119,-0.252 1.66,-0.037 0.553,0.178 1.098,0.544 1.403,0.868 0.973,1.04 1.59,2.3 1.886,3.616 0.085,0.378 0.236,1.119 -0.154,1.416 -0.076,0.057 -0.156,0.101 -0.237,0.14 0.036,1.247 1.017,2.417 0.568,3.71 -0.088,0.252 -0.347,0.415 -0.64,0.493 -0.067,0.234 -0.237,0.421 -0.533,0.368 -1.096,-0.196 -2.13,0.059 -3.13,-0.53 -1.016,-0.599 -1.156,-1.728 -1.833,-2.567 -0.552,-0.684 -1.522,-1.737 -1.292,-2.732 z"
   id="path1122" />

				<path
   style="fill:#393827"
   d="m 55.82,119.209 c -0.115,-0.562 -0.563,-0.958 -1.006,-1.364 0.097,-0.286 0.179,-0.577 0.223,-0.892 0.122,-0.866 -0.414,-1.458 -1.193,-1.677 -0.054,-0.015 -0.109,-0.023 -0.165,-0.034 -0.097,-0.179 -0.191,-0.359 -0.328,-0.513 -0.286,-0.321 -0.672,-0.466 -0.963,-0.744 -0.152,-0.145 -0.339,-0.33 -0.55,-0.521 -0.44,-0.748 -1.15,-1.179 -1.961,-1.609 -1.224,-0.65 -2.41,-0.577 -3.157,0.306 -0.459,0.268 -0.687,0.735 -0.77,1.27 -0.814,1.693 0.626,3.903 1.79,5.114 0.465,0.483 1.021,0.878 1.514,1.333 0.519,0.48 0.916,1.088 1.415,1.592 0.848,0.857 2.234,1.724 3.411,2.016 0.629,0.156 1.229,-0.399 1.44,-0.978 0.231,-0.169 0.278,-0.505 0,-1.085 0.208,-0.728 0.457,-1.442 0.3,-2.214 z"
   id="path1123" />

				<path
   style="fill:#393827"
   d="m 72.904,89.513 c 0.196,-0.631 0.869,-1.186 1.322,-1.624 0.415,-0.403 0.691,-0.612 0.566,-1.215 -0.074,-0.362 -0.092,-0.698 -0.025,-1.061 0.242,-1.309 1.371,-2.077 2.542,-2.492 1.205,-0.428 2.628,-0.453 3.88,-0.276 1.573,0.222 3.395,0.025 4.756,0.971 1.103,0.768 1.599,2.212 2.22,3.435 0.298,0.266 0.581,0.553 0.837,0.876 0.662,0.839 1.063,1.661 1.302,2.709 0.32,1.41 1.842,2.54 1.634,4.047 -0.12,0.869 -0.914,1.345 -0.97,2.259 -0.196,3.233 -2.608,7.705 -6.533,6.41 -1.051,-0.347 -2.238,-0.361 -3.248,-0.827 -0.836,-0.386 -1.374,-1.219 -2.133,-1.725 -2.365,-1.577 -4.746,-3.619 -5.631,-6.423 -0.27,-0.854 -0.005,-1.784 -0.178,-2.652 -0.178,-0.891 -0.645,-1.433 -0.341,-2.412 z"
   id="path1124" />

				<path
   style="fill:#393827"
   d="m 81.262,119.209 c 0.115,-0.562 0.563,-0.958 1.006,-1.364 -0.097,-0.286 -0.179,-0.577 -0.223,-0.892 -0.122,-0.866 0.414,-1.458 1.193,-1.677 0.054,-0.015 0.11,-0.023 0.164,-0.034 0.098,-0.179 0.192,-0.359 0.329,-0.513 0.286,-0.321 0.672,-0.466 0.963,-0.744 0.152,-0.145 0.339,-0.33 0.549,-0.521 0.441,-0.748 1.151,-1.179 1.962,-1.609 1.224,-0.65 2.41,-0.577 3.157,0.306 0.458,0.268 0.686,0.735 0.77,1.27 0.815,1.693 -0.626,3.903 -1.79,5.114 -0.466,0.483 -1.021,0.878 -1.512,1.333 -0.52,0.48 -0.917,1.088 -1.416,1.592 -0.848,0.857 -2.234,1.724 -3.411,2.016 -0.629,0.156 -1.229,-0.399 -1.44,-0.978 -0.231,-0.169 -0.277,-0.505 0,-1.085 -0.208,-0.728 -0.458,-1.442 -0.301,-2.214 z"
   id="path1125" />

				<g
   id="g1127">
					<path
   style="fill:#4c4e40"
   d="m 68.469,63.521 c -0.252,-2.013 -2.596,-3.715 -3.662,-4.392 -0.286,-0.027 -0.572,-0.096 -0.846,-0.181 -0.036,0.104 0.003,0.221 0.103,0.276 0.037,0.02 3.653,2.031 3.944,4.354 0.303,2.428 0.002,64.238 -0.002,64.862 0,0.128 0.103,0.232 0.23,0.233 h 10e-4 c 0.128,0 0.232,-0.103 0.232,-0.23 0.013,-2.551 0.306,-62.465 0,-64.922 z"
   id="path1126" />

					<path
   style="fill:#4c4e40"
   d="m 71.67,59.307 c -1.148,0.769 -3.155,2.36 -3.387,4.214 -0.308,2.457 -0.015,62.371 -0.002,64.921 10e-4,0.127 0.104,0.23 0.232,0.23 h 10e-4 c 0.128,-0.001 0.23,-0.105 0.23,-0.233 -0.003,-0.624 -0.305,-62.435 -0.002,-64.862 0.291,-2.323 3.907,-4.334 3.944,-4.354 0.102,-0.056 0.141,-0.178 0.101,-0.284 -0.381,0.089 -0.753,0.207 -1.117,0.368 z"
   id="path1127" />

				</g>

				
				
				
				<path
   style="fill:#a2a2a3"
   d="m 102.023,71.457 c 0.475,5.732 0.085,11.563 -0.974,17.133 -1.841,9.683 -5.905,19.544 -13.264,26.346 -3.462,3.198 -7.617,5.628 -12.187,6.84 -4.432,1.175 -9.122,1.621 -13.651,0.734 -8.058,-1.58 -14.303,-7.225 -18.277,-14.217 -4.388,-7.721 -6.424,-16.717 -6.917,-25.527 -0.322,-5.767 -0.038,-11.723 1.196,-17.432 -1.803,5.551 -4.726,16.591 -3.056,28.413 2.102,14.887 11.842,31.164 28.511,34.3 0,0 0.867,0.235 4.184,0.395 0,0 1.065,0.078 1.54,0.062 0.476,0.016 1.541,-0.062 1.541,-0.062 3.316,-0.16 4.184,-0.395 4.184,-0.395 16.669,-3.136 26.409,-19.413 28.51,-34.3 1.182,-8.383 0.058,-16.371 -1.34,-22.29 z"
   id="path1131" />

			</g>

			<g
   id="g1133">
				<path
   style="opacity:0.4;fill:#ffffff"
   d="M 49.375,97.094 C 47.854,93.666 46.938,90.016 46.34,86.322 45.817,83.08 45.383,79.784 45.428,76.495 45.5,71.361 46.81,66.216 50.435,62.622 c -2.338,0.464 -5.024,3.204 -5.893,4.626 -1.972,3.223 -2.197,7.604 -2.109,12.19 0.074,3.863 0.796,7.017 1.904,10.724 0.52,1.739 2.5,8.407 4.849,8.37 0.281,-0.004 0.495,-0.166 0.658,-0.437 -0.162,-0.331 -0.319,-0.665 -0.469,-1.001 z"
   id="path1132" />

				<path
   style="opacity:0.4;fill:#ffffff"
   d="m 53.374,103.463 c -0.808,-0.892 -1.526,-1.87 -2.168,-2.897 -0.368,0.515 -0.283,1.195 -0.023,1.827 0.066,0.228 0.156,0.453 0.268,0.674 0.511,1.014 1.993,2.564 3.278,2.005 0.065,-0.028 0.124,-0.061 0.18,-0.096 -0.535,-0.479 -1.052,-0.979 -1.535,-1.513 z"
   id="path1133" />

			</g>

			<g
   id="g1135">
				<path
   style="opacity:0.4;fill:#ffffff"
   d="m 87.196,97.094 c 1.521,-3.428 2.437,-7.078 3.035,-10.772 0.523,-3.242 0.957,-6.538 0.912,-9.827 -0.071,-5.134 -1.382,-10.279 -5.007,-13.873 2.338,0.464 5.023,3.204 5.893,4.626 1.971,3.223 2.197,7.604 2.108,12.19 -0.075,3.863 -0.795,7.017 -1.904,10.724 -0.519,1.739 -2.501,8.407 -4.849,8.37 -0.281,-0.004 -0.495,-0.166 -0.657,-0.437 0.162,-0.331 0.32,-0.665 0.469,-1.001 z"
   id="path1134" />

				<path
   style="opacity:0.4;fill:#ffffff"
   d="m 83.197,103.463 c 0.808,-0.892 1.526,-1.87 2.168,-2.897 0.368,0.515 0.283,1.195 0.023,1.827 -0.066,0.228 -0.156,0.453 -0.268,0.674 -0.511,1.014 -1.994,2.564 -3.279,2.005 -0.065,-0.028 -0.124,-0.061 -0.18,-0.096 0.537,-0.479 1.053,-0.979 1.536,-1.513 z"
   id="path1135" />

			</g>

			
			
		</g>

	</g>
  </g>
</svg>
