<?xml version="1.0" encoding="UTF-8" standalone="no"?>
<!-- Created with Inkscape (http://www.inkscape.org/) -->

<svg
   width="35.5mm"
   height="42.599998mm"
   viewBox="0 0 35.5 42.599998"
   version="1.1"
   id="svg1"
   inkscape:version="1.4.3 (0d15f75, 2025-12-25)"
   sodipodi:docname="mosquito.svg"
   xmlns:inkscape="http://www.inkscape.org/namespaces/inkscape"
   xmlns:sodipodi="http://sodipodi.sourceforge.net/DTD/sodipodi-0.dtd"
   xmlns="http://www.w3.org/2000/svg"
   xmlns:svg="http://www.w3.org/2000/svg">
  <sodipodi:namedview
     id="namedview1"
     pagecolor="#ffffff"
     bordercolor="#000000"
     borderopacity="0.25"
     inkscape:showpageshadow="2"
     inkscape:pageopacity="0.0"
     inkscape:pagecheckerboard="0"
     inkscape:deskcolor="#d1d1d1"
     inkscape:document-units="mm"
     inkscape:zoom="0.72604517"
     inkscape:cx="396.66953"
     inkscape:cy="561.25984"
     inkscape:window-width="1920"
     inkscape:window-height="1017"
     inkscape:window-x="-8"
     inkscape:window-y="-8"
     inkscape:window-maximized="1"
     inkscape:current-layer="layer1" />
  <defs
     id="defs1" />
  <g
     inkscape:label="Layer 1"
     inkscape:groupmode="layer"
     id="layer1">
    <g
       id="g15"
       transform="matrix(0.26458333,0,0,0.26458333,-17.547493,-8.0901645)">
		<path
   d="m 137.578,74.426 c 0,-1.102 -0.786,-1.995 -1.756,-1.995 -0.005,0 -0.009,0 -0.014,0 -0.728,0.007 -1.375,0.861 -1.489,0.295 l -0.928,-12.343 -0.928,12.343 c -0.114,0.566 -0.761,-0.288 -1.489,-0.295 -0.005,0 -0.009,0 -0.014,0 -0.97,0 -1.756,0.893 -1.756,1.995 0,0.635 0.266,1.193 0.672,1.559 -0.258,0.372 -0.407,0.789 -0.407,1.232 0,1.541 1.755,2.79 3.921,2.79 2.166,0 3.921,-1.249 3.921,-2.79 0,-0.443 -0.149,-0.86 -0.407,-1.232 0.408,-0.366 0.674,-0.924 0.674,-1.559 z"
   id="path1" />

		<g
   id="g3">
			<path
   d="m 200.298,98.127 c -1.867,3.992 -15.156,7.292 -32.168,-0.938 -20.608,-9.969 -36.109,-9.687 -35.357,-13.535 0.752,-3.848 24.174,-2.511 41.156,0.806 16.982,3.318 28.03,10.115 26.369,13.667 z"
   id="path2" />

			<path
   d="m 66.486,98.127 c 1.867,3.992 15.156,7.292 32.168,-0.938 20.608,-9.969 36.109,-9.687 35.357,-13.535 -0.752,-3.848 -24.174,-2.511 -41.156,0.806 -16.983,3.318 -28.03,10.115 -26.369,13.667 z"
   id="path3" />

		</g>

		<path
   d="m 141.589,91.224 c 0,-4.823 -2.207,-8.928 -5.304,-10.538 -0.826,-5.042 -1.822,-8.42 -2.893,-8.42 -1.071,0 -2.067,3.378 -2.893,8.42 -3.097,1.61 -5.304,5.714 -5.304,10.538 0,3.073 0.898,5.853 2.349,7.884 0.639,0.895 1.05,2.017 0.911,3.144 -2.382,19.377 0.433,32.431 4.937,32.431 4.279,0 7.657,-13.055 4.937,-32.431 -0.158,-1.125 0.272,-2.25 0.911,-3.144 1.451,-2.031 2.349,-4.811 2.349,-7.884 z"
   id="path4" />

		<g
   id="g5">
			<path
   d="m 140.18,64.719 c 0,0 -0.277,0.144 -0.76,0.448 -0.477,0.311 -1.148,0.806 -1.889,1.523 -1.485,1.422 -3.192,3.811 -4.219,6.811 -0.598,1.809 -0.329,2.854 0.08,2.941 0.437,0.095 1,-0.691 1.558,-2.381 0.953,-2.78 2.156,-5.186 3.246,-6.817 0.541,-0.816 1.039,-1.447 1.401,-1.873 0.375,-0.419 0.583,-0.652 0.583,-0.652 z"
   id="path5" />

		</g>

		<g
   id="g6">
			<path
   d="m 126.604,64.719 c 0,0 0.208,0.233 0.582,0.652 0.362,0.426 0.86,1.057 1.401,1.873 1.09,1.631 2.293,4.037 3.246,6.817 0.551,1.662 1.118,2.461 1.558,2.381 0.411,-0.071 0.687,-1.102 0.08,-2.941 -1.027,-3 -2.734,-5.388 -4.219,-6.811 -0.741,-0.718 -1.412,-1.212 -1.889,-1.524 -0.483,-0.303 -0.759,-0.447 -0.759,-0.447 z"
   id="path6" />

		</g>

		<g
   id="g11">
			<g
   id="g7">
				<path
   d="m 192.55,144.949 c 0,0 -0.549,-0.656 -1.583,-1.889 -0.53,-0.607 -1.254,-1.29 -2.072,-2.132 -0.424,-0.405 -0.907,-0.81 -1.409,-1.259 -0.501,-0.451 -1.042,-0.922 -1.646,-1.377 -2.358,-1.902 -5.409,-3.999 -9.107,-6.081 -1.849,-1.042 -3.853,-2.092 -6.009,-3.118 -1.081,-0.507 -2.195,-1.019 -3.351,-1.514 -0.58,-0.243 -1.167,-0.489 -1.761,-0.737 -0.3,-0.119 -0.601,-0.239 -0.904,-0.359 -0.403,-0.153 -0.392,-0.155 -0.479,-0.191 -0.791,-3.802 -1.657,-7.966 -2.577,-12.393 -1.02,-4.725 -2.1,-9.73 -3.217,-14.907 -1.778,-1.199 -3.891,-2.625 -6.03,-4.067 -19.022,-12.779 -20.621,-11.072 -1.288,1.916 1.876,1.255 3.73,2.494 5.289,3.537 1.12,4.852 2.204,9.543 3.227,13.971 1.122,4.726 2.178,9.173 3.142,13.232 0.759,0.265 1.509,0.528 2.251,0.787 0.592,0.224 1.177,0.445 1.755,0.663 1.154,0.446 2.27,0.909 3.356,1.366 2.165,0.928 4.185,1.879 6.056,2.824 3.742,1.888 6.858,3.798 9.292,5.544 0.624,0.417 1.184,0.851 1.705,1.267 0.522,0.415 1.026,0.787 1.47,1.162 0.858,0.781 1.623,1.415 2.188,1.983 1.11,1.157 1.702,1.772 1.702,1.772 z"
   id="path7" />

			</g>

			<g
   id="g8">
				<path
   d="m 164.927,191.498 c 0,0 -0.089,-1.37 -0.254,-3.921 -0.042,-0.639 -0.09,-1.351 -0.142,-2.134 -0.1,-0.779 -0.208,-1.627 -0.326,-2.544 -0.119,-0.918 -0.247,-1.903 -0.383,-2.952 -0.175,-1.044 -0.404,-2.144 -0.623,-3.311 -0.92,-4.649 -2.365,-10.259 -4.982,-16.303 -1.298,-3.023 -2.883,-6.149 -4.795,-9.298 -0.5,-0.774 -1.006,-1.558 -1.518,-2.351 -0.552,-0.767 -1.091,-1.557 -1.674,-2.329 -0.595,-0.764 -1.186,-1.545 -1.841,-2.294 -0.315,-0.383 -0.651,-0.755 -0.994,-1.126 -0.17,-0.187 -0.339,-0.374 -0.522,-0.556 l -0.154,-0.163 c 1.241,-5.008 2.549,-10.284 3.908,-15.769 1.418,-5.848 2.89,-11.919 4.402,-18.151 -0.724,-0.94 -1.6,-2.077 -2.479,-3.219 -18.608,-24.137 -20.741,-23.123 -1.828,1.41 0.642,0.832 1.281,1.659 1.81,2.344 -1.38,5.875 -2.723,11.598 -4.018,17.111 -1.352,5.875 -2.653,11.525 -3.888,16.889 l 0.498,0.465 0.419,0.407 c 0.171,0.162 0.335,0.337 0.5,0.51 0.332,0.343 0.659,0.69 0.97,1.052 0.643,0.702 1.231,1.445 1.825,2.169 0.582,0.734 1.124,1.489 1.68,2.22 0.519,0.759 1.032,1.51 1.538,2.251 1.947,3.022 3.591,6.038 4.961,8.967 2.762,5.856 4.4,11.343 5.502,15.915 0.265,1.147 0.54,2.231 0.758,3.26 0.181,1.037 0.352,2.01 0.51,2.916 0.159,0.907 0.306,1.748 0.442,2.518 0.089,0.777 0.171,1.484 0.244,2.118 0.295,2.536 0.454,3.899 0.454,3.899 z"
   id="path8" />

			</g>

			<g
   id="g9">
				<path
   d="m 74.234,144.949 c 0,0 0.592,-0.615 1.705,-1.772 0.565,-0.567 1.33,-1.201 2.188,-1.983 0.444,-0.375 0.948,-0.748 1.47,-1.163 0.521,-0.416 1.081,-0.85 1.705,-1.267 2.434,-1.747 5.55,-3.656 9.292,-5.545 1.87,-0.945 3.891,-1.895 6.056,-2.824 1.085,-0.458 2.202,-0.921 3.356,-1.367 0.578,-0.218 1.163,-0.439 1.755,-0.663 0.742,-0.26 1.493,-0.522 2.251,-0.787 0.964,-4.059 2.02,-8.506 3.142,-13.232 1.023,-4.429 2.106,-9.12 3.227,-13.971 1.559,-1.043 3.413,-2.283 5.289,-3.537 19.022,-12.779 18.046,-14.905 -1.287,-1.916 -2.139,1.443 -4.253,2.868 -6.03,4.067 -1.117,5.177 -2.197,10.182 -3.217,14.907 -0.921,4.427 -1.787,8.591 -2.577,12.393 -0.088,0.036 -0.076,0.038 -0.479,0.191 -0.303,0.12 -0.605,0.24 -0.905,0.359 -0.594,0.249 -1.181,0.494 -1.761,0.737 -1.156,0.495 -2.27,1.007 -3.351,1.514 -2.156,1.027 -4.16,2.077 -6.009,3.118 -3.699,2.082 -6.75,4.178 -9.107,6.081 -0.605,0.456 -1.145,0.926 -1.646,1.377 -0.502,0.449 -0.985,0.854 -1.409,1.259 -0.819,0.842 -1.542,1.525 -2.072,2.132 -1.037,1.236 -1.586,1.892 -1.586,1.892 z"
   id="path9" />

			</g>

			<g
   id="g10">
				<path
   d="m 101.857,191.498 c 0,0 0.159,-1.363 0.456,-3.9 0.073,-0.633 0.154,-1.34 0.244,-2.118 0.135,-0.771 0.283,-1.611 0.442,-2.518 0.159,-0.906 0.329,-1.879 0.51,-2.916 0.218,-1.029 0.493,-2.113 0.758,-3.26 1.103,-4.572 2.74,-10.058 5.502,-15.915 1.37,-2.929 3.015,-5.945 4.961,-8.967 0.507,-0.741 1.02,-1.492 1.538,-2.251 0.556,-0.731 1.097,-1.486 1.68,-2.22 0.593,-0.725 1.182,-1.467 1.825,-2.169 0.311,-0.362 0.638,-0.708 0.97,-1.052 0.165,-0.174 0.329,-0.348 0.5,-0.51 l 0.419,-0.407 0.498,-0.465 c -1.235,-5.364 -2.536,-11.014 -3.888,-16.889 -1.295,-5.513 -2.638,-11.236 -4.018,-17.111 0.529,-0.685 1.168,-1.513 1.81,-2.344 18.608,-24.137 17.084,-25.942 -1.828,-1.41 -0.879,1.142 -1.755,2.278 -2.479,3.219 1.511,6.232 2.984,12.303 4.402,18.151 1.359,5.485 2.667,10.761 3.908,15.769 l -0.154,0.163 c -0.183,0.182 -0.353,0.37 -0.522,0.556 -0.343,0.371 -0.679,0.743 -0.994,1.126 -0.655,0.749 -1.245,1.53 -1.841,2.294 -0.583,0.773 -1.122,1.563 -1.674,2.329 -0.512,0.793 -1.018,1.577 -1.518,2.351 -1.912,3.15 -3.497,6.275 -4.795,9.298 -2.617,6.045 -4.061,11.654 -4.982,16.303 -0.219,1.167 -0.449,2.267 -0.623,3.311 -0.136,1.05 -0.264,2.035 -0.383,2.952 -0.117,0.916 -0.226,1.765 -0.326,2.544 -0.052,0.783 -0.1,1.496 -0.142,2.134 -0.167,2.552 -0.256,3.922 -0.256,3.922 z"
   id="path10" />

			</g>

		</g>

		<g
   id="g14">
			<g
   id="g12">
				<path
   d="m 152.145,30.577 c 0,0 -1.037,1.313 -2.935,3.715 -0.941,1.207 -2.095,2.689 -3.44,4.416 -1.388,1.81 -2.974,3.877 -4.735,6.173 0.867,3.496 1.885,7.598 3.008,12.127 0.566,2.203 1.159,4.51 1.774,6.9 0.566,2.152 1.152,4.378 1.752,6.659 -1.126,0.892 -2.461,1.949 -3.814,3.021 -13.016,10.384 -11.789,12.359 1.44,1.805 1.761,-1.412 3.497,-2.806 4.964,-3.982 -0.781,-2.763 -1.544,-5.46 -2.281,-8.067 -0.689,-2.369 -1.354,-4.656 -1.99,-6.84 -0.649,-2.18 -1.267,-4.258 -1.848,-6.211 -0.295,-0.975 -0.581,-1.919 -0.856,-2.83 -0.139,-0.455 -0.275,-0.901 -0.409,-1.339 -0.067,-0.219 -0.133,-0.435 -0.199,-0.65 l -0.113,-0.335 c 3.014,-4.507 5.428,-8.117 7.089,-10.601 1.676,-2.561 2.593,-3.961 2.593,-3.961 z"
   id="path11" />

			</g>

			<g
   id="g13">
				<path
   d="m 114.639,30.577 c 0,0 0.917,1.4 2.594,3.96 1.661,2.484 4.075,6.094 7.089,10.601 l -0.113,0.335 c -0.066,0.214 -0.132,0.431 -0.199,0.65 -0.134,0.438 -0.27,0.884 -0.409,1.339 -0.275,0.91 -0.561,1.855 -0.856,2.83 -0.581,1.953 -1.2,4.03 -1.848,6.211 -0.635,2.184 -1.3,4.472 -1.989,6.84 -0.737,2.607 -1.5,5.304 -2.282,8.067 1.466,1.176 3.203,2.569 4.964,3.982 13.016,10.384 14.669,8.75 1.44,-1.805 -1.353,-1.072 -2.687,-2.129 -3.814,-3.021 0.6,-2.281 1.186,-4.507 1.752,-6.659 0.614,-2.389 1.207,-4.696 1.774,-6.9 1.124,-4.529 2.141,-8.631 3.008,-12.127 -1.761,-2.296 -3.347,-4.363 -4.735,-6.173 -1.346,-1.727 -2.499,-3.208 -3.44,-4.416 -1.899,-2.401 -2.936,-3.714 -2.936,-3.714 z"
   id="path12" />

			</g>

		</g>

	</g>
  </g>
</svg>
