<?xml version="1.0" encoding="UTF-8" standalone="no"?>
<!-- Created with Inkscape (http://www.inkscape.org/) -->

<svg
   width="35.645mm"
   height="25.531mm"
   viewBox="0 0 35.645001 25.531"
   version="1.1"
   id="svg1"
   inkscape:version="1.4.3 (0d15f75, 2025-12-25)"
   sodipodi:docname="moth.svg"
   xmlns:inkscape="http://www.inkscape.org/namespaces/inkscape"
   xmlns:sodipodi="http://sodipodi.sourceforge.net/DTD/sodipodi-0.dtd"
   xmlns="http://www.w3.org/2000/svg"
   xmlns:svg="http://www.w3.org/2000/svg">
  <sodipodi:namedview
     id="namedview1"
     pagecolor="#ffffff"
     bordercolor="#000000"
     borderopacity="0.25"
     inkscape:showpageshadow="2"
     inkscape:pageopacity="0.0"
     inkscape:pagecheckerboard="0"
     inkscape:deskcolor="#d1d1d1"
     inkscape:document-units="mm"
     inkscape:zoom="0.72604517"
     inkscape:cx="396.66953"
     inkscape:cy="230.7019"
     inkscape:window-width="1920"
     inkscape:window-height="1017"
     inkscape:window-x="-8"
     inkscape:window-y="-8"
     inkscape:window-maximized="1"
     inkscape:current-layer="layer1" />
  <defs
     id="defs1" />
  <g
     inkscape:label="Layer 1"
     inkscape:groupmode="layer"
     id="layer1">
    <path
       style="fill:#222221;stroke-width:0.264583"
       d="m 34.993581,21.234465 c -0.57626,-1.23507 -1.47955,-2.28944 -2.27886,-3.3901 -1.68724,-2.32331 -4.09336,-4.02828 -5.97905,-6.16956 -0.25241,-0.28654 -0.51409,-0.56912 -0.77761,-0.8509 0.64188,0.18098 1.2782,0.36989 1.93357,0.51356 0.4236,0.0929 1.98147,0.79825 2.1979,0.39344 -0.0392,-0.42784 -2.32675,-0.82021 -2.78448,-0.95436 -0.75009,-0.2196 -1.45573,-0.53578 -2.16984,-0.8376695 -0.23204,-0.2532 -0.46011,-0.50826 -0.67787,-0.76782 -0.67839,-0.80751 -1.96056,-1.10199 -2.36881,-2.04232 -0.19421,-0.44714 -0.25083,-0.91466 -0.45403,-1.35175 0.7882,-0.53155 1.71027,-1.47188 2.01586,-1.65206 0.48631,-0.28655 0.95436,-0.59981 1.42796,-0.90911 0.37386,-0.24421 0.91149,-0.43815 1.21814,-0.71808 -0.023,-0.0519 -0.0442,-0.0958 -0.0677,-0.1487 -1.01045,0.18998 -1.72191,1.04775 -2.61885,1.54782 -0.55033,0.30665 -1.11575,0.59452 -1.67084,0.90223 -0.11324,0.0627 -0.43259,0.18097 -0.74057,0.32676 -0.40614,-0.49821 -0.94959,-1.03558 -1.38853,-1.39462 -0.26035,-0.21299 -0.63447,-0.30507 -0.91705,-0.4572 0.26591,-0.18495 0.53949,-0.43551 0.73792,-0.5723 0.48075,-0.33152 1.00674,-0.62177 1.50786,-0.89905 0.52256,-0.28892 1.12872,-0.36327 1.68011,-0.57335 0.56118,-0.21379 1.12368,-0.40455004 1.68195,-0.62759004 0.23681,-0.0945 1.37584,-0.35798 1.38774,-0.55007 0,-0.0376 0.0212,0.0384 0.0397,-0.0349 -0.30268,-0.10927 -1.28561,0.34634 -1.64359,0.47837 -0.9996,0.36883 -2.06375,0.62495004 -3.03239,1.02764004 -0.62627,0.26035 -1.24989,0.59822 -1.78012,1.02209 -0.17224,0.13784 -0.5662,0.33337 -0.81676,0.55906 -0.18045,-0.18971 -0.10478,-0.35666 -0.41064,-0.49874 -0.12885,-0.0598 -0.29051,-0.081 -0.4228,-0.0614 -0.13229,-0.0196 -0.29395,0.002 -0.42281,0.0614 -0.30612,0.14208 -0.23018,0.3093 -0.41063,0.49874 -0.25056,-0.22569 -0.64452,-0.42122 -0.81677,-0.55906 -0.53022,-0.42387 -1.15385,-0.76174 -1.78012,-1.02209 -0.96837,-0.40269 -2.03279,-0.65855004 -3.03238,-1.02764004 -0.35772,-0.13203 -1.34091,-0.58764 -1.6435998,-0.47837 0.0185,0.0733 0.0397,-0.003 0.04,0.0349 0.0119,0.19209 1.1509298,0.45561 1.3877398,0.55007 0.55827,0.22278 1.12103,0.41380004 1.68195,0.62759004 0.55139,0.21008 1.15755,0.28443 1.68011,0.57335 0.50138,0.27728 1.02737,0.56753 1.50786,0.89905 0.19843,0.13679 0.47201,0.38735 0.73792,0.5723 -0.28258,0.15213 -0.6567,0.24421 -0.91705,0.4572 -0.43868,0.35904 -0.98239,0.89667 -1.38853,1.39462 -0.30798,-0.14579 -0.62733,-0.26379 -0.74057,-0.32676 -0.55509,-0.30771 -1.12077,-0.59532 -1.67084,-0.90223 -0.89694,-0.50007 -1.6084,-1.35784 -2.6188498,-1.54782 -0.0238,0.0529 -0.0447,0.0968 -0.0677,0.1487 0.30665,0.27993 0.8445498,0.47413 1.2181398,0.71808 0.47334,0.3093 0.94165,0.6223 1.42796,0.90911 0.30559,0.18018 1.22766,1.12051 2.01586,1.65206 -0.2032,0.43682 -0.25982,0.90461 -0.45403,1.35175 -0.40825,0.94007 -1.69016,1.23455 -2.36881,2.04232 -0.21802,0.25929 -0.44609,0.51435 -0.67787,0.76782 -0.7141098,0.3018895 -1.4197498,0.6180695 -2.1698398,0.8376695 -0.45773,0.13415 -2.74558,0.52626 -2.78448,0.95436 0.21643,0.40481 1.7743,-0.30057 2.1979,-0.39344 0.6551,-0.14367 1.29169,-0.33285 1.93331,-0.51356 -0.26353,0.28178 -0.52494,0.56436 -0.77735,0.8509 -1.88569,2.14101 -4.29181,3.84625 -5.97905,6.16956 -0.79931,1.10066 -1.7026,2.15503 -2.27885998,3.3901 -0.26935,0.57732 -0.87736,1.89098 -0.56198,2.52625 0.22675,0.45693 1.09140998,0.81359 1.48140998,1.10781 0.72575,0.54768 1.49992,0.43656 2.41882,0.51144 1.2565,0.10265 2.49687,0.17568 3.75735,0.0474 0.44132,-0.045 0.88132,-0.11536 1.31259,-0.20532 0.3437,-0.0717 0.67257,-0.2921 0.9956298,-0.35454 0.86334,0.65272 2.21853,0.38285 3.14881,0.0929 1.10913,-0.34581 1.8616,-1.24884 3.12499,-1.20148 0,-0.30903 -0.0677,-0.72575 -0.26644,-0.97234 0.34793,0.46778 0.73158,0.98742 0.93478,1.54781 0.18362,0.50641 0.2585,1.02473 0.8046,1.18904 0,0 0.0143,0.009 0.022,0.007 0.007,0.002 0.022,-0.007 0.022,-0.007 0.54636,-0.16431 0.62124,-0.68289 0.80459,-1.18904 0.2032,-0.56039 0.58685,-1.08003 0.93478,-1.54781 -0.19897,0.24659 -0.26644,0.66357 -0.26644,0.97234 1.26312,-0.0474 2.0156,0.85567 3.12473,1.20148 0.93028,0.28998 2.28547,0.55959 3.14881,-0.0929 0.32305,0.0624 0.65193,0.28284 0.99562,0.35454 0.43128,0.09 0.87128,0.1606 1.3126,0.20532 1.26048,0.12832 2.50058,0.0553 3.75735,-0.0474 0.9189,-0.0749 1.69307,0.0362 2.41882,-0.51144 0.39,-0.29422 1.25466,-0.65061 1.4814,-1.10781 0.3138,-0.63527 -0.29421,-1.94893 -0.56356,-2.52625 z"
       id="path23" />
  </g>
</svg>
