<?xml version="1.0" encoding="UTF-8" standalone="no"?>
<!-- Created with Inkscape (http://www.inkscape.org/) -->

<svg
   width="35.810001mm"
   height="44.299999mm"
   viewBox="0 0 35.810001 44.299999"
   version="1.1"
   id="svg1"
   inkscape:version="1.4.3 (0d15f75, 2025-12-25)"
   sodipodi:docname="scorpion.svg"
   xmlns:inkscape="http://www.inkscape.org/namespaces/inkscape"
   xmlns:sodipodi="http://sodipodi.sourceforge.net/DTD/sodipodi-0.dtd"
   xmlns="http://www.w3.org/2000/svg"
   xmlns:svg="http://www.w3.org/2000/svg">
  <sodipodi:namedview
     id="namedview1"
     pagecolor="#ffffff"
     bordercolor="#000000"
     borderopacity="0.25"
     inkscape:showpageshadow="2"
     inkscape:pageopacity="0.0"
     inkscape:pagecheckerboard="0"
     inkscape:deskcolor="#d1d1d1"
     inkscape:document-units="mm"
     inkscape:zoom="0.72604517"
     inkscape:cx="396.66953"
     inkscape:cy="561.25984"
     inkscape:window-width="1920"
     inkscape:window-height="1017"
     inkscape:window-x="-8"
     inkscape:window-y="-8"
     inkscape:window-maximized="1"
     inkscape:current-layer="layer1" />
  <defs
     id="defs1" />
  <g
     inkscape:label="Layer 1"
     inkscape:groupmode="layer"
     id="layer1">
    <g
       id="g2"
       transform="matrix(0.26458333,0,0,0.26458333,-48.242537,-37.744779)">
		<path
   style="fill:#333333"
   d="m 315.928,235.133 c -0.785,1.577 -2.358,8.75 -2.358,8.75 0,0 -8.849,5.127 -10.419,5.127 -1.569,0 -5.039,-0.315 -5.039,-0.315 0,0 -3.154,-1.425 -6.939,-2.447 -3.785,-1.022 -10.408,-2.365 -10.408,-2.365 0,0 -4.1,-4.019 -5.677,-4.965 -0.902,-0.541 -2.628,-1.185 -3.941,-1.637 0.205,-2.193 0.277,-4.406 0.195,-6.591 2.22,1.121 5.639,2.761 6.27,2.551 0.946,-0.315 0.946,-0.315 0.946,-0.315 0,0 4.1,2.523 6.308,3.154 2.208,0.631 5.993,1.262 6.939,0 0.946,-1.262 0.946,-1.262 0.946,-1.262 0,0 5.662,1.28 10.4,-1.568 4.738,-2.848 8.509,-5.686 6.466,-6.948 0,0 5.218,-7.254 3.953,-7.727 -1.265,-0.473 -6.652,6.465 -6.652,6.465 0,0 -7.86,4.258 -8.806,4.652 -0.946,0.394 -4.891,1.34 -4.891,1.34 0,0 -5.517,-2.208 -8.986,-2.523 -3.469,-0.315 -5.677,1.183 -5.677,1.183 0,0 -3.991,-3.921 -7.758,-5.012 -0.229,-1.696 -0.522,-3.441 -0.891,-5.208 1.7,0.634 3.829,1.333 4.548,1.153 1.262,-0.315 1.892,0.373 3.469,0.029 1.577,-0.344 9.706,1.548 10.057,1.548 0.351,0 1.928,-1.577 1.928,-1.577 0,0 4.416,0.315 9.146,-0.946 4.73,-1.261 6.623,-2.839 7.254,-4.731 0.631,-1.892 1.892,-10.092 0.946,-10.092 -0.946,0 -3.469,9.146 -3.469,9.146 0,0 -13.877,2.208 -14.508,3.469 -0.631,1.261 -0.631,1.262 -0.631,1.262 0,0 -8.2,-2.523 -9.777,-1.892 -1.577,0.631 -1.577,0.631 -1.577,0.631 0,0 -5.306,-1.711 -8.478,-2.486 -0.76,-2.718 -1.704,-5.389 -2.837,-7.89 2.881,0.839 7.611,2.176 8.477,2.176 1.262,0 2.523,0.315 4.1,0.315 1.577,0 7.885,-2.839 10.408,-4.1 2.523,-1.262 5.993,-3.785 5.993,-3.785 0,0 3.785,-11.354 4.1,-12.616 0.315,-1.262 0.946,-6.939 -0.315,-5.677 -1.262,1.262 -1.577,5.677 -1.577,5.677 l -5.362,9.777 c 0,0 -12.3,5.362 -13.877,6.308 -1.338,0.803 -10.17,-2.708 -14.741,-3.212 -1.069,-1.626 -2.245,-3.106 -3.552,-4.358 0,0 2.839,-1.262 0.946,-3.469 -0.314,-0.366 -0.663,-0.777 -1.029,-1.209 1.091,-1.066 2.713,-2.506 3.867,-2.891 1.892,-0.631 8.831,-3.785 15.77,-9.777 0,0 3.785,0 5.046,-2.839 1.262,-2.839 1.892,-10.723 1.892,-14.193 0,-3.469 -1.262,-10.093 -4.1,-10.723 -2.838,-0.63 -5.992,0 -6.623,0.631 -0.631,0.631 -0.315,-4.415 -2.208,-5.677 -1.892,-1.262 -11.039,-5.362 -16.085,-4.731 -5.046,0.631 -2.523,2.208 -0.946,2.208 1.577,0 2.681,0 2.365,1.892 -0.316,1.892 -1.577,2.681 -3.154,2.523 -1.577,-0.158 -4.258,-0.315 -3.942,0.631 0.315,0.946 1.104,1.419 2.366,1.892 1.261,0.473 8.042,3.785 11.512,3.942 3.47,0.157 8.673,0.315 8.673,0.315 0,0 0.473,10.881 0.946,12.931 0.473,2.05 3.312,6.781 3.312,6.781 0,0 -1.419,1.262 -2.839,1.419 -1.419,0.158 -6.15,0.788 -9.462,3.627 -3.312,2.839 -5.204,6.308 -6.15,7.57 -0.498,0.664 -1.384,1.54 -2.116,2.227 -1.272,-1.536 -2.419,-2.958 -2.772,-3.489 -0.631,-0.946 -3.469,1.577 -3.469,1.577 0,0 -0.394,0.828 -1.34,0.71 -0.946,-0.118 -1.528,-0.71 -1.528,-0.71 0,0 -2.839,-2.523 -3.469,-1.577 -0.354,0.53 -1.5,1.952 -2.772,3.489 -0.732,-0.687 -1.618,-1.563 -2.116,-2.227 -0.946,-1.262 -2.839,-4.731 -6.15,-7.57 -3.312,-2.839 -8.042,-3.469 -9.462,-3.627 -1.419,-0.158 -2.839,-1.419 -2.839,-1.419 0,0 2.839,-4.731 3.312,-6.781 0.473,-2.05 0.946,-12.931 0.946,-12.931 0,0 5.204,-0.158 8.673,-0.315 3.469,-0.157 10.25,-3.469 11.512,-3.942 1.262,-0.473 2.05,-0.946 2.366,-1.892 0.315,-0.946 -2.366,-0.789 -3.942,-0.631 -1.577,0.158 -2.839,-0.631 -3.154,-2.523 -0.315,-1.892 0.788,-1.892 2.365,-1.892 1.577,0 4.1,-1.577 -0.946,-2.208 -5.046,-0.631 -14.193,3.469 -16.085,4.731 -1.892,1.262 -1.577,6.308 -2.208,5.677 -0.631,-0.631 -3.785,-1.262 -6.623,-0.631 -2.839,0.631 -4.1,7.254 -4.1,10.723 0,3.469 0.631,11.354 1.892,14.193 1.262,2.839 5.046,2.839 5.046,2.839 6.939,5.992 13.877,9.146 15.77,9.777 1.155,0.385 2.777,1.825 3.868,2.891 -0.366,0.432 -0.715,0.844 -1.029,1.209 -1.892,2.208 0.946,3.469 0.946,3.469 -1.307,1.252 -2.483,2.732 -3.552,4.358 -4.571,0.503 -13.403,4.015 -14.741,3.212 -1.577,-0.946 -13.877,-6.308 -13.877,-6.308 l -5.362,-9.777 c 0,0 -0.315,-4.416 -1.577,-5.677 -1.262,-1.261 -0.631,4.416 -0.315,5.677 0.315,1.262 4.1,12.616 4.1,12.616 0,0 3.469,2.523 5.992,3.785 2.523,1.262 8.831,4.1 10.408,4.1 1.577,0 2.839,-0.315 4.1,-0.315 0.866,0 5.596,-1.338 8.477,-2.176 -1.133,2.502 -2.078,5.172 -2.837,7.89 -3.172,0.775 -8.479,2.486 -8.479,2.486 0,0 0,0 -1.577,-0.631 -1.577,-0.631 -9.777,1.892 -9.777,1.892 0,0 0,0 -0.631,-1.262 -0.631,-1.262 -14.508,-3.469 -14.508,-3.469 0,0 -2.523,-9.146 -3.469,-9.146 -0.946,0 0.315,8.2 0.946,10.092 0.631,1.892 2.523,3.469 7.254,4.731 4.731,1.262 9.146,0.946 9.146,0.946 0,0 1.577,1.577 1.928,1.577 0.351,0 8.48,-1.892 10.057,-1.548 1.577,0.344 2.208,-0.344 3.469,-0.029 0.719,0.18 2.849,-0.519 4.548,-1.153 -0.369,1.767 -0.662,3.512 -0.891,5.208 -3.767,1.091 -7.758,5.012 -7.758,5.012 0,0 -2.208,-1.498 -5.677,-1.183 -3.469,0.315 -8.986,2.523 -8.986,2.523 0,0 -3.945,-0.946 -4.891,-1.34 -0.946,-0.394 -8.806,-4.652 -8.806,-4.652 0,0 -5.386,-6.939 -6.651,-6.465 -1.265,0.473 3.953,7.727 3.953,7.727 -2.043,1.262 1.728,4.1 6.466,6.948 4.738,2.848 10.4,1.568 10.4,1.568 0,0 0,0 0.946,1.262 0.946,1.262 4.731,0.631 6.939,0 2.208,-0.631 6.308,-3.154 6.308,-3.154 0,0 0,0 0.946,0.315 0.63,0.21 4.05,-1.43 6.27,-2.551 -0.083,2.185 -0.01,4.398 0.195,6.591 -1.314,0.452 -3.039,1.096 -3.941,1.637 -1.577,0.946 -5.677,4.965 -5.677,4.965 0,0 -6.623,1.342 -10.408,2.365 -3.785,1.022 -6.939,2.447 -6.939,2.447 0,0 -3.469,0.315 -5.039,0.315 -1.57,0 -10.419,-5.127 -10.419,-5.127 0,0 -1.574,-7.173 -2.358,-8.75 -0.785,-1.577 -1.738,1.262 -1.738,1.262 0,0 0.946,9.146 2.463,9.853 1.516,0.707 8.285,6.862 8.285,6.862 0,0 3.76,0 5.388,0 1.628,0 3.734,-2.839 3.734,-2.839 0,0 7.569,0.631 9.813,0 2.243,-0.631 7.849,-4.1 7.849,-4.1 0,0 0,0 2.208,0.076 1.734,0.06 5.111,-3.861 7.175,-5.736 0.992,6.693 3.008,12.917 4.961,17.081 2.99,6.375 8.337,10.924 8.337,10.924 h 0.599 c -1.081,2.463 -0.613,7.313 -0.031,8.793 0.71,1.806 2.389,3.314 2.389,3.314 0,0 -2.177,3.332 -2.07,6.702 0.108,3.37 4.535,9.204 4.535,9.204 0,0 -1.536,2.985 0.232,7.277 1.768,4.292 10.248,4.255 10.248,4.255 0,0 1.688,1.781 4.957,2.003 3.269,0.222 11.239,-5.578 14.394,-8.941 3.155,-3.363 6.805,-11.635 6.805,-11.635 1.303,-0.042 3.671,-7.62 3.77,-10.885 0.099,-3.265 -1.419,-7.458 -1.419,-7.458 0,0 0,0 0.957,-0.683 0.957,-0.683 -1.837,-6.465 -7.092,-7.563 -5.254,-1.098 -10.253,5.834 -12.156,7.525 -1.903,1.692 0.419,2.922 3.73,4.448 3.311,1.525 8.778,-0.933 8.778,-0.933 -2.891,1.397 -1.456,15.705 -1.456,15.705 -10.335,3.266 -21.64,17.001 -20.833,15.018 0.807,-1.983 -5.397,-8.962 -5.397,-8.962 0,0 3.397,-5.98 3.402,-9.242 0.005,-3.262 -1.589,-5.495 -1.589,-5.495 0,0 0,0 1.893,-2.018 1.463,-1.559 0.441,-7.713 -0.099,-10.429 h 0.36 c 0,0 5.347,-4.549 8.337,-10.924 1.953,-4.164 3.969,-10.388 4.961,-17.081 2.063,1.875 5.441,5.796 7.175,5.736 2.208,-0.076 2.208,-0.076 2.208,-0.076 0,0 5.606,3.469 7.849,4.1 2.243,0.631 9.813,0 9.813,0 0,0 2.106,2.839 3.734,2.839 1.628,0 5.388,0 5.388,0 0,0 6.769,-6.156 8.285,-6.862 1.517,-0.707 2.463,-9.853 2.463,-9.853 0,0 -0.954,-2.839 -1.739,-1.262 z"
   id="path2" />

	</g>
  </g>
</svg>
