<?xml version="1.0" encoding="UTF-8" standalone="no"?>
<!-- Created with Inkscape (http://www.inkscape.org/) -->

<svg
   width="487mm"
   height="1057mm"
   viewBox="0 0 487 1057"
   version="1.1"
   id="svg1"
   xml:space="preserve"
   inkscape:version="1.4.3 (0d15f75, 2025-12-25)"
   sodipodi:docname="snail.svg"
   xmlns:inkscape="http://www.inkscape.org/namespaces/inkscape"
   xmlns:sodipodi="http://sodipodi.sourceforge.net/DTD/sodipodi-0.dtd"
   xmlns="http://www.w3.org/2000/svg"
   xmlns:svg="http://www.w3.org/2000/svg"><sodipodi:namedview
     id="namedview1"
     pagecolor="#ffffff"
     bordercolor="#000000"
     borderopacity="0.25"
     inkscape:showpageshadow="2"
     inkscape:pageopacity="0.0"
     inkscape:pagecheckerboard="0"
     inkscape:deskcolor="#d1d1d1"
     inkscape:document-units="mm"
     inkscape:zoom="0.12834787"
     inkscape:cx="-319.44434"
     inkscape:cy="2240.0061"
     inkscape:window-width="1920"
     inkscape:window-height="1017"
     inkscape:window-x="-8"
     inkscape:window-y="-8"
     inkscape:window-maximized="1"
     inkscape:current-layer="layer1" /><defs
     id="defs1" /><g
     inkscape:label="Layer 1"
     inkscape:groupmode="layer"
     id="layer1"><path
       style="fill:#000000"
       d="m 302.94792,1056.2458 c -2.88132,-0.6395 -4.91434,-1.4209 -8.90603,-3.4229 -8.3663,-4.196 -18.4105,-12.1874 -26.82784,-21.3448 -9.70186,-10.5548 -14.64881,-17.2381 -42.00851,-56.75308 -5.39049,-7.78537 -11.44561,-16.53031 -13.45582,-19.4332 -4.02091,-5.8065 -5.50453,-7.91491 -15.55557,-22.10639 -22.77419,-32.15583 -29.82306,-40.983 -61.84284,-77.44462 l -8.41205,-9.57899 -3.9014,-2.71012 C 88.112704,819.88548 59.059899,788.90984 38.197567,754.06251 33.87415,746.84091 31.335472,742.15409 26.875661,733.16043 20.345552,719.9918 16.089089,709.42517 12.434101,697.30939 11.687809,694.83553 10.841384,692.11009 10.553155,691.25285 8.0151446,683.70438 3.7128547,661.96196 3.0345627,653.25626 2.9495274,652.16485 2.7119073,649.7836 2.5065181,647.96459 2.0216839,643.6707 0.88889103,629.64563 0.50840801,623.22605 0.07375734,615.89255 -0.10702782,589.28258 0.23497464,582.97909 1.0885804,567.24618 2.6396205,552.95852 5.3155946,536.17813 c 1.3703601,-8.59319 5.3206164,-25.56535 7.9132314,-33.99896 0.424985,-1.38244 1.147716,-3.76369 1.60607,-5.29166 2.369958,-7.9005 7.57302,-21.66335 11.402971,-30.1625 2.871541,-6.37232 9.348953,-18.89705 12.794027,-24.73854 4.064705,-6.89215 9.8712,-15.64005 14.407642,-21.70616 l 3.62498,-4.8473 1.399156,-4.05348 c 8.203557,-23.76646 15.271636,-41.93162 24.277593,-62.39411 0.864631,-1.96453 2.919962,-6.6675 4.567402,-10.45104 3.81912,-8.77106 12.546552,-28.4666 15.358623,-34.66042 1.18923,-2.61937 5.31456,-11.72765 9.16741,-20.24062 8.86906,-19.59644 14.53107,-31.98999 16.62034,-36.38021 0.90028,-1.89177 2.98116,-6.35662 4.62418,-9.92188 9.24333,-20.05749 19.32744,-41.30054 23.61246,-49.74166 1.96164,-3.86427 3.51461,-6.49213 5.4006,-9.1386 2.52849,-3.54805 2.66154,-3.80316 2.96707,-5.68854 2.58642,-15.96073 7.23641,-32.08213 13.17033,-45.66127 0.12841,-0.29385 -6.15968,-6.97605 -28.7264,-30.526795 C 106.25825,51.443635 76.118064,21.165589 71.040626,17.752834 70.458543,17.361592 68.91073,16.645711 67.601043,16.161988 66.291355,15.678265 63.771903,14.587906 62.002261,13.738968 L 58.784729,12.195444 58.17869,10.661785 C 57.699776,9.4498343 57.569947,8.5919694 57.559763,6.572151 c -0.01222,-2.4240538 0.0282,-2.614489 0.783284,-3.689709 1.194969,-1.7016173 2.879323,-2.46397575 5.691578,-2.57607496 2.738561,-0.10916173 4.108752,0.22355787 5.577965,1.35448106 0.950239,0.7314438 1.283785,1.2853551 2.34568,3.895402 1.809625,4.4479039 2.468923,5.6071819 4.499263,7.9112769 6.766462,7.678802 30.126127,27.260508 59.406007,49.798277 17.11569,13.174555 27.28944,20.821363 52.29066,39.302766 1.8385,1.35906 3.41768,2.47101 3.50929,2.47101 0.0916,0 1.38534,-1.26552 2.87497,-2.81228 8.79054,-9.127664 18.53122,-14.434785 30.35738,-16.539933 6.56047,-1.167816 17.74972,-0.867254 25.14523,0.675445 8.05721,1.680728 16.06784,4.819849 22.32615,8.748936 1.28626,0.807535 2.64403,1.544894 3.01729,1.638574 0.37325,0.09368 1.40685,0.836229 2.29689,1.650108 0.89004,0.813879 2.90634,2.61045 4.48066,3.99239 1.57433,1.38193 3.36385,3.07032 3.97671,3.75196 l 1.11428,1.23936 10.42712,-7.68441 c 53.16396,-39.1799 92.39762,-70.458768 106.37848,-84.809793 3.03828,-3.118729 3.59931,-4.02262 5.89509,-9.4977091 1.3545,-3.2302638 1.77162,-3.7510744 3.7256,-4.65169983 1.07573,-0.49582126 1.75973,-0.60617313 3.70087,-0.59707282 2.05216,0.009621 2.56953,0.10891906 3.74355,0.71849551 1.62011,0.84119994 2.90719,2.30888834 3.30455,3.76825764 0.38016,1.3962276 0.12994,3.9005678 -0.57909,5.7955966 -0.46737,1.249178 -0.78739,1.664285 -1.75716,2.279296 -1.40736,0.89252 -6.08627,2.980454 -8.65308,3.86138 -1.00351,0.344404 -2.43226,1.087705 -3.175,1.651782 -7.40944,5.627135 -44.57996,43.346831 -98.39535,99.849117 l -9.99701,10.49614 1.03445,2.06251 c 5.46899,10.90426 10.48948,26.57408 13.80023,43.07293 0.79499,3.9618 2.23079,8.28733 4.17587,12.58036 0.29354,0.64788 1.08421,2.46983 1.75705,4.04877 2.93362,6.88431 8.52523,17.20815 13.94342,25.74387 7.59183,11.96003 15.04335,21.68482 30.27838,39.51554 9.19428,10.76077 13.08895,15.40837 16.29642,19.44688 10.22797,12.878 20.26523,28.36646 28.2056,43.52396 1.69225,3.23035 1.99824,4.06518 3.20031,8.73125 1.55439,6.03367 3.94277,16.13202 4.27764,18.08633 0.12822,0.7483 0.83736,4.26661 1.57585,7.81847 1.89321,9.10558 3.86054,20.09811 5.99443,33.49416 1.27798,8.02282 3.77987,28.87831 4.31667,35.98333 0.14293,1.89177 0.50974,6.35108 0.81513,9.90958 0.54261,6.32271 0.5765,6.51544 1.48879,8.46666 1.61071,3.44502 4.8654,11.11381 6.23738,14.69668 3.29076,8.59371 8.92765,26.22497 11.84258,37.04167 0.7451,2.76489 1.58542,5.80099 1.86738,6.74687 1.09904,3.68691 5.80831,24.66419 5.80831,25.87293 0,0.26394 1.46593,3.3909 3.25762,6.9488 5.91431,11.74445 11.28904,25.58819 14.47306,37.27838 1.76708,6.48786 3.88865,16.69164 5.00678,24.08028 3.71333,24.53784 3.72627,47.21217 0.0414,72.59346 -0.30892,2.12784 -0.41093,3.65749 -0.27348,4.10104 1.86982,6.03409 3.38948,12.28027 4.0666,16.7147 0.23332,1.52797 0.57107,3.67109 0.75057,4.7625 0.52552,3.19529 0.41804,18.69644 -0.16687,24.06881 -0.54095,4.96848 -1.55753,11.69977 -2.17899,14.42806 -2.63791,11.58101 -4.57974,18.01969 -7.89714,26.18528 -6.95881,17.12873 -18.08516,32.7457 -30.92334,43.40406 -10.68876,8.87388 -23.11754,15.43163 -35.36875,18.66145 l -2.24896,0.5929 -2.91042,2.8097 c -2.76936,2.67352 -7.54928,7.06896 -9.76723,8.98158 l -1.02867,0.88705 -1.94797,7.8442 c -2.94888,11.87473 -8.39703,36.00862 -9.62516,42.63691 -0.42298,2.28286 -6.92453,33.19473 -7.76298,36.90938 -0.36131,1.60073 -1.31356,5.83553 -2.11612,9.41066 -6.78093,30.20684 -11.7306,49.1608 -16.99236,65.06955 -0.93855,2.83765 -2.07666,6.29048 -2.52914,7.67288 -1.32641,4.0525 -4.63091,12.733 -6.74132,17.7085 -6.68313,15.7561 -14.98567,27.0238 -24.43845,33.1664 -4.4265,2.8764 -8.27423,4.1433 -13.09435,4.3114 -2.45825,0.086 -3.6827,-0 -5.42396,-0.3884 z"
       id="path1" /></g></svg>
