<?xml version="1.0" encoding="UTF-8" standalone="no"?>
<!-- Created with Inkscape (http://www.inkscape.org/) -->

<svg
   width="33mm"
   height="35.630001mm"
   viewBox="0 0 33 35.630001"
   version="1.1"
   id="svg1"
   inkscape:version="1.4.3 (0d15f75, 2025-12-25)"
   sodipodi:docname="spider.svg"
   xmlns:inkscape="http://www.inkscape.org/namespaces/inkscape"
   xmlns:sodipodi="http://sodipodi.sourceforge.net/DTD/sodipodi-0.dtd"
   xmlns="http://www.w3.org/2000/svg"
   xmlns:svg="http://www.w3.org/2000/svg">
  <sodipodi:namedview
     id="namedview1"
     pagecolor="#ffffff"
     bordercolor="#000000"
     borderopacity="0.25"
     inkscape:showpageshadow="2"
     inkscape:pageopacity="0.0"
     inkscape:pagecheckerboard="0"
     inkscape:deskcolor="#d1d1d1"
     inkscape:document-units="mm"
     inkscape:zoom="0.72604517"
     inkscape:cx="396.66953"
     inkscape:cy="561.25984"
     inkscape:window-width="1920"
     inkscape:window-height="1017"
     inkscape:window-x="-8"
     inkscape:window-y="-8"
     inkscape:window-maximized="1"
     inkscape:current-layer="layer1" />
  <defs
     id="defs1" />
  <g
     inkscape:label="Layer 1"
     inkscape:groupmode="layer"
     id="layer1">
    <g
       id="g6"
       transform="matrix(0.26458333,0,0,0.26458333,-30.218865,-80.494864)">
		<path
   style="fill:#333333"
   d="m 237.3,409.833 c -1.5,-0.333 -9,-3.5 -12,-5.167 -3,-1.667 -5.167,-5 -5.167,-5 1,-1 -1.5,-3.833 -2.833,-4.833 -1.333,-1 -6,-7 -6.833,-8 -0.833,-1 -2.667,-1.833 -2.667,-1.833 0,0 0.333,-0.5 0.167,-1.333 -0.167,-0.833 -3.833,-6.167 -5,-7.167 -1.167,-1 -8.667,-4.833 -12,-5.167 -1.762,-0.176 -3.183,0.16 -4.145,0.516 0.047,-0.352 0.083,-0.715 0.106,-1.095 1.994,-1.211 6.57,-4.042 8.372,-5.587 2.333,-2 9.5,-4.667 11.333,-5.5 1.833,-0.833 1.333,-2 1.333,-2 0,0 2.5,-4 3.667,-5.833 1.167,-1.833 8.333,-15.5 9,-17.5 0.667,-2 -0.333,-3.5 -0.333,-3.5 0,0 0,-2.5 -0.5,-4.333 -0.5,-1.833 -0.333,-6 -0.667,-8 -0.333,-2 -1.667,-5.167 -2.833,-5.167 -1.166,0 0.167,3 0.5,7.333 0.333,4.333 2,9.833 2,9.833 0,0 -2.167,2.667 -2.5,3.833 -0.333,1.167 -6.667,15.167 -8.167,18.333 -1.5,3.167 -1.167,4.5 -1.167,4.5 0,0 -1.167,0.167 -2.167,0.167 -1,0 -3.667,0 -8,2.333 -3.4,1.831 -8.327,5.397 -10.296,6.852 -0.232,-0.818 -0.535,-1.579 -0.892,-2.277 3.563,-3.916 14.313,-15.741 15.355,-16.991 1.25,-1.5 0.5,-3.5 0.5,-3.5 1,-0.75 1.5,-4 1,-6.75 -0.5,-2.75 1.25,-10 2,-12 0.75,-2 -0.5,-4.25 -0.5,-4.25 0.75,-1.25 -0.75,-3.5 -1.75,-4.5 -1,-1 -5.25,-8 -5.25,-8.75 0,-0.75 -1.5,-3 -2.25,-3.25 -0.75,-0.25 -0.25,2.25 -0.25,3.5 0,1.25 7.75,13.5 7.75,13.5 0,0 -3.75,16.75 -2.75,18.5 1,1.75 0.25,3.75 0.25,3.75 0,0 0,0 -0.75,0 -0.75,0 -3.25,3.75 -5,5.75 -1.514,1.73 -7.982,10.505 -9.701,12.842 -1.786,-2.349 -3.799,-3.592 -3.799,-3.592 0,0 1.057,-1.284 1.218,-2.664 1.426,-0.501 3.449,-0.924 3.449,-2.336 0,-1.833 -2.5,-5.333 -3.167,-5.833 -0.667,-0.5 -1.5,-1.143 -2,-0.905 -0.5,0.238 0.667,2.405 1.5,3.071 0.833,0.667 2.917,2.333 2.375,3 -0.314,0.387 -1.608,1.221 -2.639,1.855 -1.177,-0.873 -3.986,-1.188 -3.986,-1.188 h -1.467 c 0,0 -2.809,0.315 -3.986,1.188 -1.032,-0.633 -2.325,-1.468 -2.639,-1.855 -0.542,-0.667 1.542,-2.333 2.375,-3 0.833,-0.667 2,-2.833 1.5,-3.071 -0.5,-0.238 -1.333,0.405 -2,0.905 -0.667,0.5 -3.167,4 -3.167,5.833 0,1.411 2.022,1.836 3.449,2.336 0.161,1.38 1.218,2.664 1.218,2.664 0,0 -2.013,1.243 -3.799,3.592 -1.718,-2.337 -8.187,-11.112 -9.701,-12.842 -1.75,-2 -4.25,-5.75 -5,-5.75 -0.75,0 -0.75,0 -0.75,0 0,0 -0.75,-2 0.25,-3.75 1,-1.75 -2.75,-18.5 -2.75,-18.5 0,0 7.75,-12.25 7.75,-13.5 0,-1.25 0.5,-3.75 -0.25,-3.5 -0.75,0.25 -2.25,2.5 -2.25,3.25 0,0.75 -4.25,7.75 -5.25,8.75 -1,1 -2.5,3.25 -1.75,4.5 0,0 -1.25,2.25 -0.5,4.25 0.75,2 2.5,9.25 2,12 -0.5,2.75 0,6 1,6.75 0,0 -0.75,2 0.5,3.5 1.041,1.25 11.792,13.075 15.354,16.991 -0.356,0.699 -0.66,1.459 -0.892,2.277 -1.969,-1.455 -6.895,-5.021 -10.296,-6.852 -4.333,-2.333 -7,-2.333 -8,-2.333 -1,0 -2.165,-0.166 -2.165,-0.166 0,0 0.333,-1.333 -1.167,-4.5 -1.5,-3.167 -7.833,-17.167 -8.167,-18.333 -0.333,-1.167 -2.5,-3.833 -2.5,-3.833 0,0 1.667,-5.5 2,-9.833 0.333,-4.333 1.667,-7.333 0.5,-7.333 -1.167,0 -2.5,3.167 -2.833,5.167 -0.333,2 -0.167,6.167 -0.667,8 -0.5,1.833 -0.5,4.333 -0.5,4.333 0,0 -1,1.5 -0.333,3.5 0.667,2 7.833,15.667 9,17.5 1.167,1.833 3.667,5.833 3.667,5.833 0,0 -0.5,1.167 1.333,2 1.833,0.833 9,3.5 11.333,5.5 1.802,1.545 6.378,4.376 8.372,5.587 0.023,0.38 0.06,0.744 0.107,1.095 -0.962,-0.356 -2.384,-0.692 -4.145,-0.516 -3.333,0.333 -10.833,4.167 -12,5.167 -1.167,1 -4.833,6.333 -5,7.167 -0.167,0.833 0.167,1.333 0.167,1.333 0,0 -1.833,0.833 -2.667,1.833 -0.834,1 -5.5,7 -6.833,8 -1.333,1 -3.833,3.833 -2.833,4.833 0,0 -2.167,3.333 -5.167,5 -3,1.667 -10.5,4.833 -12,5.167 -1.5,0.333 -2.333,1.833 0,2.667 2.333,0.833 8.5,-2.333 11.167,-4.333 2.667,-2 7.667,-7.833 7.667,-7.833 0,0 3,-0.5 3.833,-2 0.833,-1.5 1,-2.5 1,-2.5 0,0 5,-5.333 7.333,-10 L 146.333,385 c 0,0 3.667,-2.5 5.333,-4 1.667,-1.5 9.667,-6.333 11.5,-6.5 1.017,-0.092 2.443,-0.185 3.513,-0.249 0.172,0.522 0.37,0.992 0.581,1.427 -0.907,0.244 -2.383,0.817 -3.927,2.155 -2.5,2.167 -8.667,10.5 -9.5,11.833 -0.833,1.334 -0.5,3.834 0.667,4.334 0,0 0.167,2.333 -1.167,3.833 -1.333,1.5 -8.333,15.5 -9.5,16.5 -1.167,1 -3.333,3.167 -2.333,4 1,0.833 0.5,0.5 0.5,0.5 0,0 -2.833,6.167 -4.167,7.667 -1.333,1.5 -3.167,6.333 -5.667,8.333 -2.5,2 -3.333,3.5 -2.167,4 1.166,0.5 4.167,-2.167 5.333,-4.167 1.167,-2 8.167,-15.333 8.167,-15.333 0,0 2.167,-2.667 3.167,-4 1,-1.333 9.833,-15.333 10,-17.167 0.167,-1.833 0,-3.667 0,-3.667 0,0 1,-1.667 1.5,-2.667 0.5,-1 4.333,-10 6.667,-11.833 1.404,-1.103 2.679,-2.019 3.478,-2.578 1.104,1.471 2.189,2.078 2.189,2.078 0,0 -8,9.25 -8,19.5 0,10.25 6,17.5 13.25,17.5 h 1.467 c 7.25,0 13.25,-7.25 13.25,-17.5 0,-10.25 -8,-19.5 -8,-19.5 0,0 1.084,-0.608 2.188,-2.078 0.799,0.559 2.074,1.475 3.478,2.578 2.333,1.833 6.167,10.833 6.667,11.833 0.5,1 1.5,2.667 1.5,2.667 0,0 -0.167,1.833 0,3.667 0.167,1.833 9,15.833 10,17.167 1,1.333 3.167,4 3.167,4 0,0 7,13.333 8.167,15.333 1.167,2 4.167,4.667 5.333,4.167 1.167,-0.5 0.333,-2 -2.167,-4 -2.5,-2 -4.333,-6.833 -5.667,-8.333 -1.333,-1.5 -4.167,-7.667 -4.167,-7.667 0,0 -0.5,0.333 0.5,-0.5 1,-0.833 -1.167,-3 -2.333,-4 -1.167,-1 -8.167,-15 -9.5,-16.5 -1.333,-1.5 -1.167,-3.833 -1.167,-3.833 1.167,-0.5 1.5,-3 0.667,-4.333 -0.833,-1.333 -7,-9.667 -9.5,-11.833 -1.544,-1.338 -3.02,-1.911 -3.927,-2.155 0.211,-0.435 0.409,-0.905 0.581,-1.427 1.07,0.064 2.496,0.156 3.513,0.249 1.833,0.167 9.833,5 11.5,6.5 1.667,1.5 5.333,4 5.333,4 l -0.333,0.833 c 2.333,4.667 7.333,10 7.333,10 0,0 0.167,1 1,2.5 0.833,1.5 3.833,2 3.833,2 0,0 5,5.833 7.667,7.833 2.667,2 8.833,5.167 11.167,4.333 2.333,-0.833 1.5,-2.333 0,-2.667 z"
   id="path6" />

	</g>
  </g>
</svg>
