<?xml version="1.0" encoding="UTF-8" standalone="no"?>
<!-- Created with Inkscape (http://www.inkscape.org/) -->

<svg
   width="29.299999mm"
   height="30.299999mm"
   viewBox="0 0 29.299999 30.299999"
   version="1.1"
   id="svg1"
   inkscape:version="1.4.3 (0d15f75, 2025-12-25)"
   sodipodi:docname="termite.svg"
   xmlns:inkscape="http://www.inkscape.org/namespaces/inkscape"
   xmlns:sodipodi="http://sodipodi.sourceforge.net/DTD/sodipodi-0.dtd"
   xmlns="http://www.w3.org/2000/svg"
   xmlns:svg="http://www.w3.org/2000/svg">
  <sodipodi:namedview
     id="namedview1"
     pagecolor="#ffffff"
     bordercolor="#000000"
     borderopacity="0.25"
     inkscape:showpageshadow="2"
     inkscape:pageopacity="0.0"
     inkscape:pagecheckerboard="0"
     inkscape:deskcolor="#d1d1d1"
     inkscape:document-units="mm"
     inkscape:zoom="0.72604517"
     inkscape:cx="396.66953"
     inkscape:cy="561.25984"
     inkscape:window-width="1920"
     inkscape:window-height="1017"
     inkscape:window-x="-8"
     inkscape:window-y="-8"
     inkscape:window-maximized="1"
     inkscape:current-layer="layer1" />
  <defs
     id="defs1" />
  <g
     inkscape:label="Layer 1"
     inkscape:groupmode="layer"
     id="layer1">
    <path
       style="fill:#595959;stroke-width:0.264583"
       d="m 8.59012,22.712691 0.0159,-0.10372 c 0.28046,0.2802 0.59531,0.49477 0.93874,0.5805 -0.37412,-1.3208 -0.95462,-2.33257 -1.16681,-3.02207 -0.21193,-0.79534 -0.74242,-1.64412 -0.63633,-2.49238 l -0.3122,-0.3474 c 0.80036,-0.20558 2.11666,0.61331 3.08133,0.89853 -0.12329,0.28337 0.007,0.54054 0.62469,0.50985 0.37094,-0.0534 0.52969,-0.37174 0.84798,-0.47784 0.30851,-0.0884 0.7247,-0.0323 1.00913,-0.16245 0.018,0.16986 0.0315,0.32941 0.0484,0.47837 -2.11322,0.5453 -3.00831,3.58219 -1.71688,5.37951 0.6985,0.9525 1.96797,2.85617 3.23744,2.98397 0.0259,0.002 0.0484,0 0.073,0.001 0.0251,-0.001 0.0474,0.001 0.0728,-0.001 1.27,-0.12753 2.53974,-2.03147 3.23797,-2.98397 1.2917,-1.79732 0.39661,-4.83421 -1.71714,-5.37951 0.0169,-0.14896 0.0302,-0.30851 0.0484,-0.47837 0.2847,0.13018 0.70115,0.0741 1.00939,0.16245 0.31803,0.10584 0.47704,0.4244 0.84825,0.47784 0.61781,0.0307 0.74772,-0.22622 0.62416,-0.50985 0.9644,-0.28496 2.2807,-1.10411 3.0816,-0.89853 l -0.31248,0.3474 c 0.10557,0.84826 -0.42412,1.69704 -0.63632,2.49238 -0.21219,0.68924 -0.79295,1.70127 -1.16655,3.02207 0.34317,-0.0857 0.65802,-0.3003 0.93822,-0.57997 l 0.0159,0.10319 c 0.2122,1.37848 0.2122,2.75696 0.58341,4.0296 0.21219,0.74216 0.31829,2.96889 0.74215,3.33984 0.95462,0.79534 0.58367,-0.9017 0.4244,-1.27238 -0.26512,-0.74216 -0.53049,-1.32556 -0.63659,-2.12037 -0.21193,-1.21973 -0.52996,-2.43946 -0.52996,-3.71158 0,-0.17277 -0.0352,-0.62018 -0.12541,-0.94297 0.34713,-0.50086 0.6096,-1.06495 0.76173,-1.49596 0.18812,-0.46963 1.0414,-2.98 0.42042,-3.35915 -0.41592,-1.30942 -2.85035,0.0206 -3.91557,0.62971 -0.0669,-0.05 -0.1397,-0.095 -0.21616,-0.13388 -0.63659,-0.31803 -1.32556,-0.26511 -1.64386,-1.11336 l -0.0714,-0.14288 c 0.0145,-0.16616 0.0296,-0.33046 0.0436,-0.50033 1.28403,-0.20055 3.3229,-1.52664 3.89811,-2.0611 0.0532,-0.0508 0.0982,-0.0971 0.1397,-0.14235 0.45006,0.61463 1.56845,1.30837 1.98146,1.68011 0.5297,0.47731 0.79508,1.00753 1.21947,1.59067 0.3347,0.47837 0.54001,0.82418 0.73263,0.34317 0.51699,0.5416 1.27794,0.99324 1.91849,1.35361 0.74242,0.42412 2.1209,0.58314 2.17408,1.53802 0.21194,-0.42466 0.42413,-0.84826 0.68924,-1.21973 -0.68924,0.63606 -1.64385,-0.53023 -2.33283,-0.90144 -0.70644,-0.32967 -1.53802,-1.11786 -2.34632,-1.32741 -0.0574,-0.95144 -1.28032,-1.92802 -1.84256,-2.48999 -0.68924,-0.74243 -1.37848,-1.53776 -2.49211,-1.1139 l 0.013,0.007 c -0.43762,0.0794 -1.02023,0.30242 -1.28534,0.47123 -0.84323,0.44608 -1.45495,1.35678 -2.39871,1.47214 0.0278,-0.31512 0.0574,-0.62997 0.0918,-0.94086 0.0124,-0.10583 0.0262,-0.21775 0.0394,-0.33232 1.09484,-0.49741 2.40083,-1.79149 2.37305,-2.88131 0.93583,-0.82418 0.90223,-2.2283203 0.90223,-3.5226603 0,-0.10478 -8e-4,-0.30321 -0.0198,-0.51012 0.61066,-0.47731 1.08135,-1.12554 1.66317,-1.66317 0.63659,-0.53075 1.64386,-0.63659 2.12143,-1.06045 -1.2782,-1.17978 -2.87496,1.3761 -3.81926,2.47333 -0.0614,-0.32147 -0.19262,-0.57574 -0.47572,-0.40535 -0.15928,0.10584 -0.31829,1.06045 -0.37121,1.2192 -0.24104,0.96362 -0.26564,1.97062 -0.50615,2.9421703 -0.1561,0.18494 -0.31961,0.47996 -0.4482,0.71623 -0.3429,0.68553 -0.8218,1.18956 -1.35202,1.68116 -0.007,-0.65828 -0.15187,-1.29222 -0.68607,-1.66132 0.5207,-0.20452 0.96758,-0.56197 1.08744,-1.12104 0.19579,-1.1411503 -0.32861,-1.7629203 -1.07394,-2.0809503 0.43709,-0.33496 0.85487,-0.71781 1.07024,-0.84693 1.00753,-0.58314 1.59041,-1.11336 1.96162,-2.22673 0.37147,-1.00806 0.5834,-1.96189 1.06045,-2.9165 0.47731,-0.84826 1.37874,-1.27265001 1.80287,-1.96189001 -2.0148,-0.31803 -2.59795,3.34037001 -3.07552,4.66646001 -0.42386,1.06045 -0.68897,1.37795 -1.69651,1.80287 -0.70935,0.2831 -1.66793,0.56991 -2.13122,1.22952 -0.15636,-0.0191 -0.313,-0.031 -0.46725,-0.0368 -0.15399,0.006 -0.31062,0.0175 -0.46699,0.0368 -0.46329,-0.65961 -1.42187,-0.94642 -2.13122,-1.22952 -1.007,-0.42466 -1.27238,-0.74242 -1.69677,-1.80287 -0.47731,-1.32609 -1.06045,-4.98449001 -3.07525,-4.66646001 0.42386,0.68924 1.32556,1.11363001 1.8026,1.96189001 0.47758,0.95461 0.68951,1.9087 1.06072,2.9165 0.37094,1.11337 0.95435,1.64359 1.96162,2.22673 0.21563,0.12912 0.63315,0.51224 1.07024,0.84693 -0.7456,0.31803 -1.26974,0.94007 -1.07395,2.0809503 0.11986,0.55907 0.56674,0.91652 1.08718,1.12104 -0.53446,0.36936 -0.67945,1.00251 -0.6858,1.66079 -0.53049,-0.4908 -1.00912,-0.9951 -1.35176,-1.68063 -0.12885,-0.23627 -0.29236,-0.53129 -0.44873,-0.71623 -0.24077,-0.9720803 -0.26538,-1.9785503 -0.50642,-2.9421703 -0.0526,-0.15901 -0.21193,-1.11336 -0.37094,-1.2192 -0.28311,-0.17039 -0.41434,0.0839 -0.47572,0.40535 -0.94456,-1.09697 -2.54053,-3.65311 -3.81926,-2.47333 0.47704,0.42386 1.48484,0.5297 2.1209,1.06045 0.58261,0.53763 1.05251,1.18586 1.6637,1.66317 -0.0193,0.20664 -0.0199,0.40508 -0.0199,0.51012 0,1.29434 -0.0336,2.6976903 0.9017,3.5221303 -0.0278,1.08982 1.27847,2.38443 2.37332,2.88184 0.0132,0.11457 0.0267,0.22622 0.0392,0.33232 0.0344,0.31089 0.064,0.62548 0.0918,0.94086 -0.94377,-0.11562 -1.55496,-1.02606 -2.39872,-1.47214 -0.26537,-0.16907 -0.84772,-0.39185 -1.28534,-0.47123 l 0.013,-0.007 c -1.11337,-0.42386 -1.8026,0.37147 -2.49184,1.1139 -0.56277,0.56197 -1.78515,1.53855 -1.84283,2.48999 -0.8083,0.21008 -1.64015,0.99748 -2.34606,1.32741 -0.6895,0.37121 -1.64385,1.53776 -2.33309,0.90144 0.26484,0.37147 0.47704,0.79534 0.68924,1.21973 0.0532,-0.95462 1.43166,-1.1139 2.17381,-1.53802 0.64056,-0.36037 1.40124,-0.81148 1.9185,-1.35308 0.19288,0.48048 0.39819,0.13467 0.73263,-0.3437 0.42412,-0.58314 0.6895,-1.11336 1.21973,-1.59067 0.41301,-0.37148 1.53114,-1.06522 1.98093,-1.68011 0.0418,0.0452 0.0868,0.0915 0.1397,0.14235 0.576,0.53446 2.61488,1.86108 3.89864,2.0611 0.0143,0.16987 0.0291,0.33391 0.0436,0.50033 l -0.0714,0.14288 c -0.31803,0.84825 -1.0078,0.79533 -1.6436,1.11336 -0.0765,0.0386 -0.14922,0.0839 -0.21616,0.13388 -1.06548,-0.60907 -3.49938,-1.9386 -3.91557,-0.63024 -0.62177,0.37862 0.23204,2.88952 0.41963,3.35968 0.1524,0.43127 0.41487,0.99537 0.76227,1.49596 -0.0902,0.32305 -0.12568,0.7702 -0.12568,0.94297 0,1.27238 -0.3183,2.49211 -0.53049,3.71158 -0.1061,0.79481 -0.37095,1.37821 -0.6358,2.12037 -0.15927,0.37041 -0.53048,2.06745 0.42413,1.27238 0.42386,-0.37095 0.53023,-2.59768 0.74242,-3.33984 0.37148,-1.27238 0.37148,-2.65112 0.58367,-4.0296 z"
       id="path7" />
  </g>
</svg>
