<?xml version="1.0" encoding="UTF-8" standalone="no"?>
<!-- Created with Inkscape (http://www.inkscape.org/) -->

<svg
   width="27.6mm"
   height="27.1mm"
   viewBox="0 0 27.6 27.1"
   version="1.1"
   id="svg1"
   inkscape:version="1.4.3 (0d15f75, 2025-12-25)"
   sodipodi:docname="wasp.svg"
   xmlns:inkscape="http://www.inkscape.org/namespaces/inkscape"
   xmlns:sodipodi="http://sodipodi.sourceforge.net/DTD/sodipodi-0.dtd"
   xmlns="http://www.w3.org/2000/svg"
   xmlns:svg="http://www.w3.org/2000/svg">
  <sodipodi:namedview
     id="namedview1"
     pagecolor="#ffffff"
     bordercolor="#000000"
     borderopacity="0.25"
     inkscape:showpageshadow="2"
     inkscape:pageopacity="0.0"
     inkscape:pagecheckerboard="0"
     inkscape:deskcolor="#d1d1d1"
     inkscape:document-units="mm"
     inkscape:zoom="0.72604517"
     inkscape:cx="396.66953"
     inkscape:cy="561.25984"
     inkscape:window-width="1920"
     inkscape:window-height="1017"
     inkscape:window-x="-8"
     inkscape:window-y="-8"
     inkscape:window-maximized="1"
     inkscape:current-layer="layer1" />
  <defs
     id="defs1" />
  <g
     inkscape:label="Layer 1"
     inkscape:groupmode="layer"
     id="layer1">
    <path
       d="m 23.201986,12.704005 c 5.02418,0.245005 4.62598,-2.879725 4.10501,-3.67612 -2.04523,-3.127904 -8.60742,0.735277 -10.99158,0.603779 V 9.498049 c 0,-0.182827 -0.0326,-0.360627 -0.0897,-0.529166 0.0712,0.01191 0.14579,0.0071 0.21485,-0.02911 0.24024,-0.127 0.47228,-0.265377 0.70326,-0.406135 0.23177,-0.139171 0.45773,-0.286808 0.68342,-0.43471 0.2241,-0.150019 0.44794,-0.300832 0.66622,-0.459846 0.21881,-0.157956 0.43656,-0.317765 0.64558,-0.489479 l 0.0151,-0.01244 c 0.0368,-0.03043 0.0701,-0.06667 0.0984,-0.10795 0.3929,-0.569648 0.71623,-1.181629 1.02605,-1.802077 0.30718,-0.61595 0.6014,-1.239837 0.86149,-1.884627 0.50747,-0.297921 0.9906,-0.628385 1.46446,-0.971285 0.23945,-0.173302 0.47652,-0.349779 0.70591,-0.537104 0.22834,-0.188384 0.45403,-0.380471 0.66252,-0.595313 0.0251,-0.02619 0.0325,-0.06641 0.0148,-0.100542 -0.022,-0.0426 -0.0746,-0.05953 -0.11721,-0.03731 -0.26618,0.137319 -0.51541,0.297392 -0.762,0.461433 -0.24554,0.1651 -0.4834,0.340784 -0.71861,0.519907 -0.4707,0.357716 -0.93213,0.728133 -1.36843,1.132416 l -0.0111,0.01164 -0.0109,0.0127 c -0.45826,0.529696 -0.88185,1.080558 -1.29222,1.639623 -0.39212,0.534723 -0.77021,1.077912 -1.08876,1.657614 -0.21035,0.123296 -0.4154,0.254265 -0.61833,0.388144 -0.22596,0.147373 -0.44662,0.302948 -0.66649,0.459317 -0.21828,0.158485 -0.43683,0.317235 -0.64902,0.484452 -0.21326,0.165894 -0.42545,0.33364 -0.62945,0.513027 -0.0362,0.03202 -0.0614,0.0717 -0.081,0.1143 -0.10716,-0.140758 -0.23521,-0.2667 -0.38523,-0.368565 l -0.99007,-0.672306 c -0.0109,-0.0074 -0.023,-0.01243 -0.0341,-0.01958 h 0.372 c 0.52229,0 0.94959,-0.427302 0.94959,-0.94959 0,-0.522287 -0.4273,-0.949589 -0.94959,-0.949589 h -0.46725 c 0.12594,-0.485511 0.29024,-0.957527 0.49873,-1.407848 0.23099,-0.49821 0.50562,-0.974196 0.8308,-1.412081 0.31776,-0.442913 0.68421,-0.847725 1.08267,-1.214702 0.39846,-0.367242 0.83397,-0.69162098 1.29461,-0.97313798 0.13097,-0.08017 0.17568,-0.251089 0.0987,-0.384969 -0.0783,-0.136525 -0.25242,-0.18362 -0.38894,-0.105304 -0.50694,0.290777 -0.97208,0.650346 -1.39039,1.05542298 -0.41857,0.405342 -0.78475,0.860954 -1.10225,1.345406 -0.30983,0.48948 -0.57256,1.008063 -0.76623,1.550723 -0.17966,0.501915 -0.30348,1.021821 -0.36407,1.547019 h -0.92578 c -0.0606,-0.525198 -0.18468,-1.045104 -0.36406,-1.547019 -0.19368,-0.54266 -0.45641,-1.061243 -0.76624,-1.550723 -0.3175,-0.484452 -0.68394,-0.940064 -1.10225,-1.345406 -0.41831,-0.40507698 -0.88371,-0.76464598 -1.3903902,-1.05542298 -0.13335,-0.0762 -0.30453,-0.03307 -0.38497,0.09869 -0.082,0.134408 -0.0394,0.309827 0.0947,0.391583 0.46064,0.281781 0.8961402,0.60589598 1.2946002,0.97313798 0.39846,0.366977 0.76518,0.771789 1.08268,1.214702 0.32517,0.437885 0.59981,0.913871 0.83079,1.412081 0.20849,0.450321 0.3728,0.922337 0.49874,1.407848 h -0.55298 c -0.52229,0 -0.94959,0.427302 -0.94959,0.949589 0,0.522288 0.4273,0.94959 0.94959,0.94959 h 0.19288 c -0.0111,0.0071 -0.023,0.01217 -0.0341,0.01958 l -0.99007,0.672306 c -0.0921,0.06244 -0.17436,0.135203 -0.25056,0.21299 -0.18918,-0.163777 -0.38391,-0.319087 -0.5805,-0.471752 -0.21246,-0.167217 -0.43074,-0.325967 -0.64902,-0.484452 -0.22013,-0.156104 -0.4405302,-0.311944 -0.6664902,-0.459317 -0.2032,-0.133614 -0.40798,-0.264848 -0.61833,-0.388144 -0.31829,-0.579702 -0.69638,-1.122891 -1.08876,-1.657614 -0.41037,-0.559065 -0.8337,-1.109927 -1.29222,-1.639623 l -0.0111,-0.0127 -0.0111,-0.01138 c -0.4363,-0.404283 -0.89773,-0.7747 -1.36842,-1.132417 -0.23522,-0.178858 -0.47308,-0.354806 -0.71861,-0.519906 -0.24633,-0.164042 -0.49583,-0.324115 -0.762,-0.461433 -0.0323,-0.01667 -0.073,-0.01191 -0.10054,0.01482 -0.0344,0.03334 -0.0352,0.08864 -0.002,0.123032 0.20876,0.214841 0.43419,0.406929 0.66252,0.595312 0.22913,0.187325 0.46646,0.363802 0.70591,0.537104 0.47387,0.3429 0.957,0.673365 1.46447,0.971286 0.26008,0.644525 0.5543,1.268677 0.86148,1.884627 0.30983,0.620183 0.63315,1.232429 1.02606,1.802077 0.0272,0.03916 0.0619,0.07752 0.10054,0.109273 l 0.013,0.01085 c 0.20929,0.171979 0.42678,0.331523 0.64559,0.489479 0.21801,0.159014 0.44185,0.309562 0.66622,0.459846 0.22595,0.147902 0.4516402,0.295539 0.6834202,0.43471 0.2196,0.133615 0.44079,0.264848 0.6686,0.386556 -0.068,0.182563 -0.10504,0.377561 -0.10504,0.57785 V 9.631916 C 8.4470958,9.502006 2.2666958,6.009506 0.2929058,9.028137 c -0.5207,0.796396 -0.91917,3.921125 4.10501,3.676121 0,0 1.15384,2.709333 6.7608902,-0.708819 0.0453,0.104511 0.0992,0.205052 0.1651,0.298186 -0.1897,0.169333 -0.37835,0.339725 -0.57123,0.505618 -0.29792,0.261938 -0.60643,0.512763 -0.9101702,0.768615 -0.29924,0.260879 -0.61833,0.499798 -0.95461,0.72046 -0.33364,0.223309 -0.65405,0.461169 -0.92658,0.750888 l 0.0638,-0.05159 c -0.0894,0.06562 -0.13917,0.187325 -0.17807,0.324909 -0.0384,0.137847 -0.0873,0.261143 -0.17383,0.330464 l -0.018,0.01376 c -0.25744,0.293688 -0.56594,0.525992 -0.88053,0.750888 -0.1569,0.112712 -0.31142,0.2286 -0.45852,0.353483 -0.14658,0.125413 -0.28628,0.259027 -0.42942,0.388409 -0.56304,0.519377 -1.11813,1.048014 -1.65259,1.602052 -0.52097,0.07541 -1.03135,0.18997 -1.53776,0.319881 -0.51223,0.131498 -1.02023,0.279135 -1.50707,0.504296 -0.0325,0.01508 -0.0537,0.04948 -0.0503,0.08731 0.004,0.04789 0.0471,0.08308 0.095,0.07858 0.53419,-0.05027 1.04722,-0.178593 1.55628,-0.322791 0.50879,-0.144463 1.01362,-0.304006 1.50733,-0.504296 l 0.003,-0.0011 c 0.0103,-0.0042 0.0201,-0.0095 0.0299,-0.01561 0.6485,-0.426508 1.27556,-0.878946 1.89495,-1.340644 0.15346,-0.116945 0.31062,-0.229658 0.46064,-0.350837 0.14975,-0.121708 0.2921,-0.252148 0.4318,-0.385498 0.27913,-0.267758 0.56409,-0.528108 0.90011,-0.727075 l -0.0177,0.01376 c 0.0945,-0.05821 0.22702,-0.06271 0.36989,-0.05239 0.14261,0.0098 0.27384,0.004 0.36592,-0.05821 l 0.0638,-0.05159 c 0.30983,-0.249238 0.57177,-0.550333 0.82048,-0.865717 0.24606,-0.318029 0.5090602,-0.618066 0.7924202,-0.896144 0.27861,-0.282839 0.55272,-0.57097 0.83688,-0.847725 0.19235,-0.191822 0.3892,-0.378618 0.58552,-0.566208 l 0.0193,0.01323 c 0.26749,0.181769 0.28337,0.558271 0.0479,0.779992 -0.18521,0.17436 -0.32332,0.39714 -0.39714,0.647435 -0.004,0.0034 -0.01,0.0056 -0.0138,0.009 -0.41592,0.33999 -0.79587,0.716227 -1.16443,1.103842 l -0.13626,0.147373 -0.0341,0.03678 c -0.0188,0.01984 -0.037,0.04022 -0.0545,0.06138 -0.0349,0.04207 -0.0664,0.08652 -0.0947,0.133086 -0.0571,0.09207 -0.1018602,0.194204 -0.1082102,0.303477 -0.002,0.0508 -0.002,0.116681 0.01,0.152929 0.0101,0.03545 0.0217,0.07144 0.0296,0.106892 0.041,0.14261 -0.007,0.270139 -0.0222,0.40296 -0.022,0.131762 -0.0407,0.264319 -0.0651,0.395552 -0.0905,0.52705 -0.20981,1.049073 -0.31564,1.573477 -0.10531,0.490273 -0.1995,0.982663 -0.2802,1.477433 -0.20743,0.21643 -0.40084,0.447411 -0.58817,0.684477 -0.21166,0.268817 -0.43233,0.528638 -0.68024,0.760678 -0.24395,0.236008 -0.52361,0.435504 -0.8128,0.62521 -0.28972,0.189177 -0.5678,0.390525 -0.80936,0.628915 -0.0519,0.05159 -0.0929,0.118004 -0.11377,0.193674 l -0.002,0.009 c -0.0815,0.295011 -0.0812,0.610129 -0.11166,0.926571 -0.0204,0.317236 -0.0781,0.624681 -0.17542,0.920486 -0.0852,0.299508 -0.18203,0.595312 -0.29077,0.887677 -0.10954,0.2921 -0.22649,0.581818 -0.37386,0.861748 -0.0172,0.03307 -0.0296,0.07091 -0.0341,0.110066 -0.0201,0.172773 0.10372,0.329142 0.27649,0.34925 0.17277,0.02011 0.32914,-0.103716 0.34925,-0.276489 0.037,-0.315913 0.10425,-0.621771 0.17912,-0.925513 0.0754,-0.303477 0.16299,-0.60325 0.26194,-0.899848 0.087,-0.300037 0.21352,-0.588433 0.37756,-0.866775 0.1487,-0.242623 0.26617,-0.501914 0.34316,-0.771525 0.20559,-0.214841 0.39,-0.451114 0.56092,-0.701146 0.19579,-0.284956 0.40137,-0.560387 0.64241,-0.799306 0.23733,-0.242887 0.50165,-0.457994 0.77496,-0.663839 0.27279,-0.206375 0.54134,-0.417248 0.78635,-0.652198 0.0487,-0.04657 0.0836,-0.108215 0.0966,-0.179388 l 0.001,-0.0074 c 0.0966,-0.525992 0.1764802,-1.054894 0.2447402,-1.585648 0.0751,-0.529696 0.13626,-1.061508 0.22648,-1.588558 0.0209,-0.132027 0.0471,-0.263261 0.0704,-0.394759 0.0302,-0.130439 0.0273,-0.2667 0.11325,-0.38735 0.0193,-0.03069 0.0423,-0.06059 0.0635,-0.09075 0.0225,-0.02963 0.0365,-0.0291 0.0534,-0.0426 0.0318,-0.01905 0.0439,-0.03916 0.0595,-0.05927 0.008,-0.0095 0.0167,-0.01852 0.0259,-0.02699 l 0.014,-0.01191 0.0373,-0.0336 0.14896,-0.134673 c 0.16113,-0.150019 0.3183,-0.304271 0.47361,-0.459846 v 3.657071 c 0,0.75856 0.21986,1.500981 0.63288,2.137039 l 1.07685,1.658409 c 0.27623,0.42545 0.89906,0.42545 1.17528,0 l 1.07686,-1.658409 c 0.41301,-0.636322 0.63288,-1.378479 0.63288,-2.137039 v -3.7719 c 0.19182,0.196585 0.3892,0.387615 0.59029,0.57494 l 0.14896,0.134672 c 0.0643,0.059 0.0619,0.05265 0.0807,0.07356 0.0143,0.01746 0.0249,0.03466 0.0556,0.05133 0.027,5.29e-4 0.0775,0.08202 0.11721,0.139171 0.086,0.120914 0.0831,0.25691 0.11324,0.387614 0.0233,0.131763 0.0495,0.262731 0.0704,0.395023 0.0902,0.52705 0.1516,1.059127 0.22648,1.588823 0.0683,0.531019 0.1479,1.059656 0.24474,1.585912 l 10e-4,0.0074 c 0.0122,0.06615 0.0444,0.129381 0.0966,0.179387 0.245,0.23495 0.51355,0.445823 0.78634,0.652198 0.27331,0.205846 0.53763,0.421217 0.77496,0.66384 0.24104,0.238919 0.44662,0.514085 0.64241,0.799306 0.17092,0.250031 0.35534,0.486569 0.56092,0.701146 0.077,0.26961 0.19447,0.528902 0.34316,0.77126 0.16404,0.278342 0.29051,0.566738 0.37756,0.866775 0.099,0.296334 0.18653,0.596106 0.26194,0.899848 0.0746,0.303742 0.14182,0.609865 0.17912,0.925513 0.005,0.03704 0.0156,0.07514 0.0341,0.110066 0.081,0.153988 0.27147,0.213254 0.42545,0.132292 0.15399,-0.08096 0.21326,-0.271463 0.1323,-0.42545 -0.14711,-0.279929 -0.26432,-0.569648 -0.37386,-0.861748 -0.10874,-0.292365 -0.20558,-0.588433 -0.29078,-0.887677 -0.0974,-0.295804 -0.15504,-0.60325 -0.17542,-0.920485 -0.0307,-0.316707 -0.0302,-0.631561 -0.11165,-0.926571 l -0.003,-0.01085 c -0.0198,-0.07038 -0.0574,-0.13679 -0.11324,-0.191823 -0.24157,-0.23839 -0.51938,-0.439738 -0.80936,-0.628915 -0.28919,-0.189706 -0.56886,-0.389202 -0.8128,-0.62521 -0.24792,-0.23204 -0.46858,-0.491596 -0.68025,-0.760677 -0.18732,-0.237067 -0.38073,-0.467783 -0.58817,-0.684477 -0.0807,-0.494771 -0.17462,-0.987161 -0.28019,-1.477698 -0.10557,-0.524404 -0.22516,-1.046692 -0.31565,-1.573742 -0.0243,-0.131498 -0.0434,-0.263789 -0.0651,-0.395816 -0.0151,-0.133086 -0.0632,-0.26035 -0.0222,-0.403225 0.0148,-0.07435 0.0508,-0.126207 0.0421,-0.254794 -0.006,-0.112183 -0.0513,-0.217752 -0.11086,-0.311944 -0.0534,-0.09208 -0.15187,-0.193146 -0.18336,-0.227012 l -0.13626,-0.147638 c -0.36883,-0.387614 -0.74877,-0.763852 -1.16469,-1.103842 -0.045,-0.03678 -0.0966,-0.05979 -0.15029,-0.07567 -0.0847,-0.243682 -0.23177,-0.457994 -0.4228,-0.623359 -0.25162,-0.218016 -0.24553,-0.608012 0.0302,-0.795073 l 0.023,-0.01561 c 0.0222,-0.01508 0.0421,-0.03281 0.0635,-0.04895 0.23521,0.222515 0.46884,0.446881 0.69824,0.675481 0.28442,0.276754 0.55827,0.564886 0.83687,0.847725 0.28311,0.278077 0.5461,0.57785 0.79243,0.896144 0.24871,0.315383 0.51065,0.616479 0.82047,0.865717 l 0.0638,0.05159 c 0.0918,0.06218 0.22331,0.068 0.36592,0.05821 0.14287,-0.01032 0.27516,-0.0058 0.36988,0.05239 l -0.0177,-0.01376 c 0.33602,0.198967 0.62124,0.459317 0.90011,0.727075 0.1397,0.133614 0.28204,0.264054 0.4318,0.385498 0.15028,0.120914 0.30718,0.233891 0.46064,0.350837 0.61939,0.461698 1.24645,0.914136 1.89494,1.340644 0.009,0.0061 0.0201,0.01164 0.0307,0.01614 l 0.002,7.93e-4 c 0.49371,0.20029 0.99853,0.359834 1.50733,0.504296 0.50879,0.144198 1.02208,0.272521 1.55628,0.322792 0.0357,0.0032 0.0714,-0.01588 0.0873,-0.05027 0.0201,-0.04366 0.001,-0.09551 -0.0426,-0.115623 -0.4871,-0.225425 -0.99483,-0.372798 -1.50733,-0.504296 -0.50641,-0.129646 -1.01679,-0.244475 -1.53776,-0.319881 -0.53446,-0.554037 -1.08955,-1.082675 -1.65258,-1.602052 -0.14314,-0.129381 -0.28311,-0.262996 -0.42942,-0.388408 -0.14711,-0.124884 -0.30163,-0.240771 -0.45853,-0.353484 -0.31459,-0.224895 -0.62309,-0.4572 -0.88053,-0.750887 l -0.018,-0.01376 c -0.0868,-0.06932 -0.13547,-0.192617 -0.17383,-0.330465 -0.0386,-0.137583 -0.0886,-0.259292 -0.17807,-0.324908 l 0.0638,0.05159 c -0.27252,-0.289454 -0.59293,-0.527579 -0.92657,-0.750887 -0.33629,-0.220663 -0.65538,-0.459846 -0.95462,-0.720461 -0.30348,-0.256116 -0.61198,-0.506677 -0.91017,-0.768614 -0.25056,-0.215371 -0.49715,-0.434975 -0.74189,-0.656696 0.0497,-0.08943 0.09,-0.183356 0.1225,-0.280723 5.79015,3.615531 6.97574,0.842433 6.97574,0.842433 z"
       id="path10"
       style="stroke-width:0.264583" />
  </g>
</svg>
